<?xml version="1.0" encoding="utf-8"?>
<COLLADA xmlns="http://www.collada.org/2005/11/COLLADASchema" version="1.4.1" xmlns:xsi="http://www.w3.org/2001/XMLSchema-instance">
  <asset>
    <contributor>
      <author>Blender User</author>
      <authoring_tool>Blender 4.2.9 LTS commit date:2025-04-14, commit time:12:24, hash:a10f621e649a</authoring_tool>
    </contributor>
    <created>2026-08-01T07:28:33</created>
    <modified>2026-08-01T07:28:33</modified>
    <unit name="meter" meter="1"/>
    <up_axis>Z_UP</up_axis>
  </asset>
  <library_effects>
    <effect id="KRAIL-effect">
      <profile_COMMON>
        <newparam sid="krail_png-surface">
          <surface type="2D">
            <init_from>krail_png</init_from>
          </surface>
        </newparam>
        <newparam sid="krail_png-sampler">
          <sampler2D>
            <source>krail_png-surface</source>
          </sampler2D>
        </newparam>
        <technique sid="common">
          <lambert>
            <emission>
              <color sid="emission">0 0 0 1</color>
            </emission>
            <diffuse>
              <texture texture="krail_png-sampler" texcoord="UVMap"/>
            </diffuse>
            <index_of_refraction>
              <float sid="ior">1.5</float>
            </index_of_refraction>
          </lambert>
        </technique>
      </profile_COMMON>
    </effect>
  </library_effects>
  <library_images>
    <image id="krail_png" name="krail_png">
      <init_from>krail.png</init_from>
    </image>
  </library_images>
  <library_materials>
    <material id="KRAIL-material" name="KRAIL">
      <instance_effect url="#KRAIL-effect"/>
    </material>
  </library_materials>
  <library_geometries>
    <geometry id="krail_mesh-mesh" name="krail_mesh">
      <mesh>
        <source id="krail_mesh-mesh-positions">
          <float_array id="krail_mesh-mesh-positions-array" count="504">-0.293 0.01199996 0 -0.293 0 0.01199996 -0.305 0.01199996 0.01199996 -0.293 0.003514707 0.003514707 -0.2999282 0.005071759 0.005071759 -0.3014853 0.003514707 0.01199996 -0.3014853 0.01199996 0.003514707 -0.293 0.01199996 0.07999998 -0.305 0.01199996 0.06799995 -0.293 0 0.06799995 -0.3014853 0.01199996 0.07648527 -0.2999282 0.005071759 0.07492816 -0.3014853 0.003514707 0.06799995 -0.293 0.003514707 0.07648527 -0.2177693 0.01199996 0.09179079 -0.2319999 0.01199996 0.07999998 -0.2100574 0 0.06799995 -0.2228614 0.01199996 0.08345341 -0.2200429 0.00507164 0.08005172 -0.2210287 0.003514707 0.07648527 -0.2163553 0.003514707 0.08035737 -0.138 0.01199996 0.45 -0.1522307 0.01199996 0.4382091 -0.1400574 0 0.438 -0.1471745 0.01199996 0.4465898 -0.1458344 0.005071759 0.4449723 -0.1486293 0.003514707 0.4381045 -0.1385667 0.003514707 0.4464419 -0.09916865 0.01199996 0.4619712 -0.112 0.01199996 0.45 -0.08880442 0 0.438 -0.1032712 0.01199996 0.4535062 -0.1000277 0.00507164 0.4500297 -0.1004022 0.003514707 0.4464853 -0.09646582 0.003514707 0.4501578 -0.06299996 0.01199996 0.81 -0.07583129 0.01199996 0.7980288 -0.06380444 0 0.798 -0.0717343 0.01199996 0.8064997 -0.07027387 0.005071759 0.8049343 -0.07230311 0.003514707 0.7980144 -0.06323003 0.003514707 0.8064793 0.07583129 0.01199996 0.7980288 0.06299996 0.01199996 0.81 0.06380444 0 0.798 0.0717343 0.01199996 0.8064997 0.07027387 0.005071759 0.8049343 0.06323003 0.003514707 0.8064793 0.07230311 0.003514707 0.7980144 0.112 0.01199996 0.45 0.09916865 0.01199996 0.4619712 0.08880442 0 0.438 0.1032712 0.01199996 0.4535062 0.1000277 0.00507164 0.4500297 0.09646582 0.003514707 0.4501578 0.1004022 0.003514707 0.4464853 0.1522307 0.01199996 0.4382091 0.138 0.01199996 0.45 0.1400574 0 0.438 0.1471745 0.01199996 0.4465898 0.1458344 0.005071759 0.4449723 0.1385667 0.003514707 0.4464419 0.1486293 0.003514707 0.4381045 0.2319999 0.01199996 0.07999998 0.2177693 0.01199996 0.09179079 0.2100574 0 0.06799995 0.2228614 0.01199996 0.08345341 0.2200428 0.00507164 0.08005172 0.2163553 0.003514707 0.08035737 0.2210287 0.003514707 0.07648527 0.305 0.01199996 0.06799995 0.293 0.01199996 0.07999998 0.293 0 0.06799995 0.3014853 0.01199996 0.07648527 0.2999282 0.005071759 0.07492816 0.293 0.003514707 0.07648527 0.3014853 0.003514707 0.06799995 0.293 0.01199996 0 0.305 0.01199996 0.01199996 0.293 0 0.01199996 0.3014853 0.01199996 0.003514707 0.2999282 0.005071759 0.005071759 0.3014853 0.003514707 0.01199996 0.293 0.003514707 0.003514707 -0.293 5.988 0 -0.305 5.988 0.01199996 -0.293 6 0.01199996 -0.3014853 5.988 0.003514707 -0.2999282 5.994928 0.005071759 -0.3014853 5.996485 0.01199996 -0.293 5.996485 0.003514707 -0.305 5.988 0.06799995 -0.293 5.988 0.07999998 -0.293 6 0.06799995 -0.3014853 5.988 0.07648527 -0.2999282 5.994928 0.07492816 -0.293 5.996485 0.07648527 -0.3014853 5.996485 0.06799995 -0.2319999 5.988 0.07999998 -0.2177693 5.988 0.09179079 -0.2100574 6 0.06799995 -0.2228614 5.988 0.08345341 -0.2200429 5.994928 0.08005172 -0.2163553 5.996485 0.08035743 -0.2210287 5.996485 0.07648527 -0.1522307 5.988 0.4382091 -0.138 5.988 0.45 -0.1400574 6 0.438 -0.1471745 5.988 0.4465898 -0.1458344 5.994928 0.4449723 -0.1385667 5.996485 0.4464419 -0.1486293 5.996485 0.4381045 -0.112 5.988 0.45 -0.09916865 5.988 0.4619712 -0.08880442 6 0.438 -0.1032712 5.988 0.4535062 -0.1000277 5.994928 0.4500297 -0.09646582 5.996485 0.4501578 -0.1004022 5.996485 0.4464853 -0.07583129 5.988 0.7980288 -0.06299996 5.988 0.81 -0.06380444 6 0.798 -0.0717343 5.988 0.8064997 -0.07027387 5.994928 0.8049343 -0.06323003 5.996485 0.8064793 -0.07230311 5.996485 0.7980144 0.06299996 5.988 0.81 0.07583129 5.988 0.7980288 0.06380444 6 0.798 0.0717343 5.988 0.8064997 0.07027387 5.994928 0.8049343 0.07230311 5.996485 0.7980144 0.06323003 5.996485 0.8064793 0.09916865 5.988 0.4619712 0.112 5.988 0.45 0.08880442 6 0.438 0.1032712 5.988 0.4535062 0.1000277 5.994928 0.4500297 0.1004022 5.996485 0.4464853 0.09646582 5.996485 0.4501578 0.138 5.988 0.45 0.1522307 5.988 0.4382091 0.1400574 6 0.438 0.1471745 5.988 0.4465898 0.1458344 5.994928 0.4449723 0.1486293 5.996485 0.4381045 0.1385667 5.996485 0.4464419 0.2177693 5.988 0.09179079 0.2319999 5.988 0.07999998 0.2100574 6 0.06799995 0.2228614 5.988 0.08345341 0.2200429 5.994928 0.08005172 0.2210287 5.996485 0.07648527 0.2163553 5.996485 0.08035743 0.293 5.988 0.07999998 0.305 5.988 0.06799995 0.293 6 0.06799995 0.3014853 5.988 0.07648527 0.2999282 5.994928 0.07492816 0.3014853 5.996485 0.06799995 0.293 5.996485 0.07648527 0.293 5.988 0 0.293 6 0.01199996 0.305 5.988 0.01199996 0.293 5.996485 0.003514707 0.2999282 5.994928 0.005071759 0.3014853 5.996485 0.01199996 0.3014853 5.988 0.003514707</float_array>
          <technique_common>
            <accessor source="#krail_mesh-mesh-positions-array" count="168" stride="3">
              <param name="X" type="float"/>
              <param name="Y" type="float"/>
              <param name="Z" type="float"/>
            </accessor>
          </technique_common>
        </source>
        <source id="krail_mesh-mesh-normals">
          <float_array id="krail_mesh-mesh-normals-array" count="996">-1 0 0 0 0 1 -0.9825702 0 0.1858916 0 0 1 -0.9975973 0 0.06927758 0 0 1 0.9975973 0 0.06927758 0 0 1 0.9825702 0 0.1858916 0 0 1 1 0 0 0 1 0 0 -1 0 -0.3671801 -0.2817475 -0.886452 -0.2817473 -0.886452 -0.3671804 -0.8864522 -0.3671793 -0.2817476 -0.2817469 -0.3671808 0.8864519 -0.8864523 -0.2817475 0.3671794 -0.3671801 -0.886452 0.2817475 -0.6520075 -0.6452222 0.3982143 -0.2700708 -0.6452212 0.7146688 -0.1603712 -0.9678928 0.1935576 -0.2582524 -0.3588641 0.8969516 -0.8231831 -0.275175 0.4966369 -0.3530447 -0.871177 0.3411892 -0.6709311 -0.6664203 0.32517 -0.2779093 -0.6664181 0.6918478 -0.1648189 -0.9703734 0.1766642 -0.2753694 -0.3620464 0.8905583 -0.8650392 -0.2768839 0.4183808 -0.3635521 -0.8803332 0.304702 0.8693428 -0.3620436 0.3364039 0.3574464 -0.2768878 0.8919445 0.2787833 -0.8803331 0.3837882 0.2779093 -0.6664181 0.6918478 0.6709312 -0.66642 0.3251702 0.1648189 -0.9703734 0.1766639 0.8333117 -0.3588626 0.4204869 0.3349578 -0.2751764 0.9011554 0.2696141 -0.8711771 0.4103153 0.2700709 -0.6452209 0.7146691 0.6520076 -0.6452218 0.3982145 0.1603711 -0.9678929 0.1935575 0.8864523 -0.3671793 0.2817476 0.3671805 -0.2817472 0.8864519 0.2817471 -0.886452 0.3671804 0.2817472 -0.3671804 -0.8864519 0.8864523 -0.2817477 -0.3671793 0.3671801 -0.886452 -0.2817475 -0.2817372 0.3671802 -0.8864552 -0.8864547 0.2817387 -0.3671803 -0.3671871 0.8864566 -0.2817239 -0.8864555 0.3671792 0.2817375 -0.3671815 0.2817382 0.8864544 -0.2817236 0.8864566 0.3671875 -0.2700716 0.6452186 0.7146708 -0.6520102 0.6452183 0.3982161 -0.1603736 0.9678922 0.1935588 -0.8333162 0.3588629 0.4204779 -0.3349587 0.2751676 0.9011579 -0.2695915 0.8711826 0.4103186 -0.27791 0.666416 0.6918495 -0.670933 0.6664178 0.3251711 -0.1648208 0.9703727 0.1766659 -0.8693465 0.3620436 0.3363943 -0.3574474 0.276879 0.891947 -0.27876 0.8803381 0.3837937 0.2753596 0.3620464 0.8905614 0.8650415 0.276875 0.4183819 0.3635592 0.8803381 0.3046792 0.6709322 0.6664187 0.3251707 0.2779101 0.6664158 0.6918497 0.1648199 0.9703727 0.1766671 0.2582429 0.3588644 0.8969542 0.8231853 0.2751662 0.4966382 0.3530521 0.8711825 0.3411675 0.6520101 0.6452184 0.398216 0.2700716 0.6452184 0.714671 0.1603732 0.9678921 0.1935592 0.2817368 0.3671805 0.8864552 0.8864547 0.2817385 0.3671804 0.3671871 0.8864566 0.2817239 0.3671811 0.2817385 -0.8864544 0.2817237 0.8864566 -0.3671873 0.8864555 0.3671792 -0.2817375 0 -0.3826834 -0.9238795 0 -0.9238795 -0.3826833 0.92388 -0.3826823 0 0.3826832 -0.9238796 0 0 -0.3826837 0.9238794 0 -0.9238796 0.3826835 0.9077067 -0.3828046 0.1718401 0.3760138 -0.9238794 0.07113772 0 -0.3867013 0.922205 4.37083e-4 -0.9231562 0.3844249 0.9216513 -0.3827015 0.06401944 0.3817636 -0.9238797 0.02651131 0 -0.3832415 0.9236482 0 -0.923784 0.3829138 -0.9214304 -0.3832384 0.0639882 -0.3819937 -0.923784 0.0265339 -0.001049816 -0.3839038 0.9233725 0 -0.9238801 0.3826822 -0.9061321 -0.3866991 0.1714303 -0.3776571 -0.9231812 0.07149517 0 -0.3826832 0.9238797 0 -0.9238796 0.3826833 -0.92388 -0.3826823 0 -0.3826832 -0.9238796 0 0 0.382682 -0.9238801 0 0.9238777 -0.3826879 -0.9238806 0.382681 0 -0.3826876 0.9238778 0 0 0.3826823 0.92388 0 0.9238777 0.3826879 -0.9077081 0.3828013 0.1718404 -0.3760172 0.9238779 0.07113838 0 0.3866999 0.9222056 -4.37088e-4 0.9231544 0.3844293 -0.921652 0.3826998 0.0640195 -0.3817679 0.9238779 0.0265116 0 0.3832402 0.9236487 0 0.9237822 0.3829184 0.921431 0.3832371 0.06398826 0.3819981 0.9237821 0.02653419 0.001049816 0.3839024 0.9233731 0 0.9238783 0.3826865 0.9061326 0.3866978 0.1714304 0.3776615 0.9231794 0.071496 1.91283e-7 0.3826812 0.9238805 0 0.9238779 0.3826874 0.9238806 0.382681 0 0.3826876 0.9238778 0 -0.3826832 0 -0.9238797 -0.92388 0 -0.3826823 -0.3826835 0 0.9238795 -0.92388 0 0.3826824 -0.8534184 0 0.5212265 -0.3534978 0 0.9354354 -0.3484091 0 0.9373426 -0.856239 0 0.51658 -0.8998824 0 0.4361326 -0.3727433 0 0.9279345 -0.3719905 0 0.9282366 -0.9002354 0 0.4354036 0.9002354 0 0.4354036 0.3719905 0 0.9282366 0.3727433 0 0.9279345 0.8998824 0 0.4361326 0.8562396 0 0.5165789 0.3484086 0 0.9373428 0.3534978 0 0.9354354 0.8534184 0 0.5212265 0.92388 0 0.3826824 0.3826835 0 0.9238795 0.3826832 0 -0.9238797 0.92388 0 -0.3826823 0 0 -1 -1 0 0 0 0 1 -0.9825702 0 0.1858916 0 0 1 -0.9975973 0 0.06927758 0 0 1 0.9975973 0 0.06927758 0 0 1 0.9825702 0 0.1858916 0 0 1 1 0 0 0 1 0 0 1 0 0 1 0 0 1 0 0 1 0 0 1 0 0 1 0 0 1 0 0 1 0 0 -1 0 0 -1 0 0 -1 0 0 -1 0 0 -1 0 0 -1 0 0 -1 0 0 -1 0 0 -1 0 -0.2817473 -0.3671804 -0.886452 -0.3671801 -0.886452 -0.2817475 -0.8864523 -0.2817477 -0.3671793 -0.3671805 -0.2817472 0.8864519 -0.8864523 -0.3671793 0.2817476 -0.2817471 -0.886452 0.3671805 -0.2837931 -0.5131531 0.8100218 -0.7431483 -0.5131525 0.4294243 -0.3779569 -0.8056412 0.4561697 -0.3349584 -0.2751758 0.9011555 -0.8333117 -0.3588627 0.4204868 -0.2696142 -0.8711769 0.4103157 -0.2596573 -0.5274704 0.8089209 -0.7889845 -0.5274725 0.3150815 -0.3783208 -0.8321267 0.4055104 -0.3574465 -0.2768878 0.8919447 -0.8693428 -0.3620436 0.3364039 -0.2787833 -0.8803332 0.3837883 0.8650392 -0.2768839 0.4183808 0.2753694 -0.3620464 0.8905583 0.3635521 -0.8803332 0.304702 0.7889845 -0.5274724 0.3150814 0.2596578 -0.5274705 0.8089208 0.3783212 -0.8321265 0.4055102 0.8231834 -0.2751765 0.4966357 0.2582523 -0.3588641 0.8969516 0.353044 -0.8711773 0.3411891 0.7431401 -0.5131567 0.4294332 0.2837991 -0.5131551 0.8100184 0.3779603 -0.8056373 0.4561737 0.8864523 -0.2817475 0.3671794 0.2817469 -0.3671807 0.8864519 0.3671801 -0.8864519 0.2817474 0.3671802 -0.2817475 -0.886452 0.8864522 -0.3671793 -0.2817476 0.2817472 -0.886452 -0.3671804 -0.3671811 0.2817385 -0.8864544 -0.8864556 0.3671792 -0.2817376 -0.2817237 0.8864566 -0.3671873 -0.8864547 0.2817385 0.3671804 -0.2817368 0.3671805 0.8864552 -0.3671871 0.8864566 0.2817239 -0.7431551 0.5131457 0.4294205 -0.2837957 0.5131477 0.8100243 -0.377953 0.8056483 0.4561605 -0.8231856 0.2751677 0.496637 -0.2582429 0.3588644 0.8969542 -0.3530516 0.8711827 0.3411673 -0.788995 0.5274627 0.3150715 -0.2596501 0.5274624 0.8089285 -0.3783112 0.8321365 0.4054992 -0.8650415 0.276875 0.4183819 -0.2753596 0.3620464 0.8905614 -0.3635592 0.8803381 0.3046792 0.3574474 0.2768789 0.891947 0.8693465 0.3620436 0.3363943 0.27876 0.8803381 0.3837938 0.2596435 0.5274612 0.8089313 0.7889909 0.5274654 0.3150772 0.3783087 0.8321366 0.4055013 0.3349593 0.275167 0.9011578 0.833316 0.3588629 0.4204779 0.2695915 0.8711824 0.410319 0.2837939 0.5131474 0.8100251 0.7431532 0.5131463 0.4294233 0.377952 0.805648 0.4561617 0.3671815 0.2817382 0.8864544 0.8864555 0.3671792 0.2817375 0.2817236 0.8864566 0.3671875 0.2817372 0.3671802 -0.8864552 0.3671871 0.8864566 -0.2817239 0.8864547 0.2817387 -0.3671804 0 -0.3826834 -0.9238795 0 -0.9238795 -0.3826833 0.92388 -0.3826823 0 0.3826832 -0.9238796 0 0 -0.3826832 0.9238796 0 -0.9238796 0.3826833 0.9061322 -0.3866991 0.1714304 0.3776565 -0.9231815 0.07149499 0.001049816 -0.3839039 0.9233725 0 -0.9238801 0.3826821 0.9214304 -0.3832384 0.0639882 0.3819937 -0.923784 0.0265339 0 -0.3832416 0.9236482 0 -0.9237841 0.3829139 -0.9216511 -0.3827021 0.06401938 -0.3817642 -0.9238795 0.02651137 0 -0.3867013 0.922205 -4.37049e-4 -0.9231562 0.3844248 -0.9077066 -0.3828051 0.1718401 -0.3760139 -0.9238793 0.07113772 0 -0.3826837 0.9238794 0 -0.9238795 0.3826834 -0.9238801 -0.3826823 0 -0.3826832 -0.9238796 0 0 0.382682 -0.9238801 0 0.9238777 -0.3826879 -0.9238806 0.382681 0 -0.3826876 0.9238778 0 -1.91283e-7 0.3826812 0.9238804 0 0.9238779 0.3826874 -0.9061326 0.3866978 0.1714304 -0.3776609 0.9231796 0.07149589 -0.001049816 0.3839025 0.9233731 0 0.9238783 0.3826865 -0.9214308 0.3832371 0.06398826 -0.3819982 0.9237821 0.02653419 0 0.3832402 0.9236488 0 0.9237822 0.3829184 0.9216516 0.3827006 0.06401944 0.3817686 0.9238776 0.02651166 0 0.3866999 0.9222056 4.37088e-4 0.9231543 0.3844293 0.9077081 0.3828015 0.1718404 0.3760173 0.9238778 0.07113838 0 0.3826823 0.92388 0 0.9238777 0.3826879 0.9238805 0.382681 0 0.3826876 0.9238778 0 -0.3826832 0 -0.9238797 -0.92388 0 -0.3826824 -0.3826835 0 0.9238795 -0.92388 0 0.3826824 -0.8534184 0 0.5212265 -0.3534978 0 0.9354354 -0.3484086 0 0.9373428 -0.8562396 0 0.5165789 -0.8998824 0 0.4361326 -0.3727433 0 0.9279345 -0.3719905 0 0.9282366 -0.9002354 0 0.4354036 0.9002354 0 0.4354036 0.3719905 0 0.9282366 0.3727433 0 0.9279345 0.8998824 0 0.4361326 0.856239 0 0.51658 0.3484091 0 0.9373426 0.3534978 0 0.9354354 0.8534184 0 0.5212265 0.92388 0 0.3826824 0.3826835 0 0.9238795 0.3826832 0 -0.9238797 0.92388 0 -0.3826824 0 0 -1</float_array>
          <technique_common>
            <accessor source="#krail_mesh-mesh-normals-array" count="332" stride="3">
              <param name="X" type="float"/>
              <param name="Y" type="float"/>
              <param name="Z" type="float"/>
            </accessor>
          </technique_common>
        </source>
        <source id="krail_mesh-mesh-map-0">
          <float_array id="krail_mesh-mesh-map-0-array" count="1992">0.4707706 0.9940184 0.4798871 0.005979716 0.4798871 0.9940184 0.4358641 0.005981385 0.4256162 0.9940183 0.4257787 0.005979716 0.1736857 0.005979716 0.115399 0.9940184 0.1153987 0.005979776 0.5341551 0.005979716 0.5298564 0.9940183 0.5298564 0.005979716 0.3124604 0.005979716 0.2570784 0.9940183 0.2570781 0.005979716 0.4136155 0.005979716 0.3927833 0.9940183 0.3927833 0.005979716 0.3250888 0.9715989 0.3807142 0.005823254 0.3807142 0.9710004 0.517669 0.005979716 0.5133703 0.9940183 0.5133703 0.005979716 0.1863217 0.9710263 0.2443578 0.006681084 0.2444804 0.9718583 0.4587312 0.005979716 0.4486458 0.9940183 0.4486458 0.005979716 0.4916443 0.9712373 0.5008369 0.005823791 0.5008369 0.971001 0.6054714 0.2041888 0.6277352 0.26406 0.5598734 0.26406 0.6097546 0.06466281 0.6298019 0.1248948 0.5603424 0.1248948 0.1028657 0.005979716 0.1040112 0.004834234 0.1042686 0.005979716 0.6435152 0.134011 0.6446607 0.1349923 0.6435152 0.1352908 0.4798871 0.9940184 0.4808686 0.9951638 0.4797857 0.9954213 0.4257787 0.005979716 0.4246335 0.004834055 0.4257789 0.004576802 0.4707706 0.9940184 0.4694963 0.9951638 0.4692878 0.9940184 0.6435152 0.1248948 0.6446607 0.1236204 0.6449181 0.1247932 0.6319189 0.1220324 0.6308432 0.1227816 0.6310769 0.1206752 0.6316158 0.123412 0.6319189 0.1220324 0.6334298 0.1225945 0.6308432 0.1227816 0.6316158 0.123412 0.6298019 0.1248948 0.5298564 0.005979716 0.5285611 0.004834234 0.5297627 0.004576802 0.1736857 0.005979716 0.1749714 0.004834234 0.175196 0.005979716 0.6182285 0.06466281 0.6191836 0.06338125 0.6196457 0.06454426 0.6121464 0.06179177 0.6110213 0.06258213 0.6114681 0.06041377 0.6116721 0.06317996 0.6121464 0.06179177 0.6135897 0.06236255 0.6110213 0.06258213 0.6116721 0.06317996 0.6097546 0.06466281 0.3927833 0.005979716 0.3915807 0.004834234 0.3927453 0.004576802 0.3124604 0.005979716 0.313745 0.004834234 0.3139577 0.005979716 0.6056212 0.006058692 0.6066909 0.004783332 0.6070264 0.005954802 0.3807142 0.9710004 0.3819574 0.9722853 0.3807814 0.9724948 0.4136155 0.005979716 0.4148181 0.004834234 0.4150595 0.005979716 0.5845231 0.006058692 0.5834535 0.004783332 0.5846181 0.004576802 0.5779979 0.06179177 0.5784722 0.06317996 0.5765547 0.06236255 0.3232029 0.9731141 0.3236184 0.9714906 0.3250888 0.9715989 0.5784722 0.06317996 0.579123 0.06258213 0.5803897 0.06466281 0.2444804 0.9718583 0.245717 0.9731731 0.2445345 0.9733555 0.517669 0.005979716 0.5189643 0.004834234 0.5191859 0.005979716 0.5719159 0.06466281 0.5709607 0.06338125 0.5721623 0.063187 0.5582255 0.1220324 0.5585285 0.123412 0.5567146 0.1225945 0.184473 0.9724949 0.1848527 0.9708828 0.1863217 0.9710263 0.5585285 0.123412 0.5593012 0.1227816 0.5603424 0.1248948 0.5008369 0.971001 0.5020742 0.9722688 0.5009062 0.9724949 0.4587312 0.005979716 0.4598767 0.004834234 0.4601342 0.005979716 0.5466292 0.1248948 0.5454837 0.1236204 0.5466292 0.123412 0.005979716 0.005979716 0.004834234 0.004834234 0.005979716 0.004576802 0.4916443 0.9712373 0.490607 0.9725635 0.4903207 0.9713965 0.5466292 0.134011 0.5454837 0.1349923 0.5452263 0.1339094 0.1028657 0.9940183 0.1040112 0.9951638 0.1028657 0.9954212 0.4798871 0.005979716 0.4808686 0.004834234 0.4811671 0.005979716 0.5468809 0.2731216 0.5459868 0.2740706 0.5456315 0.2730023 0.4707706 0.005979716 0.4694963 0.004834234 0.4706692 0.004576802 0.4256162 0.9940183 0.4244705 0.9951636 0.4242132 0.9940181 0.5464756 0.26406 0.5454813 0.2627668 0.5465355 0.2625677 0.4372125 0.9940202 0.4375153 0.9954231 0.4357016 0.9940199 0.1135785 0.9954212 0.1138947 0.9940184 0.115399 0.9940184 0.5581611 0.2625677 0.558888 0.2619411 0.5598734 0.26406 0.173686 0.9940183 0.1749716 0.9951638 0.1737729 0.9954212 0.5298564 0.9940183 0.5285611 0.9951638 0.5283396 0.9940183 0.568503 0.2041888 0.5676944 0.2028885 0.568804 0.2027035 0.574747 0.2012724 0.5749684 0.2026965 0.5733624 0.2018398 0.2552332 0.9954212 0.2555819 0.9940183 0.2570784 0.9940183 0.5749684 0.2026965 0.5755777 0.2021023 0.5767819 0.2041888 0.3124607 0.9940183 0.3137453 0.9951638 0.3125602 0.9954212 0.3927833 0.9940183 0.3915807 0.9951638 0.3913392 0.9940183 0.578215 0.1459358 0.5772948 0.1446416 0.5783677 0.1444444 0.4136155 0.9940183 0.4148181 0.9951638 0.4136535 0.9954212 0.3807142 0.005823254 0.3819574 0.004870176 0.3821855 0.005931317 0.5988278 0.1459358 0.5999976 0.1446416 0.6003218 0.1458142 0.6081101 0.2012724 0.6067422 0.2021023 0.6073861 0.1999027 0.6074047 0.2026965 0.6081101 0.2012724 0.6095454 0.2018398 0.6067422 0.2021023 0.6074047 0.2026965 0.6054714 0.2041888 0.517669 0.9940183 0.5189643 0.9951638 0.5177627 0.9954212 0.2443578 0.006681084 0.245594 0.005757868 0.2458332 0.006823003 0.6137503 0.2041888 0.614808 0.2028885 0.6152555 0.2040526 0.6301057 0.2611522 0.6287844 0.2619411 0.6292228 0.2598031 0.6295673 0.2625677 0.6301057 0.2611522 0.6316068 0.261711 0.6287844 0.2619411 0.6295673 0.2625677 0.6277352 0.26406 0.4587312 0.9940183 0.4598767 0.9951638 0.4587312 0.9954212 0.5008369 0.005823791 0.5020742 0.004853665 0.5022991 0.005911409 0.641133 0.26406 0.642377 0.2627668 0.6426249 0.2639408 0.005979716 0.9940183 0.004834234 0.9951638 0.004576802 0.9940183 0.6415383 0.2731216 0.6428825 0.2740706 0.641721 0.2743753 0.4916443 0.006060063 0.490607 0.00514841 0.4917136 0.004813075 0.005979716 0.005979716 0.1028657 0.004576802 0.1028657 0.005979716 0.5466292 0.1352908 0.6435152 0.134011 0.6435152 0.1352908 0.5008369 0.971001 0.4917136 0.9727311 0.4916443 0.9712373 0.5452263 0.1247932 0.5466292 0.134011 0.5452263 0.1339094 0.4486458 0.005979716 0.4587312 0.004576802 0.4587312 0.005979716 0.5585285 0.123412 0.5466292 0.1248948 0.5466292 0.123412 0.1863217 0.9710263 0.2445345 0.9733555 0.184473 0.9724949 0.5593012 0.1227816 0.5719159 0.06466281 0.5603424 0.1248948 0.5133703 0.005979716 0.5177627 0.004576802 0.517669 0.005979716 0.5784722 0.06317996 0.5719159 0.06466281 0.5721623 0.063187 0.3250888 0.9715989 0.3807814 0.9724948 0.3232029 0.9731141 0.579123 0.06258213 0.5845231 0.006058692 0.5803897 0.06466281 0.3927833 0.005979716 0.4136535 0.004576802 0.4136155 0.005979716 0.6055263 0.004576802 0.5845231 0.006058692 0.5846181 0.004576802 0.2570781 0.005979716 0.3125599 0.004576802 0.3124604 0.005979716 0.6110213 0.06258213 0.6056212 0.006058692 0.6070264 0.005954802 0.5341551 0.005979716 0.5297627 0.004576802 0.5360726 0.004576802 0.6116721 0.06317996 0.6182285 0.06466281 0.6097546 0.06466281 0.1153987 0.005979776 0.1737726 0.004576802 0.1736857 0.005979716 0.6308432 0.1227816 0.6182285 0.06466281 0.6196457 0.06454426 0.4358641 0.005981385 0.4257789 0.004576802 0.4376783 0.004578769 0.6316158 0.123412 0.6435152 0.1248948 0.6298019 0.1248948 0.4707706 0.9940184 0.4797857 0.9954213 0.4706692 0.9954212 0.6449181 0.1339094 0.6435152 0.1248948 0.6449181 0.1247932 0.1028657 0.9940183 0.005979716 0.9954212 0.005979716 0.9940183 0.5470635 0.2743753 0.6415383 0.2731216 0.641721 0.2743753 0.4707706 0.005979716 0.4797857 0.004576802 0.4798871 0.005979716 0.5452262 0.2639408 0.5468809 0.2731216 0.5456315 0.2730023 0.4357016 0.9940199 0.4256159 0.9954212 0.4256162 0.9940183 0.5581611 0.2625677 0.5464756 0.26406 0.5465355 0.2625677 0.115399 0.9940184 0.1737729 0.9954212 0.1135785 0.9954212 0.558888 0.2619411 0.568503 0.2041888 0.5598734 0.26406 0.5341551 0.9940183 0.5297627 0.9954212 0.5298564 0.9940183 0.5749684 0.2026965 0.568503 0.2041888 0.568804 0.2027035 0.2570784 0.9940183 0.3125602 0.9954212 0.2552332 0.9954212 0.5755777 0.2021023 0.578215 0.1459358 0.5767819 0.2041888 0.4136155 0.9940183 0.3927453 0.9954212 0.3927833 0.9940183 0.5987949 0.1444444 0.578215 0.1459358 0.5783677 0.1444444 0.3250888 0.006421744 0.3807814 0.004576742 0.3807142 0.005823254 0.6067422 0.2021023 0.5988278 0.1459358 0.6003218 0.1458142 0.5133703 0.9940183 0.5177627 0.9954212 0.5114528 0.9954212 0.6074047 0.2026965 0.6137503 0.2041888 0.6054714 0.2041888 0.1861991 0.005849123 0.2444115 0.005437493 0.2443578 0.006681084 0.6287844 0.2619411 0.6137503 0.2041888 0.6152555 0.2040526 0.4486458 0.9940183 0.4587312 0.9954212 0.4468319 0.9954212 0.6295673 0.2625677 0.641133 0.26406 0.6277352 0.26406 0.5008369 0.005823791 0.4917136 0.004813075 0.5009062 0.004576802 0.6430302 0.2730023 0.641133 0.26406 0.6426249 0.2639408 0.1028657 0.005979716 0.1042686 0.9940183 0.1028657 0.9940183 0.4811671 0.9940184 0.4798871 0.005979716 0.4811671 0.005979716 0.4256162 0.9940183 0.4243758 0.005979478 0.4257787 0.005979716 0.4692878 0.005979716 0.4707706 0.9940184 0.4692878 0.9940184 0.115399 0.9940184 0.1138945 0.005979776 0.1153987 0.005979776 0.4372125 0.9940202 0.4358641 0.005981385 0.437375 0.005981624 0.5298564 0.9940183 0.5283396 0.005979716 0.5298564 0.005979716 0.1751963 0.9940183 0.1736857 0.005979716 0.175196 0.005979716 0.2570784 0.9940183 0.2555817 0.005979716 0.2570781 0.005979716 0.5355983 0.9940183 0.5341551 0.005979716 0.5355983 0.005979716 0.3927833 0.9940183 0.3913392 0.005979716 0.3927833 0.005979716 0.3139579 0.9940183 0.3124604 0.005979716 0.3139577 0.005979716 0.3807142 0.005823254 0.3821855 0.9711085 0.3807142 0.9710004 0.4150595 0.9940183 0.4136155 0.005979716 0.4150595 0.005979716 0.5133703 0.9940183 0.5119271 0.005979716 0.5133703 0.005979716 0.3236184 0.006313443 0.3250888 0.9715989 0.3236184 0.9714906 0.2443578 0.006681084 0.2459559 0.9720002 0.2444804 0.9718583 0.5191859 0.9940183 0.517669 0.005979716 0.5191859 0.005979716 0.4486458 0.9940183 0.4471349 0.005979716 0.4486458 0.005979716 0.18473 0.005705654 0.1863217 0.9710263 0.1848527 0.9708828 0.5008369 0.005823791 0.5022991 0.9710886 0.5008369 0.971001 0.4601342 0.9940183 0.4587312 0.005979716 0.4601342 0.005979716 0.005979716 0.9940183 0.004576802 0.005979716 0.005979716 0.005979716 0.4903207 0.006219327 0.4916443 0.9712373 0.4903207 0.9713965 0.1028657 0.005979716 0.005979716 0.9940183 0.005979716 0.005979716 0.4707706 0.9940184 0.4707706 0.005979716 0.4798871 0.005979716 0.4358641 0.005981385 0.4357016 0.9940199 0.4256162 0.9940183 0.1736857 0.005979716 0.173686 0.9940183 0.115399 0.9940184 0.5341551 0.005979716 0.5341551 0.9940183 0.5298564 0.9940183 0.3124604 0.005979716 0.3124607 0.9940183 0.2570784 0.9940183 0.4136155 0.005979716 0.4136155 0.9940183 0.3927833 0.9940183 0.3250888 0.9715989 0.3250888 0.006421744 0.3807142 0.005823254 0.517669 0.005979716 0.517669 0.9940183 0.5133703 0.9940183 0.1863217 0.9710263 0.1861991 0.005849123 0.2443578 0.006681084 0.4587312 0.005979716 0.4587312 0.9940183 0.4486458 0.9940183 0.4916443 0.9712373 0.4916443 0.006060063 0.5008369 0.005823791 0.6415383 0.2731216 0.5468809 0.2731216 0.5598734 0.26406 0.5468809 0.2731216 0.5464756 0.26406 0.5598734 0.26406 0.5598734 0.26406 0.568503 0.2041888 0.5767819 0.2041888 0.6277352 0.26406 0.641133 0.26406 0.6415383 0.2731216 0.6054714 0.2041888 0.6137503 0.2041888 0.6277352 0.26406 0.578215 0.1459358 0.5988278 0.1459358 0.6054714 0.2041888 0.5767819 0.2041888 0.578215 0.1459358 0.6054714 0.2041888 0.6277352 0.26406 0.6415383 0.2731216 0.5598734 0.26406 0.5767819 0.2041888 0.6054714 0.2041888 0.5598734 0.26406 0.6435152 0.134011 0.5466292 0.134011 0.5603424 0.1248948 0.5466292 0.134011 0.5466292 0.1248948 0.5603424 0.1248948 0.5603424 0.1248948 0.5719159 0.06466281 0.5803897 0.06466281 0.6298019 0.1248948 0.6435152 0.1248948 0.6435152 0.134011 0.6097546 0.06466281 0.6182285 0.06466281 0.6298019 0.1248948 0.5845231 0.006058692 0.6056212 0.006058692 0.6097546 0.06466281 0.5803897 0.06466281 0.5845231 0.006058692 0.6097546 0.06466281 0.6298019 0.1248948 0.6435152 0.134011 0.5603424 0.1248948 0.5803897 0.06466281 0.6097546 0.06466281 0.5603424 0.1248948 0.1028657 0.005979716 0.1028657 0.004576802 0.1040112 0.004834234 0.6435152 0.134011 0.6449181 0.1339094 0.6446607 0.1349923 0.4798871 0.9940184 0.4811671 0.9940184 0.4808686 0.9951638 0.4257787 0.005979716 0.4243758 0.005979478 0.4246335 0.004834055 0.4707706 0.9940184 0.4706692 0.9954212 0.4694963 0.9951638 0.6435152 0.1248948 0.6435152 0.123412 0.6446607 0.1236204 0.6319189 0.1220324 0.6314529 0.1227864 0.6308432 0.1227816 0.6316158 0.123412 0.6314529 0.1227864 0.6319189 0.1220324 0.6308432 0.1227816 0.6314529 0.1227864 0.6316158 0.123412 0.5298564 0.005979716 0.5283396 0.005979716 0.5285611 0.004834234 0.1736857 0.005979716 0.1737726 0.004576802 0.1749714 0.004834234 0.6182285 0.06466281 0.617982 0.063187 0.6191836 0.06338125 0.6121464 0.06179177 0.6116102 0.06255799 0.6110213 0.06258213 0.6116721 0.06317996 0.6116102 0.06255799 0.6121464 0.06179177 0.6110213 0.06258213 0.6116102 0.06255799 0.6116721 0.06317996 0.3927833 0.005979716 0.3913392 0.005979716 0.3915807 0.004834234 0.3124604 0.005979716 0.3125599 0.004576802 0.313745 0.004834234 0.6056212 0.006058692 0.6055263 0.004576802 0.6066909 0.004783332 0.3807142 0.9710004 0.3821855 0.9711085 0.3819574 0.9722853 0.4136155 0.005979716 0.4136535 0.004576802 0.4148181 0.004834234 0.5845231 0.006058692 0.583118 0.005954802 0.5834535 0.004783332 0.5779979 0.06179177 0.5785341 0.06255793 0.5784722 0.06317996 0.3232029 0.9731141 0.3231117 0.9727381 0.3236184 0.9714906 0.5784722 0.06317996 0.5785341 0.06255793 0.579123 0.06258213 0.2444804 0.9718583 0.2459559 0.9720002 0.245717 0.9731731 0.517669 0.005979716 0.5177627 0.004576802 0.5189643 0.004834234 0.5719159 0.06466281 0.5704987 0.06454426 0.5709607 0.06338125 0.5582255 0.1220324 0.5586915 0.1227864 0.5585285 0.123412 0.184473 0.9724949 0.18435 0.9721152 0.1848527 0.9708828 0.5585285 0.123412 0.5586915 0.1227864 0.5593012 0.1227816 0.5008369 0.971001 0.5022991 0.9710886 0.5020742 0.9722688 0.4587312 0.005979716 0.4587312 0.004576802 0.4598767 0.004834234 0.5466292 0.1248948 0.5452263 0.1247932 0.5454837 0.1236204 0.005979716 0.005979716 0.004576802 0.005979716 0.004834234 0.004834234 0.4916443 0.9712373 0.4917136 0.9727311 0.490607 0.9725635 0.5466292 0.134011 0.5466292 0.1352908 0.5454837 0.1349923 0.1028657 0.9940183 0.1042686 0.9940183 0.1040112 0.9951638 0.4798871 0.005979716 0.4797857 0.004576802 0.4808686 0.004834234 0.5468809 0.2731216 0.5470635 0.2743753 0.5459868 0.2740706 0.4707706 0.005979716 0.4692878 0.005979716 0.4694963 0.004834234 0.4256162 0.9940183 0.4256159 0.9954212 0.4244705 0.9951636 0.5464756 0.26406 0.5452262 0.2639408 0.5454813 0.2627668 0.4372125 0.9940202 0.4376783 0.9951658 0.4375153 0.9954231 0.1135785 0.9954212 0.1134223 0.9951639 0.1138947 0.9940184 0.5581611 0.2625677 0.5583482 0.2619377 0.558888 0.2619411 0.173686 0.9940183 0.1751963 0.9940183 0.1749716 0.9951638 0.5298564 0.9940183 0.5297627 0.9954212 0.5285611 0.9951638 0.568503 0.2041888 0.5672389 0.2040526 0.5676944 0.2028885 0.574747 0.2012724 0.575057 0.2020701 0.5749684 0.2026965 0.2552332 0.9954212 0.2551096 0.9951638 0.2555819 0.9940183 0.5749684 0.2026965 0.575057 0.2020701 0.5755777 0.2021023 0.3124607 0.9940183 0.3139579 0.9940183 0.3137453 0.9951638 0.3927833 0.9940183 0.3927453 0.9954212 0.3915807 0.9951638 0.578215 0.1459358 0.5769633 0.1458141 0.5772948 0.1446416 0.4136155 0.9940183 0.4150595 0.9940183 0.4148181 0.9951638 0.3807142 0.005823254 0.3807814 0.004576742 0.3819574 0.004870176 0.5988278 0.1459358 0.5987949 0.1444444 0.5999976 0.1446416 0.6081101 0.2012724 0.6073722 0.2020701 0.6067422 0.2021023 0.6074047 0.2026965 0.6073722 0.2020701 0.6081101 0.2012724 0.6067422 0.2021023 0.6073722 0.2020701 0.6074047 0.2026965 0.517669 0.9940183 0.5191859 0.9940183 0.5189643 0.9951638 0.2443578 0.006681084 0.2444115 0.005437493 0.245594 0.005757868 0.6137503 0.2041888 0.6135697 0.2027035 0.614808 0.2028885 0.6301057 0.2611522 0.6294359 0.2619377 0.6287844 0.2619411 0.6295673 0.2625677 0.6294359 0.2619377 0.6301057 0.2611522 0.6287844 0.2619411 0.6294359 0.2619377 0.6295673 0.2625677 0.4587312 0.9940183 0.4601342 0.9940183 0.4598767 0.9951638 0.5008369 0.005823791 0.5009062 0.004576802 0.5020742 0.004853665 0.641133 0.26406 0.6411929 0.2625677 0.642377 0.2627668 0.005979716 0.9940183 0.005979716 0.9954212 0.004834234 0.9951638 0.6415383 0.2731216 0.6430302 0.2730023 0.6428825 0.2740706 0.4916443 0.006060063 0.4903207 0.006219327 0.490607 0.00514841 0.005979716 0.005979716 0.005979716 0.004576802 0.1028657 0.004576802 0.5466292 0.1352908 0.5466292 0.134011 0.6435152 0.134011 0.5008369 0.971001 0.5009062 0.9724949 0.4917136 0.9727311 0.5452263 0.1247932 0.5466292 0.1248948 0.5466292 0.134011 0.4486458 0.005979716 0.4468319 0.004576802 0.4587312 0.004576802 0.5585285 0.123412 0.5603424 0.1248948 0.5466292 0.1248948 0.1863217 0.9710263 0.2444804 0.9718583 0.2445345 0.9733555 0.5593012 0.1227816 0.5704987 0.06454426 0.5719159 0.06466281 0.5133703 0.005979716 0.5114528 0.004576802 0.5177627 0.004576802 0.5784722 0.06317996 0.5803897 0.06466281 0.5719159 0.06466281 0.3250888 0.9715989 0.3807142 0.9710004 0.3807814 0.9724948 0.579123 0.06258213 0.583118 0.005954802 0.5845231 0.006058692 0.3927833 0.005979716 0.3927453 0.004576802 0.4136535 0.004576802 0.6055263 0.004576802 0.6056212 0.006058692 0.5845231 0.006058692 0.2570781 0.005979716 0.255233 0.004576802 0.3125599 0.004576802 0.6110213 0.06258213 0.6097546 0.06466281 0.6056212 0.006058692 0.5341551 0.005979716 0.5298564 0.005979716 0.5297627 0.004576802 0.6116721 0.06317996 0.617982 0.063187 0.6182285 0.06466281 0.1153987 0.005979776 0.1135782 0.004576861 0.1737726 0.004576802 0.6308432 0.1227816 0.6298019 0.1248948 0.6182285 0.06466281 0.4358641 0.005981385 0.4257787 0.005979716 0.4257789 0.004576802 0.6316158 0.123412 0.6435152 0.123412 0.6435152 0.1248948 0.4707706 0.9940184 0.4798871 0.9940184 0.4797857 0.9954213 0.6449181 0.1339094 0.6435152 0.134011 0.6435152 0.1248948 0.1028657 0.9940183 0.1028657 0.9954212 0.005979716 0.9954212 0.5470635 0.2743753 0.5468809 0.2731216 0.6415383 0.2731216 0.4707706 0.005979716 0.4706692 0.004576802 0.4797857 0.004576802 0.5452262 0.2639408 0.5464756 0.26406 0.5468809 0.2731216 0.4357016 0.9940199 0.4375153 0.9954231 0.4256159 0.9954212 0.5581611 0.2625677 0.5598734 0.26406 0.5464756 0.26406 0.115399 0.9940184 0.173686 0.9940183 0.1737729 0.9954212 0.558888 0.2619411 0.5672389 0.2040526 0.568503 0.2041888 0.5341551 0.9940183 0.5360726 0.9954212 0.5297627 0.9954212 0.5749684 0.2026965 0.5767819 0.2041888 0.568503 0.2041888 0.2570784 0.9940183 0.3124607 0.9940183 0.3125602 0.9954212 0.5755777 0.2021023 0.5769633 0.1458141 0.578215 0.1459358 0.4136155 0.9940183 0.4136535 0.9954212 0.3927453 0.9954212 0.5987949 0.1444444 0.5988278 0.1459358 0.578215 0.1459358 0.3250888 0.006421744 0.3232029 0.005196034 0.3807814 0.004576742 0.6067422 0.2021023 0.6054714 0.2041888 0.5988278 0.1459358 0.5133703 0.9940183 0.517669 0.9940183 0.5177627 0.9954212 0.6074047 0.2026965 0.6135697 0.2027035 0.6137503 0.2041888 0.1861991 0.005849123 0.18435 0.004576742 0.2444115 0.005437493 0.6287844 0.2619411 0.6277352 0.26406 0.6137503 0.2041888 0.4486458 0.9940183 0.4587312 0.9940183 0.4587312 0.9954212 0.6295673 0.2625677 0.6411929 0.2625677 0.641133 0.26406 0.5008369 0.005823791 0.4916443 0.006060063 0.4917136 0.004813075 0.6430302 0.2730023 0.6415383 0.2731216 0.641133 0.26406 0.1028657 0.005979716 0.1042686 0.005979716 0.1042686 0.9940183 0.4811671 0.9940184 0.4798871 0.9940184 0.4798871 0.005979716 0.4256162 0.9940183 0.4242132 0.9940181 0.4243758 0.005979478 0.4692878 0.005979716 0.4707706 0.005979716 0.4707706 0.9940184 0.115399 0.9940184 0.1138947 0.9940184 0.1138945 0.005979776 0.4372125 0.9940202 0.4357016 0.9940199 0.4358641 0.005981385 0.5298564 0.9940183 0.5283396 0.9940183 0.5283396 0.005979716 0.1751963 0.9940183 0.173686 0.9940183 0.1736857 0.005979716 0.2570784 0.9940183 0.2555819 0.9940183 0.2555817 0.005979716 0.5355983 0.9940183 0.5341551 0.9940183 0.5341551 0.005979716 0.3927833 0.9940183 0.3913392 0.9940183 0.3913392 0.005979716 0.3139579 0.9940183 0.3124607 0.9940183 0.3124604 0.005979716 0.3807142 0.005823254 0.3821855 0.005931317 0.3821855 0.9711085 0.4150595 0.9940183 0.4136155 0.9940183 0.4136155 0.005979716 0.5133703 0.9940183 0.5119271 0.9940183 0.5119271 0.005979716 0.3236184 0.006313443 0.3250888 0.006421744 0.3250888 0.9715989 0.2443578 0.006681084 0.2458332 0.006823003 0.2459559 0.9720002 0.5191859 0.9940183 0.517669 0.9940183 0.517669 0.005979716 0.4486458 0.9940183 0.4471349 0.9940183 0.4471349 0.005979716 0.18473 0.005705654 0.1861991 0.005849123 0.1863217 0.9710263 0.5008369 0.005823791 0.5022991 0.005911409 0.5022991 0.9710886 0.4601342 0.9940183 0.4587312 0.9940183 0.4587312 0.005979716 0.005979716 0.9940183 0.004576802 0.9940183 0.004576802 0.005979716 0.4903207 0.006219327 0.4916443 0.006060063 0.4916443 0.9712373 0.1028657 0.005979716 0.1028657 0.9940183 0.005979716 0.9940183</float_array>
          <technique_common>
            <accessor source="#krail_mesh-mesh-map-0-array" count="996" stride="2">
              <param name="S" type="float"/>
              <param name="T" type="float"/>
            </accessor>
          </technique_common>
        </source>
        <vertices id="krail_mesh-mesh-vertices">
          <input semantic="POSITION" source="#krail_mesh-mesh-positions"/>
        </vertices>
        <triangles material="KRAIL-material" count="332">
          <input semantic="VERTEX" source="#krail_mesh-mesh-vertices" offset="0"/>
          <input semantic="NORMAL" source="#krail_mesh-mesh-normals" offset="1"/>
          <input semantic="TEXCOORD" source="#krail_mesh-mesh-map-0" offset="2" set="0"/>
          <p>8 0 0 85 0 1 2 0 2 15 1 3 92 1 4 7 1 5 22 2 6 99 2 7 14 2 8 29 3 9 106 3 10 21 3 11 36 4 12 113 4 13 28 4 14 43 5 15 120 5 16 35 5 17 50 6 18 127 6 19 42 6 20 57 7 21 134 7 22 49 7 23 64 8 24 141 8 25 56 8 26 71 9 27 148 9 28 63 9 29 78 10 30 155 10 31 70 10 32 135 11 33 149 11 34 100 11 35 30 12 36 16 12 37 65 12 38 0 13 39 4 13 40 6 13 41 1 14 42 4 14 43 3 14 44 2 15 45 4 15 46 5 15 47 7 16 48 11 16 49 13 16 50 8 17 51 11 17 52 10 17 53 9 18 54 11 18 55 12 18 56 17 19 57 20 19 58 14 19 59 19 20 60 17 20 61 15 20 62 20 21 63 19 21 64 16 21 65 21 22 66 25 22 67 27 22 68 22 23 69 25 23 70 24 23 71 23 24 72 25 24 73 26 24 74 31 25 75 34 25 76 28 25 77 33 26 78 31 26 79 29 26 80 34 27 81 33 27 82 30 27 83 35 28 84 39 28 85 41 28 86 36 29 87 39 29 88 38 29 89 37 30 90 39 30 91 40 30 92 42 31 93 46 31 94 48 31 95 43 32 96 46 32 97 45 32 98 44 33 99 46 33 100 47 33 101 52 34 102 55 34 103 49 34 104 54 35 105 52 35 106 50 35 107 55 36 108 54 36 109 51 36 110 56 37 111 60 37 112 62 37 113 57 38 114 60 38 115 59 38 116 58 39 117 60 39 118 61 39 119 66 40 120 69 40 121 63 40 122 68 41 123 66 41 124 64 41 125 69 42 126 68 42 127 65 42 128 70 43 129 74 43 130 76 43 131 71 44 132 74 44 133 73 44 134 72 45 135 74 45 136 75 45 137 77 46 138 81 46 139 83 46 140 78 47 141 81 47 142 80 47 143 79 48 144 81 48 145 82 48 146 84 49 147 88 49 148 90 49 149 85 50 150 88 50 151 87 50 152 86 51 153 88 51 154 89 51 155 91 52 156 95 52 157 97 52 158 92 53 159 95 53 160 94 53 161 93 54 162 95 54 163 96 54 164 101 55 165 104 55 166 98 55 167 103 56 168 101 56 169 99 56 170 104 57 171 103 57 172 100 57 173 105 58 174 109 58 175 111 58 176 106 59 177 109 59 178 108 59 179 107 60 180 109 60 181 110 60 182 115 61 183 118 61 184 112 61 185 117 62 186 115 62 187 113 62 188 118 63 189 117 63 190 114 63 191 119 64 192 123 64 193 125 64 194 120 65 195 123 65 196 122 65 197 121 66 198 123 66 199 124 66 200 126 67 201 130 67 202 132 67 203 127 68 204 130 68 205 129 68 206 128 69 207 130 69 208 131 69 209 136 70 210 139 70 211 133 70 212 138 71 213 136 71 214 134 71 215 139 72 216 138 72 217 135 72 218 140 73 219 144 73 220 146 73 221 141 74 222 144 74 223 143 74 224 142 75 225 144 75 226 145 75 227 150 76 228 153 76 229 147 76 230 152 77 231 150 77 232 148 77 233 153 78 234 152 78 235 149 78 236 154 79 237 158 79 238 160 79 239 155 80 240 158 80 241 157 80 242 156 81 243 158 81 244 159 81 245 161 82 246 165 82 247 167 82 248 162 83 249 165 83 250 164 83 251 163 84 252 165 84 253 166 84 254 77 85 255 3 85 256 0 85 257 83 86 258 1 86 259 3 86 260 70 87 261 82 87 262 78 87 263 76 88 264 79 88 265 82 88 266 63 89 267 75 89 268 71 89 269 69 90 270 72 90 271 75 90 272 64 91 273 62 91 274 68 91 275 68 92 276 58 92 277 65 92 278 49 93 279 61 93 280 57 93 281 55 94 282 58 94 283 61 94 284 50 95 285 48 95 286 54 95 287 54 96 288 44 96 289 51 96 290 35 97 291 47 97 292 43 97 293 41 98 294 44 98 295 47 98 296 28 99 297 40 99 298 36 99 299 34 100 300 37 100 301 40 100 302 29 101 303 27 101 304 33 101 305 33 102 306 23 102 307 30 102 308 14 103 309 26 103 310 22 103 311 20 104 312 23 104 313 26 104 314 15 105 315 13 105 316 19 105 317 19 106 318 9 106 319 16 106 320 8 107 321 5 107 322 12 107 323 5 108 324 9 108 325 12 108 326 84 109 327 164 109 328 161 109 329 90 110 330 162 110 331 164 110 332 91 111 333 89 111 334 85 111 335 97 112 336 86 112 337 89 112 338 98 113 339 96 113 340 92 113 341 104 114 342 93 114 343 96 114 344 99 115 345 111 115 346 103 115 347 103 116 348 107 116 349 100 116 350 112 117 351 110 117 352 106 117 353 118 118 354 107 118 355 110 118 356 113 119 357 125 119 358 117 119 359 117 120 360 121 120 361 114 120 362 126 121 363 124 121 364 120 121 365 132 122 366 121 122 367 124 122 368 133 123 369 131 123 370 127 123 371 139 124 372 128 124 373 131 124 374 134 125 375 146 125 376 138 125 377 138 126 378 142 126 379 135 126 380 147 127 381 145 127 382 141 127 383 153 128 384 142 128 385 145 128 386 148 129 387 160 129 388 152 129 389 152 130 390 156 130 391 149 130 392 155 131 393 166 131 394 159 131 395 166 132 396 156 132 397 159 132 398 0 133 399 87 133 400 84 133 401 6 134 402 85 134 403 87 134 404 92 135 405 10 135 406 7 135 407 94 136 408 8 136 409 10 136 410 99 137 411 17 137 412 14 137 413 101 138 414 15 138 415 17 138 416 106 139 417 24 139 418 21 139 419 108 140 420 22 140 421 24 140 422 113 141 423 31 141 424 28 141 425 115 142 426 29 142 427 31 142 428 120 143 429 38 143 430 35 143 431 122 144 432 36 144 433 38 144 434 127 145 435 45 145 436 42 145 437 129 146 438 43 146 439 45 146 440 134 147 441 52 147 442 49 147 443 136 148 444 50 148 445 52 148 446 141 149 447 59 149 448 56 149 449 143 150 450 57 150 451 59 150 452 148 151 453 66 151 454 63 151 455 150 152 456 64 152 457 66 152 458 155 153 459 73 153 460 70 153 461 157 154 462 71 154 463 73 154 464 161 155 465 80 155 466 77 155 467 167 156 468 78 156 469 80 156 470 0 157 471 161 157 472 77 157 473 8 158 474 91 158 475 85 158 476 15 159 477 98 159 478 92 159 479 22 160 480 105 160 481 99 160 482 29 161 483 112 161 484 106 161 485 36 162 486 119 162 487 113 162 488 43 163 489 126 163 490 120 163 491 50 164 492 133 164 493 127 164 494 57 165 495 140 165 496 134 165 497 64 166 498 147 166 499 141 166 500 71 167 501 154 167 502 148 167 503 78 168 504 163 168 505 155 168 506 162 169 507 86 169 508 100 169 509 86 170 510 93 170 511 100 170 512 100 171 513 107 171 514 114 171 515 149 172 516 156 172 517 162 172 518 135 173 519 142 173 520 149 173 521 121 174 522 128 174 523 135 174 524 114 175 525 121 175 526 135 175 527 149 176 528 162 176 529 100 176 530 114 177 531 135 177 532 100 177 533 1 178 534 79 178 535 65 178 536 79 179 537 72 179 538 65 179 539 65 180 540 58 180 541 51 180 542 16 181 543 9 181 544 1 181 545 30 182 546 23 182 547 16 182 548 44 183 549 37 183 550 30 183 551 51 184 552 44 184 553 30 184 554 16 185 555 1 185 556 65 185 557 51 186 558 30 186 559 65 186 560 0 187 561 3 187 562 4 187 563 1 188 564 5 188 565 4 188 566 2 189 567 6 189 568 4 189 569 7 190 570 10 190 571 11 190 572 8 191 573 12 191 574 11 191 575 9 192 576 13 192 577 11 192 578 17 193 579 18 193 580 20 193 581 19 194 582 18 194 583 17 194 584 20 195 585 18 195 586 19 195 587 21 196 588 24 196 589 25 196 590 22 197 591 26 197 592 25 197 593 23 198 594 27 198 595 25 198 596 31 199 597 32 199 598 34 199 599 33 200 600 32 200 601 31 200 602 34 201 603 32 201 604 33 201 605 35 202 606 38 202 607 39 202 608 36 203 609 40 203 610 39 203 611 37 204 612 41 204 613 39 204 614 42 205 615 45 205 616 46 205 617 43 206 618 47 206 619 46 206 620 44 207 621 48 207 622 46 207 623 52 208 624 53 208 625 55 208 626 54 209 627 53 209 628 52 209 629 55 210 630 53 210 631 54 210 632 56 211 633 59 211 634 60 211 635 57 212 636 61 212 637 60 212 638 58 213 639 62 213 640 60 213 641 66 214 642 67 214 643 69 214 644 68 215 645 67 215 646 66 215 647 69 216 648 67 216 649 68 216 650 70 217 651 73 217 652 74 217 653 71 218 654 75 218 655 74 218 656 72 219 657 76 219 658 74 219 659 77 220 660 80 220 661 81 220 662 78 221 663 82 221 664 81 221 665 79 222 666 83 222 667 81 222 668 84 223 669 87 223 670 88 223 671 85 224 672 89 224 673 88 224 674 86 225 675 90 225 676 88 225 677 91 226 678 94 226 679 95 226 680 92 227 681 96 227 682 95 227 683 93 228 684 97 228 685 95 228 686 101 229 687 102 229 688 104 229 689 103 230 690 102 230 691 101 230 692 104 231 693 102 231 694 103 231 695 105 232 696 108 232 697 109 232 698 106 233 699 110 233 700 109 233 701 107 234 702 111 234 703 109 234 704 115 235 705 116 235 706 118 235 707 117 236 708 116 236 709 115 236 710 118 237 711 116 237 712 117 237 713 119 238 714 122 238 715 123 238 716 120 239 717 124 239 718 123 239 719 121 240 720 125 240 721 123 240 722 126 241 723 129 241 724 130 241 725 127 242 726 131 242 727 130 242 728 128 243 729 132 243 730 130 243 731 136 244 732 137 244 733 139 244 734 138 245 735 137 245 736 136 245 737 139 246 738 137 246 739 138 246 740 140 247 741 143 247 742 144 247 743 141 248 744 145 248 745 144 248 746 142 249 747 146 249 748 144 249 749 150 250 750 151 250 751 153 250 752 152 251 753 151 251 754 150 251 755 153 252 756 151 252 757 152 252 758 154 253 759 157 253 760 158 253 761 155 254 762 159 254 763 158 254 764 156 255 765 160 255 766 158 255 767 161 256 768 164 256 769 165 256 770 162 257 771 166 257 772 165 257 773 163 258 774 167 258 775 165 258 776 77 259 777 83 259 778 3 259 779 83 260 780 79 260 781 1 260 782 70 261 783 76 261 784 82 261 785 76 262 786 72 262 787 79 262 788 63 263 789 69 263 790 75 263 791 69 264 792 65 264 793 72 264 794 64 265 795 56 265 796 62 265 797 68 266 798 62 266 799 58 266 800 49 267 801 55 267 802 61 267 803 55 268 804 51 268 805 58 268 806 50 269 807 42 269 808 48 269 809 54 270 810 48 270 811 44 270 812 35 271 813 41 271 814 47 271 815 41 272 816 37 272 817 44 272 818 28 273 819 34 273 820 40 273 821 34 274 822 30 274 823 37 274 824 29 275 825 21 275 826 27 275 827 33 276 828 27 276 829 23 276 830 14 277 831 20 277 832 26 277 833 20 278 834 16 278 835 23 278 836 15 279 837 7 279 838 13 279 839 19 280 840 13 280 841 9 280 842 8 281 843 2 281 844 5 281 845 5 282 846 1 282 847 9 282 848 84 283 849 90 283 850 164 283 851 90 284 852 86 284 853 162 284 854 91 285 855 97 285 856 89 285 857 97 286 858 93 286 859 86 286 860 98 287 861 104 287 862 96 287 863 104 288 864 100 288 865 93 288 866 99 289 867 105 289 868 111 289 869 103 290 870 111 290 871 107 290 872 112 291 873 118 291 874 110 291 875 118 292 876 114 292 877 107 292 878 113 293 879 119 293 880 125 293 881 117 294 882 125 294 883 121 294 884 126 295 885 132 295 886 124 295 887 132 296 888 128 296 889 121 296 890 133 297 891 139 297 892 131 297 893 139 298 894 135 298 895 128 298 896 134 299 897 140 299 898 146 299 899 138 300 900 146 300 901 142 300 902 147 301 903 153 301 904 145 301 905 153 302 906 149 302 907 142 302 908 148 303 909 154 303 910 160 303 911 152 304 912 160 304 913 156 304 914 155 305 915 163 305 916 166 305 917 166 306 918 162 306 919 156 306 920 0 307 921 6 307 922 87 307 923 6 308 924 2 308 925 85 308 926 92 309 927 94 309 928 10 309 929 94 310 930 91 310 931 8 310 932 99 311 933 101 311 934 17 311 935 101 312 936 98 312 937 15 312 938 106 313 939 108 313 940 24 313 941 108 314 942 105 314 943 22 314 944 113 315 945 115 315 946 31 315 947 115 316 948 112 316 949 29 316 950 120 317 951 122 317 952 38 317 953 122 318 954 119 318 955 36 318 956 127 319 957 129 319 958 45 319 959 129 320 960 126 320 961 43 320 962 134 321 963 136 321 964 52 321 965 136 322 966 133 322 967 50 322 968 141 323 969 143 323 970 59 323 971 143 324 972 140 324 973 57 324 974 148 325 975 150 325 976 66 325 977 150 326 978 147 326 979 64 326 980 155 327 981 157 327 982 73 327 983 157 328 984 154 328 985 71 328 986 161 329 987 167 329 988 80 329 989 167 330 990 163 330 991 78 330 992 0 331 993 84 331 994 161 331 995</p>
        </triangles>
      </mesh>
    </geometry>
  </library_geometries>
  <library_visual_scenes>
    <visual_scene id="Scene" name="Scene">
      <node id="krail_root" name="krail_root" type="NODE">
        <matrix sid="transform">1 0 0 0 0 1 0 0 0 0 1 0 0 0 0 1</matrix>
        <node id="krail" name="krail" type="NODE">
          <matrix sid="transform">1 0 0 0 0 1 0 0 0 0 1 0 0 0 0 1</matrix>
          <instance_geometry url="#krail_mesh-mesh" name="krail">
            <bind_material>
              <technique_common>
                <instance_material symbol="KRAIL-material" target="#KRAIL-material">
                  <bind_vertex_input semantic="UVMap" input_semantic="TEXCOORD" input_set="0"/>
                </instance_material>
              </technique_common>
            </bind_material>
          </instance_geometry>
        </node>
      </node>
    </visual_scene>
  </library_visual_scenes>
  <scene>
    <instance_visual_scene url="#Scene"/>
  </scene>
</COLLADA>