<?xml version="1.0" encoding="utf-8"?>
<COLLADA xmlns="http://www.collada.org/2005/11/COLLADASchema" version="1.4.1" xmlns:xsi="http://www.w3.org/2001/XMLSchema-instance">
  <asset>
    <contributor>
      <author>Blender User</author>
      <authoring_tool>Blender 4.2.9 LTS commit date:2025-04-14, commit time:12:24, hash:a10f621e649a</authoring_tool>
    </contributor>
    <created>2026-08-01T07:55:09</created>
    <modified>2026-08-01T07:55:09</modified>
    <unit name="meter" meter="1"/>
    <up_axis>Z_UP</up_axis>
  </asset>
  <library_effects>
    <effect id="wood_018-effect">
      <profile_COMMON>
        <technique sid="common">
          <lambert>
            <emission>
              <color sid="emission">0 0 0 1</color>
            </emission>
            <diffuse>
              <color sid="diffuse">0.35 0.22 0.12 1</color>
            </diffuse>
            <index_of_refraction>
              <float sid="ior">1.5</float>
            </index_of_refraction>
          </lambert>
        </technique>
      </profile_COMMON>
    </effect>
    <effect id="sign_018-effect">
      <profile_COMMON>
        <newparam sid="mile_019_png-surface">
          <surface type="2D">
            <init_from>mile_019_png</init_from>
          </surface>
        </newparam>
        <newparam sid="mile_019_png-sampler">
          <sampler2D>
            <source>mile_019_png-surface</source>
          </sampler2D>
        </newparam>
        <technique sid="common">
          <lambert>
            <emission>
              <color sid="emission">0 0 0 1</color>
            </emission>
            <diffuse>
              <texture texture="mile_019_png-sampler" texcoord="UVMap"/>
            </diffuse>
            <reflectivity>
              <float sid="specular">0.1</float>
            </reflectivity>
            <index_of_refraction>
              <float sid="ior">1.5</float>
            </index_of_refraction>
          </lambert>
        </technique>
      </profile_COMMON>
    </effect>
    <effect id="Colmesh_Material-effect">
      <profile_COMMON>
        <technique sid="common">
          <lambert>
            <emission>
              <color sid="emission">0 0 0 1</color>
            </emission>
            <diffuse>
              <color sid="diffuse">1 0 1 1</color>
            </diffuse>
            <transparent opaque="A_ONE">
              <color sid="alpha">0 0 0 0.15</color>
            </transparent>
            <index_of_refraction>
              <float sid="ior">1.5</float>
            </index_of_refraction>
          </lambert>
        </technique>
      </profile_COMMON>
    </effect>
  </library_effects>
  <library_images>
    <image id="mile_019_png" name="mile_019_png">
      <init_from>mile_019.png</init_from>
    </image>
  </library_images>
  <library_materials>
    <material id="wood_018-material" name="wood.018">
      <instance_effect url="#wood_018-effect"/>
    </material>
    <material id="sign_018-material" name="sign.018">
      <instance_effect url="#sign_018-effect"/>
    </material>
    <material id="Colmesh_Material-material" name="Colmesh_Material">
      <instance_effect url="#Colmesh_Material-effect"/>
    </material>
  </library_materials>
  <library_geometries>
    <geometry id="milemarker_019_a50-mesh" name="milemarker_019_a50">
      <mesh>
        <source id="milemarker_019_a50-mesh-positions">
          <float_array id="milemarker_019_a50-mesh-positions-array" count="24">-0.2204999 0 -0.01449996 0.2204999 0 -0.01449996 0.2204999 0 1.4645 -0.2204999 0 1.4645 0 -0.2204999 -0.01449996 0 0.2204999 -0.01449996 0 0.2204999 1.4645 0 -0.2204999 1.4645</float_array>
          <technique_common>
            <accessor source="#milemarker_019_a50-mesh-positions-array" count="8" stride="3">
              <param name="X" type="float"/>
              <param name="Y" type="float"/>
              <param name="Z" type="float"/>
            </accessor>
          </technique_common>
        </source>
        <source id="milemarker_019_a50-mesh-normals">
          <float_array id="milemarker_019_a50-mesh-normals-array" count="12">0 -1 0 1 0 0 0 -1 0 1 0 0</float_array>
          <technique_common>
            <accessor source="#milemarker_019_a50-mesh-normals-array" count="4" stride="3">
              <param name="X" type="float"/>
              <param name="Y" type="float"/>
              <param name="Z" type="float"/>
            </accessor>
          </technique_common>
        </source>
        <source id="milemarker_019_a50-mesh-map-0">
          <float_array id="milemarker_019_a50-mesh-map-0-array" count="24">1 0 0 1 0 0 1 0 0 1 0 0 1 0 1 1 0 1 1 0 1 1 0 1</float_array>
          <technique_common>
            <accessor source="#milemarker_019_a50-mesh-map-0-array" count="12" stride="2">
              <param name="S" type="float"/>
              <param name="T" type="float"/>
            </accessor>
          </technique_common>
        </source>
        <vertices id="milemarker_019_a50-mesh-vertices">
          <input semantic="POSITION" source="#milemarker_019_a50-mesh-positions"/>
        </vertices>
        <triangles material="wood_018-material" count="4">
          <input semantic="VERTEX" source="#milemarker_019_a50-mesh-vertices" offset="0"/>
          <input semantic="NORMAL" source="#milemarker_019_a50-mesh-normals" offset="1"/>
          <input semantic="TEXCOORD" source="#milemarker_019_a50-mesh-map-0" offset="2" set="0"/>
          <p>1 0 0 3 0 1 0 0 2 5 1 3 7 1 4 4 1 5 1 2 6 2 2 7 3 2 8 5 3 9 6 3 10 7 3 11</p>
        </triangles>
      </mesh>
    </geometry>
    <geometry id="milemarker_019_a200-mesh" name="milemarker_019_a200">
      <mesh>
        <source id="milemarker_019_a200-mesh-positions">
          <float_array id="milemarker_019_a200-mesh-positions-array" count="30">-0.04999995 -0.02749997 0 -0.04999995 -0.02749997 1.45 -0.04999995 0.07249999 0 0.01666665 0.07249999 1.45 0.04999995 0.03916662 0 0.04999995 -0.02749997 1.45 -0.21 -0.05249994 1.38 -0.21 -0.0625 1.1 0.21 -0.05249994 1.1 0.21 -0.0625 1.38</float_array>
          <technique_common>
            <accessor source="#milemarker_019_a200-mesh-positions-array" count="10" stride="3">
              <param name="X" type="float"/>
              <param name="Y" type="float"/>
              <param name="Z" type="float"/>
            </accessor>
          </technique_common>
        </source>
        <source id="milemarker_019_a200-mesh-normals">
          <float_array id="milemarker_019_a200-mesh-normals-array" count="36">0.3161943 0.9485831 -0.01453763 -0.8314421 0.5542947 0.0382272 0 0 -1 0 -1 0 0.9485831 0.3161943 0.01453763 -0.02378761 0.9990801 0.03568142 0 -1.19209e-6 1 0.02378761 -0.9990801 0.03568142 -1 0 0 0.5542947 -0.8314421 -0.0382272 0.02378761 0.9990801 -0.03568142 -0.02378761 -0.9990801 -0.03568142</float_array>
          <technique_common>
            <accessor source="#milemarker_019_a200-mesh-normals-array" count="12" stride="3">
              <param name="X" type="float"/>
              <param name="Y" type="float"/>
              <param name="Z" type="float"/>
            </accessor>
          </technique_common>
        </source>
        <source id="milemarker_019_a200-mesh-map-0">
          <float_array id="milemarker_019_a200-mesh-map-0-array" count="72">0.1214953 0.002365469 0.144375 0.9976345 0.0757358 0.9976345 0.07100474 0.9976345 0.002365469 0.002365469 0.07100474 0.002365469 0.3416061 0.07100474 0.2958467 0.002365469 0.3644859 0.002365469 0.2911156 0.9976345 0.2224764 0.002365469 0.2911156 0.002365469 0.149106 0.002365469 0.2177453 0.002365469 0.1719858 0.9976345 0.3512289 0.9967662 0.1895212 0.00323385 0.351229 0.003233909 0.3644859 0.09861552 0.2958467 0.144375 0.2958467 0.0757358 0.516979 0.9967662 0.3552713 0.00323385 0.516979 0.003233909 0.07100474 0.9976345 0.002365469 0.9976345 0.002365469 0.002365469 0.2911156 0.9976345 0.2224764 0.9976345 0.2224764 0.002365469 0.3512289 0.9967662 0.1895211 0.9967662 0.1895212 0.00323385 0.516979 0.9967662 0.3552713 0.9967662 0.3552713 0.00323385</float_array>
          <technique_common>
            <accessor source="#milemarker_019_a200-mesh-map-0-array" count="36" stride="2">
              <param name="S" type="float"/>
              <param name="T" type="float"/>
            </accessor>
          </technique_common>
        </source>
        <vertices id="milemarker_019_a200-mesh-vertices">
          <input semantic="POSITION" source="#milemarker_019_a200-mesh-positions"/>
        </vertices>
        <triangles material="wood_018-material" count="8">
          <input semantic="VERTEX" source="#milemarker_019_a200-mesh-vertices" offset="0"/>
          <input semantic="NORMAL" source="#milemarker_019_a200-mesh-normals" offset="1"/>
          <input semantic="TEXCOORD" source="#milemarker_019_a200-mesh-map-0" offset="2" set="0"/>
          <p>3 0 0 4 0 1 2 0 2 2 1 3 1 1 4 3 1 5 4 2 6 0 2 7 2 2 8 0 3 9 5 3 10 1 3 11 3 4 12 5 4 13 4 4 14 3 6 18 1 6 19 5 6 20 2 8 24 0 8 25 1 8 26 0 9 27 4 9 28 5 9 29</p>
        </triangles>
        <triangles material="sign_018-material" count="4">
          <input semantic="VERTEX" source="#milemarker_019_a200-mesh-vertices" offset="0"/>
          <input semantic="NORMAL" source="#milemarker_019_a200-mesh-normals" offset="1"/>
          <input semantic="TEXCOORD" source="#milemarker_019_a200-mesh-map-0" offset="2" set="0"/>
          <p>7 5 15 9 5 16 8 5 17 8 7 21 6 7 22 7 7 23 7 10 30 6 10 31 9 10 32 8 11 33 9 11 34 6 11 35</p>
        </triangles>
      </mesh>
    </geometry>
    <geometry id="Colmesh_sign-1-mesh" name="Colmesh_sign-1">
      <mesh>
        <source id="Colmesh_sign-1-mesh-positions">
          <float_array id="Colmesh_sign-1-mesh-positions-array" count="24">-0.21 -0.08249998 1.1 -0.21 -0.08249998 1.38 -0.21 -0.03249996 1.1 -0.21 -0.03249996 1.38 0.21 -0.08249998 1.1 0.21 -0.08249998 1.38 0.21 -0.03249996 1.1 0.21 -0.03249996 1.38</float_array>
          <technique_common>
            <accessor source="#Colmesh_sign-1-mesh-positions-array" count="8" stride="3">
              <param name="X" type="float"/>
              <param name="Y" type="float"/>
              <param name="Z" type="float"/>
            </accessor>
          </technique_common>
        </source>
        <source id="Colmesh_sign-1-mesh-normals">
          <float_array id="Colmesh_sign-1-mesh-normals-array" count="36">-1 0 0 0 1 0 1 0 0 0 -1 0 0 0 -1 0 0 1 -1 0 0 0 1 0 1 0 0 0 -1 0 0 0 -1 0 0 1</float_array>
          <technique_common>
            <accessor source="#Colmesh_sign-1-mesh-normals-array" count="12" stride="3">
              <param name="X" type="float"/>
              <param name="Y" type="float"/>
              <param name="Z" type="float"/>
            </accessor>
          </technique_common>
        </source>
        <source id="Colmesh_sign-1-mesh-map-0">
          <float_array id="Colmesh_sign-1-mesh-map-0-array" count="72">0.625 0 0.375 0.25 0.375 0 0.625 0.25 0.375 0.5 0.375 0.25 0.625 0.5 0.375 0.75 0.375 0.5 0.625 0.75 0.375 1 0.375 0.75 0.375 0.5 0.125 0.75 0.125 0.5 0.875 0.5 0.625 0.75 0.625 0.5 0.625 0 0.625 0.25 0.375 0.25 0.625 0.25 0.625 0.5 0.375 0.5 0.625 0.5 0.625 0.75 0.375 0.75 0.625 0.75 0.625 1 0.375 1 0.375 0.5 0.375 0.75 0.125 0.75 0.875 0.5 0.875 0.75 0.625 0.75</float_array>
          <technique_common>
            <accessor source="#Colmesh_sign-1-mesh-map-0-array" count="36" stride="2">
              <param name="S" type="float"/>
              <param name="T" type="float"/>
            </accessor>
          </technique_common>
        </source>
        <vertices id="Colmesh_sign-1-mesh-vertices">
          <input semantic="POSITION" source="#Colmesh_sign-1-mesh-positions"/>
        </vertices>
        <triangles material="Colmesh_Material-material" count="12">
          <input semantic="VERTEX" source="#Colmesh_sign-1-mesh-vertices" offset="0"/>
          <input semantic="NORMAL" source="#Colmesh_sign-1-mesh-normals" offset="1"/>
          <input semantic="TEXCOORD" source="#Colmesh_sign-1-mesh-map-0" offset="2" set="0"/>
          <p>1 0 0 2 0 1 0 0 2 3 1 3 6 1 4 2 1 5 7 2 6 4 2 7 6 2 8 5 3 9 0 3 10 4 3 11 6 4 12 0 4 13 2 4 14 3 5 15 5 5 16 7 5 17 1 6 18 3 6 19 2 6 20 3 7 21 7 7 22 6 7 23 7 8 24 5 8 25 4 8 26 5 9 27 1 9 28 0 9 29 6 10 30 4 10 31 0 10 32 3 11 33 1 11 34 5 11 35</p>
        </triangles>
      </mesh>
    </geometry>
    <geometry id="Colmesh_post-1-mesh" name="Colmesh_post-1">
      <mesh>
        <source id="Colmesh_post-1-mesh-positions">
          <float_array id="Colmesh_post-1-mesh-positions-array" count="48">0 0.08249998 0 0 0.08249998 1.45 0.0424264 0.06492638 0 0.0424264 0.06492638 1.45 0.06 0.02249997 0 0.06 0.02249997 1.45 0.0424264 -0.01992636 0 0.0424264 -0.01992636 1.45 0 -0.03749996 0 0 -0.03749996 1.45 -0.0424264 -0.01992636 0 -0.0424264 -0.01992636 1.45 -0.06 0.02249997 0 -0.06 0.02249997 1.45 -0.0424264 0.06492638 0 -0.0424264 0.06492638 1.45</float_array>
          <technique_common>
            <accessor source="#Colmesh_post-1-mesh-positions-array" count="16" stride="3">
              <param name="X" type="float"/>
              <param name="Y" type="float"/>
              <param name="Z" type="float"/>
            </accessor>
          </technique_common>
        </source>
        <source id="Colmesh_post-1-mesh-normals">
          <float_array id="Colmesh_post-1-mesh-normals-array" count="84">0.3826835 0.9238796 0 0.9238795 0.3826835 0 0.9238796 -0.3826835 0 0.3826835 -0.9238796 0 -0.3826835 -0.9238796 0 -0.9238796 -0.3826835 0 0 0 1 -0.9238795 0.3826835 0 -0.3826835 0.9238796 0 0 0 -1 0.3826835 0.9238796 0 0.9238795 0.3826835 0 0.9238796 -0.3826835 0 0.3826835 -0.9238796 0 -0.3826835 -0.9238796 0 -0.9238796 -0.3826835 0 0 0 1 0 0 1 0 0 1 0 0 1 0 0 1 -0.9238795 0.3826835 0 -0.3826835 0.9238796 0 0 0 -1 0 0 -1 0 0 -1 0 0 -1 0 0 -1</float_array>
          <technique_common>
            <accessor source="#Colmesh_post-1-mesh-normals-array" count="28" stride="3">
              <param name="X" type="float"/>
              <param name="Y" type="float"/>
              <param name="Z" type="float"/>
            </accessor>
          </technique_common>
        </source>
        <source id="Colmesh_post-1-mesh-map-0">
          <float_array id="Colmesh_post-1-mesh-map-0-array" count="168">1 1 0.875 0.5 1 0.5 0.875 1 0.75 0.5 0.875 0.5 0.75 1 0.625 0.5 0.75 0.5 0.625 1 0.5 0.5 0.625 0.5 0.5 1 0.375 0.5 0.5 0.5 0.375 1 0.25 0.5 0.375 0.5 0.00999999 0.25 0.25 0.00999999 0.49 0.25 0.25 1 0.125 0.5 0.25 0.5 0.125 1 0 0.5 0.125 0.5 0.9197056 0.08029437 0.5802944 0.08029437 0.5802944 0.4197056 1 1 0.875 1 0.875 0.5 0.875 1 0.75 1 0.75 0.5 0.75 1 0.625 1 0.625 0.5 0.625 1 0.5 1 0.5 0.5 0.5 1 0.375 1 0.375 0.5 0.375 1 0.25 1 0.25 0.5 0.49 0.25 0.4197056 0.4197056 0.25 0.49 0.25 0.49 0.08029437 0.4197056 0.00999999 0.25 0.00999999 0.25 0.08029437 0.08029437 0.25 0.00999999 0.25 0.00999999 0.4197056 0.08029437 0.49 0.25 0.49 0.25 0.25 0.49 0.00999999 0.25 0.25 1 0.125 1 0.125 0.5 0.125 1 0 1 0 0.5 0.5802944 0.4197056 0.75 0.49 0.9197056 0.4197056 0.9197056 0.4197056 0.99 0.25 0.9197056 0.08029437 0.9197056 0.08029437 0.75 0.00999999 0.5802944 0.08029437 0.5802944 0.08029437 0.51 0.25 0.5802944 0.4197056 0.5802944 0.4197056 0.9197056 0.4197056 0.9197056 0.08029437</float_array>
          <technique_common>
            <accessor source="#Colmesh_post-1-mesh-map-0-array" count="84" stride="2">
              <param name="S" type="float"/>
              <param name="T" type="float"/>
            </accessor>
          </technique_common>
        </source>
        <vertices id="Colmesh_post-1-mesh-vertices">
          <input semantic="POSITION" source="#Colmesh_post-1-mesh-positions"/>
        </vertices>
        <triangles material="Colmesh_Material-material" count="28">
          <input semantic="VERTEX" source="#Colmesh_post-1-mesh-vertices" offset="0"/>
          <input semantic="NORMAL" source="#Colmesh_post-1-mesh-normals" offset="1"/>
          <input semantic="TEXCOORD" source="#Colmesh_post-1-mesh-map-0" offset="2" set="0"/>
          <p>1 0 0 2 0 1 0 0 2 3 1 3 4 1 4 2 1 5 5 2 6 6 2 7 4 2 8 7 3 9 8 3 10 6 3 11 9 4 12 10 4 13 8 4 14 11 5 15 12 5 16 10 5 17 13 6 18 9 6 19 5 6 20 13 7 21 14 7 22 12 7 23 15 8 24 0 8 25 14 8 26 6 9 27 10 9 28 14 9 29 1 10 30 3 10 31 2 10 32 3 11 33 5 11 34 4 11 35 5 12 36 7 12 37 6 12 38 7 13 39 9 13 40 8 13 41 9 14 42 11 14 43 10 14 44 11 15 45 13 15 46 12 15 47 5 16 48 3 16 49 1 16 50 1 17 51 15 17 52 13 17 53 13 18 54 11 18 55 9 18 56 9 19 57 7 19 58 5 19 59 5 20 60 1 20 61 13 20 62 13 21 63 15 21 64 14 21 65 15 22 66 1 22 67 0 22 68 14 23 69 0 23 70 2 23 71 2 24 72 4 24 73 6 24 74 6 25 75 8 25 76 10 25 77 10 26 78 12 26 79 14 26 80 14 27 81 2 27 82 6 27 83</p>
        </triangles>
      </mesh>
    </geometry>
    <geometry id="milemarker_019_a800-mesh" name="milemarker_019_a800">
      <mesh>
        <source id="milemarker_019_a800-mesh-positions">
          <float_array id="milemarker_019_a800-mesh-positions-array" count="48">-0.04999995 -0.02749997 0 -0.04999995 -0.02749997 1.45 -0.04999995 0.07249999 0 -0.04999995 0.07249999 1.45 0.04999995 -0.02749997 0 0.04999995 -0.02749997 1.45 0.04999995 0.07249999 0 0.04999995 0.07249999 1.45 -0.21 -0.07249999 1.1 -0.21 -0.07249999 1.38 -0.21 -0.04249995 1.1 -0.21 -0.04249995 1.38 0.21 -0.07249999 1.1 0.21 -0.07249999 1.38 0.21 -0.04249995 1.1 0.21 -0.04249995 1.38</float_array>
          <technique_common>
            <accessor source="#milemarker_019_a800-mesh-positions-array" count="16" stride="3">
              <param name="X" type="float"/>
              <param name="Y" type="float"/>
              <param name="Z" type="float"/>
            </accessor>
          </technique_common>
        </source>
        <source id="milemarker_019_a800-mesh-normals">
          <float_array id="milemarker_019_a800-mesh-normals-array" count="72">-1 0 0 0 1 0 1 0 0 0 -1 0 0 0 -1 0 0 1 -1 0 0 0 1 0 1 0 0 0 -1 0 0 0 -1 0 0 1 -1 0 0 0 1 0 1 0 0 0 -1 0 0 0 -1 0 0 1 -1 0 0 0 1 0 1 0 0 0 -1 0 0 0 -1 0 0 1</float_array>
          <technique_common>
            <accessor source="#milemarker_019_a800-mesh-normals-array" count="24" stride="3">
              <param name="X" type="float"/>
              <param name="Y" type="float"/>
              <param name="Z" type="float"/>
            </accessor>
          </technique_common>
        </source>
        <source id="milemarker_019_a800-mesh-map-0">
          <float_array id="milemarker_019_a800-mesh-map-0-array" count="144">0.002365469 0.002365469 0.07100474 0.9976345 0.002365469 0.9976345 0.0757358 0.002365469 0.144375 0.9976345 0.0757358 0.9976345 0.149106 0.002365469 0.2177453 0.9976345 0.149106 0.9976345 0.2224764 0.002365469 0.2911156 0.9976345 0.2224764 0.9976345 0.3644859 0.07100474 0.2958467 0.002365469 0.3644859 0.002365469 0.3644859 0.144375 0.2958467 0.0757358 0.3644859 0.0757358 0.5637579 0.00323385 0.5914792 0.4172057 0.5637579 0.4172057 0.1895211 0.9967662 0.351229 0.003233909 0.3512289 0.9967662 0.5637579 0.4236735 0.5914792 0.8376453 0.5637579 0.8376453 0.3552713 0.9967662 0.516979 0.003233909 0.516979 0.9967662 0.5383473 0.9967662 0.5210215 0.00323385 0.5383473 0.00323385 0.5597155 0.9967662 0.5423896 0.00323385 0.5597155 0.00323385 0.002365469 0.002365469 0.07100474 0.002365469 0.07100474 0.9976345 0.0757358 0.002365469 0.144375 0.002365469 0.144375 0.9976345 0.149106 0.002365469 0.2177453 0.002365469 0.2177453 0.9976345 0.2224764 0.002365469 0.2911156 0.002365469 0.2911156 0.9976345 0.3644859 0.07100474 0.2958467 0.07100474 0.2958467 0.002365469 0.3644859 0.144375 0.2958467 0.144375 0.2958467 0.0757358 0.5637579 0.00323385 0.5914792 0.00323385 0.5914792 0.4172057 0.1895211 0.9967662 0.1895212 0.00323385 0.351229 0.003233909 0.5637579 0.4236735 0.5914792 0.4236735 0.5914792 0.8376453 0.3552713 0.9967662 0.3552713 0.00323385 0.516979 0.003233909 0.5383473 0.9967662 0.5210214 0.9967662 0.5210215 0.00323385 0.5597155 0.9967662 0.5423896 0.9967662 0.5423896 0.00323385</float_array>
          <technique_common>
            <accessor source="#milemarker_019_a800-mesh-map-0-array" count="72" stride="2">
              <param name="S" type="float"/>
              <param name="T" type="float"/>
            </accessor>
          </technique_common>
        </source>
        <vertices id="milemarker_019_a800-mesh-vertices">
          <input semantic="POSITION" source="#milemarker_019_a800-mesh-positions"/>
        </vertices>
        <triangles material="wood_018-material" count="12">
          <input semantic="VERTEX" source="#milemarker_019_a800-mesh-vertices" offset="0"/>
          <input semantic="NORMAL" source="#milemarker_019_a800-mesh-normals" offset="1"/>
          <input semantic="TEXCOORD" source="#milemarker_019_a800-mesh-map-0" offset="2" set="0"/>
          <p>1 0 0 2 0 1 0 0 2 3 1 3 6 1 4 2 1 5 7 2 6 4 2 7 6 2 8 5 3 9 0 3 10 4 3 11 6 4 12 0 4 13 2 4 14 3 5 15 5 5 16 7 5 17 1 12 36 3 12 37 2 12 38 3 13 39 7 13 40 6 13 41 7 14 42 5 14 43 4 14 44 5 15 45 1 15 46 0 15 47 6 16 48 4 16 49 0 16 50 3 17 51 1 17 52 5 17 53</p>
        </triangles>
        <triangles material="sign_018-material" count="12">
          <input semantic="VERTEX" source="#milemarker_019_a800-mesh-vertices" offset="0"/>
          <input semantic="NORMAL" source="#milemarker_019_a800-mesh-normals" offset="1"/>
          <input semantic="TEXCOORD" source="#milemarker_019_a800-mesh-map-0" offset="2" set="0"/>
          <p>9 6 18 10 6 19 8 6 20 11 7 21 14 7 22 10 7 23 15 8 24 12 8 25 14 8 26 13 9 27 8 9 28 12 9 29 14 10 30 8 10 31 10 10 32 11 11 33 13 11 34 15 11 35 9 18 54 11 18 55 10 18 56 11 19 57 15 19 58 14 19 59 15 20 60 13 20 61 12 20 62 13 21 63 9 21 64 8 21 65 14 22 66 12 22 67 8 22 68 11 23 69 9 23 70 13 23 71</p>
        </triangles>
      </mesh>
    </geometry>
  </library_geometries>
  <library_visual_scenes>
    <visual_scene id="Scene" name="Scene">
      <node id="base00" name="base00" type="NODE">
        <matrix sid="transform">1 0 0 0 0 1 0 0 0 0 1 0 0 0 0 1</matrix>
        <node id="start01" name="start01" type="NODE">
          <matrix sid="transform">1 0 0 0 0 1 0 0 0 0 1 0 0 0 0 1</matrix>
          <node id="milemarker_019_a800" name="milemarker_019_a800" type="NODE">
            <matrix sid="transform">1 0 0 0 0 1 0 0 0 0 1 0 0 0 0 1</matrix>
            <instance_geometry url="#milemarker_019_a800-mesh" name="milemarker_019_a800">
              <bind_material>
                <technique_common>
                  <instance_material symbol="wood_018-material" target="#wood_018-material">
                    <bind_vertex_input semantic="UVMap" input_semantic="TEXCOORD" input_set="0"/>
                  </instance_material>
                  <instance_material symbol="sign_018-material" target="#sign_018-material">
                    <bind_vertex_input semantic="UVMap" input_semantic="TEXCOORD" input_set="0"/>
                  </instance_material>
                </technique_common>
              </bind_material>
            </instance_geometry>
          </node>
          <node id="milemarker_019_a200" name="milemarker_019_a200" type="NODE">
            <matrix sid="transform">1 0 0 0 0 1 0 0 0 0 1 0 0 0 0 1</matrix>
            <instance_geometry url="#milemarker_019_a200-mesh" name="milemarker_019_a200">
              <bind_material>
                <technique_common>
                  <instance_material symbol="wood_018-material" target="#wood_018-material">
                    <bind_vertex_input semantic="UVMap" input_semantic="TEXCOORD" input_set="0"/>
                  </instance_material>
                  <instance_material symbol="sign_018-material" target="#sign_018-material">
                    <bind_vertex_input semantic="UVMap" input_semantic="TEXCOORD" input_set="0"/>
                  </instance_material>
                </technique_common>
              </bind_material>
            </instance_geometry>
          </node>
          <node id="milemarker_019_a50" name="milemarker_019_a50" type="NODE">
            <matrix sid="transform">1 0 0 0 0 1 0 0 0 0 1 0 0 0 0 1</matrix>
            <instance_geometry url="#milemarker_019_a50-mesh" name="milemarker_019_a50">
              <bind_material>
                <technique_common>
                  <instance_material symbol="wood_018-material" target="#wood_018-material">
                    <bind_vertex_input semantic="UVMap" input_semantic="TEXCOORD" input_set="0"/>
                  </instance_material>
                </technique_common>
              </bind_material>
            </instance_geometry>
          </node>
          <node id="nulldetail20" name="nulldetail20" type="NODE">
            <matrix sid="transform">1 0 0 0 0 1 0 0 0 0 1 0 0 0 0 1</matrix>
          </node>
        </node>
        <node id="collision-1" name="collision-1" type="NODE">
          <matrix sid="transform">1 0 0 0 0 1 0 0 0 0 1 0 0 0 0 1</matrix>
          <node id="Colmesh_post-1" name="Colmesh_post-1" type="NODE">
            <matrix sid="transform">1 0 0 0 0 1 0 0 0 0 1 0 0 0 0 1</matrix>
            <instance_geometry url="#Colmesh_post-1-mesh" name="Colmesh_post-1">
              <bind_material>
                <technique_common>
                  <instance_material symbol="Colmesh_Material-material" target="#Colmesh_Material-material">
                    <bind_vertex_input semantic="UVMap" input_semantic="TEXCOORD" input_set="0"/>
                  </instance_material>
                </technique_common>
              </bind_material>
            </instance_geometry>
          </node>
          <node id="Colmesh_sign-1" name="Colmesh_sign-1" type="NODE">
            <matrix sid="transform">1 0 0 0 0 1 0 0 0 0 1 0 0 0 0 1</matrix>
            <instance_geometry url="#Colmesh_sign-1-mesh" name="Colmesh_sign-1">
              <bind_material>
                <technique_common>
                  <instance_material symbol="Colmesh_Material-material" target="#Colmesh_Material-material">
                    <bind_vertex_input semantic="UVMap" input_semantic="TEXCOORD" input_set="0"/>
                  </instance_material>
                </technique_common>
              </bind_material>
            </instance_geometry>
          </node>
        </node>
      </node>
    </visual_scene>
  </library_visual_scenes>
  <scene>
    <instance_visual_scene url="#Scene"/>
  </scene>
</COLLADA>