<?xml version="1.0" encoding="utf-8"?>
<COLLADA xmlns="http://www.collada.org/2005/11/COLLADASchema" version="1.4.1" xmlns:xsi="http://www.w3.org/2001/XMLSchema-instance">
  <asset>
    <contributor>
      <author>Blender User</author>
      <authoring_tool>Blender 4.2.9 LTS commit date:2025-04-14, commit time:12:24, hash:a10f621e649a</authoring_tool>
    </contributor>
    <created>2026-08-01T08:05:54</created>
    <modified>2026-08-01T08:05:54</modified>
    <unit name="meter" meter="1"/>
    <up_axis>Z_UP</up_axis>
  </asset>
  <library_effects>
    <effect id="ParkerVegAtlas-effect">
      <profile_COMMON>
        <newparam sid="vegetation_atlas_2048_png-surface">
          <surface type="2D">
            <init_from>vegetation_atlas_2048_png</init_from>
          </surface>
        </newparam>
        <newparam sid="vegetation_atlas_2048_png-sampler">
          <sampler2D>
            <source>vegetation_atlas_2048_png-surface</source>
          </sampler2D>
        </newparam>
        <technique sid="common">
          <lambert>
            <emission>
              <color sid="emission">0 0 0 1</color>
            </emission>
            <diffuse>
              <texture texture="vegetation_atlas_2048_png-sampler" texcoord="UVMap"/>
            </diffuse>
            <index_of_refraction>
              <float sid="ior">1.5</float>
            </index_of_refraction>
          </lambert>
        </technique>
      </profile_COMMON>
    </effect>
    <effect id="Colmesh_Material-effect">
      <profile_COMMON>
        <technique sid="common">
          <lambert>
            <emission>
              <color sid="emission">0 0 0 1</color>
            </emission>
            <diffuse>
              <color sid="diffuse">1 0 1 1</color>
            </diffuse>
            <transparent opaque="A_ONE">
              <color sid="alpha">0 0 0 0.15</color>
            </transparent>
            <index_of_refraction>
              <float sid="ior">1.5</float>
            </index_of_refraction>
          </lambert>
        </technique>
      </profile_COMMON>
    </effect>
  </library_effects>
  <library_images>
    <image id="vegetation_atlas_2048_png" name="vegetation_atlas_2048_png">
      <init_from>vegetation_atlas_2048.png</init_from>
    </image>
  </library_images>
  <library_materials>
    <material id="ParkerVegAtlas-material" name="ParkerVegAtlas">
      <instance_effect url="#ParkerVegAtlas-effect"/>
    </material>
    <material id="Colmesh_Material-material" name="Colmesh_Material">
      <instance_effect url="#Colmesh_Material-effect"/>
    </material>
  </library_materials>
  <library_geometries>
    <geometry id="creosote_small_a50-mesh" name="creosote_small_a50">
      <mesh>
        <source id="creosote_small_a50-mesh-positions">
          <float_array id="creosote_small_a50-mesh-positions-array" count="24">-0.3851869 0 -0.009880244 0.3851869 0 -0.009880244 0.3851869 0 0.9979073 -0.3851869 0 0.9979073 0 -0.3851869 -0.009880244 0 0.3851869 -0.009880244 0 0.3851869 0.9979073 0 -0.3851869 0.9979073</float_array>
          <technique_common>
            <accessor source="#creosote_small_a50-mesh-positions-array" count="8" stride="3">
              <param name="X" type="float"/>
              <param name="Y" type="float"/>
              <param name="Z" type="float"/>
            </accessor>
          </technique_common>
        </source>
        <source id="creosote_small_a50-mesh-normals">
          <float_array id="creosote_small_a50-mesh-normals-array" count="12">0 -1 0 1 0 0 0 -1 0 1 0 0</float_array>
          <technique_common>
            <accessor source="#creosote_small_a50-mesh-normals-array" count="4" stride="3">
              <param name="X" type="float"/>
              <param name="Y" type="float"/>
              <param name="Z" type="float"/>
            </accessor>
          </technique_common>
        </source>
        <source id="creosote_small_a50-mesh-map-0">
          <float_array id="creosote_small_a50-mesh-map-0-array" count="24">1 0 0 1 0 0 1 0 0 1 0 0 1 0 1 1 0 1 1 0 1 1 0 1</float_array>
          <technique_common>
            <accessor source="#creosote_small_a50-mesh-map-0-array" count="12" stride="2">
              <param name="S" type="float"/>
              <param name="T" type="float"/>
            </accessor>
          </technique_common>
        </source>
        <vertices id="creosote_small_a50-mesh-vertices">
          <input semantic="POSITION" source="#creosote_small_a50-mesh-positions"/>
        </vertices>
        <triangles material="ParkerVegAtlas-material" count="4">
          <input semantic="VERTEX" source="#creosote_small_a50-mesh-vertices" offset="0"/>
          <input semantic="NORMAL" source="#creosote_small_a50-mesh-normals" offset="1"/>
          <input semantic="TEXCOORD" source="#creosote_small_a50-mesh-map-0" offset="2" set="0"/>
          <p>1 0 0 3 0 1 0 0 2 5 1 3 7 1 4 4 1 5 1 2 6 2 2 7 3 2 8 5 3 9 6 3 10 7 3 11</p>
        </triangles>
      </mesh>
    </geometry>
    <geometry id="creosote_small_a200-mesh" name="creosote_small_a200">
      <mesh>
        <source id="creosote_small_a200-mesh-positions">
          <float_array id="creosote_small_a200-mesh-positions-array" count="99">0.007966458 0.03049916 0 0.01344567 0.02599918 0.315 0.02599918 -0.01344567 0.315 -0.007966458 -0.03049916 0 -0.03049916 -0.007966458 0.315 0.09846603 -0.34398 0.1097623 0.1114958 0.3399801 0.1097623 0.09846603 -0.34398 0.6146042 0.1114958 0.3399801 0.6146042 0.2815959 -0.04037892 0.3047223 -0.1771668 0.2225727 0.3047223 0.2815959 -0.04037892 0.8190355 -0.1771668 0.2225727 0.8190355 0.156668 0.2268158 0.5164057 -0.2709706 -0.05064857 0.5164057 0.156668 0.2268159 0.988027 -0.2709706 -0.05064851 0.988027 -0.05179214 0.3306757 0.135271 -0.1553992 -0.2964455 0.135271 -0.0517922 0.3306757 0.553346 -0.1553992 -0.2964455 0.553346 -0.3307602 0.002544045 0.3204074 0.2625678 -0.2011638 0.3204074 -0.3307602 0.002544045 0.8559439 0.2625678 -0.2011638 0.8559439 -0.2387149 -0.2105432 0.4849961 0.3178929 0.01604169 0.4849961 -0.2387149 -0.2105432 0.9066892 0.3178929 0.01604163 0.9066892 -0.2517932 -0.3583341 0.593472 0.3668446 -0.2392241 0.593472 -0.3668446 0.2392241 0.756528 0.2517932 0.3583341 0.756528</float_array>
          <technique_common>
            <accessor source="#creosote_small_a200-mesh-positions-array" count="33" stride="3">
              <param name="X" type="float"/>
              <param name="Y" type="float"/>
              <param name="Z" type="float"/>
            </accessor>
          </technique_common>
        </source>
        <source id="creosote_small_a200-mesh-normals">
          <float_array id="creosote_small_a200-mesh-normals-array" count="60">0.9635876 -0.2516928 -0.09027528 -0.9638732 0.2517674 -0.08695751 0.9528343 0.3032442 -0.01224184 -0.09632778 -0.9932796 0.06416094 0.9998186 -0.01904696 0 0 0 1 -0.6113944 0.791022 0.02193486 0.4972812 0.8675894 0 -0.5442978 0.8388921 0 -0.9866259 0.163001 0 -0.3247252 -0.9458084 0 0.3770382 -0.9261977 0 0.0489332 -0.2541512 0.9659258 0.9998186 -0.01904696 0 0.4972812 0.8675894 0 -0.5442978 0.8388921 0 -0.9866259 0.163001 0 -0.3247252 -0.9458084 0 0.3770382 -0.9261977 0 0.0489332 -0.2541512 0.9659258</float_array>
          <technique_common>
            <accessor source="#creosote_small_a200-mesh-normals-array" count="20" stride="3">
              <param name="X" type="float"/>
              <param name="Y" type="float"/>
              <param name="Z" type="float"/>
            </accessor>
          </technique_common>
        </source>
        <source id="creosote_small_a200-mesh-map-0">
          <float_array id="creosote_small_a200-mesh-map-0-array" count="120">0.75 0.9038462 0.5 1 0.5 0.75 0.75 0.9038462 0.5 1 0.5 0.75 0.75 0.75 0.75 1 0.5 0.8461539 0.75 0.75 0.75 1 0.5 0.8461539 0.75 0.75 1 1 0.75 1 0.3544342 0.4467419 0.0957145 0.2159098 0.4467419 0.1455658 0.75 0.75 0.75 1 0.5 0.8461539 0.75 0.75 1 1 0.75 1 1 1 0.75 0.75 1 0.75 0.75 0.75 1 1 0.75 1 0.75 0.75 1 1 0.75 1 0.75 0.75 1 1 0.75 1 0.75 0.75 1 1 0.75 1 0.75 0.75 1 0.75 1 1 0.75 0.75 1 0.75 1 1 1 1 0.75 1 0.75 0.75 0.75 0.75 1 0.75 1 1 0.75 0.75 1 0.75 1 1 0.75 0.75 1 0.75 1 1 0.75 0.75 1 0.75 1 1</float_array>
          <technique_common>
            <accessor source="#creosote_small_a200-mesh-map-0-array" count="60" stride="2">
              <param name="S" type="float"/>
              <param name="T" type="float"/>
            </accessor>
          </technique_common>
        </source>
        <vertices id="creosote_small_a200-mesh-vertices">
          <input semantic="POSITION" source="#creosote_small_a200-mesh-positions"/>
        </vertices>
        <triangles material="ParkerVegAtlas-material" count="20">
          <input semantic="VERTEX" source="#creosote_small_a200-mesh-vertices" offset="0"/>
          <input semantic="NORMAL" source="#creosote_small_a200-mesh-normals" offset="1"/>
          <input semantic="TEXCOORD" source="#creosote_small_a200-mesh-map-0" offset="2" set="0"/>
          <p>2 0 0 3 0 1 0 0 2 4 1 3 0 1 4 3 1 5 1 2 6 2 2 7 0 2 8 2 3 9 4 3 10 3 3 11 5 4 12 8 4 13 7 4 14 1 5 15 4 5 16 2 5 17 4 6 18 1 6 19 0 6 20 9 7 21 12 7 22 11 7 23 16 8 24 13 8 25 14 8 26 17 9 27 20 9 28 19 9 29 21 10 30 24 10 31 23 10 32 25 11 33 28 11 34 27 11 35 29 12 36 32 12 37 31 12 38 5 13 39 6 13 40 8 13 41 9 14 42 10 14 43 12 14 44 16 15 45 15 15 46 13 15 47 17 16 48 18 16 49 20 16 50 21 17 51 22 17 52 24 17 53 25 18 54 26 18 55 28 18 56 29 19 57 30 19 58 32 19 59</p>
        </triangles>
      </mesh>
    </geometry>
    <geometry id="Colmesh_bush-1-mesh" name="Colmesh_bush-1">
      <mesh>
        <source id="Colmesh_bush-1-mesh-positions">
          <float_array id="Colmesh_bush-1-mesh-positions-array" count="48">0 0.245 0 0 0.245 0.765 0.1732411 0.1732411 0 0.1732411 0.1732411 0.765 0.245 0 0 0.245 0 0.765 0.1732411 -0.1732411 0 0.1732411 -0.1732411 0.765 0 -0.245 0 0 -0.245 0.765 -0.1732411 -0.1732411 0 -0.1732411 -0.1732411 0.765 -0.245 0 0 -0.245 0 0.765 -0.1732411 0.1732411 0 -0.1732411 0.1732411 0.765</float_array>
          <technique_common>
            <accessor source="#Colmesh_bush-1-mesh-positions-array" count="16" stride="3">
              <param name="X" type="float"/>
              <param name="Y" type="float"/>
              <param name="Z" type="float"/>
            </accessor>
          </technique_common>
        </source>
        <source id="Colmesh_bush-1-mesh-normals">
          <float_array id="Colmesh_bush-1-mesh-normals-array" count="84">0.3826834 0.9238796 0 0.9238796 0.3826834 0 0.9238796 -0.3826834 0 0.3826834 -0.9238796 0 -0.3826834 -0.9238796 0 -0.9238796 -0.3826834 0 0 0 1 -0.9238796 0.3826834 0 -0.3826834 0.9238796 0 0 0 -1 0.3826834 0.9238796 0 0.9238796 0.3826834 0 0.9238796 -0.3826834 0 0.3826834 -0.9238796 0 -0.3826834 -0.9238796 0 -0.9238796 -0.3826834 0 0 0 1 0 0 1 0 0 1 0 0 1 0 0 1 -0.9238796 0.3826834 0 -0.3826834 0.9238796 0 0 0 -1 0 0 -1 0 0 -1 0 0 -1 0 0 -1</float_array>
          <technique_common>
            <accessor source="#Colmesh_bush-1-mesh-normals-array" count="28" stride="3">
              <param name="X" type="float"/>
              <param name="Y" type="float"/>
              <param name="Z" type="float"/>
            </accessor>
          </technique_common>
        </source>
        <source id="Colmesh_bush-1-mesh-map-0">
          <float_array id="Colmesh_bush-1-mesh-map-0-array" count="168">1 1 0.875 0.5 1 0.5 0.875 1 0.75 0.5 0.875 0.5 0.75 1 0.625 0.5 0.75 0.5 0.625 1 0.5 0.5 0.625 0.5 0.5 1 0.375 0.5 0.5 0.5 0.375 1 0.25 0.5 0.375 0.5 0.00999999 0.25 0.25 0.00999999 0.49 0.25 0.25 1 0.125 0.5 0.25 0.5 0.125 1 0 0.5 0.125 0.5 0.9197056 0.08029437 0.5802944 0.08029437 0.5802944 0.4197056 1 1 0.875 1 0.875 0.5 0.875 1 0.75 1 0.75 0.5 0.75 1 0.625 1 0.625 0.5 0.625 1 0.5 1 0.5 0.5 0.5 1 0.375 1 0.375 0.5 0.375 1 0.25 1 0.25 0.5 0.49 0.25 0.4197056 0.4197056 0.25 0.49 0.25 0.49 0.08029437 0.4197056 0.00999999 0.25 0.00999999 0.25 0.08029437 0.08029437 0.25 0.00999999 0.25 0.00999999 0.4197056 0.08029437 0.49 0.25 0.49 0.25 0.25 0.49 0.00999999 0.25 0.25 1 0.125 1 0.125 0.5 0.125 1 0 1 0 0.5 0.5802944 0.4197056 0.75 0.49 0.9197056 0.4197056 0.9197056 0.4197056 0.99 0.25 0.9197056 0.08029437 0.9197056 0.08029437 0.75 0.00999999 0.5802944 0.08029437 0.5802944 0.08029437 0.51 0.25 0.5802944 0.4197056 0.5802944 0.4197056 0.9197056 0.4197056 0.9197056 0.08029437</float_array>
          <technique_common>
            <accessor source="#Colmesh_bush-1-mesh-map-0-array" count="84" stride="2">
              <param name="S" type="float"/>
              <param name="T" type="float"/>
            </accessor>
          </technique_common>
        </source>
        <vertices id="Colmesh_bush-1-mesh-vertices">
          <input semantic="POSITION" source="#Colmesh_bush-1-mesh-positions"/>
        </vertices>
        <triangles material="Colmesh_Material-material" count="28">
          <input semantic="VERTEX" source="#Colmesh_bush-1-mesh-vertices" offset="0"/>
          <input semantic="NORMAL" source="#Colmesh_bush-1-mesh-normals" offset="1"/>
          <input semantic="TEXCOORD" source="#Colmesh_bush-1-mesh-map-0" offset="2" set="0"/>
          <p>1 0 0 2 0 1 0 0 2 3 1 3 4 1 4 2 1 5 5 2 6 6 2 7 4 2 8 7 3 9 8 3 10 6 3 11 9 4 12 10 4 13 8 4 14 11 5 15 12 5 16 10 5 17 13 6 18 9 6 19 5 6 20 13 7 21 14 7 22 12 7 23 15 8 24 0 8 25 14 8 26 6 9 27 10 9 28 14 9 29 1 10 30 3 10 31 2 10 32 3 11 33 5 11 34 4 11 35 5 12 36 7 12 37 6 12 38 7 13 39 9 13 40 8 13 41 9 14 42 11 14 43 10 14 44 11 15 45 13 15 46 12 15 47 5 16 48 3 16 49 1 16 50 1 17 51 15 17 52 13 17 53 13 18 54 11 18 55 9 18 56 9 19 57 7 19 58 5 19 59 5 20 60 1 20 61 13 20 62 13 21 63 15 21 64 14 21 65 15 22 66 1 22 67 0 22 68 14 23 69 0 23 70 2 23 71 2 24 72 4 24 73 6 24 74 6 25 75 8 25 76 10 25 77 10 26 78 12 26 79 14 26 80 14 27 81 2 27 82 6 27 83</p>
        </triangles>
      </mesh>
    </geometry>
    <geometry id="creosote_small_a800-mesh" name="creosote_small_a800">
      <mesh>
        <source id="creosote_small_a800-mesh-positions">
          <float_array id="creosote_small_a800-mesh-positions-array" count="132">0 0.02799999 0 0 0.02799999 0.315 0.01979899 0.01979899 0 0.01979899 0.01979899 0.315 0.02799999 0 0 0.02799999 0 0.315 0.01979899 -0.01979899 0 0.01979899 -0.01979899 0.315 0 -0.02799999 0 0 -0.02799999 0.315 -0.01979899 -0.01979899 0 -0.01979899 -0.01979899 0.315 -0.02799999 0 0 -0.02799999 0 0.315 -0.01979899 0.01979899 0 -0.01979899 0.01979899 0.315 0.09846603 -0.34398 0.1097623 0.1114958 0.3399801 0.1097623 0.09846603 -0.34398 0.6146042 0.1114958 0.3399801 0.6146042 0.2815959 -0.04037892 0.3047223 -0.1771668 0.2225727 0.3047223 0.2815959 -0.04037892 0.8190355 -0.1771668 0.2225727 0.8190355 0.156668 0.2268158 0.5164057 -0.2709706 -0.05064857 0.5164057 0.156668 0.2268159 0.988027 -0.2709706 -0.05064851 0.988027 -0.05179214 0.3306757 0.135271 -0.1553992 -0.2964455 0.135271 -0.0517922 0.3306757 0.553346 -0.1553992 -0.2964455 0.553346 -0.3307602 0.002544045 0.3204074 0.2625678 -0.2011638 0.3204074 -0.3307602 0.002544045 0.8559439 0.2625678 -0.2011638 0.8559439 -0.2387149 -0.2105432 0.4849961 0.3178929 0.01604169 0.4849961 -0.2387149 -0.2105432 0.9066892 0.3178929 0.01604163 0.9066892 -0.2517932 -0.3583341 0.593472 0.3668446 -0.2392241 0.593472 -0.3668446 0.2392241 0.756528 0.2517932 0.3583341 0.756528</float_array>
          <technique_common>
            <accessor source="#creosote_small_a800-mesh-positions-array" count="44" stride="3">
              <param name="X" type="float"/>
              <param name="Y" type="float"/>
              <param name="Z" type="float"/>
            </accessor>
          </technique_common>
        </source>
        <source id="creosote_small_a800-mesh-normals">
          <float_array id="creosote_small_a800-mesh-normals-array" count="126">0.3826835 0.9238795 0 0.9238795 0.3826835 0 0.9238795 -0.3826835 0 0.3826835 -0.9238795 0 -0.3826835 -0.9238795 0 -0.9238795 -0.3826835 0 0 0 1 -0.9238795 0.3826835 0 -0.3826835 0.9238795 0 0 0 -1 0.9998186 -0.01904696 0 0.4972812 0.8675894 0 -0.5442978 0.8388921 0 -0.9866259 0.163001 0 -0.3247252 -0.9458084 0 0.3770382 -0.9261977 0 0.0489332 -0.2541512 0.9659258 0.3826835 0.9238795 0 0.9238795 0.3826835 0 0.9238795 -0.3826835 0 0.3826835 -0.9238795 0 -0.3826835 -0.9238795 0 -0.9238795 -0.3826835 0 0 0 1 0 0 1 0 0 1 0 0 1 0 0 1 -0.9238795 0.3826835 0 -0.3826835 0.9238795 0 0 0 -1 0 0 -1 0 0 -1 0 0 -1 0 0 -1 0.9998186 -0.01904696 0 0.4972812 0.8675894 0 -0.5442978 0.8388921 0 -0.9866259 0.163001 0 -0.3247252 -0.9458084 0 0.3770382 -0.9261977 0 0.0489332 -0.2541512 0.9659258</float_array>
          <technique_common>
            <accessor source="#creosote_small_a800-mesh-normals-array" count="42" stride="3">
              <param name="X" type="float"/>
              <param name="Y" type="float"/>
              <param name="Z" type="float"/>
            </accessor>
          </technique_common>
        </source>
        <source id="creosote_small_a800-mesh-map-0">
          <float_array id="creosote_small_a800-mesh-map-0-array" count="252">0.75 0.75 0.5 1 0.5 0.75 0.75 0.75 0.5 1 0.5 0.75 0.75 0.75 0.5 1 0.5 0.75 0.75 0.75 0.5 1 0.5 0.75 0.75 0.75 0.5 1 0.5 0.75 0.75 0.75 0.5 1 0.5 0.75 0.4197056 0.08029437 0.49 0.25 0.00999999 0.25 0.75 0.75 0.5 1 0.5 0.75 0.75 0.75 0.5 1 0.5 0.75 0.51 0.25 0.5802944 0.4197056 0.9197056 0.08029437 1 0.75 0.75 1 0.75 0.75 1 0.75 0.75 1 0.75 0.75 0.75 0.75 1 1 0.75 1 1 0.75 0.75 1 0.75 0.75 1 0.75 0.75 1 0.75 0.75 0.75 0.75 1 1 0.75 1 0.75 0.75 1 1 0.75 1 0.75 0.75 0.75 1 0.5 1 0.75 0.75 0.75 1 0.5 1 0.75 0.75 0.75 1 0.5 1 0.75 0.75 0.75 1 0.5 1 0.75 0.75 0.75 1 0.5 1 0.75 0.75 0.75 1 0.5 1 0.49 0.25 0.4197056 0.4197056 0.25 0.49 0.25 0.49 0.08029437 0.4197056 0.49 0.25 0.08029437 0.4197056 0.00999999 0.25 0.49 0.25 0.00999999 0.25 0.08029437 0.08029437 0.25 0.00999999 0.25 0.00999999 0.4197056 0.08029437 0.00999999 0.25 0.75 0.75 0.75 1 0.5 1 0.75 0.75 0.75 1 0.5 1 0.5802944 0.4197056 0.75 0.49 0.9197056 0.4197056 0.9197056 0.4197056 0.99 0.25 0.5802944 0.4197056 0.99 0.25 0.9197056 0.08029437 0.5802944 0.4197056 0.9197056 0.08029437 0.75 0.00999999 0.5802944 0.08029437 0.5802944 0.08029437 0.51 0.25 0.9197056 0.08029437 1 0.75 1 1 0.75 1 1 0.75 1 1 0.75 1 0.75 0.75 1 0.75 1 1 1 0.75 1 1 0.75 1 1 0.75 1 1 0.75 1 0.75 0.75 1 0.75 1 1 0.75 0.75 1 0.75 1 1</float_array>
          <technique_common>
            <accessor source="#creosote_small_a800-mesh-map-0-array" count="126" stride="2">
              <param name="S" type="float"/>
              <param name="T" type="float"/>
            </accessor>
          </technique_common>
        </source>
        <vertices id="creosote_small_a800-mesh-vertices">
          <input semantic="POSITION" source="#creosote_small_a800-mesh-positions"/>
        </vertices>
        <triangles material="ParkerVegAtlas-material" count="42">
          <input semantic="VERTEX" source="#creosote_small_a800-mesh-vertices" offset="0"/>
          <input semantic="NORMAL" source="#creosote_small_a800-mesh-normals" offset="1"/>
          <input semantic="TEXCOORD" source="#creosote_small_a800-mesh-map-0" offset="2" set="0"/>
          <p>1 0 0 2 0 1 0 0 2 3 1 3 4 1 4 2 1 5 5 2 6 6 2 7 4 2 8 7 3 9 8 3 10 6 3 11 9 4 12 10 4 13 8 4 14 11 5 15 12 5 16 10 5 17 7 6 18 5 6 19 13 6 20 13 7 21 14 7 22 12 7 23 15 8 24 0 8 25 14 8 26 12 9 27 14 9 28 6 9 29 17 10 30 18 10 31 16 10 32 21 11 33 22 11 34 20 11 35 24 12 36 27 12 37 26 12 38 29 13 39 30 13 40 28 13 41 33 14 42 34 14 43 32 14 44 36 15 45 39 15 46 38 15 47 40 16 48 43 16 49 42 16 50 1 17 51 3 17 52 2 17 53 3 18 54 5 18 55 4 18 56 5 19 57 7 19 58 6 19 59 7 20 60 9 20 61 8 20 62 9 21 63 11 21 64 10 21 65 11 22 66 13 22 67 12 22 68 5 23 69 3 23 70 1 23 71 1 24 72 15 24 73 5 24 74 15 25 75 13 25 76 5 25 77 13 26 78 11 26 79 9 26 80 9 27 81 7 27 82 13 27 83 13 28 84 15 28 85 14 28 86 15 29 87 1 29 88 0 29 89 14 30 90 0 30 91 2 30 92 2 31 93 4 31 94 14 31 95 4 32 96 6 32 97 14 32 98 6 33 99 8 33 100 10 33 101 10 34 102 12 34 103 6 34 104 17 35 105 19 35 106 18 35 107 21 36 108 23 36 109 22 36 110 24 37 111 25 37 112 27 37 113 29 38 114 31 38 115 30 38 116 33 39 117 35 39 118 34 39 119 36 40 120 37 40 121 39 40 122 40 41 123 41 41 124 43 41 125</p>
        </triangles>
      </mesh>
    </geometry>
  </library_geometries>
  <library_visual_scenes>
    <visual_scene id="Scene" name="Scene">
      <node id="base00" name="base00" type="NODE">
        <matrix sid="transform">1 0 0 0 0 1 0 0 0 0 1 0 0 0 0 1</matrix>
        <node id="start01" name="start01" type="NODE">
          <matrix sid="transform">1 0 0 0 0 1 0 0 0 0 1 0 0 0 0 1</matrix>
          <node id="creosote_small_a800" name="creosote_small_a800" type="NODE">
            <matrix sid="transform">1 0 0 0 0 1 0 0 0 0 1 0 0 0 0 1</matrix>
            <instance_geometry url="#creosote_small_a800-mesh" name="creosote_small_a800">
              <bind_material>
                <technique_common>
                  <instance_material symbol="ParkerVegAtlas-material" target="#ParkerVegAtlas-material">
                    <bind_vertex_input semantic="UVMap" input_semantic="TEXCOORD" input_set="0"/>
                  </instance_material>
                </technique_common>
              </bind_material>
            </instance_geometry>
          </node>
          <node id="creosote_small_a200" name="creosote_small_a200" type="NODE">
            <matrix sid="transform">1 0 0 0 0 1 0 0 0 0 1 0 0 0 0 1</matrix>
            <instance_geometry url="#creosote_small_a200-mesh" name="creosote_small_a200">
              <bind_material>
                <technique_common>
                  <instance_material symbol="ParkerVegAtlas-material" target="#ParkerVegAtlas-material">
                    <bind_vertex_input semantic="UVMap" input_semantic="TEXCOORD" input_set="0"/>
                  </instance_material>
                </technique_common>
              </bind_material>
            </instance_geometry>
          </node>
          <node id="creosote_small_a50" name="creosote_small_a50" type="NODE">
            <matrix sid="transform">1 0 0 0 0 1 0 0 0 0 1 0 0 0 0 1</matrix>
            <instance_geometry url="#creosote_small_a50-mesh" name="creosote_small_a50">
              <bind_material>
                <technique_common>
                  <instance_material symbol="ParkerVegAtlas-material" target="#ParkerVegAtlas-material">
                    <bind_vertex_input semantic="UVMap" input_semantic="TEXCOORD" input_set="0"/>
                  </instance_material>
                </technique_common>
              </bind_material>
            </instance_geometry>
          </node>
          <node id="nulldetail20" name="nulldetail20" type="NODE">
            <matrix sid="transform">1 0 0 0 0 1 0 0 0 0 1 0 0 0 0 1</matrix>
          </node>
        </node>
        <node id="collision-1" name="collision-1" type="NODE">
          <matrix sid="transform">1 0 0 0 0 1 0 0 0 0 1 0 0 0 0 1</matrix>
          <node id="Colmesh_bush-1" name="Colmesh_bush-1" type="NODE">
            <matrix sid="transform">1 0 0 0 0 1 0 0 0 0 1 0 0 0 0 1</matrix>
            <instance_geometry url="#Colmesh_bush-1-mesh" name="Colmesh_bush-1">
              <bind_material>
                <technique_common>
                  <instance_material symbol="Colmesh_Material-material" target="#Colmesh_Material-material">
                    <bind_vertex_input semantic="UVMap" input_semantic="TEXCOORD" input_set="0"/>
                  </instance_material>
                </technique_common>
              </bind_material>
            </instance_geometry>
          </node>
        </node>
      </node>
    </visual_scene>
  </library_visual_scenes>
  <scene>
    <instance_visual_scene url="#Scene"/>
  </scene>
</COLLADA>