<?xml version="1.0" encoding="utf-8"?>
<COLLADA xmlns="http://www.collada.org/2005/11/COLLADASchema" version="1.4.1" xmlns:xsi="http://www.w3.org/2001/XMLSchema-instance">
  <asset>
    <contributor>
      <author>Blender User</author>
      <authoring_tool>Blender 4.2.9 LTS commit date:2025-04-14, commit time:12:24, hash:a10f621e649a</authoring_tool>
    </contributor>
    <created>2026-08-01T08:05:54</created>
    <modified>2026-08-01T08:05:54</modified>
    <unit name="meter" meter="1"/>
    <up_axis>Z_UP</up_axis>
  </asset>
  <library_effects>
    <effect id="ParkerVegAtlas-effect">
      <profile_COMMON>
        <newparam sid="vegetation_atlas_2048_png-surface">
          <surface type="2D">
            <init_from>vegetation_atlas_2048_png</init_from>
          </surface>
        </newparam>
        <newparam sid="vegetation_atlas_2048_png-sampler">
          <sampler2D>
            <source>vegetation_atlas_2048_png-surface</source>
          </sampler2D>
        </newparam>
        <technique sid="common">
          <lambert>
            <emission>
              <color sid="emission">0 0 0 1</color>
            </emission>
            <diffuse>
              <texture texture="vegetation_atlas_2048_png-sampler" texcoord="UVMap"/>
            </diffuse>
            <index_of_refraction>
              <float sid="ior">1.5</float>
            </index_of_refraction>
          </lambert>
        </technique>
      </profile_COMMON>
    </effect>
    <effect id="Colmesh_Material-effect">
      <profile_COMMON>
        <technique sid="common">
          <lambert>
            <emission>
              <color sid="emission">0 0 0 1</color>
            </emission>
            <diffuse>
              <color sid="diffuse">1 0 1 1</color>
            </diffuse>
            <transparent opaque="A_ONE">
              <color sid="alpha">0 0 0 0.15</color>
            </transparent>
            <index_of_refraction>
              <float sid="ior">1.5</float>
            </index_of_refraction>
          </lambert>
        </technique>
      </profile_COMMON>
    </effect>
  </library_effects>
  <library_images>
    <image id="vegetation_atlas_2048_png" name="vegetation_atlas_2048_png">
      <init_from>vegetation_atlas_2048.png</init_from>
    </image>
  </library_images>
  <library_materials>
    <material id="ParkerVegAtlas-material" name="ParkerVegAtlas">
      <instance_effect url="#ParkerVegAtlas-effect"/>
    </material>
    <material id="Colmesh_Material-material" name="Colmesh_Material">
      <instance_effect url="#Colmesh_Material-effect"/>
    </material>
  </library_materials>
  <library_geometries>
    <geometry id="creosote_med_a50-mesh" name="creosote_med_a50">
      <mesh>
        <source id="creosote_med_a50-mesh-positions">
          <float_array id="creosote_med_a50-mesh-positions-array" count="24">-0.6489151 0 -0.01560407 0.6489151 0 -0.01560407 0.6489151 0 1.576012 -0.6489151 0 1.576012 0 -0.6489151 -0.01560407 0 0.6489151 -0.01560407 0 0.6489151 1.576012 0 -0.6489151 1.576012</float_array>
          <technique_common>
            <accessor source="#creosote_med_a50-mesh-positions-array" count="8" stride="3">
              <param name="X" type="float"/>
              <param name="Y" type="float"/>
              <param name="Z" type="float"/>
            </accessor>
          </technique_common>
        </source>
        <source id="creosote_med_a50-mesh-normals">
          <float_array id="creosote_med_a50-mesh-normals-array" count="12">0 -1 0 1 0 0 0 -1 0 1 0 0</float_array>
          <technique_common>
            <accessor source="#creosote_med_a50-mesh-normals-array" count="4" stride="3">
              <param name="X" type="float"/>
              <param name="Y" type="float"/>
              <param name="Z" type="float"/>
            </accessor>
          </technique_common>
        </source>
        <source id="creosote_med_a50-mesh-map-0">
          <float_array id="creosote_med_a50-mesh-map-0-array" count="24">1 0 0 1 0 0 1 0 0 1 0 0 1 0 1 1 0 1 1 0 1 1 0 1</float_array>
          <technique_common>
            <accessor source="#creosote_med_a50-mesh-map-0-array" count="12" stride="2">
              <param name="S" type="float"/>
              <param name="T" type="float"/>
            </accessor>
          </technique_common>
        </source>
        <vertices id="creosote_med_a50-mesh-vertices">
          <input semantic="POSITION" source="#creosote_med_a50-mesh-positions"/>
        </vertices>
        <triangles material="ParkerVegAtlas-material" count="4">
          <input semantic="VERTEX" source="#creosote_med_a50-mesh-vertices" offset="0"/>
          <input semantic="NORMAL" source="#creosote_med_a50-mesh-normals" offset="1"/>
          <input semantic="TEXCOORD" source="#creosote_med_a50-mesh-map-0" offset="2" set="0"/>
          <p>1 0 0 3 0 1 0 0 2 5 1 3 7 1 4 4 1 5 1 2 6 2 2 7 3 2 8 5 3 9 6 3 10 7 3 11</p>
        </triangles>
      </mesh>
    </geometry>
    <geometry id="creosote_med_a200-mesh" name="creosote_med_a200">
      <mesh>
        <source id="creosote_med_a200-mesh-positions">
          <float_array id="creosote_med_a200-mesh-positions-array" count="120">0.04274177 0.02503752 0 -0.04274177 -0.02503752 0 0.0257622 -0.03445339 0.49 -0.03012931 0.03851556 0.49 0.2331163 -0.3523101 0.1087588 0.09135627 0.4124556 0.1087588 0.2331163 -0.3523101 1.063823 0.09135633 0.4124556 1.063823 0.4320399 -0.2882838 0.4422997 -0.1711603 0.4903776 0.4422997 0.4320399 -0.2882838 1.189388 -0.1711603 0.4903776 1.189388 0.5111261 0.2473183 0.7524419 -0.562339 0.07868349 0.7524419 0.5111261 0.2473183 1.491187 -0.562339 0.07868355 1.491187 0.2163584 0.4780018 0.1519175 -0.4589506 -0.2542853 0.1519175 0.2163584 0.4780018 1.083163 -0.4589506 -0.2542853 1.083163 -0.2085332 0.514869 0.4270393 -0.1203238 -0.5423085 0.4270393 -0.2085333 0.514869 1.251813 -0.1203239 -0.5423085 1.251813 -0.467389 0.290907 0.7377789 0.2170587 -0.5059298 0.7377789 -0.467389 0.290907 1.560408 0.2170587 -0.5059298 1.560408 -0.506516 -0.2572234 0.1610919 0.5640352 -0.067725 0.1610919 -0.506516 -0.2572235 0.9784626 0.5640352 -0.06772506 0.9784626 -0.1519094 -0.4324612 0.4376924 0.4030178 0.2183477 0.4376924 -0.1519093 -0.4324612 1.379407 0.4030178 0.2183477 1.379407 -0.3240463 -0.6071494 0.9218845 0.6180143 -0.3028113 0.9218845 -0.6180143 0.3028113 1.178115 0.3240463 0.6071494 1.178115</float_array>
          <technique_common>
            <accessor source="#creosote_med_a200-mesh-positions-array" count="40" stride="3">
              <param name="X" type="float"/>
              <param name="Y" type="float"/>
              <param name="Z" type="float"/>
            </accessor>
          </technique_common>
        </source>
        <source id="creosote_med_a200-mesh-normals">
          <float_array id="creosote_med_a200-mesh-normals-array" count="66">0.5035368 -0.859591 -0.08691442 -0.5029954 0.8586668 -0.0984224 0.7898307 0.6049817 0.1008203 0.9832504 0.1822592 0 -0.7899903 -0.6051039 0.09881621 0.790544 0.6124053 0 -0.1551906 0.9878845 0 -0.7351278 0.6779286 0 -0.9965372 -0.08314961 0 -0.7585766 -0.6515839 0 0.1743005 -0.9846925 0 0.7609347 -0.6488285 0 0.07956409 -0.246286 0.9659258 0.9832504 0.1822592 0 0.790544 0.6124053 0 -0.1551906 0.9878845 0 -0.7351278 0.6779286 0 -0.9965372 -0.08314961 0 -0.7585766 -0.6515839 0 0.1743005 -0.9846925 0 0.7609347 -0.6488285 0 0.07956409 -0.246286 0.9659259</float_array>
          <technique_common>
            <accessor source="#creosote_med_a200-mesh-normals-array" count="22" stride="3">
              <param name="X" type="float"/>
              <param name="Y" type="float"/>
              <param name="Z" type="float"/>
            </accessor>
          </technique_common>
        </source>
        <source id="creosote_med_a200-mesh-map-0">
          <float_array id="creosote_med_a200-mesh-map-0-array" count="132">0.75 0.8563247 0.5 1 0.5 0.75 0.75 0.9038462 0.5 1 0.5 0.75 0.75 0.75 0.75 1 0.5 0.8461538 0.75 0.75 1 1 0.75 1 0.75 0.75 0.75 1 0.5 0.8649862 0.75 0.75 1 1 0.75 1 0.75 0.75 1 1 0.75 1 0.75 1 1 0.75 1 1 0.75 0.75 1 1 0.75 1 0.75 0.75 1 1 0.75 1 0.75 0.75 1 1 0.75 1 0.75 1 1 0.75 1 1 0.75 1 1 0.75 1 1 0.75 0.75 1 0.75 1 1 0.75 0.75 1 0.75 1 1 0.75 0.75 1 0.75 1 1 0.75 1 0.75 0.75 1 0.75 0.75 0.75 1 0.75 1 1 0.75 0.75 1 0.75 1 1 0.75 0.75 1 0.75 1 1 0.75 1 0.75 0.75 1 0.75 0.75 1 0.75 0.75 1 0.75</float_array>
          <technique_common>
            <accessor source="#creosote_med_a200-mesh-map-0-array" count="66" stride="2">
              <param name="S" type="float"/>
              <param name="T" type="float"/>
            </accessor>
          </technique_common>
        </source>
        <vertices id="creosote_med_a200-mesh-vertices">
          <input semantic="POSITION" source="#creosote_med_a200-mesh-positions"/>
        </vertices>
        <triangles material="ParkerVegAtlas-material" count="22">
          <input semantic="VERTEX" source="#creosote_med_a200-mesh-vertices" offset="0"/>
          <input semantic="NORMAL" source="#creosote_med_a200-mesh-normals" offset="1"/>
          <input semantic="TEXCOORD" source="#creosote_med_a200-mesh-map-0" offset="2" set="0"/>
          <p>2 0 0 1 0 1 0 0 2 3 1 3 0 1 4 1 1 5 3 2 6 2 2 7 0 2 8 4 3 9 7 3 10 6 3 11 2 4 12 3 4 13 1 4 14 8 5 15 11 5 16 10 5 17 12 6 18 15 6 19 14 6 20 18 7 21 17 7 22 19 7 23 20 8 24 23 8 25 22 8 26 24 9 27 27 9 28 26 9 29 28 10 30 31 10 31 30 10 32 34 11 33 33 11 34 35 11 35 38 12 36 37 12 37 39 12 38 4 13 39 5 13 40 7 13 41 8 14 42 9 14 43 11 14 44 12 15 45 13 15 46 15 15 47 18 16 48 16 16 49 17 16 50 20 17 51 21 17 52 23 17 53 24 18 54 25 18 55 27 18 56 28 19 57 29 19 58 31 19 59 34 20 60 32 20 61 33 20 62 38 21 63 36 21 64 37 21 65</p>
        </triangles>
      </mesh>
    </geometry>
    <geometry id="Colmesh_bush-1-mesh" name="Colmesh_bush-1">
      <mesh>
        <source id="Colmesh_bush-1-mesh-positions">
          <float_array id="Colmesh_bush-1-mesh-positions-array" count="48">0 0.385 0 0 0.385 1.19 0.2722361 0.2722361 0 0.2722361 0.2722361 1.19 0.385 0 0 0.385 0 1.19 0.2722361 -0.2722361 0 0.2722361 -0.2722361 1.19 0 -0.385 0 0 -0.385 1.19 -0.2722361 -0.2722361 0 -0.2722361 -0.2722361 1.19 -0.385 0 0 -0.385 0 1.19 -0.2722361 0.2722361 0 -0.2722361 0.2722361 1.19</float_array>
          <technique_common>
            <accessor source="#Colmesh_bush-1-mesh-positions-array" count="16" stride="3">
              <param name="X" type="float"/>
              <param name="Y" type="float"/>
              <param name="Z" type="float"/>
            </accessor>
          </technique_common>
        </source>
        <source id="Colmesh_bush-1-mesh-normals">
          <float_array id="Colmesh_bush-1-mesh-normals-array" count="84">0.3826834 0.9238796 0 0.9238796 0.3826834 0 0.9238796 -0.3826834 0 0.3826834 -0.9238796 0 -0.3826834 -0.9238796 0 -0.9238796 -0.3826834 0 0 0 1 -0.9238796 0.3826834 0 -0.3826834 0.9238796 0 0 0 -1 0.3826834 0.9238796 0 0.9238796 0.3826834 0 0.9238796 -0.3826834 0 0.3826834 -0.9238796 0 -0.3826834 -0.9238796 0 -0.9238796 -0.3826834 0 0 0 1 0 0 1 0 0 1 0 0 1 0 0 1 -0.9238796 0.3826834 0 -0.3826834 0.9238796 0 0 0 -1 0 0 -1 0 0 -1 0 0 -1 0 0 -1</float_array>
          <technique_common>
            <accessor source="#Colmesh_bush-1-mesh-normals-array" count="28" stride="3">
              <param name="X" type="float"/>
              <param name="Y" type="float"/>
              <param name="Z" type="float"/>
            </accessor>
          </technique_common>
        </source>
        <source id="Colmesh_bush-1-mesh-map-0">
          <float_array id="Colmesh_bush-1-mesh-map-0-array" count="168">1 1 0.875 0.5 1 0.5 0.875 1 0.75 0.5 0.875 0.5 0.75 1 0.625 0.5 0.75 0.5 0.625 1 0.5 0.5 0.625 0.5 0.5 1 0.375 0.5 0.5 0.5 0.375 1 0.25 0.5 0.375 0.5 0.00999999 0.25 0.25 0.00999999 0.49 0.25 0.25 1 0.125 0.5 0.25 0.5 0.125 1 0 0.5 0.125 0.5 0.9197056 0.08029437 0.5802944 0.08029437 0.5802944 0.4197056 1 1 0.875 1 0.875 0.5 0.875 1 0.75 1 0.75 0.5 0.75 1 0.625 1 0.625 0.5 0.625 1 0.5 1 0.5 0.5 0.5 1 0.375 1 0.375 0.5 0.375 1 0.25 1 0.25 0.5 0.49 0.25 0.4197056 0.4197056 0.25 0.49 0.25 0.49 0.08029437 0.4197056 0.00999999 0.25 0.00999999 0.25 0.08029437 0.08029437 0.25 0.00999999 0.25 0.00999999 0.4197056 0.08029437 0.49 0.25 0.49 0.25 0.25 0.49 0.00999999 0.25 0.25 1 0.125 1 0.125 0.5 0.125 1 0 1 0 0.5 0.5802944 0.4197056 0.75 0.49 0.9197056 0.4197056 0.9197056 0.4197056 0.99 0.25 0.9197056 0.08029437 0.9197056 0.08029437 0.75 0.00999999 0.5802944 0.08029437 0.5802944 0.08029437 0.51 0.25 0.5802944 0.4197056 0.5802944 0.4197056 0.9197056 0.4197056 0.9197056 0.08029437</float_array>
          <technique_common>
            <accessor source="#Colmesh_bush-1-mesh-map-0-array" count="84" stride="2">
              <param name="S" type="float"/>
              <param name="T" type="float"/>
            </accessor>
          </technique_common>
        </source>
        <vertices id="Colmesh_bush-1-mesh-vertices">
          <input semantic="POSITION" source="#Colmesh_bush-1-mesh-positions"/>
        </vertices>
        <triangles material="Colmesh_Material-material" count="28">
          <input semantic="VERTEX" source="#Colmesh_bush-1-mesh-vertices" offset="0"/>
          <input semantic="NORMAL" source="#Colmesh_bush-1-mesh-normals" offset="1"/>
          <input semantic="TEXCOORD" source="#Colmesh_bush-1-mesh-map-0" offset="2" set="0"/>
          <p>1 0 0 2 0 1 0 0 2 3 1 3 4 1 4 2 1 5 5 2 6 6 2 7 4 2 8 7 3 9 8 3 10 6 3 11 9 4 12 10 4 13 8 4 14 11 5 15 12 5 16 10 5 17 13 6 18 9 6 19 5 6 20 13 7 21 14 7 22 12 7 23 15 8 24 0 8 25 14 8 26 6 9 27 10 9 28 14 9 29 1 10 30 3 10 31 2 10 32 3 11 33 5 11 34 4 11 35 5 12 36 7 12 37 6 12 38 7 13 39 9 13 40 8 13 41 9 14 42 11 14 43 10 14 44 11 15 45 13 15 46 12 15 47 5 16 48 3 16 49 1 16 50 1 17 51 15 17 52 13 17 53 13 18 54 11 18 55 9 18 56 9 19 57 7 19 58 5 19 59 5 20 60 1 20 61 13 20 62 13 21 63 15 21 64 14 21 65 15 22 66 1 22 67 0 22 68 14 23 69 0 23 70 2 23 71 2 24 72 4 24 73 6 24 74 6 25 75 8 25 76 10 25 77 10 26 78 12 26 79 14 26 80 14 27 81 2 27 82 6 27 83</p>
        </triangles>
      </mesh>
    </geometry>
    <geometry id="creosote_med_a800-mesh" name="creosote_med_a800">
      <mesh>
        <source id="creosote_med_a800-mesh-positions">
          <float_array id="creosote_med_a800-mesh-positions-array" count="156">0 0.04399996 0 0 0.04399996 0.49 0.03111267 0.03111267 0 0.03111267 0.03111267 0.49 0.04399996 0 0 0.04399996 0 0.49 0.03111267 -0.03111267 0 0.03111267 -0.03111267 0.49 0 -0.04399996 0 0 -0.04399996 0.49 -0.03111267 -0.03111267 0 -0.03111267 -0.03111267 0.49 -0.04399996 0 0 -0.04399996 0 0.49 -0.03111267 0.03111267 0 -0.03111267 0.03111267 0.49 0.2331163 -0.3523101 0.1087588 0.09135627 0.4124556 0.1087588 0.2331163 -0.3523101 1.063823 0.09135633 0.4124556 1.063823 0.4320399 -0.2882838 0.4422997 -0.1711603 0.4903776 0.4422997 0.4320399 -0.2882838 1.189388 -0.1711603 0.4903776 1.189388 0.5111261 0.2473183 0.7524419 -0.562339 0.07868349 0.7524419 0.5111261 0.2473183 1.491187 -0.562339 0.07868355 1.491187 0.2163584 0.4780018 0.1519175 -0.4589506 -0.2542853 0.1519175 0.2163584 0.4780018 1.083163 -0.4589506 -0.2542853 1.083163 -0.2085332 0.514869 0.4270393 -0.1203238 -0.5423085 0.4270393 -0.2085333 0.514869 1.251813 -0.1203239 -0.5423085 1.251813 -0.467389 0.290907 0.7377789 0.2170587 -0.5059298 0.7377789 -0.467389 0.290907 1.560408 0.2170587 -0.5059298 1.560408 -0.506516 -0.2572234 0.1610919 0.5640352 -0.067725 0.1610919 -0.506516 -0.2572235 0.9784626 0.5640352 -0.06772506 0.9784626 -0.1519094 -0.4324612 0.4376924 0.4030178 0.2183477 0.4376924 -0.1519093 -0.4324612 1.379407 0.4030178 0.2183477 1.379407 -0.3240463 -0.6071494 0.9218845 0.6180143 -0.3028113 0.9218845 -0.6180143 0.3028113 1.178115 0.3240463 0.6071494 1.178115</float_array>
          <technique_common>
            <accessor source="#creosote_med_a800-mesh-positions-array" count="52" stride="3">
              <param name="X" type="float"/>
              <param name="Y" type="float"/>
              <param name="Z" type="float"/>
            </accessor>
          </technique_common>
        </source>
        <source id="creosote_med_a800-mesh-normals">
          <float_array id="creosote_med_a800-mesh-normals-array" count="138">0.3826835 0.9238795 0 0.9238795 0.3826835 0 0.9238795 -0.3826835 0 0.3826835 -0.9238795 0 -0.3826835 -0.9238795 0 -0.9238795 -0.3826835 0 0 0 1 -0.9238795 0.3826835 0 -0.3826835 0.9238795 0 0 0 -1 0.9832504 0.1822592 0 0.790544 0.6124053 0 -0.1551906 0.9878845 0 -0.7351278 0.6779286 0 -0.9965372 -0.08314961 0 -0.7585766 -0.6515839 0 0.1743005 -0.9846925 0 0.7609347 -0.6488285 0 0.07956409 -0.246286 0.9659258 0.3826835 0.9238795 0 0.9238795 0.3826835 0 0.9238795 -0.3826835 0 0.3826835 -0.9238795 0 -0.3826835 -0.9238795 0 -0.9238795 -0.3826835 0 0 0 1 0 0 1 0 0 1 0 0 1 0 0 1 -0.9238795 0.3826835 0 -0.3826835 0.9238795 0 0 0 -1 0 0 -1 0 0 -1 0 0 -1 0 0 -1 0.9832504 0.1822592 0 0.790544 0.6124053 0 -0.1551906 0.9878845 0 -0.7351278 0.6779286 0 -0.9965372 -0.08314961 0 -0.7585766 -0.6515839 0 0.1743005 -0.9846925 0 0.7609347 -0.6488285 0 0.07956409 -0.246286 0.9659259</float_array>
          <technique_common>
            <accessor source="#creosote_med_a800-mesh-normals-array" count="46" stride="3">
              <param name="X" type="float"/>
              <param name="Y" type="float"/>
              <param name="Z" type="float"/>
            </accessor>
          </technique_common>
        </source>
        <source id="creosote_med_a800-mesh-map-0">
          <float_array id="creosote_med_a800-mesh-map-0-array" count="276">0.75 0.75 0.5 1 0.5 0.75 0.75 0.75 0.5 1 0.5 0.75 0.75 0.75 0.5 1 0.5 0.75 0.75 0.75 0.5 1 0.5 0.75 0.75 0.75 0.5 1 0.5 0.75 0.75 0.75 0.5 1 0.5 0.75 0.00999999 0.25 0.25 0.00999999 0.49 0.25 0.75 0.75 0.5 1 0.5 0.75 0.75 0.75 0.5 1 0.5 0.75 0.9197056 0.08029437 0.5802944 0.08029437 0.5802944 0.4197056 0.75 0.75 1 1 0.75 1 1 0.75 0.75 1 0.75 0.75 1 0.75 0.75 1 0.75 0.75 1 0.75 0.75 1 0.75 0.75 1 0.75 0.75 1 0.75 0.75 1 0.75 0.75 1 0.75 0.75 1 0.75 0.75 1 0.75 0.75 1 0.75 0.75 1 0.75 0.75 1 0.75 0.75 1 0.75 0.75 0.75 0.75 0.75 1 0.5 1 0.75 0.75 0.75 1 0.5 1 0.75 0.75 0.75 1 0.5 1 0.75 0.75 0.75 1 0.5 1 0.75 0.75 0.75 1 0.5 1 0.75 0.75 0.75 1 0.5 1 0.49 0.25 0.4197056 0.4197056 0.25 0.49 0.25 0.49 0.08029437 0.4197056 0.00999999 0.25 0.00999999 0.25 0.08029437 0.08029437 0.25 0.00999999 0.25 0.00999999 0.4197056 0.08029437 0.49 0.25 0.49 0.25 0.25 0.49 0.00999999 0.25 0.75 0.75 0.75 1 0.5 1 0.75 0.75 0.75 1 0.5 1 0.5802944 0.4197056 0.75 0.49 0.9197056 0.4197056 0.9197056 0.4197056 0.99 0.25 0.9197056 0.08029437 0.9197056 0.08029437 0.75 0.00999999 0.5802944 0.08029437 0.5802944 0.08029437 0.51 0.25 0.5802944 0.4197056 0.5802944 0.4197056 0.9197056 0.4197056 0.9197056 0.08029437 0.75 0.75 1 0.75 1 1 1 0.75 1 1 0.75 1 1 0.75 1 1 0.75 1 1 0.75 1 1 0.75 1 1 0.75 1 1 0.75 1 1 0.75 1 1 0.75 1 1 0.75 1 1 0.75 1 1 0.75 1 1 0.75 1 1 0.75 1 1 0.75 1</float_array>
          <technique_common>
            <accessor source="#creosote_med_a800-mesh-map-0-array" count="138" stride="2">
              <param name="S" type="float"/>
              <param name="T" type="float"/>
            </accessor>
          </technique_common>
        </source>
        <vertices id="creosote_med_a800-mesh-vertices">
          <input semantic="POSITION" source="#creosote_med_a800-mesh-positions"/>
        </vertices>
        <triangles material="ParkerVegAtlas-material" count="46">
          <input semantic="VERTEX" source="#creosote_med_a800-mesh-vertices" offset="0"/>
          <input semantic="NORMAL" source="#creosote_med_a800-mesh-normals" offset="1"/>
          <input semantic="TEXCOORD" source="#creosote_med_a800-mesh-map-0" offset="2" set="0"/>
          <p>1 0 0 2 0 1 0 0 2 3 1 3 4 1 4 2 1 5 5 2 6 6 2 7 4 2 8 7 3 9 8 3 10 6 3 11 9 4 12 10 4 13 8 4 14 11 5 15 12 5 16 10 5 17 13 6 18 9 6 19 5 6 20 13 7 21 14 7 22 12 7 23 15 8 24 0 8 25 14 8 26 6 9 27 10 9 28 14 9 29 16 10 30 19 10 31 18 10 32 21 11 33 22 11 34 20 11 35 25 12 36 26 12 37 24 12 38 29 13 39 30 13 40 28 13 41 33 14 42 34 14 43 32 14 44 37 15 45 38 15 46 36 15 47 41 16 48 42 16 49 40 16 50 45 17 51 46 17 52 44 17 53 49 18 54 50 18 55 48 18 56 1 19 57 3 19 58 2 19 59 3 20 60 5 20 61 4 20 62 5 21 63 7 21 64 6 21 65 7 22 66 9 22 67 8 22 68 9 23 69 11 23 70 10 23 71 11 24 72 13 24 73 12 24 74 5 25 75 3 25 76 1 25 77 1 26 78 15 26 79 13 26 80 13 27 81 11 27 82 9 27 83 9 28 84 7 28 85 5 28 86 5 29 87 1 29 88 13 29 89 13 30 90 15 30 91 14 30 92 15 31 93 1 31 94 0 31 95 14 32 96 0 32 97 2 32 98 2 33 99 4 33 100 6 33 101 6 34 102 8 34 103 10 34 104 10 35 105 12 35 106 14 35 107 14 36 108 2 36 109 6 36 110 16 37 111 17 37 112 19 37 113 21 38 114 23 38 115 22 38 116 25 39 117 27 39 118 26 39 119 29 40 120 31 40 121 30 40 122 33 41 123 35 41 124 34 41 125 37 42 126 39 42 127 38 42 128 41 43 129 43 43 130 42 43 131 45 44 132 47 44 133 46 44 134 49 45 135 51 45 136 50 45 137</p>
        </triangles>
      </mesh>
    </geometry>
  </library_geometries>
  <library_visual_scenes>
    <visual_scene id="Scene" name="Scene">
      <node id="base00" name="base00" type="NODE">
        <matrix sid="transform">1 0 0 0 0 1 0 0 0 0 1 0 0 0 0 1</matrix>
        <node id="start01" name="start01" type="NODE">
          <matrix sid="transform">1 0 0 0 0 1 0 0 0 0 1 0 0 0 0 1</matrix>
          <node id="creosote_med_a800" name="creosote_med_a800" type="NODE">
            <matrix sid="transform">1 0 0 0 0 1 0 0 0 0 1 0 0 0 0 1</matrix>
            <instance_geometry url="#creosote_med_a800-mesh" name="creosote_med_a800">
              <bind_material>
                <technique_common>
                  <instance_material symbol="ParkerVegAtlas-material" target="#ParkerVegAtlas-material">
                    <bind_vertex_input semantic="UVMap" input_semantic="TEXCOORD" input_set="0"/>
                  </instance_material>
                </technique_common>
              </bind_material>
            </instance_geometry>
          </node>
          <node id="creosote_med_a200" name="creosote_med_a200" type="NODE">
            <matrix sid="transform">1 0 0 0 0 1 0 0 0 0 1 0 0 0 0 1</matrix>
            <instance_geometry url="#creosote_med_a200-mesh" name="creosote_med_a200">
              <bind_material>
                <technique_common>
                  <instance_material symbol="ParkerVegAtlas-material" target="#ParkerVegAtlas-material">
                    <bind_vertex_input semantic="UVMap" input_semantic="TEXCOORD" input_set="0"/>
                  </instance_material>
                </technique_common>
              </bind_material>
            </instance_geometry>
          </node>
          <node id="creosote_med_a50" name="creosote_med_a50" type="NODE">
            <matrix sid="transform">1 0 0 0 0 1 0 0 0 0 1 0 0 0 0 1</matrix>
            <instance_geometry url="#creosote_med_a50-mesh" name="creosote_med_a50">
              <bind_material>
                <technique_common>
                  <instance_material symbol="ParkerVegAtlas-material" target="#ParkerVegAtlas-material">
                    <bind_vertex_input semantic="UVMap" input_semantic="TEXCOORD" input_set="0"/>
                  </instance_material>
                </technique_common>
              </bind_material>
            </instance_geometry>
          </node>
          <node id="nulldetail20" name="nulldetail20" type="NODE">
            <matrix sid="transform">1 0 0 0 0 1 0 0 0 0 1 0 0 0 0 1</matrix>
          </node>
        </node>
        <node id="collision-1" name="collision-1" type="NODE">
          <matrix sid="transform">1 0 0 0 0 1 0 0 0 0 1 0 0 0 0 1</matrix>
          <node id="Colmesh_bush-1" name="Colmesh_bush-1" type="NODE">
            <matrix sid="transform">1 0 0 0 0 1 0 0 0 0 1 0 0 0 0 1</matrix>
            <instance_geometry url="#Colmesh_bush-1-mesh" name="Colmesh_bush-1">
              <bind_material>
                <technique_common>
                  <instance_material symbol="Colmesh_Material-material" target="#Colmesh_Material-material">
                    <bind_vertex_input semantic="UVMap" input_semantic="TEXCOORD" input_set="0"/>
                  </instance_material>
                </technique_common>
              </bind_material>
            </instance_geometry>
          </node>
        </node>
      </node>
    </visual_scene>
  </library_visual_scenes>
  <scene>
    <instance_visual_scene url="#Scene"/>
  </scene>
</COLLADA>