<?xml version="1.0" encoding="utf-8"?>
<COLLADA xmlns="http://www.collada.org/2005/11/COLLADASchema" version="1.4.1" xmlns:xsi="http://www.w3.org/2001/XMLSchema-instance">
  <asset>
    <contributor>
      <author>Blender User</author>
      <authoring_tool>Blender 4.2.9 LTS commit date:2025-04-14, commit time:12:24, hash:a10f621e649a</authoring_tool>
    </contributor>
    <created>2026-08-01T08:09:21</created>
    <modified>2026-08-01T08:09:21</modified>
    <unit name="meter" meter="1"/>
    <up_axis>Z_UP</up_axis>
  </asset>
  <library_effects>
    <effect id="ParkerVegBark-effect">
      <profile_COMMON>
        <newparam sid="vegetation_atlas_2048_png-surface">
          <surface type="2D">
            <init_from>vegetation_atlas_2048_png</init_from>
          </surface>
        </newparam>
        <newparam sid="vegetation_atlas_2048_png-sampler">
          <sampler2D>
            <source>vegetation_atlas_2048_png-surface</source>
          </sampler2D>
        </newparam>
        <technique sid="common">
          <lambert>
            <emission>
              <color sid="emission">0 0 0 1</color>
            </emission>
            <diffuse>
              <texture texture="vegetation_atlas_2048_png-sampler" texcoord="UVMap"/>
            </diffuse>
            <index_of_refraction>
              <float sid="ior">1.5</float>
            </index_of_refraction>
          </lambert>
        </technique>
      </profile_COMMON>
    </effect>
    <effect id="ParkerVegFoliage-effect">
      <profile_COMMON>
        <newparam sid="vegetation_atlas_2048_png-surface">
          <surface type="2D">
            <init_from>vegetation_atlas_2048_png</init_from>
          </surface>
        </newparam>
        <newparam sid="vegetation_atlas_2048_png-sampler">
          <sampler2D>
            <source>vegetation_atlas_2048_png-surface</source>
          </sampler2D>
        </newparam>
        <technique sid="common">
          <lambert>
            <emission>
              <color sid="emission">0 0 0 1</color>
            </emission>
            <diffuse>
              <texture texture="vegetation_atlas_2048_png-sampler" texcoord="UVMap"/>
            </diffuse>
            <index_of_refraction>
              <float sid="ior">1.5</float>
            </index_of_refraction>
          </lambert>
        </technique>
      </profile_COMMON>
    </effect>
    <effect id="Colmesh_Material-effect">
      <profile_COMMON>
        <technique sid="common">
          <lambert>
            <emission>
              <color sid="emission">0 0 0 1</color>
            </emission>
            <diffuse>
              <color sid="diffuse">1 0 1 1</color>
            </diffuse>
            <transparent opaque="A_ONE">
              <color sid="alpha">0 0 0 0.15</color>
            </transparent>
            <index_of_refraction>
              <float sid="ior">1.5</float>
            </index_of_refraction>
          </lambert>
        </technique>
      </profile_COMMON>
    </effect>
  </library_effects>
  <library_images>
    <image id="vegetation_atlas_2048_png" name="vegetation_atlas_2048_png">
      <init_from>vegetation_atlas_2048.png</init_from>
    </image>
  </library_images>
  <library_materials>
    <material id="ParkerVegBark-material" name="ParkerVegBark">
      <instance_effect url="#ParkerVegBark-effect"/>
    </material>
    <material id="ParkerVegFoliage-material" name="ParkerVegFoliage">
      <instance_effect url="#ParkerVegFoliage-effect"/>
    </material>
    <material id="Colmesh_Material-material" name="Colmesh_Material">
      <instance_effect url="#Colmesh_Material-effect"/>
    </material>
  </library_materials>
  <library_geometries>
    <geometry id="mesquite_med_a50-mesh" name="mesquite_med_a50">
      <mesh>
        <source id="mesquite_med_a50-mesh-positions">
          <float_array id="mesquite_med_a50-mesh-positions-array" count="24">-0.6564 0 -0.04354798 0.7044 0 -0.04354798 0.7044 0 4.398348 -0.6564 0 4.398348 0.02399998 -0.6804 -0.04354798 0.02399998 0.6804 -0.04354798 0.02399998 0.6804 4.398348 0.02399998 -0.6804 4.398348</float_array>
          <technique_common>
            <accessor source="#mesquite_med_a50-mesh-positions-array" count="8" stride="3">
              <param name="X" type="float"/>
              <param name="Y" type="float"/>
              <param name="Z" type="float"/>
            </accessor>
          </technique_common>
        </source>
        <source id="mesquite_med_a50-mesh-normals">
          <float_array id="mesquite_med_a50-mesh-normals-array" count="12">0 -1 0 1 0 0 0 -1 0 1 0 0</float_array>
          <technique_common>
            <accessor source="#mesquite_med_a50-mesh-normals-array" count="4" stride="3">
              <param name="X" type="float"/>
              <param name="Y" type="float"/>
              <param name="Z" type="float"/>
            </accessor>
          </technique_common>
        </source>
        <source id="mesquite_med_a50-mesh-map-0">
          <float_array id="mesquite_med_a50-mesh-map-0-array" count="24">1 0 0 1 0 0 1 0 0 1 0 0 1 0 1 1 0 1 1 0 1 1 0 1</float_array>
          <technique_common>
            <accessor source="#mesquite_med_a50-mesh-map-0-array" count="12" stride="2">
              <param name="S" type="float"/>
              <param name="T" type="float"/>
            </accessor>
          </technique_common>
        </source>
        <vertices id="mesquite_med_a50-mesh-vertices">
          <input semantic="POSITION" source="#mesquite_med_a50-mesh-positions"/>
        </vertices>
        <triangles material="ParkerVegBark-material" count="4">
          <input semantic="VERTEX" source="#mesquite_med_a50-mesh-vertices" offset="0"/>
          <input semantic="NORMAL" source="#mesquite_med_a50-mesh-normals" offset="1"/>
          <input semantic="TEXCOORD" source="#mesquite_med_a50-mesh-map-0" offset="2" set="0"/>
          <p>1 0 0 3 0 1 0 0 2 5 1 3 7 1 4 4 1 5 1 2 6 2 2 7 3 2 8 5 3 9 6 3 10 7 3 11</p>
        </triangles>
      </mesh>
    </geometry>
    <geometry id="mesquite_med_a200-mesh" name="mesquite_med_a200">
      <mesh>
        <source id="mesquite_med_a200-mesh-positions">
          <float_array id="mesquite_med_a200-mesh-positions-array" count="183">0.03797793 0.1479671 0 -0.03797793 0.1479671 2.475 0.1402808 0.04557996 0 0.1289892 0.08184349 2.475 0.1289892 -0.08184349 0 0.1402808 -0.04557996 2.475 -0.03797793 -0.1479671 0 0.03797793 -0.1479671 2.475 -0.1402808 -0.04557996 0 -0.1289892 -0.08184349 2.475 -0.1289892 0.08184349 0 -0.1402808 0.04557996 2.475 -0.4186518 -0.01919621 2.293809 0.01865178 -0.01919621 3.331191 -0.3850648 -0.1307655 2.278147 0.1024812 -0.08531469 3.292101 -0.5040851 -0.09426009 2.333647 0.01865178 -0.1514331 3.331191 -0.0224334 -0.08531463 3.350349 0.46661 0.08050447 2.316172 -0.01865178 0.08499079 3.331191 0.4943864 -0.007024824 2.329125 0.0224334 0.01887238 3.350349 0.4186518 -0.04724603 2.293809 -0.01865178 -0.04724603 3.331191 0.3778688 0.04622769 2.274792 -0.1024812 0.01887243 3.292101 0.1799536 0.1448236 2.260938 0.178483 0.0397877 2.260745 0.04418355 0.1433402 3.377772 0.07143443 0.07199215 2.246652 -0.01342093 0.02643632 3.370188 0.1018202 0.1595215 2.250652 -0.07889741 0.1252447 3.361568 0 0 4.3548 0.432 0 4.038 0.672 0 3.598 0.48 0 3.07 0.12 0 2.718 -0.288 0 2.894 -0.624 0 3.422 -0.528 0 3.95 -0.192 0 4.2492 0 0 4.3548 -0.216 0.374123 4.038 -0.336 0.5819691 3.598 -0.24 0.4156922 3.07 -0.06 0.103923 2.718 0.1439999 -0.2494153 2.894 0.312 -0.5403999 3.422 0.2640001 -0.4572614 3.95 0.09600001 -0.1662768 4.2492 0 0 4.3548 -0.216 -0.374123 4.038 -0.3359999 -0.5819691 3.598 -0.2399999 -0.4156922 3.07 -0.05999994 -0.103923 2.718 0.1439999 0.2494153 2.894 0.3119999 0.5403999 3.422 0.2639999 0.4572615 3.95 0.09599995 0.1662769 4.2492</float_array>
          <technique_common>
            <accessor source="#mesquite_med_a200-mesh-positions-array" count="61" stride="3">
              <param name="X" type="float"/>
              <param name="Y" type="float"/>
              <param name="Z" type="float"/>
            </accessor>
          </technique_common>
        </source>
        <source id="mesquite_med_a200-mesh-normals">
          <float_array id="mesquite_med_a200-mesh-normals-array" count="219">0.7073798 0.7067978 -0.007128655 0.3681809 -0.9296855 -0.01129919 -0.7073798 -0.7067978 -0.007128655 -0.3681809 0.9296855 -0.01129919 0 0 -1 0.8497142 0.3151362 -0.4226998 -0.2580019 -0.9628253 0.08001601 0.9960915 -0.08826804 -0.003251075 -0.5742595 0.7820646 0.2420764 0.399869 -0.9009392 0.1685629 -0.8102298 -0.433713 -0.3942344 0.1818415 0.983049 0.02341157 0.992595 -0.01412039 0.120648 -0.2803124 -0.9580309 -0.06001573 -0.1305257 -8.25891e-7 0.9914449 -0.9331529 0.3304145 -0.1416053 0 1 0 0 1 0 0 1 0 0 1 0 0 1 0 0 1 0 0 1 0 -0.8660254 -0.5 0 -0.8660254 -0.5000001 0 -0.8660254 -0.5 0 -0.8660253 -0.5000001 0 -0.8660254 -0.5000001 0 -0.8660254 -0.5 0 -0.8660254 -0.5000001 0 0.8660255 -0.5 0 0.8660255 -0.5 0 0.8660255 -0.5 0 0.8660255 -0.4999999 0 0.8660255 -0.4999999 0 0.8660255 -0.5 0 0.8660255 -0.4999999 0 0.3681809 0.9296855 0.01129919 -0.9960915 0.08826804 -0.003251075 0.7073798 -0.7067978 0.007128655 -0.3681809 -0.9296855 0.01129919 0 0 1 -0.7073798 0.7067978 0.007128655 0.422617 0 0.9063084 0.5361131 0.8133318 -0.225996 0.537838 -0.8132504 -0.2221579 -0.7434335 -0.5654531 0.3571687 0.7450743 0.5654696 0.3537069 -0.7472674 0.5654788 0.3490345 -0.4226182 -1.19926e-6 -0.9063078 -0.4226184 0 0.9063078 0.743143 -0.5654495 0.3577784 -0.5361132 -0.8133317 -0.225996 -0.5341465 0.8134073 -0.2303393 0.422619 7.35513e-7 -0.9063074 0.1305257 -2.15141e-7 -0.9914449 0.8833824 -0.4448534 0.147448 -0.8271415 -0.5555294 -0.08499509 -0.1463204 0.9892144 0.006719112 0 0 -1 0 0 -1 0 0 -1 0.9960915 0.08826804 0.003251075 -0.9960915 -0.08826804 0.003251075 0 0 1 0 0 1 0 0 1 0.4226185 0 0.9063078 0.8599185 0.3304523 0.3890263 -0.4226171 0 0.9063084 -0.2965079 0.943816 -0.1459265 0.4226176 1.33887e-6 -0.9063081 0.130527 -2.20206e-6 -0.9914448</float_array>
          <technique_common>
            <accessor source="#mesquite_med_a200-mesh-normals-array" count="73" stride="3">
              <param name="X" type="float"/>
              <param name="Y" type="float"/>
              <param name="Z" type="float"/>
            </accessor>
          </technique_common>
        </source>
        <source id="mesquite_med_a200-mesh-map-0">
          <float_array id="mesquite_med_a200-mesh-map-0-array" count="438">0.75 0.9013415 0.5 1 0.5 0.75 0.75 0.9013416 0.5 1 0.5 0.75 0.75 0.9013415 0.5 1 0.5 0.75 0.75 0.9013416 0.5 1 0.5 0.75 0.5217465 0.1758359 0.9782536 0.3241641 0.6943296 0.02808839 0.75 0.9212728 0.5 1 0.5 0.75 0.75 0.8461539 0.5 1 0.5 0.75 0.5 0.75 0.75 1 0.5 1 0.75 0.9038462 0.5 1 0.5 0.75 0.75 0.9038462 0.5 1 0.5 0.75 0.75 0.9212728 0.5 1 0.5 0.75 0.75 0.8750001 0.5 1 0.5 0.75 0.5 0.75 0.75 0.856845 0.5 1 0.5 0.75 0.75 0.828727 0.5 1 0.04514724 0.3348529 0.2546904 0.05621528 0.4011597 0.3673028 0.75 0.8750002 0.5 1 0.5 0.75 0.9338 0.8855 0.917 0.8225 0.9128 0.938 0.917 0.8225 0.8855 0.7805 0.9128 0.938 0.8855 0.7805 0.8498 0.8015 0.9128 0.938 0.8498 0.8015 0.8204 0.8645 0.9128 0.938 0.8204 0.8645 0.8288 0.9275 0.9128 0.938 0.8288 0.9275 0.8582 0.9632 0.9128 0.938 0.8582 0.9632 0.875 0.9758 0.9128 0.938 0.9338 0.8855 0.917 0.8225 0.9128 0.938 0.917 0.8225 0.8855 0.7805 0.9128 0.938 0.8855 0.7805 0.8498 0.8015 0.9128 0.938 0.8498 0.8015 0.8204 0.8645 0.9128 0.938 0.8204 0.8645 0.8288 0.9275 0.9128 0.938 0.8288 0.9275 0.8582 0.9632 0.9128 0.938 0.8582 0.9632 0.875 0.9758 0.9128 0.938 0.9338 0.8855 0.917 0.8225 0.9128 0.938 0.917 0.8225 0.8855 0.7805 0.9128 0.938 0.8855 0.7805 0.8498 0.8015 0.9128 0.938 0.8498 0.8015 0.8204 0.8645 0.9128 0.938 0.8204 0.8645 0.8288 0.9275 0.9128 0.938 0.8288 0.9275 0.8582 0.9632 0.9128 0.938 0.8582 0.9632 0.875 0.9758 0.9128 0.938 0.75 0.75 0.75 1 0.5 0.8486585 0.5 0.75 0.75 1 0.5 1 0.75 0.75 0.75 1 0.5 0.8486585 0.75 0.75 0.75 1 0.5 0.8486585 0.1943296 0.4719116 0.02174639 0.3241641 0.4782536 0.1758359 0.75 0.75 0.75 1 0.5 0.8486585 0.1847286 0.4629637 0.1847286 0.03703629 0.4437845 0.2453095 0.75 0.75 0.75 1 0.5 0.846154 0.5 0.8749998 0.75 0.75 0.75 1 0.5 0.893155 0.75 0.75 0.75 1 0.75 1 0.5 0.75 0.75 0.75 0.75 0.75 0.75 1 0.5 0.875 0.5601684 0.2260596 0.8152715 0.4629637 0.9011595 0.1326971 0.3152714 0.4629637 0.3152713 0.03703624 0.49 0.25 0.75 0.75 0.75 1 0.5 0.875 0.75 0.75 0.75 1 0.5 0.846154 0.75 1 0.5 0.75 0.75 0.75 0.6847285 0.03703635 0.8544343 0.4467419 0.9548528 0.1651471 0.5451472 0.1651471 0.9197056 0.4197056 0.8673028 0.09884035 0.75 0.75 0.75 1 0.5 0.8750001 0.5 0.8749999 0.75 0.75 0.75 1 0.75 0.75 0.75 1 0.5 0.8461539 0.5217465 0.1758359 0.5561527 0.3715202 0.8056704 0.4719116 0.8056704 0.4719116 0.9782536 0.3241641 0.5217465 0.1758359 0.9782536 0.3241641 0.9438473 0.1284798 0.6943296 0.02808839 0.5 0.75 0.75 0.75 0.75 1 0.5 0.75 0.75 0.75 0.75 1 0.05615258 0.1284798 0.3056704 0.02808839 0.02174639 0.3241641 0.3056704 0.02808839 0.4782536 0.1758359 0.02174639 0.3241641 0.4782536 0.1758359 0.4438473 0.3715202 0.1943296 0.4719116 0.1847286 0.4629637 0.00999999 0.25 0.1847286 0.03703629 0.75 1 0.5 1 0.5 0.75 0.3152714 0.4629637 0.05621552 0.2546905 0.3152713 0.03703624 0.75 1 0.5 1 0.5 0.75 0.6847285 0.03703635 0.5451473 0.334853 0.8544343 0.4467419 0.5451472 0.1651471 0.6455658 0.4467419 0.9197056 0.4197056</float_array>
          <technique_common>
            <accessor source="#mesquite_med_a200-mesh-map-0-array" count="219" stride="2">
              <param name="S" type="float"/>
              <param name="T" type="float"/>
            </accessor>
          </technique_common>
        </source>
        <vertices id="mesquite_med_a200-mesh-vertices">
          <input semantic="POSITION" source="#mesquite_med_a200-mesh-positions"/>
        </vertices>
        <triangles material="ParkerVegBark-material" count="52">
          <input semantic="VERTEX" source="#mesquite_med_a200-mesh-vertices" offset="0"/>
          <input semantic="NORMAL" source="#mesquite_med_a200-mesh-normals" offset="1"/>
          <input semantic="TEXCOORD" source="#mesquite_med_a200-mesh-map-0" offset="2" set="0"/>
          <p>3 0 0 2 0 1 0 0 2 7 1 3 6 1 4 4 1 5 9 2 6 8 2 7 6 2 8 1 3 9 0 3 10 10 3 11 8 4 12 2 4 13 6 4 14 15 5 15 14 5 16 12 5 17 17 6 18 16 6 19 14 6 20 2 7 21 5 7 22 4 7 23 13 8 24 12 8 25 16 8 26 24 9 27 23 9 28 21 9 29 26 10 30 25 10 31 23 10 32 29 11 33 27 11 34 32 11 35 27 12 36 29 12 37 28 12 38 28 13 39 31 13 40 30 13 41 33 14 42 31 14 43 29 14 44 33 15 45 32 15 46 30 15 47 1 37 111 3 37 112 0 37 113 8 38 114 11 38 115 10 38 116 5 39 117 7 39 118 4 39 119 7 40 120 9 40 121 6 40 122 1 41 123 11 41 124 5 41 125 11 42 126 1 42 127 10 42 128 13 43 129 17 43 130 15 43 131 13 44 132 15 44 133 12 44 134 14 45 135 15 45 136 17 45 137 16 46 138 17 46 139 18 46 140 22 47 141 19 47 142 20 47 143 18 48 144 13 48 145 16 48 146 16 49 147 12 49 148 14 49 149 20 50 150 24 50 151 22 50 152 22 51 153 24 51 154 21 51 155 24 52 156 26 52 157 23 52 158 20 53 159 25 53 160 26 53 161 23 54 162 19 54 163 21 54 164 30 55 165 27 55 166 28 55 167 29 56 168 31 56 169 28 56 170 30 57 171 31 57 172 33 57 173 33 58 174 29 58 175 32 58 176 8 59 177 10 59 178 0 59 179 0 60 180 2 60 181 8 60 182 2 61 183 4 61 184 6 61 185 2 62 186 3 62 187 5 62 188 8 63 189 9 63 190 11 63 191 9 64 192 7 64 193 11 64 194 7 65 195 5 65 196 11 65 197 5 66 198 3 66 199 1 66 200 13 67 201 18 67 202 17 67 203 22 68 204 21 68 205 19 68 206 20 69 207 26 69 208 24 69 209 20 70 210 19 70 211 25 70 212 23 71 213 25 71 214 19 71 215 30 72 216 32 72 217 27 72 218</p>
        </triangles>
        <triangles material="ParkerVegFoliage-material" count="21">
          <input semantic="VERTEX" source="#mesquite_med_a200-mesh-vertices" offset="0"/>
          <input semantic="NORMAL" source="#mesquite_med_a200-mesh-normals" offset="1"/>
          <input semantic="TEXCOORD" source="#mesquite_med_a200-mesh-map-0" offset="2" set="0"/>
          <p>36 16 48 37 16 49 35 16 50 37 17 51 38 17 52 35 17 53 38 18 54 39 18 55 35 18 56 39 19 57 40 19 58 35 19 59 40 20 60 41 20 61 35 20 62 41 21 63 42 21 64 35 21 65 42 22 66 34 22 67 35 22 68 45 23 69 46 23 70 44 23 71 46 24 72 47 24 73 44 24 74 47 25 75 48 25 76 44 25 77 48 26 78 49 26 79 44 26 80 49 27 81 50 27 82 44 27 83 50 28 84 51 28 85 44 28 86 51 29 87 43 29 88 44 29 89 54 30 90 55 30 91 53 30 92 55 31 93 56 31 94 53 31 95 56 32 96 57 32 97 53 32 98 57 33 99 58 33 100 53 33 101 58 34 102 59 34 103 53 34 104 59 35 105 60 35 106 53 35 107 60 36 108 52 36 109 53 36 110</p>
        </triangles>
      </mesh>
    </geometry>
    <geometry id="Colmesh_canopy-1-mesh" name="Colmesh_canopy-1">
      <mesh>
        <source id="Colmesh_canopy-1-mesh-positions">
          <float_array id="Colmesh_canopy-1-mesh-positions-array" count="48">0 1.12 2.7225 0 1.12 4.2975 0.7919596 0.7919596 2.7225 0.7919596 0.7919596 4.2975 1.12 0 2.7225 1.12 0 4.2975 0.7919596 -0.7919596 2.7225 0.7919596 -0.7919596 4.2975 0 -1.12 2.7225 0 -1.12 4.2975 -0.7919596 -0.7919596 2.7225 -0.7919596 -0.7919596 4.2975 -1.12 0 2.7225 -1.12 0 4.2975 -0.7919596 0.7919596 2.7225 -0.7919596 0.7919596 4.2975</float_array>
          <technique_common>
            <accessor source="#Colmesh_canopy-1-mesh-positions-array" count="16" stride="3">
              <param name="X" type="float"/>
              <param name="Y" type="float"/>
              <param name="Z" type="float"/>
            </accessor>
          </technique_common>
        </source>
        <source id="Colmesh_canopy-1-mesh-normals">
          <float_array id="Colmesh_canopy-1-mesh-normals-array" count="84">0.3826834 0.9238796 0 0.9238796 0.3826834 0 0.9238796 -0.3826834 0 0.3826834 -0.9238796 0 -0.3826834 -0.9238796 0 -0.9238796 -0.3826834 0 0 0 1 -0.9238796 0.3826834 0 -0.3826834 0.9238796 0 0 0 -1 0.3826834 0.9238796 0 0.9238796 0.3826834 0 0.9238796 -0.3826834 0 0.3826834 -0.9238796 0 -0.3826834 -0.9238796 0 -0.9238796 -0.3826834 0 0 0 1 0 0 1 0 0 1 0 0 1 0 0 1 -0.9238796 0.3826834 0 -0.3826834 0.9238796 0 0 0 -1 0 0 -1 0 0 -1 0 0 -1 0 0 -1</float_array>
          <technique_common>
            <accessor source="#Colmesh_canopy-1-mesh-normals-array" count="28" stride="3">
              <param name="X" type="float"/>
              <param name="Y" type="float"/>
              <param name="Z" type="float"/>
            </accessor>
          </technique_common>
        </source>
        <source id="Colmesh_canopy-1-mesh-map-0">
          <float_array id="Colmesh_canopy-1-mesh-map-0-array" count="168">1 1 0.875 0.5 1 0.5 0.875 1 0.75 0.5 0.875 0.5 0.75 1 0.625 0.5 0.75 0.5 0.625 1 0.5 0.5 0.625 0.5 0.5 1 0.375 0.5 0.5 0.5 0.375 1 0.25 0.5 0.375 0.5 0.00999999 0.25 0.25 0.00999999 0.49 0.25 0.25 1 0.125 0.5 0.25 0.5 0.125 1 0 0.5 0.125 0.5 0.9197056 0.08029437 0.5802944 0.08029437 0.5802944 0.4197056 1 1 0.875 1 0.875 0.5 0.875 1 0.75 1 0.75 0.5 0.75 1 0.625 1 0.625 0.5 0.625 1 0.5 1 0.5 0.5 0.5 1 0.375 1 0.375 0.5 0.375 1 0.25 1 0.25 0.5 0.49 0.25 0.4197056 0.4197056 0.25 0.49 0.25 0.49 0.08029437 0.4197056 0.00999999 0.25 0.00999999 0.25 0.08029437 0.08029437 0.25 0.00999999 0.25 0.00999999 0.4197056 0.08029437 0.49 0.25 0.49 0.25 0.25 0.49 0.00999999 0.25 0.25 1 0.125 1 0.125 0.5 0.125 1 0 1 0 0.5 0.5802944 0.4197056 0.75 0.49 0.9197056 0.4197056 0.9197056 0.4197056 0.99 0.25 0.9197056 0.08029437 0.9197056 0.08029437 0.75 0.00999999 0.5802944 0.08029437 0.5802944 0.08029437 0.51 0.25 0.5802944 0.4197056 0.5802944 0.4197056 0.9197056 0.4197056 0.9197056 0.08029437</float_array>
          <technique_common>
            <accessor source="#Colmesh_canopy-1-mesh-map-0-array" count="84" stride="2">
              <param name="S" type="float"/>
              <param name="T" type="float"/>
            </accessor>
          </technique_common>
        </source>
        <vertices id="Colmesh_canopy-1-mesh-vertices">
          <input semantic="POSITION" source="#Colmesh_canopy-1-mesh-positions"/>
        </vertices>
        <triangles material="Colmesh_Material-material" count="28">
          <input semantic="VERTEX" source="#Colmesh_canopy-1-mesh-vertices" offset="0"/>
          <input semantic="NORMAL" source="#Colmesh_canopy-1-mesh-normals" offset="1"/>
          <input semantic="TEXCOORD" source="#Colmesh_canopy-1-mesh-map-0" offset="2" set="0"/>
          <p>1 0 0 2 0 1 0 0 2 3 1 3 4 1 4 2 1 5 5 2 6 6 2 7 4 2 8 7 3 9 8 3 10 6 3 11 9 4 12 10 4 13 8 4 14 11 5 15 12 5 16 10 5 17 13 6 18 9 6 19 5 6 20 13 7 21 14 7 22 12 7 23 15 8 24 0 8 25 14 8 26 6 9 27 10 9 28 14 9 29 1 10 30 3 10 31 2 10 32 3 11 33 5 11 34 4 11 35 5 12 36 7 12 37 6 12 38 7 13 39 9 13 40 8 13 41 9 14 42 11 14 43 10 14 44 11 15 45 13 15 46 12 15 47 5 16 48 3 16 49 1 16 50 1 17 51 15 17 52 13 17 53 13 18 54 11 18 55 9 18 56 9 19 57 7 19 58 5 19 59 5 20 60 1 20 61 13 20 62 13 21 63 15 21 64 14 21 65 15 22 66 1 22 67 0 22 68 14 23 69 0 23 70 2 23 71 2 24 72 4 24 73 6 24 74 6 25 75 8 25 76 10 25 77 10 26 78 12 26 79 14 26 80 14 27 81 2 27 82 6 27 83</p>
        </triangles>
      </mesh>
    </geometry>
    <geometry id="Colmesh_trunk-1-mesh" name="Colmesh_trunk-1">
      <mesh>
        <source id="Colmesh_trunk-1-mesh-positions">
          <float_array id="Colmesh_trunk-1-mesh-positions-array" count="48">0 0.19175 0 0 0.19175 2.475 0.1355877 0.1355877 0 0.1355877 0.1355877 2.475 0.19175 0 0 0.19175 0 2.475 0.1355877 -0.1355877 0 0.1355877 -0.1355877 2.475 0 -0.19175 0 0 -0.19175 2.475 -0.1355877 -0.1355877 0 -0.1355877 -0.1355877 2.475 -0.19175 0 0 -0.19175 0 2.475 -0.1355877 0.1355877 0 -0.1355877 0.1355877 2.475</float_array>
          <technique_common>
            <accessor source="#Colmesh_trunk-1-mesh-positions-array" count="16" stride="3">
              <param name="X" type="float"/>
              <param name="Y" type="float"/>
              <param name="Z" type="float"/>
            </accessor>
          </technique_common>
        </source>
        <source id="Colmesh_trunk-1-mesh-normals">
          <float_array id="Colmesh_trunk-1-mesh-normals-array" count="84">0.3826835 0.9238796 0 0.9238796 0.3826835 0 0.9238796 -0.3826835 0 0.3826835 -0.9238796 0 -0.3826835 -0.9238796 0 -0.9238796 -0.3826835 0 0 0 1 -0.9238796 0.3826835 0 -0.3826835 0.9238796 0 0 0 -1 0.3826835 0.9238796 0 0.9238796 0.3826835 0 0.9238796 -0.3826835 0 0.3826835 -0.9238796 0 -0.3826835 -0.9238796 0 -0.9238796 -0.3826835 0 0 0 1 0 0 1 0 0 1 0 0 1 0 0 1 -0.9238796 0.3826835 0 -0.3826835 0.9238796 0 0 0 -1 0 0 -1 0 0 -1 0 0 -1 0 0 -1</float_array>
          <technique_common>
            <accessor source="#Colmesh_trunk-1-mesh-normals-array" count="28" stride="3">
              <param name="X" type="float"/>
              <param name="Y" type="float"/>
              <param name="Z" type="float"/>
            </accessor>
          </technique_common>
        </source>
        <source id="Colmesh_trunk-1-mesh-map-0">
          <float_array id="Colmesh_trunk-1-mesh-map-0-array" count="168">1 1 0.875 0.5 1 0.5 0.875 1 0.75 0.5 0.875 0.5 0.75 1 0.625 0.5 0.75 0.5 0.625 1 0.5 0.5 0.625 0.5 0.5 1 0.375 0.5 0.5 0.5 0.375 1 0.25 0.5 0.375 0.5 0.00999999 0.25 0.25 0.00999999 0.49 0.25 0.25 1 0.125 0.5 0.25 0.5 0.125 1 0 0.5 0.125 0.5 0.9197056 0.08029437 0.5802944 0.08029437 0.5802944 0.4197056 1 1 0.875 1 0.875 0.5 0.875 1 0.75 1 0.75 0.5 0.75 1 0.625 1 0.625 0.5 0.625 1 0.5 1 0.5 0.5 0.5 1 0.375 1 0.375 0.5 0.375 1 0.25 1 0.25 0.5 0.49 0.25 0.4197056 0.4197056 0.25 0.49 0.25 0.49 0.08029437 0.4197056 0.00999999 0.25 0.00999999 0.25 0.08029437 0.08029437 0.25 0.00999999 0.25 0.00999999 0.4197056 0.08029437 0.49 0.25 0.49 0.25 0.25 0.49 0.00999999 0.25 0.25 1 0.125 1 0.125 0.5 0.125 1 0 1 0 0.5 0.5802944 0.4197056 0.75 0.49 0.9197056 0.4197056 0.9197056 0.4197056 0.99 0.25 0.9197056 0.08029437 0.9197056 0.08029437 0.75 0.00999999 0.5802944 0.08029437 0.5802944 0.08029437 0.51 0.25 0.5802944 0.4197056 0.5802944 0.4197056 0.9197056 0.4197056 0.9197056 0.08029437</float_array>
          <technique_common>
            <accessor source="#Colmesh_trunk-1-mesh-map-0-array" count="84" stride="2">
              <param name="S" type="float"/>
              <param name="T" type="float"/>
            </accessor>
          </technique_common>
        </source>
        <vertices id="Colmesh_trunk-1-mesh-vertices">
          <input semantic="POSITION" source="#Colmesh_trunk-1-mesh-positions"/>
        </vertices>
        <triangles material="Colmesh_Material-material" count="28">
          <input semantic="VERTEX" source="#Colmesh_trunk-1-mesh-vertices" offset="0"/>
          <input semantic="NORMAL" source="#Colmesh_trunk-1-mesh-normals" offset="1"/>
          <input semantic="TEXCOORD" source="#Colmesh_trunk-1-mesh-map-0" offset="2" set="0"/>
          <p>1 0 0 2 0 1 0 0 2 3 1 3 4 1 4 2 1 5 5 2 6 6 2 7 4 2 8 7 3 9 8 3 10 6 3 11 9 4 12 10 4 13 8 4 14 11 5 15 12 5 16 10 5 17 13 6 18 9 6 19 5 6 20 13 7 21 14 7 22 12 7 23 15 8 24 0 8 25 14 8 26 6 9 27 10 9 28 14 9 29 1 10 30 3 10 31 2 10 32 3 11 33 5 11 34 4 11 35 5 12 36 7 12 37 6 12 38 7 13 39 9 13 40 8 13 41 9 14 42 11 14 43 10 14 44 11 15 45 13 15 46 12 15 47 5 16 48 3 16 49 1 16 50 1 17 51 15 17 52 13 17 53 13 18 54 11 18 55 9 18 56 9 19 57 7 19 58 5 19 59 5 20 60 1 20 61 13 20 62 13 21 63 15 21 64 14 21 65 15 22 66 1 22 67 0 22 68 14 23 69 0 23 70 2 23 71 2 24 72 4 24 73 6 24 74 6 25 75 8 25 76 10 25 77 10 26 78 12 26 79 14 26 80 14 27 81 2 27 82 6 27 83</p>
        </triangles>
      </mesh>
    </geometry>
    <geometry id="mesquite_med_a800-mesh" name="mesquite_med_a800">
      <mesh>
        <source id="mesquite_med_a800-mesh-positions">
          <float_array id="mesquite_med_a800-mesh-positions-array" count="294">0 0.1475 0 0 0.1475 2.475 0.08669829 0.11933 0 0.08669829 0.11933 2.475 0.1402808 0.04557996 0 0.1402808 0.04557996 2.475 0.1402808 -0.04557996 0 0.1402808 -0.04557996 2.475 0.08669829 -0.11933 0 0.08669829 -0.11933 2.475 0 -0.1475 0 0 -0.1475 2.475 -0.08669829 -0.11933 0 -0.08669829 -0.11933 2.475 -0.1402808 -0.04557996 0 -0.1402808 -0.04557996 2.475 -0.1402808 0.04557996 0 -0.1402808 0.04557996 2.475 -0.08669829 0.11933 0 -0.08669829 0.11933 2.475 -0.4377228 -0.01893961 2.302702 0.03772276 -0.01893961 3.322298 -0.395186 -0.03838044 2.282867 0.08025962 -0.03838044 3.302463 -0.3775666 -0.08531463 2.274651 0.09787893 -0.08531463 3.294247 -0.395186 -0.1322488 2.282867 0.08025962 -0.1322488 3.302463 -0.4377228 -0.1516897 2.302702 0.03772276 -0.1516897 3.322298 -0.4802597 -0.1322488 2.322537 -0.004814028 -0.1322488 3.342133 -0.497879 -0.08531463 2.330753 -0.0224334 -0.08531463 3.350349 -0.4802597 -0.03838044 2.322537 -0.004814028 -0.03838044 3.342133 0.4377228 0.08524739 2.302702 -0.03772276 0.08524739 3.322298 0.4802597 0.06580656 2.322537 0.004814028 0.06580656 3.342133 0.497879 0.01887238 2.330753 0.0224334 0.01887238 3.350349 0.4802597 -0.0280618 2.322537 0.004814028 -0.0280618 3.342133 0.4377228 -0.04750257 2.302702 -0.03772276 -0.04750257 3.322298 0.395186 -0.0280618 2.282867 -0.08025962 -0.0280618 3.302463 0.3775666 0.01887238 2.274651 -0.09787893 0.01887238 3.294247 0.395186 0.06580656 2.282867 -0.08025962 0.06580656 3.302463 0.133421 0.1642644 2.254812 -0.01342093 0.1642644 3.370188 0.1799536 0.1448236 2.260938 0.03311169 0.1448236 3.376314 0.1992281 0.09788936 2.263476 0.05238616 0.09788936 3.378851 0.1799536 0.05095517 2.260938 0.03311169 0.05095517 3.376314 0.133421 0.03151434 2.254812 -0.01342093 0.03151434 3.370188 0.08688825 0.05095517 2.248686 -0.05995362 0.05095517 3.364062 0.06761378 0.09788936 2.246149 -0.0792281 0.09788936 3.361524 0.08688825 0.1448236 2.248686 -0.05995362 0.1448236 3.364062 0 0 4.3548 0.432 0 4.038 0.672 0 3.598 0.48 0 3.07 0.12 0 2.718 -0.288 0 2.894 -0.624 0 3.422 -0.528 0 3.95 -0.192 0 4.2492 0.007999956 0 3.588222 0 0 4.3548 -0.216 0.374123 4.038 -0.336 0.5819691 3.598 -0.24 0.4156922 3.07 -0.06 0.103923 2.718 0.1439999 -0.2494153 2.894 0.312 -0.5403999 3.422 0.2640001 -0.4572614 3.95 0.09600001 -0.1662768 4.2492 -0.003999948 0.006928205 3.588222 0 0 4.3548 -0.216 -0.374123 4.038 -0.3359999 -0.5819691 3.598 -0.2399999 -0.4156922 3.07 -0.05999994 -0.103923 2.718 0.1439999 0.2494153 2.894 0.3119999 0.5403999 3.422 0.2639999 0.4572615 3.95 0.09599995 0.1662769 4.2492 -0.003999948 -0.006928145 3.588222</float_array>
          <technique_common>
            <accessor source="#mesquite_med_a800-mesh-positions-array" count="98" stride="3">
              <param name="X" type="float"/>
              <param name="Y" type="float"/>
              <param name="Z" type="float"/>
            </accessor>
          </technique_common>
        </source>
        <source id="mesquite_med_a800-mesh-normals">
          <float_array id="mesquite_med_a800-mesh-normals-array" count="441">0.309017 0.9510565 0 0.809017 0.5877853 0 1 0 0 0.809017 -0.5877853 0 0.309017 -0.9510565 0 -0.309017 -0.9510565 0 -0.809017 -0.5877853 0 -1 0 0 0 0 1 -0.809017 0.5877853 0 -0.309017 0.9510565 0 0 0 -1 0.3468289 0.9238795 -0.161729 0.8373191 0.3826838 -0.3904483 0.8373189 -0.3826843 -0.3904482 0.3468291 -0.9238795 -0.1617291 -0.3468291 -0.9238795 0.1617291 -0.8373197 -0.3826822 0.3904486 0.4226179 1.58545e-6 0.9063079 -0.8373199 0.3826816 0.3904488 -0.3468289 0.9238795 0.161729 -0.4226134 0 -0.9063101 0.346829 0.9238795 0.161729 0.8373197 0.3826822 0.3904486 0.8373199 -0.3826816 0.3904488 0.3468289 -0.9238796 0.161729 -0.3468289 -0.9238796 -0.161729 -0.8373191 -0.3826838 -0.3904483 -0.4226165 0 0.9063087 -0.8373189 0.3826843 -0.3904482 -0.346829 0.9238795 -0.161729 0.4226228 0 -0.9063057 0.3794094 0.9238796 0.04995018 0.9159758 0.3826831 0.1205905 0.9159757 -0.3826832 0.1205905 0.3794095 -0.9238796 0.04995018 -0.3794095 -0.9238796 -0.04995018 -0.9159756 -0.3826834 -0.1205905 -0.1305258 0 0.991445 -0.9159756 0.3826835 -0.1205905 -0.3794094 0.9238796 -0.04995018 0.130524 0 -0.9914452 0 1 0 0 1 0 0 1 0 0 1 0 0 1 0 0 1 0 0 1 0 0 1 0 0 1 0 -0.8660254 -0.5000001 0 -0.8660254 -0.5 0 -0.8660254 -0.5000001 0 -0.8660253 -0.5000001 0 -0.8660254 -0.5 0 -0.8660253 -0.5000001 0 -0.8660254 -0.5000001 0 -0.8660254 -0.5000001 0 -0.8660253 -0.5000001 0 0.8660255 -0.4999998 0 0.8660255 -0.4999999 0 0.8660255 -0.4999999 0 0.8660255 -0.4999999 0 0.8660255 -0.4999999 0 0.8660255 -0.4999999 0 0.8660254 -0.4999999 0 0.8660255 -0.4999999 0 0.8660255 -0.4999999 0 0.309017 0.9510565 0 0.809017 0.5877853 0 1 0 0 0.809017 -0.5877853 0 0.309017 -0.9510565 0 -0.309017 -0.9510565 0 -0.809017 -0.5877853 0 -1 0 0 0 0 1 0 0 1 0 0 1 0 0 1 0 0 1 0 0 1 0 0 1 -0.809017 0.5877853 0 -0.309017 0.9510565 0 0 0 -1 0 0 -1 0 0 -1 0 0 -1 0 0 -1 0 0 -1 0 0 -1 0.3468289 0.9238795 -0.161729 0.8373197 0.3826822 -0.3904487 0.8373197 -0.3826822 -0.3904487 0.3468291 -0.9238795 -0.1617291 -0.3468292 -0.9238794 0.1617291 -0.8373189 -0.3826843 0.3904482 0.4226187 2.42415e-6 0.9063076 0.4226169 2.74312e-6 0.9063084 0.4226169 -2.74313e-6 0.9063084 0.4226182 -1.21551e-6 0.9063078 0.4226179 -2.09269e-6 0.9063079 -0.8373189 0.3826843 0.3904482 -0.3468291 0.9238795 0.161729 -0.4226178 0 -0.906308 -0.4226178 0 -0.906308 -0.4226228 0 -0.9063057 -0.4226177 0 -0.906308 -0.4226178 0 -0.906308 0.3468291 0.9238795 0.1617291 0.8373189 0.3826843 0.3904482 0.8373189 -0.3826843 0.3904482 0.346829 -0.9238795 0.161729 -0.3468289 -0.9238795 -0.161729 -0.8373197 -0.3826822 -0.3904487 -0.4226168 2.74313e-6 0.9063084 -0.4226187 2.42415e-6 0.9063076 -0.4226187 -2.42415e-6 0.9063076 -0.4226169 -2.74312e-6 0.9063084 -0.4226194 0 0.9063072 -0.8373197 0.3826822 -0.3904487 -0.346829 0.9238795 -0.161729 0.4226178 0 -0.9063081 0.4226177 2.02145e-6 -0.906308 0.4226165 -1.42004e-6 -0.9063086 0.4226178 0 -0.9063081 0.4226177 0 -0.906308 0.3794094 0.9238796 0.04995018 0.9159757 0.3826833 0.1205905 0.9159756 -0.3826833 0.1205905 0.3794095 -0.9238796 0.04995018 -0.3794095 -0.9238796 -0.04995018 -0.9159758 -0.3826831 -0.1205905 -0.1305271 -1.32372e-6 0.9914447 -0.1305264 -5.28483e-7 0.9914448 -0.1305258 7.38046e-7 0.9914449 -0.1305271 -1.26391e-6 0.9914448 -0.1305271 1.32372e-6 0.9914447 -0.9159758 0.382683 -0.1205905 -0.3794094 0.9238796 -0.04995018 0.1305266 0 -0.9914448 0.1305266 1.05697e-6 -0.9914448 0.1305258 -7.47388e-7 -0.9914449 0.1305266 0 -0.9914448 0.1305266 0 -0.9914448</float_array>
          <technique_common>
            <accessor source="#mesquite_med_a800-mesh-normals-array" count="147" stride="3">
              <param name="X" type="float"/>
              <param name="Y" type="float"/>
              <param name="Z" type="float"/>
            </accessor>
          </technique_common>
        </source>
        <source id="mesquite_med_a800-mesh-map-0">
          <float_array id="mesquite_med_a800-mesh-map-0-array" count="882">0.75 0.75 0.5 1 0.5 0.75 0.75 0.75 0.5 1 0.5 0.75 0.75 0.75 0.5 1 0.5 0.75 0.75 0.75 0.5 1 0.5 0.75 0.75 0.75 0.5 1 0.5 0.75 0.75 0.75 0.5 1 0.5 0.75 0.75 0.75 0.5 1 0.5 0.75 0.75 0.75 0.5 1 0.5 0.75 0.02174639 0.3241641 0.3910685 0.0558359 0.4782536 0.3241641 0.75 0.75 0.5 1 0.5 0.75 0.75 0.75 0.5 1 0.5 0.75 0.9782536 0.1758359 0.5217465 0.1758359 0.6089316 0.4441641 0.75 0.75 0.5 1 0.5 0.75 0.5 0.75 0.75 1 0.5 1 0.75 0.75 0.5 1 0.5 0.75 0.5 0.75 0.75 1 0.5 1 0.5 0.75 0.75 1 0.5 1 0.75 0.75 0.5 1 0.5 0.75 0.49 0.25 0.25 0.49 0.00999999 0.25 0.5 0.75 0.75 1 0.5 1 0.75 0.75 0.5 1 0.5 0.75 0.5802944 0.08029437 0.51 0.25 0.5802944 0.4197056 0.5 0.75 0.75 1 0.5 1 0.75 0.75 0.5 1 0.5 0.75 0.5 0.75 0.75 1 0.5 1 0.75 0.75 0.5 1 0.5 0.75 0.75 0.75 0.5 1 0.5 0.75 0.5 0.75 0.75 1 0.5 1 0.25 0.49 0.00999999 0.25 0.25 0.00999999 0.75 0.75 0.5 1 0.5 0.75 0.5 0.75 0.75 1 0.5 1 0.5802944 0.08029437 0.51 0.25 0.5802944 0.4197056 0.75 0.75 0.5 1 0.5 0.75 0.5 0.75 0.75 1 0.5 1 0.75 0.75 0.5 1 0.5 0.75 0.75 0.75 0.5 1 0.5 0.75 0.75 0.75 0.5 1 0.5 0.75 0.75 0.75 0.5 1 0.5 0.75 0.00999999 0.25 0.25 0.00999999 0.49 0.25 0.5 0.75 0.75 1 0.5 1 0.75 0.75 0.5 1 0.5 0.75 0.5802944 0.08029437 0.51 0.25 0.5802944 0.4197056 0.875 0.9758 0.9128 0.938 0.875 0.875 0.9128 0.938 0.9338 0.8855 0.875 0.875 0.9338 0.8855 0.917 0.8225 0.875 0.875 0.917 0.8225 0.8855 0.7805 0.875 0.875 0.8855 0.7805 0.8498 0.8015 0.875 0.875 0.8498 0.8015 0.8204 0.8645 0.875 0.875 0.8204 0.8645 0.8288 0.9275 0.875 0.875 0.8288 0.9275 0.8582 0.9632 0.875 0.875 0.8582 0.9632 0.875 0.9758 0.875 0.875 0.875 0.9758 0.9128 0.938 0.875 0.875 0.9128 0.938 0.9338 0.8855 0.875 0.875 0.9338 0.8855 0.917 0.8225 0.875 0.875 0.917 0.8225 0.8855 0.7805 0.875 0.875 0.8855 0.7805 0.8498 0.8015 0.875 0.875 0.8498 0.8015 0.8204 0.8645 0.875 0.875 0.8204 0.8645 0.8288 0.9275 0.875 0.875 0.8288 0.9275 0.8582 0.9632 0.875 0.875 0.8582 0.9632 0.875 0.9758 0.875 0.875 0.875 0.9758 0.9128 0.938 0.875 0.875 0.9128 0.938 0.9338 0.8855 0.875 0.875 0.9338 0.8855 0.917 0.8225 0.875 0.875 0.917 0.8225 0.8855 0.7805 0.875 0.875 0.8855 0.7805 0.8498 0.8015 0.875 0.875 0.8498 0.8015 0.8204 0.8645 0.875 0.875 0.8204 0.8645 0.8288 0.9275 0.875 0.875 0.8288 0.9275 0.8582 0.9632 0.875 0.875 0.8582 0.9632 0.875 0.9758 0.875 0.875 0.75 0.75 0.75 1 0.5 1 0.75 0.75 0.75 1 0.5 1 0.75 0.75 0.75 1 0.5 1 0.75 0.75 0.75 1 0.5 1 0.75 0.75 0.75 1 0.5 1 0.75 0.75 0.75 1 0.5 1 0.75 0.75 0.75 1 0.5 1 0.75 0.75 0.75 1 0.5 1 0.4782536 0.3241641 0.3910685 0.4441641 0.25 0.49 0.25 0.49 0.1089315 0.4441641 0.02174639 0.3241641 0.02174639 0.3241641 0.02174639 0.1758359 0.1089315 0.0558359 0.1089315 0.0558359 0.25 0.00999999 0.3910685 0.0558359 0.3910685 0.0558359 0.4782536 0.1758359 0.4782536 0.3241641 0.4782536 0.3241641 0.25 0.49 0.02174639 0.3241641 0.02174639 0.3241641 0.1089315 0.0558359 0.3910685 0.0558359 0.75 0.75 0.75 1 0.5 1 0.75 0.75 0.75 1 0.5 1 0.6089316 0.4441641 0.75 0.49 0.8910685 0.4441641 0.8910685 0.4441641 0.9782536 0.3241641 0.9782536 0.1758359 0.9782536 0.1758359 0.8910685 0.0558359 0.75 0.00999999 0.75 0.00999999 0.6089316 0.0558359 0.5217465 0.1758359 0.5217465 0.1758359 0.5217465 0.3241641 0.6089316 0.4441641 0.6089316 0.4441641 0.8910685 0.4441641 0.9782536 0.1758359 0.9782536 0.1758359 0.75 0.00999999 0.5217465 0.1758359 0.75 0.75 0.75 1 0.5 1 0.5 0.75 0.75 0.75 0.75 1 0.75 0.75 0.75 1 0.5 1 0.5 0.75 0.75 0.75 0.75 1 0.5 0.75 0.75 0.75 0.75 1 0.75 0.75 0.75 1 0.5 1 0.49 0.25 0.4197056 0.4197056 0.25 0.49 0.25 0.49 0.08029437 0.4197056 0.00999999 0.25 0.00999999 0.25 0.08029437 0.08029437 0.25 0.00999999 0.25 0.00999999 0.4197056 0.08029437 0.00999999 0.25 0.4197056 0.08029437 0.49 0.25 0.00999999 0.25 0.5 0.75 0.75 0.75 0.75 1 0.75 0.75 0.75 1 0.5 1 0.5802944 0.4197056 0.75 0.49 0.9197056 0.08029437 0.75 0.49 0.9197056 0.4197056 0.9197056 0.08029437 0.9197056 0.4197056 0.99 0.25 0.9197056 0.08029437 0.9197056 0.08029437 0.75 0.00999999 0.5802944 0.4197056 0.75 0.00999999 0.5802944 0.08029437 0.5802944 0.4197056 0.5 0.75 0.75 0.75 0.75 1 0.75 0.75 0.75 1 0.5 1 0.5 0.75 0.75 0.75 0.75 1 0.75 0.75 0.75 1 0.5 1 0.75 0.75 0.75 1 0.5 1 0.5 0.75 0.75 0.75 0.75 1 0.49 0.25 0.4197056 0.4197056 0.25 0.49 0.25 0.49 0.08029437 0.4197056 0.00999999 0.25 0.00999999 0.25 0.08029437 0.08029437 0.25 0.00999999 0.25 0.00999999 0.4197056 0.08029437 0.49 0.25 0.49 0.25 0.25 0.49 0.25 0.00999999 0.75 0.75 0.75 1 0.5 1 0.5 0.75 0.75 0.75 0.75 1 0.5802944 0.4197056 0.75 0.49 0.9197056 0.4197056 0.9197056 0.4197056 0.99 0.25 0.5802944 0.4197056 0.99 0.25 0.9197056 0.08029437 0.5802944 0.4197056 0.9197056 0.08029437 0.75 0.00999999 0.5802944 0.4197056 0.75 0.00999999 0.5802944 0.08029437 0.5802944 0.4197056 0.75 0.75 0.75 1 0.5 1 0.5 0.75 0.75 0.75 0.75 1 0.75 0.75 0.75 1 0.5 1 0.75 0.75 0.75 1 0.5 1 0.75 0.75 0.75 1 0.5 1 0.75 0.75 0.75 1 0.5 1 0.49 0.25 0.4197056 0.4197056 0.25 0.49 0.25 0.49 0.08029437 0.4197056 0.49 0.25 0.08029437 0.4197056 0.00999999 0.25 0.49 0.25 0.00999999 0.25 0.08029437 0.08029437 0.25 0.00999999 0.25 0.00999999 0.4197056 0.08029437 0.49 0.25 0.5 0.75 0.75 0.75 0.75 1 0.75 0.75 0.75 1 0.5 1 0.5802944 0.4197056 0.75 0.49 0.9197056 0.4197056 0.9197056 0.4197056 0.99 0.25 0.5802944 0.4197056 0.99 0.25 0.9197056 0.08029437 0.5802944 0.4197056 0.9197056 0.08029437 0.75 0.00999999 0.5802944 0.4197056 0.75 0.00999999 0.5802944 0.08029437 0.5802944 0.4197056</float_array>
          <technique_common>
            <accessor source="#mesquite_med_a800-mesh-map-0-array" count="441" stride="2">
              <param name="S" type="float"/>
              <param name="T" type="float"/>
            </accessor>
          </technique_common>
        </source>
        <vertices id="mesquite_med_a800-mesh-vertices">
          <input semantic="POSITION" source="#mesquite_med_a800-mesh-positions"/>
        </vertices>
        <triangles material="ParkerVegBark-material" count="120">
          <input semantic="VERTEX" source="#mesquite_med_a800-mesh-vertices" offset="0"/>
          <input semantic="NORMAL" source="#mesquite_med_a800-mesh-normals" offset="1"/>
          <input semantic="TEXCOORD" source="#mesquite_med_a800-mesh-map-0" offset="2" set="0"/>
          <p>1 0 0 2 0 1 0 0 2 3 1 3 4 1 4 2 1 5 5 2 6 6 2 7 4 2 8 7 3 9 8 3 10 6 3 11 9 4 12 10 4 13 8 4 14 11 5 15 12 5 16 10 5 17 13 6 18 14 6 19 12 6 20 15 7 21 16 7 22 14 7 23 17 8 24 9 8 25 5 8 26 17 9 27 18 9 28 16 9 29 19 10 30 0 10 31 18 10 32 6 11 33 14 11 34 18 11 35 21 12 36 22 12 37 20 12 38 22 13 39 25 13 40 24 13 41 25 14 42 26 14 43 24 14 44 26 15 45 29 15 46 28 15 47 28 16 48 31 16 49 30 16 50 31 17 51 32 17 52 30 17 53 25 18 54 21 18 55 33 18 56 32 19 57 35 19 58 34 19 59 35 20 60 20 20 61 34 20 62 30 21 63 32 21 64 34 21 65 36 22 66 39 22 67 38 22 68 39 23 69 40 23 70 38 23 71 40 24 72 43 24 73 42 24 74 43 25 75 44 25 76 42 25 77 45 26 78 46 26 79 44 26 80 46 27 81 49 27 82 48 27 83 37 28 84 49 28 85 45 28 86 49 29 87 50 29 88 48 29 89 50 30 90 37 30 91 36 30 92 46 31 93 48 31 94 50 31 95 53 32 96 54 32 97 52 32 98 54 33 99 57 33 100 56 33 101 57 34 102 58 34 103 56 34 104 59 35 105 60 35 106 58 35 107 61 36 108 62 36 109 60 36 110 63 37 111 64 37 112 62 37 113 65 38 114 61 38 115 57 38 116 64 39 117 67 39 118 66 39 119 67 40 120 52 40 121 66 40 122 62 41 123 64 41 124 66 41 125 1 69 207 3 69 208 2 69 209 3 70 210 5 70 211 4 70 212 5 71 213 7 71 214 6 71 215 7 72 216 9 72 217 8 72 218 9 73 219 11 73 220 10 73 221 11 74 222 13 74 223 12 74 224 13 75 225 15 75 226 14 75 227 15 76 228 17 76 229 16 76 230 5 77 231 3 77 232 1 77 233 1 78 234 19 78 235 17 78 236 17 79 237 15 79 238 13 79 239 13 80 240 11 80 241 9 80 242 9 81 243 7 81 244 5 81 245 5 82 246 1 82 247 17 82 248 17 83 249 13 83 250 9 83 251 17 84 252 19 84 253 18 84 254 19 85 255 1 85 256 0 85 257 18 86 258 0 86 259 2 86 260 2 87 261 4 87 262 6 87 263 6 88 264 8 88 265 10 88 266 10 89 267 12 89 268 14 89 269 14 90 270 16 90 271 18 90 272 18 91 273 2 91 274 6 91 275 6 92 276 10 92 277 14 92 278 21 93 279 23 93 280 22 93 281 22 94 282 23 94 283 25 94 284 25 95 285 27 95 286 26 95 287 26 96 288 27 96 289 29 96 290 28 97 291 29 97 292 31 97 293 31 98 294 33 98 295 32 98 296 25 99 297 23 99 298 21 99 299 21 100 300 35 100 301 33 100 302 33 101 303 31 101 304 29 101 305 29 102 306 27 102 307 33 102 308 27 103 309 25 103 310 33 103 311 32 104 312 33 104 313 35 104 314 35 105 315 21 105 316 20 105 317 34 106 318 20 106 319 26 106 320 20 107 321 22 107 322 26 107 323 22 108 324 24 108 325 26 108 326 26 109 327 28 109 328 34 109 329 28 110 330 30 110 331 34 110 332 36 111 333 37 111 334 39 111 335 39 112 336 41 112 337 40 112 338 40 113 339 41 113 340 43 113 341 43 114 342 45 114 343 44 114 344 45 115 345 47 115 346 46 115 347 46 116 348 47 116 349 49 116 350 41 117 351 39 117 352 37 117 353 37 118 354 51 118 355 49 118 356 49 119 357 47 119 358 45 119 359 45 120 360 43 120 361 41 120 362 41 121 363 37 121 364 45 121 365 49 122 366 51 122 367 50 122 368 50 123 369 51 123 370 37 123 371 50 124 372 36 124 373 38 124 374 38 125 375 40 125 376 50 125 377 40 126 378 42 126 379 50 126 380 42 127 381 44 127 382 50 127 383 44 128 384 46 128 385 50 128 386 53 129 387 55 129 388 54 129 389 54 130 390 55 130 391 57 130 392 57 131 393 59 131 394 58 131 395 59 132 396 61 132 397 60 132 398 61 133 399 63 133 400 62 133 401 63 134 402 65 134 403 64 134 404 57 135 405 55 135 406 53 135 407 53 136 408 67 136 409 57 136 410 67 137 411 65 137 412 57 137 413 65 138 414 63 138 415 61 138 416 61 139 417 59 139 418 57 139 419 64 140 420 65 140 421 67 140 422 67 141 423 53 141 424 52 141 425 66 142 426 52 142 427 54 142 428 54 143 429 56 143 430 66 143 431 56 144 432 58 144 433 66 144 434 58 145 435 60 145 436 66 145 437 60 146 438 62 146 439 66 146 440</p>
        </triangles>
        <triangles material="ParkerVegFoliage-material" count="27">
          <input semantic="VERTEX" source="#mesquite_med_a800-mesh-vertices" offset="0"/>
          <input semantic="NORMAL" source="#mesquite_med_a800-mesh-normals" offset="1"/>
          <input semantic="TEXCOORD" source="#mesquite_med_a800-mesh-map-0" offset="2" set="0"/>
          <p>68 42 126 69 42 127 77 42 128 69 43 129 70 43 130 77 43 131 70 44 132 71 44 133 77 44 134 71 45 135 72 45 136 77 45 137 72 46 138 73 46 139 77 46 140 73 47 141 74 47 142 77 47 143 74 48 144 75 48 145 77 48 146 75 49 147 76 49 148 77 49 149 76 50 150 68 50 151 77 50 152 78 51 153 79 51 154 87 51 155 79 52 156 80 52 157 87 52 158 80 53 159 81 53 160 87 53 161 81 54 162 82 54 163 87 54 164 82 55 165 83 55 166 87 55 167 83 56 168 84 56 169 87 56 170 84 57 171 85 57 172 87 57 173 85 58 174 86 58 175 87 58 176 86 59 177 78 59 178 87 59 179 88 60 180 89 60 181 97 60 182 89 61 183 90 61 184 97 61 185 90 62 186 91 62 187 97 62 188 91 63 189 92 63 190 97 63 191 92 64 192 93 64 193 97 64 194 93 65 195 94 65 196 97 65 197 94 66 198 95 66 199 97 66 200 95 67 201 96 67 202 97 67 203 96 68 204 88 68 205 97 68 206</p>
        </triangles>
      </mesh>
    </geometry>
  </library_geometries>
  <library_visual_scenes>
    <visual_scene id="Scene" name="Scene">
      <node id="base00" name="base00" type="NODE">
        <matrix sid="transform">1 0 0 0 0 1 0 0 0 0 1 0 0 0 0 1</matrix>
        <node id="start01" name="start01" type="NODE">
          <matrix sid="transform">1 0 0 0 0 1 0 0 0 0 1 0 0 0 0 1</matrix>
          <node id="mesquite_med_a800" name="mesquite_med_a800" type="NODE">
            <matrix sid="transform">1 0 0 0 0 1 0 0 0 0 1 0 0 0 0 1</matrix>
            <instance_geometry url="#mesquite_med_a800-mesh" name="mesquite_med_a800">
              <bind_material>
                <technique_common>
                  <instance_material symbol="ParkerVegBark-material" target="#ParkerVegBark-material">
                    <bind_vertex_input semantic="UVMap" input_semantic="TEXCOORD" input_set="0"/>
                  </instance_material>
                  <instance_material symbol="ParkerVegFoliage-material" target="#ParkerVegFoliage-material">
                    <bind_vertex_input semantic="UVMap" input_semantic="TEXCOORD" input_set="0"/>
                  </instance_material>
                </technique_common>
              </bind_material>
            </instance_geometry>
          </node>
          <node id="mesquite_med_a200" name="mesquite_med_a200" type="NODE">
            <matrix sid="transform">1 0 0 0 0 1 0 0 0 0 1 0 0 0 0 1</matrix>
            <instance_geometry url="#mesquite_med_a200-mesh" name="mesquite_med_a200">
              <bind_material>
                <technique_common>
                  <instance_material symbol="ParkerVegBark-material" target="#ParkerVegBark-material">
                    <bind_vertex_input semantic="UVMap" input_semantic="TEXCOORD" input_set="0"/>
                  </instance_material>
                  <instance_material symbol="ParkerVegFoliage-material" target="#ParkerVegFoliage-material">
                    <bind_vertex_input semantic="UVMap" input_semantic="TEXCOORD" input_set="0"/>
                  </instance_material>
                </technique_common>
              </bind_material>
            </instance_geometry>
          </node>
          <node id="mesquite_med_a50" name="mesquite_med_a50" type="NODE">
            <matrix sid="transform">1 0 0 0 0 1 0 0 0 0 1 0 0 0 0 1</matrix>
            <instance_geometry url="#mesquite_med_a50-mesh" name="mesquite_med_a50">
              <bind_material>
                <technique_common>
                  <instance_material symbol="ParkerVegBark-material" target="#ParkerVegBark-material">
                    <bind_vertex_input semantic="UVMap" input_semantic="TEXCOORD" input_set="0"/>
                  </instance_material>
                </technique_common>
              </bind_material>
            </instance_geometry>
          </node>
          <node id="nulldetail20" name="nulldetail20" type="NODE">
            <matrix sid="transform">1 0 0 0 0 1 0 0 0 0 1 0 0 0 0 1</matrix>
          </node>
        </node>
        <node id="collision-1" name="collision-1" type="NODE">
          <matrix sid="transform">1 0 0 0 0 1 0 0 0 0 1 0 0 0 0 1</matrix>
          <node id="Colmesh_trunk-1" name="Colmesh_trunk-1" type="NODE">
            <matrix sid="transform">1 0 0 0 0 1 0 0 0 0 1 0 0 0 0 1</matrix>
            <instance_geometry url="#Colmesh_trunk-1-mesh" name="Colmesh_trunk-1">
              <bind_material>
                <technique_common>
                  <instance_material symbol="Colmesh_Material-material" target="#Colmesh_Material-material">
                    <bind_vertex_input semantic="UVMap" input_semantic="TEXCOORD" input_set="0"/>
                  </instance_material>
                </technique_common>
              </bind_material>
            </instance_geometry>
          </node>
          <node id="Colmesh_canopy-1" name="Colmesh_canopy-1" type="NODE">
            <matrix sid="transform">1 0 0 0 0 1 0 0 0 0 1 0 0 0 0 1</matrix>
            <instance_geometry url="#Colmesh_canopy-1-mesh" name="Colmesh_canopy-1">
              <bind_material>
                <technique_common>
                  <instance_material symbol="Colmesh_Material-material" target="#Colmesh_Material-material">
                    <bind_vertex_input semantic="UVMap" input_semantic="TEXCOORD" input_set="0"/>
                  </instance_material>
                </technique_common>
              </bind_material>
            </instance_geometry>
          </node>
        </node>
      </node>
    </visual_scene>
  </library_visual_scenes>
  <scene>
    <instance_visual_scene url="#Scene"/>
  </scene>
</COLLADA>