<?xml version="1.0" encoding="utf-8"?>
<COLLADA xmlns="http://www.collada.org/2005/11/COLLADASchema" version="1.4.1" xmlns:xsi="http://www.w3.org/2001/XMLSchema-instance">
  <asset>
    <contributor>
      <author>Blender User</author>
      <authoring_tool>Blender 4.2.9 LTS commit date:2025-04-14, commit time:12:24, hash:a10f621e649a</authoring_tool>
    </contributor>
    <created>2026-08-01T08:05:55</created>
    <modified>2026-08-01T08:05:55</modified>
    <unit name="meter" meter="1"/>
    <up_axis>Z_UP</up_axis>
  </asset>
  <library_effects>
    <effect id="ParkerVegAtlas-effect">
      <profile_COMMON>
        <newparam sid="vegetation_atlas_2048_png-surface">
          <surface type="2D">
            <init_from>vegetation_atlas_2048_png</init_from>
          </surface>
        </newparam>
        <newparam sid="vegetation_atlas_2048_png-sampler">
          <sampler2D>
            <source>vegetation_atlas_2048_png-surface</source>
          </sampler2D>
        </newparam>
        <technique sid="common">
          <lambert>
            <emission>
              <color sid="emission">0 0 0 1</color>
            </emission>
            <diffuse>
              <texture texture="vegetation_atlas_2048_png-sampler" texcoord="UVMap"/>
            </diffuse>
            <index_of_refraction>
              <float sid="ior">1.5</float>
            </index_of_refraction>
          </lambert>
        </technique>
      </profile_COMMON>
    </effect>
    <effect id="Colmesh_Material-effect">
      <profile_COMMON>
        <technique sid="common">
          <lambert>
            <emission>
              <color sid="emission">0 0 0 1</color>
            </emission>
            <diffuse>
              <color sid="diffuse">1 0 1 1</color>
            </diffuse>
            <transparent opaque="A_ONE">
              <color sid="alpha">0 0 0 0.15</color>
            </transparent>
            <index_of_refraction>
              <float sid="ior">1.5</float>
            </index_of_refraction>
          </lambert>
        </technique>
      </profile_COMMON>
    </effect>
  </library_effects>
  <library_images>
    <image id="vegetation_atlas_2048_png" name="vegetation_atlas_2048_png">
      <init_from>vegetation_atlas_2048.png</init_from>
    </image>
  </library_images>
  <library_materials>
    <material id="ParkerVegAtlas-material" name="ParkerVegAtlas">
      <instance_effect url="#ParkerVegAtlas-effect"/>
    </material>
    <material id="Colmesh_Material-material" name="Colmesh_Material">
      <instance_effect url="#Colmesh_Material-effect"/>
    </material>
  </library_materials>
  <library_geometries>
    <geometry id="mesquite_large_a50-mesh" name="mesquite_large_a50">
      <mesh>
        <source id="mesquite_large_a50-mesh-positions">
          <float_array id="mesquite_large_a50-mesh-positions-array" count="24">-2.710416 0 -0.06255 2.710416 0 -0.06255 2.710416 0 6.31755 -2.710416 0 6.31755 0 -2.710416 -0.06255 0 2.710416 -0.06255 0 2.710416 6.31755 0 -2.710416 6.31755</float_array>
          <technique_common>
            <accessor source="#mesquite_large_a50-mesh-positions-array" count="8" stride="3">
              <param name="X" type="float"/>
              <param name="Y" type="float"/>
              <param name="Z" type="float"/>
            </accessor>
          </technique_common>
        </source>
        <source id="mesquite_large_a50-mesh-normals">
          <float_array id="mesquite_large_a50-mesh-normals-array" count="12">0 -1 0 1 0 0 0 -1 0 1 0 0</float_array>
          <technique_common>
            <accessor source="#mesquite_large_a50-mesh-normals-array" count="4" stride="3">
              <param name="X" type="float"/>
              <param name="Y" type="float"/>
              <param name="Z" type="float"/>
            </accessor>
          </technique_common>
        </source>
        <source id="mesquite_large_a50-mesh-map-0">
          <float_array id="mesquite_large_a50-mesh-map-0-array" count="24">1 0 0 1 0 0 1 0 0 1 0 0 1 0 1 1 0 1 1 0 1 1 0 1</float_array>
          <technique_common>
            <accessor source="#mesquite_large_a50-mesh-map-0-array" count="12" stride="2">
              <param name="S" type="float"/>
              <param name="T" type="float"/>
            </accessor>
          </technique_common>
        </source>
        <vertices id="mesquite_large_a50-mesh-vertices">
          <input semantic="POSITION" source="#mesquite_large_a50-mesh-positions"/>
        </vertices>
        <triangles material="ParkerVegAtlas-material" count="4">
          <input semantic="VERTEX" source="#mesquite_large_a50-mesh-vertices" offset="0"/>
          <input semantic="NORMAL" source="#mesquite_large_a50-mesh-normals" offset="1"/>
          <input semantic="TEXCOORD" source="#mesquite_large_a50-mesh-map-0" offset="2" set="0"/>
          <p>1 0 0 3 0 1 0 0 2 5 1 3 7 1 4 4 1 5 1 2 6 2 2 7 3 2 8 5 3 9 6 3 10 7 3 11</p>
        </triangles>
      </mesh>
    </geometry>
    <geometry id="mesquite_large_a200-mesh" name="mesquite_large_a200">
      <mesh>
        <source id="mesquite_large_a200-mesh-positions">
          <float_array id="mesquite_large_a200-mesh-positions-array" count="186">0.04377114 0.1705384 0 0 0.17 3.3 0.1616796 0.05253285 0 0.1486656 0.09432816 3.3 0.1486656 -0.09432816 0 0.1616796 -0.05253285 3.3 -0.04377114 -0.1705384 0 0.04377114 -0.1705384 3.3 -0.1616796 -0.05253285 0 -0.1486656 -0.09432816 3.3 -0.1486656 0.09432816 0 -0.1356515 0.1122404 3.3 -0.4899126 0.02802163 3.057655 0.08991247 0.02802157 4.442345 -0.4479795 -0.07556498 3.038101 0.1934491 -0.03372687 4.394065 -0.5502575 -0.1150705 3.085794 0.06082177 -0.1059827 4.45591 -0.5813419 -0.00730133 3.100289 0.5440148 0.07248657 3.082883 -0.08838951 0.07654362 4.443055 0.5859478 -0.03110003 3.102437 -0.05165648 -0.02941966 4.460184 0.4899126 -0.07163041 3.057655 -0.1455379 -0.07568746 4.416407 0.4479795 0.03195613 3.038101 -0.182271 0.03027558 4.399278 0.189153 0.08894515 3.010532 -0.1042863 0.06521356 4.484843 0.2293367 -0.01701802 3.015822 0.03253126 0.04956507 4.502856 0.1266363 -0.063286 3.002301 -0.02767282 -0.07156264 4.49493 0.0864526 0.04267716 2.997011 -2.25 0 3.105 2.25 0 3.105 -2.25 0 6.255 2.25 0 6.255 -1.125 -1.948557 3.105 1.125 1.948557 3.105 -1.125 -1.948557 6.255 1.125 1.948557 6.255 1.125 -1.948557 3.105 -1.125 1.948557 3.105 1.125 -1.948557 6.255 -1.125 1.948557 6.255 2.25 1.27856e-7 3.105 -2.25 -2.65547e-7 3.105 2.25 2.65547e-7 6.255 -2.25 -1.27856e-7 6.255 1.125 1.948557 3.105 -1.125 -1.948557 3.105 1.125 1.948557 6.255 -1.125 -1.948557 6.255 -1.125 1.948557 3.105 1.125 -1.948557 3.105 -1.125 1.948557 6.255 1.125 -1.948557 6.255 -0.7754051 -2.56978 5.067898 2.581348 -0.7359771 5.067898 -2.581348 0.7359771 5.732102 0.7754051 2.56978 5.732102</float_array>
          <technique_common>
            <accessor source="#mesquite_large_a200-mesh-positions-array" count="62" stride="3">
              <param name="X" type="float"/>
              <param name="Y" type="float"/>
              <param name="Z" type="float"/>
            </accessor>
          </technique_common>
        </source>
        <source id="mesquite_large_a200-mesh-normals">
          <float_array id="mesquite_large_a200-mesh-normals-array" count="198">0.7073843 0.7068024 -0.006162106 0.3681869 -0.9297006 -0.009767234 -0.7073843 -0.7068024 -0.006162106 -0.3682003 0.9297345 -0.004732072 0.4106838 -0.8964259 -0.1666117 0.8204655 0.4077726 -0.4006968 -0.8695303 -0.3032361 0.3898266 0.9960928 -0.08826816 -0.002810239 -0.3050411 0.9437342 0.1277329 0.9278959 0.3572126 0.1068103 0.4064254 -0.9129363 0.03695434 -0.1305271 7.44662e-7 0.9914447 -0.4026975 0.9129899 -0.06545466 0.4536151 0.8911764 0.006162106 -0.9960908 0.08826798 0.003449082 0.7073843 -0.7068024 0.006162106 -0.3681869 -0.9297006 0.009767234 0 0 1 0 0 -1 0.4388684 0.879558 -0.1837717 -0.4226167 0 -0.9063085 0.4226168 -7.00216e-7 0.9063085 -0.8722135 0.2328879 0.4301244 0.8266608 0.4078252 0.3876989 0.3704653 -0.9130581 0.1705301 -0.8283615 -0.4078263 -0.3840507 -0.422617 8.15255e-7 0.9063083 -0.3687654 0.9130574 -0.1741788 0.4226176 1.63051e-7 -0.9063081 -0.8658201 -0.4917805 -0.0922361 0.1086634 0.9933665 0.03761774 0.8834453 -0.4480623 0.1369842 0.1305276 7.42789e-7 -0.9914447 0 -1 0 0.8660255 -0.5 0 0.8660254 0.5000001 0 0 1 0 -0.8660255 0.4999999 0 -0.8660255 -0.4999999 0 0.08325141 -0.1523906 0.9848077 -0.3917568 0.9200624 -0.003449082 0.3041945 -0.9437786 -0.1294124 0.9960928 0.08826816 0.002810239 -0.9980101 0.06287556 0.004732072 0 0 1 0 0 1 0 0 1 0 0 -1 0 0 -1 0 0 -1 -0.4226193 1.36808e-6 -0.9063073 0.8473471 0.3572527 0.3929038 0.3229303 -0.9340056 0.1528055 -0.8456456 -0.3572539 -0.3965517 -0.4226173 4.52921e-7 0.9063083 -0.3246315 0.9340056 -0.1491574 0.4226182 -1.35876e-7 -0.9063078 -0.9270976 -0.3572409 -0.113442 0.1305276 7.47319e-7 -0.9914447 0 -1 0 0.8660255 -0.5 0 0.8660254 0.5000001 0 0 1 0 -0.8660255 0.4999999 0 -0.8660255 -0.4999999 0 0.08325141 -0.1523907 0.9848077</float_array>
          <technique_common>
            <accessor source="#mesquite_large_a200-mesh-normals-array" count="66" stride="3">
              <param name="X" type="float"/>
              <param name="Y" type="float"/>
              <param name="Z" type="float"/>
            </accessor>
          </technique_common>
        </source>
        <source id="mesquite_large_a200-mesh-map-0">
          <float_array id="mesquite_large_a200-mesh-map-0-array" count="396">0.75 0.9013416 0.5 1 0.5 0.75 0.75 0.9013416 0.5 1 0.5 0.75 0.75 0.9013416 0.5 1 0.5 0.75 0.5 0.75 0.75 1 0.5 1 0.75 1 0.5 0.75 0.75 0.75 0.75 0.8931552 0.5 1 0.5 0.75 0.5 0.75 0.75 0.9038458 0.5 1 0.5 0.75 0.75 1 0.5 1 0.5 0.75 0.75 0.8749997 0.5 1 0.5 0.75 0.75 0.8461541 0.5 1 0.75 0.8931549 0.5 1 0.5 0.75 0.2739405 0.06016838 0.446742 0.3544341 0.09884035 0.3673027 0.75 0.8750001 0.5 1 0.5 0.75 0.75 0.75 0.75 1 0.5 0.8486585 0.5 0.75 0.75 1 0.5 1 0.75 0.75 0.75 1 0.5 0.8486585 0.75 0.75 0.75 1 0.5 0.8486585 0.25 0.49 0.05615264 0.1284798 0.4782536 0.1758359 0.9782536 0.3241641 0.9438473 0.1284798 0.6943296 0.02808839 0.5 0.8749995 0.75 0.75 0.75 1 0.6455656 0.05325806 0.8348525 0.4548529 0.9548528 0.1651472 0.4398317 0.2739403 0.1651469 0.4548527 0.1132708 0.1221809 0.75 0.75 0.75 1 0.5 0.9038463 0.5 0.75 0.75 1 0.5 1 0.5 1 0.75 0.75 0.75 1 0.5 0.75 0.75 1 0.5 1 0.04514706 0.3348525 0.4548527 0.1651468 0.3348526 0.4548529 0.5 1 0.75 0.75 0.75 1 0.8348528 0.4548528 0.6651474 0.04514712 0.5451472 0.3348528 0.75 1 0.5 0.75 0.75 0.75 0.5 0.8749999 0.75 0.75 0.75 1 0.5 0.8749999 0.75 0.75 0.75 1 0.9548528 0.1651473 0.5451471 0.3348528 0.8348528 0.4548528 0.75 0.75 1 1 0.75 1 0.75 1 1 0.75 1 1 0.75 0.75 1 1 0.75 1 0.75 0.75 1 1 0.75 1 0.75 1 1 0.75 1 1 0.75 0.75 1 1 0.75 1 0.75 1 1 0.75 1 1 0.5 0.75 0.75 0.75 0.75 1 0.75 1 0.5 1 0.5 0.75 0.5 0.75 0.75 0.75 0.75 1 0.5 0.75 0.75 0.75 0.75 1 0.4782536 0.1758359 0.4438474 0.3715202 0.25 0.49 0.25 0.49 0.07452535 0.396808 0.05615264 0.1284798 0.05615264 0.1284798 0.3056704 0.02808839 0.4782536 0.1758359 0.6943296 0.02808839 0.5217465 0.1758359 0.9782536 0.3241641 0.5217465 0.1758359 0.5561527 0.3715202 0.8056704 0.4719116 0.9782536 0.3241641 0.5217465 0.1758359 0.8056704 0.4719116 0.6455656 0.05325806 0.5532581 0.3544343 0.8348525 0.4548529 0.5 0.75 0.75 0.75 0.75 1 0.5 1 0.5 0.75 0.75 0.75 0.5 0.75 0.75 0.75 0.75 1 0.04514706 0.3348525 0.1651472 0.04514718 0.4548527 0.1651468 0.5 1 0.5 0.75 0.75 0.75 0.8348528 0.4548528 0.9548527 0.1651469 0.6651474 0.04514712 0.75 1 0.5 1 0.5 0.75 0.9548528 0.1651473 0.6651473 0.04514712 0.5451471 0.3348528 0.75 0.75 1 0.75 1 1 0.75 1 0.75 0.75 1 0.75 0.75 0.75 1 0.75 1 1 0.75 0.75 1 0.75 1 1 0.75 1 0.75 0.75 1 0.75 0.75 0.75 1 0.75 1 1 0.75 1 0.75 0.75 1 0.75</float_array>
          <technique_common>
            <accessor source="#mesquite_large_a200-mesh-map-0-array" count="198" stride="2">
              <param name="S" type="float"/>
              <param name="T" type="float"/>
            </accessor>
          </technique_common>
        </source>
        <vertices id="mesquite_large_a200-mesh-vertices">
          <input semantic="POSITION" source="#mesquite_large_a200-mesh-positions"/>
        </vertices>
        <triangles material="ParkerVegAtlas-material" count="66">
          <input semantic="VERTEX" source="#mesquite_large_a200-mesh-vertices" offset="0"/>
          <input semantic="NORMAL" source="#mesquite_large_a200-mesh-normals" offset="1"/>
          <input semantic="TEXCOORD" source="#mesquite_large_a200-mesh-map-0" offset="2" set="0"/>
          <p>3 0 0 2 0 1 0 0 2 7 1 3 6 1 4 4 1 5 9 2 6 8 2 7 6 2 8 10 3 9 1 3 10 0 3 11 17 4 12 14 4 13 15 4 14 15 5 15 14 5 16 12 5 17 16 6 18 17 6 19 18 6 20 2 7 21 5 7 22 4 7 23 18 8 24 13 8 25 12 8 26 27 9 27 30 9 28 29 9 29 32 10 30 31 10 31 29 10 32 32 11 33 30 11 34 28 11 35 28 12 36 27 12 37 33 12 38 1 13 39 3 13 40 0 13 41 8 14 42 11 14 43 10 14 44 5 15 45 7 15 46 4 15 47 7 16 48 9 16 49 6 16 50 1 17 51 9 17 52 5 17 53 2 18 54 4 18 55 6 18 56 12 19 57 13 19 58 15 19 59 16 20 60 12 20 61 14 20 62 15 21 63 13 21 64 17 21 65 17 22 66 13 22 67 18 22 68 19 23 69 22 23 70 21 23 71 23 24 72 22 24 73 24 24 74 23 25 75 26 25 76 25 25 77 26 26 78 22 26 79 20 26 80 19 27 81 26 27 82 20 27 83 19 28 84 23 28 85 25 28 86 28 29 87 31 29 88 32 29 89 27 30 90 28 30 91 30 30 92 29 31 93 30 31 94 32 31 95 29 32 96 33 32 97 27 32 98 34 33 99 37 33 100 36 33 101 40 34 102 39 34 103 41 34 104 42 35 105 45 35 106 44 35 107 46 36 108 49 36 109 48 36 110 52 37 111 51 37 112 53 37 113 54 38 114 57 38 115 56 38 116 60 39 117 59 39 118 61 39 119 10 40 120 11 40 121 1 40 122 17 41 123 16 41 124 14 41 125 2 42 126 3 42 127 5 42 128 8 43 129 9 43 130 11 43 131 5 44 132 3 44 133 1 44 134 1 45 135 11 45 136 9 45 137 9 46 138 7 46 139 5 46 140 6 47 141 8 47 142 2 47 143 8 48 144 10 48 145 0 48 146 2 49 147 8 49 148 0 49 149 16 50 150 18 50 151 12 50 152 19 51 153 20 51 154 22 51 155 23 52 156 21 52 157 22 52 158 23 53 159 24 53 160 26 53 161 26 54 162 24 54 163 22 54 164 19 55 165 25 55 166 26 55 167 19 56 168 21 56 169 23 56 170 28 57 171 33 57 172 31 57 173 29 58 174 31 58 175 33 58 176 34 59 177 35 59 178 37 59 179 40 60 180 38 60 181 39 60 182 42 61 183 43 61 184 45 61 185 46 62 186 47 62 187 49 62 188 52 63 189 50 63 190 51 63 191 54 64 192 55 64 193 57 64 194 60 65 195 58 65 196 59 65 197</p>
        </triangles>
      </mesh>
    </geometry>
    <geometry id="Colmesh_canopy-1-mesh" name="Colmesh_canopy-1">
      <mesh>
        <source id="Colmesh_canopy-1-mesh-positions">
          <float_array id="Colmesh_canopy-1-mesh-positions-array" count="48">0 1.575 3.63 0 1.575 5.73 1.113693 1.113693 3.63 1.113693 1.113693 5.73 1.575 0 3.63 1.575 0 5.73 1.113693 -1.113693 3.63 1.113693 -1.113693 5.73 0 -1.575 3.63 0 -1.575 5.73 -1.113693 -1.113693 3.63 -1.113693 -1.113693 5.73 -1.575 0 3.63 -1.575 0 5.73 -1.113693 1.113693 3.63 -1.113693 1.113693 5.73</float_array>
          <technique_common>
            <accessor source="#Colmesh_canopy-1-mesh-positions-array" count="16" stride="3">
              <param name="X" type="float"/>
              <param name="Y" type="float"/>
              <param name="Z" type="float"/>
            </accessor>
          </technique_common>
        </source>
        <source id="Colmesh_canopy-1-mesh-normals">
          <float_array id="Colmesh_canopy-1-mesh-normals-array" count="84">0.3826834 0.9238796 0 0.9238796 0.3826834 0 0.9238796 -0.3826834 0 0.3826834 -0.9238796 0 -0.3826834 -0.9238796 0 -0.9238796 -0.3826834 0 0 0 1 -0.9238796 0.3826834 0 -0.3826834 0.9238796 0 0 0 -1 0.3826834 0.9238796 0 0.9238796 0.3826834 0 0.9238796 -0.3826834 0 0.3826834 -0.9238796 0 -0.3826834 -0.9238796 0 -0.9238796 -0.3826834 0 0 0 1 0 0 1 0 0 1 0 0 1 0 0 1 -0.9238796 0.3826834 0 -0.3826834 0.9238796 0 0 0 -1 0 0 -1 0 0 -1 0 0 -1 0 0 -1</float_array>
          <technique_common>
            <accessor source="#Colmesh_canopy-1-mesh-normals-array" count="28" stride="3">
              <param name="X" type="float"/>
              <param name="Y" type="float"/>
              <param name="Z" type="float"/>
            </accessor>
          </technique_common>
        </source>
        <source id="Colmesh_canopy-1-mesh-map-0">
          <float_array id="Colmesh_canopy-1-mesh-map-0-array" count="168">1 1 0.875 0.5 1 0.5 0.875 1 0.75 0.5 0.875 0.5 0.75 1 0.625 0.5 0.75 0.5 0.625 1 0.5 0.5 0.625 0.5 0.5 1 0.375 0.5 0.5 0.5 0.375 1 0.25 0.5 0.375 0.5 0.4197056 0.08029437 0.49 0.25 0.00999999 0.25 0.25 1 0.125 0.5 0.25 0.5 0.125 1 0 0.5 0.125 0.5 0.51 0.25 0.5802944 0.4197056 0.9197056 0.08029437 1 1 0.875 1 0.875 0.5 0.875 1 0.75 1 0.75 0.5 0.75 1 0.625 1 0.625 0.5 0.625 1 0.5 1 0.5 0.5 0.5 1 0.375 1 0.375 0.5 0.375 1 0.25 1 0.25 0.5 0.49 0.25 0.4197056 0.4197056 0.25 0.49 0.25 0.49 0.08029437 0.4197056 0.49 0.25 0.08029437 0.4197056 0.00999999 0.25 0.49 0.25 0.00999999 0.25 0.08029437 0.08029437 0.25 0.00999999 0.25 0.00999999 0.4197056 0.08029437 0.00999999 0.25 0.25 1 0.125 1 0.125 0.5 0.125 1 0 1 0 0.5 0.5802944 0.4197056 0.75 0.49 0.9197056 0.4197056 0.9197056 0.4197056 0.99 0.25 0.5802944 0.4197056 0.99 0.25 0.9197056 0.08029437 0.5802944 0.4197056 0.9197056 0.08029437 0.75 0.00999999 0.5802944 0.08029437 0.5802944 0.08029437 0.51 0.25 0.9197056 0.08029437</float_array>
          <technique_common>
            <accessor source="#Colmesh_canopy-1-mesh-map-0-array" count="84" stride="2">
              <param name="S" type="float"/>
              <param name="T" type="float"/>
            </accessor>
          </technique_common>
        </source>
        <vertices id="Colmesh_canopy-1-mesh-vertices">
          <input semantic="POSITION" source="#Colmesh_canopy-1-mesh-positions"/>
        </vertices>
        <triangles material="Colmesh_Material-material" count="28">
          <input semantic="VERTEX" source="#Colmesh_canopy-1-mesh-vertices" offset="0"/>
          <input semantic="NORMAL" source="#Colmesh_canopy-1-mesh-normals" offset="1"/>
          <input semantic="TEXCOORD" source="#Colmesh_canopy-1-mesh-map-0" offset="2" set="0"/>
          <p>1 0 0 2 0 1 0 0 2 3 1 3 4 1 4 2 1 5 5 2 6 6 2 7 4 2 8 7 3 9 8 3 10 6 3 11 9 4 12 10 4 13 8 4 14 11 5 15 12 5 16 10 5 17 7 6 18 5 6 19 13 6 20 13 7 21 14 7 22 12 7 23 15 8 24 0 8 25 14 8 26 12 9 27 14 9 28 6 9 29 1 10 30 3 10 31 2 10 32 3 11 33 5 11 34 4 11 35 5 12 36 7 12 37 6 12 38 7 13 39 9 13 40 8 13 41 9 14 42 11 14 43 10 14 44 11 15 45 13 15 46 12 15 47 5 16 48 3 16 49 1 16 50 1 17 51 15 17 52 5 17 53 15 18 54 13 18 55 5 18 56 13 19 57 11 19 58 9 19 59 9 20 60 7 20 61 13 20 62 13 21 63 15 21 64 14 21 65 15 22 66 1 22 67 0 22 68 14 23 69 0 23 70 2 23 71 2 24 72 4 24 73 14 24 74 4 25 75 6 25 76 14 25 77 6 26 78 8 26 79 10 26 80 10 27 81 12 27 82 6 27 83</p>
        </triangles>
      </mesh>
    </geometry>
    <geometry id="Colmesh_trunk-1-mesh" name="Colmesh_trunk-1">
      <mesh>
        <source id="Colmesh_trunk-1-mesh-positions">
          <float_array id="Colmesh_trunk-1-mesh-positions-array" count="48">0 0.221 0 0 0.221 3.3 0.1562706 0.1562706 0 0.1562706 0.1562706 3.3 0.221 0 0 0.221 0 3.3 0.1562706 -0.1562706 0 0.1562706 -0.1562706 3.3 0 -0.221 0 0 -0.221 3.3 -0.1562706 -0.1562706 0 -0.1562706 -0.1562706 3.3 -0.221 0 0 -0.221 0 3.3 -0.1562706 0.1562706 0 -0.1562706 0.1562706 3.3</float_array>
          <technique_common>
            <accessor source="#Colmesh_trunk-1-mesh-positions-array" count="16" stride="3">
              <param name="X" type="float"/>
              <param name="Y" type="float"/>
              <param name="Z" type="float"/>
            </accessor>
          </technique_common>
        </source>
        <source id="Colmesh_trunk-1-mesh-normals">
          <float_array id="Colmesh_trunk-1-mesh-normals-array" count="84">0.3826835 0.9238795 0 0.9238795 0.3826835 0 0.9238795 -0.3826835 0 0.3826835 -0.9238795 0 -0.3826835 -0.9238795 0 -0.9238795 -0.3826835 0 0 0 1 -0.9238795 0.3826835 0 -0.3826835 0.9238795 0 0 0 -1 0.3826835 0.9238795 0 0.9238795 0.3826835 0 0.9238795 -0.3826835 0 0.3826835 -0.9238795 0 -0.3826835 -0.9238795 0 -0.9238795 -0.3826835 0 0 0 1 0 0 1 0 0 1 0 0 1 0 0 1 -0.9238795 0.3826835 0 -0.3826835 0.9238795 0 0 0 -1 0 0 -1 0 0 -1 0 0 -1 0 0 -1</float_array>
          <technique_common>
            <accessor source="#Colmesh_trunk-1-mesh-normals-array" count="28" stride="3">
              <param name="X" type="float"/>
              <param name="Y" type="float"/>
              <param name="Z" type="float"/>
            </accessor>
          </technique_common>
        </source>
        <source id="Colmesh_trunk-1-mesh-map-0">
          <float_array id="Colmesh_trunk-1-mesh-map-0-array" count="168">1 1 0.875 0.5 1 0.5 0.875 1 0.75 0.5 0.875 0.5 0.75 1 0.625 0.5 0.75 0.5 0.625 1 0.5 0.5 0.625 0.5 0.5 1 0.375 0.5 0.5 0.5 0.375 1 0.25 0.5 0.375 0.5 0.4197056 0.08029437 0.49 0.25 0.00999999 0.25 0.25 1 0.125 0.5 0.25 0.5 0.125 1 0 0.5 0.125 0.5 0.51 0.25 0.5802944 0.4197056 0.9197056 0.08029437 1 1 0.875 1 0.875 0.5 0.875 1 0.75 1 0.75 0.5 0.75 1 0.625 1 0.625 0.5 0.625 1 0.5 1 0.5 0.5 0.5 1 0.375 1 0.375 0.5 0.375 1 0.25 1 0.25 0.5 0.49 0.25 0.4197056 0.4197056 0.25 0.49 0.25 0.49 0.08029437 0.4197056 0.49 0.25 0.08029437 0.4197056 0.00999999 0.25 0.49 0.25 0.00999999 0.25 0.08029437 0.08029437 0.25 0.00999999 0.25 0.00999999 0.4197056 0.08029437 0.00999999 0.25 0.25 1 0.125 1 0.125 0.5 0.125 1 0 1 0 0.5 0.5802944 0.4197056 0.75 0.49 0.9197056 0.4197056 0.9197056 0.4197056 0.99 0.25 0.5802944 0.4197056 0.99 0.25 0.9197056 0.08029437 0.5802944 0.4197056 0.9197056 0.08029437 0.75 0.00999999 0.5802944 0.08029437 0.5802944 0.08029437 0.51 0.25 0.9197056 0.08029437</float_array>
          <technique_common>
            <accessor source="#Colmesh_trunk-1-mesh-map-0-array" count="84" stride="2">
              <param name="S" type="float"/>
              <param name="T" type="float"/>
            </accessor>
          </technique_common>
        </source>
        <vertices id="Colmesh_trunk-1-mesh-vertices">
          <input semantic="POSITION" source="#Colmesh_trunk-1-mesh-positions"/>
        </vertices>
        <triangles material="Colmesh_Material-material" count="28">
          <input semantic="VERTEX" source="#Colmesh_trunk-1-mesh-vertices" offset="0"/>
          <input semantic="NORMAL" source="#Colmesh_trunk-1-mesh-normals" offset="1"/>
          <input semantic="TEXCOORD" source="#Colmesh_trunk-1-mesh-map-0" offset="2" set="0"/>
          <p>1 0 0 2 0 1 0 0 2 3 1 3 4 1 4 2 1 5 5 2 6 6 2 7 4 2 8 7 3 9 8 3 10 6 3 11 9 4 12 10 4 13 8 4 14 11 5 15 12 5 16 10 5 17 7 6 18 5 6 19 13 6 20 13 7 21 14 7 22 12 7 23 15 8 24 0 8 25 14 8 26 12 9 27 14 9 28 6 9 29 1 10 30 3 10 31 2 10 32 3 11 33 5 11 34 4 11 35 5 12 36 7 12 37 6 12 38 7 13 39 9 13 40 8 13 41 9 14 42 11 14 43 10 14 44 11 15 45 13 15 46 12 15 47 5 16 48 3 16 49 1 16 50 1 17 51 15 17 52 5 17 53 15 18 54 13 18 55 5 18 56 13 19 57 11 19 58 9 19 59 9 20 60 7 20 61 13 20 62 13 21 63 15 21 64 14 21 65 15 22 66 1 22 67 0 22 68 14 23 69 0 23 70 2 23 71 2 24 72 4 24 73 14 24 74 4 25 75 6 25 76 14 25 77 6 26 78 8 26 79 10 26 80 10 27 81 12 27 82 6 27 83</p>
        </triangles>
      </mesh>
    </geometry>
    <geometry id="mesquite_large_a800-mesh" name="mesquite_large_a800">
      <mesh>
        <source id="mesquite_large_a800-mesh-positions">
          <float_array id="mesquite_large_a800-mesh-positions-array" count="288">0 0.17 0 0 0.17 3.3 0.09992349 0.1375328 0 0.09992349 0.1375328 3.3 0.1616796 0.05253285 0 0.1616796 0.05253285 3.3 0.1616796 -0.05253285 0 0.1616796 -0.05253285 3.3 0.09992349 -0.1375328 0 0.09992349 -0.1375328 3.3 0 -0.17 0 0 -0.17 3.3 -0.09992349 -0.1375328 0 -0.09992349 -0.1375328 3.3 -0.1616796 -0.05253285 0 -0.1616796 -0.05253285 3.3 -0.1616796 0.05253285 0 -0.1616796 0.05253285 3.3 -0.09992349 0.1375328 0 -0.09992349 0.1375328 3.3 -0.5169637 0.03246307 3.070269 0.1169637 0.03246307 4.429731 -0.4679382 0.01005673 3.047408 0.1659892 0.01005673 4.40687 -0.4476312 -0.04403686 3.037939 0.1862962 -0.04403686 4.3974 -0.4679382 -0.09813052 3.047408 0.1659892 -0.09813052 4.40687 -0.5169637 -0.1205369 3.070269 0.1169637 -0.1205369 4.429731 -0.5659892 -0.09813052 3.09313 0.06793814 -0.09813052 4.452592 -0.5862963 -0.04403686 3.102599 0.04763114 -0.04403686 4.462061 -0.5659892 0.01005673 3.09313 0.06793814 0.01005673 4.452592 0.5169637 0.07692807 3.070269 -0.1169637 0.07692807 4.429731 0.5659892 0.05452173 3.09313 -0.06793814 0.05452173 4.452592 0.5862963 4.28089e-4 3.102599 -0.04763114 4.28089e-4 4.462061 0.5659892 -0.05366557 3.09313 -0.06793814 -0.05366557 4.452592 0.5169637 -0.07607191 3.070269 -0.1169637 -0.07607191 4.429731 0.4679382 -0.05366557 3.047408 -0.1659892 -0.05366557 4.40687 0.4476312 4.28089e-4 3.037939 -0.1862962 4.28089e-4 4.3974 0.4679382 0.05452173 3.047408 -0.1659892 0.05452173 4.40687 0.1578946 0.08932954 3.006416 -0.0378946 0.08932954 4.493584 0.2115255 0.0669232 3.013477 0.01573622 0.0669232 4.500644 0.2337402 0.01282954 3.016402 0.03795087 0.01282954 4.503569 0.2115255 -0.04126405 3.013477 0.01573622 -0.04126405 4.500644 0.1578946 -0.06367039 3.006416 -0.0378946 -0.06367039 4.493584 0.1042637 -0.04126405 2.999356 -0.09152549 -0.04126405 4.486523 0.08204907 0.01282954 2.996431 -0.1137402 0.01282954 4.483598 0.1042637 0.0669232 2.999356 -0.09152549 0.0669232 4.486523 -2.25 0 3.105 2.25 0 3.105 -2.25 0 6.255 2.25 0 6.255 -1.125 -1.948557 3.105 1.125 1.948557 3.105 -1.125 -1.948557 6.255 1.125 1.948557 6.255 1.125 -1.948557 3.105 -1.125 1.948557 3.105 1.125 -1.948557 6.255 -1.125 1.948557 6.255 2.25 1.27856e-7 3.105 -2.25 -2.65547e-7 3.105 2.25 2.65547e-7 6.255 -2.25 -1.27856e-7 6.255 1.125 1.948557 3.105 -1.125 -1.948557 3.105 1.125 1.948557 6.255 -1.125 -1.948557 6.255 -1.125 1.948557 3.105 1.125 -1.948557 3.105 -1.125 1.948557 6.255 1.125 -1.948557 6.255 -0.7754051 -2.56978 5.067898 2.581348 -0.7359771 5.067898 -2.581348 0.7359771 5.732102 0.7754051 2.56978 5.732102</float_array>
          <technique_common>
            <accessor source="#mesquite_large_a800-mesh-positions-array" count="96" stride="3">
              <param name="X" type="float"/>
              <param name="Y" type="float"/>
              <param name="Z" type="float"/>
            </accessor>
          </technique_common>
        </source>
        <source id="mesquite_large_a800-mesh-normals">
          <float_array id="mesquite_large_a800-mesh-normals-array" count="402">0.309017 0.9510565 0 0.8090169 0.5877853 0 1 0 0 0.8090169 -0.5877853 0 0.309017 -0.9510565 0 -0.309017 -0.9510565 0 -0.8090169 -0.5877853 0 -1 0 0 0 0 1 -0.8090169 0.5877853 0 -0.309017 0.9510565 0 0 0 -1 0.3468288 0.9238796 -0.1617289 0.8373196 0.3826825 -0.3904486 0.8373194 -0.3826828 -0.3904485 0.3468289 -0.9238796 -0.1617289 -0.3468292 -0.9238795 0.161729 -0.8373191 -0.3826836 0.3904483 0.4226155 0 0.9063091 -0.8373191 0.3826835 0.3904483 -0.3468292 0.9238794 0.161729 -0.4226157 0 -0.906309 0.3468291 0.9238795 0.161729 0.8373191 0.3826836 0.3904483 0.8373191 -0.3826835 0.3904483 0.3468292 -0.9238794 0.161729 -0.3468288 -0.9238796 -0.1617289 -0.8373196 -0.3826825 -0.3904486 -0.4226211 6.21917e-6 0.9063065 -0.8373194 0.3826828 -0.3904485 -0.3468288 0.9238796 -0.1617289 0.4226188 0 -0.9063075 0.3794096 0.9238795 0.04995018 0.9159756 0.3826835 0.1205905 0.9159756 -0.3826836 0.1205905 0.3794096 -0.9238795 0.04995018 -0.3794096 -0.9238795 -0.04995018 -0.9159756 -0.3826836 -0.1205905 -0.1305286 -4.56443e-6 0.9914445 -0.9159755 0.3826837 -0.1205905 -0.3794096 0.9238795 -0.04995018 0.1305241 0 -0.9914451 0 -1 0 0.8660255 -0.5 0 0.8660254 0.5000001 0 0 1 0 -0.8660255 0.4999999 0 -0.8660255 -0.4999999 0 0.08325141 -0.1523906 0.9848077 0.309017 0.9510565 0 0.8090169 0.5877853 0 1 0 0 0.8090169 -0.5877853 0 0.309017 -0.9510565 0 -0.309017 -0.9510565 0 -0.8090169 -0.5877853 0 -1 0 0 0 0 1 0 0 1 0 0 1 0 0 1 0 0 1 0 0 1 0 0 1 -0.8090169 0.5877853 0 -0.309017 0.9510565 0 0 0 -1 0 0 -1 0 0 -1 0 0 -1 0 0 -1 0 0 -1 0 0 -1 0.3468289 0.9238795 -0.161729 0.8373188 0.3826846 -0.3904482 0.8373188 -0.3826847 -0.3904481 0.3468291 -0.9238795 -0.161729 -0.3468291 -0.9238795 0.161729 -0.8373199 -0.3826817 0.3904486 0.4226175 -3.42175e-6 0.9063082 0.4226211 -6.21917e-6 0.9063065 0.4226211 6.21917e-6 0.9063065 0.4226174 3.42175e-6 0.9063081 0.4226206 0 0.9063068 -0.8373199 0.3826817 0.3904486 -0.3468289 0.9238795 0.161729 -0.4226189 -1.54727e-7 -0.9063075 -0.4226186 0 -0.9063076 -0.4226167 0 -0.9063085 -0.4226186 1.54727e-7 -0.9063076 -0.422619 0 -0.9063075 0.3468289 0.9238795 0.161729 0.8373199 0.3826817 0.3904486 0.8373199 -0.3826817 0.3904486 0.3468289 -0.9238795 0.161729 -0.3468289 -0.9238795 -0.161729 -0.8373188 -0.3826846 -0.3904482 -0.4226211 -6.21917e-6 0.9063065 -0.4226178 -2.58601e-6 0.9063079 -0.422618 -3.16486e-6 0.9063079 -0.422618 3.16486e-6 0.9063079 -0.4226178 2.58601e-6 0.9063079 -0.8373188 0.3826846 -0.3904482 -0.3468289 0.9238795 -0.161729 0.4226188 -5.2827e-7 -0.9063076 0.4226157 0 -0.9063089 0.4226188 5.2827e-7 -0.9063076 0.4226188 9.34943e-7 -0.9063075 0.4226182 -6.61105e-7 -0.9063078 0.3794096 0.9238795 0.04995018 0.9159753 0.3826841 0.1205904 0.9159753 -0.3826841 0.1205904 0.3794096 -0.9238795 0.04995018 -0.3794097 -0.9238795 -0.04995024 -0.9159754 -0.3826839 -0.1205905 -0.1305286 4.56443e-6 0.9914445 -0.1305254 -3.24246e-6 0.9914449 -0.1305209 -7.80999e-6 0.9914456 -0.1305209 7.80999e-6 0.9914456 -0.1305254 3.24246e-6 0.9914449 -0.9159754 0.3826839 -0.1205905 -0.3794097 0.9238795 -0.04995024 0.1305241 0 -0.9914451 0.1305292 0 -0.9914444 0.1305241 0 -0.9914451 0.1305291 0 -0.9914445 0.1305241 0 -0.9914451 0 -1 0 0.8660255 -0.5 0 0.8660254 0.5000001 0 0 1 0 -0.8660255 0.4999999 0 -0.8660255 -0.4999999 0 0.08325141 -0.1523907 0.9848077</float_array>
          <technique_common>
            <accessor source="#mesquite_large_a800-mesh-normals-array" count="134" stride="3">
              <param name="X" type="float"/>
              <param name="Y" type="float"/>
              <param name="Z" type="float"/>
            </accessor>
          </technique_common>
        </source>
        <source id="mesquite_large_a800-mesh-map-0">
          <float_array id="mesquite_large_a800-mesh-map-0-array" count="804">0.75 0.75 0.5 1 0.5 0.75 0.75 0.75 0.5 1 0.5 0.75 0.75 0.75 0.5 1 0.5 0.75 0.75 0.75 0.5 1 0.5 0.75 0.75 0.75 0.5 1 0.5 0.75 0.75 0.75 0.5 1 0.5 0.75 0.75 0.75 0.5 1 0.5 0.75 0.75 0.75 0.5 1 0.5 0.75 0.02174639 0.3241641 0.1089316 0.0558359 0.3910685 0.0558359 0.75 0.75 0.5 1 0.5 0.75 0.75 0.75 0.5 1 0.5 0.75 0.9782536 0.1758359 0.75 0.00999999 0.5217465 0.1758359 0.75 0.75 0.5 1 0.5 0.75 0.5 0.75 0.75 1 0.5 1 0.75 0.75 0.5 1 0.5 0.75 0.75 0.75 0.5 1 0.5 0.75 0.75 0.75 0.5 1 0.5 0.75 0.5 0.75 0.75 1 0.5 1 0.25 0.49 0.00999999 0.25 0.25 0.00999999 0.75 0.75 0.5 1 0.5 0.75 0.5 0.75 0.75 1 0.5 1 0.5802944 0.08029437 0.51 0.25 0.5802944 0.4197056 0.75 0.75 0.5 1 0.5 0.75 0.5 0.75 0.75 1 0.5 1 0.75 0.75 0.5 1 0.5 0.75 0.5 0.75 0.75 1 0.5 1 0.75 0.75 0.5 1 0.5 0.75 0.5 0.75 0.75 1 0.5 1 0.25 0.00999999 0.4197056 0.08029437 0.49 0.25 0.75 0.75 0.5 1 0.5 0.75 0.75 0.75 0.5 1 0.5 0.75 0.5802944 0.4197056 0.9197056 0.4197056 0.9197056 0.08029437 0.5 0.75 0.75 1 0.5 1 0.75 0.75 0.5 1 0.5 0.75 0.5 0.75 0.75 1 0.5 1 0.75 0.75 0.5 1 0.5 0.75 0.75 0.75 0.5 1 0.5 0.75 0.5 0.75 0.75 1 0.5 1 0.4197056 0.08029437 0.49 0.25 0.00999999 0.25 0.75 0.75 0.5 1 0.5 0.75 0.5 0.75 0.75 1 0.5 1 0.9197056 0.08029437 0.5802944 0.08029437 0.5802944 0.4197056 1 0.75 0.75 1 0.75 0.75 1 0.75 0.75 1 0.75 0.75 0.75 0.75 1 1 0.75 1 1 0.75 0.75 1 0.75 0.75 1 0.75 0.75 1 0.75 0.75 0.75 0.75 1 1 0.75 1 1 0.75 0.75 1 0.75 0.75 0.75 0.75 0.75 1 0.5 1 0.75 0.75 0.75 1 0.5 1 0.75 0.75 0.75 1 0.5 1 0.75 0.75 0.75 1 0.5 1 0.75 0.75 0.75 1 0.5 1 0.75 0.75 0.75 1 0.5 1 0.75 0.75 0.75 1 0.5 1 0.75 0.75 0.75 1 0.5 1 0.4782536 0.3241641 0.3910685 0.444164 0.25 0.49 0.25 0.49 0.1089316 0.444164 0.02174639 0.3241641 0.02174639 0.3241641 0.02174639 0.1758359 0.1089316 0.0558359 0.1089316 0.0558359 0.25 0.00999999 0.3910685 0.0558359 0.3910685 0.0558359 0.4782536 0.1758359 0.4782536 0.3241641 0.4782536 0.3241641 0.25 0.49 0.3910685 0.0558359 0.25 0.49 0.02174639 0.3241641 0.3910685 0.0558359 0.75 0.75 0.75 1 0.5 1 0.75 0.75 0.75 1 0.5 1 0.6089316 0.444164 0.75 0.49 0.8910685 0.444164 0.8910685 0.444164 0.9782536 0.3241641 0.9782536 0.1758359 0.9782536 0.1758359 0.8910685 0.0558359 0.75 0.00999999 0.75 0.00999999 0.6089316 0.0558359 0.5217465 0.1758359 0.5217465 0.1758359 0.5217465 0.3241641 0.6089316 0.444164 0.6089316 0.444164 0.8910685 0.444164 0.5217465 0.1758359 0.8910685 0.444164 0.9782536 0.1758359 0.5217465 0.1758359 0.75 0.75 0.75 1 0.5 1 0.5 0.75 0.75 0.75 0.75 1 0.75 0.75 0.75 1 0.5 1 0.75 0.75 0.75 1 0.5 1 0.75 0.75 0.75 1 0.5 1 0.5 0.75 0.75 0.75 0.75 1 0.49 0.25 0.4197056 0.4197056 0.25 0.49 0.25 0.49 0.08029437 0.4197056 0.00999999 0.25 0.00999999 0.25 0.08029437 0.08029437 0.25 0.00999999 0.25 0.00999999 0.4197056 0.08029437 0.49 0.25 0.49 0.25 0.25 0.49 0.25 0.00999999 0.75 0.75 0.75 1 0.5 1 0.5 0.75 0.75 0.75 0.75 1 0.5802944 0.4197056 0.75 0.49 0.9197056 0.08029437 0.75 0.49 0.9197056 0.4197056 0.9197056 0.08029437 0.9197056 0.4197056 0.99 0.25 0.9197056 0.08029437 0.9197056 0.08029437 0.75 0.00999999 0.5802944 0.4197056 0.75 0.00999999 0.5802944 0.08029437 0.5802944 0.4197056 0.75 0.75 0.75 1 0.5 1 0.5 0.75 0.75 0.75 0.75 1 0.75 0.75 0.75 1 0.5 1 0.5 0.75 0.75 0.75 0.75 1 0.75 0.75 0.75 1 0.5 1 0.5 0.75 0.75 0.75 0.75 1 0.49 0.25 0.4197056 0.4197056 0.25 0.49 0.25 0.49 0.08029437 0.4197056 0.49 0.25 0.08029437 0.4197056 0.00999999 0.25 0.49 0.25 0.00999999 0.25 0.08029437 0.08029437 0.49 0.25 0.08029437 0.08029437 0.25 0.00999999 0.49 0.25 0.75 0.75 0.75 1 0.5 1 0.75 0.75 0.75 1 0.5 1 0.5802944 0.4197056 0.75 0.49 0.9197056 0.4197056 0.9197056 0.4197056 0.99 0.25 0.9197056 0.08029437 0.9197056 0.08029437 0.75 0.00999999 0.5802944 0.08029437 0.5802944 0.08029437 0.51 0.25 0.9197056 0.08029437 0.51 0.25 0.5802944 0.4197056 0.9197056 0.08029437 0.5 0.75 0.75 0.75 0.75 1 0.75 0.75 0.75 1 0.5 1 0.5 0.75 0.75 0.75 0.75 1 0.75 0.75 0.75 1 0.5 1 0.75 0.75 0.75 1 0.5 1 0.5 0.75 0.75 0.75 0.75 1 0.49 0.25 0.4197056 0.4197056 0.00999999 0.25 0.4197056 0.4197056 0.25 0.49 0.00999999 0.25 0.25 0.49 0.08029437 0.4197056 0.00999999 0.25 0.00999999 0.25 0.08029437 0.08029437 0.25 0.00999999 0.25 0.00999999 0.4197056 0.08029437 0.00999999 0.25 0.75 0.75 0.75 1 0.5 1 0.5 0.75 0.75 0.75 0.75 1 0.5802944 0.4197056 0.75 0.49 0.9197056 0.4197056 0.9197056 0.4197056 0.99 0.25 0.9197056 0.08029437 0.9197056 0.08029437 0.75 0.00999999 0.5802944 0.08029437 0.5802944 0.08029437 0.51 0.25 0.5802944 0.4197056 0.5802944 0.4197056 0.9197056 0.4197056 0.9197056 0.08029437 1 0.75 1 1 0.75 1 1 0.75 1 1 0.75 1 0.75 0.75 1 0.75 1 1 1 0.75 1 1 0.75 1 1 0.75 1 1 0.75 1 0.75 0.75 1 0.75 1 1 1 0.75 1 1 0.75 1</float_array>
          <technique_common>
            <accessor source="#mesquite_large_a800-mesh-map-0-array" count="402" stride="2">
              <param name="S" type="float"/>
              <param name="T" type="float"/>
            </accessor>
          </technique_common>
        </source>
        <vertices id="mesquite_large_a800-mesh-vertices">
          <input semantic="POSITION" source="#mesquite_large_a800-mesh-positions"/>
        </vertices>
        <triangles material="ParkerVegAtlas-material" count="134">
          <input semantic="VERTEX" source="#mesquite_large_a800-mesh-vertices" offset="0"/>
          <input semantic="NORMAL" source="#mesquite_large_a800-mesh-normals" offset="1"/>
          <input semantic="TEXCOORD" source="#mesquite_large_a800-mesh-map-0" offset="2" set="0"/>
          <p>1 0 0 2 0 1 0 0 2 3 1 3 4 1 4 2 1 5 5 2 6 6 2 7 4 2 8 7 3 9 8 3 10 6 3 11 9 4 12 10 4 13 8 4 14 11 5 15 12 5 16 10 5 17 13 6 18 14 6 19 12 6 20 15 7 21 16 7 22 14 7 23 17 8 24 13 8 25 9 8 26 17 9 27 18 9 28 16 9 29 19 10 30 0 10 31 18 10 32 6 11 33 10 11 34 14 11 35 21 12 36 22 12 37 20 12 38 22 13 39 25 13 40 24 13 41 25 14 42 26 14 43 24 14 44 27 15 45 28 15 46 26 15 47 29 16 48 30 16 49 28 16 50 30 17 51 33 17 52 32 17 53 21 18 54 33 18 55 29 18 56 33 19 57 34 19 58 32 19 59 34 20 60 21 20 61 20 20 62 30 21 63 32 21 64 34 21 65 37 22 66 38 22 67 36 22 68 38 23 69 41 23 70 40 23 71 41 24 72 42 24 73 40 24 74 42 25 75 45 25 76 44 25 77 45 26 78 46 26 79 44 26 80 46 27 81 49 27 82 48 27 83 45 28 84 43 28 85 41 28 86 49 29 87 50 29 88 48 29 89 51 30 90 36 30 91 50 30 92 50 31 93 38 31 94 42 31 95 52 32 96 55 32 97 54 32 98 55 33 99 56 33 100 54 33 101 56 34 102 59 34 103 58 34 104 59 35 105 60 35 106 58 35 107 61 36 108 62 36 109 60 36 110 62 37 111 65 37 112 64 37 113 59 38 114 57 38 115 65 38 116 65 39 117 66 39 118 64 39 119 66 40 120 53 40 121 52 40 122 58 41 123 62 41 124 66 41 125 69 42 126 70 42 127 68 42 128 73 43 129 74 43 130 72 43 131 76 44 132 79 44 133 78 44 134 81 45 135 82 45 136 80 45 137 85 46 138 86 46 139 84 46 140 88 47 141 91 47 142 90 47 143 93 48 144 94 48 145 92 48 146 1 49 147 3 49 148 2 49 149 3 50 150 5 50 151 4 50 152 5 51 153 7 51 154 6 51 155 7 52 156 9 52 157 8 52 158 9 53 159 11 53 160 10 53 161 11 54 162 13 54 163 12 54 164 13 55 165 15 55 166 14 55 167 15 56 168 17 56 169 16 56 170 5 57 171 3 57 172 1 57 173 1 58 174 19 58 175 17 58 176 17 59 177 15 59 178 13 59 179 13 60 180 11 60 181 9 60 182 9 61 183 7 61 184 5 61 185 5 62 186 1 62 187 9 62 188 1 63 189 17 63 190 9 63 191 17 64 192 19 64 193 18 64 194 19 65 195 1 65 196 0 65 197 18 66 198 0 66 199 2 66 200 2 67 201 4 67 202 6 67 203 6 68 204 8 68 205 10 68 206 10 69 207 12 69 208 14 69 209 14 70 210 16 70 211 18 70 212 18 71 213 2 71 214 14 71 215 2 72 216 6 72 217 14 72 218 21 73 219 23 73 220 22 73 221 22 74 222 23 74 223 25 74 224 25 75 225 27 75 226 26 75 227 27 76 228 29 76 229 28 76 230 29 77 231 31 77 232 30 77 233 30 78 234 31 78 235 33 78 236 25 79 237 23 79 238 21 79 239 21 80 240 35 80 241 33 80 242 33 81 243 31 81 244 29 81 245 29 82 246 27 82 247 25 82 248 25 83 249 21 83 250 29 83 251 33 84 252 35 84 253 34 84 254 34 85 255 35 85 256 21 85 257 34 86 258 20 86 259 26 86 260 20 87 261 22 87 262 26 87 263 22 88 264 24 88 265 26 88 266 26 89 267 28 89 268 34 89 269 28 90 270 30 90 271 34 90 272 37 91 273 39 91 274 38 91 275 38 92 276 39 92 277 41 92 278 41 93 279 43 93 280 42 93 281 42 94 282 43 94 283 45 94 284 45 95 285 47 95 286 46 95 287 46 96 288 47 96 289 49 96 290 41 97 291 39 97 292 37 97 293 37 98 294 51 98 295 41 98 296 51 99 297 49 99 298 41 99 299 49 100 300 47 100 301 41 100 302 47 101 303 45 101 304 41 101 305 49 102 306 51 102 307 50 102 308 51 103 309 37 103 310 36 103 311 50 104 312 36 104 313 38 104 314 38 105 315 40 105 316 42 105 317 42 106 318 44 106 319 46 106 320 46 107 321 48 107 322 42 107 323 48 108 324 50 108 325 42 108 326 52 109 327 53 109 328 55 109 329 55 110 330 57 110 331 56 110 332 56 111 333 57 111 334 59 111 335 59 112 336 61 112 337 60 112 338 61 113 339 63 113 340 62 113 341 62 114 342 63 114 343 65 114 344 57 115 345 55 115 346 65 115 347 55 116 348 53 116 349 65 116 350 53 117 351 67 117 352 65 117 353 65 118 354 63 118 355 61 118 356 61 119 357 59 119 358 65 119 359 65 120 360 67 120 361 66 120 362 66 121 363 67 121 364 53 121 365 66 122 366 52 122 367 54 122 368 54 123 369 56 123 370 58 123 371 58 124 372 60 124 373 62 124 374 62 125 375 64 125 376 66 125 377 66 126 378 54 126 379 58 126 380 69 127 381 71 127 382 70 127 383 73 128 384 75 128 385 74 128 386 76 129 387 77 129 388 79 129 389 81 130 390 83 130 391 82 130 392 85 131 393 87 131 394 86 131 395 88 132 396 89 132 397 91 132 398 93 133 399 95 133 400 94 133 401</p>
        </triangles>
      </mesh>
    </geometry>
  </library_geometries>
  <library_visual_scenes>
    <visual_scene id="Scene" name="Scene">
      <node id="base00" name="base00" type="NODE">
        <matrix sid="transform">1 0 0 0 0 1 0 0 0 0 1 0 0 0 0 1</matrix>
        <node id="start01" name="start01" type="NODE">
          <matrix sid="transform">1 0 0 0 0 1 0 0 0 0 1 0 0 0 0 1</matrix>
          <node id="mesquite_large_a800" name="mesquite_large_a800" type="NODE">
            <matrix sid="transform">1 0 0 0 0 1 0 0 0 0 1 0 0 0 0 1</matrix>
            <instance_geometry url="#mesquite_large_a800-mesh" name="mesquite_large_a800">
              <bind_material>
                <technique_common>
                  <instance_material symbol="ParkerVegAtlas-material" target="#ParkerVegAtlas-material">
                    <bind_vertex_input semantic="UVMap" input_semantic="TEXCOORD" input_set="0"/>
                  </instance_material>
                </technique_common>
              </bind_material>
            </instance_geometry>
          </node>
          <node id="mesquite_large_a200" name="mesquite_large_a200" type="NODE">
            <matrix sid="transform">1 0 0 0 0 1 0 0 0 0 1 0 0 0 0 1</matrix>
            <instance_geometry url="#mesquite_large_a200-mesh" name="mesquite_large_a200">
              <bind_material>
                <technique_common>
                  <instance_material symbol="ParkerVegAtlas-material" target="#ParkerVegAtlas-material">
                    <bind_vertex_input semantic="UVMap" input_semantic="TEXCOORD" input_set="0"/>
                  </instance_material>
                </technique_common>
              </bind_material>
            </instance_geometry>
          </node>
          <node id="mesquite_large_a50" name="mesquite_large_a50" type="NODE">
            <matrix sid="transform">1 0 0 0 0 1 0 0 0 0 1 0 0 0 0 1</matrix>
            <instance_geometry url="#mesquite_large_a50-mesh" name="mesquite_large_a50">
              <bind_material>
                <technique_common>
                  <instance_material symbol="ParkerVegAtlas-material" target="#ParkerVegAtlas-material">
                    <bind_vertex_input semantic="UVMap" input_semantic="TEXCOORD" input_set="0"/>
                  </instance_material>
                </technique_common>
              </bind_material>
            </instance_geometry>
          </node>
          <node id="nulldetail20" name="nulldetail20" type="NODE">
            <matrix sid="transform">1 0 0 0 0 1 0 0 0 0 1 0 0 0 0 1</matrix>
          </node>
        </node>
        <node id="collision-1" name="collision-1" type="NODE">
          <matrix sid="transform">1 0 0 0 0 1 0 0 0 0 1 0 0 0 0 1</matrix>
          <node id="Colmesh_trunk-1" name="Colmesh_trunk-1" type="NODE">
            <matrix sid="transform">1 0 0 0 0 1 0 0 0 0 1 0 0 0 0 1</matrix>
            <instance_geometry url="#Colmesh_trunk-1-mesh" name="Colmesh_trunk-1">
              <bind_material>
                <technique_common>
                  <instance_material symbol="Colmesh_Material-material" target="#Colmesh_Material-material">
                    <bind_vertex_input semantic="UVMap" input_semantic="TEXCOORD" input_set="0"/>
                  </instance_material>
                </technique_common>
              </bind_material>
            </instance_geometry>
          </node>
          <node id="Colmesh_canopy-1" name="Colmesh_canopy-1" type="NODE">
            <matrix sid="transform">1 0 0 0 0 1 0 0 0 0 1 0 0 0 0 1</matrix>
            <instance_geometry url="#Colmesh_canopy-1-mesh" name="Colmesh_canopy-1">
              <bind_material>
                <technique_common>
                  <instance_material symbol="Colmesh_Material-material" target="#Colmesh_Material-material">
                    <bind_vertex_input semantic="UVMap" input_semantic="TEXCOORD" input_set="0"/>
                  </instance_material>
                </technique_common>
              </bind_material>
            </instance_geometry>
          </node>
        </node>
      </node>
    </visual_scene>
  </library_visual_scenes>
  <scene>
    <instance_visual_scene url="#Scene"/>
  </scene>
</COLLADA>