<?xml version="1.0" encoding="utf-8"?>
<COLLADA xmlns="http://www.collada.org/2005/11/COLLADASchema" version="1.4.1" xmlns:xsi="http://www.w3.org/2001/XMLSchema-instance">
  <asset>
    <contributor>
      <author>Blender User</author>
      <authoring_tool>Blender 4.2.9 LTS commit date:2025-04-14, commit time:12:24, hash:a10f621e649a</authoring_tool>
    </contributor>
    <created>2026-08-01T08:05:55</created>
    <modified>2026-08-01T08:05:55</modified>
    <unit name="meter" meter="1"/>
    <up_axis>Z_UP</up_axis>
  </asset>
  <library_effects>
    <effect id="ParkerVegAtlas-effect">
      <profile_COMMON>
        <newparam sid="vegetation_atlas_2048_png-surface">
          <surface type="2D">
            <init_from>vegetation_atlas_2048_png</init_from>
          </surface>
        </newparam>
        <newparam sid="vegetation_atlas_2048_png-sampler">
          <sampler2D>
            <source>vegetation_atlas_2048_png-surface</source>
          </sampler2D>
        </newparam>
        <technique sid="common">
          <lambert>
            <emission>
              <color sid="emission">0 0 0 1</color>
            </emission>
            <diffuse>
              <texture texture="vegetation_atlas_2048_png-sampler" texcoord="UVMap"/>
            </diffuse>
            <index_of_refraction>
              <float sid="ior">1.5</float>
            </index_of_refraction>
          </lambert>
        </technique>
      </profile_COMMON>
    </effect>
    <effect id="Colmesh_Material-effect">
      <profile_COMMON>
        <technique sid="common">
          <lambert>
            <emission>
              <color sid="emission">0 0 0 1</color>
            </emission>
            <diffuse>
              <color sid="diffuse">1 0 1 1</color>
            </diffuse>
            <transparent opaque="A_ONE">
              <color sid="alpha">0 0 0 0.15</color>
            </transparent>
            <index_of_refraction>
              <float sid="ior">1.5</float>
            </index_of_refraction>
          </lambert>
        </technique>
      </profile_COMMON>
    </effect>
  </library_effects>
  <library_images>
    <image id="vegetation_atlas_2048_png" name="vegetation_atlas_2048_png">
      <init_from>vegetation_atlas_2048.png</init_from>
    </image>
  </library_images>
  <library_materials>
    <material id="ParkerVegAtlas-material" name="ParkerVegAtlas">
      <instance_effect url="#ParkerVegAtlas-effect"/>
    </material>
    <material id="Colmesh_Material-material" name="Colmesh_Material">
      <instance_effect url="#Colmesh_Material-effect"/>
    </material>
  </library_materials>
  <library_geometries>
    <geometry id="mesquite_small_a50-mesh" name="mesquite_small_a50">
      <mesh>
        <source id="mesquite_small_a50-mesh-positions">
          <float_array id="mesquite_small_a50-mesh-positions-array" count="24">-1.325092 0 -0.03109997 1.325092 0 -0.03109997 1.325092 0 3.1411 -1.325092 0 3.1411 0 -1.325092 -0.03109997 0 1.325092 -0.03109997 0 1.325092 3.1411 0 -1.325092 3.1411</float_array>
          <technique_common>
            <accessor source="#mesquite_small_a50-mesh-positions-array" count="8" stride="3">
              <param name="X" type="float"/>
              <param name="Y" type="float"/>
              <param name="Z" type="float"/>
            </accessor>
          </technique_common>
        </source>
        <source id="mesquite_small_a50-mesh-normals">
          <float_array id="mesquite_small_a50-mesh-normals-array" count="12">0 -1 0 1 0 0 0 -1 0 1 0 0</float_array>
          <technique_common>
            <accessor source="#mesquite_small_a50-mesh-normals-array" count="4" stride="3">
              <param name="X" type="float"/>
              <param name="Y" type="float"/>
              <param name="Z" type="float"/>
            </accessor>
          </technique_common>
        </source>
        <source id="mesquite_small_a50-mesh-map-0">
          <float_array id="mesquite_small_a50-mesh-map-0-array" count="24">1 0 0 1 0 0 1 0 0 1 0 0 1 0 1 1 0 1 1 0 1 1 0 1</float_array>
          <technique_common>
            <accessor source="#mesquite_small_a50-mesh-map-0-array" count="12" stride="2">
              <param name="S" type="float"/>
              <param name="T" type="float"/>
            </accessor>
          </technique_common>
        </source>
        <vertices id="mesquite_small_a50-mesh-vertices">
          <input semantic="POSITION" source="#mesquite_small_a50-mesh-positions"/>
        </vertices>
        <triangles material="ParkerVegAtlas-material" count="4">
          <input semantic="VERTEX" source="#mesquite_small_a50-mesh-vertices" offset="0"/>
          <input semantic="NORMAL" source="#mesquite_small_a50-mesh-normals" offset="1"/>
          <input semantic="TEXCOORD" source="#mesquite_small_a50-mesh-map-0" offset="2" set="0"/>
          <p>1 0 0 3 0 1 0 0 2 5 1 3 7 1 4 4 1 5 1 2 6 2 2 7 3 2 8 5 3 9 6 3 10 7 3 11</p>
        </triangles>
      </mesh>
    </geometry>
    <geometry id="mesquite_small_a200-mesh" name="mesquite_small_a200">
      <mesh>
        <source id="mesquite_small_a200-mesh-positions">
          <float_array id="mesquite_small_a200-mesh-positions-array" count="186">0.03218466 0.1253958 0 -0.03218466 0.1253958 1.65 0.07347315 0.1011271 1.65 0.1292042 0.008139967 0 0.1292042 -0.008139967 1.65 0.07347315 -0.1011271 0 -0.03218466 -0.1253958 0 0.03218466 -0.1253958 1.65 -0.07347315 -0.1011271 1.65 -0.1292042 -0.008139967 0 -0.1292042 0.008139967 1.65 -0.07347315 0.1011271 0 -0.3104618 -0.0133025 1.512743 -0.02050763 0.02071797 2.205068 -0.3340011 -0.08747988 1.523719 0.005818843 -0.0622608 2.192792 -0.4058188 -0.06226074 1.557208 -0.06599879 -0.08747988 2.226281 -0.3794922 0.02071797 1.544932 -0.08953821 -0.0133025 2.237257 0.4058188 0.05101728 1.557208 0.06599879 0.07623648 2.226281 0.3829625 -0.02822464 1.54655 0.08885514 -0.003005504 2.236939 0.00271207 -0.01881188 2.19677 0.3077582 8.23406e-4 1.511482 0.3385913 0.07699012 1.52586 0.005469977 0.0637806 2.198056 0.160731 -0.07129257 1.510026 0.03783297 -0.04607337 2.250318 0.1089473 -0.1627191 1.503208 0.04924076 -0.1475427 2.25182 0.06649589 -0.05548626 1.497619 -0.05046951 -0.09072309 2.238692 -1.1 0 1.57 1.1 0 1.57 -1.1 0 3.11 1.1 0 3.11 -0.55 -0.952628 1.57 0.55 0.952628 1.57 -0.55 -0.952628 3.11 0.55 0.952628 3.11 0.5500001 -0.952628 1.57 -0.5500001 0.952628 1.57 0.5500001 -0.952628 3.11 -0.5500001 0.952628 3.11 1.1 0 1.57 -1.1 -1.29823e-7 1.57 1.1 1.29823e-7 3.11 -1.1 0 3.11 0.5499999 0.952628 1.57 -0.5499999 -0.952628 1.57 0.5499999 0.952628 3.11 -0.5499999 -0.952628 3.11 -0.5499999 0.952628 1.57 0.5499999 -0.952628 1.57 -0.5499999 0.952628 3.11 0.5499999 -0.952628 3.11 -0.379087 -1.256337 2.537639 1.261992 -0.359811 2.537639 -1.261992 0.359811 2.862361 0.379087 1.256337 2.862361</float_array>
          <technique_common>
            <accessor source="#mesquite_small_a200-mesh-positions-array" count="62" stride="3">
              <param name="X" type="float"/>
              <param name="Y" type="float"/>
              <param name="Z" type="float"/>
            </accessor>
          </technique_common>
        </source>
        <source id="mesquite_small_a200-mesh-normals">
          <float_array id="mesquite_small_a200-mesh-normals-array" count="198">0.2238538 -0.9745836 -0.008732914 0 0 1 -0.2238538 0.9745836 -0.008732914 0.358847 0.9127696 -0.1951423 0.8464918 -0.330401 -0.4174768 -0.2840171 -0.9526785 0.1083424 -0.8647052 0.3303229 0.3783805 0.3081598 0.9436152 0.120946 0.8726495 -0.3031947 0.3828262 -0.2914032 -0.9436699 -0.1567525 0.1661872 0.9860759 -0.006002902 0.8648628 -0.4957488 0.07902854 0.8908107 0.4543526 0.004482924 -0.9145961 -0.3705127 -0.1619703 0.2238538 0.9745836 0.008732914 0.7704207 -0.637459 0.009902477 -0.8908107 -0.4543526 0.004482924 -0.2238538 -0.9745836 0.008732914 -0.7704207 0.637459 0.009902477 0.4226169 6.69012e-7 0.9063085 0 0 -1 0.8647051 0.3303228 -0.3783806 0.2840168 -0.9526786 -0.1083423 -0.8464913 -0.3304022 0.4174766 -0.4226172 7.80515e-7 -0.9063082 -0.3588471 0.9127696 0.1951424 -0.4226196 -1.37047e-6 0.9063071 0.8541901 0.3031949 0.4224123 0.1369361 -0.9860758 0.09435546 -0.9133493 0.03681147 -0.4055095 0.4226166 -1.78196e-7 -0.9063085 -0.171625 0.9829667 -0.06573599 0 -1 0 0.9808346 0.1126248 0.1589945 -0.4928308 -0.8698552 -0.02167201 -0.1305274 1.57082e-6 0.9914447 -0.4480957 0.8935395 -0.02823776 0.1305267 -2.87505e-7 -0.9914448 0.8660255 -0.5 0 0.8660254 0.5000001 0 0 1 0 -0.8660255 0.4999999 0 -0.8660255 -0.4999999 0 0.08325141 -0.1523907 0.9848077 0 0 1 0 0 1 0 0 1 0.7704207 0.637459 -0.009902477 0.8908107 -0.4543526 -0.004482924 -0.7704207 -0.637459 -0.009902477 -0.8908107 0.4543526 -0.004482924 0.4226166 0 0.9063086 0 0 -1 0 0 -1 0 0 -1 -0.4226167 -5.43499e-7 -0.9063085 -0.422617 2.66524e-6 0.9063084 -0.8212895 0.4077834 -0.3989943 0.4226177 3.66364e-7 -0.9063081 0 -1 0 0.8660255 -0.5 0 0.8660254 0.5000001 0 0 1 0 -0.8660255 0.4999999 0 -0.8660255 -0.4999999 0 0.08325141 -0.1523907 0.9848077</float_array>
          <technique_common>
            <accessor source="#mesquite_small_a200-mesh-normals-array" count="66" stride="3">
              <param name="X" type="float"/>
              <param name="Y" type="float"/>
              <param name="Z" type="float"/>
            </accessor>
          </technique_common>
        </source>
        <source id="mesquite_small_a200-mesh-map-0">
          <float_array id="mesquite_small_a200-mesh-map-0-array" count="396">0.75 0.9013415 0.5 1 0.5 0.75 0.3910685 0.4441641 0.1089315 0.0558359 0.4782536 0.2343712 0.75 0.9013415 0.5 1 0.5 0.75 0.5 0.75 0.75 0.8750002 0.5 1 0.75 0.9038465 0.5 1 0.5 0.75 0.75 0.9038461 0.5 1 0.5 0.75 0.75 0.8749998 0.5 1 0.5 0.75 0.75 0.9038462 0.5 1 0.5 0.75 0.75 0.903846 0.5 1 0.5 0.75 0.75 0.9212732 0.5 1 0.5 0.75 0.75 0.9038462 0.5 1 0.5 0.75 0.75 0.8749999 0.5 1 0.5 0.75 0.5 1 0.75 0.75 0.75 1 0.5 0.75 0.75 0.8750001 0.5 1 0.75 0.75 0.75 1 0.5 0.8486585 0.5 1 0.75 0.75 0.75 1 0.5 1 0.75 0.75 0.75 1 0.75 0.75 0.75 1 0.5 0.8486585 0.5 1 0.75 0.75 0.75 1 0.04514712 0.3348527 0.4467418 0.1455655 0.334853 0.4548528 0.8910685 0.0558359 0.6089316 0.4441641 0.9782536 0.2656288 0.75 0.75 0.75 1 0.5 0.8749998 0.75 0.75 0.75 1 0.5 0.8461536 0.75 0.75 0.75 1 0.5 0.8461539 0.9548527 0.3348529 0.5532581 0.1455658 0.6651471 0.4548528 0.5 0.8749998 0.75 0.75 0.75 1 0.08029437 0.4197056 0.4467419 0.1455658 0.3544342 0.4467419 0.75 0.75 0.75 1 0.5 0.8461539 0.75 0.75 0.75 1 0.5 0.8461538 0.75 1 0.5 0.75 0.75 0.75 0.8544343 0.05325806 0.6651473 0.4548528 0.9467419 0.3544342 0.75 0.75 0.75 1 0.5 0.8750001 0.75 0.75 1 1 0.75 1 0.75 0.75 0.75 1 0.5 0.8461539 0.75 0.75 0.75 1 0.5 0.9038459 0.3673027 0.09884029 0.3544342 0.4467419 0.06016832 0.2739404 0.75 0.75 0.75 1 0.5 0.828727 0.6096569 0.3837099 0.9467419 0.3544342 0.7436994 0.06293612 0.75 0.75 1 1 0.75 1 0.75 0.75 1 1 0.75 1 0.75 0.75 1 1 0.75 1 0.75 0.75 1 1 0.75 1 0.75 0.75 1 1 0.75 1 0.75 1 1 0.75 1 1 0.3910685 0.4441641 0.1943296 0.4719116 0.02174639 0.2656288 0.02174639 0.2656288 0.1089315 0.0558359 0.3910685 0.4441641 0.1089315 0.0558359 0.3056704 0.02808839 0.4782536 0.2343712 0.5 1 0.5 0.75 0.75 0.75 0.5 1 0.5 0.75 0.75 0.75 0.5 1 0.5 0.75 0.75 0.75 0.5 1 0.5 0.75 0.75 0.75 0.04514712 0.3348527 0.1455658 0.05325806 0.4467418 0.1455655 0.8910685 0.0558359 0.6943296 0.02808839 0.5217465 0.2343712 0.5217465 0.2343712 0.6089316 0.4441641 0.8910685 0.0558359 0.6089316 0.4441641 0.8056704 0.4719116 0.9782536 0.2656288 0.9548527 0.3348529 0.8544344 0.05325812 0.5532581 0.1455658 0.08029437 0.4197056 0.1096569 0.1162899 0.4467419 0.1455658 0.75 1 0.5 1 0.5 0.75 0.8544343 0.05325806 0.5451473 0.165147 0.6651473 0.4548528 0.75 0.75 1 0.75 1 1 0.75 0.75 1 0.75 1 1 0.75 0.75 1 0.75 1 1 0.75 0.75 1 0.75 1 1 0.75 0.75 1 0.75 1 1 0.75 0.75 1 0.75 1 1 0.75 1 0.75 0.75 1 0.75</float_array>
          <technique_common>
            <accessor source="#mesquite_small_a200-mesh-map-0-array" count="198" stride="2">
              <param name="S" type="float"/>
              <param name="T" type="float"/>
            </accessor>
          </technique_common>
        </source>
        <vertices id="mesquite_small_a200-mesh-vertices">
          <input semantic="POSITION" source="#mesquite_small_a200-mesh-positions"/>
        </vertices>
        <triangles material="ParkerVegAtlas-material" count="66">
          <input semantic="VERTEX" source="#mesquite_small_a200-mesh-vertices" offset="0"/>
          <input semantic="NORMAL" source="#mesquite_small_a200-mesh-normals" offset="1"/>
          <input semantic="TEXCOORD" source="#mesquite_small_a200-mesh-map-0" offset="2" set="0"/>
          <p>7 0 0 6 0 1 5 0 2 2 1 3 8 1 4 4 1 5 1 2 6 0 2 7 11 2 8 18 3 9 13 3 10 12 3 11 15 4 12 14 4 13 12 4 14 17 5 15 16 5 16 14 5 17 19 6 18 18 6 19 16 6 20 21 7 21 20 7 22 26 7 23 23 8 24 22 8 25 20 8 26 24 9 27 25 9 28 22 9 29 29 10 30 28 10 31 32 10 32 31 11 33 30 11 34 28 11 35 3 12 36 2 12 37 4 12 38 30 13 39 33 13 40 32 13 41 1 14 42 2 14 43 0 14 44 5 15 45 4 15 46 7 15 47 9 16 48 8 16 49 10 16 50 7 17 51 8 17 52 6 17 53 11 18 54 10 18 55 1 18 56 19 19 57 15 19 58 13 19 59 5 20 60 11 20 61 3 20 62 13 21 63 15 21 64 12 21 65 15 22 66 17 22 67 14 22 68 17 23 69 19 23 70 16 23 71 12 24 72 16 24 73 18 24 74 18 25 75 19 25 76 13 25 77 27 26 78 23 26 79 21 26 80 21 27 81 23 27 82 20 27 83 23 28 84 24 28 85 22 28 86 27 29 87 25 29 88 24 29 89 22 30 90 26 30 91 20 30 92 27 31 93 21 31 94 26 31 95 34 32 96 37 32 97 36 32 98 29 33 99 31 33 100 28 33 101 31 34 102 33 34 103 30 34 104 31 35 105 29 35 106 33 35 107 33 36 108 29 36 109 32 36 110 32 37 111 28 37 112 30 37 113 38 38 114 41 38 115 40 38 116 42 39 117 45 39 118 44 39 119 46 40 120 49 40 121 48 40 122 50 41 123 53 41 124 52 41 125 54 42 126 57 42 127 56 42 128 60 43 129 59 43 130 61 43 131 2 44 132 1 44 133 10 44 134 10 45 135 8 45 136 2 45 137 8 46 138 7 46 139 4 46 140 3 47 141 0 47 142 2 47 143 5 48 144 3 48 145 4 48 146 9 49 147 6 49 148 8 49 149 11 50 150 9 50 151 10 50 152 19 51 153 17 51 154 15 51 155 5 52 156 6 52 157 9 52 158 9 53 159 11 53 160 5 53 161 11 54 162 0 54 163 3 54 164 12 55 165 14 55 166 16 55 167 27 56 168 24 56 169 23 56 170 27 57 171 26 57 172 25 57 173 22 58 174 25 58 175 26 58 176 34 59 177 35 59 178 37 59 179 38 60 180 39 60 181 41 60 182 42 61 183 43 61 184 45 61 185 46 62 186 47 62 187 49 62 188 50 63 189 51 63 190 53 63 191 54 64 192 55 64 193 57 64 194 60 65 195 58 65 196 59 65 197</p>
        </triangles>
      </mesh>
    </geometry>
    <geometry id="Colmesh_canopy-1-mesh" name="Colmesh_canopy-1">
      <mesh>
        <source id="Colmesh_canopy-1-mesh-positions">
          <float_array id="Colmesh_canopy-1-mesh-positions-array" count="48">0 0.77 1.815 0 0.77 2.865 0.5444722 0.5444722 1.815 0.5444722 0.5444722 2.865 0.77 0 1.815 0.77 0 2.865 0.5444722 -0.5444722 1.815 0.5444722 -0.5444722 2.865 0 -0.77 1.815 0 -0.77 2.865 -0.5444722 -0.5444722 1.815 -0.5444722 -0.5444722 2.865 -0.77 0 1.815 -0.77 0 2.865 -0.5444722 0.5444722 1.815 -0.5444722 0.5444722 2.865</float_array>
          <technique_common>
            <accessor source="#Colmesh_canopy-1-mesh-positions-array" count="16" stride="3">
              <param name="X" type="float"/>
              <param name="Y" type="float"/>
              <param name="Z" type="float"/>
            </accessor>
          </technique_common>
        </source>
        <source id="Colmesh_canopy-1-mesh-normals">
          <float_array id="Colmesh_canopy-1-mesh-normals-array" count="84">0.3826834 0.9238795 0 0.9238795 0.3826834 0 0.9238795 -0.3826834 0 0.3826834 -0.9238795 0 -0.3826834 -0.9238795 0 -0.9238795 -0.3826834 0 0 0 1 -0.9238795 0.3826834 0 -0.3826834 0.9238795 0 0 0 -1 0.3826834 0.9238795 0 0.9238795 0.3826834 0 0.9238795 -0.3826834 0 0.3826834 -0.9238795 0 -0.3826834 -0.9238795 0 -0.9238795 -0.3826834 0 0 0 1 0 0 1 0 0 1 0 0 1 0 0 1 -0.9238795 0.3826834 0 -0.3826834 0.9238795 0 0 0 -1 0 0 -1 0 0 -1 0 0 -1 0 0 -1</float_array>
          <technique_common>
            <accessor source="#Colmesh_canopy-1-mesh-normals-array" count="28" stride="3">
              <param name="X" type="float"/>
              <param name="Y" type="float"/>
              <param name="Z" type="float"/>
            </accessor>
          </technique_common>
        </source>
        <source id="Colmesh_canopy-1-mesh-map-0">
          <float_array id="Colmesh_canopy-1-mesh-map-0-array" count="168">1 1 0.875 0.5 1 0.5 0.875 1 0.75 0.5 0.875 0.5 0.75 1 0.625 0.5 0.75 0.5 0.625 1 0.5 0.5 0.625 0.5 0.5 1 0.375 0.5 0.5 0.5 0.375 1 0.25 0.5 0.375 0.5 0.00999999 0.25 0.25 0.00999999 0.49 0.25 0.25 1 0.125 0.5 0.25 0.5 0.125 1 0 0.5 0.125 0.5 0.9197056 0.08029437 0.5802944 0.08029437 0.5802944 0.4197056 1 1 0.875 1 0.875 0.5 0.875 1 0.75 1 0.75 0.5 0.75 1 0.625 1 0.625 0.5 0.625 1 0.5 1 0.5 0.5 0.5 1 0.375 1 0.375 0.5 0.375 1 0.25 1 0.25 0.5 0.49 0.25 0.4197056 0.4197056 0.25 0.49 0.25 0.49 0.08029437 0.4197056 0.00999999 0.25 0.00999999 0.25 0.08029437 0.08029437 0.25 0.00999999 0.25 0.00999999 0.4197056 0.08029437 0.49 0.25 0.49 0.25 0.25 0.49 0.00999999 0.25 0.25 1 0.125 1 0.125 0.5 0.125 1 0 1 0 0.5 0.5802944 0.4197056 0.75 0.49 0.9197056 0.4197056 0.9197056 0.4197056 0.99 0.25 0.9197056 0.08029437 0.9197056 0.08029437 0.75 0.00999999 0.5802944 0.08029437 0.5802944 0.08029437 0.51 0.25 0.5802944 0.4197056 0.5802944 0.4197056 0.9197056 0.4197056 0.9197056 0.08029437</float_array>
          <technique_common>
            <accessor source="#Colmesh_canopy-1-mesh-map-0-array" count="84" stride="2">
              <param name="S" type="float"/>
              <param name="T" type="float"/>
            </accessor>
          </technique_common>
        </source>
        <vertices id="Colmesh_canopy-1-mesh-vertices">
          <input semantic="POSITION" source="#Colmesh_canopy-1-mesh-positions"/>
        </vertices>
        <triangles material="Colmesh_Material-material" count="28">
          <input semantic="VERTEX" source="#Colmesh_canopy-1-mesh-vertices" offset="0"/>
          <input semantic="NORMAL" source="#Colmesh_canopy-1-mesh-normals" offset="1"/>
          <input semantic="TEXCOORD" source="#Colmesh_canopy-1-mesh-map-0" offset="2" set="0"/>
          <p>1 0 0 2 0 1 0 0 2 3 1 3 4 1 4 2 1 5 5 2 6 6 2 7 4 2 8 7 3 9 8 3 10 6 3 11 9 4 12 10 4 13 8 4 14 11 5 15 12 5 16 10 5 17 13 6 18 9 6 19 5 6 20 13 7 21 14 7 22 12 7 23 15 8 24 0 8 25 14 8 26 6 9 27 10 9 28 14 9 29 1 10 30 3 10 31 2 10 32 3 11 33 5 11 34 4 11 35 5 12 36 7 12 37 6 12 38 7 13 39 9 13 40 8 13 41 9 14 42 11 14 43 10 14 44 11 15 45 13 15 46 12 15 47 5 16 48 3 16 49 1 16 50 1 17 51 15 17 52 13 17 53 13 18 54 11 18 55 9 18 56 9 19 57 7 19 58 5 19 59 5 20 60 1 20 61 13 20 62 13 21 63 15 21 64 14 21 65 15 22 66 1 22 67 0 22 68 14 23 69 0 23 70 2 23 71 2 24 72 4 24 73 6 24 74 6 25 75 8 25 76 10 25 77 10 26 78 12 26 79 14 26 80 14 27 81 2 27 82 6 27 83</p>
        </triangles>
      </mesh>
    </geometry>
    <geometry id="Colmesh_trunk-1-mesh" name="Colmesh_trunk-1">
      <mesh>
        <source id="Colmesh_trunk-1-mesh-positions">
          <float_array id="Colmesh_trunk-1-mesh-positions-array" count="48">0 0.1625 0 0 0.1625 1.65 0.1149048 0.1149048 0 0.1149048 0.1149048 1.65 0.1625 0 0 0.1625 0 1.65 0.1149048 -0.1149048 0 0.1149048 -0.1149048 1.65 0 -0.1625 0 0 -0.1625 1.65 -0.1149048 -0.1149048 0 -0.1149048 -0.1149048 1.65 -0.1625 0 0 -0.1625 0 1.65 -0.1149048 0.1149048 0 -0.1149048 0.1149048 1.65</float_array>
          <technique_common>
            <accessor source="#Colmesh_trunk-1-mesh-positions-array" count="16" stride="3">
              <param name="X" type="float"/>
              <param name="Y" type="float"/>
              <param name="Z" type="float"/>
            </accessor>
          </technique_common>
        </source>
        <source id="Colmesh_trunk-1-mesh-normals">
          <float_array id="Colmesh_trunk-1-mesh-normals-array" count="84">0.3826835 0.9238795 0 0.9238795 0.3826835 0 0.9238795 -0.3826835 0 0.3826835 -0.9238795 0 -0.3826835 -0.9238795 0 -0.9238795 -0.3826835 0 0 0 1 -0.9238795 0.3826835 0 -0.3826835 0.9238795 0 0 0 -1 0.3826835 0.9238795 0 0.9238795 0.3826835 0 0.9238795 -0.3826835 0 0.3826835 -0.9238795 0 -0.3826835 -0.9238795 0 -0.9238795 -0.3826835 0 0 0 1 0 0 1 0 0 1 0 0 1 0 0 1 -0.9238795 0.3826835 0 -0.3826835 0.9238795 0 0 0 -1 0 0 -1 0 0 -1 0 0 -1 0 0 -1</float_array>
          <technique_common>
            <accessor source="#Colmesh_trunk-1-mesh-normals-array" count="28" stride="3">
              <param name="X" type="float"/>
              <param name="Y" type="float"/>
              <param name="Z" type="float"/>
            </accessor>
          </technique_common>
        </source>
        <source id="Colmesh_trunk-1-mesh-map-0">
          <float_array id="Colmesh_trunk-1-mesh-map-0-array" count="168">1 1 0.875 0.5 1 0.5 0.875 1 0.75 0.5 0.875 0.5 0.75 1 0.625 0.5 0.75 0.5 0.625 1 0.5 0.5 0.625 0.5 0.5 1 0.375 0.5 0.5 0.5 0.375 1 0.25 0.5 0.375 0.5 0.00999999 0.25 0.25 0.00999999 0.49 0.25 0.25 1 0.125 0.5 0.25 0.5 0.125 1 0 0.5 0.125 0.5 0.9197056 0.08029437 0.5802944 0.08029437 0.5802944 0.4197056 1 1 0.875 1 0.875 0.5 0.875 1 0.75 1 0.75 0.5 0.75 1 0.625 1 0.625 0.5 0.625 1 0.5 1 0.5 0.5 0.5 1 0.375 1 0.375 0.5 0.375 1 0.25 1 0.25 0.5 0.49 0.25 0.4197056 0.4197056 0.25 0.49 0.25 0.49 0.08029437 0.4197056 0.00999999 0.25 0.00999999 0.25 0.08029437 0.08029437 0.25 0.00999999 0.25 0.00999999 0.4197056 0.08029437 0.49 0.25 0.49 0.25 0.25 0.49 0.00999999 0.25 0.25 1 0.125 1 0.125 0.5 0.125 1 0 1 0 0.5 0.5802944 0.4197056 0.75 0.49 0.9197056 0.4197056 0.9197056 0.4197056 0.99 0.25 0.9197056 0.08029437 0.9197056 0.08029437 0.75 0.00999999 0.5802944 0.08029437 0.5802944 0.08029437 0.51 0.25 0.5802944 0.4197056 0.5802944 0.4197056 0.9197056 0.4197056 0.9197056 0.08029437</float_array>
          <technique_common>
            <accessor source="#Colmesh_trunk-1-mesh-map-0-array" count="84" stride="2">
              <param name="S" type="float"/>
              <param name="T" type="float"/>
            </accessor>
          </technique_common>
        </source>
        <vertices id="Colmesh_trunk-1-mesh-vertices">
          <input semantic="POSITION" source="#Colmesh_trunk-1-mesh-positions"/>
        </vertices>
        <triangles material="Colmesh_Material-material" count="28">
          <input semantic="VERTEX" source="#Colmesh_trunk-1-mesh-vertices" offset="0"/>
          <input semantic="NORMAL" source="#Colmesh_trunk-1-mesh-normals" offset="1"/>
          <input semantic="TEXCOORD" source="#Colmesh_trunk-1-mesh-map-0" offset="2" set="0"/>
          <p>1 0 0 2 0 1 0 0 2 3 1 3 4 1 4 2 1 5 5 2 6 6 2 7 4 2 8 7 3 9 8 3 10 6 3 11 9 4 12 10 4 13 8 4 14 11 5 15 12 5 16 10 5 17 13 6 18 9 6 19 5 6 20 13 7 21 14 7 22 12 7 23 15 8 24 0 8 25 14 8 26 6 9 27 10 9 28 14 9 29 1 10 30 3 10 31 2 10 32 3 11 33 5 11 34 4 11 35 5 12 36 7 12 37 6 12 38 7 13 39 9 13 40 8 13 41 9 14 42 11 14 43 10 14 44 11 15 45 13 15 46 12 15 47 5 16 48 3 16 49 1 16 50 1 17 51 15 17 52 13 17 53 13 18 54 11 18 55 9 18 56 9 19 57 7 19 58 5 19 59 5 20 60 1 20 61 13 20 62 13 21 63 15 21 64 14 21 65 15 22 66 1 22 67 0 22 68 14 23 69 0 23 70 2 23 71 2 24 72 4 24 73 6 24 74 6 25 75 8 25 76 10 25 77 10 26 78 12 26 79 14 26 80 14 27 81 2 27 82 6 27 83</p>
        </triangles>
      </mesh>
    </geometry>
    <geometry id="mesquite_small_a800-mesh" name="mesquite_small_a800">
      <mesh>
        <source id="mesquite_small_a800-mesh-positions">
          <float_array id="mesquite_small_a800-mesh-positions-array" count="288">0 0.125 0 0 0.125 1.65 0.07347315 0.1011271 0 0.07347315 0.1011271 1.65 0.1188821 0.03862708 0 0.1188821 0.03862708 1.65 0.1188821 -0.03862708 0 0.1188821 -0.03862708 1.65 0.07347315 -0.1011271 0 0.07347315 -0.1011271 1.65 0 -0.125 0 0 -0.125 1.65 -0.07347315 -0.1011271 0 -0.07347315 -0.1011271 1.65 -0.1188821 -0.03862708 0 -0.1188821 -0.03862708 1.65 -0.1188821 0.03862708 0 -0.1188821 0.03862708 1.65 -0.07347315 0.1011271 0 -0.07347315 0.1011271 1.65 -0.3584818 0.02100062 1.535135 -0.04151815 0.02100062 2.214865 -0.3224337 0.004525423 1.518325 -0.005469977 0.004525423 2.198056 -0.307502 -0.03524929 1.511362 0.009461641 -0.03524929 2.191093 -0.3224337 -0.07502406 1.518325 -0.005469977 -0.07502406 2.198056 -0.3584818 -0.09149932 1.535135 -0.04151815 -0.09149932 2.214865 -0.39453 -0.07502406 1.551944 -0.07756632 -0.07502406 2.231675 -0.4094617 -0.03524929 1.558907 -0.09249794 -0.03524929 2.238638 -0.39453 0.004525423 1.551944 -0.07756632 0.004525423 2.231675 0.3584818 0.08025586 1.535135 0.04151815 0.08025586 2.214865 0.39453 0.0637806 1.551944 0.07756632 0.0637806 2.231675 0.4094617 0.02400588 1.558907 0.09249794 0.02400588 2.238638 0.39453 -0.01576882 1.551944 0.07756632 -0.01576882 2.231675 0.3584818 -0.03224408 1.535135 0.04151815 -0.03224408 2.214865 0.3224337 -0.01576882 1.518325 0.005469977 -0.01576882 2.198056 0.307502 0.02400588 1.511362 -0.009461641 0.02400588 2.191093 0.3224337 0.0637806 1.518325 0.005469977 0.0637806 2.198056 0.1089473 -0.04205399 1.503208 0.01105266 -0.04205399 2.246792 0.1483818 -0.05852919 1.5084 0.0504871 -0.05852919 2.251983 0.1647161 -0.09830397 1.51055 0.06682139 -0.09830397 2.254134 0.1483818 -0.1380787 1.5084 0.0504871 -0.1380787 2.251983 0.1089473 -0.154554 1.503208 0.01105266 -0.154554 2.246792 0.06951284 -0.1380787 1.498016 -0.02838176 -0.1380787 2.2416 0.05317854 -0.09830397 1.495866 -0.04471606 -0.09830397 2.23945 0.06951284 -0.05852919 1.498016 -0.02838176 -0.05852919 2.2416 -1.1 0 1.57 1.1 0 1.57 -1.1 0 3.11 1.1 0 3.11 -0.55 -0.952628 1.57 0.55 0.952628 1.57 -0.55 -0.952628 3.11 0.55 0.952628 3.11 0.5500001 -0.952628 1.57 -0.5500001 0.952628 1.57 0.5500001 -0.952628 3.11 -0.5500001 0.952628 3.11 1.1 0 1.57 -1.1 -1.29823e-7 1.57 1.1 1.29823e-7 3.11 -1.1 0 3.11 0.5499999 0.952628 1.57 -0.5499999 -0.952628 1.57 0.5499999 0.952628 3.11 -0.5499999 -0.952628 3.11 -0.5499999 0.952628 1.57 0.5499999 -0.952628 1.57 -0.5499999 0.952628 3.11 0.5499999 -0.952628 3.11 -0.379087 -1.256337 2.537639 1.261992 -0.359811 2.537639 -1.261992 0.359811 2.862361 0.379087 1.256337 2.862361</float_array>
          <technique_common>
            <accessor source="#mesquite_small_a800-mesh-positions-array" count="96" stride="3">
              <param name="X" type="float"/>
              <param name="Y" type="float"/>
              <param name="Z" type="float"/>
            </accessor>
          </technique_common>
        </source>
        <source id="mesquite_small_a800-mesh-normals">
          <float_array id="mesquite_small_a800-mesh-normals-array" count="402">0.309017 0.9510565 0 0.809017 0.5877853 0 1 0 0 0.809017 -0.5877853 0 0.309017 -0.9510565 0 -0.309017 -0.9510565 0 -0.809017 -0.5877853 0 -1 0 0 0 0 1 -0.809017 0.5877853 0 -0.309017 0.9510565 0 0 0 -1 0.3468292 0.9238794 -0.1617291 0.837319 0.3826839 -0.3904483 0.8373194 -0.3826831 -0.3904485 0.3468292 -0.9238795 -0.1617291 -0.3468291 -0.9238795 0.161729 -0.8373191 -0.3826838 0.3904483 0.4226177 0 0.906308 -0.8373193 0.3826835 0.3904483 -0.3468291 0.9238796 0.161729 -0.4226181 0 -0.9063079 0.3468291 0.9238795 0.161729 0.8373191 0.3826838 0.3904483 0.8373193 -0.3826835 0.3904483 0.3468291 -0.9238796 0.161729 -0.3468292 -0.9238794 -0.1617291 -0.837319 -0.3826839 -0.3904483 -0.4226177 0 0.906308 -0.8373194 0.3826831 -0.3904485 -0.3468292 0.9238795 -0.1617291 0.4226181 0 -0.9063079 0.3794096 0.9238796 0.04995018 0.9159756 0.3826833 0.1205905 0.9159756 -0.3826835 0.1205905 0.3794098 -0.9238794 0.04995024 -0.3794099 -0.9238794 -0.04995024 -0.9159756 -0.3826834 -0.1205905 -0.1305262 -2.10084e-6 0.9914448 -0.9159756 0.3826834 -0.1205905 -0.3794095 0.9238795 -0.04995018 0.1305271 0 -0.9914448 0 -1 0 0.8660255 -0.5 0 0.8660254 0.5000001 0 0 1 0 -0.8660255 0.4999999 0 -0.8660255 -0.4999999 0 0.08325141 -0.1523907 0.9848077 0.309017 0.9510565 0 0.809017 0.5877853 0 1 0 0 0.809017 -0.5877853 0 0.309017 -0.9510565 0 -0.309017 -0.9510565 0 -0.809017 -0.5877853 0 -1 0 0 0 0 1 0 0 1 0 0 1 0 0 1 0 0 1 0 0 1 0 0 1 -0.809017 0.5877853 0 -0.309017 0.9510565 0 0 0 -1 0 0 -1 0 0 -1 0 0 -1 0 0 -1 0 0 -1 0 0 -1 0.3468286 0.9238798 -0.1617288 0.8373199 0.3826819 -0.3904486 0.8373199 -0.3826819 -0.3904486 0.3468286 -0.9238798 -0.1617288 -0.3468293 -0.9238795 0.1617291 -0.8373191 -0.3826838 0.3904483 0.4226246 7.5502e-6 0.9063048 0.4226161 1.84314e-6 0.9063088 0.4226161 -1.84314e-6 0.9063088 0.4226246 -7.5502e-6 0.9063048 0.4226177 0 0.906308 -0.8373191 0.3826838 0.3904483 -0.3468293 0.9238795 0.1617291 -0.422618 -3.68629e-6 -0.9063079 -0.4226199 0 -0.9063071 -0.422618 3.68629e-6 -0.9063079 -0.422618 -2.17079e-6 -0.9063079 -0.4226167 1.53498e-6 -0.9063085 0.3468293 0.9238795 0.1617291 0.8373191 0.3826838 0.3904483 0.8373191 -0.3826838 0.3904483 0.3468293 -0.9238795 0.1617291 -0.3468286 -0.9238798 -0.1617288 -0.8373199 -0.3826819 -0.3904486 -0.4226161 1.84314e-6 0.9063088 -0.4226246 7.5502e-6 0.9063048 -0.4226246 -7.5502e-6 0.9063048 -0.4226161 -1.84314e-6 0.9063088 -0.4226177 0 0.906308 -0.8373199 0.3826819 -0.3904486 -0.3468286 0.9238798 -0.1617288 0.422618 -3.68629e-6 -0.9063079 0.4226133 0 -0.9063101 0.422618 3.68629e-6 -0.9063079 0.4226199 0 -0.9063071 0.4226181 0 -0.9063079 0.3794097 0.9238795 0.04995024 0.9159755 0.3826837 0.1205905 0.9159755 -0.3826837 0.1205905 0.3794099 -0.9238793 0.04995024 -0.37941 -0.9238793 -0.04995024 -0.9159755 -0.3826839 -0.1205904 -0.1305262 2.10084e-6 0.991445 -0.1305248 -1.48092e-6 0.9914451 -0.1305227 -3.54195e-6 0.9914453 -0.1305227 3.54195e-6 0.9914453 -0.1305247 1.47172e-6 0.9914451 -0.9159755 0.3826838 -0.1205904 -0.3794097 0.9238795 -0.04995018 0.1305271 0 -0.9914447 0.1305241 0 -0.9914451 0.1305271 0 -0.9914447 0.1305241 0 -0.9914451 0.1305271 0 -0.9914448 0 -1 0 0.8660255 -0.5 0 0.8660254 0.5000001 0 0 1 0 -0.8660255 0.4999999 0 -0.8660255 -0.4999999 0 0.08325141 -0.1523907 0.9848077</float_array>
          <technique_common>
            <accessor source="#mesquite_small_a800-mesh-normals-array" count="134" stride="3">
              <param name="X" type="float"/>
              <param name="Y" type="float"/>
              <param name="Z" type="float"/>
            </accessor>
          </technique_common>
        </source>
        <source id="mesquite_small_a800-mesh-map-0">
          <float_array id="mesquite_small_a800-mesh-map-0-array" count="804">0.75 0.75 0.5 1 0.5 0.75 0.75 0.75 0.5 1 0.5 0.75 0.75 0.75 0.5 1 0.5 0.75 0.75 0.75 0.5 1 0.5 0.75 0.75 0.75 0.5 1 0.5 0.75 0.75 0.75 0.5 1 0.5 0.75 0.75 0.75 0.5 1 0.5 0.75 0.75 0.75 0.5 1 0.5 0.75 0.02174639 0.3241641 0.3910685 0.0558359 0.4782536 0.3241641 0.75 0.75 0.5 1 0.5 0.75 0.75 0.75 0.5 1 0.5 0.75 0.9782536 0.1758359 0.5217465 0.1758359 0.6089316 0.4441641 0.5 0.75 0.75 1 0.5 1 0.75 0.75 0.5 1 0.5 0.75 0.5 0.75 0.75 1 0.5 1 0.75 0.75 0.5 1 0.5 0.75 0.5 0.75 0.75 1 0.5 1 0.5 0.75 0.75 1 0.5 1 0.25 0.49 0.00999999 0.25 0.25 0.00999999 0.75 0.75 0.5 1 0.5 0.75 0.75 0.75 0.5 1 0.5 0.75 0.5802944 0.4197056 0.9197056 0.4197056 0.9197056 0.08029437 0.5 0.75 0.75 1 0.5 1 0.5 0.75 0.75 1 0.5 1 0.75 0.75 0.5 1 0.5 0.75 0.75 0.75 0.5 1 0.5 0.75 0.5 0.75 0.75 1 0.5 1 0.75 0.75 0.5 1 0.5 0.75 0.25 0.49 0.00999999 0.25 0.25 0.00999999 0.5 0.75 0.75 1 0.5 1 0.75 0.75 0.5 1 0.5 0.75 0.9197056 0.08029437 0.5802944 0.08029437 0.5802944 0.4197056 0.5 0.75 0.75 1 0.5 1 0.75 0.75 0.5 1 0.5 0.75 0.5 0.75 0.75 1 0.5 1 0.75 0.75 0.5 1 0.5 0.75 0.75 0.75 0.5 1 0.5 0.75 0.5 0.75 0.75 1 0.5 1 0.4197056 0.08029437 0.49 0.25 0.00999999 0.25 0.75 0.75 0.5 1 0.5 0.75 0.5 0.75 0.75 1 0.5 1 0.9197056 0.08029437 0.5802944 0.08029437 0.5802944 0.4197056 1 0.75 0.75 1 0.75 0.75 1 0.75 0.75 1 0.75 0.75 1 0.75 0.75 1 0.75 0.75 1 0.75 0.75 1 0.75 0.75 1 0.75 0.75 1 0.75 0.75 1 0.75 0.75 1 0.75 0.75 1 0.75 0.75 1 0.75 0.75 0.75 0.75 0.75 1 0.5 1 0.75 0.75 0.75 1 0.5 1 0.75 0.75 0.75 1 0.5 1 0.75 0.75 0.75 1 0.5 1 0.75 0.75 0.75 1 0.5 1 0.75 0.75 0.75 1 0.5 1 0.75 0.75 0.75 1 0.5 1 0.75 0.75 0.75 1 0.5 1 0.4782536 0.3241641 0.3910685 0.4441641 0.25 0.49 0.25 0.49 0.1089315 0.4441641 0.02174639 0.3241641 0.02174639 0.3241641 0.02174639 0.1758359 0.1089315 0.0558359 0.1089315 0.0558359 0.25 0.00999999 0.3910685 0.0558359 0.3910685 0.0558359 0.4782536 0.1758359 0.4782536 0.3241641 0.4782536 0.3241641 0.25 0.49 0.02174639 0.3241641 0.02174639 0.3241641 0.1089315 0.0558359 0.3910685 0.0558359 0.75 0.75 0.75 1 0.5 1 0.75 0.75 0.75 1 0.5 1 0.6089316 0.4441641 0.75 0.49 0.8910685 0.4441641 0.8910685 0.4441641 0.9782536 0.3241641 0.6089316 0.4441641 0.9782536 0.3241641 0.9782536 0.1758359 0.6089316 0.4441641 0.9782536 0.1758359 0.8910685 0.0558359 0.75 0.00999999 0.75 0.00999999 0.6089316 0.0558359 0.5217465 0.1758359 0.5217465 0.1758359 0.5217465 0.3241641 0.6089316 0.4441641 0.9782536 0.1758359 0.75 0.00999999 0.5217465 0.1758359 0.5 0.75 0.75 0.75 0.75 1 0.75 0.75 0.75 1 0.5 1 0.5 0.75 0.75 0.75 0.75 1 0.75 0.75 0.75 1 0.5 1 0.5 0.75 0.75 0.75 0.75 1 0.5 0.75 0.75 0.75 0.75 1 0.49 0.25 0.4197056 0.4197056 0.25 0.49 0.25 0.49 0.08029437 0.4197056 0.00999999 0.25 0.00999999 0.25 0.08029437 0.08029437 0.25 0.00999999 0.25 0.00999999 0.4197056 0.08029437 0.49 0.25 0.49 0.25 0.25 0.49 0.25 0.00999999 0.75 0.75 0.75 1 0.5 1 0.75 0.75 0.75 1 0.5 1 0.5802944 0.4197056 0.75 0.49 0.9197056 0.4197056 0.9197056 0.4197056 0.99 0.25 0.9197056 0.08029437 0.9197056 0.08029437 0.75 0.00999999 0.5802944 0.08029437 0.5802944 0.08029437 0.51 0.25 0.9197056 0.08029437 0.51 0.25 0.5802944 0.4197056 0.9197056 0.08029437 0.5 0.75 0.75 0.75 0.75 1 0.5 0.75 0.75 0.75 0.75 1 0.75 0.75 0.75 1 0.5 1 0.75 0.75 0.75 1 0.5 1 0.5 0.75 0.75 0.75 0.75 1 0.75 0.75 0.75 1 0.5 1 0.49 0.25 0.4197056 0.4197056 0.25 0.49 0.25 0.49 0.08029437 0.4197056 0.00999999 0.25 0.00999999 0.25 0.08029437 0.08029437 0.25 0.00999999 0.25 0.00999999 0.4197056 0.08029437 0.49 0.25 0.49 0.25 0.25 0.49 0.25 0.00999999 0.5 0.75 0.75 0.75 0.75 1 0.75 0.75 0.75 1 0.5 1 0.5802944 0.4197056 0.75 0.49 0.9197056 0.4197056 0.9197056 0.4197056 0.99 0.25 0.9197056 0.08029437 0.9197056 0.08029437 0.75 0.00999999 0.5802944 0.08029437 0.5802944 0.08029437 0.51 0.25 0.5802944 0.4197056 0.5802944 0.4197056 0.9197056 0.4197056 0.9197056 0.08029437 0.5 0.75 0.75 0.75 0.75 1 0.75 0.75 0.75 1 0.5 1 0.5 0.75 0.75 0.75 0.75 1 0.75 0.75 0.75 1 0.5 1 0.75 0.75 0.75 1 0.5 1 0.5 0.75 0.75 0.75 0.75 1 0.49 0.25 0.4197056 0.4197056 0.00999999 0.25 0.4197056 0.4197056 0.25 0.49 0.00999999 0.25 0.25 0.49 0.08029437 0.4197056 0.00999999 0.25 0.00999999 0.25 0.08029437 0.08029437 0.25 0.00999999 0.25 0.00999999 0.4197056 0.08029437 0.00999999 0.25 0.75 0.75 0.75 1 0.5 1 0.5 0.75 0.75 0.75 0.75 1 0.5802944 0.4197056 0.75 0.49 0.9197056 0.4197056 0.9197056 0.4197056 0.99 0.25 0.9197056 0.08029437 0.9197056 0.08029437 0.75 0.00999999 0.5802944 0.08029437 0.5802944 0.08029437 0.51 0.25 0.5802944 0.4197056 0.5802944 0.4197056 0.9197056 0.4197056 0.9197056 0.08029437 1 0.75 1 1 0.75 1 1 0.75 1 1 0.75 1 1 0.75 1 1 0.75 1 1 0.75 1 1 0.75 1 1 0.75 1 1 0.75 1 1 0.75 1 1 0.75 1 1 0.75 1 1 0.75 1</float_array>
          <technique_common>
            <accessor source="#mesquite_small_a800-mesh-map-0-array" count="402" stride="2">
              <param name="S" type="float"/>
              <param name="T" type="float"/>
            </accessor>
          </technique_common>
        </source>
        <vertices id="mesquite_small_a800-mesh-vertices">
          <input semantic="POSITION" source="#mesquite_small_a800-mesh-positions"/>
        </vertices>
        <triangles material="ParkerVegAtlas-material" count="134">
          <input semantic="VERTEX" source="#mesquite_small_a800-mesh-vertices" offset="0"/>
          <input semantic="NORMAL" source="#mesquite_small_a800-mesh-normals" offset="1"/>
          <input semantic="TEXCOORD" source="#mesquite_small_a800-mesh-map-0" offset="2" set="0"/>
          <p>1 0 0 2 0 1 0 0 2 3 1 3 4 1 4 2 1 5 5 2 6 6 2 7 4 2 8 7 3 9 8 3 10 6 3 11 9 4 12 10 4 13 8 4 14 11 5 15 12 5 16 10 5 17 13 6 18 14 6 19 12 6 20 15 7 21 16 7 22 14 7 23 17 8 24 9 8 25 5 8 26 17 9 27 18 9 28 16 9 29 19 10 30 0 10 31 18 10 32 6 11 33 14 11 34 18 11 35 20 12 36 23 12 37 22 12 38 23 13 39 24 13 40 22 13 41 24 14 42 27 14 43 26 14 44 27 15 45 28 15 46 26 15 47 28 16 48 31 16 49 30 16 50 30 17 51 33 17 52 32 17 53 21 18 54 33 18 55 29 18 56 33 19 57 34 19 58 32 19 59 35 20 60 20 20 61 34 20 62 34 21 63 22 21 64 26 21 65 36 22 66 39 22 67 38 22 68 38 23 69 41 23 70 40 23 71 41 24 72 42 24 73 40 24 74 43 25 75 44 25 76 42 25 77 44 26 78 47 26 79 46 26 80 47 27 81 48 27 82 46 27 83 37 28 84 49 28 85 45 28 86 48 29 87 51 29 88 50 29 89 51 30 90 36 30 91 50 30 92 42 31 93 46 31 94 50 31 95 52 32 96 55 32 97 54 32 98 55 33 99 56 33 100 54 33 101 56 34 102 59 34 103 58 34 104 59 35 105 60 35 106 58 35 107 61 36 108 62 36 109 60 36 110 62 37 111 65 37 112 64 37 113 59 38 114 57 38 115 65 38 116 65 39 117 66 39 118 64 39 119 66 40 120 53 40 121 52 40 122 58 41 123 62 41 124 66 41 125 69 42 126 70 42 127 68 42 128 73 43 129 74 43 130 72 43 131 77 44 132 78 44 133 76 44 134 81 45 135 82 45 136 80 45 137 85 46 138 86 46 139 84 46 140 89 47 141 90 47 142 88 47 143 93 48 144 94 48 145 92 48 146 1 49 147 3 49 148 2 49 149 3 50 150 5 50 151 4 50 152 5 51 153 7 51 154 6 51 155 7 52 156 9 52 157 8 52 158 9 53 159 11 53 160 10 53 161 11 54 162 13 54 163 12 54 164 13 55 165 15 55 166 14 55 167 15 56 168 17 56 169 16 56 170 5 57 171 3 57 172 1 57 173 1 58 174 19 58 175 17 58 176 17 59 177 15 59 178 13 59 179 13 60 180 11 60 181 9 60 182 9 61 183 7 61 184 5 61 185 5 62 186 1 62 187 17 62 188 17 63 189 13 63 190 9 63 191 17 64 192 19 64 193 18 64 194 19 65 195 1 65 196 0 65 197 18 66 198 0 66 199 2 66 200 2 67 201 4 67 202 18 67 203 4 68 204 6 68 205 18 68 206 6 69 207 8 69 208 10 69 209 10 70 210 12 70 211 14 70 212 14 71 213 16 71 214 18 71 215 6 72 216 10 72 217 14 72 218 20 73 219 21 73 220 23 73 221 23 74 222 25 74 223 24 74 224 24 75 225 25 75 226 27 75 227 27 76 228 29 76 229 28 76 230 28 77 231 29 77 232 31 77 233 30 78 234 31 78 235 33 78 236 25 79 237 23 79 238 21 79 239 21 80 240 35 80 241 33 80 242 33 81 243 31 81 244 29 81 245 29 82 246 27 82 247 25 82 248 25 83 249 21 83 250 29 83 251 33 84 252 35 84 253 34 84 254 35 85 255 21 85 256 20 85 257 34 86 258 20 86 259 22 86 260 22 87 261 24 87 262 26 87 263 26 88 264 28 88 265 30 88 266 30 89 267 32 89 268 26 89 269 32 90 270 34 90 271 26 90 272 36 91 273 37 91 274 39 91 275 38 92 276 39 92 277 41 92 278 41 93 279 43 93 280 42 93 281 43 94 282 45 94 283 44 94 284 44 95 285 45 95 286 47 95 287 47 96 288 49 96 289 48 96 290 41 97 291 39 97 292 37 97 293 37 98 294 51 98 295 49 98 296 49 99 297 47 99 298 45 99 299 45 100 300 43 100 301 41 100 302 41 101 303 37 101 304 45 101 305 48 102 306 49 102 307 51 102 308 51 103 309 37 103 310 36 103 311 50 104 312 36 104 313 38 104 314 38 105 315 40 105 316 42 105 317 42 106 318 44 106 319 46 106 320 46 107 321 48 107 322 50 107 323 50 108 324 38 108 325 42 108 326 52 109 327 53 109 328 55 109 329 55 110 330 57 110 331 56 110 332 56 111 333 57 111 334 59 111 335 59 112 336 61 112 337 60 112 338 61 113 339 63 113 340 62 113 341 62 114 342 63 114 343 65 114 344 57 115 345 55 115 346 65 115 347 55 116 348 53 116 349 65 116 350 53 117 351 67 117 352 65 117 353 65 118 354 63 118 355 61 118 356 61 119 357 59 119 358 65 119 359 65 120 360 67 120 361 66 120 362 66 121 363 67 121 364 53 121 365 66 122 366 52 122 367 54 122 368 54 123 369 56 123 370 58 123 371 58 124 372 60 124 373 62 124 374 62 125 375 64 125 376 66 125 377 66 126 378 54 126 379 58 126 380 69 127 381 71 127 382 70 127 383 73 128 384 75 128 385 74 128 386 77 129 387 79 129 388 78 129 389 81 130 390 83 130 391 82 130 392 85 131 393 87 131 394 86 131 395 89 132 396 91 132 397 90 132 398 93 133 399 95 133 400 94 133 401</p>
        </triangles>
      </mesh>
    </geometry>
  </library_geometries>
  <library_visual_scenes>
    <visual_scene id="Scene" name="Scene">
      <node id="base00" name="base00" type="NODE">
        <matrix sid="transform">1 0 0 0 0 1 0 0 0 0 1 0 0 0 0 1</matrix>
        <node id="start01" name="start01" type="NODE">
          <matrix sid="transform">1 0 0 0 0 1 0 0 0 0 1 0 0 0 0 1</matrix>
          <node id="mesquite_small_a800" name="mesquite_small_a800" type="NODE">
            <matrix sid="transform">1 0 0 0 0 1 0 0 0 0 1 0 0 0 0 1</matrix>
            <instance_geometry url="#mesquite_small_a800-mesh" name="mesquite_small_a800">
              <bind_material>
                <technique_common>
                  <instance_material symbol="ParkerVegAtlas-material" target="#ParkerVegAtlas-material">
                    <bind_vertex_input semantic="UVMap" input_semantic="TEXCOORD" input_set="0"/>
                  </instance_material>
                </technique_common>
              </bind_material>
            </instance_geometry>
          </node>
          <node id="mesquite_small_a200" name="mesquite_small_a200" type="NODE">
            <matrix sid="transform">1 0 0 0 0 1 0 0 0 0 1 0 0 0 0 1</matrix>
            <instance_geometry url="#mesquite_small_a200-mesh" name="mesquite_small_a200">
              <bind_material>
                <technique_common>
                  <instance_material symbol="ParkerVegAtlas-material" target="#ParkerVegAtlas-material">
                    <bind_vertex_input semantic="UVMap" input_semantic="TEXCOORD" input_set="0"/>
                  </instance_material>
                </technique_common>
              </bind_material>
            </instance_geometry>
          </node>
          <node id="mesquite_small_a50" name="mesquite_small_a50" type="NODE">
            <matrix sid="transform">1 0 0 0 0 1 0 0 0 0 1 0 0 0 0 1</matrix>
            <instance_geometry url="#mesquite_small_a50-mesh" name="mesquite_small_a50">
              <bind_material>
                <technique_common>
                  <instance_material symbol="ParkerVegAtlas-material" target="#ParkerVegAtlas-material">
                    <bind_vertex_input semantic="UVMap" input_semantic="TEXCOORD" input_set="0"/>
                  </instance_material>
                </technique_common>
              </bind_material>
            </instance_geometry>
          </node>
          <node id="nulldetail20" name="nulldetail20" type="NODE">
            <matrix sid="transform">1 0 0 0 0 1 0 0 0 0 1 0 0 0 0 1</matrix>
          </node>
        </node>
        <node id="collision-1" name="collision-1" type="NODE">
          <matrix sid="transform">1 0 0 0 0 1 0 0 0 0 1 0 0 0 0 1</matrix>
          <node id="Colmesh_trunk-1" name="Colmesh_trunk-1" type="NODE">
            <matrix sid="transform">1 0 0 0 0 1 0 0 0 0 1 0 0 0 0 1</matrix>
            <instance_geometry url="#Colmesh_trunk-1-mesh" name="Colmesh_trunk-1">
              <bind_material>
                <technique_common>
                  <instance_material symbol="Colmesh_Material-material" target="#Colmesh_Material-material">
                    <bind_vertex_input semantic="UVMap" input_semantic="TEXCOORD" input_set="0"/>
                  </instance_material>
                </technique_common>
              </bind_material>
            </instance_geometry>
          </node>
          <node id="Colmesh_canopy-1" name="Colmesh_canopy-1" type="NODE">
            <matrix sid="transform">1 0 0 0 0 1 0 0 0 0 1 0 0 0 0 1</matrix>
            <instance_geometry url="#Colmesh_canopy-1-mesh" name="Colmesh_canopy-1">
              <bind_material>
                <technique_common>
                  <instance_material symbol="Colmesh_Material-material" target="#Colmesh_Material-material">
                    <bind_vertex_input semantic="UVMap" input_semantic="TEXCOORD" input_set="0"/>
                  </instance_material>
                </technique_common>
              </bind_material>
            </instance_geometry>
          </node>
        </node>
      </node>
    </visual_scene>
  </library_visual_scenes>
  <scene>
    <instance_visual_scene url="#Scene"/>
  </scene>
</COLLADA>