<?xml version="1.0" encoding="utf-8"?>
<COLLADA xmlns="http://www.collada.org/2005/11/COLLADASchema" version="1.4.1" xmlns:xsi="http://www.w3.org/2001/XMLSchema-instance">
  <asset>
    <contributor>
      <author>Blender User</author>
      <authoring_tool>Blender 4.2.9 LTS commit date:2025-04-14, commit time:12:24, hash:a10f621e649a</authoring_tool>
    </contributor>
    <created>2026-08-01T08:09:21</created>
    <modified>2026-08-01T08:09:21</modified>
    <unit name="meter" meter="1"/>
    <up_axis>Z_UP</up_axis>
  </asset>
  <library_effects>
    <effect id="ParkerVegBark-effect">
      <profile_COMMON>
        <newparam sid="vegetation_atlas_2048_png-surface">
          <surface type="2D">
            <init_from>vegetation_atlas_2048_png</init_from>
          </surface>
        </newparam>
        <newparam sid="vegetation_atlas_2048_png-sampler">
          <sampler2D>
            <source>vegetation_atlas_2048_png-surface</source>
          </sampler2D>
        </newparam>
        <technique sid="common">
          <lambert>
            <emission>
              <color sid="emission">0 0 0 1</color>
            </emission>
            <diffuse>
              <texture texture="vegetation_atlas_2048_png-sampler" texcoord="UVMap"/>
            </diffuse>
            <index_of_refraction>
              <float sid="ior">1.5</float>
            </index_of_refraction>
          </lambert>
        </technique>
      </profile_COMMON>
    </effect>
    <effect id="Colmesh_Material-effect">
      <profile_COMMON>
        <technique sid="common">
          <lambert>
            <emission>
              <color sid="emission">0 0 0 1</color>
            </emission>
            <diffuse>
              <color sid="diffuse">1 0 1 1</color>
            </diffuse>
            <transparent opaque="A_ONE">
              <color sid="alpha">0 0 0 0.15</color>
            </transparent>
            <index_of_refraction>
              <float sid="ior">1.5</float>
            </index_of_refraction>
          </lambert>
        </technique>
      </profile_COMMON>
    </effect>
  </library_effects>
  <library_images>
    <image id="vegetation_atlas_2048_png" name="vegetation_atlas_2048_png">
      <init_from>vegetation_atlas_2048.png</init_from>
    </image>
  </library_images>
  <library_materials>
    <material id="ParkerVegBark-material" name="ParkerVegBark">
      <instance_effect url="#ParkerVegBark-effect"/>
    </material>
    <material id="Colmesh_Material-material" name="Colmesh_Material">
      <instance_effect url="#Colmesh_Material-effect"/>
    </material>
  </library_materials>
  <library_geometries>
    <geometry id="ocotillo_tall_a50-mesh" name="ocotillo_tall_a50">
      <mesh>
        <source id="ocotillo_tall_a50-mesh-positions">
          <float_array id="ocotillo_tall_a50-mesh-positions-array" count="24">-0.2259738 0.04723316 -0.04696983 0.2899676 0.04723316 -0.04696983 0.2899676 0.04723316 4.743953 -0.2259738 0.04723316 4.743953 0.03199684 -0.2107375 -0.04696983 0.03199684 0.3052039 -0.04696983 0.03199684 0.3052039 4.743953 0.03199684 -0.2107375 4.743953</float_array>
          <technique_common>
            <accessor source="#ocotillo_tall_a50-mesh-positions-array" count="8" stride="3">
              <param name="X" type="float"/>
              <param name="Y" type="float"/>
              <param name="Z" type="float"/>
            </accessor>
          </technique_common>
        </source>
        <source id="ocotillo_tall_a50-mesh-normals">
          <float_array id="ocotillo_tall_a50-mesh-normals-array" count="12">0 -1 0 1 0 0 0 -1 0 1 0 0</float_array>
          <technique_common>
            <accessor source="#ocotillo_tall_a50-mesh-normals-array" count="4" stride="3">
              <param name="X" type="float"/>
              <param name="Y" type="float"/>
              <param name="Z" type="float"/>
            </accessor>
          </technique_common>
        </source>
        <source id="ocotillo_tall_a50-mesh-map-0">
          <float_array id="ocotillo_tall_a50-mesh-map-0-array" count="24">1 0 0 1 0 0 1 0 0 1 0 0 1 0 1 1 0 1 1 0 1 1 0 1</float_array>
          <technique_common>
            <accessor source="#ocotillo_tall_a50-mesh-map-0-array" count="12" stride="2">
              <param name="S" type="float"/>
              <param name="T" type="float"/>
            </accessor>
          </technique_common>
        </source>
        <vertices id="ocotillo_tall_a50-mesh-vertices">
          <input semantic="POSITION" source="#ocotillo_tall_a50-mesh-positions"/>
        </vertices>
        <triangles material="ParkerVegBark-material" count="4">
          <input semantic="VERTEX" source="#ocotillo_tall_a50-mesh-vertices" offset="0"/>
          <input semantic="NORMAL" source="#ocotillo_tall_a50-mesh-normals" offset="1"/>
          <input semantic="TEXCOORD" source="#ocotillo_tall_a50-mesh-map-0" offset="2" set="0"/>
          <p>1 0 0 3 0 1 0 0 2 5 1 3 7 1 4 4 1 5 1 2 6 2 2 7 3 2 8 5 3 9 6 3 10 7 3 11</p>
        </triangles>
      </mesh>
    </geometry>
    <geometry id="ocotillo_tall_a200-mesh" name="ocotillo_tall_a200">
      <mesh>
        <source id="ocotillo_tall_a200-mesh-positions">
          <float_array id="ocotillo_tall_a200-mesh-positions-array" count="189">0.1020265 -0.1461586 0.005112826 0.07204884 0.1934313 4.678044 0.102283 -0.1802272 0.007601082 0.07704055 0.1636739 4.680247 0.07600814 -0.1652829 0.006345689 0.04972529 0.1670629 4.679828 0.04819053 0.1849491 4.678513 0.1474195 0.1396742 3.855414 0.1659987 0.1461169 9.38611e-5 0.1651676 0.1426749 3.855393 0.1648401 0.1186134 4.79221e-5 0.1755897 0.1195932 3.855339 0.1470919 0.1156128 6.80685e-5 0.1366698 0.1386945 1.23016e-4 0.1462609 0.1121708 3.855368 0.2463056 0.168992 0.00841856 -0.1749612 0.2538669 4.693922 0.277334 0.1604653 0.01137602 -0.1532353 0.277746 4.695335 0.2582361 0.1370317 0.01018822 -0.1463913 0.2443054 4.696683 -0.2123566 0.05981498 0.006793022 0.0668441 0.1866353 4.070531 -0.1851457 0.06346291 0.004782319 0.09288918 0.2018526 4.068215 -0.1826731 0.03949314 0.005410671 -0.2075191 0.03496056 0.007286667 0.0930109 0.1677113 4.069346 -0.1879574 -0.09567308 3.58457 -0.102641 0.196105 0.005863189 -0.2108367 -0.08037245 3.585029 -0.204173 -0.06371372 3.586472 -0.07080674 0.2014875 0.007215976 -0.1790491 -0.06686204 3.586987 -0.08588182 0.1709553 0.004485785 -0.1441509 0.01308631 4.134294 -0.1328234 -0.1153124 0.001480817 -0.1375322 -0.09794914 8.92878e-4 -0.1726787 0.02314281 4.133732 -0.1155717 -0.08533644 6.82899e-4 -0.160193 0.04516899 4.133144 -0.1427937 0.04056745 4.133438 -0.1053383 -0.1137897 0.001667857 -0.04851979 -0.09783995 8.36997e-6 -0.006658852 -0.1017298 3.837371 -0.07584023 -0.09447789 2.78473e-4 -0.03275579 -0.1170332 3.837548 -0.07131016 -0.06956082 3.44705e-4 -0.03639781 -0.08492517 3.837722 -0.04634875 -0.07383286 9.27448e-5 0.006834626 -0.104074 1.09434e-4 -0.003367602 -0.1259114 4.27474e-4 0.08102387 -0.09578436 3.766508 -0.02791327 -0.1134567 8.45909e-4 0.05128347 -0.1012985 3.767124 -0.0151835 -0.09156602 4.77714e-4 0.05877375 -0.06986582 3.766809 0.1639832 0.02039057 0.003859698 0.02197128 -0.1452728 3.605768 0.132114 0.02564173 0.002862036 0.002861917 -0.1712475 3.603679 0.1486497 0.05090129 0.004812061 -0.0075562 -0.1387386 3.604929</float_array>
          <technique_common>
            <accessor source="#ocotillo_tall_a200-mesh-positions-array" count="63" stride="3">
              <param name="X" type="float"/>
              <param name="Y" type="float"/>
              <param name="Z" type="float"/>
            </accessor>
          </technique_common>
        </source>
        <source id="ocotillo_tall_a200-mesh-normals">
          <float_array id="ocotillo_tall_a200-mesh-normals-array" count="270">0.9991102 -0.04208546 -0.002775073 -0.911399 -0.4115233 -5.63883e-4 0.2649606 0.9642592 2.12403e-4 0.7706086 -0.6321401 0.08100324 -0.9326264 -0.3524302 -0.07746702 -0.9792201 -0.1891368 0.07318025 0.1808044 -0.9833401 0.01875936 -0.5553016 -0.8280301 -0.0775007 -0.9651346 -0.2617539 -5.38313e-4 -0.1221798 -0.992498 -0.004462003 0.009344518 -0.004360377 0.9999468 0.9958795 -0.09002202 -0.01095503 0.9057763 -0.4234184 -0.01690971 -0.4522862 -0.8917868 0.01238942 0.01973712 0.005337178 0.9997909 0.8928174 0.4469543 0.05575782 -0.1604743 -0.985237 -0.05963206 -0.8363821 0.5480968 -0.007418274 0.03965604 0.05107718 -0.9979071 -0.1238982 -0.9896671 0.072169 -0.006265699 0.07279288 0.9973274 -0.33538 0.9394471 -0.07042276 -0.9963416 -0.08545917 4.74021e-4 -0.1667008 0.9860072 8.4438e-4 0.006246328 -0.07279449 -0.9973275 0.2453404 -0.969437 -4.37716e-4 0.9113987 0.4115242 5.63889e-4 0.001434028 -0.001728177 0.9999975 -0.001432001 0.00173062 -0.9999974 -0.9991102 0.04208487 0.002775073 -0.5039505 0.8636985 0.007669985 -0.73509 0.6734341 -0.07828968 0.975506 0.2030591 0.08458828 -0.08887934 0.02196562 0.9958001 -0.3168715 -0.9484517 -0.005648314 0.08887994 -0.02196037 -0.9958003 0.9977034 0.001311361 -0.06772226 -0.0692135 -0.0332762 -0.9970467 0.0692088 0.03329139 0.9970465 -0.5825259 -0.80983 0.06956368 0.1223888 0.9894226 0.07787054 -0.9284913 0.3713536 6.18057e-4 -0.02976852 -0.07442849 0.996782 0.9551942 -0.2959036 0.006700634 -0.3328264 -0.9425613 0.02837133 0.02977412 0.07443273 -0.9967815 -0.8699955 0.4925763 -0.02183103 -0.008537292 0.03151792 0.9994667 0.2560146 0.9662744 -0.02775108 0.9987401 -0.04898875 0.01088392 0.008549213 -0.03152465 -0.9994664 -0.9935671 -0.1127576 0.01049286 0.5058033 -0.8626253 -0.006392121 0.491971 0.8706107 0.00124073 0.9862732 0.1650245 -0.005665481 -0.009347677 0.004357397 -0.9999468 -0.972529 0.2319467 0.01970142 0.1823785 -0.9832212 0.003778517 0.7585652 0.6513914 -0.0163756 -0.01975005 -0.00533384 -0.9997907 0.805318 -0.5928261 0.00448513 -0.9516325 -0.3030219 -0.05072796 -0.03965806 -0.05108076 0.9979068 0.2140219 0.9749447 0.06064242 -0.83196 -0.5506913 -0.06768846 -0.4956602 -0.8665215 0.05883353 -0.006255507 0.0727843 0.9973281 -0.5930073 0.8026734 -0.06370019 -0.2453401 0.969437 4.37717e-4 0.1667016 -0.9860071 -8.44377e-4 0.001430392 -0.001733303 0.9999974 -0.001428544 0.001735508 -0.9999975 -0.1346125 0.9905947 -0.02452629 0.9923772 0.1004999 -0.07132482 -0.06921356 -0.0332762 -0.9970468 -0.1690912 0.9833503 0.06655985 -0.0297681 -0.07442951 0.9967819 0.8968969 -0.4421785 -0.007359027 0.05507904 -0.9979957 0.03115677 -0.4980069 0.8665547 -0.03274363 -0.00854665 0.03153395 0.9994661 0.9410278 0.3383045 -0.004107952 0.008549153 -0.03152465 -0.9994664 -0.9838305 0.1788409 0.00966686 0.1687182 0.9856615 0.002411425 0.9999574 0.007879495 0.004822015 -0.009349405 0.004359841 -0.9999468 -0.8642745 0.5028237 0.01407414 0.4937005 0.8695076 -0.01470428 -0.01975089 -0.005330681 -0.9997907</float_array>
          <technique_common>
            <accessor source="#ocotillo_tall_a200-mesh-normals-array" count="90" stride="3">
              <param name="X" type="float"/>
              <param name="Y" type="float"/>
              <param name="Z" type="float"/>
            </accessor>
          </technique_common>
        </source>
        <source id="ocotillo_tall_a200-mesh-map-0">
          <float_array id="ocotillo_tall_a200-mesh-map-0-array" count="540">0.75 0.375 0.5 0.5 0.5 0.25 0.5 0.25 0.75 0.3409091 0.5 0.5 0.5 0.25 0.75 0.3750001 0.5 0.5 0.75 0.4090908 0.5 0.5 0.5 0.25 0.75 0.3749999 0.5 0.5 0.5 0.25 0.75 0.3750004 0.5 0.5 0.5 0.25 0.5 0.25 0.75 0.375 0.5 0.5 0.75 0.5 0.5 0.25 0.75 0.25 0.75 0.3750002 0.5 0.5 0.5 0.25 0.75 0.375 0.5 0.5 0.5 0.25 0.146077 0.06999993 0.4578461 0.25 0.1744195 0.4463636 0.75 0.4090909 0.5 0.5 0.5 0.25 0.75 0.409091 0.5 0.5 0.5 0.25 0.75 0.375 0.5 0.5 0.5 0.25 0.3822658 0.4136363 0.04215389 0.25 0.3539231 0.06999999 0.75 0.3749998 0.5 0.5 0.5 0.25 0.5 0.25 0.75 0.3749997 0.5 0.5 0.75 0.4090912 0.5 0.5 0.5 0.25 0.9578461 0.2499998 0.646077 0.06999993 0.6177342 0.4136363 0.75 0.5 0.5 0.25 0.75 0.25 0.04215389 0.1299999 0.3539234 0.4299998 0.04215389 0.37 0.5 0.5 0.75 0.25 0.75 0.5 0.75 0.25 0.75 0.5 0.5 0.3750001 0.5 0.5 0.75 0.25 0.75 0.5 0.5421539 0.2500001 0.8539232 0.4299999 0.8255802 0.05363625 0.75 0.5 0.5 0.25 0.75 0.25 0.75 0.25 0.75 0.5 0.5 0.3409091 0.25 0.49 0.3539231 0.06999999 0.4578461 0.37 0.75 0.00999999 0.6460772 0.4300001 0.9578462 0.2827273 0.5 0.3750002 0.75 0.25 0.75 0.5 0.75 0.5 0.5 0.25 0.75 0.25 0.5 0.3750003 0.75 0.25 0.75 0.5 0.75 0.25 0.75 0.5 0.5 0.3749998 0.4578461 0.2499998 0.1460768 0.43 0.1177343 0.08636361 0.75 0.25 0.75 0.5 0.5 0.340909 0.5421539 0.2172726 0.8539233 0.4299998 0.8539232 0.07000005 0.5 0.5 0.75 0.25 0.75 0.5 0.9578461 0.37 0.5421539 0.1299999 0.6460767 0.4299999 0.04215389 0.2499999 0.3822654 0.08636343 0.3539233 0.4299998 0.75 0.25 0.75 0.5 0.5 0.3749998 0.5 0.5 0.75 0.25 0.75 0.5 0.75 0.25 0.75 0.5 0.5 0.3749994 0.1460768 0.07000005 0.4578461 0.37 0.1177342 0.4136363 0.75 0.5 0.5 0.25 0.75 0.25 0.5 0.5 0.75 0.25 0.75 0.5 0.9578461 0.2500006 0.6460767 0.07000011 0.6744197 0.4463637 0.75 0.5 0.5 0.25 0.75 0.25 0.4578461 0.2499998 0.04215389 0.1299999 0.25 0.00999999 0.75 0.25 0.75 0.5 0.5 0.3750001 0.5 0.5 0.75 0.25 0.75 0.5 0.6460769 0.06999999 0.9578461 0.37 0.9578461 0.1299999 0.75 0.5 0.5 0.25 0.75 0.25 0.75 0.25 0.75 0.5 0.5 0.3409091 0.5 0.5 0.75 0.25 0.75 0.5 0.75 0.5 0.5 0.25 0.75 0.25 0.5421539 0.37 0.9578461 0.1299999 0.6460769 0.06999993 0.75 0.5 0.5 0.25 0.75 0.25 0.75 0.25 0.75 0.5 0.5 0.3409091 0.5 0.5 0.75 0.25 0.75 0.5 0.75 0.00999999 0.75 0.49 0.9578461 0.2827273 0.5 0.3750002 0.75 0.25 0.75 0.5 0.75 0.25 0.75 0.5 0.5 0.375 0.3539233 0.07000017 0.3539229 0.4300001 0.04215389 0.2827275 0.75 0.25 0.75 0.5 0.5 0.3409089 0.75 0.5 0.5 0.5 0.5 0.25 0.75 0.5 0.5 0.5 0.5 0.25 0.04215389 0.1299999 0.3822656 0.08636355 0.3539234 0.4299998 0.5 0.5 0.5 0.25 0.75 0.25 0.5 0.5 0.5 0.25 0.75 0.25 0.75 0.5 0.5 0.5 0.5 0.25 0.25 0.49 0.04215389 0.2172727 0.3539231 0.06999999 0.75 0.00999999 0.5421539 0.1299999 0.6460772 0.4300001 0.75 0.5 0.5 0.5 0.5 0.25 0.5 0.5 0.5 0.25 0.75 0.25 0.9578461 0.37 0.8255807 0.05363649 0.5421539 0.1299999 0.5 0.5 0.5 0.25 0.75 0.25 0.1460768 0.07000005 0.4578461 0.1299999 0.4578461 0.37 0.75 0.5 0.5 0.5 0.5 0.25 0.5 0.5 0.5 0.25 0.75 0.25 0.75 0.5 0.5 0.5 0.5 0.25 0.4578461 0.2499998 0.1744196 0.4463636 0.04215389 0.1299999 0.5 0.5 0.5 0.25 0.75 0.25 0.6460769 0.06999999 0.6177343 0.4136364 0.9578461 0.37 0.75 0.5 0.5 0.5 0.5 0.25 0.5 0.5 0.5 0.25 0.75 0.25 0.75 0.5 0.5 0.5 0.5 0.25 0.5421539 0.37 0.8255804 0.4463636 0.9578461 0.1299999 0.75 0.5 0.5 0.5 0.5 0.25 0.5 0.5 0.5 0.25 0.75 0.25 0.75 0.00999999 0.5421539 0.25 0.75 0.49</float_array>
          <technique_common>
            <accessor source="#ocotillo_tall_a200-mesh-map-0-array" count="270" stride="2">
              <param name="S" type="float"/>
              <param name="T" type="float"/>
            </accessor>
          </technique_common>
        </source>
        <vertices id="ocotillo_tall_a200-mesh-vertices">
          <input semantic="POSITION" source="#ocotillo_tall_a200-mesh-positions"/>
        </vertices>
        <triangles material="ParkerVegBark-material" count="90">
          <input semantic="VERTEX" source="#ocotillo_tall_a200-mesh-vertices" offset="0"/>
          <input semantic="NORMAL" source="#ocotillo_tall_a200-mesh-normals" offset="1"/>
          <input semantic="TEXCOORD" source="#ocotillo_tall_a200-mesh-map-0" offset="2" set="0"/>
          <p>11 0 0 10 0 1 8 0 2 12 1 3 14 1 4 13 1 5 15 2 6 18 2 7 17 2 8 20 3 9 19 3 10 17 3 11 16 4 12 15 4 13 19 4 14 22 5 15 21 5 16 26 5 17 25 6 18 27 6 19 26 6 20 30 7 21 34 7 22 28 7 23 38 8 24 37 8 25 36 8 26 46 9 27 45 9 28 43 9 29 48 10 30 46 10 31 44 10 32 44 11 33 43 11 34 49 11 35 52 12 36 51 12 37 50 12 38 54 13 39 53 13 40 51 13 41 52 14 42 56 14 43 54 14 44 58 15 45 57 15 46 61 15 47 57 16 48 60 16 49 59 16 50 62 17 51 61 17 52 59 17 53 57 18 54 59 18 55 61 18 56 5 19 57 2 19 58 3 19 59 5 20 60 1 20 61 6 20 62 0 21 63 6 21 64 1 21 65 5 22 66 6 22 67 4 22 68 8 23 69 7 23 70 9 23 71 4 24 72 0 24 73 2 24 74 14 25 75 10 25 76 11 25 77 9 26 78 11 26 79 8 26 80 7 27 81 11 27 82 9 27 83 10 28 84 13 28 85 8 28 86 13 29 87 14 29 88 7 29 89 24 30 90 21 30 91 22 30 92 15 31 93 16 31 94 18 31 95 18 32 96 20 32 97 17 32 98 18 33 99 16 33 100 20 33 101 20 34 102 16 34 103 19 34 104 19 35 105 15 35 106 17 35 107 25 36 108 24 36 109 27 36 110 21 37 111 25 37 112 26 37 113 27 38 114 24 38 115 22 38 116 27 39 117 22 39 118 26 39 119 32 40 120 31 40 121 33 40 122 30 41 123 31 41 124 29 41 125 33 42 126 30 42 127 28 42 128 28 43 129 32 43 130 33 43 131 36 44 132 35 44 133 38 44 134 29 45 135 32 45 136 34 45 137 40 46 138 37 46 139 38 46 140 38 47 141 41 47 142 40 47 143 40 48 144 41 48 145 39 48 146 42 49 147 41 49 148 35 49 149 39 50 150 36 50 151 37 50 152 48 51 153 45 51 154 46 51 155 44 52 156 46 52 157 43 52 158 49 53 159 48 53 160 44 53 161 3 54 162 0 54 163 1 54 164 49 55 165 45 55 166 47 55 167 56 56 168 53 56 169 54 56 170 52 57 171 54 57 172 51 57 173 50 58 174 56 58 175 52 58 176 53 59 177 50 59 178 51 59 179 57 60 180 58 60 181 60 60 182 60 61 183 62 61 184 59 61 185 60 62 186 58 62 187 62 62 188 62 63 189 58 63 190 61 63 191 30 64 192 29 64 193 34 64 194 5 65 195 4 65 196 2 65 197 5 66 198 3 66 199 1 66 200 0 67 201 4 67 202 6 67 203 8 68 204 13 68 205 7 68 206 14 69 207 12 69 208 10 69 209 7 70 210 14 70 211 11 70 212 10 71 213 12 71 214 13 71 215 24 72 216 23 72 217 21 72 218 25 73 219 23 73 220 24 73 221 21 74 222 23 74 223 25 74 224 32 75 225 29 75 226 31 75 227 33 76 228 31 76 229 30 76 230 28 77 231 34 77 232 32 77 233 36 78 234 42 78 235 35 78 236 40 79 237 39 79 238 37 79 239 38 80 240 35 80 241 41 80 242 42 81 243 39 81 244 41 81 245 39 82 246 42 82 247 36 82 248 48 83 249 47 83 250 45 83 251 49 84 252 47 84 253 48 84 254 3 85 255 2 85 256 0 85 257 49 86 258 43 86 259 45 86 260 56 87 261 55 87 262 53 87 263 50 88 264 55 88 265 56 88 266 53 89 267 55 89 268 50 89 269</p>
        </triangles>
      </mesh>
    </geometry>
    <geometry id="Colmesh_clump-1-mesh" name="Colmesh_clump-1">
      <mesh>
        <source id="Colmesh_clump-1-mesh-positions">
          <float_array id="Colmesh_clump-1-mesh-positions-array" count="48">0 0.28 8.34465e-5 0 0.28 4.500083 0.1979899 0.1979899 8.34465e-5 0.1979899 0.1979899 4.500083 0.28 0 8.34465e-5 0.28 0 4.500083 0.1979899 -0.1979899 8.34465e-5 0.1979899 -0.1979899 4.500083 0 -0.28 8.34465e-5 0 -0.28 4.500083 -0.1979899 -0.1979899 8.34465e-5 -0.1979899 -0.1979899 4.500083 -0.28 0 8.34465e-5 -0.28 0 4.500083 -0.1979899 0.1979899 8.34465e-5 -0.1979899 0.1979899 4.500083</float_array>
          <technique_common>
            <accessor source="#Colmesh_clump-1-mesh-positions-array" count="16" stride="3">
              <param name="X" type="float"/>
              <param name="Y" type="float"/>
              <param name="Z" type="float"/>
            </accessor>
          </technique_common>
        </source>
        <source id="Colmesh_clump-1-mesh-normals">
          <float_array id="Colmesh_clump-1-mesh-normals-array" count="84">0.3826834 0.9238795 0 0.9238795 0.3826834 0 0.9238795 -0.3826834 0 0.3826834 -0.9238795 0 -0.3826834 -0.9238795 0 -0.9238795 -0.3826834 0 0 0 1 -0.9238795 0.3826834 0 -0.3826834 0.9238795 0 0 0 -1 0.3826834 0.9238795 0 0.9238795 0.3826834 0 0.9238795 -0.3826834 0 0.3826834 -0.9238795 0 -0.3826834 -0.9238795 0 -0.9238795 -0.3826834 0 0 0 1 0 0 1 0 0 1 0 0 1 0 0 1 -0.9238795 0.3826834 0 -0.3826834 0.9238795 0 0 0 -1 0 0 -1 0 0 -1 0 0 -1 0 0 -1</float_array>
          <technique_common>
            <accessor source="#Colmesh_clump-1-mesh-normals-array" count="28" stride="3">
              <param name="X" type="float"/>
              <param name="Y" type="float"/>
              <param name="Z" type="float"/>
            </accessor>
          </technique_common>
        </source>
        <source id="Colmesh_clump-1-mesh-map-0">
          <float_array id="Colmesh_clump-1-mesh-map-0-array" count="168">1 1 0.875 0.5 1 0.5 0.875 1 0.75 0.5 0.875 0.5 0.75 1 0.625 0.5 0.75 0.5 0.625 1 0.5 0.5 0.625 0.5 0.5 1 0.375 0.5 0.5 0.5 0.375 1 0.25 0.5 0.375 0.5 0.00999999 0.25 0.25 0.00999999 0.49 0.25 0.25 1 0.125 0.5 0.25 0.5 0.125 1 0 0.5 0.125 0.5 0.9197056 0.08029437 0.5802944 0.08029437 0.5802944 0.4197056 1 1 0.875 1 0.875 0.5 0.875 1 0.75 1 0.75 0.5 0.75 1 0.625 1 0.625 0.5 0.625 1 0.5 1 0.5 0.5 0.5 1 0.375 1 0.375 0.5 0.375 1 0.25 1 0.25 0.5 0.49 0.25 0.4197056 0.4197056 0.25 0.49 0.25 0.49 0.08029437 0.4197056 0.00999999 0.25 0.00999999 0.25 0.08029437 0.08029437 0.25 0.00999999 0.25 0.00999999 0.4197056 0.08029437 0.49 0.25 0.49 0.25 0.25 0.49 0.00999999 0.25 0.25 1 0.125 1 0.125 0.5 0.125 1 0 1 0 0.5 0.5802944 0.4197056 0.75 0.49 0.9197056 0.4197056 0.9197056 0.4197056 0.99 0.25 0.9197056 0.08029437 0.9197056 0.08029437 0.75 0.00999999 0.5802944 0.08029437 0.5802944 0.08029437 0.51 0.25 0.5802944 0.4197056 0.5802944 0.4197056 0.9197056 0.4197056 0.9197056 0.08029437</float_array>
          <technique_common>
            <accessor source="#Colmesh_clump-1-mesh-map-0-array" count="84" stride="2">
              <param name="S" type="float"/>
              <param name="T" type="float"/>
            </accessor>
          </technique_common>
        </source>
        <vertices id="Colmesh_clump-1-mesh-vertices">
          <input semantic="POSITION" source="#Colmesh_clump-1-mesh-positions"/>
        </vertices>
        <triangles material="Colmesh_Material-material" count="28">
          <input semantic="VERTEX" source="#Colmesh_clump-1-mesh-vertices" offset="0"/>
          <input semantic="NORMAL" source="#Colmesh_clump-1-mesh-normals" offset="1"/>
          <input semantic="TEXCOORD" source="#Colmesh_clump-1-mesh-map-0" offset="2" set="0"/>
          <p>1 0 0 2 0 1 0 0 2 3 1 3 4 1 4 2 1 5 5 2 6 6 2 7 4 2 8 7 3 9 8 3 10 6 3 11 9 4 12 10 4 13 8 4 14 11 5 15 12 5 16 10 5 17 13 6 18 9 6 19 5 6 20 13 7 21 14 7 22 12 7 23 15 8 24 0 8 25 14 8 26 6 9 27 10 9 28 14 9 29 1 10 30 3 10 31 2 10 32 3 11 33 5 11 34 4 11 35 5 12 36 7 12 37 6 12 38 7 13 39 9 13 40 8 13 41 9 14 42 11 14 43 10 14 44 11 15 45 13 15 46 12 15 47 5 16 48 3 16 49 1 16 50 1 17 51 15 17 52 13 17 53 13 18 54 11 18 55 9 18 56 9 19 57 7 19 58 5 19 59 5 20 60 1 20 61 13 20 62 13 21 63 15 21 64 14 21 65 15 22 66 1 22 67 0 22 68 14 23 69 0 23 70 2 23 71 2 24 72 4 24 73 6 24 74 6 25 75 8 25 76 10 25 77 10 26 78 12 26 79 14 26 80 14 27 81 2 27 82 6 27 83</p>
        </triangles>
      </mesh>
    </geometry>
    <geometry id="ocotillo_tall_a800-mesh" name="ocotillo_tall_a800">
      <mesh>
        <source id="ocotillo_tall_a800-mesh-positions">
          <float_array id="ocotillo_tall_a800-mesh-positions-array" count="324">0.09222352 -0.1458737 0.005030632 0.06295454 0.195225 4.677855 0.1085223 -0.1534841 0.00568819 0.07925331 0.1876146 4.678513 0.1100571 -0.1713702 0.007003307 0.08078807 0.1697284 4.679828 0.09529304 -0.181646 0.007660865 0.06602406 0.1594526 4.680486 0.07899427 -0.1740356 0.007003307 0.04972529 0.1670629 4.679828 0.07745951 -0.1561495 0.00568819 0.04819053 0.1849491 4.678513 0.1418948 0.1463534 1.28746e-4 0.1474195 0.1396742 3.855414 0.1596429 0.1493541 1.086e-4 0.1651676 0.1426749 3.855393 0.1711155 0.135484 6.80685e-5 0.1766403 0.1288049 3.855353 0.1648401 0.1186134 4.79221e-5 0.1703648 0.1119343 3.855333 0.1470919 0.1156128 6.80685e-5 0.1526167 0.1089336 3.855353 0.1356193 0.1294828 1.086e-4 0.141144 0.1228036 3.855393 0.242881 0.1598023 0.008315563 -0.1753104 0.2631288 4.693687 0.2553207 0.172786 0.009139537 -0.1628707 0.2761124 4.694511 0.2727218 0.1684865 0.01078748 -0.1454696 0.271813 4.696159 0.2776833 0.1512035 0.01161146 -0.1405081 0.2545298 4.696983 0.2652436 0.1382198 0.01078748 -0.1529479 0.2415462 4.696159 0.2478424 0.1425192 0.009139537 -0.170349 0.2458456 4.694511 -0.2136895 0.04187774 0.007484197 0.06839317 0.1774963 4.070728 -0.2123566 0.05981498 0.006793022 0.06972599 0.1954336 4.070037 -0.1961821 0.06759136 0.005410671 0.0859006 0.2032099 4.068655 -0.1813403 0.05743044 0.004719495 0.1007423 0.193049 4.067964 -0.1826731 0.03949314 0.005410671 0.09940952 0.1751117 4.068655 -0.1988477 0.03171682 0.006793022 0.08323496 0.1673353 4.070037 -0.09276354 0.1728297 0.004420161 -0.1996951 -0.09449136 3.584308 -0.1039052 0.1869486 0.005141735 -0.2108367 -0.08037245 3.585029 -0.09724146 0.2036073 0.006584644 -0.204173 -0.06371372 3.586472 -0.07943618 0.2061471 0.007306218 -0.1863678 -0.06117391 3.587193 -0.06829458 0.1920282 0.006584644 -0.1752261 -0.07529282 3.586472 -0.07495826 0.1753695 0.005141735 -0.1818898 -0.09195154 3.585029 -0.115424 -0.1199139 0.001774787 -0.1507756 0.01044249 4.13432 -0.1328234 -0.1153124 0.001480817 -0.1681749 0.01504403 4.134027 -0.1375322 -0.09794914 8.92878e-4 -0.1728837 0.03240728 4.133438 -0.1248415 -0.08518749 5.98907e-4 -0.160193 0.04516899 4.133144 -0.1074421 -0.08978903 8.92878e-4 -0.1427937 0.04056745 4.133438 -0.1027334 -0.1071522 0.001480817 -0.1380849 0.0232042 4.134027 -0.04478287 -0.09176445 0 -0.008912861 -0.108497 3.837363 -0.05952864 -0.1020869 9.27448e-5 -0.02365857 -0.1188195 3.837455 -0.07584023 -0.09447789 2.78473e-4 -0.03997021 -0.1112105 3.837641 -0.0774061 -0.07654637 3.71218e-4 -0.04153603 -0.093279 3.837734 -0.06266033 -0.06622385 2.78473e-4 -0.02679026 -0.08295649 3.837641 -0.04634875 -0.07383286 9.27448e-5 -0.01047867 -0.09056556 3.837455 0.006834626 -0.104074 1.09434e-4 0.08122736 -0.08398628 3.766441 0.002211332 -0.1214691 2.93612e-4 0.07660406 -0.1013814 3.766625 -0.01516258 -0.1261605 6.61731e-4 0.05923008 -0.1060728 3.766993 -0.02791327 -0.1134567 8.45909e-4 0.0464794 -0.09336906 3.767177 -0.02328997 -0.09606164 6.61731e-4 0.05110269 -0.07597386 3.766993 -0.005915999 -0.09137022 2.93612e-4 0.06847667 -0.0712825 3.766625 0.1596075 0.04652839 0.005023717 0.01650893 -0.1377832 3.605934 0.1664127 0.02987456 0.004441738 0.02331417 -0.154437 3.605352 0.1553972 0.01568645 0.003277778 0.01229858 -0.1686251 3.604188 0.1375764 0.01815217 0.002695798 -0.005522191 -0.1661594 3.603606 0.1307711 0.03480601 0.003277778 -0.01232743 -0.1495056 3.604188 0.1417867 0.04899412 0.004441738 -0.001311838 -0.1353175 3.605352</float_array>
          <technique_common>
            <accessor source="#ocotillo_tall_a800-mesh-positions-array" count="108" stride="3">
              <param name="X" type="float"/>
              <param name="Y" type="float"/>
              <param name="Z" type="float"/>
            </accessor>
          </technique_common>
        </source>
        <source id="ocotillo_tall_a800-mesh-normals">
          <float_array id="ocotillo_tall_a800-mesh-normals-array" count="540">0.4243274 0.9032951 -0.06327927 0.9963387 0.08549368 0 0.5720111 -0.8178014 0.06327927 -0.4243274 -0.9032951 0.06327927 -0.006246328 0.07279455 0.9973274 -0.9963387 -0.08549374 0 -0.5720111 0.8178014 -0.06327927 0.006246328 -0.07279455 -0.9973274 -0.1667003 0.9860057 0.001947104 0.7705568 0.6373715 0 0.9372568 -0.3486343 -0.001947104 0.1667001 -0.9860057 -0.001947104 0.001418292 -0.001714646 0.9999975 -0.7705573 -0.6373708 0 -0.9372568 0.3486344 0.001947104 -0.001429259 0.001739919 -0.9999974 -0.7172785 0.6922609 -0.07928687 0.2398666 0.9708058 0 0.9571443 0.2785468 0.07928687 0.7172787 -0.6922608 0.07928687 -0.08887988 0.02196031 0.9958003 -0.2398654 -0.9708061 0 -0.957145 -0.2785444 -0.07928693 0.08887988 -0.02196031 -0.9958003 -0.9948499 0.07648468 0.06651264 -0.4332993 0.9012501 0 0.5615505 0.8247649 -0.06651264 0.9948499 -0.07648468 -0.06651264 0.06922012 0.03326249 0.9970467 0.4332993 -0.9012501 0 -0.5615497 -0.8247654 0.06651264 -0.06921356 -0.0332762 -0.9970467 -0.7848428 -0.6157935 -0.06942647 -0.9284729 0.3714 0 -0.1436306 0.9871931 0.06942647 0.7848432 0.6157932 0.06942647 -0.02977198 -0.07442796 0.9967819 0.9284729 -0.3714002 0 0.1436304 -0.9871931 -0.06942647 0.02976489 0.07443076 -0.9967819 -0.2560195 -0.9662576 0.02828937 -0.9651392 -0.2617372 0 -0.7091199 0.7045203 -0.02828937 0.2560192 0.9662578 -0.02828937 -0.008563935 0.03152066 0.9994665 0.9651392 0.2617374 0 0.7091197 -0.7045204 0.02828937 0.008549213 -0.03152465 -0.9994665 0.573419 -0.8192135 -0.008932173 -0.4227459 -0.9062482 0 -0.9961652 -0.08703398 0.008932173 -0.5734194 0.8192133 0.008932173 0.009346485 -0.004355669 0.9999468 0.4227463 0.906248 0 0.9961652 0.08703482 -0.008932173 -0.009346842 0.004360079 -0.9999468 0.9662495 -0.2569982 -0.01771467 0.2606858 -0.9654237 0 -0.7055632 -0.7084255 0.01771467 -0.9662497 0.256998 0.01771467 0.01974385 0.005331277 0.9997909 -0.2606862 0.9654236 0 0.705563 0.7084257 -0.01771467 -0.01974189 -0.005338668 -0.9997909 0.9249276 0.3759956 0.05600142 0.7898816 -0.6132593 0 -0.1350465 -0.9892554 -0.05600142 -0.9249277 -0.3759956 -0.05600142 -0.03965604 -0.05107718 0.9979071 -0.7898816 0.6132593 0 0.1350465 0.9892554 0.05600142 0.03965604 0.05107718 -0.9979071 0.4243274 0.9032951 -0.06327927 0.9963387 0.08549374 0 0.5720111 -0.8178014 0.06327927 -0.4243274 -0.9032951 0.06327927 -0.006246328 0.07279455 0.9973274 -0.006246328 0.07279455 0.9973274 -0.006246328 0.07279455 0.9973274 -0.9963387 -0.08549374 0 -0.5720111 0.8178014 -0.06327927 0.006246328 -0.07279455 -0.9973274 0.006246328 -0.07279455 -0.9973274 0.006246328 -0.07279455 -0.9973274 -0.1666993 0.9860059 0.001947104 0.7705572 0.637371 0 0.9372568 -0.3486345 -0.001947104 0.1667003 -0.9860057 -0.001947104 0.00143516 -0.001735031 0.9999975 0.00143516 -0.001735031 0.9999975 0.00143516 -0.001735031 0.9999975 -0.7705568 -0.6373714 0 -0.9372568 0.3486341 0.001947104 -0.001426696 0.001724839 -0.9999975 -0.00143516 0.001735031 -0.9999975 -0.001433908 0.001727521 -0.9999975 -0.7172791 0.6922603 -0.07928693 0.239865 0.9708062 0 0.9571446 0.2785457 0.07928687 0.7172791 -0.6922603 0.07928693 -0.08888006 0.02196031 0.9958003 -0.08887994 0.02196037 0.9958003 -0.08887982 0.02196049 0.9958003 -0.2398662 -0.970806 0 -0.957145 -0.2785447 -0.07928693 0.08887994 -0.02196043 -0.9958003 0.08887994 -0.02196037 -0.9958003 0.08888006 -0.02196025 -0.9958003 -0.9948499 0.07648378 0.06651264 -0.4332993 0.9012501 0 0.5615498 0.8247654 -0.06651258 0.9948498 -0.07648557 -0.06651258 0.06922012 0.03326249 0.9970467 0.06920695 0.03328996 0.9970467 0.06920695 0.03328996 0.9970467 0.4332993 -0.9012501 0 -0.5615512 -0.8247644 0.06651264 -0.06921356 -0.0332762 -0.9970467 -0.06921356 -0.0332762 -0.9970467 -0.06921356 -0.0332762 -0.9970467 -0.7848426 -0.6157938 -0.06942653 -0.9284729 0.3713998 0 -0.1436299 0.9871932 0.06942647 0.7848426 0.6157938 0.06942653 -0.02977198 -0.0744279 0.9967819 -0.02977204 -0.0744279 0.9967819 -0.02977198 -0.0744279 0.9967819 0.9284728 -0.3714005 0 0.14363 -0.9871932 -0.06942647 0.02977687 0.07444012 -0.9967808 0.02977198 0.0744279 -0.9967819 0.029778 0.07443261 -0.9967814 -0.2560192 -0.9662576 0.02828937 -0.965139 -0.2617378 0 -0.7091191 0.704521 -0.02828937 0.2560192 0.9662576 -0.02828937 -0.008526623 0.03155815 0.9994655 -0.008585631 0.03154218 0.9994655 -0.008534431 0.03152865 0.9994665 0.9651393 0.2617371 0 0.7091196 -0.7045205 0.02828937 0.008549213 -0.03152465 -0.9994665 0.008549213 -0.03152465 -0.9994665 0.008549213 -0.03152465 -0.9994665 0.5734194 -0.8192133 -0.008932173 -0.4227461 -0.9062482 0 -0.9961652 -0.08703482 0.008932173 -0.573419 0.8192135 0.008932173 0.009347617 -0.004368901 0.9999468 0.009354054 -0.004355013 0.9999467 0.009343206 -0.004362642 0.9999469 0.422746 0.9062482 0 0.9961652 0.08703446 -0.008932173 -0.009338855 0.004356384 -0.9999469 -0.009354054 0.004355013 -0.9999468 -0.009347617 0.004368901 -0.9999467 0.9662495 -0.2569983 -0.01771467 0.2606862 -0.9654236 0 -0.7055631 -0.7084256 0.01771467 -0.9662495 0.2569983 0.01771467 0.01974385 0.005331277 0.9997909 0.01974385 0.005331277 0.9997909 0.01976943 0.005338191 0.9997904 -0.2606862 0.9654236 0 0.7055633 0.7084253 -0.01771467 -0.01975667 -0.005334734 -0.9997906 -0.01974385 -0.005331277 -0.9997909 -0.01975125 -0.00532931 -0.9997908 0.9249275 0.3759958 0.05600142 0.7898815 -0.6132594 0 -0.1350465 -0.9892554 -0.05600142 -0.9249277 -0.3759956 -0.05600142 -0.03965604 -0.05107718 0.9979071 -0.03965604 -0.05107718 0.9979071 -0.03965604 -0.05107718 0.9979071 -0.7898816 0.6132593 0 0.1350465 0.9892554 0.05600142 0.03965604 0.05107718 -0.9979071 0.03965604 0.05107718 -0.9979071 0.03965604 0.05107718 -0.9979071</float_array>
          <technique_common>
            <accessor source="#ocotillo_tall_a800-mesh-normals-array" count="180" stride="3">
              <param name="X" type="float"/>
              <param name="Y" type="float"/>
              <param name="Z" type="float"/>
            </accessor>
          </technique_common>
        </source>
        <source id="ocotillo_tall_a800-mesh-map-0">
          <float_array id="ocotillo_tall_a800-mesh-map-0-array" count="1080">0.75 0.25 0.5 0.5 0.5 0.25 0.5 0.25 0.75 0.5 0.5 0.5 0.75 0.25 0.5 0.5 0.5 0.25 0.75 0.25 0.5 0.5 0.5 0.25 0.25 0.00999999 0.4578461 0.1299999 0.25 0.49 0.75 0.25 0.5 0.5 0.5 0.25 0.75 0.25 0.5 0.5 0.5 0.25 0.75 0.00999999 0.5421539 0.1299999 0.5421539 0.37 0.5 0.25 0.75 0.5 0.5 0.5 0.5 0.25 0.75 0.5 0.5 0.5 0.75 0.25 0.5 0.5 0.5 0.25 0.5 0.25 0.75 0.5 0.5 0.5 0.04215389 0.1299999 0.25 0.00999999 0.4578461 0.1299999 0.75 0.25 0.5 0.5 0.5 0.25 0.75 0.25 0.5 0.5 0.5 0.25 0.75 0.00999999 0.5421539 0.1299999 0.5421539 0.37 0.5 0.25 0.75 0.5 0.5 0.5 0.75 0.25 0.5 0.5 0.5 0.25 0.5 0.25 0.75 0.5 0.5 0.5 0.75 0.25 0.5 0.5 0.5 0.25 0.04215389 0.1299999 0.25 0.00999999 0.4578461 0.1299999 0.75 0.25 0.5 0.5 0.5 0.25 0.75 0.25 0.5 0.5 0.5 0.25 0.75 0.00999999 0.5421539 0.1299999 0.5421539 0.37 0.75 0.25 0.5 0.5 0.5 0.25 0.75 0.25 0.5 0.5 0.5 0.25 0.75 0.25 0.5 0.5 0.5 0.25 0.75 0.25 0.5 0.5 0.5 0.25 0.25 0.00999999 0.4578461 0.1299999 0.25 0.49 0.75 0.25 0.5 0.5 0.5 0.25 0.5 0.25 0.75 0.5 0.5 0.5 0.75 0.00999999 0.5421539 0.1299999 0.5421539 0.37 0.5 0.25 0.75 0.5 0.5 0.5 0.5 0.25 0.75 0.5 0.5 0.5 0.5 0.25 0.75 0.5 0.5 0.5 0.75 0.25 0.5 0.5 0.5 0.25 0.25 0.00999999 0.4578461 0.1299999 0.25 0.49 0.75 0.25 0.5 0.5 0.5 0.25 0.75 0.25 0.5 0.5 0.5 0.25 0.75 0.00999999 0.5421539 0.1299999 0.5421539 0.37 0.75 0.25 0.5 0.5 0.5 0.25 0.5 0.25 0.75 0.5 0.5 0.5 0.75 0.25 0.5 0.5 0.5 0.25 0.5 0.25 0.75 0.5 0.5 0.5 0.25 0.00999999 0.4578461 0.1299999 0.25 0.49 0.75 0.25 0.5 0.5 0.5 0.25 0.5 0.25 0.75 0.5 0.5 0.5 0.9578461 0.37 0.75 0.00999999 0.5421539 0.37 0.5 0.25 0.75 0.5 0.5 0.5 0.75 0.25 0.5 0.5 0.5 0.25 0.5 0.25 0.75 0.5 0.5 0.5 0.75 0.25 0.5 0.5 0.5 0.25 0.25 0.00999999 0.4578461 0.1299999 0.25 0.49 0.5 0.25 0.75 0.5 0.5 0.5 0.75 0.25 0.5 0.5 0.5 0.25 0.9578461 0.37 0.75 0.00999999 0.5421539 0.37 0.75 0.25 0.5 0.5 0.5 0.25 0.5 0.25 0.75 0.5 0.5 0.5 0.75 0.25 0.5 0.5 0.5 0.25 0.5 0.25 0.75 0.5 0.5 0.5 0.25 0.49 0.04215389 0.1299999 0.4578461 0.1299999 0.75 0.25 0.5 0.5 0.5 0.25 0.5 0.25 0.75 0.5 0.5 0.5 0.75 0.00999999 0.5421539 0.1299999 0.5421539 0.37 0.75 0.25 0.5 0.5 0.5 0.25 0.75 0.25 0.5 0.5 0.5 0.25 0.75 0.25 0.5 0.5 0.5 0.25 0.75 0.25 0.5 0.5 0.5 0.25 0.04215389 0.1299999 0.25 0.00999999 0.4578461 0.1299999 0.75 0.25 0.5 0.5 0.5 0.25 0.75 0.25 0.5 0.5 0.5 0.25 0.9578461 0.37 0.75 0.00999999 0.5421539 0.37 0.75 0.25 0.75 0.5 0.5 0.5 0.5 0.25 0.75 0.25 0.75 0.5 0.75 0.25 0.75 0.5 0.5 0.5 0.75 0.25 0.75 0.5 0.5 0.5 0.4578461 0.1299999 0.4578461 0.37 0.25 0.49 0.25 0.49 0.04215389 0.37 0.04215389 0.1299999 0.04215389 0.1299999 0.25 0.00999999 0.25 0.49 0.75 0.25 0.75 0.5 0.5 0.5 0.75 0.25 0.75 0.5 0.5 0.5 0.5421539 0.37 0.75 0.49 0.75 0.00999999 0.75 0.49 0.9578461 0.37 0.75 0.00999999 0.9578461 0.37 0.9578461 0.1299999 0.75 0.00999999 0.5 0.25 0.75 0.25 0.75 0.5 0.5 0.25 0.75 0.25 0.75 0.5 0.75 0.25 0.75 0.5 0.5 0.5 0.5 0.25 0.75 0.25 0.75 0.5 0.4578461 0.1299999 0.4578461 0.37 0.25 0.49 0.25 0.49 0.04215389 0.37 0.4578461 0.1299999 0.04215389 0.37 0.04215389 0.1299999 0.4578461 0.1299999 0.75 0.25 0.75 0.5 0.5 0.5 0.75 0.25 0.75 0.5 0.5 0.5 0.5421539 0.37 0.75 0.49 0.9578461 0.37 0.9578461 0.37 0.9578461 0.1299999 0.5421539 0.37 0.9578461 0.1299999 0.75 0.00999999 0.5421539 0.37 0.5 0.25 0.75 0.25 0.75 0.5 0.75 0.25 0.75 0.5 0.5 0.5 0.5 0.25 0.75 0.25 0.75 0.5 0.75 0.25 0.75 0.5 0.5 0.5 0.4578461 0.1299999 0.4578461 0.37 0.04215389 0.1299999 0.4578461 0.37 0.25 0.49 0.04215389 0.1299999 0.25 0.49 0.04215389 0.37 0.04215389 0.1299999 0.75 0.25 0.75 0.5 0.5 0.5 0.75 0.25 0.75 0.5 0.5 0.5 0.5421539 0.37 0.75 0.49 0.75 0.00999999 0.75 0.49 0.9578461 0.37 0.75 0.00999999 0.9578461 0.37 0.9578461 0.1299999 0.75 0.00999999 0.75 0.25 0.75 0.5 0.5 0.5 0.75 0.25 0.75 0.5 0.5 0.5 0.75 0.25 0.75 0.5 0.5 0.5 0.75 0.25 0.75 0.5 0.5 0.5 0.4578461 0.1299999 0.4578461 0.37 0.25 0.49 0.25 0.49 0.04215389 0.37 0.04215389 0.1299999 0.04215389 0.1299999 0.25 0.00999999 0.25 0.49 0.75 0.25 0.75 0.5 0.5 0.5 0.5 0.25 0.75 0.25 0.75 0.5 0.5421539 0.37 0.75 0.49 0.75 0.00999999 0.75 0.49 0.9578461 0.37 0.75 0.00999999 0.9578461 0.37 0.9578461 0.1299999 0.75 0.00999999 0.5 0.25 0.75 0.25 0.75 0.5 0.5 0.25 0.75 0.25 0.75 0.5 0.5 0.25 0.75 0.25 0.75 0.5 0.75 0.25 0.75 0.5 0.5 0.5 0.4578461 0.1299999 0.4578461 0.37 0.25 0.49 0.25 0.49 0.04215389 0.37 0.04215389 0.1299999 0.04215389 0.1299999 0.25 0.00999999 0.25 0.49 0.75 0.25 0.75 0.5 0.5 0.5 0.75 0.25 0.75 0.5 0.5 0.5 0.5421539 0.37 0.75 0.49 0.9578461 0.37 0.9578461 0.37 0.9578461 0.1299999 0.5421539 0.37 0.9578461 0.1299999 0.75 0.00999999 0.5421539 0.37 0.75 0.25 0.75 0.5 0.5 0.5 0.5 0.25 0.75 0.25 0.75 0.5 0.75 0.25 0.75 0.5 0.5 0.5 0.5 0.25 0.75 0.25 0.75 0.5 0.4578461 0.1299999 0.4578461 0.37 0.25 0.49 0.25 0.49 0.04215389 0.37 0.04215389 0.1299999 0.04215389 0.1299999 0.25 0.00999999 0.25 0.49 0.75 0.25 0.75 0.5 0.5 0.5 0.5 0.25 0.75 0.25 0.75 0.5 0.5421539 0.37 0.75 0.49 0.9578461 0.37 0.9578461 0.37 0.9578461 0.1299999 0.75 0.00999999 0.75 0.00999999 0.5421539 0.1299999 0.5421539 0.37 0.5 0.25 0.75 0.25 0.75 0.5 0.75 0.25 0.75 0.5 0.5 0.5 0.5 0.25 0.75 0.25 0.75 0.5 0.75 0.25 0.75 0.5 0.5 0.5 0.4578461 0.1299999 0.4578461 0.37 0.25 0.49 0.25 0.49 0.04215389 0.37 0.04215389 0.1299999 0.04215389 0.1299999 0.25 0.00999999 0.25 0.49 0.5 0.25 0.75 0.25 0.75 0.5 0.75 0.25 0.75 0.5 0.5 0.5 0.5421539 0.37 0.75 0.49 0.9578461 0.37 0.9578461 0.37 0.9578461 0.1299999 0.75 0.00999999 0.75 0.00999999 0.5421539 0.1299999 0.5421539 0.37 0.75 0.25 0.75 0.5 0.5 0.5 0.5 0.25 0.75 0.25 0.75 0.5 0.75 0.25 0.75 0.5 0.5 0.5 0.5 0.25 0.75 0.25 0.75 0.5 0.4578461 0.1299999 0.4578461 0.37 0.25 0.49 0.25 0.49 0.04215389 0.37 0.04215389 0.1299999 0.04215389 0.1299999 0.25 0.00999999 0.4578461 0.1299999 0.75 0.25 0.75 0.5 0.5 0.5 0.5 0.25 0.75 0.25 0.75 0.5 0.5421539 0.37 0.75 0.49 0.9578461 0.37 0.9578461 0.37 0.9578461 0.1299999 0.5421539 0.37 0.9578461 0.1299999 0.75 0.00999999 0.5421539 0.37 0.75 0.25 0.75 0.5 0.5 0.5 0.75 0.25 0.75 0.5 0.5 0.5 0.75 0.25 0.75 0.5 0.5 0.5 0.75 0.25 0.75 0.5 0.5 0.5 0.4578461 0.1299999 0.4578461 0.37 0.04215389 0.1299999 0.4578461 0.37 0.25 0.49 0.04215389 0.1299999 0.25 0.49 0.04215389 0.37 0.04215389 0.1299999 0.75 0.25 0.75 0.5 0.5 0.5 0.75 0.25 0.75 0.5 0.5 0.5 0.5421539 0.37 0.75 0.49 0.9578461 0.37 0.9578461 0.37 0.9578461 0.1299999 0.75 0.00999999 0.75 0.00999999 0.5421539 0.1299999 0.5421539 0.37</float_array>
          <technique_common>
            <accessor source="#ocotillo_tall_a800-mesh-map-0-array" count="540" stride="2">
              <param name="S" type="float"/>
              <param name="T" type="float"/>
            </accessor>
          </technique_common>
        </source>
        <vertices id="ocotillo_tall_a800-mesh-vertices">
          <input semantic="POSITION" source="#ocotillo_tall_a800-mesh-positions"/>
        </vertices>
        <triangles material="ParkerVegBark-material" count="180">
          <input semantic="VERTEX" source="#ocotillo_tall_a800-mesh-vertices" offset="0"/>
          <input semantic="NORMAL" source="#ocotillo_tall_a800-mesh-normals" offset="1"/>
          <input semantic="TEXCOORD" source="#ocotillo_tall_a800-mesh-map-0" offset="2" set="0"/>
          <p>1 0 0 2 0 1 0 0 2 2 1 3 5 1 4 4 1 5 5 2 6 6 2 7 4 2 8 7 3 9 8 3 10 6 3 11 7 4 12 5 4 13 1 4 14 9 5 15 10 5 16 8 5 17 11 6 18 0 6 19 10 6 20 6 7 21 8 7 22 10 7 23 12 8 24 15 8 25 14 8 26 14 9 27 17 9 28 16 9 29 17 10 30 18 10 31 16 10 32 18 11 33 21 11 34 20 11 35 21 12 36 19 12 37 17 12 38 21 13 39 22 13 40 20 13 41 23 14 42 12 14 43 22 14 44 18 15 45 20 15 46 22 15 47 24 16 48 27 16 49 26 16 50 27 17 51 28 17 52 26 17 53 28 18 54 31 18 55 30 18 56 31 19 57 32 19 58 30 19 59 33 20 60 31 20 61 29 20 62 33 21 63 34 21 64 32 21 65 35 22 66 24 22 67 34 22 68 30 23 69 32 23 70 34 23 71 37 24 72 38 24 73 36 24 74 39 25 75 40 25 76 38 25 77 41 26 78 42 26 79 40 26 80 43 27 81 44 27 82 42 27 83 43 28 84 41 28 85 37 28 86 45 29 87 46 29 88 44 29 89 46 30 90 37 30 91 36 30 92 42 31 93 44 31 94 46 31 95 48 32 96 51 32 97 50 32 98 50 33 99 53 33 100 52 33 101 52 34 102 55 34 103 54 34 104 55 35 105 56 35 106 54 35 107 55 36 108 53 36 109 49 36 110 57 37 111 58 37 112 56 37 113 59 38 114 48 38 115 58 38 116 54 39 117 56 39 118 58 39 119 61 40 120 62 40 121 60 40 122 62 41 123 65 41 124 64 41 125 65 42 126 66 42 127 64 42 128 66 43 129 69 43 130 68 43 131 67 44 132 65 44 133 61 44 134 69 45 135 70 45 136 68 45 137 70 46 138 61 46 139 60 46 140 62 47 141 66 47 142 70 47 143 72 48 144 75 48 145 74 48 146 75 49 147 76 49 148 74 49 149 76 50 150 79 50 151 78 50 152 79 51 153 80 51 154 78 51 155 79 52 156 77 52 157 73 52 158 80 53 159 83 53 160 82 53 161 83 54 162 72 54 163 82 54 164 74 55 165 78 55 166 82 55 167 85 56 168 86 56 169 84 56 170 86 57 171 89 57 172 88 57 173 89 58 174 90 58 175 88 58 176 90 59 177 93 59 178 92 59 179 85 60 180 93 60 181 89 60 182 93 61 183 94 61 184 92 61 185 94 62 186 85 62 187 84 62 188 90 63 189 92 63 190 94 63 191 97 64 192 98 64 193 96 64 194 99 65 195 100 65 196 98 65 197 101 66 198 102 66 199 100 66 200 103 67 201 104 67 202 102 67 203 105 68 204 103 68 205 101 68 206 105 69 207 106 69 208 104 69 209 107 70 210 96 70 211 106 70 212 98 71 213 102 71 214 106 71 215 1 72 216 3 72 217 2 72 218 2 73 219 3 73 220 5 73 221 5 74 222 7 74 223 6 74 224 7 75 225 9 75 226 8 75 227 5 76 228 3 76 229 1 76 230 1 77 231 11 77 232 9 77 233 9 78 234 7 78 235 1 78 236 9 79 237 11 79 238 10 79 239 11 80 240 1 80 241 0 80 242 10 81 243 0 81 244 6 81 245 0 82 246 2 82 247 6 82 248 2 83 249 4 83 250 6 83 251 12 84 252 13 84 253 15 84 254 14 85 255 15 85 256 17 85 257 17 86 258 19 86 259 18 86 260 18 87 261 19 87 262 21 87 263 17 88 264 15 88 265 13 88 266 13 89 267 23 89 268 17 89 269 23 90 270 21 90 271 17 90 272 21 91 273 23 91 274 22 91 275 23 92 276 13 92 277 12 92 278 22 93 279 12 93 280 14 93 281 14 94 282 16 94 283 22 94 284 16 95 285 18 95 286 22 95 287 24 96 288 25 96 289 27 96 290 27 97 291 29 97 292 28 97 293 28 98 294 29 98 295 31 98 296 31 99 297 33 99 298 32 99 299 29 100 300 27 100 301 33 100 302 27 101 303 25 101 304 33 101 305 25 102 306 35 102 307 33 102 308 33 103 309 35 103 310 34 103 311 35 104 312 25 104 313 24 104 314 34 105 315 24 105 316 30 105 317 24 106 318 26 106 319 30 106 320 26 107 321 28 107 322 30 107 323 37 108 324 39 108 325 38 108 326 39 109 327 41 109 328 40 109 329 41 110 330 43 110 331 42 110 332 43 111 333 45 111 334 44 111 335 41 112 336 39 112 337 37 112 338 37 113 339 47 113 340 45 113 341 45 114 342 43 114 343 37 114 344 45 115 345 47 115 346 46 115 347 46 116 348 47 116 349 37 116 350 46 117 351 36 117 352 42 117 353 36 118 354 38 118 355 42 118 356 38 119 357 40 119 358 42 119 359 48 120 360 49 120 361 51 120 362 50 121 363 51 121 364 53 121 365 52 122 366 53 122 367 55 122 368 55 123 369 57 123 370 56 123 371 53 124 372 51 124 373 49 124 374 49 125 375 59 125 376 57 125 377 57 126 378 55 126 379 49 126 380 57 127 381 59 127 382 58 127 383 59 128 384 49 128 385 48 128 386 58 129 387 48 129 388 50 129 389 50 130 390 52 130 391 58 130 392 52 131 393 54 131 394 58 131 395 61 132 396 63 132 397 62 132 398 62 133 399 63 133 400 65 133 401 65 134 402 67 134 403 66 134 404 66 135 405 67 135 406 69 135 407 65 136 408 63 136 409 61 136 410 61 137 411 71 137 412 69 137 413 69 138 414 67 138 415 61 138 416 69 139 417 71 139 418 70 139 419 70 140 420 71 140 421 61 140 422 70 141 423 60 141 424 62 141 425 62 142 426 64 142 427 66 142 428 66 143 429 68 143 430 70 143 431 72 144 432 73 144 433 75 144 434 75 145 435 77 145 436 76 145 437 76 146 438 77 146 439 79 146 440 79 147 441 81 147 442 80 147 443 77 148 444 75 148 445 73 148 446 73 149 447 83 149 448 81 149 449 81 150 450 79 150 451 73 150 452 80 151 453 81 151 454 83 151 455 83 152 456 73 152 457 72 152 458 82 153 459 72 153 460 74 153 461 74 154 462 76 154 463 78 154 464 78 155 465 80 155 466 82 155 467 85 156 468 87 156 469 86 156 470 86 157 471 87 157 472 89 157 473 89 158 474 91 158 475 90 158 476 90 159 477 91 159 478 93 159 479 89 160 480 87 160 481 85 160 482 85 161 483 95 161 484 93 161 485 93 162 486 91 162 487 89 162 488 93 163 489 95 163 490 94 163 491 94 164 492 95 164 493 85 164 494 94 165 495 84 165 496 86 165 497 86 166 498 88 166 499 94 166 500 88 167 501 90 167 502 94 167 503 97 168 504 99 168 505 98 168 506 99 169 507 101 169 508 100 169 509 101 170 510 103 170 511 102 170 512 103 171 513 105 171 514 104 171 515 101 172 516 99 172 517 105 172 518 99 173 519 97 173 520 105 173 521 97 174 522 107 174 523 105 174 524 105 175 525 107 175 526 106 175 527 107 176 528 97 176 529 96 176 530 106 177 531 96 177 532 98 177 533 98 178 534 100 178 535 102 178 536 102 179 537 104 179 538 106 179 539</p>
        </triangles>
      </mesh>
    </geometry>
  </library_geometries>
  <library_visual_scenes>
    <visual_scene id="Scene" name="Scene">
      <node id="base00" name="base00" type="NODE">
        <matrix sid="transform">1 0 0 0 0 1 0 0 0 0 1 0 0 0 0 1</matrix>
        <node id="start01" name="start01" type="NODE">
          <matrix sid="transform">1 0 0 0 0 1 0 0 0 0 1 0 0 0 0 1</matrix>
          <node id="ocotillo_tall_a800" name="ocotillo_tall_a800" type="NODE">
            <matrix sid="transform">1 0 0 0 0 1 0 0 0 0 1 0 0 0 0 1</matrix>
            <instance_geometry url="#ocotillo_tall_a800-mesh" name="ocotillo_tall_a800">
              <bind_material>
                <technique_common>
                  <instance_material symbol="ParkerVegBark-material" target="#ParkerVegBark-material">
                    <bind_vertex_input semantic="UVMap" input_semantic="TEXCOORD" input_set="0"/>
                  </instance_material>
                </technique_common>
              </bind_material>
            </instance_geometry>
          </node>
          <node id="ocotillo_tall_a200" name="ocotillo_tall_a200" type="NODE">
            <matrix sid="transform">1 0 0 0 0 1 0 0 0 0 1 0 0 0 0 1</matrix>
            <instance_geometry url="#ocotillo_tall_a200-mesh" name="ocotillo_tall_a200">
              <bind_material>
                <technique_common>
                  <instance_material symbol="ParkerVegBark-material" target="#ParkerVegBark-material">
                    <bind_vertex_input semantic="UVMap" input_semantic="TEXCOORD" input_set="0"/>
                  </instance_material>
                </technique_common>
              </bind_material>
            </instance_geometry>
          </node>
          <node id="ocotillo_tall_a50" name="ocotillo_tall_a50" type="NODE">
            <matrix sid="transform">1 0 0 0 0 1 0 0 0 0 1 0 0 0 0 1</matrix>
            <instance_geometry url="#ocotillo_tall_a50-mesh" name="ocotillo_tall_a50">
              <bind_material>
                <technique_common>
                  <instance_material symbol="ParkerVegBark-material" target="#ParkerVegBark-material">
                    <bind_vertex_input semantic="UVMap" input_semantic="TEXCOORD" input_set="0"/>
                  </instance_material>
                </technique_common>
              </bind_material>
            </instance_geometry>
          </node>
          <node id="nulldetail20" name="nulldetail20" type="NODE">
            <matrix sid="transform">1 0 0 0 0 1 0 0 0 0 1 0 0 0 0 1</matrix>
          </node>
        </node>
        <node id="collision-1" name="collision-1" type="NODE">
          <matrix sid="transform">1 0 0 0 0 1 0 0 0 0 1 0 0 0 0 1</matrix>
          <node id="Colmesh_clump-1" name="Colmesh_clump-1" type="NODE">
            <matrix sid="transform">1 0 0 0 0 1 0 0 0 0 1 0 0 0 0 1</matrix>
            <instance_geometry url="#Colmesh_clump-1-mesh" name="Colmesh_clump-1">
              <bind_material>
                <technique_common>
                  <instance_material symbol="Colmesh_Material-material" target="#Colmesh_Material-material">
                    <bind_vertex_input semantic="UVMap" input_semantic="TEXCOORD" input_set="0"/>
                  </instance_material>
                </technique_common>
              </bind_material>
            </instance_geometry>
          </node>
        </node>
      </node>
    </visual_scene>
  </library_visual_scenes>
  <scene>
    <instance_visual_scene url="#Scene"/>
  </scene>
</COLLADA>