<?xml version="1.0" encoding="utf-8"?>
<COLLADA xmlns="http://www.collada.org/2005/11/COLLADASchema" version="1.4.1" xmlns:xsi="http://www.w3.org/2001/XMLSchema-instance">
  <asset>
    <contributor>
      <author>Blender User</author>
      <authoring_tool>Blender 4.2.9 LTS commit date:2025-04-14, commit time:12:24, hash:a10f621e649a</authoring_tool>
    </contributor>
    <created>2026-08-01T08:05:55</created>
    <modified>2026-08-01T08:05:55</modified>
    <unit name="meter" meter="1"/>
    <up_axis>Z_UP</up_axis>
  </asset>
  <library_effects>
    <effect id="ParkerVegAtlas-effect">
      <profile_COMMON>
        <newparam sid="vegetation_atlas_2048_png-surface">
          <surface type="2D">
            <init_from>vegetation_atlas_2048_png</init_from>
          </surface>
        </newparam>
        <newparam sid="vegetation_atlas_2048_png-sampler">
          <sampler2D>
            <source>vegetation_atlas_2048_png-surface</source>
          </sampler2D>
        </newparam>
        <technique sid="common">
          <lambert>
            <emission>
              <color sid="emission">0 0 0 1</color>
            </emission>
            <diffuse>
              <texture texture="vegetation_atlas_2048_png-sampler" texcoord="UVMap"/>
            </diffuse>
            <index_of_refraction>
              <float sid="ior">1.5</float>
            </index_of_refraction>
          </lambert>
        </technique>
      </profile_COMMON>
    </effect>
    <effect id="Colmesh_Material-effect">
      <profile_COMMON>
        <technique sid="common">
          <lambert>
            <emission>
              <color sid="emission">0 0 0 1</color>
            </emission>
            <diffuse>
              <color sid="diffuse">1 0 1 1</color>
            </diffuse>
            <transparent opaque="A_ONE">
              <color sid="alpha">0 0 0 0.15</color>
            </transparent>
            <index_of_refraction>
              <float sid="ior">1.5</float>
            </index_of_refraction>
          </lambert>
        </technique>
      </profile_COMMON>
    </effect>
  </library_effects>
  <library_images>
    <image id="vegetation_atlas_2048_png" name="vegetation_atlas_2048_png">
      <init_from>vegetation_atlas_2048.png</init_from>
    </image>
  </library_images>
  <library_materials>
    <material id="ParkerVegAtlas-material" name="ParkerVegAtlas">
      <instance_effect url="#ParkerVegAtlas-effect"/>
    </material>
    <material id="Colmesh_Material-material" name="Colmesh_Material">
      <instance_effect url="#Colmesh_Material-effect"/>
    </material>
  </library_materials>
  <library_geometries>
    <geometry id="ocotillo_med_a50-mesh" name="ocotillo_med_a50">
      <mesh>
        <source id="ocotillo_med_a50-mesh-positions">
          <float_array id="ocotillo_med_a50-mesh-positions-array" count="24">-0.2616366 -0.0462706 -0.03155571 0.247305 -0.0462706 -0.03155571 0.247305 -0.0462706 3.208022 -0.2616366 -0.0462706 3.208022 -0.007165729 -0.3007414 -0.03155571 -0.007165729 0.2082002 -0.03155571 -0.007165729 0.2082002 3.208022 -0.007165729 -0.3007414 3.208022</float_array>
          <technique_common>
            <accessor source="#ocotillo_med_a50-mesh-positions-array" count="8" stride="3">
              <param name="X" type="float"/>
              <param name="Y" type="float"/>
              <param name="Z" type="float"/>
            </accessor>
          </technique_common>
        </source>
        <source id="ocotillo_med_a50-mesh-normals">
          <float_array id="ocotillo_med_a50-mesh-normals-array" count="12">0 -1 0 1 0 0 0 -1 0 1 0 0</float_array>
          <technique_common>
            <accessor source="#ocotillo_med_a50-mesh-normals-array" count="4" stride="3">
              <param name="X" type="float"/>
              <param name="Y" type="float"/>
              <param name="Z" type="float"/>
            </accessor>
          </technique_common>
        </source>
        <source id="ocotillo_med_a50-mesh-map-0">
          <float_array id="ocotillo_med_a50-mesh-map-0-array" count="24">1 0 0 1 0 0 1 0 0 1 0 0 1 0 1 1 0 1 1 0 1 1 0 1</float_array>
          <technique_common>
            <accessor source="#ocotillo_med_a50-mesh-map-0-array" count="12" stride="2">
              <param name="S" type="float"/>
              <param name="T" type="float"/>
            </accessor>
          </technique_common>
        </source>
        <vertices id="ocotillo_med_a50-mesh-vertices">
          <input semantic="POSITION" source="#ocotillo_med_a50-mesh-positions"/>
        </vertices>
        <triangles material="ParkerVegAtlas-material" count="4">
          <input semantic="VERTEX" source="#ocotillo_med_a50-mesh-vertices" offset="0"/>
          <input semantic="NORMAL" source="#ocotillo_med_a50-mesh-normals" offset="1"/>
          <input semantic="TEXCOORD" source="#ocotillo_med_a50-mesh-map-0" offset="2" set="0"/>
          <p>1 0 0 3 0 1 0 0 2 5 1 3 7 1 4 4 1 5 1 2 6 2 2 7 3 2 8 5 3 9 6 3 10 7 3 11</p>
        </triangles>
      </mesh>
    </geometry>
    <geometry id="ocotillo_med_a200-mesh" name="ocotillo_med_a200">
      <mesh>
        <source id="ocotillo_med_a200-mesh-positions">
          <float_array id="ocotillo_med_a200-mesh-positions-array" count="147">0.1516544 -0.0625562 0.001132607 0.1376584 0.09655773 3.1745 0.1601283 -0.08871454 0.002443552 0.1625406 0.07937002 3.17536 0.1356251 -0.09510797 0.002765476 0.1349638 0.06254661 3.176205 0.1289712 -0.07070273 0.001542329 0.1553207 0.1084316 7.52091e-4 0.06065291 0.1808358 2.865009 0.1696417 0.08494466 0.001780211 0.08352982 0.1700139 2.865968 0.1486737 0.07305771 0.001459002 0.07245653 0.1472388 2.866221 0.1344962 0.09402114 4.99682e-4 0.04957956 0.1580607 2.865262 -0.08602249 0.09765285 0.001499295 0.009117841 0.1030082 2.56065 -0.05567348 0.1083216 3.25225e-4 0.0231229 0.1319841 2.559927 -0.06160718 0.07668536 7.76811e-4 0.04120194 0.1053531 2.559476 -0.1439228 0.1106109 7.68813e-4 -0.1963566 -0.01280277 3.007173 -0.1340959 0.1432908 0.002313375 -0.1831969 0.01440429 3.00854 -0.1144997 0.1176077 0.001548051 -0.1622996 -0.01023364 3.00784 -0.1150362 0.03366351 0.001991271 -0.03199201 -0.1289755 3.096198 -0.119268 0.05859452 0.003378927 -0.04833811 -0.1096813 3.097585 -0.09435069 0.06310945 0.003013849 -0.02883613 -0.09352809 3.09795 -0.09103244 0.0358228 0.001526474 -0.01249003 -0.1128223 3.096563 0.1228509 -0.2742655 0.01336419 -0.2198962 -0.1739405 2.716617 0.1012486 -0.2614544 0.01010811 -0.2450115 -0.1740208 2.713361 0.1138361 -0.2394951 0.01096498 -0.2468736 -0.1500124 2.71227 0.1366359 -0.2545211 0.01445472 -0.2196028 -0.148631 2.71576 0.02338314 -0.2375853 0.006039977 0.23598 -0.04569005 2.995285 -0.005721092 -0.2294708 0.007579565 0.211672 -0.06949615 2.998336 0.01858693 -0.2056646 0.004527866 0.2068758 -0.03757548 2.996824</float_array>
          <technique_common>
            <accessor source="#ocotillo_med_a200-mesh-positions-array" count="49" stride="3">
              <param name="X" type="float"/>
              <param name="Y" type="float"/>
              <param name="Z" type="float"/>
            </accessor>
          </technique_common>
        </source>
        <source id="ocotillo_med_a200-mesh-normals">
          <float_array id="ocotillo_med_a200-mesh-normals-array" count="210">0.9514396 0.3073655 -0.01700592 5.71736e-5 0.05006819 0.9987458 -0.338386 0.9397509 -0.04861193 -0.568269 0.8218914 -0.03955829 0.4924482 -0.8696126 0.03561967 -0.33159 0.9434224 0.001486301 0.9820774 -0.1847321 -0.03739035 0.03602421 0.0075109 0.9993227 -0.6508523 -0.7587664 0.02578425 0.08841246 -0.9945837 -0.0546506 -0.1772815 0.9827056 0.05348837 0.8103812 -0.5726308 0.1240006 -0.8578792 0.496869 -0.1310132 0.9863218 0.1444365 -0.07941997 -0.2644237 -0.9618141 0.07066762 -0.6994385 0.7146824 0.003865242 0.5688316 0.8215438 -0.03868371 -0.9968808 0.07890874 -0.001430273 -5.68871e-5 -0.05007076 -0.9987457 0.4278984 0.9037849 -0.008703649 -0.02980434 0.02555799 0.9992289 0.89879 -0.4365522 0.03998816 -0.4279965 -0.9037005 0.01201379 0.02980494 -0.02556902 -0.9992287 -0.8988976 0.4366438 -0.03640574 -0.9002948 0.4352626 0.003956437 -0.899554 0.4355967 0.03253072 0.8267302 0.5617635 -0.03064382 0.07318866 -0.9972842 0.008232831 -0.0360217 -0.007508397 -0.9993228 0.7625837 0.6456775 0.03958219 0.07593435 -0.9963272 -0.03957515 -0.0163989 -0.04228138 0.9989711 0.5212729 -0.852216 0.04474961 -0.7633993 -0.6457867 -0.01345551 0.01640194 0.04228264 -0.9989711 0.02396702 -0.05149662 0.9983855 -0.6374972 0.7683855 0.05640161 0.7634724 0.6456293 0.01651442 -0.02396404 0.05150562 -0.9983851 0.6375755 -0.7685563 -0.0530911 -0.001587271 -0.9993183 0.03688609 -0.1286076 0.0350427 0.9910762 -0.988861 -0.08232748 -0.1240006 -0.04555261 0.9981946 -0.03914862 0.1285998 -0.03504413 -0.9910772 0.9913555 -0.00705862 0.1310132 0.6994382 -0.7146827 -0.003865242 -0.9863218 -0.1444365 0.07941997 0.06870818 0.0575096 0.9959779 0.2644253 0.9618136 -0.07066774 -0.06871914 -0.0575053 -0.9959774 -0.9648687 -0.2624188 0.01283574 -5.83131e-5 -0.05007326 -0.9987456 0.8535596 0.5208956 0.01019114 -0.02979183 0.0255624 0.9992292 -0.8280348 -0.5605479 -0.01201379 0.02980524 -0.02556908 -0.9992287 -0.9575661 0.2881726 -0.00487107 0.7949696 0.6053983 0.03893965 0.2321259 -0.9719571 -0.03764128 0.252771 -0.9663318 0.04805946 -0.9856852 -0.1680586 0.01345551 0.02396708 -0.05149662 0.9983855 0.9923744 0.1217337 -0.01933687 -0.02396154 0.05150389 -0.9983853 -0.5056242 -0.861965 -0.03688621 -0.1286098 0.03504496 0.9910758 0.5456763 0.8370811 0.03914862 0.1285998 -0.03504413 -0.9910773</float_array>
          <technique_common>
            <accessor source="#ocotillo_med_a200-mesh-normals-array" count="70" stride="3">
              <param name="X" type="float"/>
              <param name="Y" type="float"/>
              <param name="Z" type="float"/>
            </accessor>
          </technique_common>
        </source>
        <source id="ocotillo_med_a200-mesh-map-0">
          <float_array id="ocotillo_med_a200-mesh-map-0-array" count="420">0.75 0.3750001 0.5 0.5 0.5 0.25 0.1460769 0.06999999 0.4578461 0.2499999 0.1744195 0.4463636 0.75 0.4090909 0.5 0.5 0.5 0.25 0.75 0.3750001 0.5 0.5 0.5 0.25 0.5 0.25 0.75 0.375 0.5 0.5 0.75 0.4090909 0.5 0.5 0.5 0.25 0.75 0.4090908 0.5 0.5 0.5 0.25 0.1177343 0.08636361 0.4578461 0.2172726 0.1744197 0.4463637 0.75 0.409091 0.5 0.5 0.5 0.25 0.5 0.25 0.75 0.3750002 0.5 0.5 0.75 0.375 0.5 0.5 0.5 0.25 0.5 0.25 0.75 0.3750002 0.5 0.5 0.75 0.3409093 0.5 0.5 0.5 0.25 0.5 0.25 0.75 0.3409094 0.5 0.5 0.75 0.3750001 0.5 0.5 0.5 0.25 0.75 0.3750003 0.5 0.5 0.5 0.25 0.75 0.25 0.75 0.5 0.5 0.3409091 0.5 0.5 0.75 0.25 0.75 0.5 0.9578461 0.1299999 0.5421539 0.37 0.8255804 0.4463636 0.75 0.5 0.5 0.25 0.75 0.25 0.1460769 0.06999999 0.3539231 0.43 0.04215389 0.37 0.75 0.25 0.75 0.5 0.5 0.4090908 0.75 0.5 0.5 0.25 0.75 0.25 0.5421539 0.1299999 0.9578461 0.37 0.8255805 0.05363637 0.75 0.25 0.75 0.5 0.5 0.375 0.5 0.5 0.75 0.25 0.75 0.5 0.75 0.25 0.75 0.5 0.5 0.340909 0.75 0.25 0.75 0.5 0.5 0.340909 0.75 0.25 0.75 0.5 0.5 0.3409091 0.5421539 0.2172727 0.8255804 0.4463636 0.8822658 0.08636367 0.5 0.5 0.75 0.25 0.75 0.5 0.5 0.5 0.75 0.25 0.75 0.5 0.353923 0.06999999 0.3822659 0.4136363 0.04215389 0.25 0.75 0.5 0.5 0.25 0.75 0.25 0.75 0.5 0.5 0.25 0.75 0.25 0.8255805 0.4463635 0.8539231 0.06999999 0.542154 0.2499999 0.146077 0.06999993 0.3539233 0.4299999 0.04215389 0.37 0.75 0.25 0.75 0.5 0.5 0.375 0.75 0.5 0.5 0.25 0.75 0.25 0.9578461 0.37 0.5421539 0.1299999 0.6744197 0.4463637 0.75 0.25 0.75 0.5 0.5 0.4090909 0.75 0.5 0.5 0.25 0.75 0.25 0.4578461 0.1299999 0.04215389 0.37 0.1744194 0.05363643 0.5 0.375 0.75 0.25 0.75 0.5 0.75 0.5 0.5 0.25 0.75 0.25 0.5421539 0.1299999 0.9578461 0.37 0.8539231 0.06999999 0.75 0.25 0.75 0.5 0.5 0.4090911 0.5 0.375 0.75 0.25 0.75 0.5 0.75 0.25 0.75 0.5 0.5 0.3409091 0.3255807 0.4463635 0.04215389 0.2500002 0.353923 0.06999993 0.5 0.375 0.75 0.25 0.75 0.5 0.646077 0.43 0.9578462 0.25 0.6744197 0.05363631 0.5 0.5 0.5 0.25 0.75 0.25 0.9578461 0.1299999 0.6460768 0.07000005 0.5421539 0.37 0.75 0.5 0.5 0.5 0.5 0.25 0.1460769 0.06999999 0.4578461 0.1299999 0.3539231 0.43 0.75 0.5 0.5 0.5 0.5 0.25 0.5421539 0.1299999 0.6460769 0.43 0.9578461 0.37 0.5 0.5 0.5 0.25 0.75 0.25 0.5 0.5 0.5 0.25 0.75 0.25 0.5 0.5 0.5 0.25 0.75 0.25 0.75 0.5 0.5 0.5 0.5 0.25 0.75 0.5 0.5 0.5 0.5 0.25 0.146077 0.06999993 0.4578461 0.1299999 0.3539233 0.4299999 0.75 0.5 0.5 0.5 0.5 0.25 0.9578461 0.37 0.8539231 0.06999999 0.5421539 0.1299999 0.75 0.5 0.5 0.5 0.5 0.25 0.4578461 0.1299999 0.3539232 0.4299999 0.04215389 0.37 0.75 0.5 0.5 0.5 0.5 0.25 0.5421539 0.1299999 0.6744197 0.4463637 0.9578461 0.37</float_array>
          <technique_common>
            <accessor source="#ocotillo_med_a200-mesh-map-0-array" count="210" stride="2">
              <param name="S" type="float"/>
              <param name="T" type="float"/>
            </accessor>
          </technique_common>
        </source>
        <vertices id="ocotillo_med_a200-mesh-vertices">
          <input semantic="POSITION" source="#ocotillo_med_a200-mesh-positions"/>
        </vertices>
        <triangles material="ParkerVegAtlas-material" count="70">
          <input semantic="VERTEX" source="#ocotillo_med_a200-mesh-vertices" offset="0"/>
          <input semantic="NORMAL" source="#ocotillo_med_a200-mesh-normals" offset="1"/>
          <input semantic="TEXCOORD" source="#ocotillo_med_a200-mesh-map-0" offset="2" set="0"/>
          <p>3 0 0 2 0 1 0 0 2 5 1 3 3 1 4 1 1 5 1 2 6 0 2 7 6 2 8 8 3 9 7 3 10 13 3 11 9 4 12 12 4 13 11 4 14 18 5 15 17 5 16 15 5 17 20 6 18 19 6 19 17 6 20 20 7 21 18 7 22 16 7 23 16 8 24 15 8 25 19 8 26 33 9 27 28 9 28 27 9 29 32 10 30 31 10 31 29 10 32 41 11 33 36 11 34 35 11 35 40 12 36 39 12 37 37 12 38 47 13 39 44 13 40 43 13 41 46 14 42 45 14 43 43 14 44 48 15 45 47 15 46 45 15 47 1 16 48 3 16 49 0 16 50 6 17 51 5 17 52 1 17 53 2 18 54 6 18 55 0 18 56 10 19 57 7 19 58 8 19 59 12 20 60 8 20 61 14 20 62 10 21 63 12 21 64 9 21 65 14 22 66 11 22 67 12 22 68 11 23 69 7 23 70 9 23 71 14 24 72 8 24 73 13 24 74 23 25 75 22 25 76 24 25 77 16 26 78 18 26 79 15 26 80 18 27 81 20 27 82 17 27 83 20 28 84 16 28 85 19 28 86 19 29 87 15 29 88 17 29 89 25 30 90 24 30 91 26 30 92 21 31 93 26 31 94 22 31 95 24 32 96 22 32 97 26 32 98 5 33 99 2 33 100 3 33 101 30 34 102 27 34 103 28 34 104 21 35 105 23 35 106 25 35 107 32 36 108 28 36 109 34 36 110 30 37 111 32 37 112 29 37 113 34 38 114 31 38 115 32 38 116 27 39 117 31 39 118 33 39 119 34 40 120 28 40 121 33 40 122 38 41 123 35 41 124 36 41 125 38 42 126 42 42 127 40 42 128 37 43 129 38 43 130 40 43 131 42 44 132 39 44 133 40 44 134 39 45 135 35 45 136 37 45 137 42 46 138 36 46 139 41 46 140 43 47 141 44 47 142 46 47 143 46 48 144 48 48 145 45 48 146 44 49 147 48 49 148 46 49 149 47 50 150 48 50 151 44 50 152 47 51 153 43 51 154 45 51 155 6 52 156 4 52 157 5 52 158 2 53 159 4 53 160 6 53 161 10 54 162 9 54 163 7 54 164 12 55 165 10 55 166 8 55 167 14 56 168 13 56 169 11 56 170 11 57 171 13 57 172 7 57 173 23 58 174 21 58 175 22 58 176 25 59 177 23 59 178 24 59 179 21 60 180 25 60 181 26 60 182 5 61 183 4 61 184 2 61 185 30 62 186 29 62 187 27 62 188 32 63 189 30 63 190 28 63 191 34 64 192 33 64 193 31 64 194 27 65 195 29 65 196 31 65 197 38 66 198 37 66 199 35 66 200 38 67 201 36 67 202 42 67 203 42 68 204 41 68 205 39 68 206 39 69 207 41 69 208 35 69 209</p>
        </triangles>
      </mesh>
    </geometry>
    <geometry id="Colmesh_clump-1-mesh" name="Colmesh_clump-1">
      <mesh>
        <source id="Colmesh_clump-1-mesh-positions">
          <float_array id="Colmesh_clump-1-mesh-positions-array" count="48">0 0.28 0 0 0.28 3.2 0.1979899 0.1979899 0 0.1979899 0.1979899 3.2 0.28 0 0 0.28 0 3.2 0.1979899 -0.1979899 0 0.1979899 -0.1979899 3.2 0 -0.28 0 0 -0.28 3.2 -0.1979899 -0.1979899 0 -0.1979899 -0.1979899 3.2 -0.28 0 0 -0.28 0 3.2 -0.1979899 0.1979899 0 -0.1979899 0.1979899 3.2</float_array>
          <technique_common>
            <accessor source="#Colmesh_clump-1-mesh-positions-array" count="16" stride="3">
              <param name="X" type="float"/>
              <param name="Y" type="float"/>
              <param name="Z" type="float"/>
            </accessor>
          </technique_common>
        </source>
        <source id="Colmesh_clump-1-mesh-normals">
          <float_array id="Colmesh_clump-1-mesh-normals-array" count="84">0.3826835 0.9238796 0 0.9238796 0.3826835 0 0.9238796 -0.3826835 0 0.3826835 -0.9238796 0 -0.3826835 -0.9238796 0 -0.9238796 -0.3826835 0 0 0 1 -0.9238796 0.3826835 0 -0.3826835 0.9238796 0 0 0 -1 0.3826835 0.9238796 0 0.9238796 0.3826835 0 0.9238796 -0.3826835 0 0.3826835 -0.9238796 0 -0.3826835 -0.9238796 0 -0.9238796 -0.3826835 0 0 0 1 0 0 1 0 0 1 0 0 1 0 0 1 -0.9238796 0.3826835 0 -0.3826835 0.9238796 0 0 0 -1 0 0 -1 0 0 -1 0 0 -1 0 0 -1</float_array>
          <technique_common>
            <accessor source="#Colmesh_clump-1-mesh-normals-array" count="28" stride="3">
              <param name="X" type="float"/>
              <param name="Y" type="float"/>
              <param name="Z" type="float"/>
            </accessor>
          </technique_common>
        </source>
        <source id="Colmesh_clump-1-mesh-map-0">
          <float_array id="Colmesh_clump-1-mesh-map-0-array" count="168">1 1 0.875 0.5 1 0.5 0.875 1 0.75 0.5 0.875 0.5 0.75 1 0.625 0.5 0.75 0.5 0.625 1 0.5 0.5 0.625 0.5 0.5 1 0.375 0.5 0.5 0.5 0.375 1 0.25 0.5 0.375 0.5 0.00999999 0.25 0.25 0.00999999 0.49 0.25 0.25 1 0.125 0.5 0.25 0.5 0.125 1 0 0.5 0.125 0.5 0.9197056 0.08029437 0.5802944 0.08029437 0.5802944 0.4197056 1 1 0.875 1 0.875 0.5 0.875 1 0.75 1 0.75 0.5 0.75 1 0.625 1 0.625 0.5 0.625 1 0.5 1 0.5 0.5 0.5 1 0.375 1 0.375 0.5 0.375 1 0.25 1 0.25 0.5 0.49 0.25 0.4197056 0.4197056 0.25 0.49 0.25 0.49 0.08029437 0.4197056 0.00999999 0.25 0.00999999 0.25 0.08029437 0.08029437 0.25 0.00999999 0.25 0.00999999 0.4197056 0.08029437 0.49 0.25 0.49 0.25 0.25 0.49 0.00999999 0.25 0.25 1 0.125 1 0.125 0.5 0.125 1 0 1 0 0.5 0.5802944 0.4197056 0.75 0.49 0.9197056 0.4197056 0.9197056 0.4197056 0.99 0.25 0.9197056 0.08029437 0.9197056 0.08029437 0.75 0.00999999 0.5802944 0.08029437 0.5802944 0.08029437 0.51 0.25 0.5802944 0.4197056 0.5802944 0.4197056 0.9197056 0.4197056 0.9197056 0.08029437</float_array>
          <technique_common>
            <accessor source="#Colmesh_clump-1-mesh-map-0-array" count="84" stride="2">
              <param name="S" type="float"/>
              <param name="T" type="float"/>
            </accessor>
          </technique_common>
        </source>
        <vertices id="Colmesh_clump-1-mesh-vertices">
          <input semantic="POSITION" source="#Colmesh_clump-1-mesh-positions"/>
        </vertices>
        <triangles material="Colmesh_Material-material" count="28">
          <input semantic="VERTEX" source="#Colmesh_clump-1-mesh-vertices" offset="0"/>
          <input semantic="NORMAL" source="#Colmesh_clump-1-mesh-normals" offset="1"/>
          <input semantic="TEXCOORD" source="#Colmesh_clump-1-mesh-map-0" offset="2" set="0"/>
          <p>1 0 0 2 0 1 0 0 2 3 1 3 4 1 4 2 1 5 5 2 6 6 2 7 4 2 8 7 3 9 8 3 10 6 3 11 9 4 12 10 4 13 8 4 14 11 5 15 12 5 16 10 5 17 13 6 18 9 6 19 5 6 20 13 7 21 14 7 22 12 7 23 15 8 24 0 8 25 14 8 26 6 9 27 10 9 28 14 9 29 1 10 30 3 10 31 2 10 32 3 11 33 5 11 34 4 11 35 5 12 36 7 12 37 6 12 38 7 13 39 9 13 40 8 13 41 9 14 42 11 14 43 10 14 44 11 15 45 13 15 46 12 15 47 5 16 48 3 16 49 1 16 50 1 17 51 15 17 52 13 17 53 13 18 54 11 18 55 9 18 56 9 19 57 7 19 58 5 19 59 5 20 60 1 20 61 13 20 62 13 21 63 15 21 64 14 21 65 15 22 66 1 22 67 0 22 68 14 23 69 0 23 70 2 23 71 2 24 72 4 24 73 6 24 74 6 25 75 8 25 76 10 25 77 10 26 78 12 26 79 14 26 80 14 27 81 2 27 82 6 27 83</p>
        </triangles>
      </mesh>
    </geometry>
    <geometry id="ocotillo_med_a800-mesh" name="ocotillo_med_a800">
      <mesh>
        <source id="ocotillo_med_a800-mesh-positions">
          <float_array id="ocotillo_med_a800-mesh-positions-array" count="252">0.1445696 -0.06173121 0.001091599 0.144745 0.0973671 3.174459 0.1601482 -0.07073712 0.001542329 0.1603236 0.0883612 3.17491 0.1601283 -0.08871454 0.002443552 0.1603037 0.07038378 3.175811 0.1445299 -0.09768605 0.002894282 0.1447054 0.06141227 3.176261 0.1289514 -0.08868014 0.002443552 0.1291269 0.07041817 3.175811 0.1289712 -0.07070273 0.001542329 0.1291466 0.08839559 3.17491 0.1383456 0.1024551 3.98755e-4 0.05290305 0.1757476 2.864908 0.1553207 0.1084316 7.52091e-4 0.06987822 0.1817243 2.865262 0.1689724 0.09672129 0.001459002 0.08352982 0.1700139 2.865968 0.1656489 0.07903432 0.001812338 0.08020633 0.1523269 2.866322 0.1486737 0.07305771 0.001459002 0.06323122 0.1463503 2.865968 0.1350221 0.08476805 7.52091e-4 0.04957956 0.1580607 2.865262 -0.08537703 0.0905494 0.001529455 0.006871581 0.1097779 2.56068 -0.07975327 0.1076452 0.001198291 0.01249527 0.1268736 2.560349 -0.06214398 0.1113157 5.35965e-4 0.03010463 0.1305441 2.559686 -0.05015838 0.09789049 2.04802e-4 0.04209023 0.117119 2.559355 -0.05578213 0.08079475 5.35965e-4 0.03646647 0.1000232 2.559686 -0.07339143 0.07712423 0.001198291 0.01885712 0.09635269 2.560349 -0.1376123 0.1072863 7.31707e-4 -0.1869693 -0.01995092 3.007024 -0.148894 0.1213061 0.001139879 -0.198251 -0.005931138 3.007432 -0.1423909 0.1380705 0.001956224 -0.1917479 0.0108332 3.008249 -0.1246061 0.140815 0.002364397 -0.1739631 0.01357769 3.008657 -0.1133244 0.1267952 0.001956224 -0.1626814 -4.42103e-4 3.008249 -0.1198275 0.1100308 0.001139879 -0.1691845 -0.01720643 3.007432 -0.09711211 0.03209298 0.001480102 -0.02283275 -0.1275453 3.096051 -0.1150362 0.03366351 0.001991271 -0.04075682 -0.1259748 3.096563 -0.1226175 0.04995697 0.003013849 -0.04833811 -0.1096813 3.097585 -0.1122748 0.06467998 0.003525018 -0.03799539 -0.0949583 3.098096 -0.09435069 0.06310945 0.003013849 -0.02007132 -0.09652882 3.097585 -0.0867694 0.04681599 0.001991271 -0.01249003 -0.1128223 3.096563 0.1355553 -0.2615706 0.01456379 -0.2150954 -0.1660162 2.71696 0.1228509 -0.2742655 0.01336419 -0.2277997 -0.1787111 2.71576 0.1056392 -0.2695752 0.01096498 -0.2450115 -0.1740208 2.713361 0.1011317 -0.25219 0.009765386 -0.2495189 -0.1566356 2.712161 0.1138361 -0.2394951 0.01096498 -0.2368145 -0.1439408 2.713361 0.1310479 -0.2441855 0.01336419 -0.2196028 -0.148631 2.71576 0.02569872 -0.2124174 0.004427075 0.2320577 -0.03973299 2.995211 0.02882838 -0.2301248 0.005233526 0.2351874 -0.05744051 2.996017 0.01507961 -0.2416301 0.006846427 0.2214386 -0.0689457 2.99763 -0.001798748 -0.2354277 0.007652878 0.2045602 -0.06274342 2.998437 -0.00492841 -0.2177203 0.006846427 0.2014305 -0.04503589 2.99763 0.008820295 -0.2062151 0.005233526 0.2151793 -0.03353071 2.996017</float_array>
          <technique_common>
            <accessor source="#ocotillo_med_a800-mesh-positions-array" count="84" stride="3">
              <param name="X" type="float"/>
              <param name="Y" type="float"/>
              <param name="Z" type="float"/>
            </accessor>
          </technique_common>
        </source>
        <source id="ocotillo_med_a800-mesh-normals">
          <float_array id="ocotillo_med_a800-mesh-normals-array" count="420">0.5009534 0.8643872 -0.04336416 0.9999994 -0.001102387 0 0.4990463 -0.8654897 0.04336416 -0.5009533 -0.8643872 0.04336416 5.51935e-5 0.05006784 0.9987458 -0.9999994 0.001102387 0 -0.4990463 0.8654896 -0.04336416 -4.75602e-5 -0.05006784 -0.9987458 -0.331276 0.9429208 -0.03400725 0.6510791 0.75901 0 0.9823544 -0.1839113 0.03400725 0.3312756 -0.942921 0.03400725 -0.02979838 0.02556109 0.999229 -0.6510788 -0.7590102 0 -0.9823544 0.1839112 -0.03400725 0.02980345 -0.02557551 -0.9992285 -0.9492574 0.3128817 0.03186661 -0.2040565 0.9789591 0 0.7452014 0.6660777 -0.03186661 0.9492576 -0.3128812 -0.03186661 0.0360217 0.007508397 0.9993228 0.2040559 -0.9789592 0 -0.7452012 -0.6660778 0.03186661 -0.0360217 -0.007508397 -0.9993228 -0.7790368 -0.625747 -0.03927403 -0.9323117 0.3616558 0 -0.1532755 0.9874027 0.03927403 0.7790369 0.6257468 0.03927403 -0.01640194 -0.04228264 0.9989711 0.9323117 -0.3616557 0 0.1532755 -0.9874027 -0.03927403 0.016402 0.04228264 -0.9989711 -0.08857196 -0.9948542 -0.04919505 -0.9066583 -0.4218658 0 -0.818086 0.5729879 0.04919511 0.08857214 0.9948542 0.04919511 0.02396053 -0.05149507 0.9983858 0.9066583 0.4218658 0 0.8180859 -0.572988 -0.04919511 -0.02396428 0.05150306 -0.9983853 0.6966432 -0.7080708 0.11543 -0.262919 -0.9648179 0 -0.9595608 -0.2567466 -0.1154299 -0.6966423 0.7080716 -0.1154299 -0.1286018 0.0350368 0.9910773 0.2629184 0.9648181 0 0.9595608 0.2567468 0.1154299 0.1285998 -0.03504419 -0.9910773 0.982368 0.170091 -0.07760256 0.6417593 -0.7669062 0 -0.3406093 -0.9369969 0.07760256 -0.9823681 -0.1700906 0.0776025 0.06872922 0.05751365 0.9959762 -0.6417594 0.7669061 0 0.3406093 0.9369969 -0.07760256 -0.06871908 -0.05750524 -0.9959774 0.5009531 0.8643873 -0.04336416 0.9999994 -0.001102387 0 0.4990461 -0.8654898 0.04336416 -0.5009531 -0.8643873 0.04336416 5.51968e-5 0.05006784 0.9987458 5.51935e-5 0.05006784 0.9987458 5.51968e-5 0.05006784 0.9987458 -0.9999994 0.001102387 0 -0.4990461 0.8654898 -0.04336416 -5.90183e-5 -0.05007445 -0.9987455 -5.13833e-5 -0.05007445 -0.9987455 -6.28301e-5 -0.05006784 -0.9987458 -0.3312756 0.9429209 -0.03400725 0.6510787 0.7590103 0 0.9823544 -0.1839112 0.03400725 0.3312763 -0.9429208 0.03400725 -0.02979838 0.02556109 0.999229 -0.02979844 0.02556109 0.999229 -0.02979844 0.02556109 0.999229 -0.6510787 -0.7590103 0 -0.9823544 0.1839111 -0.03400725 0.02979844 -0.02556109 -0.999229 0.02980846 -0.02556967 -0.9992285 0.02980595 -0.02556246 -0.9992288 -0.9492575 0.3128815 0.03186661 -0.2040564 0.9789592 0 0.7452016 0.6660774 -0.03186661 0.9492576 -0.3128814 -0.03186661 0.0360217 0.007508397 0.9993228 0.0360217 0.007508397 0.9993228 0.0360217 0.007508397 0.9993228 0.2040564 -0.9789592 0 -0.7452014 -0.6660777 0.03186661 -0.0360217 -0.007508397 -0.9993228 -0.0360217 -0.007508397 -0.9993228 -0.0360217 -0.007508397 -0.9993228 -0.7790368 -0.625747 -0.03927403 -0.9323117 0.3616558 0 -0.1532751 0.9874028 0.03927403 0.7790368 0.625747 0.03927403 -0.01640194 -0.04228264 0.9989711 -0.01640194 -0.04228264 0.9989711 -0.01640194 -0.04228264 0.9989711 0.9323117 -0.3616558 0 0.1532751 -0.9874028 -0.03927403 0.01640194 0.04228264 -0.9989711 0.01640194 0.04228264 -0.9989711 0.01640194 0.04228264 -0.9989711 -0.08857214 -0.9948542 -0.04919511 -0.9066581 -0.4218662 0 -0.8180857 0.5729882 0.04919511 0.08857214 0.9948542 0.04919511 0.02395921 -0.05151027 0.998385 0.02396678 -0.05149948 0.9983854 0.02396613 -0.05150705 0.998385 0.9066581 0.4218662 0 0.8180857 -0.5729882 -0.04919511 -0.02396053 0.05149507 -0.9983858 -0.02397304 0.05150383 -0.998385 -0.02395915 0.05151033 -0.998385 0.6966428 -0.7080711 0.11543 -0.2629184 -0.9648181 0 -0.9595611 -0.2567459 -0.11543 -0.6966428 0.7080711 -0.11543 -0.1286084 0.03506219 0.9910755 -0.1286163 0.03503292 0.9910754 -0.1285978 0.03505146 0.9910773 0.2629184 0.9648181 0 0.9595611 0.2567459 0.11543 0.1285999 -0.03504413 -0.9910771 0.1285998 -0.03504413 -0.9910773 0.1285998 -0.03504413 -0.9910773 0.982368 0.1700914 -0.07760256 0.6417592 -0.7669063 0 -0.3406085 -0.9369972 0.0776025 -0.9823681 -0.1700904 0.0776025 0.06872403 0.0574994 0.9959774 0.06871163 0.05750393 0.9959779 0.06871914 0.05750524 0.9959774 -0.6417592 0.7669063 0 0.3406094 0.9369968 -0.07760256 -0.06871914 -0.05750524 -0.9959774 -0.06871908 -0.0575053 -0.9959774 -0.06871914 -0.05750519 -0.9959774</float_array>
          <technique_common>
            <accessor source="#ocotillo_med_a800-mesh-normals-array" count="140" stride="3">
              <param name="X" type="float"/>
              <param name="Y" type="float"/>
              <param name="Z" type="float"/>
            </accessor>
          </technique_common>
        </source>
        <source id="ocotillo_med_a800-mesh-map-0">
          <float_array id="ocotillo_med_a800-mesh-map-0-array" count="840">0.75 0.25 0.5 0.5 0.5 0.25 0.5 0.25 0.75 0.5 0.5 0.5 0.75 0.25 0.5 0.5 0.5 0.25 0.75 0.25 0.5 0.5 0.5 0.25 0.25 0.00999999 0.4578461 0.1299999 0.25 0.49 0.75 0.25 0.5 0.5 0.5 0.25 0.75 0.25 0.5 0.5 0.5 0.25 0.75 0.00999999 0.5421539 0.1299999 0.5421539 0.37 0.5 0.25 0.75 0.5 0.5 0.5 0.75 0.25 0.5 0.5 0.5 0.25 0.5 0.25 0.75 0.5 0.5 0.5 0.75 0.25 0.5 0.5 0.5 0.25 0.25 0.00999999 0.4578461 0.1299999 0.25 0.49 0.5 0.25 0.75 0.5 0.5 0.5 0.75 0.25 0.5 0.5 0.5 0.25 0.75 0.00999999 0.5421539 0.1299999 0.5421539 0.37 0.75 0.25 0.5 0.5 0.5 0.25 0.75 0.25 0.5 0.5 0.5 0.25 0.75 0.25 0.5 0.5 0.5 0.25 0.5 0.25 0.75 0.5 0.5 0.5 0.25 0.00999999 0.4578461 0.1299999 0.25 0.49 0.5 0.25 0.75 0.5 0.5 0.5 0.5 0.25 0.75 0.5 0.5 0.5 0.75 0.00999999 0.5421539 0.1299999 0.5421539 0.37 0.75 0.25 0.5 0.5 0.5 0.25 0.75 0.25 0.5 0.5 0.5 0.25 0.75 0.25 0.5 0.5 0.5 0.25 0.5 0.25 0.75 0.5 0.5 0.5 0.04215389 0.1299999 0.25 0.00999999 0.4578461 0.1299999 0.5 0.25 0.75 0.5 0.5 0.5 0.5 0.25 0.75 0.5 0.5 0.5 0.75 0.00999999 0.5421539 0.1299999 0.5421539 0.37 0.5 0.25 0.75 0.5 0.5 0.5 0.75 0.25 0.5 0.5 0.5 0.25 0.5 0.25 0.75 0.5 0.5 0.5 0.75 0.25 0.5 0.5 0.5 0.25 0.04215389 0.1299999 0.25 0.00999999 0.4578461 0.1299999 0.5 0.25 0.75 0.5 0.5 0.5 0.75 0.25 0.5 0.5 0.5 0.25 0.9578461 0.37 0.75 0.00999999 0.5421539 0.37 0.75 0.25 0.5 0.5 0.5 0.25 0.5 0.25 0.75 0.5 0.5 0.5 0.75 0.25 0.5 0.5 0.5 0.25 0.75 0.25 0.5 0.5 0.5 0.25 0.25 0.00999999 0.4578461 0.1299999 0.25 0.49 0.75 0.25 0.5 0.5 0.5 0.25 0.75 0.25 0.5 0.5 0.5 0.25 0.75 0.00999999 0.5421539 0.1299999 0.5421539 0.37 0.75 0.25 0.5 0.5 0.5 0.25 0.5 0.25 0.75 0.5 0.5 0.5 0.75 0.25 0.5 0.5 0.5 0.25 0.5 0.25 0.75 0.5 0.5 0.5 0.04215389 0.1299999 0.25 0.00999999 0.4578461 0.1299999 0.75 0.25 0.5 0.5 0.5 0.25 0.75 0.25 0.5 0.5 0.5 0.25 0.75 0.00999999 0.5421539 0.1299999 0.5421539 0.37 0.75 0.25 0.75 0.5 0.5 0.5 0.5 0.25 0.75 0.25 0.75 0.5 0.75 0.25 0.75 0.5 0.5 0.5 0.75 0.25 0.75 0.5 0.5 0.5 0.4578461 0.1299999 0.4578461 0.37 0.25 0.49 0.25 0.49 0.04215389 0.37 0.04215389 0.1299999 0.04215389 0.1299999 0.25 0.00999999 0.25 0.49 0.75 0.25 0.75 0.5 0.5 0.5 0.75 0.25 0.75 0.5 0.5 0.5 0.5421539 0.37 0.75 0.49 0.75 0.00999999 0.75 0.49 0.9578461 0.37 0.75 0.00999999 0.9578461 0.37 0.9578461 0.1299999 0.75 0.00999999 0.5 0.25 0.75 0.25 0.75 0.5 0.75 0.25 0.75 0.5 0.5 0.5 0.5 0.25 0.75 0.25 0.75 0.5 0.75 0.25 0.75 0.5 0.5 0.5 0.4578461 0.1299999 0.4578461 0.37 0.25 0.49 0.25 0.49 0.04215389 0.37 0.04215389 0.1299999 0.04215389 0.1299999 0.25 0.00999999 0.25 0.49 0.5 0.25 0.75 0.25 0.75 0.5 0.75 0.25 0.75 0.5 0.5 0.5 0.5421539 0.37 0.75 0.49 0.9578461 0.37 0.9578461 0.37 0.9578461 0.1299999 0.5421539 0.37 0.9578461 0.1299999 0.75 0.00999999 0.5421539 0.37 0.75 0.25 0.75 0.5 0.5 0.5 0.75 0.25 0.75 0.5 0.5 0.5 0.75 0.25 0.75 0.5 0.5 0.5 0.5 0.25 0.75 0.25 0.75 0.5 0.4578461 0.1299999 0.4578461 0.37 0.25 0.49 0.25 0.49 0.04215389 0.37 0.04215389 0.1299999 0.04215389 0.1299999 0.25 0.00999999 0.25 0.49 0.5 0.25 0.75 0.25 0.75 0.5 0.5 0.25 0.75 0.25 0.75 0.5 0.5421539 0.37 0.75 0.49 0.75 0.00999999 0.75 0.49 0.9578461 0.37 0.75 0.00999999 0.9578461 0.37 0.9578461 0.1299999 0.75 0.00999999 0.75 0.25 0.75 0.5 0.5 0.5 0.75 0.25 0.75 0.5 0.5 0.5 0.75 0.25 0.75 0.5 0.5 0.5 0.5 0.25 0.75 0.25 0.75 0.5 0.4578461 0.1299999 0.4578461 0.37 0.04215389 0.1299999 0.4578461 0.37 0.25 0.49 0.04215389 0.1299999 0.25 0.49 0.04215389 0.37 0.04215389 0.1299999 0.5 0.25 0.75 0.25 0.75 0.5 0.5 0.25 0.75 0.25 0.75 0.5 0.5421539 0.37 0.75 0.49 0.9578461 0.37 0.9578461 0.37 0.9578461 0.1299999 0.5421539 0.37 0.9578461 0.1299999 0.75 0.00999999 0.5421539 0.37 0.5 0.25 0.75 0.25 0.75 0.5 0.75 0.25 0.75 0.5 0.5 0.5 0.5 0.25 0.75 0.25 0.75 0.5 0.75 0.25 0.75 0.5 0.5 0.5 0.4578461 0.1299999 0.4578461 0.37 0.25 0.49 0.25 0.49 0.04215389 0.37 0.4578461 0.1299999 0.04215389 0.37 0.04215389 0.1299999 0.4578461 0.1299999 0.5 0.25 0.75 0.25 0.75 0.5 0.75 0.25 0.75 0.5 0.5 0.5 0.5421539 0.37 0.75 0.49 0.9578461 0.37 0.9578461 0.37 0.9578461 0.1299999 0.75 0.00999999 0.75 0.00999999 0.5421539 0.1299999 0.5421539 0.37 0.75 0.25 0.75 0.5 0.5 0.5 0.5 0.25 0.75 0.25 0.75 0.5 0.75 0.25 0.75 0.5 0.5 0.5 0.75 0.25 0.75 0.5 0.5 0.5 0.4578461 0.1299999 0.4578461 0.37 0.25 0.49 0.25 0.49 0.04215389 0.37 0.04215389 0.1299999 0.04215389 0.1299999 0.25 0.00999999 0.25 0.49 0.75 0.25 0.75 0.5 0.5 0.5 0.75 0.25 0.75 0.5 0.5 0.5 0.5421539 0.37 0.75 0.49 0.9578461 0.37 0.9578461 0.37 0.9578461 0.1299999 0.5421539 0.37 0.9578461 0.1299999 0.75 0.00999999 0.5421539 0.37 0.75 0.25 0.75 0.5 0.5 0.5 0.5 0.25 0.75 0.25 0.75 0.5 0.75 0.25 0.75 0.5 0.5 0.5 0.5 0.25 0.75 0.25 0.75 0.5 0.4578461 0.1299999 0.4578461 0.37 0.25 0.49 0.25 0.49 0.04215389 0.37 0.4578461 0.1299999 0.04215389 0.37 0.04215389 0.1299999 0.4578461 0.1299999 0.75 0.25 0.75 0.5 0.5 0.5 0.75 0.25 0.75 0.5 0.5 0.5 0.5421539 0.37 0.75 0.49 0.75 0.00999999 0.75 0.49 0.9578461 0.37 0.75 0.00999999 0.9578461 0.37 0.9578461 0.1299999 0.75 0.00999999</float_array>
          <technique_common>
            <accessor source="#ocotillo_med_a800-mesh-map-0-array" count="420" stride="2">
              <param name="S" type="float"/>
              <param name="T" type="float"/>
            </accessor>
          </technique_common>
        </source>
        <vertices id="ocotillo_med_a800-mesh-vertices">
          <input semantic="POSITION" source="#ocotillo_med_a800-mesh-positions"/>
        </vertices>
        <triangles material="ParkerVegAtlas-material" count="140">
          <input semantic="VERTEX" source="#ocotillo_med_a800-mesh-vertices" offset="0"/>
          <input semantic="NORMAL" source="#ocotillo_med_a800-mesh-normals" offset="1"/>
          <input semantic="TEXCOORD" source="#ocotillo_med_a800-mesh-map-0" offset="2" set="0"/>
          <p>1 0 0 2 0 1 0 0 2 2 1 3 5 1 4 4 1 5 5 2 6 6 2 7 4 2 8 7 3 9 8 3 10 6 3 11 7 4 12 5 4 13 1 4 14 9 5 15 10 5 16 8 5 17 11 6 18 0 6 19 10 6 20 6 7 21 8 7 22 10 7 23 12 8 24 15 8 25 14 8 26 15 9 27 16 9 28 14 9 29 16 10 30 19 10 31 18 10 32 19 11 33 20 11 34 18 11 35 19 12 36 17 12 37 13 12 38 20 13 39 23 13 40 22 13 41 23 14 42 12 14 43 22 14 44 18 15 45 20 15 46 22 15 47 25 16 48 26 16 49 24 16 50 27 17 51 28 17 52 26 17 53 29 18 54 30 18 55 28 18 56 30 19 57 33 19 58 32 19 59 31 20 60 29 20 61 25 20 62 32 21 63 35 21 64 34 21 65 34 22 66 25 22 67 24 22 68 30 23 69 32 23 70 34 23 71 37 24 72 38 24 73 36 24 74 39 25 75 40 25 76 38 25 77 41 26 78 42 26 79 40 26 80 42 27 81 45 27 82 44 27 83 45 28 84 43 28 85 41 28 86 44 29 87 47 29 88 46 29 89 46 30 90 37 30 91 36 30 92 42 31 93 44 31 94 46 31 95 48 32 96 51 32 97 50 32 98 51 33 99 52 33 100 50 33 101 52 34 102 55 34 103 54 34 104 55 35 105 56 35 106 54 35 107 57 36 108 55 36 109 53 36 110 56 37 111 59 37 112 58 37 113 59 38 114 48 38 115 58 38 116 50 39 117 54 39 118 58 39 119 61 40 120 62 40 121 60 40 122 62 41 123 65 41 124 64 41 125 65 42 126 66 42 127 64 42 128 67 43 129 68 43 130 66 43 131 67 44 132 65 44 133 61 44 134 69 45 135 70 45 136 68 45 137 71 46 138 60 46 139 70 46 140 66 47 141 68 47 142 70 47 143 73 48 144 74 48 145 72 48 146 74 49 147 77 49 148 76 49 149 77 50 150 78 50 151 76 50 152 78 51 153 81 51 154 80 51 155 81 52 156 79 52 157 77 52 158 81 53 159 82 53 160 80 53 161 83 54 162 72 54 163 82 54 164 78 55 165 80 55 166 82 55 167 1 56 168 3 56 169 2 56 170 2 57 171 3 57 172 5 57 173 5 58 174 7 58 175 6 58 176 7 59 177 9 59 178 8 59 179 5 60 180 3 60 181 1 60 182 1 61 183 11 61 184 9 61 185 9 62 186 7 62 187 1 62 188 9 63 189 11 63 190 10 63 191 11 64 192 1 64 193 0 64 194 10 65 195 0 65 196 6 65 197 0 66 198 2 66 199 6 66 200 2 67 201 4 67 202 6 67 203 12 68 204 13 68 205 15 68 206 15 69 207 17 69 208 16 69 209 16 70 210 17 70 211 19 70 212 19 71 213 21 71 214 20 71 215 17 72 216 15 72 217 13 72 218 13 73 219 23 73 220 21 73 221 21 74 222 19 74 223 13 74 224 20 75 225 21 75 226 23 75 227 23 76 228 13 76 229 12 76 230 22 77 231 12 77 232 14 77 233 14 78 234 16 78 235 22 78 236 16 79 237 18 79 238 22 79 239 25 80 240 27 80 241 26 80 242 27 81 243 29 81 244 28 81 245 29 82 246 31 82 247 30 82 248 30 83 249 31 83 250 33 83 251 29 84 252 27 84 253 25 84 254 25 85 255 35 85 256 33 85 257 33 86 258 31 86 259 25 86 260 32 87 261 33 87 262 35 87 263 34 88 264 35 88 265 25 88 266 34 89 267 24 89 268 30 89 269 24 90 270 26 90 271 30 90 272 26 91 273 28 91 274 30 91 275 37 92 276 39 92 277 38 92 278 39 93 279 41 93 280 40 93 281 41 94 282 43 94 283 42 94 284 42 95 285 43 95 286 45 95 287 41 96 288 39 96 289 45 96 290 39 97 291 37 97 292 45 97 293 37 98 294 47 98 295 45 98 296 44 99 297 45 99 298 47 99 299 46 100 300 47 100 301 37 100 302 46 101 303 36 101 304 38 101 305 38 102 306 40 102 307 46 102 308 40 103 309 42 103 310 46 103 311 48 104 312 49 104 313 51 104 314 51 105 315 53 105 316 52 105 317 52 106 318 53 106 319 55 106 320 55 107 321 57 107 322 56 107 323 53 108 324 51 108 325 49 108 326 49 109 327 59 109 328 53 109 329 59 110 330 57 110 331 53 110 332 56 111 333 57 111 334 59 111 335 59 112 336 49 112 337 48 112 338 58 113 339 48 113 340 50 113 341 50 114 342 52 114 343 54 114 344 54 115 345 56 115 346 58 115 347 61 116 348 63 116 349 62 116 350 62 117 351 63 117 352 65 117 353 65 118 354 67 118 355 66 118 356 67 119 357 69 119 358 68 119 359 65 120 360 63 120 361 61 120 362 61 121 363 71 121 364 69 121 365 69 122 366 67 122 367 61 122 368 69 123 369 71 123 370 70 123 371 71 124 372 61 124 373 60 124 374 70 125 375 60 125 376 62 125 377 62 126 378 64 126 379 70 126 380 64 127 381 66 127 382 70 127 383 73 128 384 75 128 385 74 128 386 74 129 387 75 129 388 77 129 389 77 130 390 79 130 391 78 130 392 78 131 393 79 131 394 81 131 395 77 132 396 75 132 397 73 132 398 73 133 399 83 133 400 77 133 401 83 134 402 81 134 403 77 134 404 81 135 405 83 135 406 82 135 407 83 136 408 73 136 409 72 136 410 82 137 411 72 137 412 78 137 413 72 138 414 74 138 415 78 138 416 74 139 417 76 139 418 78 139 419</p>
        </triangles>
      </mesh>
    </geometry>
  </library_geometries>
  <library_visual_scenes>
    <visual_scene id="Scene" name="Scene">
      <node id="base00" name="base00" type="NODE">
        <matrix sid="transform">1 0 0 0 0 1 0 0 0 0 1 0 0 0 0 1</matrix>
        <node id="start01" name="start01" type="NODE">
          <matrix sid="transform">1 0 0 0 0 1 0 0 0 0 1 0 0 0 0 1</matrix>
          <node id="ocotillo_med_a800" name="ocotillo_med_a800" type="NODE">
            <matrix sid="transform">1 0 0 0 0 1 0 0 0 0 1 0 0 0 0 1</matrix>
            <instance_geometry url="#ocotillo_med_a800-mesh" name="ocotillo_med_a800">
              <bind_material>
                <technique_common>
                  <instance_material symbol="ParkerVegAtlas-material" target="#ParkerVegAtlas-material">
                    <bind_vertex_input semantic="UVMap" input_semantic="TEXCOORD" input_set="0"/>
                  </instance_material>
                </technique_common>
              </bind_material>
            </instance_geometry>
          </node>
          <node id="ocotillo_med_a200" name="ocotillo_med_a200" type="NODE">
            <matrix sid="transform">1 0 0 0 0 1 0 0 0 0 1 0 0 0 0 1</matrix>
            <instance_geometry url="#ocotillo_med_a200-mesh" name="ocotillo_med_a200">
              <bind_material>
                <technique_common>
                  <instance_material symbol="ParkerVegAtlas-material" target="#ParkerVegAtlas-material">
                    <bind_vertex_input semantic="UVMap" input_semantic="TEXCOORD" input_set="0"/>
                  </instance_material>
                </technique_common>
              </bind_material>
            </instance_geometry>
          </node>
          <node id="ocotillo_med_a50" name="ocotillo_med_a50" type="NODE">
            <matrix sid="transform">1 0 0 0 0 1 0 0 0 0 1 0 0 0 0 1</matrix>
            <instance_geometry url="#ocotillo_med_a50-mesh" name="ocotillo_med_a50">
              <bind_material>
                <technique_common>
                  <instance_material symbol="ParkerVegAtlas-material" target="#ParkerVegAtlas-material">
                    <bind_vertex_input semantic="UVMap" input_semantic="TEXCOORD" input_set="0"/>
                  </instance_material>
                </technique_common>
              </bind_material>
            </instance_geometry>
          </node>
          <node id="nulldetail20" name="nulldetail20" type="NODE">
            <matrix sid="transform">1 0 0 0 0 1 0 0 0 0 1 0 0 0 0 1</matrix>
          </node>
        </node>
        <node id="collision-1" name="collision-1" type="NODE">
          <matrix sid="transform">1 0 0 0 0 1 0 0 0 0 1 0 0 0 0 1</matrix>
          <node id="Colmesh_clump-1" name="Colmesh_clump-1" type="NODE">
            <matrix sid="transform">1 0 0 0 0 1 0 0 0 0 1 0 0 0 0 1</matrix>
            <instance_geometry url="#Colmesh_clump-1-mesh" name="Colmesh_clump-1">
              <bind_material>
                <technique_common>
                  <instance_material symbol="Colmesh_Material-material" target="#Colmesh_Material-material">
                    <bind_vertex_input semantic="UVMap" input_semantic="TEXCOORD" input_set="0"/>
                  </instance_material>
                </technique_common>
              </bind_material>
            </instance_geometry>
          </node>
        </node>
      </node>
    </visual_scene>
  </library_visual_scenes>
  <scene>
    <instance_visual_scene url="#Scene"/>
  </scene>
</COLLADA>