<?xml version="1.0" encoding="utf-8"?>
<COLLADA xmlns="http://www.collada.org/2005/11/COLLADASchema" version="1.4.1" xmlns:xsi="http://www.w3.org/2001/XMLSchema-instance">
  <asset>
    <contributor>
      <author>Blender User</author>
      <authoring_tool>Blender 4.2.9 LTS commit date:2025-04-14, commit time:12:24, hash:a10f621e649a</authoring_tool>
    </contributor>
    <created>2026-08-01T08:09:21</created>
    <modified>2026-08-01T08:09:21</modified>
    <unit name="meter" meter="1"/>
    <up_axis>Z_UP</up_axis>
  </asset>
  <library_effects>
    <effect id="ParkerVegBark-effect">
      <profile_COMMON>
        <newparam sid="vegetation_atlas_2048_png-surface">
          <surface type="2D">
            <init_from>vegetation_atlas_2048_png</init_from>
          </surface>
        </newparam>
        <newparam sid="vegetation_atlas_2048_png-sampler">
          <sampler2D>
            <source>vegetation_atlas_2048_png-surface</source>
          </sampler2D>
        </newparam>
        <technique sid="common">
          <lambert>
            <emission>
              <color sid="emission">0 0 0 1</color>
            </emission>
            <diffuse>
              <texture texture="vegetation_atlas_2048_png-sampler" texcoord="UVMap"/>
            </diffuse>
            <index_of_refraction>
              <float sid="ior">1.5</float>
            </index_of_refraction>
          </lambert>
        </technique>
      </profile_COMMON>
    </effect>
    <effect id="Colmesh_Material-effect">
      <profile_COMMON>
        <technique sid="common">
          <lambert>
            <emission>
              <color sid="emission">0 0 0 1</color>
            </emission>
            <diffuse>
              <color sid="diffuse">1 0 1 1</color>
            </diffuse>
            <transparent opaque="A_ONE">
              <color sid="alpha">0 0 0 0.15</color>
            </transparent>
            <index_of_refraction>
              <float sid="ior">1.5</float>
            </index_of_refraction>
          </lambert>
        </technique>
      </profile_COMMON>
    </effect>
  </library_effects>
  <library_images>
    <image id="vegetation_atlas_2048_png" name="vegetation_atlas_2048_png">
      <init_from>vegetation_atlas_2048.png</init_from>
    </image>
  </library_images>
  <library_materials>
    <material id="ParkerVegBark-material" name="ParkerVegBark">
      <instance_effect url="#ParkerVegBark-effect"/>
    </material>
    <material id="Colmesh_Material-material" name="Colmesh_Material">
      <instance_effect url="#Colmesh_Material-effect"/>
    </material>
  </library_materials>
  <library_geometries>
    <geometry id="saguaro_small_a50-mesh" name="saguaro_small_a50">
      <mesh>
        <source id="saguaro_small_a50-mesh-positions">
          <float_array id="saguaro_small_a50-mesh-positions-array" count="24">-0.2352 0 -0.02199995 0.2352 0 -0.02199995 0.2352 0 2.222 -0.2352 0 2.222 0 -0.2352 -0.02199995 0 0.2352 -0.02199995 0 0.2352 2.222 0 -0.2352 2.222</float_array>
          <technique_common>
            <accessor source="#saguaro_small_a50-mesh-positions-array" count="8" stride="3">
              <param name="X" type="float"/>
              <param name="Y" type="float"/>
              <param name="Z" type="float"/>
            </accessor>
          </technique_common>
        </source>
        <source id="saguaro_small_a50-mesh-normals">
          <float_array id="saguaro_small_a50-mesh-normals-array" count="12">0 -1 0 1 0 0 0 -1 0 1 0 0</float_array>
          <technique_common>
            <accessor source="#saguaro_small_a50-mesh-normals-array" count="4" stride="3">
              <param name="X" type="float"/>
              <param name="Y" type="float"/>
              <param name="Z" type="float"/>
            </accessor>
          </technique_common>
        </source>
        <source id="saguaro_small_a50-mesh-map-0">
          <float_array id="saguaro_small_a50-mesh-map-0-array" count="24">1 0 0 1 0 0 1 0 0 1 0 0 1 0 1 1 0 1 1 0 1 1 0 1</float_array>
          <technique_common>
            <accessor source="#saguaro_small_a50-mesh-map-0-array" count="12" stride="2">
              <param name="S" type="float"/>
              <param name="T" type="float"/>
            </accessor>
          </technique_common>
        </source>
        <vertices id="saguaro_small_a50-mesh-vertices">
          <input semantic="POSITION" source="#saguaro_small_a50-mesh-positions"/>
        </vertices>
        <triangles material="ParkerVegBark-material" count="4">
          <input semantic="VERTEX" source="#saguaro_small_a50-mesh-vertices" offset="0"/>
          <input semantic="NORMAL" source="#saguaro_small_a50-mesh-normals" offset="1"/>
          <input semantic="TEXCOORD" source="#saguaro_small_a50-mesh-map-0" offset="2" set="0"/>
          <p>1 0 0 3 0 1 0 0 2 5 1 3 7 1 4 4 1 5 1 2 6 2 2 7 3 2 8 5 3 9 6 3 10 7 3 11</p>
        </triangles>
      </mesh>
    </geometry>
    <geometry id="saguaro_small_a200-mesh" name="saguaro_small_a200">
      <mesh>
        <source id="saguaro_small_a200-mesh-positions">
          <float_array id="saguaro_small_a200-mesh-positions-array" count="78">0 0.224 0 0 0.224 1.54 0.1542632 0.1706612 0 0.1706612 0.1542632 1.54 0.224 0 0 0.224 0 1.54 0.1706612 -0.1542632 0 0.1542632 -0.1706612 1.54 0 -0.224 0 0 -0.224 1.54 -0.1542632 -0.1706612 0 -0.1706612 -0.1542632 1.54 -0.224 0 0 -0.224 0 1.54 -0.1706612 0.1542632 0 -0.1542632 0.1706612 1.54 0.1693864 0.114795 1.1 0.114795 0.1693864 2.2 0.114795 -0.1693864 1.1 0.1693864 -0.114795 2.2 -0.0952 -0.1648912 1.1 -0.0600655 -0.1860875 2.2 -0.1860875 -0.0600655 1.1 -0.1648912 -0.0952 2.2 -0.114795 0.1693864 1.1 -0.1693864 0.114795 2.2</float_array>
          <technique_common>
            <accessor source="#saguaro_small_a200-mesh-positions-array" count="26" stride="3">
              <param name="X" type="float"/>
              <param name="Y" type="float"/>
              <param name="Z" type="float"/>
            </accessor>
          </technique_common>
        </source>
        <source id="saguaro_small_a200-mesh-normals">
          <float_array id="saguaro_small_a200-mesh-normals-array" count="132">0.1885053 0.9812837 -0.03934442 0.9812837 -0.1885053 -0.03934442 0.3782586 0.9256816 0.005828917 -0.02139765 -0.9995984 -0.01857811 -0.9544568 0.2965572 -0.03265058 0.9450997 0.3267825 0 0.9256816 -0.3782586 0.005828917 0.3267825 -0.9450997 0 -0.3782586 -0.9256816 0.005828917 -0.9450997 -0.3267825 0 -0.9256816 0.3782586 0.005828917 0 0 1 -0.3267825 0.9450997 0 0 0 -1 -0.7555363 -0.6550759 -0.006364703 0.9812837 0.1885053 0.03934442 0.2965572 -0.9544568 0.03265058 -0.9995984 -0.02139765 0.01857811 -6.00032e-7 1.93118e-6 1 -0.1885053 0.9812837 0.03934442 0 0 -1 0.3267825 0.9450997 0 0.9256816 0.3782586 -0.005828917 0.9450997 -0.3267825 0 0.3782586 -0.9256816 -0.005828917 -0.3267825 -0.9450997 0 -0.9256816 -0.3782586 -0.005828917 -0.9450997 0.3267825 0 0 0 1 0 0 1 0 0 1 0 0 1 0 0 1 -0.3782586 0.9256816 -0.005828917 0 0 -1 0 0 -1 0 0 -1 0 0 -1 0 0 -1 -0.6550759 -0.7555363 0.006364703 -7.21358e-7 -1.38573e-7 1 2.17209e-7 -1.1307e-6 1 0 0 -1 0 0 -1</float_array>
          <technique_common>
            <accessor source="#saguaro_small_a200-mesh-normals-array" count="44" stride="3">
              <param name="X" type="float"/>
              <param name="Y" type="float"/>
              <param name="Z" type="float"/>
            </accessor>
          </technique_common>
        </source>
        <source id="saguaro_small_a200-mesh-map-0">
          <float_array id="saguaro_small_a200-mesh-map-0-array" count="264">0.75 0.65 0.5 0.75 0.5 0.5 0.75 0.65 0.5 0.75 0.5 0.5 0.75 0.75 1 0.5 1 0.75 0.75 0.65 0.5 0.75 0.5 0.5 0.75 0.65 0.5 0.75 0.5 0.5 0.75 0.75 1 0.5 1 0.75 0.75 0.75 1 0.5 1 0.75 0.75 0.75 1 0.5 1 0.75 0.75 0.75 1 0.5 1 0.75 0.75 0.75 1 0.5 1 0.75 0.75 0.75 1 0.5 1 0.75 0.00999999 0.25 0.25 0.00999999 0.49 0.25 0.75 0.75 1 0.5 1 0.75 0.75 0.00999999 0.51 0.25 0.75 0.49 0.5 0.5 0.75 0.75 0.5 0.75 0.75 0.5 0.75 0.75 0.5 0.6 0.75 0.5 0.75 0.75 0.5 0.6 0.75 0.5 0.75 0.75 0.5 0.6 0.04215389 0.1299999 0.1779999 0.02929234 0.4327508 0.1267993 0.75 0.5 0.75 0.75 0.5 0.6 0.9327507 0.3732007 0.63 0.04215389 0.6267994 0.4327508 0.75 0.75 0.75 0.5 1 0.5 0.75 0.75 0.75 0.5 1 0.5 0.75 0.75 0.75 0.5 1 0.5 0.75 0.75 0.75 0.5 1 0.5 0.75 0.75 0.75 0.5 1 0.5 0.75 0.75 0.75 0.5 1 0.5 0.75 0.75 0.75 0.5 1 0.5 0.49 0.25 0.4227077 0.4051384 0.25 0.49 0.25 0.49 0.09486156 0.4227077 0.00999999 0.25 0.00999999 0.25 0.07729232 0.09486156 0.25 0.00999999 0.25 0.00999999 0.4051384 0.07729232 0.49 0.25 0.49 0.25 0.25 0.49 0.00999999 0.25 0.75 0.75 0.75 0.5 1 0.5 0.75 0.49 0.9051385 0.4227077 0.99 0.25 0.99 0.25 0.9227077 0.09486156 0.75 0.00999999 0.75 0.00999999 0.5948616 0.07729232 0.51 0.25 0.51 0.25 0.5772923 0.4051384 0.75 0.49 0.75 0.49 0.99 0.25 0.75 0.00999999 0.5 0.5 0.75 0.5 0.75 0.75 0.4327508 0.1267993 0.3732007 0.4327508 0.04215389 0.1299999 0.3732007 0.4327508 0.06724923 0.3732007 0.04215389 0.1299999 0.8732007 0.06724923 0.63 0.04215389 0.9327507 0.3732007 0.63 0.04215389 0.5292924 0.1779999 0.6267994 0.4327508</float_array>
          <technique_common>
            <accessor source="#saguaro_small_a200-mesh-map-0-array" count="132" stride="2">
              <param name="S" type="float"/>
              <param name="T" type="float"/>
            </accessor>
          </technique_common>
        </source>
        <vertices id="saguaro_small_a200-mesh-vertices">
          <input semantic="POSITION" source="#saguaro_small_a200-mesh-positions"/>
        </vertices>
        <triangles material="ParkerVegBark-material" count="44">
          <input semantic="VERTEX" source="#saguaro_small_a200-mesh-vertices" offset="0"/>
          <input semantic="NORMAL" source="#saguaro_small_a200-mesh-normals" offset="1"/>
          <input semantic="TEXCOORD" source="#saguaro_small_a200-mesh-map-0" offset="2" set="0"/>
          <p>17 0 0 16 0 1 24 0 2 19 1 3 18 1 4 16 1 5 2 2 6 1 2 7 3 2 8 21 3 9 20 3 10 18 3 11 25 4 12 24 4 13 22 4 14 4 5 15 3 5 16 5 5 17 6 6 18 5 6 19 7 6 20 8 7 21 7 7 22 9 7 23 10 8 24 9 8 25 11 8 26 12 9 27 11 9 28 13 9 29 14 10 30 13 10 31 15 10 32 13 11 33 9 11 34 5 11 35 0 12 36 15 12 37 1 12 38 8 13 39 12 13 40 0 13 41 20 14 42 23 14 43 22 14 44 17 15 45 19 15 46 16 15 47 19 16 48 21 16 49 18 16 50 23 17 51 25 17 52 22 17 53 23 18 54 21 18 55 19 18 56 25 19 57 17 19 58 24 19 59 16 20 60 20 20 61 24 20 62 2 21 63 0 21 64 1 21 65 4 22 66 2 22 67 3 22 68 6 23 69 4 23 70 5 23 71 8 24 72 6 24 73 7 24 74 10 25 75 8 25 76 9 25 77 12 26 78 10 26 79 11 26 80 14 27 81 12 27 82 13 27 83 5 28 84 3 28 85 1 28 86 1 29 87 15 29 88 13 29 89 13 30 90 11 30 91 9 30 92 9 31 93 7 31 94 5 31 95 5 32 96 1 32 97 13 32 98 0 33 99 14 33 100 15 33 101 0 34 102 2 34 103 4 34 104 4 35 105 6 35 106 8 35 107 8 36 108 10 36 109 12 36 110 12 37 111 14 37 112 0 37 113 0 38 114 4 38 115 8 38 116 20 39 117 21 39 118 23 39 119 19 40 120 17 40 121 23 40 122 17 41 123 25 41 124 23 41 125 18 42 126 20 42 127 16 42 128 20 43 129 22 43 130 24 43 131</p>
        </triangles>
      </mesh>
    </geometry>
    <geometry id="Colmesh_trunk-1-mesh" name="Colmesh_trunk-1">
      <mesh>
        <source id="Colmesh_trunk-1-mesh-positions">
          <float_array id="Colmesh_trunk-1-mesh-positions-array" count="60">0 0.2576 0 0 0.2576 2.2 0.1514135 0.2084028 0 0.1514135 0.2084028 2.2 0.2449921 0.07960277 0 0.2449921 0.07960277 2.2 0.2449921 -0.07960277 0 0.2449921 -0.07960277 2.2 0.1514135 -0.2084028 0 0.1514135 -0.2084028 2.2 0 -0.2576 0 0 -0.2576 2.2 -0.1514135 -0.2084028 0 -0.1514135 -0.2084028 2.2 -0.2449921 -0.07960277 0 -0.2449921 -0.07960277 2.2 -0.2449921 0.07960277 0 -0.2449921 0.07960277 2.2 -0.1514135 0.2084028 0 -0.1514135 0.2084028 2.2</float_array>
          <technique_common>
            <accessor source="#Colmesh_trunk-1-mesh-positions-array" count="20" stride="3">
              <param name="X" type="float"/>
              <param name="Y" type="float"/>
              <param name="Z" type="float"/>
            </accessor>
          </technique_common>
        </source>
        <source id="Colmesh_trunk-1-mesh-normals">
          <float_array id="Colmesh_trunk-1-mesh-normals-array" count="108">0.309017 0.9510565 0 0.809017 0.5877853 0 1 0 0 0.809017 -0.5877853 0 0.309017 -0.9510565 0 -0.309017 -0.9510565 0 -0.809017 -0.5877853 0 -1 0 0 0 0 1 -0.809017 0.5877853 0 -0.309017 0.9510565 0 0 0 -1 0.309017 0.9510565 0 0.809017 0.5877853 0 1 0 0 0.809017 -0.5877853 0 0.309017 -0.9510565 0 -0.309017 -0.9510565 0 -0.809017 -0.5877853 0 -1 0 0 0 0 1 0 0 1 0 0 1 0 0 1 0 0 1 0 0 1 0 0 1 -0.809017 0.5877853 0 -0.309017 0.9510565 0 0 0 -1 0 0 -1 0 0 -1 0 0 -1 0 0 -1 0 0 -1 0 0 -1</float_array>
          <technique_common>
            <accessor source="#Colmesh_trunk-1-mesh-normals-array" count="36" stride="3">
              <param name="X" type="float"/>
              <param name="Y" type="float"/>
              <param name="Z" type="float"/>
            </accessor>
          </technique_common>
        </source>
        <source id="Colmesh_trunk-1-mesh-map-0">
          <float_array id="Colmesh_trunk-1-mesh-map-0-array" count="216">1 1 0.9 0.5 1 0.5 0.9 1 0.8 0.5 0.9 0.5 0.8 1 0.6999999 0.5 0.8 0.5 0.6999999 1 0.5999999 0.5 0.6999999 0.5 0.5999999 1 0.4999999 0.5 0.5999999 0.5 0.4999999 1 0.3999999 0.5 0.4999999 0.5 0.3999999 1 0.2999999 0.5 0.3999999 0.5 0.2999999 1 0.1999999 0.5 0.2999999 0.5 0.02174639 0.3241641 0.1089315 0.0558359 0.3910685 0.0558359 0.1999999 1 0.0999999 0.5 0.1999999 0.5 0.0999999 1 0 0.5 0.0999999 0.5 0.6089316 0.4441641 0.8910685 0.4441641 0.9782536 0.1758359 1 1 0.9 1 0.9 0.5 0.9 1 0.8 1 0.8 0.5 0.8 1 0.6999999 1 0.6999999 0.5 0.6999999 1 0.5999999 1 0.5999999 0.5 0.5999999 1 0.4999999 1 0.4999999 0.5 0.4999999 1 0.3999999 1 0.3999999 0.5 0.3999999 1 0.2999999 1 0.2999999 0.5 0.2999999 1 0.1999999 1 0.1999999 0.5 0.4782536 0.3241641 0.3910685 0.4441641 0.02174639 0.3241641 0.3910685 0.4441641 0.25 0.49 0.02174639 0.3241641 0.25 0.49 0.1089315 0.4441641 0.02174639 0.3241641 0.02174639 0.3241641 0.02174639 0.1758359 0.1089315 0.0558359 0.1089315 0.0558359 0.25 0.00999999 0.3910685 0.0558359 0.3910685 0.0558359 0.4782536 0.1758359 0.02174639 0.3241641 0.4782536 0.1758359 0.4782536 0.3241641 0.02174639 0.3241641 0.1999999 1 0.0999999 1 0.0999999 0.5 0.0999999 1 0 1 0 0.5 0.6089316 0.4441641 0.75 0.49 0.8910685 0.4441641 0.8910685 0.4441641 0.9782536 0.3241641 0.9782536 0.1758359 0.9782536 0.1758359 0.8910685 0.0558359 0.5217465 0.1758359 0.8910685 0.0558359 0.75 0.00999999 0.5217465 0.1758359 0.75 0.00999999 0.6089316 0.0558359 0.5217465 0.1758359 0.5217465 0.1758359 0.5217465 0.3241641 0.9782536 0.1758359 0.5217465 0.3241641 0.6089316 0.4441641 0.9782536 0.1758359</float_array>
          <technique_common>
            <accessor source="#Colmesh_trunk-1-mesh-map-0-array" count="108" stride="2">
              <param name="S" type="float"/>
              <param name="T" type="float"/>
            </accessor>
          </technique_common>
        </source>
        <vertices id="Colmesh_trunk-1-mesh-vertices">
          <input semantic="POSITION" source="#Colmesh_trunk-1-mesh-positions"/>
        </vertices>
        <triangles material="Colmesh_Material-material" count="36">
          <input semantic="VERTEX" source="#Colmesh_trunk-1-mesh-vertices" offset="0"/>
          <input semantic="NORMAL" source="#Colmesh_trunk-1-mesh-normals" offset="1"/>
          <input semantic="TEXCOORD" source="#Colmesh_trunk-1-mesh-map-0" offset="2" set="0"/>
          <p>1 0 0 2 0 1 0 0 2 3 1 3 4 1 4 2 1 5 5 2 6 6 2 7 4 2 8 7 3 9 8 3 10 6 3 11 9 4 12 10 4 13 8 4 14 11 5 15 12 5 16 10 5 17 13 6 18 14 6 19 12 6 20 15 7 21 16 7 22 14 7 23 17 8 24 13 8 25 9 8 26 17 9 27 18 9 28 16 9 29 19 10 30 0 10 31 18 10 32 18 11 33 2 11 34 6 11 35 1 12 36 3 12 37 2 12 38 3 13 39 5 13 40 4 13 41 5 14 42 7 14 43 6 14 44 7 15 45 9 15 46 8 15 47 9 16 48 11 16 49 10 16 50 11 17 51 13 17 52 12 17 53 13 18 54 15 18 55 14 18 56 15 19 57 17 19 58 16 19 59 5 20 60 3 20 61 17 20 62 3 21 63 1 21 64 17 21 65 1 22 66 19 22 67 17 22 68 17 23 69 15 23 70 13 23 71 13 24 72 11 24 73 9 24 74 9 25 75 7 25 76 17 25 77 7 26 78 5 26 79 17 26 80 17 27 81 19 27 82 18 27 83 19 28 84 1 28 85 0 28 86 18 29 87 0 29 88 2 29 89 2 30 90 4 30 91 6 30 92 6 31 93 8 31 94 14 31 95 8 32 96 10 32 97 14 32 98 10 33 99 12 33 100 14 33 101 14 34 102 16 34 103 6 34 104 16 35 105 18 35 106 6 35 107</p>
        </triangles>
      </mesh>
    </geometry>
    <geometry id="saguaro_small_a800-mesh" name="saguaro_small_a800">
      <mesh>
        <source id="saguaro_small_a800-mesh-positions">
          <float_array id="saguaro_small_a800-mesh-positions-array" count="144">0 0.224 0 0 0.224 1.54 0.112 0.1939896 0 0.112 0.1939896 1.54 0.1939896 0.112 0 0.1939896 0.112 1.54 0.224 0 0 0.224 0 1.54 0.1939896 -0.112 0 0.1939896 -0.112 1.54 0.112 -0.1939896 0 0.112 -0.1939896 1.54 0 -0.224 0 0 -0.224 1.54 -0.112 -0.1939896 0 -0.112 -0.1939896 1.54 -0.1939896 -0.112 0 -0.1939896 -0.112 1.54 -0.224 0 0 -0.224 0 1.54 -0.1939896 0.112 0 -0.1939896 0.112 1.54 -0.112 0.1939896 0 -0.112 0.1939896 1.54 0 0.1904 1.1 0 0.1904 2.2 0.0952 0.1648912 1.1 0.0952 0.1648912 2.2 0.1648912 0.0952 1.1 0.1648912 0.0952 2.2 0.1904 0 1.1 0.1904 0 2.2 0.1648912 -0.0952 1.1 0.1648912 -0.0952 2.2 0.0952 -0.1648912 1.1 0.0952 -0.1648912 2.2 0 -0.1904 1.1 0 -0.1904 2.2 -0.0952 -0.1648912 1.1 -0.0952 -0.1648912 2.2 -0.1648912 -0.0952 1.1 -0.1648912 -0.0952 2.2 -0.1904 0 1.1 -0.1904 0 2.2 -0.1648912 0.0952 1.1 -0.1648912 0.0952 2.2 -0.0952 0.1648912 1.1 -0.0952 0.1648912 2.2</float_array>
          <technique_common>
            <accessor source="#saguaro_small_a800-mesh-positions-array" count="48" stride="3">
              <param name="X" type="float"/>
              <param name="Y" type="float"/>
              <param name="Z" type="float"/>
            </accessor>
          </technique_common>
        </source>
        <source id="saguaro_small_a800-mesh-normals">
          <float_array id="saguaro_small_a800-mesh-normals-array" count="264">0.2588191 0.9659258 0 0.7071068 0.7071068 0 0.9659258 0.2588191 0 0.9659258 -0.2588191 0 0.7071068 -0.7071068 0 0.2588191 -0.9659258 0 -0.2588191 -0.9659258 0 -0.7071068 -0.7071068 0 -0.9659258 -0.2588191 0 -0.9659258 0.2588191 0 0 0 1 -0.7071068 0.7071068 0 -0.2588191 0.9659258 0 0 0 -1 0.258819 0.9659258 0 0.7071068 0.7071068 0 0.9659258 0.258819 0 0.9659258 -0.258819 0 0.7071068 -0.7071068 0 0.258819 -0.9659258 0 -0.258819 -0.9659258 0 -0.7071068 -0.7071068 0 -0.9659258 -0.258819 0 -0.9659258 0.258819 0 0 0 1 -0.7071068 0.7071068 0 -0.258819 0.9659258 0 0 0 -1 0.2588191 0.9659258 0 0.7071068 0.7071068 0 0.9659258 0.2588191 0 0.9659258 -0.2588191 0 0.7071068 -0.7071068 0 0.2588191 -0.9659258 0 -0.2588191 -0.9659258 0 -0.7071068 -0.7071068 0 -0.9659258 -0.2588191 0 -0.9659258 0.2588191 0 0 0 1 0 0 1 0 0 1 0 0 1 0 0 1 0 0 1 0 0 1 0 0 1 0 0 1 -0.7071068 0.7071068 0 -0.2588191 0.9659258 0 0 0 -1 0 0 -1 0 0 -1 0 0 -1 0 0 -1 0 0 -1 0 0 -1 0 0 -1 0 0 -1 0.258819 0.9659258 0 0.7071068 0.7071068 0 0.9659258 0.258819 0 0.9659258 -0.258819 0 0.7071068 -0.7071068 0 0.258819 -0.9659258 0 -0.258819 -0.9659258 0 -0.7071068 -0.7071068 0 -0.9659258 -0.258819 0 -0.9659258 0.258819 0 0 0 1 0 0 1 0 0 1 0 0 1 0 0 1 0 0 1 0 0 1 0 0 1 0 0 1 -0.7071068 0.7071068 0 -0.258819 0.9659258 0 0 0 -1 0 0 -1 0 0 -1 0 0 -1 0 0 -1 0 0 -1 0 0 -1 0 0 -1 0 0 -1</float_array>
          <technique_common>
            <accessor source="#saguaro_small_a800-mesh-normals-array" count="88" stride="3">
              <param name="X" type="float"/>
              <param name="Y" type="float"/>
              <param name="Z" type="float"/>
            </accessor>
          </technique_common>
        </source>
        <source id="saguaro_small_a800-mesh-map-0">
          <float_array id="saguaro_small_a800-mesh-map-0-array" count="528">1 0.5 0.75 0.75 0.75 0.5 1 0.5 0.75 0.75 0.75 0.5 1 0.5 0.75 0.75 0.75 0.5 1 0.5 0.75 0.75 0.75 0.5 1 0.5 0.75 0.75 0.75 0.5 1 0.5 0.75 0.75 0.75 0.5 1 0.5 0.75 0.75 0.75 0.5 1 0.5 0.75 0.75 0.75 0.5 1 0.5 0.75 0.75 0.75 0.5 1 0.5 0.75 0.75 0.75 0.5 0.04215389 0.37 0.25 0.00999999 0.4578461 0.37 1 0.5 0.75 0.75 0.75 0.5 1 0.5 0.75 0.75 0.75 0.5 0.99 0.25 0.63 0.04215389 0.63 0.4578461 0.75 0.5 0.5 0.75 0.5 0.5 0.75 0.5 0.5 0.75 0.5 0.5 0.75 0.5 0.5 0.75 0.5 0.5 0.75 0.5 0.5 0.75 0.5 0.5 0.75 0.5 0.5 0.75 0.5 0.5 0.75 0.5 0.5 0.75 0.5 0.5 0.75 0.5 0.5 0.75 0.5 0.5 0.75 0.5 0.5 0.75 0.5 0.5 0.75 0.5 0.5 0.75 0.5 0.5 0.75 0.5 0.5 0.75 0.5 0.5 0.04215389 0.37 0.25 0.00999999 0.4578461 0.37 0.75 0.5 0.5 0.75 0.5 0.5 0.75 0.5 0.5 0.75 0.5 0.5 0.99 0.25 0.63 0.04215389 0.63 0.4578461 1 0.5 1 0.75 0.75 0.75 1 0.5 1 0.75 0.75 0.75 1 0.5 1 0.75 0.75 0.75 1 0.5 1 0.75 0.75 0.75 1 0.5 1 0.75 0.75 0.75 1 0.5 1 0.75 0.75 0.75 1 0.5 1 0.75 0.75 0.75 1 0.5 1 0.75 0.75 0.75 1 0.5 1 0.75 0.75 0.75 1 0.5 1 0.75 0.75 0.75 0.4578461 0.37 0.37 0.4578461 0.25 0.49 0.25 0.49 0.1299999 0.4578461 0.04215389 0.37 0.04215389 0.37 0.00999999 0.25 0.04215389 0.1299999 0.04215389 0.1299999 0.1299999 0.04215389 0.25 0.00999999 0.25 0.00999999 0.37 0.04215389 0.4578461 0.1299999 0.4578461 0.1299999 0.49 0.25 0.4578461 0.37 0.4578461 0.37 0.25 0.49 0.04215389 0.37 0.04215389 0.37 0.04215389 0.1299999 0.25 0.00999999 0.25 0.00999999 0.4578461 0.1299999 0.4578461 0.37 1 0.5 1 0.75 0.75 0.75 1 0.5 1 0.75 0.75 0.75 0.63 0.4578461 0.75 0.49 0.87 0.4578461 0.87 0.4578461 0.9578461 0.37 0.99 0.25 0.99 0.25 0.9578461 0.1299999 0.87 0.04215389 0.87 0.04215389 0.75 0.00999999 0.63 0.04215389 0.63 0.04215389 0.5421539 0.1299999 0.51 0.25 0.51 0.25 0.5421539 0.37 0.63 0.4578461 0.63 0.4578461 0.87 0.4578461 0.99 0.25 0.99 0.25 0.87 0.04215389 0.63 0.04215389 0.63 0.04215389 0.51 0.25 0.63 0.4578461 0.75 0.5 0.75 0.75 0.5 0.75 0.75 0.5 0.75 0.75 0.5 0.75 0.75 0.5 0.75 0.75 0.5 0.75 0.75 0.5 0.75 0.75 0.5 0.75 0.75 0.5 0.75 0.75 0.5 0.75 0.75 0.5 0.75 0.75 0.5 0.75 0.75 0.5 0.75 0.75 0.5 0.75 0.75 0.5 0.75 0.75 0.5 0.75 0.75 0.5 0.75 0.75 0.5 0.75 0.75 0.5 0.75 0.75 0.5 0.75 0.4578461 0.37 0.37 0.4578461 0.25 0.49 0.25 0.49 0.1299999 0.4578461 0.4578461 0.37 0.1299999 0.4578461 0.04215389 0.37 0.4578461 0.37 0.04215389 0.37 0.00999999 0.25 0.04215389 0.1299999 0.04215389 0.1299999 0.1299999 0.04215389 0.04215389 0.37 0.1299999 0.04215389 0.25 0.00999999 0.04215389 0.37 0.25 0.00999999 0.37 0.04215389 0.4578461 0.1299999 0.4578461 0.1299999 0.49 0.25 0.4578461 0.37 0.25 0.00999999 0.4578461 0.1299999 0.4578461 0.37 0.75 0.5 0.75 0.75 0.5 0.75 0.75 0.5 0.75 0.75 0.5 0.75 0.63 0.4578461 0.75 0.49 0.87 0.4578461 0.87 0.4578461 0.9578461 0.37 0.63 0.4578461 0.9578461 0.37 0.99 0.25 0.63 0.4578461 0.99 0.25 0.9578461 0.1299999 0.87 0.04215389 0.87 0.04215389 0.75 0.00999999 0.63 0.04215389 0.63 0.04215389 0.5421539 0.1299999 0.51 0.25 0.51 0.25 0.5421539 0.37 0.63 0.04215389 0.5421539 0.37 0.63 0.4578461 0.63 0.04215389 0.99 0.25 0.87 0.04215389 0.63 0.04215389</float_array>
          <technique_common>
            <accessor source="#saguaro_small_a800-mesh-map-0-array" count="264" stride="2">
              <param name="S" type="float"/>
              <param name="T" type="float"/>
            </accessor>
          </technique_common>
        </source>
        <vertices id="saguaro_small_a800-mesh-vertices">
          <input semantic="POSITION" source="#saguaro_small_a800-mesh-positions"/>
        </vertices>
        <triangles material="ParkerVegBark-material" count="88">
          <input semantic="VERTEX" source="#saguaro_small_a800-mesh-vertices" offset="0"/>
          <input semantic="NORMAL" source="#saguaro_small_a800-mesh-normals" offset="1"/>
          <input semantic="TEXCOORD" source="#saguaro_small_a800-mesh-map-0" offset="2" set="0"/>
          <p>1 0 0 2 0 1 0 0 2 3 1 3 4 1 4 2 1 5 5 2 6 6 2 7 4 2 8 7 3 9 8 3 10 6 3 11 9 4 12 10 4 13 8 4 14 11 5 15 12 5 16 10 5 17 13 6 18 14 6 19 12 6 20 15 7 21 16 7 22 14 7 23 17 8 24 18 8 25 16 8 26 19 9 27 20 9 28 18 9 29 21 10 30 13 10 31 5 10 32 21 11 33 22 11 34 20 11 35 23 12 36 0 12 37 22 12 38 6 13 39 14 13 40 22 13 41 25 14 42 26 14 43 24 14 44 27 15 45 28 15 46 26 15 47 29 16 48 30 16 49 28 16 50 31 17 51 32 17 52 30 17 53 33 18 54 34 18 55 32 18 56 35 19 57 36 19 58 34 19 59 37 20 60 38 20 61 36 20 62 39 21 63 40 21 64 38 21 65 41 22 66 42 22 67 40 22 68 43 23 69 44 23 70 42 23 71 45 24 72 37 24 73 29 24 74 45 25 75 46 25 76 44 25 77 47 26 78 24 26 79 46 26 80 30 27 81 38 27 82 46 27 83 1 28 84 3 28 85 2 28 86 3 29 87 5 29 88 4 29 89 5 30 90 7 30 91 6 30 92 7 31 93 9 31 94 8 31 95 9 32 96 11 32 97 10 32 98 11 33 99 13 33 100 12 33 101 13 34 102 15 34 103 14 34 104 15 35 105 17 35 106 16 35 107 17 36 108 19 36 109 18 36 110 19 37 111 21 37 112 20 37 113 5 38 114 3 38 115 1 38 116 1 39 117 23 39 118 21 39 119 21 40 120 19 40 121 17 40 122 17 41 123 15 41 124 13 41 125 13 42 126 11 42 127 9 42 128 9 43 129 7 43 130 5 43 131 5 44 132 1 44 133 21 44 134 21 45 135 17 45 136 13 45 137 13 46 138 9 46 139 5 46 140 21 47 141 23 47 142 22 47 143 23 48 144 1 48 145 0 48 146 22 49 147 0 49 148 2 49 149 2 50 150 4 50 151 6 50 152 6 51 153 8 51 154 10 51 155 10 52 156 12 52 157 14 52 158 14 53 159 16 53 160 18 53 161 18 54 162 20 54 163 22 54 164 22 55 165 2 55 166 6 55 167 6 56 168 10 56 169 14 56 170 14 57 171 18 57 172 22 57 173 25 58 174 27 58 175 26 58 176 27 59 177 29 59 178 28 59 179 29 60 180 31 60 181 30 60 182 31 61 183 33 61 184 32 61 185 33 62 186 35 62 187 34 62 188 35 63 189 37 63 190 36 63 191 37 64 192 39 64 193 38 64 194 39 65 195 41 65 196 40 65 197 41 66 198 43 66 199 42 66 200 43 67 201 45 67 202 44 67 203 29 68 204 27 68 205 25 68 206 25 69 207 47 69 208 29 69 209 47 70 210 45 70 211 29 70 212 45 71 213 43 71 214 41 71 215 41 72 216 39 72 217 45 72 218 39 73 219 37 73 220 45 73 221 37 74 222 35 74 223 33 74 224 33 75 225 31 75 226 29 75 227 37 76 228 33 76 229 29 76 230 45 77 231 47 77 232 46 77 233 47 78 234 25 78 235 24 78 236 46 79 237 24 79 238 26 79 239 26 80 240 28 80 241 46 80 242 28 81 243 30 81 244 46 81 245 30 82 246 32 82 247 34 82 248 34 83 249 36 83 250 38 83 251 38 84 252 40 84 253 42 84 254 42 85 255 44 85 256 38 85 257 44 86 258 46 86 259 38 86 260 30 87 261 34 87 262 38 87 263</p>
        </triangles>
      </mesh>
    </geometry>
  </library_geometries>
  <library_visual_scenes>
    <visual_scene id="Scene" name="Scene">
      <node id="base00" name="base00" type="NODE">
        <matrix sid="transform">1 0 0 0 0 1 0 0 0 0 1 0 0 0 0 1</matrix>
        <node id="start01" name="start01" type="NODE">
          <matrix sid="transform">1 0 0 0 0 1 0 0 0 0 1 0 0 0 0 1</matrix>
          <node id="saguaro_small_a800" name="saguaro_small_a800" type="NODE">
            <matrix sid="transform">1 0 0 0 0 1 0 0 0 0 1 0 0 0 0 1</matrix>
            <instance_geometry url="#saguaro_small_a800-mesh" name="saguaro_small_a800">
              <bind_material>
                <technique_common>
                  <instance_material symbol="ParkerVegBark-material" target="#ParkerVegBark-material">
                    <bind_vertex_input semantic="UVMap" input_semantic="TEXCOORD" input_set="0"/>
                  </instance_material>
                </technique_common>
              </bind_material>
            </instance_geometry>
          </node>
          <node id="saguaro_small_a200" name="saguaro_small_a200" type="NODE">
            <matrix sid="transform">1 0 0 0 0 1 0 0 0 0 1 0 0 0 0 1</matrix>
            <instance_geometry url="#saguaro_small_a200-mesh" name="saguaro_small_a200">
              <bind_material>
                <technique_common>
                  <instance_material symbol="ParkerVegBark-material" target="#ParkerVegBark-material">
                    <bind_vertex_input semantic="UVMap" input_semantic="TEXCOORD" input_set="0"/>
                  </instance_material>
                </technique_common>
              </bind_material>
            </instance_geometry>
          </node>
          <node id="saguaro_small_a50" name="saguaro_small_a50" type="NODE">
            <matrix sid="transform">1 0 0 0 0 1 0 0 0 0 1 0 0 0 0 1</matrix>
            <instance_geometry url="#saguaro_small_a50-mesh" name="saguaro_small_a50">
              <bind_material>
                <technique_common>
                  <instance_material symbol="ParkerVegBark-material" target="#ParkerVegBark-material">
                    <bind_vertex_input semantic="UVMap" input_semantic="TEXCOORD" input_set="0"/>
                  </instance_material>
                </technique_common>
              </bind_material>
            </instance_geometry>
          </node>
          <node id="nulldetail20" name="nulldetail20" type="NODE">
            <matrix sid="transform">1 0 0 0 0 1 0 0 0 0 1 0 0 0 0 1</matrix>
          </node>
        </node>
        <node id="collision-1" name="collision-1" type="NODE">
          <matrix sid="transform">1 0 0 0 0 1 0 0 0 0 1 0 0 0 0 1</matrix>
          <node id="Colmesh_trunk-1" name="Colmesh_trunk-1" type="NODE">
            <matrix sid="transform">1 0 0 0 0 1 0 0 0 0 1 0 0 0 0 1</matrix>
            <instance_geometry url="#Colmesh_trunk-1-mesh" name="Colmesh_trunk-1">
              <bind_material>
                <technique_common>
                  <instance_material symbol="Colmesh_Material-material" target="#Colmesh_Material-material">
                    <bind_vertex_input semantic="UVMap" input_semantic="TEXCOORD" input_set="0"/>
                  </instance_material>
                </technique_common>
              </bind_material>
            </instance_geometry>
          </node>
        </node>
      </node>
    </visual_scene>
  </library_visual_scenes>
  <scene>
    <instance_visual_scene url="#Scene"/>
  </scene>
</COLLADA>