<?xml version="1.0" encoding="utf-8"?>
<COLLADA xmlns="http://www.collada.org/2005/11/COLLADASchema" version="1.4.1" xmlns:xsi="http://www.w3.org/2001/XMLSchema-instance">
  <asset>
    <contributor>
      <author>Blender User</author>
      <authoring_tool>Blender 4.2.9 LTS commit date:2025-04-14, commit time:12:24, hash:a10f621e649a</authoring_tool>
    </contributor>
    <created>2026-08-01T08:09:21</created>
    <modified>2026-08-01T08:09:21</modified>
    <unit name="meter" meter="1"/>
    <up_axis>Z_UP</up_axis>
  </asset>
  <library_effects>
    <effect id="ParkerVegBark-effect">
      <profile_COMMON>
        <newparam sid="vegetation_atlas_2048_png-surface">
          <surface type="2D">
            <init_from>vegetation_atlas_2048_png</init_from>
          </surface>
        </newparam>
        <newparam sid="vegetation_atlas_2048_png-sampler">
          <sampler2D>
            <source>vegetation_atlas_2048_png-surface</source>
          </sampler2D>
        </newparam>
        <technique sid="common">
          <lambert>
            <emission>
              <color sid="emission">0 0 0 1</color>
            </emission>
            <diffuse>
              <texture texture="vegetation_atlas_2048_png-sampler" texcoord="UVMap"/>
            </diffuse>
            <index_of_refraction>
              <float sid="ior">1.5</float>
            </index_of_refraction>
          </lambert>
        </technique>
      </profile_COMMON>
    </effect>
    <effect id="Colmesh_Material-effect">
      <profile_COMMON>
        <technique sid="common">
          <lambert>
            <emission>
              <color sid="emission">0 0 0 1</color>
            </emission>
            <diffuse>
              <color sid="diffuse">1 0 1 1</color>
            </diffuse>
            <transparent opaque="A_ONE">
              <color sid="alpha">0 0 0 0.15</color>
            </transparent>
            <index_of_refraction>
              <float sid="ior">1.5</float>
            </index_of_refraction>
          </lambert>
        </technique>
      </profile_COMMON>
    </effect>
  </library_effects>
  <library_images>
    <image id="vegetation_atlas_2048_png" name="vegetation_atlas_2048_png">
      <init_from>vegetation_atlas_2048.png</init_from>
    </image>
  </library_images>
  <library_materials>
    <material id="ParkerVegBark-material" name="ParkerVegBark">
      <instance_effect url="#ParkerVegBark-effect"/>
    </material>
    <material id="Colmesh_Material-material" name="Colmesh_Material">
      <instance_effect url="#Colmesh_Material-effect"/>
    </material>
  </library_materials>
  <library_geometries>
    <geometry id="saguaro_multi_a50-mesh" name="saguaro_multi_a50">
      <mesh>
        <source id="saguaro_multi_a50-mesh-positions">
          <float_array id="saguaro_multi_a50-mesh-positions-array" count="24">-0.825027 0 -0.06199997 0.825027 0 -0.06199997 0.825027 0 6.262 -0.825027 0 6.262 0 -0.825027 -0.06199997 0 0.825027 -0.06199997 0 0.825027 6.262 0 -0.825027 6.262</float_array>
          <technique_common>
            <accessor source="#saguaro_multi_a50-mesh-positions-array" count="8" stride="3">
              <param name="X" type="float"/>
              <param name="Y" type="float"/>
              <param name="Z" type="float"/>
            </accessor>
          </technique_common>
        </source>
        <source id="saguaro_multi_a50-mesh-normals">
          <float_array id="saguaro_multi_a50-mesh-normals-array" count="12">0 -1 0 1 0 0 0 -1 0 1 0 0</float_array>
          <technique_common>
            <accessor source="#saguaro_multi_a50-mesh-normals-array" count="4" stride="3">
              <param name="X" type="float"/>
              <param name="Y" type="float"/>
              <param name="Z" type="float"/>
            </accessor>
          </technique_common>
        </source>
        <source id="saguaro_multi_a50-mesh-map-0">
          <float_array id="saguaro_multi_a50-mesh-map-0-array" count="24">1 0 0 1 0 0 1 0 0 1 0 0 1 0 1 1 0 1 1 0 1 1 0 1</float_array>
          <technique_common>
            <accessor source="#saguaro_multi_a50-mesh-map-0-array" count="12" stride="2">
              <param name="S" type="float"/>
              <param name="T" type="float"/>
            </accessor>
          </technique_common>
        </source>
        <vertices id="saguaro_multi_a50-mesh-vertices">
          <input semantic="POSITION" source="#saguaro_multi_a50-mesh-positions"/>
        </vertices>
        <triangles material="ParkerVegBark-material" count="4">
          <input semantic="VERTEX" source="#saguaro_multi_a50-mesh-vertices" offset="0"/>
          <input semantic="NORMAL" source="#saguaro_multi_a50-mesh-normals" offset="1"/>
          <input semantic="TEXCOORD" source="#saguaro_multi_a50-mesh-map-0" offset="2" set="0"/>
          <p>1 0 0 3 0 1 0 0 2 5 1 3 7 1 4 4 1 5 1 2 6 2 2 7 3 2 8 5 3 9 6 3 10 7 3 11</p>
        </triangles>
      </mesh>
    </geometry>
    <geometry id="saguaro_multi_a200-mesh" name="saguaro_multi_a200">
      <mesh>
        <source id="saguaro_multi_a200-mesh-positions">
          <float_array id="saguaro_multi_a200-mesh-positions-array" count="177">0.08215564 0.3052601 0 -0.04885011 0.3052601 4.34 0.1686527 0.2632717 4.34 0.3137673 0.09590286 0 0.2799245 0.152 4.34 0.2482643 -0.2093572 0 0.3137673 -0.09590286 4.34 -0.04885011 -0.3052601 0 0.08215564 -0.3052601 4.34 -0.2804617 -0.09590286 0 -0.2149588 -0.2093572 4.34 -0.2149588 0.2093572 0 -0.2804617 0.09590286 4.34 0.1946064 0.1968698 3.1 0.09817022 0.2525473 6.2 0.2761239 -0.05567747 3.1 0.2761239 0.05567747 6.2 0.09817022 -0.2525473 3.1 0.1946064 -0.1968698 6.2 -0.1613008 -0.1968698 3.1 -0.06486469 -0.2525473 6.2 -0.2428183 0.05567747 3.1 -0.2428183 -0.05567747 6.2 -0.06486469 0.2525473 3.1 -0.1613008 0.1968698 6.2 -0.5517044 0.09592753 2.249191 -0.105188 0.1373345 4.624001 -0.5441958 -0.07927924 2.247596 -0.01982796 0.005606949 4.605857 -0.07756394 -0.1050665 4.618129 -0.7006248 -0.1270034 2.280846 -0.199868 -0.1317419 4.644126 -0.79974 0.005606949 2.301913 -0.2926037 0.005606949 4.663838 -0.7006248 0.1382174 2.280846 -0.2348677 0.1162805 4.651566 0.7652528 0.07835948 3.103137 0.2649732 0.1206493 5.138979 0.3500884 0.03031247 5.157071 0.78574 -0.0542345 3.107491 0.7006248 -0.1445714 3.0894 0.3296011 -0.1022816 5.152717 0.5798267 -0.1226345 3.063723 0.1806807 -0.1445714 5.121062 0.5220907 -0.01196098 3.051451 0.09556543 -0.0542345 5.102971 0.6074509 0.1197665 3.069595 0.1160526 0.07835948 5.107326 -0.5120082 0.07016748 2.705885 -0.1501998 0.1208201 4.743381 -0.06508463 0.03048318 4.725289 -0.5080655 -0.09667664 2.705047 -0.08200603 -0.09374809 4.728886 -0.6644945 -0.1444007 2.738296 -0.2359982 -0.1491392 4.761618 -0.7636098 -0.01179027 2.759364 -0.328734 -0.01179027 4.781329 -0.6568015 0.1254429 2.736662 -0.270998 0.09888321 4.769057</float_array>
          <technique_common>
            <accessor source="#saguaro_multi_a200-mesh-positions-array" count="59" stride="3">
              <param name="X" type="float"/>
              <param name="Y" type="float"/>
              <param name="Z" type="float"/>
            </accessor>
          </technique_common>
        </source>
        <source id="saguaro_multi_a200-mesh-normals">
          <float_array id="saguaro_multi_a200-mesh-normals-array" count="294">0.9777013 -0.2097957 -0.00927186 0.7071022 0.7071022 -0.00362581 0.3071623 -0.9516119 -0.00927186 -0.6705391 -0.7418164 -0.00927186 -0.9777013 0.2097957 -0.00927186 -0.3071623 0.9516119 -0.00927186 0.2097918 0.9776839 -0.01103335 0.951595 0.3071568 -0.01103335 0.7418031 -0.6705271 -0.01103335 -0.2097918 -0.9776839 -0.01103335 -0.951595 -0.3071568 -0.01103335 -0.7418031 0.6705271 -0.01103335 0.2596547 0.9634695 -0.0656197 0.9748895 0.04376828 -0.2183455 0.9648399 -0.1560246 0.2115191 0.2455914 0.9685383 0.04023146 0.7062638 -0.6937211 0.1412182 -0.1695716 -0.9845619 -0.04339683 -0.2079101 -2.29497e-6 0.978148 -0.812938 0.5522444 -0.184818 0.3398348 0.9367591 -0.08363419 0.1895449 0.9818554 0.005721509 0.9907922 0.1352592 0.005977749 0.6705391 -0.7418164 0.00927186 -0.3071623 -0.9516119 0.00927186 -0.9777013 -0.2097957 0.00927186 0 0 1 -0.6705391 0.7418164 0.00927186 0 0 -1 0.7418031 0.6705271 0.01103335 0.951595 -0.3071568 0.01103335 0.2097918 -0.9776839 0.01103335 -0.7418031 -0.6705271 0.01103335 -0.951595 0.3071568 0.01103335 0 0 1 -0.2097918 0.9776839 0.01103335 0 0 -1 0.2037144 -0.9779898 -0.04512608 0.8175179 0.552254 -0.1633403 0.8647639 -0.4705715 -0.175345 -0.7768797 -0.607152 0.1668062 -0.8626916 0.4705874 0.1852312 0.2079142 3.99826e-7 0.9781471 -0.1520493 0.9876028 0.03901046 -0.2079122 -1.50717e-7 -0.9781476 0.7026426 0.6937212 0.158254 -0.7056256 -0.6937371 -0.1442961 0.2594846 -0.9634613 0.06640738 -0.9677093 0.1560235 -0.1979784 0.9692395 -0.1379204 -0.2038451 -0.264216 0.963453 -0.04413807 0.2079114 4.87108e-7 -0.9781476 0.705976 0.6937294 -0.1426099 0.3242453 -0.943314 -0.07087737 -0.7768213 -0.6071527 0.1670755 0.2079089 -1.01651e-6 0.9781482 -0.8626278 0.4705865 0.1855304 -0.1692306 0.9845491 0.04499077 -0.2079094 0 -0.9781481 0.670555 0.7418339 -0.0061872 0.9674578 0.1560244 0.1992033 -0.2079113 -1.05614e-6 0.9781477 -0.2079144 2.0326e-6 0.978147 -0.2079114 -8.97723e-7 0.9781476 0 0 1 0 0 1 0 0 1 0 0 1 0 0 -1 0 0 -1 0 0 -1 0 0 1 0 0 1 0 0 1 0 0 -1 0 0 -1 0 0 -1 0.278473 -0.9582257 -0.06524026 -0.8053328 -0.5680736 0.1695033 -0.7786095 0.6071391 0.1585854 0.2079158 3.5688e-6 0.9781467 0.2079109 -2.05194e-6 0.9781478 0.2079105 -2.91923e-6 0.9781479 -0.2079099 0 -0.978148 -0.2079123 0 -0.9781475 -0.8619013 -0.4705806 -0.188892 0.9761897 0.02415096 -0.2155703 0.2079125 1.68181e-6 -0.9781474 0.2079131 -5.20364e-6 -0.9781473 0.2079113 2.04419e-7 -0.9781477 0.2801054 -0.9582408 -0.0575813 -0.8053901 -0.5680729 0.169234 0.2079103 3.08423e-6 0.9781479 0.2079104 4.47167e-7 0.9781479 0.2079102 0 0.9781479 -0.767274 0.622608 0.1537856 -0.2079124 1.32877e-6 -0.9781475 -0.207911 1.28008e-6 -0.9781478</float_array>
          <technique_common>
            <accessor source="#saguaro_multi_a200-mesh-normals-array" count="98" stride="3">
              <param name="X" type="float"/>
              <param name="Y" type="float"/>
              <param name="Z" type="float"/>
            </accessor>
          </technique_common>
        </source>
        <source id="saguaro_multi_a200-mesh-map-0">
          <float_array id="saguaro_multi_a200-mesh-map-0-array" count="588">1 0.65 0.75 0.75 0.75 0.5 0.75 0.75 1 0.5 1 0.75 1 0.65 0.75 0.75 0.75 0.5 1 0.65 0.75 0.75 0.75 0.5 1 0.65 0.75 0.75 0.75 0.5 1 0.65 0.75 0.75 0.75 0.5 0.75 0.65 0.5 0.75 0.5 0.5 0.75 0.65 0.5 0.75 0.5 0.5 0.75 0.65 0.5 0.75 0.5 0.5 0.75 0.65 0.5 0.75 0.5 0.5 0.75 0.65 0.5 0.75 0.5 0.5 0.75 0.65 0.5 0.75 0.5 0.5 0.75 0.6513415 0.5 0.75 0.5 0.5 0.75 0.625 0.5 0.75 0.5 0.5 0.5 0.75 0.75 0.5 0.75 0.75 0.75 0.6250004 0.5 0.75 0.5 0.5 0.5 0.5 0.75 0.6513417 0.5 0.75 0.75 0.6250001 0.5 0.75 0.5 0.5 0.3205344 0.467082 0.07452535 0.3968081 0.02174639 0.1758359 0.75 0.6513416 0.5 0.75 0.5 0.5 0.5 0.5 0.75 0.6250001 0.5 0.75 1 0.5 1 0.75 0.75 0.6 1 0.5 1 0.75 0.75 0.6 1 0.5 1 0.75 0.75 0.6 1 0.5 1 0.75 0.75 0.6 1 0.5 1 0.75 0.75 0.6 0.02929234 0.322 0.07729232 0.09486156 0.37 0.4578461 1 0.5 1 0.75 0.75 0.6 0.798 0.4771385 0.9707077 0.322 0.9227077 0.09486156 0.75 0.5 0.75 0.75 0.5 0.6 0.75 0.5 0.75 0.75 0.5 0.6 0.75 0.5 0.75 0.75 0.5 0.6 0.75 0.5 0.75 0.75 0.5 0.6 0.75 0.5 0.75 0.75 0.5 0.6 0.4771385 0.298 0.322 0.4707077 0.02286154 0.202 0.75 0.5 0.75 0.75 0.5 0.6 0.822 0.02929234 0.5948616 0.07729232 0.5228615 0.298 0.5 0.75 0.75 0.5 0.75 0.75 0.75 0.5 0.75 0.75 0.5 0.5986583 0.5 0.6250001 0.75 0.5 0.75 0.75 0.5 0.5 0.75 0.75 0.5 0.75 0.75 0.75 0.5 0.5 0.75 0.5 0.1089315 0.4441641 0.02174639 0.25 0.3910685 0.0558359 0.75 0.5 0.75 0.75 0.5 0.6249999 0.9254746 0.3968082 0.9346609 0.1158359 0.6794657 0.03291797 0.5 0.5986583 0.75 0.5 0.75 0.75 0.75 0.75 0.5 0.5 0.75 0.5 0.75 0.5 0.75 0.75 0.5 0.6249998 0.75 0.5 0.75 0.75 0.5 0.625 0.5 0.75 0.75 0.5 0.75 0.75 0.75 0.5 0.75 0.75 0.5 0.5986584 0.5217465 0.25 0.6646019 0.4622525 0.9782536 0.1758359 0.5 0.6249999 0.75 0.5 0.75 0.75 0.5 0.75 0.75 0.5 0.75 0.75 0.5 0.5 0.75 0.75 0.5 0.75 0.1089315 0.4441641 0.02174639 0.25 0.4346609 0.1158358 0.75 0.75 0.5 0.5 0.75 0.5 0.75 0.5 0.75 0.75 0.5 0.6513414 0.9346609 0.3841642 0.9346609 0.1158358 0.6794658 0.03291791 0.75 0.75 0.75 0.5 1 0.5 0.5 0.75 0.5 0.5 0.75 0.5 0.02174639 0.1758359 0.1794657 0.03291797 0.4782536 0.3241641 0.1794657 0.03291797 0.4254746 0.1031919 0.4782536 0.3241641 0.4782536 0.3241641 0.3205344 0.467082 0.02174639 0.1758359 0.07729232 0.09486156 0.298 0.02286154 0.4578461 0.37 0.298 0.02286154 0.4707077 0.178 0.4578461 0.37 0.4578461 0.37 0.37 0.4578461 0.07729232 0.09486156 0.37 0.4578461 0.202 0.4771385 0.02929234 0.322 0.9227077 0.09486156 0.702 0.02286154 0.5292924 0.178 0.5292924 0.178 0.5772923 0.4051384 0.9227077 0.09486156 0.5772923 0.4051384 0.798 0.4771385 0.9227077 0.09486156 0.322 0.4707077 0.09486156 0.4227077 0.02286154 0.202 0.02286154 0.202 0.1779999 0.02929234 0.4051384 0.07729232 0.4051384 0.07729232 0.4771385 0.298 0.02286154 0.202 0.5228615 0.298 0.678 0.4707077 0.9051384 0.4227077 0.9051384 0.4227077 0.9771384 0.202 0.5228615 0.298 0.9771384 0.202 0.822 0.02929234 0.5228615 0.298 0.5 0.75 0.5 0.5 0.75 0.5 0.5 0.5 0.75 0.5 0.75 0.75 0.75 0.75 0.5 0.75 0.5 0.5 0.1794657 0.03291797 0.3910685 0.0558359 0.02174639 0.25 0.3910685 0.0558359 0.4782536 0.25 0.1089315 0.4441641 0.4782536 0.25 0.335398 0.4622525 0.1089315 0.4441641 0.5217465 0.25 0.6794657 0.467082 0.6794657 0.03291797 0.6794657 0.467082 0.9254746 0.3968082 0.6794657 0.03291797 0.75 0.75 0.5 0.75 0.5 0.5 0.5 0.75 0.5 0.5 0.75 0.5 0.9254746 0.3968081 0.9782536 0.1758359 0.6646019 0.4622525 0.9782536 0.1758359 0.8205343 0.03291797 0.6089316 0.0558359 0.5217465 0.25 0.9782536 0.1758359 0.6089316 0.0558359 0.5 0.75 0.5 0.5 0.75 0.5 0.5 0.5 0.75 0.5 0.75 0.75 0.1794657 0.03291797 0.4346609 0.1158358 0.02174639 0.25 0.4346609 0.1158358 0.4782536 0.3241641 0.1089315 0.4441641 0.4782536 0.3241641 0.3205343 0.467082 0.1089315 0.4441641 0.75 0.75 0.5 0.75 0.5 0.5 0.6794658 0.03291791 0.5217464 0.25 0.6943296 0.4719116 0.6943296 0.4719116 0.9346609 0.3841642 0.6794658 0.03291791</float_array>
          <technique_common>
            <accessor source="#saguaro_multi_a200-mesh-map-0-array" count="294" stride="2">
              <param name="S" type="float"/>
              <param name="T" type="float"/>
            </accessor>
          </technique_common>
        </source>
        <vertices id="saguaro_multi_a200-mesh-vertices">
          <input semantic="POSITION" source="#saguaro_multi_a200-mesh-positions"/>
        </vertices>
        <triangles material="ParkerVegBark-material" count="98">
          <input semantic="VERTEX" source="#saguaro_multi_a200-mesh-vertices" offset="0"/>
          <input semantic="NORMAL" source="#saguaro_multi_a200-mesh-normals" offset="1"/>
          <input semantic="TEXCOORD" source="#saguaro_multi_a200-mesh-map-0" offset="2" set="0"/>
          <p>6 0 0 5 0 1 3 0 2 3 1 3 2 1 4 4 1 5 8 2 6 7 2 7 5 2 8 10 3 9 9 3 10 7 3 11 12 4 12 11 4 13 9 4 14 1 5 15 0 5 16 11 5 17 14 6 18 13 6 19 23 6 20 16 7 21 15 7 22 13 7 23 18 8 24 17 8 25 15 8 26 20 9 27 19 9 28 17 9 29 22 10 30 21 10 31 19 10 32 24 11 33 23 11 34 21 11 35 26 12 36 25 12 37 34 12 38 28 13 39 27 13 40 25 13 41 39 14 42 38 14 43 41 14 44 37 15 45 36 15 46 46 15 47 39 16 48 41 16 49 40 16 50 43 17 51 42 17 52 40 17 53 37 18 54 47 18 55 45 18 56 47 19 57 46 19 58 44 19 59 57 20 60 49 20 61 48 20 62 1 21 63 2 21 64 0 21 65 4 22 66 6 22 67 3 22 68 6 23 69 8 23 70 5 23 71 8 24 72 10 24 73 7 24 74 10 25 75 12 25 76 9 25 77 12 26 78 10 26 79 2 26 80 12 27 81 1 27 82 11 27 83 0 28 84 3 28 85 5 28 86 14 29 87 16 29 88 13 29 89 16 30 90 18 30 91 15 30 92 18 31 93 20 31 94 17 31 95 20 32 96 22 32 97 19 32 98 22 33 99 24 33 100 21 33 101 16 34 102 14 34 103 22 34 104 24 35 105 14 35 106 23 35 107 17 36 108 19 36 109 21 36 110 30 37 111 29 37 112 31 37 113 26 38 114 28 38 115 25 38 116 27 39 117 28 39 118 29 39 119 30 40 120 33 40 121 32 40 122 35 41 123 32 41 124 33 41 125 35 42 126 33 42 127 29 42 128 35 43 129 26 43 130 34 43 131 25 44 132 27 44 133 30 44 134 36 45 135 37 45 136 38 45 137 45 46 138 42 46 139 43 46 140 41 47 141 43 47 142 40 47 143 45 48 144 47 48 145 44 48 146 51 49 147 50 49 148 52 49 149 47 50 150 37 50 151 46 50 152 44 51 153 46 51 154 39 51 155 48 52 156 49 52 157 50 52 158 53 53 159 52 53 160 54 53 161 53 54 162 56 54 163 55 54 164 58 55 165 56 55 166 52 55 167 58 56 168 55 56 169 56 56 170 58 57 171 49 57 172 57 57 173 48 58 174 51 58 175 53 58 176 3 59 177 0 59 178 2 59 179 39 60 180 36 60 181 38 60 182 45 61 183 43 61 184 38 61 185 43 62 186 41 62 187 38 62 188 38 63 189 37 63 190 45 63 191 10 64 192 8 64 193 4 64 194 8 65 195 6 65 196 4 65 197 4 66 198 2 66 199 10 66 200 2 67 201 1 67 202 12 67 203 5 68 204 7 68 205 9 68 206 9 69 207 11 69 208 5 69 209 11 70 210 0 70 211 5 70 212 14 71 213 24 71 214 22 71 215 22 72 216 20 72 217 18 72 218 18 73 219 16 73 220 22 73 221 21 74 222 23 74 223 13 74 224 13 75 225 15 75 226 21 75 227 15 76 228 17 76 229 21 76 230 30 77 231 27 77 232 29 77 233 30 78 234 31 78 235 33 78 236 35 79 237 34 79 238 32 79 239 31 80 240 29 80 241 33 80 242 29 81 243 28 81 244 35 81 245 28 82 246 26 82 247 35 82 248 32 83 249 34 83 250 30 83 251 34 84 252 25 84 253 30 84 254 45 85 255 44 85 256 42 85 257 51 86 258 48 86 259 50 86 260 36 87 261 39 87 262 46 87 263 39 88 264 40 88 265 42 88 266 44 89 267 39 89 268 42 89 269 53 90 270 51 90 271 52 90 272 53 91 273 54 91 274 56 91 275 54 92 276 52 92 277 56 92 278 52 93 279 50 93 280 58 93 281 50 94 282 49 94 283 58 94 284 58 95 285 57 95 286 55 95 287 53 96 288 55 96 289 57 96 290 57 97 291 48 97 292 53 97 293</p>
        </triangles>
      </mesh>
    </geometry>
    <geometry id="Colmesh_arm2-1-mesh" name="Colmesh_arm2-1">
      <mesh>
        <source id="Colmesh_arm2-1-mesh-positions">
          <float_array id="Colmesh_arm2-1-mesh-positions-array" count="48">-0.4073472 0.152 2.4645 -0.4073472 0.152 4.6345 -0.299867 0.1074802 2.4645 -0.299867 0.1074802 4.6345 -0.2553473 0 2.4645 -0.2553473 0 4.6345 -0.299867 -0.1074802 2.4645 -0.299867 -0.1074802 4.6345 -0.4073472 -0.152 2.4645 -0.4073472 -0.152 4.6345 -0.5148275 -0.1074802 2.4645 -0.5148275 -0.1074802 4.6345 -0.5593472 0 2.4645 -0.5593472 0 4.6345 -0.5148275 0.1074802 2.4645 -0.5148275 0.1074802 4.6345</float_array>
          <technique_common>
            <accessor source="#Colmesh_arm2-1-mesh-positions-array" count="16" stride="3">
              <param name="X" type="float"/>
              <param name="Y" type="float"/>
              <param name="Z" type="float"/>
            </accessor>
          </technique_common>
        </source>
        <source id="Colmesh_arm2-1-mesh-normals">
          <float_array id="Colmesh_arm2-1-mesh-normals-array" count="84">0.3826834 0.9238795 0 0.9238796 0.3826833 0 0.9238796 -0.3826833 0 0.3826834 -0.9238795 0 -0.3826833 -0.9238796 0 -0.9238797 -0.3826831 0 0 0 1 -0.9238797 0.3826831 0 -0.3826833 0.9238796 0 0 0 -1 0.3826834 0.9238795 0 0.9238796 0.3826833 0 0.9238796 -0.3826833 0 0.3826834 -0.9238795 0 -0.3826833 -0.9238796 0 -0.9238797 -0.3826831 0 0 0 1 0 0 1 0 0 1 0 0 1 0 0 1 -0.9238797 0.3826831 0 -0.3826833 0.9238796 0 0 0 -1 0 0 -1 0 0 -1 0 0 -1 0 0 -1</float_array>
          <technique_common>
            <accessor source="#Colmesh_arm2-1-mesh-normals-array" count="28" stride="3">
              <param name="X" type="float"/>
              <param name="Y" type="float"/>
              <param name="Z" type="float"/>
            </accessor>
          </technique_common>
        </source>
        <source id="Colmesh_arm2-1-mesh-map-0">
          <float_array id="Colmesh_arm2-1-mesh-map-0-array" count="168">1 1 0.875 0.5 1 0.5 0.875 1 0.75 0.5 0.875 0.5 0.75 1 0.625 0.5 0.75 0.5 0.625 1 0.5 0.5 0.625 0.5 0.5 1 0.375 0.5 0.5 0.5 0.375 1 0.25 0.5 0.375 0.5 0.00999999 0.25 0.25 0.00999999 0.49 0.25 0.25 1 0.125 0.5 0.25 0.5 0.125 1 0 0.5 0.125 0.5 0.51 0.25 0.5802944 0.4197056 0.9197056 0.08029437 1 1 0.875 1 0.875 0.5 0.875 1 0.75 1 0.75 0.5 0.75 1 0.625 1 0.625 0.5 0.625 1 0.5 1 0.5 0.5 0.5 1 0.375 1 0.375 0.5 0.375 1 0.25 1 0.25 0.5 0.49 0.25 0.4197056 0.4197056 0.25 0.49 0.25 0.49 0.08029437 0.4197056 0.00999999 0.25 0.00999999 0.25 0.08029437 0.08029437 0.25 0.00999999 0.25 0.00999999 0.4197056 0.08029437 0.49 0.25 0.49 0.25 0.25 0.49 0.00999999 0.25 0.25 1 0.125 1 0.125 0.5 0.125 1 0 1 0 0.5 0.5802944 0.4197056 0.75 0.49 0.9197056 0.4197056 0.9197056 0.4197056 0.99 0.25 0.5802944 0.4197056 0.99 0.25 0.9197056 0.08029437 0.5802944 0.4197056 0.9197056 0.08029437 0.75 0.00999999 0.5802944 0.08029437 0.5802944 0.08029437 0.51 0.25 0.9197056 0.08029437</float_array>
          <technique_common>
            <accessor source="#Colmesh_arm2-1-mesh-map-0-array" count="84" stride="2">
              <param name="S" type="float"/>
              <param name="T" type="float"/>
            </accessor>
          </technique_common>
        </source>
        <vertices id="Colmesh_arm2-1-mesh-vertices">
          <input semantic="POSITION" source="#Colmesh_arm2-1-mesh-positions"/>
        </vertices>
        <triangles material="Colmesh_Material-material" count="28">
          <input semantic="VERTEX" source="#Colmesh_arm2-1-mesh-vertices" offset="0"/>
          <input semantic="NORMAL" source="#Colmesh_arm2-1-mesh-normals" offset="1"/>
          <input semantic="TEXCOORD" source="#Colmesh_arm2-1-mesh-map-0" offset="2" set="0"/>
          <p>1 0 0 2 0 1 0 0 2 3 1 3 4 1 4 2 1 5 5 2 6 6 2 7 4 2 8 7 3 9 8 3 10 6 3 11 9 4 12 10 4 13 8 4 14 11 5 15 12 5 16 10 5 17 13 6 18 9 6 19 5 6 20 13 7 21 14 7 22 12 7 23 15 8 24 0 8 25 14 8 26 12 9 27 14 9 28 6 9 29 1 10 30 3 10 31 2 10 32 3 11 33 5 11 34 4 11 35 5 12 36 7 12 37 6 12 38 7 13 39 9 13 40 8 13 41 9 14 42 11 14 43 10 14 44 11 15 45 13 15 46 12 15 47 5 16 48 3 16 49 1 16 50 1 17 51 15 17 52 13 17 53 13 18 54 11 18 55 9 18 56 9 19 57 7 19 58 5 19 59 5 20 60 1 20 61 13 20 62 13 21 63 15 21 64 14 21 65 15 22 66 1 22 67 0 22 68 14 23 69 0 23 70 2 23 71 2 24 72 4 24 73 14 24 74 4 25 75 6 25 76 14 25 77 6 26 78 8 26 79 10 26 80 10 27 81 12 27 82 6 27 83</p>
        </triangles>
      </mesh>
    </geometry>
    <geometry id="Colmesh_arm1-1-mesh" name="Colmesh_arm1-1">
      <mesh>
        <source id="Colmesh_arm1-1-mesh-positions">
          <float_array id="Colmesh_arm1-1-mesh-positions-array" count="48">0.4406527 0.152 2.4645 0.4406527 0.152 4.6345 0.548133 0.1074802 2.4645 0.548133 0.1074802 4.6345 0.5926527 0 2.4645 0.5926527 0 4.6345 0.548133 -0.1074802 2.4645 0.548133 -0.1074802 4.6345 0.4406527 -0.152 2.4645 0.4406527 -0.152 4.6345 0.3331725 -0.1074802 2.4645 0.3331725 -0.1074802 4.6345 0.2886528 0 2.4645 0.2886528 0 4.6345 0.3331725 0.1074802 2.4645 0.3331725 0.1074802 4.6345</float_array>
          <technique_common>
            <accessor source="#Colmesh_arm1-1-mesh-positions-array" count="16" stride="3">
              <param name="X" type="float"/>
              <param name="Y" type="float"/>
              <param name="Z" type="float"/>
            </accessor>
          </technique_common>
        </source>
        <source id="Colmesh_arm1-1-mesh-normals">
          <float_array id="Colmesh_arm1-1-mesh-normals-array" count="84">0.3826833 0.9238796 0 0.9238797 0.3826831 0 0.9238797 -0.3826831 0 0.3826833 -0.9238796 0 -0.3826834 -0.9238795 0 -0.9238796 -0.3826833 0 0 0 1 -0.9238796 0.3826833 0 -0.3826834 0.9238795 0 0 0 -1 0.3826833 0.9238796 0 0.9238797 0.3826831 0 0.9238797 -0.3826831 0 0.3826833 -0.9238796 0 -0.3826834 -0.9238795 0 -0.9238796 -0.3826833 0 0 0 1 0 0 1 0 0 1 0 0 1 0 0 1 -0.9238796 0.3826833 0 -0.3826834 0.9238795 0 0 0 -1 0 0 -1 0 0 -1 0 0 -1 0 0 -1</float_array>
          <technique_common>
            <accessor source="#Colmesh_arm1-1-mesh-normals-array" count="28" stride="3">
              <param name="X" type="float"/>
              <param name="Y" type="float"/>
              <param name="Z" type="float"/>
            </accessor>
          </technique_common>
        </source>
        <source id="Colmesh_arm1-1-mesh-map-0">
          <float_array id="Colmesh_arm1-1-mesh-map-0-array" count="168">1 1 0.875 0.5 1 0.5 0.875 1 0.75 0.5 0.875 0.5 0.75 1 0.625 0.5 0.75 0.5 0.625 1 0.5 0.5 0.625 0.5 0.5 1 0.375 0.5 0.5 0.5 0.375 1 0.25 0.5 0.375 0.5 0.00999999 0.25 0.25 0.00999999 0.49 0.25 0.25 1 0.125 0.5 0.25 0.5 0.125 1 0 0.5 0.125 0.5 0.51 0.25 0.5802944 0.4197056 0.9197056 0.08029437 1 1 0.875 1 0.875 0.5 0.875 1 0.75 1 0.75 0.5 0.75 1 0.625 1 0.625 0.5 0.625 1 0.5 1 0.5 0.5 0.5 1 0.375 1 0.375 0.5 0.375 1 0.25 1 0.25 0.5 0.49 0.25 0.4197056 0.4197056 0.25 0.49 0.25 0.49 0.08029437 0.4197056 0.00999999 0.25 0.00999999 0.25 0.08029437 0.08029437 0.25 0.00999999 0.25 0.00999999 0.4197056 0.08029437 0.49 0.25 0.49 0.25 0.25 0.49 0.00999999 0.25 0.25 1 0.125 1 0.125 0.5 0.125 1 0 1 0 0.5 0.5802944 0.4197056 0.75 0.49 0.9197056 0.4197056 0.9197056 0.4197056 0.99 0.25 0.5802944 0.4197056 0.99 0.25 0.9197056 0.08029437 0.5802944 0.4197056 0.9197056 0.08029437 0.75 0.00999999 0.5802944 0.08029437 0.5802944 0.08029437 0.51 0.25 0.9197056 0.08029437</float_array>
          <technique_common>
            <accessor source="#Colmesh_arm1-1-mesh-map-0-array" count="84" stride="2">
              <param name="S" type="float"/>
              <param name="T" type="float"/>
            </accessor>
          </technique_common>
        </source>
        <vertices id="Colmesh_arm1-1-mesh-vertices">
          <input semantic="POSITION" source="#Colmesh_arm1-1-mesh-positions"/>
        </vertices>
        <triangles material="Colmesh_Material-material" count="28">
          <input semantic="VERTEX" source="#Colmesh_arm1-1-mesh-vertices" offset="0"/>
          <input semantic="NORMAL" source="#Colmesh_arm1-1-mesh-normals" offset="1"/>
          <input semantic="TEXCOORD" source="#Colmesh_arm1-1-mesh-map-0" offset="2" set="0"/>
          <p>1 0 0 2 0 1 0 0 2 3 1 3 4 1 4 2 1 5 5 2 6 6 2 7 4 2 8 7 3 9 8 3 10 6 3 11 9 4 12 10 4 13 8 4 14 11 5 15 12 5 16 10 5 17 13 6 18 9 6 19 5 6 20 13 7 21 14 7 22 12 7 23 15 8 24 0 8 25 14 8 26 12 9 27 14 9 28 6 9 29 1 10 30 3 10 31 2 10 32 3 11 33 5 11 34 4 11 35 5 12 36 7 12 37 6 12 38 7 13 39 9 13 40 8 13 41 9 14 42 11 14 43 10 14 44 11 15 45 13 15 46 12 15 47 5 16 48 3 16 49 1 16 50 1 17 51 15 17 52 13 17 53 13 18 54 11 18 55 9 18 56 9 19 57 7 19 58 5 19 59 5 20 60 1 20 61 13 20 62 13 21 63 15 21 64 14 21 65 15 22 66 1 22 67 0 22 68 14 23 69 0 23 70 2 23 71 2 24 72 4 24 73 14 24 74 4 25 75 6 25 76 14 25 77 6 26 78 8 26 79 10 26 80 10 27 81 12 27 82 6 27 83</p>
        </triangles>
      </mesh>
    </geometry>
    <geometry id="Colmesh_arm0-1-mesh" name="Colmesh_arm0-1">
      <mesh>
        <source id="Colmesh_arm0-1-mesh-positions">
          <float_array id="Colmesh_arm0-1-mesh-positions-array" count="48">-0.4073472 0.152 2.4645 -0.4073472 0.152 4.6345 -0.299867 0.1074802 2.4645 -0.299867 0.1074802 4.6345 -0.2553473 0 2.4645 -0.2553473 0 4.6345 -0.299867 -0.1074802 2.4645 -0.299867 -0.1074802 4.6345 -0.4073472 -0.152 2.4645 -0.4073472 -0.152 4.6345 -0.5148275 -0.1074802 2.4645 -0.5148275 -0.1074802 4.6345 -0.5593472 0 2.4645 -0.5593472 0 4.6345 -0.5148275 0.1074802 2.4645 -0.5148275 0.1074802 4.6345</float_array>
          <technique_common>
            <accessor source="#Colmesh_arm0-1-mesh-positions-array" count="16" stride="3">
              <param name="X" type="float"/>
              <param name="Y" type="float"/>
              <param name="Z" type="float"/>
            </accessor>
          </technique_common>
        </source>
        <source id="Colmesh_arm0-1-mesh-normals">
          <float_array id="Colmesh_arm0-1-mesh-normals-array" count="84">0.3826834 0.9238795 0 0.9238796 0.3826833 0 0.9238796 -0.3826833 0 0.3826834 -0.9238795 0 -0.3826833 -0.9238796 0 -0.9238797 -0.3826831 0 0 0 1 -0.9238797 0.3826831 0 -0.3826833 0.9238796 0 0 0 -1 0.3826834 0.9238795 0 0.9238796 0.3826833 0 0.9238796 -0.3826833 0 0.3826834 -0.9238795 0 -0.3826833 -0.9238796 0 -0.9238797 -0.3826831 0 0 0 1 0 0 1 0 0 1 0 0 1 0 0 1 -0.9238797 0.3826831 0 -0.3826833 0.9238796 0 0 0 -1 0 0 -1 0 0 -1 0 0 -1 0 0 -1</float_array>
          <technique_common>
            <accessor source="#Colmesh_arm0-1-mesh-normals-array" count="28" stride="3">
              <param name="X" type="float"/>
              <param name="Y" type="float"/>
              <param name="Z" type="float"/>
            </accessor>
          </technique_common>
        </source>
        <source id="Colmesh_arm0-1-mesh-map-0">
          <float_array id="Colmesh_arm0-1-mesh-map-0-array" count="168">1 1 0.875 0.5 1 0.5 0.875 1 0.75 0.5 0.875 0.5 0.75 1 0.625 0.5 0.75 0.5 0.625 1 0.5 0.5 0.625 0.5 0.5 1 0.375 0.5 0.5 0.5 0.375 1 0.25 0.5 0.375 0.5 0.00999999 0.25 0.25 0.00999999 0.49 0.25 0.25 1 0.125 0.5 0.25 0.5 0.125 1 0 0.5 0.125 0.5 0.51 0.25 0.5802944 0.4197056 0.9197056 0.08029437 1 1 0.875 1 0.875 0.5 0.875 1 0.75 1 0.75 0.5 0.75 1 0.625 1 0.625 0.5 0.625 1 0.5 1 0.5 0.5 0.5 1 0.375 1 0.375 0.5 0.375 1 0.25 1 0.25 0.5 0.49 0.25 0.4197056 0.4197056 0.25 0.49 0.25 0.49 0.08029437 0.4197056 0.00999999 0.25 0.00999999 0.25 0.08029437 0.08029437 0.25 0.00999999 0.25 0.00999999 0.4197056 0.08029437 0.49 0.25 0.49 0.25 0.25 0.49 0.00999999 0.25 0.25 1 0.125 1 0.125 0.5 0.125 1 0 1 0 0.5 0.5802944 0.4197056 0.75 0.49 0.9197056 0.4197056 0.9197056 0.4197056 0.99 0.25 0.5802944 0.4197056 0.99 0.25 0.9197056 0.08029437 0.5802944 0.4197056 0.9197056 0.08029437 0.75 0.00999999 0.5802944 0.08029437 0.5802944 0.08029437 0.51 0.25 0.9197056 0.08029437</float_array>
          <technique_common>
            <accessor source="#Colmesh_arm0-1-mesh-map-0-array" count="84" stride="2">
              <param name="S" type="float"/>
              <param name="T" type="float"/>
            </accessor>
          </technique_common>
        </source>
        <vertices id="Colmesh_arm0-1-mesh-vertices">
          <input semantic="POSITION" source="#Colmesh_arm0-1-mesh-positions"/>
        </vertices>
        <triangles material="Colmesh_Material-material" count="28">
          <input semantic="VERTEX" source="#Colmesh_arm0-1-mesh-vertices" offset="0"/>
          <input semantic="NORMAL" source="#Colmesh_arm0-1-mesh-normals" offset="1"/>
          <input semantic="TEXCOORD" source="#Colmesh_arm0-1-mesh-map-0" offset="2" set="0"/>
          <p>1 0 0 2 0 1 0 0 2 3 1 3 4 1 4 2 1 5 5 2 6 6 2 7 4 2 8 7 3 9 8 3 10 6 3 11 9 4 12 10 4 13 8 4 14 11 5 15 12 5 16 10 5 17 13 6 18 9 6 19 5 6 20 13 7 21 14 7 22 12 7 23 15 8 24 0 8 25 14 8 26 12 9 27 14 9 28 6 9 29 1 10 30 3 10 31 2 10 32 3 11 33 5 11 34 4 11 35 5 12 36 7 12 37 6 12 38 7 13 39 9 13 40 8 13 41 9 14 42 11 14 43 10 14 44 11 15 45 13 15 46 12 15 47 5 16 48 3 16 49 1 16 50 1 17 51 15 17 52 13 17 53 13 18 54 11 18 55 9 18 56 9 19 57 7 19 58 5 19 59 5 20 60 1 20 61 13 20 62 13 21 63 15 21 64 14 21 65 15 22 66 1 22 67 0 22 68 14 23 69 0 23 70 2 23 71 2 24 72 4 24 73 14 24 74 4 25 75 6 25 76 14 25 77 6 26 78 8 26 79 10 26 80 10 27 81 12 27 82 6 27 83</p>
        </triangles>
      </mesh>
    </geometry>
    <geometry id="Colmesh_trunk-1-mesh" name="Colmesh_trunk-1">
      <mesh>
        <source id="Colmesh_trunk-1-mesh-positions">
          <float_array id="Colmesh_trunk-1-mesh-positions-array" count="60">0.01665276 0.3496 0 0.01665276 0.3496 6.2 0.2221425 0.2828323 0 0.2221425 0.2828323 6.2 0.3491421 0.1080323 0 0.3491421 0.1080323 6.2 0.3491421 -0.1080323 0 0.3491421 -0.1080323 6.2 0.2221425 -0.2828323 0 0.2221425 -0.2828323 6.2 0.01665276 -0.3496 0 0.01665276 -0.3496 6.2 -0.1888369 -0.2828323 0 -0.1888369 -0.2828323 6.2 -0.3158366 -0.1080323 0 -0.3158366 -0.1080323 6.2 -0.3158366 0.1080323 0 -0.3158366 0.1080323 6.2 -0.1888369 0.2828323 0 -0.1888369 0.2828323 6.2</float_array>
          <technique_common>
            <accessor source="#Colmesh_trunk-1-mesh-positions-array" count="20" stride="3">
              <param name="X" type="float"/>
              <param name="Y" type="float"/>
              <param name="Z" type="float"/>
            </accessor>
          </technique_common>
        </source>
        <source id="Colmesh_trunk-1-mesh-normals">
          <float_array id="Colmesh_trunk-1-mesh-normals-array" count="108">0.309017 0.9510565 0 0.809017 0.5877853 0 1 0 0 0.809017 -0.5877853 0 0.309017 -0.9510565 0 -0.309017 -0.9510565 0 -0.809017 -0.5877853 0 -1 0 0 0 0 1 -0.809017 0.5877853 0 -0.309017 0.9510565 0 0 0 -1 0.309017 0.9510565 0 0.809017 0.5877853 0 1 0 0 0.809017 -0.5877853 0 0.309017 -0.9510565 0 -0.309017 -0.9510565 0 -0.809017 -0.5877853 0 -1 0 0 0 0 1 0 0 1 0 0 1 0 0 1 0 0 1 0 0 1 0 0 1 -0.809017 0.5877853 0 -0.309017 0.9510565 0 0 0 -1 0 0 -1 0 0 -1 0 0 -1 0 0 -1 0 0 -1 0 0 -1</float_array>
          <technique_common>
            <accessor source="#Colmesh_trunk-1-mesh-normals-array" count="36" stride="3">
              <param name="X" type="float"/>
              <param name="Y" type="float"/>
              <param name="Z" type="float"/>
            </accessor>
          </technique_common>
        </source>
        <source id="Colmesh_trunk-1-mesh-map-0">
          <float_array id="Colmesh_trunk-1-mesh-map-0-array" count="216">1 1 0.9 0.5 1 0.5 0.9 1 0.8 0.5 0.9 0.5 0.8 1 0.6999999 0.5 0.8 0.5 0.6999999 1 0.5999999 0.5 0.6999999 0.5 0.5999999 1 0.4999999 0.5 0.5999999 0.5 0.4999999 1 0.3999999 0.5 0.4999999 0.5 0.3999999 1 0.2999999 0.5 0.3999999 0.5 0.2999999 1 0.1999999 0.5 0.2999999 0.5 0.02174639 0.3241641 0.3910685 0.0558359 0.4782536 0.3241641 0.1999999 1 0.0999999 0.5 0.1999999 0.5 0.0999999 1 0 0.5 0.0999999 0.5 0.9782536 0.1758359 0.5217465 0.1758359 0.6089316 0.444164 1 1 0.9 1 0.9 0.5 0.9 1 0.8 1 0.8 0.5 0.8 1 0.6999999 1 0.6999999 0.5 0.6999999 1 0.5999999 1 0.5999999 0.5 0.5999999 1 0.4999999 1 0.4999999 0.5 0.4999999 1 0.3999999 1 0.3999999 0.5 0.3999999 1 0.2999999 1 0.2999999 0.5 0.2999999 1 0.1999999 1 0.1999999 0.5 0.4782536 0.3241641 0.3910685 0.444164 0.25 0.49 0.25 0.49 0.1089315 0.444164 0.4782536 0.3241641 0.1089315 0.444164 0.02174639 0.3241641 0.4782536 0.3241641 0.02174639 0.3241641 0.02174639 0.1758359 0.1089315 0.0558359 0.1089315 0.0558359 0.25 0.00999999 0.3910685 0.0558359 0.3910685 0.0558359 0.4782536 0.1758359 0.4782536 0.3241641 0.02174639 0.3241641 0.1089315 0.0558359 0.3910685 0.0558359 0.1999999 1 0.0999999 1 0.0999999 0.5 0.0999999 1 0 1 0 0.5 0.6089316 0.444164 0.75 0.49 0.8910685 0.444164 0.8910685 0.444164 0.9782536 0.3241641 0.9782536 0.1758359 0.9782536 0.1758359 0.8910685 0.0558359 0.75 0.00999999 0.75 0.00999999 0.6089316 0.0558359 0.9782536 0.1758359 0.6089316 0.0558359 0.5217465 0.1758359 0.9782536 0.1758359 0.5217465 0.1758359 0.5217465 0.3241641 0.6089316 0.444164 0.6089316 0.444164 0.8910685 0.444164 0.9782536 0.1758359</float_array>
          <technique_common>
            <accessor source="#Colmesh_trunk-1-mesh-map-0-array" count="108" stride="2">
              <param name="S" type="float"/>
              <param name="T" type="float"/>
            </accessor>
          </technique_common>
        </source>
        <vertices id="Colmesh_trunk-1-mesh-vertices">
          <input semantic="POSITION" source="#Colmesh_trunk-1-mesh-positions"/>
        </vertices>
        <triangles material="Colmesh_Material-material" count="36">
          <input semantic="VERTEX" source="#Colmesh_trunk-1-mesh-vertices" offset="0"/>
          <input semantic="NORMAL" source="#Colmesh_trunk-1-mesh-normals" offset="1"/>
          <input semantic="TEXCOORD" source="#Colmesh_trunk-1-mesh-map-0" offset="2" set="0"/>
          <p>1 0 0 2 0 1 0 0 2 3 1 3 4 1 4 2 1 5 5 2 6 6 2 7 4 2 8 7 3 9 8 3 10 6 3 11 9 4 12 10 4 13 8 4 14 11 5 15 12 5 16 10 5 17 13 6 18 14 6 19 12 6 20 15 7 21 16 7 22 14 7 23 17 8 24 9 8 25 5 8 26 17 9 27 18 9 28 16 9 29 19 10 30 0 10 31 18 10 32 6 11 33 14 11 34 18 11 35 1 12 36 3 12 37 2 12 38 3 13 39 5 13 40 4 13 41 5 14 42 7 14 43 6 14 44 7 15 45 9 15 46 8 15 47 9 16 48 11 16 49 10 16 50 11 17 51 13 17 52 12 17 53 13 18 54 15 18 55 14 18 56 15 19 57 17 19 58 16 19 59 5 20 60 3 20 61 1 20 62 1 21 63 19 21 64 5 21 65 19 22 66 17 22 67 5 22 68 17 23 69 15 23 70 13 23 71 13 24 72 11 24 73 9 24 74 9 25 75 7 25 76 5 25 77 17 26 78 13 26 79 9 26 80 17 27 81 19 27 82 18 27 83 19 28 84 1 28 85 0 28 86 18 29 87 0 29 88 2 29 89 2 30 90 4 30 91 6 30 92 6 31 93 8 31 94 10 31 95 10 32 96 12 32 97 6 32 98 12 33 99 14 33 100 6 33 101 14 34 102 16 34 103 18 34 104 18 35 105 2 35 106 6 35 107</p>
        </triangles>
      </mesh>
    </geometry>
    <geometry id="saguaro_multi_a800-mesh" name="saguaro_multi_a800">
      <mesh>
        <source id="saguaro_multi_a800-mesh-positions">
          <float_array id="saguaro_multi_a800-mesh-positions-array" count="324">0.01665276 0.304 0 0.01665276 0.304 4.34 0.1686527 0.2632717 0 0.1686527 0.2632717 4.34 0.2799245 0.152 0 0.2799245 0.152 4.34 0.3206527 0 0 0.3206527 0 4.34 0.2799245 -0.152 0 0.2799245 -0.152 4.34 0.1686527 -0.2632717 0 0.1686527 -0.2632717 4.34 0.01665276 -0.304 0 0.01665276 -0.304 4.34 -0.1353472 -0.2632717 0 -0.1353472 -0.2632717 4.34 -0.2466189 -0.152 0 -0.2466189 -0.152 4.34 -0.2873472 0 0 -0.2873472 0 4.34 -0.2466189 0.152 0 -0.2466189 0.152 4.34 -0.1353472 0.2632717 0 -0.1353472 0.2632717 4.34 0.01665276 0.2584 3.1 0.01665276 0.2584 6.2 0.1458528 0.2237809 3.1 0.1458528 0.2237809 6.2 0.2404337 0.1292 3.1 0.2404337 0.1292 6.2 0.2750527 0 3.1 0.2750527 0 6.2 0.2404337 -0.1292 3.1 0.2404337 -0.1292 6.2 0.1458528 -0.2237809 3.1 0.1458528 -0.2237809 6.2 0.01665276 -0.2584 3.1 0.01665276 -0.2584 6.2 -0.1125472 -0.2237809 3.1 -0.1125472 -0.2237809 6.2 -0.2071282 -0.1292 3.1 -0.2071282 -0.1292 6.2 -0.2417472 0 3.1 -0.2417472 0 6.2 -0.2071282 0.1292 3.1 -0.2071282 0.1292 6.2 -0.1125472 0.2237809 3.1 -0.1125472 0.2237809 6.2 -0.6584786 0.142407 2.271887 -0.1562158 0.142407 4.634848 -0.5798267 0.1162805 2.255169 -0.07756394 0.1162805 4.618129 -0.5312172 0.04788053 2.244837 -0.02895438 0.04788053 4.607797 -0.5312172 -0.03666651 2.244837 -0.02895438 -0.03666651 4.607797 -0.5798267 -0.1050665 2.255169 -0.07756394 -0.1050665 4.618129 -0.6584786 -0.131193 2.271887 -0.1562158 -0.131193 4.634848 -0.7371305 -0.1050665 2.288605 -0.2348677 -0.1050665 4.651566 -0.78574 -0.03666651 2.298937 -0.2834773 -0.03666651 4.661898 -0.78574 0.04788053 2.298937 -0.2834773 0.04788053 4.661898 -0.7371305 0.1162805 2.288605 -0.2348677 0.1162805 4.651566 0.6584786 0.124839 3.080441 0.2228269 0.124839 5.130021 0.7371305 0.0987125 3.097159 0.3014788 0.0987125 5.146739 0.78574 0.03031247 3.107491 0.3500884 0.03031247 5.157071 0.78574 -0.0542345 3.107491 0.3500884 -0.0542345 5.157071 0.7371305 -0.1226345 3.097159 0.3014788 -0.1226345 5.146739 0.6584786 -0.148761 3.080441 0.2228269 -0.148761 5.130021 0.5798267 -0.1226345 3.063723 0.144175 -0.1226345 5.113303 0.5312172 -0.0542345 3.05339 0.09556543 -0.0542345 5.102971 0.5312172 0.03031247 3.05339 0.09556543 0.03031247 5.102971 0.5798267 0.0987125 3.063723 0.144175 0.0987125 5.113303 -0.6223483 0.1250097 2.729338 -0.1923461 0.1250097 4.752339 -0.5436964 0.09888321 2.71262 -0.1136942 0.09888321 4.735621 -0.4950869 0.03048318 2.702288 -0.06508463 0.03048318 4.725289 -0.4950869 -0.05406379 2.702288 -0.06508463 -0.05406379 4.725289 -0.5436964 -0.1224638 2.71262 -0.1136942 -0.1224638 4.735621 -0.6223483 -0.1485903 2.729338 -0.1923461 -0.1485903 4.752339 -0.7010002 -0.1224638 2.746056 -0.270998 -0.1224638 4.769057 -0.7496098 -0.05406379 2.756388 -0.3196076 -0.05406379 4.779389 -0.7496098 0.03048318 2.756388 -0.3196076 0.03048318 4.779389 -0.7010002 0.09888321 2.746056 -0.270998 0.09888321 4.769057</float_array>
          <technique_common>
            <accessor source="#saguaro_multi_a800-mesh-positions-array" count="108" stride="3">
              <param name="X" type="float"/>
              <param name="Y" type="float"/>
              <param name="Z" type="float"/>
            </accessor>
          </technique_common>
        </source>
        <source id="saguaro_multi_a800-mesh-normals">
          <float_array id="saguaro_multi_a800-mesh-normals-array" count="588">0.258819 0.9659259 0 0.7071068 0.7071068 0 0.9659259 0.258819 0 0.9659259 -0.258819 0 0.7071068 -0.7071068 0 0.258819 -0.9659259 0 -0.258819 -0.9659259 0 -0.7071068 -0.7071068 0 -0.9659259 -0.258819 0 -0.9659259 0.258819 0 0 0 1 -0.7071068 0.7071068 0 -0.258819 0.9659259 0 0 0 -1 0.2588191 0.9659259 0 0.7071068 0.7071068 0 0.9659259 0.2588191 0 0.9659259 -0.2588191 0 0.7071068 -0.7071068 0 0.2588191 -0.9659259 0 -0.2588191 -0.9659259 0 -0.7071068 -0.7071068 0 -0.9659259 -0.2588191 0 -0.9659259 0.2588191 0 0 0 1 -0.7071068 0.7071068 0 -0.2588191 0.9659259 0 0 0 -1 0.3022639 0.9510566 -0.06424814 0.7913383 0.587785 -0.1682041 0.9781476 0 -0.2079117 0.7913379 -0.5877854 -0.1682041 0.3022641 -0.9510565 -0.0642482 -0.3022641 -0.9510565 0.0642482 -0.7913385 -0.5877847 0.1682041 -0.9781476 0 0.2079117 0.2079117 -1.06475e-6 0.9781476 -0.7913386 0.5877845 0.1682042 -0.3022639 0.9510566 0.06424814 -0.2079117 0 -0.9781476 0.3022642 0.9510565 0.06424826 0.7913385 0.5877847 0.1682041 0.9781476 0 0.2079117 0.7913385 -0.5877845 0.1682041 0.3022643 -0.9510565 0.06424826 -0.3022642 -0.9510565 -0.0642482 -0.7913379 -0.5877854 -0.1682041 -0.9781476 0 -0.2079117 -0.2079111 1.77848e-6 0.9781478 -0.7913377 0.5877856 -0.168204 -0.302264 0.9510566 -0.0642482 0.2079117 4.0952e-7 -0.9781476 0.3022642 0.9510565 -0.0642482 0.7913382 0.5877849 -0.1682041 0.9781476 0 -0.2079117 0.7913382 -0.587785 -0.1682041 0.3022643 -0.9510565 -0.0642482 -0.3022643 -0.9510565 0.0642482 -0.7913376 -0.587786 0.168204 -0.9781476 0 0.2079117 0.2079099 0 0.9781479 -0.7913376 0.5877858 0.168204 -0.3022642 0.9510565 0.0642482 -0.2079116 -3.45166e-7 -0.9781476 0.258819 0.9659259 0 0.7071068 0.7071068 0 0.9659259 0.258819 0 0.9659259 -0.258819 0 0.7071068 -0.7071068 0 0.258819 -0.9659259 0 -0.258819 -0.9659259 0 -0.7071068 -0.7071068 0 -0.9659259 -0.258819 0 -0.9659259 0.258819 0 0 0 1 0 0 1 0 0 1 0 0 1 0 0 1 0 0 1 0 0 1 0 0 1 0 0 1 -0.7071068 0.7071068 0 -0.258819 0.9659259 0 0 0 -1 0 0 -1 0 0 -1 0 0 -1 0 0 -1 0 0 -1 0 0 -1 0 0 -1 0 0 -1 0.2588191 0.9659259 0 0.7071068 0.7071068 0 0.9659259 0.2588191 0 0.9659259 -0.2588191 0 0.7071068 -0.7071068 0 0.2588191 -0.9659259 0 -0.2588191 -0.9659259 0 -0.7071068 -0.7071068 0 -0.9659259 -0.2588191 0 -0.9659259 0.2588191 0 0 0 1 0 0 1 0 0 1 0 0 1 0 0 1 0 0 1 0 0 1 0 0 1 0 0 1 -0.7071068 0.7071068 0 -0.2588191 0.9659259 0 0 0 -1 0 0 -1 0 0 -1 0 0 -1 0 0 -1 0 0 -1 0 0 -1 0 0 -1 0 0 -1 0.3022638 0.9510567 -0.06424814 0.7913384 0.5877848 -0.1682041 0.9781476 0 -0.2079117 0.7913383 -0.5877849 -0.1682041 0.3022639 -0.9510565 -0.06424814 -0.3022643 -0.9510565 0.06424826 -0.7913381 -0.5877851 0.1682041 -0.9781476 0 0.2079117 0.207919 7.84115e-6 0.978146 0.2079116 -2.43824e-6 0.9781476 0.2079083 0 0.9781484 0.2079111 9.31326e-7 0.9781477 0.2079153 3.97681e-6 0.9781468 0.2079085 0 0.9781484 0.2079117 -2.49901e-6 0.9781476 -0.7913383 0.587785 0.1682041 -0.3022641 0.9510565 0.0642482 -0.2079133 -1.22967e-6 -0.9781473 -0.2079144 -1.98436e-6 -0.978147 -0.2079083 0 -0.9781484 -0.2079153 5.19512e-6 -0.9781468 -0.2079153 -4.9596e-6 -0.9781468 -0.2079117 0 -0.9781476 -0.2079111 1.86265e-6 -0.9781478 0.3022639 0.9510567 0.06424814 0.7913383 0.5877848 0.1682041 0.9781476 0 0.2079117 0.7913383 -0.5877848 0.1682041 0.3022639 -0.9510567 0.06424814 -0.3022642 -0.9510565 -0.06424826 -0.7913382 -0.587785 -0.1682041 -0.9781476 0 -0.2079117 -0.2079191 -7.84116e-6 0.9781461 -0.2079116 2.43824e-6 0.9781476 -0.2079083 0 0.9781484 -0.2079111 -9.31326e-7 0.9781477 -0.2079153 -3.97681e-6 0.9781468 -0.2079085 0 0.9781484 -0.2079125 1.34416e-6 0.9781474 -0.7913382 0.5877851 -0.1682041 -0.3022642 0.9510565 -0.06424826 0.2079123 4.46088e-6 -0.9781475 0.2079123 2.73048e-6 -0.9781475 0.2079114 0 -0.9781476 0.2079116 -2.20273e-6 -0.9781476 0.2079139 7.34243e-7 -0.9781472 0.2079129 0 -0.9781473 0.2079117 -2.40435e-6 -0.9781476 0.3022642 0.9510565 -0.0642482 0.7913382 0.587785 -0.1682041 0.9781476 0 -0.2079117 0.7913382 -0.5877851 -0.1682041 0.3022642 -0.9510565 -0.0642482 -0.3022642 -0.9510565 0.0642482 -0.7913383 -0.5877848 0.1682041 -0.9781476 0 0.2079117 0.20791 1.17735e-6 0.9781481 0.2079105 -8.88993e-7 0.9781478 0.2079116 -2.32741e-6 0.9781476 0.2079103 0 0.9781479 0.2079108 1.77799e-6 0.9781478 0.2079108 0 0.9781478 0.2079097 -9.4191e-7 0.9781481 -0.7913384 0.5877848 0.1682041 -0.3022642 0.9510565 0.0642482 -0.2079108 0 -0.9781478 -0.2079108 1.73565e-6 -0.9781478 -0.2079114 0 -0.9781476 -0.2079101 -2.25815e-6 -0.9781479 -0.2079111 -8.67827e-7 -0.9781477 -0.2079117 7.71816e-7 -0.9781476 -0.2079127 0 -0.9781474</float_array>
          <technique_common>
            <accessor source="#saguaro_multi_a800-mesh-normals-array" count="196" stride="3">
              <param name="X" type="float"/>
              <param name="Y" type="float"/>
              <param name="Z" type="float"/>
            </accessor>
          </technique_common>
        </source>
        <source id="saguaro_multi_a800-mesh-map-0">
          <float_array id="saguaro_multi_a800-mesh-map-0-array" count="1176">1 0.5 0.75 0.75 0.75 0.5 1 0.5 0.75 0.75 0.75 0.5 1 0.5 0.75 0.75 0.75 0.5 1 0.5 0.75 0.75 0.75 0.5 1 0.5 0.75 0.75 0.75 0.5 1 0.5 0.75 0.75 0.75 0.5 1 0.5 0.75 0.75 0.75 0.5 1 0.5 0.75 0.75 0.75 0.5 1 0.5 0.75 0.75 0.75 0.5 1 0.5 0.75 0.75 0.75 0.5 0.25 0.00999999 0.4578461 0.1299999 0.4578461 0.37 1 0.5 0.75 0.75 0.75 0.5 1 0.5 0.75 0.75 0.75 0.5 0.63 0.04215389 0.51 0.25 0.63 0.4578461 0.75 0.5 0.5 0.75 0.5 0.5 0.75 0.5 0.5 0.75 0.5 0.5 0.75 0.5 0.5 0.75 0.5 0.5 0.75 0.5 0.5 0.75 0.5 0.5 0.75 0.5 0.5 0.75 0.5 0.5 0.75 0.5 0.5 0.75 0.5 0.5 0.75 0.5 0.5 0.75 0.5 0.5 0.75 0.5 0.5 0.75 0.5 0.5 0.75 0.5 0.5 0.75 0.5 0.5 0.75 0.5 0.5 0.75 0.5 0.5 0.04215389 0.37 0.25 0.00999999 0.4578461 0.37 0.75 0.5 0.5 0.75 0.5 0.5 0.75 0.5 0.5 0.75 0.5 0.5 0.99 0.25 0.63 0.04215389 0.63 0.4578461 0.5 0.5 0.75 0.75 0.5 0.75 0.75 0.5 0.5 0.75 0.5 0.5 0.75 0.5 0.5 0.75 0.5 0.5 0.5 0.5 0.75 0.75 0.5 0.75 0.75 0.5 0.5 0.75 0.5 0.5 0.75 0.5 0.5 0.75 0.5 0.5 0.5 0.5 0.75 0.75 0.5 0.75 0.75 0.5 0.5 0.75 0.5 0.5 0.02174639 0.3241641 0.3910685 0.0558359 0.4782536 0.3241641 0.75 0.5 0.5 0.75 0.5 0.5 0.5 0.5 0.75 0.75 0.5 0.75 0.9782536 0.1758359 0.75 0.00999999 0.5217465 0.1758359 0.75 0.5 0.5 0.75 0.5 0.5 0.5 0.5 0.75 0.75 0.5 0.75 0.75 0.5 0.5 0.75 0.5 0.5 0.75 0.5 0.5 0.75 0.5 0.5 0.5 0.5 0.75 0.75 0.5 0.75 0.5 0.5 0.75 0.75 0.5 0.75 0.75 0.5 0.5 0.75 0.5 0.5 0.75 0.5 0.5 0.75 0.5 0.5 0.25 0.49 0.02174639 0.3241641 0.3910685 0.0558359 0.5 0.5 0.75 0.75 0.5 0.75 0.75 0.5 0.5 0.75 0.5 0.5 0.9782536 0.1758359 0.5217465 0.1758359 0.6089316 0.4441641 0.75 0.5 0.5 0.75 0.5 0.5 0.75 0.5 0.5 0.75 0.5 0.5 0.75 0.5 0.5 0.75 0.5 0.5 0.5 0.5 0.75 0.75 0.5 0.75 0.5 0.5 0.75 0.75 0.5 0.75 0.5 0.5 0.75 0.75 0.5 0.75 0.5 0.5 0.75 0.75 0.5 0.75 0.75 0.5 0.5 0.75 0.5 0.5 0.4782536 0.1758359 0.4782536 0.3241641 0.02174639 0.3241641 0.75 0.5 0.5 0.75 0.5 0.5 0.75 0.5 0.5 0.75 0.5 0.5 0.9782536 0.1758359 0.5217465 0.1758359 0.6089316 0.4441641 1 0.5 1 0.75 0.75 0.75 1 0.5 1 0.75 0.75 0.75 1 0.5 1 0.75 0.75 0.75 1 0.5 1 0.75 0.75 0.75 1 0.5 1 0.75 0.75 0.75 1 0.5 1 0.75 0.75 0.75 1 0.5 1 0.75 0.75 0.75 1 0.5 1 0.75 0.75 0.75 1 0.5 1 0.75 0.75 0.75 1 0.5 1 0.75 0.75 0.75 0.4578461 0.37 0.37 0.4578461 0.25 0.49 0.25 0.49 0.1299999 0.4578461 0.04215389 0.37 0.04215389 0.37 0.00999999 0.25 0.04215389 0.1299999 0.04215389 0.1299999 0.1299999 0.04215389 0.25 0.00999999 0.25 0.00999999 0.37 0.04215389 0.4578461 0.1299999 0.4578461 0.1299999 0.49 0.25 0.4578461 0.37 0.4578461 0.37 0.25 0.49 0.25 0.00999999 0.25 0.49 0.04215389 0.37 0.25 0.00999999 0.04215389 0.37 0.04215389 0.1299999 0.25 0.00999999 1 0.5 1 0.75 0.75 0.75 1 0.5 1 0.75 0.75 0.75 0.63 0.4578461 0.75 0.49 0.87 0.4578461 0.87 0.4578461 0.9578461 0.37 0.99 0.25 0.99 0.25 0.9578461 0.1299999 0.87 0.04215389 0.87 0.04215389 0.75 0.00999999 0.63 0.04215389 0.63 0.04215389 0.5421539 0.1299999 0.51 0.25 0.51 0.25 0.5421539 0.37 0.63 0.4578461 0.63 0.4578461 0.87 0.4578461 0.63 0.04215389 0.87 0.4578461 0.99 0.25 0.63 0.04215389 0.99 0.25 0.87 0.04215389 0.63 0.04215389 0.75 0.5 0.75 0.75 0.5 0.75 0.75 0.5 0.75 0.75 0.5 0.75 0.75 0.5 0.75 0.75 0.5 0.75 0.75 0.5 0.75 0.75 0.5 0.75 0.75 0.5 0.75 0.75 0.5 0.75 0.75 0.5 0.75 0.75 0.5 0.75 0.75 0.5 0.75 0.75 0.5 0.75 0.75 0.5 0.75 0.75 0.5 0.75 0.75 0.5 0.75 0.75 0.5 0.75 0.75 0.5 0.75 0.75 0.5 0.75 0.4578461 0.37 0.37 0.4578461 0.25 0.49 0.25 0.49 0.1299999 0.4578461 0.04215389 0.37 0.04215389 0.37 0.00999999 0.25 0.25 0.00999999 0.00999999 0.25 0.04215389 0.1299999 0.25 0.00999999 0.04215389 0.1299999 0.1299999 0.04215389 0.25 0.00999999 0.25 0.00999999 0.37 0.04215389 0.4578461 0.1299999 0.4578461 0.1299999 0.49 0.25 0.25 0.00999999 0.49 0.25 0.4578461 0.37 0.25 0.00999999 0.4578461 0.37 0.25 0.49 0.04215389 0.37 0.75 0.5 0.75 0.75 0.5 0.75 0.75 0.5 0.75 0.75 0.5 0.75 0.63 0.4578461 0.75 0.49 0.99 0.25 0.75 0.49 0.87 0.4578461 0.99 0.25 0.87 0.4578461 0.9578461 0.37 0.99 0.25 0.99 0.25 0.9578461 0.1299999 0.87 0.04215389 0.87 0.04215389 0.75 0.00999999 0.99 0.25 0.75 0.00999999 0.63 0.04215389 0.99 0.25 0.63 0.04215389 0.5421539 0.1299999 0.51 0.25 0.51 0.25 0.5421539 0.37 0.63 0.4578461 0.63 0.04215389 0.51 0.25 0.63 0.4578461 0.5 0.5 0.75 0.5 0.75 0.75 0.75 0.5 0.75 0.75 0.5 0.75 0.75 0.5 0.75 0.75 0.5 0.75 0.5 0.5 0.75 0.5 0.75 0.75 0.75 0.5 0.75 0.75 0.5 0.75 0.75 0.5 0.75 0.75 0.5 0.75 0.5 0.5 0.75 0.5 0.75 0.75 0.75 0.5 0.75 0.75 0.5 0.75 0.4782536 0.3241641 0.3910685 0.4441641 0.25 0.49 0.25 0.49 0.1089315 0.4441641 0.02174639 0.3241641 0.02174639 0.3241641 0.02174639 0.1758359 0.1089315 0.0558359 0.1089315 0.0558359 0.25 0.00999999 0.02174639 0.3241641 0.25 0.00999999 0.3910685 0.0558359 0.02174639 0.3241641 0.3910685 0.0558359 0.4782536 0.1758359 0.4782536 0.3241641 0.4782536 0.3241641 0.25 0.49 0.02174639 0.3241641 0.75 0.5 0.75 0.75 0.5 0.75 0.5 0.5 0.75 0.5 0.75 0.75 0.6089316 0.4441641 0.75 0.49 0.9782536 0.1758359 0.75 0.49 0.8910685 0.4441641 0.9782536 0.1758359 0.8910685 0.4441641 0.9782536 0.3241641 0.9782536 0.1758359 0.9782536 0.1758359 0.8910685 0.0558359 0.75 0.00999999 0.75 0.00999999 0.6089316 0.0558359 0.5217465 0.1758359 0.5217465 0.1758359 0.5217465 0.3241641 0.9782536 0.1758359 0.5217465 0.3241641 0.6089316 0.4441641 0.9782536 0.1758359 0.75 0.5 0.75 0.75 0.5 0.75 0.5 0.5 0.75 0.5 0.75 0.75 0.75 0.5 0.75 0.75 0.5 0.75 0.75 0.5 0.75 0.75 0.5 0.75 0.5 0.5 0.75 0.5 0.75 0.75 0.5 0.5 0.75 0.5 0.75 0.75 0.75 0.5 0.75 0.75 0.5 0.75 0.75 0.5 0.75 0.75 0.5 0.75 0.4782536 0.3241641 0.3910685 0.4441641 0.25 0.49 0.25 0.49 0.1089315 0.4441641 0.02174639 0.3241641 0.02174639 0.3241641 0.02174639 0.1758359 0.1089315 0.0558359 0.1089315 0.0558359 0.25 0.00999999 0.02174639 0.3241641 0.25 0.00999999 0.3910685 0.0558359 0.02174639 0.3241641 0.3910685 0.0558359 0.4782536 0.1758359 0.4782536 0.3241641 0.4782536 0.3241641 0.25 0.49 0.3910685 0.0558359 0.5 0.5 0.75 0.5 0.75 0.75 0.75 0.5 0.75 0.75 0.5 0.75 0.6089316 0.4441641 0.75 0.49 0.8910685 0.4441641 0.8910685 0.4441641 0.9782536 0.3241641 0.6089316 0.4441641 0.9782536 0.3241641 0.9782536 0.1758359 0.6089316 0.4441641 0.9782536 0.1758359 0.8910685 0.0558359 0.75 0.00999999 0.75 0.00999999 0.6089316 0.0558359 0.5217465 0.1758359 0.5217465 0.1758359 0.5217465 0.3241641 0.6089316 0.4441641 0.9782536 0.1758359 0.75 0.00999999 0.5217465 0.1758359 0.75 0.5 0.75 0.75 0.5 0.75 0.75 0.5 0.75 0.75 0.5 0.75 0.75 0.5 0.75 0.75 0.5 0.75 0.5 0.5 0.75 0.5 0.75 0.75 0.5 0.5 0.75 0.5 0.75 0.75 0.5 0.5 0.75 0.5 0.75 0.75 0.5 0.5 0.75 0.5 0.75 0.75 0.75 0.5 0.75 0.75 0.5 0.75 0.4782536 0.3241641 0.3910685 0.4441641 0.02174639 0.3241641 0.3910685 0.4441641 0.25 0.49 0.02174639 0.3241641 0.25 0.49 0.1089315 0.4441641 0.02174639 0.3241641 0.02174639 0.3241641 0.02174639 0.1758359 0.3910685 0.0558359 0.02174639 0.1758359 0.1089315 0.0558359 0.3910685 0.0558359 0.1089315 0.0558359 0.25 0.00999999 0.3910685 0.0558359 0.3910685 0.0558359 0.4782536 0.1758359 0.02174639 0.3241641 0.75 0.5 0.75 0.75 0.5 0.75 0.75 0.5 0.75 0.75 0.5 0.75 0.6089316 0.4441641 0.75 0.49 0.8910685 0.4441641 0.8910685 0.4441641 0.9782536 0.3241641 0.6089316 0.4441641 0.9782536 0.3241641 0.9782536 0.1758359 0.6089316 0.4441641 0.9782536 0.1758359 0.8910685 0.0558359 0.75 0.00999999 0.75 0.00999999 0.6089316 0.0558359 0.9782536 0.1758359 0.6089316 0.0558359 0.5217465 0.1758359 0.9782536 0.1758359 0.5217465 0.1758359 0.5217465 0.3241641 0.6089316 0.4441641</float_array>
          <technique_common>
            <accessor source="#saguaro_multi_a800-mesh-map-0-array" count="588" stride="2">
              <param name="S" type="float"/>
              <param name="T" type="float"/>
            </accessor>
          </technique_common>
        </source>
        <vertices id="saguaro_multi_a800-mesh-vertices">
          <input semantic="POSITION" source="#saguaro_multi_a800-mesh-positions"/>
        </vertices>
        <triangles material="ParkerVegBark-material" count="196">
          <input semantic="VERTEX" source="#saguaro_multi_a800-mesh-vertices" offset="0"/>
          <input semantic="NORMAL" source="#saguaro_multi_a800-mesh-normals" offset="1"/>
          <input semantic="TEXCOORD" source="#saguaro_multi_a800-mesh-map-0" offset="2" set="0"/>
          <p>1 0 0 2 0 1 0 0 2 3 1 3 4 1 4 2 1 5 5 2 6 6 2 7 4 2 8 7 3 9 8 3 10 6 3 11 9 4 12 10 4 13 8 4 14 11 5 15 12 5 16 10 5 17 13 6 18 14 6 19 12 6 20 15 7 21 16 7 22 14 7 23 17 8 24 18 8 25 16 8 26 19 9 27 20 9 28 18 9 29 13 10 30 9 10 31 5 10 32 21 11 33 22 11 34 20 11 35 23 12 36 0 12 37 22 12 38 14 13 39 18 13 40 22 13 41 25 14 42 26 14 43 24 14 44 27 15 45 28 15 46 26 15 47 29 16 48 30 16 49 28 16 50 31 17 51 32 17 52 30 17 53 33 18 54 34 18 55 32 18 56 35 19 57 36 19 58 34 19 59 37 20 60 38 20 61 36 20 62 39 21 63 40 21 64 38 21 65 41 22 66 42 22 67 40 22 68 43 23 69 44 23 70 42 23 71 45 24 72 37 24 73 29 24 74 45 25 75 46 25 76 44 25 77 47 26 78 24 26 79 46 26 80 30 27 81 38 27 82 46 27 83 48 28 84 51 28 85 50 28 86 51 29 87 52 29 88 50 29 89 53 30 90 54 30 91 52 30 92 54 31 93 57 31 94 56 31 95 57 32 96 58 32 97 56 32 98 59 33 99 60 33 100 58 33 101 60 34 102 63 34 103 62 34 104 63 35 105 64 35 106 62 35 107 65 36 108 57 36 109 53 36 110 65 37 111 66 37 112 64 37 113 66 38 114 49 38 115 48 38 116 54 39 117 58 39 118 62 39 119 69 40 120 70 40 121 68 40 122 70 41 123 73 41 124 72 41 125 73 42 126 74 42 127 72 42 128 75 43 129 76 43 130 74 43 131 76 44 132 79 44 133 78 44 134 78 45 135 81 45 136 80 45 137 81 46 138 82 46 139 80 46 140 83 47 141 84 47 142 82 47 143 69 48 144 85 48 145 77 48 146 84 49 147 87 49 148 86 49 149 87 50 150 68 50 151 86 50 152 74 51 153 82 51 154 86 51 155 89 52 156 90 52 157 88 52 158 91 53 159 92 53 160 90 53 161 93 54 162 94 54 163 92 54 164 94 55 165 97 55 166 96 55 167 96 56 168 99 56 169 98 56 170 98 57 171 101 57 172 100 57 173 100 58 174 103 58 175 102 58 176 103 59 177 104 59 178 102 59 179 95 60 180 93 60 181 105 60 182 105 61 183 106 61 184 104 61 185 107 62 186 88 62 187 106 62 188 94 63 189 102 63 190 106 63 191 1 64 192 3 64 193 2 64 194 3 65 195 5 65 196 4 65 197 5 66 198 7 66 199 6 66 200 7 67 201 9 67 202 8 67 203 9 68 204 11 68 205 10 68 206 11 69 207 13 69 208 12 69 209 13 70 210 15 70 211 14 70 212 15 71 213 17 71 214 16 71 215 17 72 216 19 72 217 18 72 218 19 73 219 21 73 220 20 73 221 5 74 222 3 74 223 1 74 224 1 75 225 23 75 226 21 75 227 21 76 228 19 76 229 17 76 230 17 77 231 15 77 232 13 77 233 13 78 234 11 78 235 9 78 236 9 79 237 7 79 238 5 79 239 5 80 240 1 80 241 13 80 242 1 81 243 21 81 244 13 81 245 21 82 246 17 82 247 13 82 248 21 83 249 23 83 250 22 83 251 23 84 252 1 84 253 0 84 254 22 85 255 0 85 256 2 85 257 2 86 258 4 86 259 6 86 260 6 87 261 8 87 262 10 87 263 10 88 264 12 88 265 14 88 266 14 89 267 16 89 268 18 89 269 18 90 270 20 90 271 22 90 272 22 91 273 2 91 274 14 91 275 2 92 276 6 92 277 14 92 278 6 93 279 10 93 280 14 93 281 25 94 282 27 94 283 26 94 284 27 95 285 29 95 286 28 95 287 29 96 288 31 96 289 30 96 290 31 97 291 33 97 292 32 97 293 33 98 294 35 98 295 34 98 296 35 99 297 37 99 298 36 99 299 37 100 300 39 100 301 38 100 302 39 101 303 41 101 304 40 101 305 41 102 306 43 102 307 42 102 308 43 103 309 45 103 310 44 103 311 29 104 312 27 104 313 25 104 314 25 105 315 47 105 316 45 105 317 45 106 318 43 106 319 37 106 320 43 107 321 41 107 322 37 107 323 41 108 324 39 108 325 37 108 326 37 109 327 35 109 328 33 109 329 33 110 330 31 110 331 37 110 332 31 111 333 29 111 334 37 111 335 29 112 336 25 112 337 45 112 338 45 113 339 47 113 340 46 113 341 47 114 342 25 114 343 24 114 344 46 115 345 24 115 346 30 115 347 24 116 348 26 116 349 30 116 350 26 117 351 28 117 352 30 117 353 30 118 354 32 118 355 34 118 356 34 119 357 36 119 358 30 119 359 36 120 360 38 120 361 30 120 362 38 121 363 40 121 364 42 121 365 42 122 366 44 122 367 46 122 368 38 123 369 42 123 370 46 123 371 48 124 372 49 124 373 51 124 374 51 125 375 53 125 376 52 125 377 53 126 378 55 126 379 54 126 380 54 127 381 55 127 382 57 127 383 57 128 384 59 128 385 58 128 386 59 129 387 61 129 388 60 129 389 60 130 390 61 130 391 63 130 392 63 131 393 65 131 394 64 131 395 53 132 396 51 132 397 49 132 398 49 133 399 67 133 400 65 133 401 65 134 402 63 134 403 61 134 404 61 135 405 59 135 406 65 135 407 59 136 408 57 136 409 65 136 410 57 137 411 55 137 412 53 137 413 53 138 414 49 138 415 65 138 416 65 139 417 67 139 418 66 139 419 66 140 420 67 140 421 49 140 422 66 141 423 48 141 424 54 141 425 48 142 426 50 142 427 54 142 428 50 143 429 52 143 430 54 143 431 54 144 432 56 144 433 58 144 434 58 145 435 60 145 436 62 145 437 62 146 438 64 146 439 54 146 440 64 147 441 66 147 442 54 147 443 69 148 444 71 148 445 70 148 446 70 149 447 71 149 448 73 149 449 73 150 450 75 150 451 74 150 452 75 151 453 77 151 454 76 151 455 76 152 456 77 152 457 79 152 458 78 153 459 79 153 460 81 153 461 81 154 462 83 154 463 82 154 464 83 155 465 85 155 466 84 155 467 73 156 468 71 156 469 69 156 470 69 157 471 87 157 472 85 157 473 85 158 474 83 158 475 81 158 476 81 159 477 79 159 478 85 159 479 79 160 480 77 160 481 85 160 482 77 161 483 75 161 484 73 161 485 73 162 486 69 162 487 77 162 488 84 163 489 85 163 490 87 163 491 87 164 492 69 164 493 68 164 494 86 165 495 68 165 496 70 165 497 70 166 498 72 166 499 86 166 500 72 167 501 74 167 502 86 167 503 74 168 504 76 168 505 78 168 506 78 169 507 80 169 508 82 169 509 82 170 510 84 170 511 86 170 512 74 171 513 78 171 514 82 171 515 89 172 516 91 172 517 90 172 518 91 173 519 93 173 520 92 173 521 93 174 522 95 174 523 94 174 524 94 175 525 95 175 526 97 175 527 96 176 528 97 176 529 99 176 530 98 177 531 99 177 532 101 177 533 100 178 534 101 178 535 103 178 536 103 179 537 105 179 538 104 179 539 93 180 540 91 180 541 105 180 542 91 181 543 89 181 544 105 181 545 89 182 546 107 182 547 105 182 548 105 183 549 103 183 550 97 183 551 103 184 552 101 184 553 97 184 554 101 185 555 99 185 556 97 185 557 97 186 558 95 186 559 105 186 560 105 187 561 107 187 562 106 187 563 107 188 564 89 188 565 88 188 566 106 189 567 88 189 568 90 189 569 90 190 570 92 190 571 106 190 572 92 191 573 94 191 574 106 191 575 94 192 576 96 192 577 98 192 578 98 193 579 100 193 580 94 193 581 100 194 582 102 194 583 94 194 584 102 195 585 104 195 586 106 195 587</p>
        </triangles>
      </mesh>
    </geometry>
  </library_geometries>
  <library_visual_scenes>
    <visual_scene id="Scene" name="Scene">
      <node id="base00" name="base00" type="NODE">
        <matrix sid="transform">1 0 0 0 0 1 0 0 0 0 1 0 0 0 0 1</matrix>
        <node id="start01" name="start01" type="NODE">
          <matrix sid="transform">1 0 0 0 0 1 0 0 0 0 1 0 0 0 0 1</matrix>
          <node id="saguaro_multi_a800" name="saguaro_multi_a800" type="NODE">
            <matrix sid="transform">1 0 0 0 0 1 0 0 0 0 1 0 0 0 0 1</matrix>
            <instance_geometry url="#saguaro_multi_a800-mesh" name="saguaro_multi_a800">
              <bind_material>
                <technique_common>
                  <instance_material symbol="ParkerVegBark-material" target="#ParkerVegBark-material">
                    <bind_vertex_input semantic="UVMap" input_semantic="TEXCOORD" input_set="0"/>
                  </instance_material>
                </technique_common>
              </bind_material>
            </instance_geometry>
          </node>
          <node id="saguaro_multi_a200" name="saguaro_multi_a200" type="NODE">
            <matrix sid="transform">1 0 0 0 0 1 0 0 0 0 1 0 0 0 0 1</matrix>
            <instance_geometry url="#saguaro_multi_a200-mesh" name="saguaro_multi_a200">
              <bind_material>
                <technique_common>
                  <instance_material symbol="ParkerVegBark-material" target="#ParkerVegBark-material">
                    <bind_vertex_input semantic="UVMap" input_semantic="TEXCOORD" input_set="0"/>
                  </instance_material>
                </technique_common>
              </bind_material>
            </instance_geometry>
          </node>
          <node id="saguaro_multi_a50" name="saguaro_multi_a50" type="NODE">
            <matrix sid="transform">1 0 0 0 0 1 0 0 0 0 1 0 0 0 0 1</matrix>
            <instance_geometry url="#saguaro_multi_a50-mesh" name="saguaro_multi_a50">
              <bind_material>
                <technique_common>
                  <instance_material symbol="ParkerVegBark-material" target="#ParkerVegBark-material">
                    <bind_vertex_input semantic="UVMap" input_semantic="TEXCOORD" input_set="0"/>
                  </instance_material>
                </technique_common>
              </bind_material>
            </instance_geometry>
          </node>
          <node id="nulldetail20" name="nulldetail20" type="NODE">
            <matrix sid="transform">1 0 0 0 0 1 0 0 0 0 1 0 0 0 0 1</matrix>
          </node>
        </node>
        <node id="collision-1" name="collision-1" type="NODE">
          <matrix sid="transform">1 0 0 0 0 1 0 0 0 0 1 0 0 0 0 1</matrix>
          <node id="Colmesh_trunk-1" name="Colmesh_trunk-1" type="NODE">
            <matrix sid="transform">1 0 0 0 0 1 0 0 0 0 1 0 0 0 0 1</matrix>
            <instance_geometry url="#Colmesh_trunk-1-mesh" name="Colmesh_trunk-1">
              <bind_material>
                <technique_common>
                  <instance_material symbol="Colmesh_Material-material" target="#Colmesh_Material-material">
                    <bind_vertex_input semantic="UVMap" input_semantic="TEXCOORD" input_set="0"/>
                  </instance_material>
                </technique_common>
              </bind_material>
            </instance_geometry>
          </node>
          <node id="Colmesh_arm0-1" name="Colmesh_arm0-1" type="NODE">
            <matrix sid="transform">1 0 0 0 0 1 0 0 0 0 1 0 0 0 0 1</matrix>
            <instance_geometry url="#Colmesh_arm0-1-mesh" name="Colmesh_arm0-1">
              <bind_material>
                <technique_common>
                  <instance_material symbol="Colmesh_Material-material" target="#Colmesh_Material-material">
                    <bind_vertex_input semantic="UVMap" input_semantic="TEXCOORD" input_set="0"/>
                  </instance_material>
                </technique_common>
              </bind_material>
            </instance_geometry>
          </node>
          <node id="Colmesh_arm1-1" name="Colmesh_arm1-1" type="NODE">
            <matrix sid="transform">1 0 0 0 0 1 0 0 0 0 1 0 0 0 0 1</matrix>
            <instance_geometry url="#Colmesh_arm1-1-mesh" name="Colmesh_arm1-1">
              <bind_material>
                <technique_common>
                  <instance_material symbol="Colmesh_Material-material" target="#Colmesh_Material-material">
                    <bind_vertex_input semantic="UVMap" input_semantic="TEXCOORD" input_set="0"/>
                  </instance_material>
                </technique_common>
              </bind_material>
            </instance_geometry>
          </node>
          <node id="Colmesh_arm2-1" name="Colmesh_arm2-1" type="NODE">
            <matrix sid="transform">1 0 0 0 0 1 0 0 0 0 1 0 0 0 0 1</matrix>
            <instance_geometry url="#Colmesh_arm2-1-mesh" name="Colmesh_arm2-1">
              <bind_material>
                <technique_common>
                  <instance_material symbol="Colmesh_Material-material" target="#Colmesh_Material-material">
                    <bind_vertex_input semantic="UVMap" input_semantic="TEXCOORD" input_set="0"/>
                  </instance_material>
                </technique_common>
              </bind_material>
            </instance_geometry>
          </node>
        </node>
      </node>
    </visual_scene>
  </library_visual_scenes>
  <scene>
    <instance_visual_scene url="#Scene"/>
  </scene>
</COLLADA>