<?xml version="1.0" encoding="utf-8"?>
<COLLADA xmlns="http://www.collada.org/2005/11/COLLADASchema" version="1.4.1" xmlns:xsi="http://www.w3.org/2001/XMLSchema-instance">
  <asset>
    <contributor>
      <author>Blender User</author>
      <authoring_tool>Blender 4.2.9 LTS commit date:2025-04-14, commit time:12:24, hash:a10f621e649a</authoring_tool>
    </contributor>
    <created>2026-08-01T08:03:48</created>
    <modified>2026-08-01T08:03:48</modified>
    <unit name="meter" meter="1"/>
    <up_axis>Z_UP</up_axis>
  </asset>
  <library_effects>
    <effect id="pole_005-effect">
      <profile_COMMON>
        <technique sid="common">
          <lambert>
            <emission>
              <color sid="emission">0 0 0 1</color>
            </emission>
            <diffuse>
              <color sid="diffuse">0.2 0.2 0.2 1</color>
            </diffuse>
            <reflectivity>
              <float sid="specular">0.7</float>
            </reflectivity>
            <index_of_refraction>
              <float sid="ior">1.5</float>
            </index_of_refraction>
          </lambert>
        </technique>
      </profile_COMMON>
    </effect>
    <effect id="fab_005-effect">
      <profile_COMMON>
        <newparam sid="tent_fabric_black_png-surface">
          <surface type="2D">
            <init_from>tent_fabric_black_png</init_from>
          </surface>
        </newparam>
        <newparam sid="tent_fabric_black_png-sampler">
          <sampler2D>
            <source>tent_fabric_black_png-surface</source>
          </sampler2D>
        </newparam>
        <technique sid="common">
          <lambert>
            <emission>
              <color sid="emission">0 0 0 1</color>
            </emission>
            <diffuse>
              <texture texture="tent_fabric_black_png-sampler" texcoord="UVMap"/>
            </diffuse>
            <index_of_refraction>
              <float sid="ior">1.5</float>
            </index_of_refraction>
          </lambert>
        </technique>
      </profile_COMMON>
    </effect>
    <effect id="Colmesh_Material-effect">
      <profile_COMMON>
        <technique sid="common">
          <lambert>
            <emission>
              <color sid="emission">0 0 0 1</color>
            </emission>
            <diffuse>
              <color sid="diffuse">1 0 1 1</color>
            </diffuse>
            <transparent opaque="A_ONE">
              <color sid="alpha">0 0 0 0.15</color>
            </transparent>
            <index_of_refraction>
              <float sid="ior">1.5</float>
            </index_of_refraction>
          </lambert>
        </technique>
      </profile_COMMON>
    </effect>
  </library_effects>
  <library_images>
    <image id="tent_fabric_black_png" name="tent_fabric_black_png">
      <init_from>tent_fabric_black.png</init_from>
    </image>
  </library_images>
  <library_materials>
    <material id="pole_005-material" name="pole.005">
      <instance_effect url="#pole_005-effect"/>
    </material>
    <material id="fab_005-material" name="fab.005">
      <instance_effect url="#fab_005-effect"/>
    </material>
    <material id="Colmesh_Material-material" name="Colmesh_Material">
      <instance_effect url="#Colmesh_Material-effect"/>
    </material>
  </library_materials>
  <library_geometries>
    <geometry id="tent_black_6x3_a50-mesh" name="tent_black_6x3_a50">
      <mesh>
        <source id="tent_black_6x3_a50-mesh-positions">
          <float_array id="tent_black_6x3_a50-mesh-positions-array" count="24">-3.213 0 -0.02353996 3.213 0 -0.02353996 3.213 0 2.37754 -3.213 0 2.37754 0 -3.213 -0.02353996 0 3.213 -0.02353996 0 3.213 2.37754 0 -3.213 2.37754</float_array>
          <technique_common>
            <accessor source="#tent_black_6x3_a50-mesh-positions-array" count="8" stride="3">
              <param name="X" type="float"/>
              <param name="Y" type="float"/>
              <param name="Z" type="float"/>
            </accessor>
          </technique_common>
        </source>
        <source id="tent_black_6x3_a50-mesh-normals">
          <float_array id="tent_black_6x3_a50-mesh-normals-array" count="12">0 -1 0 1 0 0 0 -1 0 1 0 0</float_array>
          <technique_common>
            <accessor source="#tent_black_6x3_a50-mesh-normals-array" count="4" stride="3">
              <param name="X" type="float"/>
              <param name="Y" type="float"/>
              <param name="Z" type="float"/>
            </accessor>
          </technique_common>
        </source>
        <source id="tent_black_6x3_a50-mesh-map-0">
          <float_array id="tent_black_6x3_a50-mesh-map-0-array" count="24">1 0 0 1 0 0 1 0 0 1 0 0 1 0 1 1 0 1 1 0 1 1 0 1</float_array>
          <technique_common>
            <accessor source="#tent_black_6x3_a50-mesh-map-0-array" count="12" stride="2">
              <param name="S" type="float"/>
              <param name="T" type="float"/>
            </accessor>
          </technique_common>
        </source>
        <vertices id="tent_black_6x3_a50-mesh-vertices">
          <input semantic="POSITION" source="#tent_black_6x3_a50-mesh-positions"/>
        </vertices>
        <triangles material="pole_005-material" count="4">
          <input semantic="VERTEX" source="#tent_black_6x3_a50-mesh-vertices" offset="0"/>
          <input semantic="NORMAL" source="#tent_black_6x3_a50-mesh-normals" offset="1"/>
          <input semantic="TEXCOORD" source="#tent_black_6x3_a50-mesh-map-0" offset="2" set="0"/>
          <p>1 0 0 3 0 1 0 0 2 5 1 3 7 1 4 4 1 5 1 2 6 2 2 7 3 2 8 5 3 9 6 3 10 7 3 11</p>
        </triangles>
      </mesh>
    </geometry>
    <geometry id="tent_black_6x3_a200-mesh" name="tent_black_6x3_a200">
      <mesh>
        <source id="tent_black_6x3_a200-mesh-positions">
          <float_array id="tent_black_6x3_a200-mesh-positions-array" count="123">-2.972144 -1.485594 0 -2.985594 -1.472144 2.028 -2.985594 -1.527856 0 -2.972144 -1.514406 2.028 -3.027856 -1.514406 0 -3.014406 -1.527856 2.028 -3.014406 -1.472144 0 -3.027856 -1.485594 2.028 3.027856 -1.485594 0 3.014406 -1.472144 2.028 3.014406 -1.527856 0 3.027856 -1.514406 2.028 2.972144 -1.514406 0 2.985594 -1.527856 2.028 2.985594 -1.472144 0 2.972144 -1.485594 2.028 3.027856 1.514406 0 3.014406 1.527856 2.028 3.014406 1.472144 0 3.027856 1.485594 2.028 3 1.47 2.028 2.972144 1.485594 0 2.978787 1.478787 2.028 2.985594 1.527856 0 2.972144 1.514406 2.028 -2.972144 1.514406 0 -2.985594 1.527856 2.028 -2.985594 1.472144 0 -2.972144 1.485594 2.028 -3.027856 1.485594 0 -3.014406 1.472144 2.028 -3.014406 1.527856 0 -3.027856 1.514406 2.028 -3.06 -1.53 2.274 -3.06 -1.53 2.354 -3.06 1.53 2.274 -3.06 1.53 2.354 3.06 -1.53 2.274 3.06 -1.53 2.354 3.06 1.53 2.274 3.06 1.53 2.354</float_array>
          <technique_common>
            <accessor source="#tent_black_6x3_a200-mesh-positions-array" count="41" stride="3">
              <param name="X" type="float"/>
              <param name="Y" type="float"/>
              <param name="Z" type="float"/>
            </accessor>
          </technique_common>
        </source>
        <source id="tent_black_6x3_a200-mesh-normals">
          <float_array id="tent_black_6x3_a200-mesh-normals-array" count="186">0.3032592 0.9528984 -0.004308462 0.9528974 -0.3032624 -0.004308521 -0.3032583 -0.9528987 -0.004308521 -0.9528992 0.3032568 -0.004308581 0.3032592 0.9528984 -0.004308462 0.9528977 -0.3032616 -0.004308402 -0.3032616 -0.9528977 -0.004308462 -0.9528974 0.3032624 -0.004308521 0.3032583 0.9528987 -0.004308521 0.9528992 -0.3032568 -0.004308581 -0.9528974 0.3032624 -0.004308521 0.3032616 0.9528977 -0.004308462 0.9528974 -0.3032624 -0.004308521 0 0 1 -0.3032592 -0.9528984 -0.004308462 -0.9528977 0.3032616 -0.004308402 0.9528974 0.3032624 0.004308521 0.3032616 -0.9528977 0.004308462 -0.9528977 -0.3032616 0.004308402 0 0 -1 -0.3032592 0.9528984 0.004308462 0 0 1 0.9528992 0.3032568 0.004308581 0.3032583 -0.9528987 0.004308521 -0.9528974 -0.3032624 0.004308521 0 0 -1 -0.3032592 0.9528984 0.004308462 -0.3826814 -0.9238785 -0.001847445 0.9528977 0.3032616 0.004308402 0.4884637 -0.8725805 0.002547442 -0.9830462 -0.1833393 0.002604722 2.01087e-6 -6.31848e-6 1 0 0 -1 -0.3032616 0.9528977 0.004308462 0 0 1 0.9528974 0.3032624 0.004308521 0.3032592 -0.9528984 0.004308462 -0.9528992 -0.3032568 0.004308581 0 0 -1 -0.3032583 0.9528987 0.004308521 -1 0 0 0 1 0 1 0 0 0 -1 0 0 0 -1 0 0 1 0 0 1 0 0 -1 0 0 1 0 0 -1 -0.3032605 -0.9529024 -0.003161489 -1.54733e-6 -3.73559e-6 1 -7.26463e-6 -2.31198e-6 1 0 0 -1 0 0 1 0 0 -1 -1 0 0 0 1 0 1 0 0 0 -1 0 0 0 -1 0 0 1</float_array>
          <technique_common>
            <accessor source="#tent_black_6x3_a200-mesh-normals-array" count="62" stride="3">
              <param name="X" type="float"/>
              <param name="Y" type="float"/>
              <param name="Z" type="float"/>
            </accessor>
          </technique_common>
        </source>
        <source id="tent_black_6x3_a200-mesh-map-0">
          <float_array id="tent_black_6x3_a200-mesh-map-0-array" count="372">0.008168935 0.001218557 0.01558452 0.9987815 0.001218497 0.9987815 0.02988684 0.001218557 0.03730243 0.9987815 0.01558452 0.9987815 0.05160468 0.001218557 0.05902022 0.9987815 0.03730243 0.9987815 0.07332259 0.001218557 0.08073812 0.9987815 0.05902022 0.9987815 0.008168935 0.001218557 0.01558452 0.9987815 0.001218497 0.9987815 0.02988696 0.001218557 0.03730243 0.9987815 0.01558452 0.9987815 0.05160468 0.001218557 0.05902028 0.9987815 0.03730243 0.9987815 0.07332259 0.001218557 0.08073812 0.9987815 0.05902028 0.9987815 0.008168935 0.001218557 0.01558446 0.9987815 0.001218497 0.9987815 0.02988684 0.001218557 0.03730243 0.9987815 0.01558446 0.9987815 0.07332259 0.001218557 0.08073812 0.9987815 0.05902028 0.9987815 0.008168935 0.001218557 0.01558452 0.9987815 0.001218497 0.9987815 0.02988684 0.001218557 0.03730243 0.9987815 0.01558452 0.9987815 0.1104423 0.004290223 0.09300464 0.02541399 0.0911616 0.006133258 0.05160468 0.001218557 0.05902028 0.9987815 0.03730243 0.9987815 0.07332265 0.001218557 0.08073818 0.9987815 0.05902028 0.9987815 0.008168935 0.001218557 0.02988684 0.001218557 0.01558452 0.9987815 0.02988684 0.001218557 0.05160468 0.001218557 0.03730243 0.9987815 0.05160468 0.001218557 0.07332259 0.001218557 0.05902022 0.9987815 0.09300464 0.0551182 0.1104423 0.03399437 0.1122855 0.05327504 0.07332259 0.001218557 0.08565288 0.001218557 0.08073812 0.9987815 0.1104423 0.004290163 0.09300464 0.02541399 0.0911616 0.006133258 0.008168935 0.001218557 0.02988696 0.001218557 0.01558452 0.9987815 0.02988696 0.001218557 0.05160468 0.001218557 0.03730243 0.9987815 0.05160468 0.001218557 0.07332259 0.001218557 0.05902028 0.9987815 0.09300464 0.0551182 0.1104423 0.03399437 0.1122854 0.0532751 0.07332259 0.001218557 0.08565288 0.001218557 0.08073812 0.9987815 0.05902028 0.9987815 0.04465425 0.001218557 0.05594867 0.001218557 0.008168935 0.001218557 0.02988684 0.001218557 0.01558446 0.9987815 0.02988684 0.001218557 0.04221713 0.001218557 0.03730243 0.9987815 0.05594867 0.001218557 0.07332259 0.001218557 0.05902028 0.9987815 0.09300464 0.02541399 0.0911616 0.006133258 0.1073707 0.001218557 0.09300464 0.0551182 0.1104423 0.03399437 0.1122854 0.0532751 0.07332259 0.001218557 0.08565288 0.001218557 0.08073812 0.9987815 0.1104423 0.004290163 0.09300464 0.02541399 0.09116154 0.006133317 0.008168935 0.001218557 0.02988684 0.001218557 0.01558452 0.9987815 0.02988684 0.001218557 0.05160468 0.001218557 0.03730243 0.9987815 0.05160468 0.001218557 0.07332265 0.001218557 0.05902028 0.9987815 0.09300464 0.05511814 0.1104423 0.03399437 0.1122854 0.0532751 0.07332265 0.001218557 0.08565288 0.001218557 0.08073818 0.9987815 0.9966436 0.4683396 0.9844872 0.003356337 0.9966436 0.003356337 0.958905 0.933323 0.9467486 0.003356337 0.9589051 0.003356397 0.9966436 0.9400357 0.9844872 0.4750524 0.9966436 0.4750524 0.9777743 0.933323 0.9656179 0.003356397 0.9777743 0.003356397 0.4683397 0.003356397 0.003356337 0.933323 0.003356397 0.003356397 0.9400358 0.003356397 0.4750524 0.933323 0.4750525 0.003356337 0.1104423 0.004290223 0.1122854 0.02357089 0.09300464 0.02541399 0.09300464 0.0551182 0.0911616 0.03583747 0.1104423 0.03399437 0.1104423 0.004290163 0.1122855 0.02357083 0.09300464 0.02541399 0.09300464 0.0551182 0.0911616 0.03583747 0.1104423 0.03399437 0.05902028 0.9987815 0.03730243 0.9987815 0.04465425 0.001218557 0.1073707 0.001218557 0.1153571 0.009204864 0.09300464 0.02541399 0.1153571 0.009204864 0.1122854 0.02357089 0.09300464 0.02541399 0.09300464 0.0551182 0.09116154 0.03583753 0.1104423 0.03399437 0.1104423 0.004290163 0.1122854 0.02357089 0.09300464 0.02541399 0.09300464 0.05511814 0.0911616 0.03583747 0.1104423 0.03399437 0.9966436 0.4683396 0.9844871 0.4683396 0.9844872 0.003356337 0.958905 0.933323 0.9467486 0.933323 0.9467486 0.003356337 0.9966436 0.9400357 0.9844872 0.9400357 0.9844872 0.4750524 0.9777743 0.933323 0.9656178 0.933323 0.9656179 0.003356397 0.4683397 0.003356397 0.4683396 0.933323 0.003356337 0.933323 0.9400358 0.003356397 0.9400357 0.933323 0.4750524 0.933323</float_array>
          <technique_common>
            <accessor source="#tent_black_6x3_a200-mesh-map-0-array" count="186" stride="2">
              <param name="S" type="float"/>
              <param name="T" type="float"/>
            </accessor>
          </technique_common>
        </source>
        <vertices id="tent_black_6x3_a200-mesh-vertices">
          <input semantic="POSITION" source="#tent_black_6x3_a200-mesh-positions"/>
        </vertices>
        <triangles material="pole_005-material" count="50">
          <input semantic="VERTEX" source="#tent_black_6x3_a200-mesh-vertices" offset="0"/>
          <input semantic="NORMAL" source="#tent_black_6x3_a200-mesh-normals" offset="1"/>
          <input semantic="TEXCOORD" source="#tent_black_6x3_a200-mesh-map-0" offset="2" set="0"/>
          <p>1 0 0 0 0 1 6 0 2 3 1 3 2 1 4 0 1 5 5 2 6 4 2 7 2 2 8 7 3 9 6 3 10 4 3 11 9 4 12 8 4 13 14 4 14 11 5 15 10 5 16 8 5 17 13 6 18 12 6 19 10 6 20 15 7 21 14 7 22 12 7 23 17 8 24 16 8 25 23 8 26 19 9 27 18 9 28 16 9 29 24 10 30 23 10 31 21 10 32 26 11 33 25 11 34 31 11 35 28 12 36 27 12 37 25 12 38 5 13 39 1 13 40 7 13 41 30 14 42 29 14 43 27 14 44 32 15 45 31 15 46 29 15 47 1 16 48 3 16 49 0 16 50 3 17 51 5 17 52 2 17 53 5 18 54 7 18 55 4 18 56 6 19 57 2 19 58 4 19 59 7 20 60 1 20 61 6 20 62 13 21 63 9 21 64 15 21 65 9 22 66 11 22 67 8 22 68 11 23 69 13 23 70 10 23 71 13 24 72 15 24 73 12 24 74 14 25 75 10 25 76 12 25 77 15 26 78 9 26 79 14 26 80 21 27 81 20 27 82 22 27 83 17 28 84 19 28 85 16 28 86 19 29 87 20 29 88 18 29 89 22 30 90 24 30 91 21 30 92 17 31 93 24 31 94 22 31 95 23 32 96 18 32 97 21 32 98 24 33 99 17 33 100 23 33 101 30 34 102 26 34 103 32 34 104 26 35 105 28 35 106 25 35 107 28 36 108 30 36 109 27 36 110 30 37 111 32 37 112 29 37 113 31 38 114 27 38 115 29 38 116 32 39 117 26 39 118 31 39 119 5 46 138 3 46 139 1 46 140 6 47 141 0 47 142 2 47 143 13 48 144 11 48 145 9 48 146 14 49 147 8 49 148 10 49 149 21 50 150 18 50 151 20 50 152 22 51 153 20 51 154 17 51 155 20 52 156 19 52 157 17 52 158 23 53 159 16 53 160 18 53 161 30 54 162 28 54 163 26 54 164 31 55 165 25 55 166 27 55 167</p>
        </triangles>
        <triangles material="fab_005-material" count="12">
          <input semantic="VERTEX" source="#tent_black_6x3_a200-mesh-vertices" offset="0"/>
          <input semantic="NORMAL" source="#tent_black_6x3_a200-mesh-normals" offset="1"/>
          <input semantic="TEXCOORD" source="#tent_black_6x3_a200-mesh-map-0" offset="2" set="0"/>
          <p>33 40 120 36 40 121 35 40 122 35 41 123 40 41 124 39 41 125 39 42 126 38 42 127 37 42 128 37 43 129 34 43 130 33 43 131 35 44 132 37 44 133 33 44 134 40 45 135 34 45 136 38 45 137 33 56 168 34 56 169 36 56 170 35 57 171 36 57 172 40 57 173 39 58 174 40 58 175 38 58 176 37 59 177 38 59 178 34 59 179 35 60 180 39 60 181 37 60 182 40 61 183 36 61 184 34 61 185</p>
        </triangles>
      </mesh>
    </geometry>
    <geometry id="Colmesh_roof-1-mesh" name="Colmesh_roof-1">
      <mesh>
        <source id="Colmesh_roof-1-mesh-positions">
          <float_array id="Colmesh_roof-1-mesh-positions-array" count="24">-3.06 -1.53 2.254 -3.06 -1.53 2.374 -3.06 1.53 2.254 -3.06 1.53 2.374 3.06 -1.53 2.254 3.06 -1.53 2.374 3.06 1.53 2.254 3.06 1.53 2.374</float_array>
          <technique_common>
            <accessor source="#Colmesh_roof-1-mesh-positions-array" count="8" stride="3">
              <param name="X" type="float"/>
              <param name="Y" type="float"/>
              <param name="Z" type="float"/>
            </accessor>
          </technique_common>
        </source>
        <source id="Colmesh_roof-1-mesh-normals">
          <float_array id="Colmesh_roof-1-mesh-normals-array" count="36">-1 0 0 0 1 0 1 0 0 0 -1 0 0 0 -1 0 0 1 -1 0 0 0 1 0 1 0 0 0 -1 0 0 0 -1 0 0 1</float_array>
          <technique_common>
            <accessor source="#Colmesh_roof-1-mesh-normals-array" count="12" stride="3">
              <param name="X" type="float"/>
              <param name="Y" type="float"/>
              <param name="Z" type="float"/>
            </accessor>
          </technique_common>
        </source>
        <source id="Colmesh_roof-1-mesh-map-0">
          <float_array id="Colmesh_roof-1-mesh-map-0-array" count="72">0.625 0 0.375 0.25 0.375 0 0.625 0.25 0.375 0.5 0.375 0.25 0.625 0.5 0.375 0.75 0.375 0.5 0.625 0.75 0.375 1 0.375 0.75 0.375 0.5 0.125 0.75 0.125 0.5 0.875 0.5 0.625 0.75 0.625 0.5 0.625 0 0.625 0.25 0.375 0.25 0.625 0.25 0.625 0.5 0.375 0.5 0.625 0.5 0.625 0.75 0.375 0.75 0.625 0.75 0.625 1 0.375 1 0.375 0.5 0.375 0.75 0.125 0.75 0.875 0.5 0.875 0.75 0.625 0.75</float_array>
          <technique_common>
            <accessor source="#Colmesh_roof-1-mesh-map-0-array" count="36" stride="2">
              <param name="S" type="float"/>
              <param name="T" type="float"/>
            </accessor>
          </technique_common>
        </source>
        <vertices id="Colmesh_roof-1-mesh-vertices">
          <input semantic="POSITION" source="#Colmesh_roof-1-mesh-positions"/>
        </vertices>
        <triangles material="Colmesh_Material-material" count="12">
          <input semantic="VERTEX" source="#Colmesh_roof-1-mesh-vertices" offset="0"/>
          <input semantic="NORMAL" source="#Colmesh_roof-1-mesh-normals" offset="1"/>
          <input semantic="TEXCOORD" source="#Colmesh_roof-1-mesh-map-0" offset="2" set="0"/>
          <p>1 0 0 2 0 1 0 0 2 3 1 3 6 1 4 2 1 5 7 2 6 4 2 7 6 2 8 5 3 9 0 3 10 4 3 11 6 4 12 0 4 13 2 4 14 3 5 15 5 5 16 7 5 17 1 6 18 3 6 19 2 6 20 3 7 21 7 7 22 6 7 23 7 8 24 5 8 25 4 8 26 5 9 27 1 9 28 0 9 29 6 10 30 4 10 31 0 10 32 3 11 33 1 11 34 5 11 35</p>
        </triangles>
      </mesh>
    </geometry>
    <geometry id="Colmesh_pole3-1-mesh" name="Colmesh_pole3-1">
      <mesh>
        <source id="Colmesh_pole3-1-mesh-positions">
          <float_array id="Colmesh_pole3-1-mesh-positions-array" count="24">-3.04 1.46 0 -3.04 1.46 2.028 -3.04 1.54 0 -3.04 1.54 2.028 -2.96 1.46 0 -2.96 1.46 2.028 -2.96 1.54 0 -2.96 1.54 2.028</float_array>
          <technique_common>
            <accessor source="#Colmesh_pole3-1-mesh-positions-array" count="8" stride="3">
              <param name="X" type="float"/>
              <param name="Y" type="float"/>
              <param name="Z" type="float"/>
            </accessor>
          </technique_common>
        </source>
        <source id="Colmesh_pole3-1-mesh-normals">
          <float_array id="Colmesh_pole3-1-mesh-normals-array" count="36">-1 0 0 0 1 0 1 0 0 0 -1 0 0 0 -1 0 0 1 -1 0 0 0 1 0 1 0 0 0 -1 0 0 0 -1 0 0 1</float_array>
          <technique_common>
            <accessor source="#Colmesh_pole3-1-mesh-normals-array" count="12" stride="3">
              <param name="X" type="float"/>
              <param name="Y" type="float"/>
              <param name="Z" type="float"/>
            </accessor>
          </technique_common>
        </source>
        <source id="Colmesh_pole3-1-mesh-map-0">
          <float_array id="Colmesh_pole3-1-mesh-map-0-array" count="72">0.625 0 0.375 0.25 0.375 0 0.625 0.25 0.375 0.5 0.375 0.25 0.625 0.5 0.375 0.75 0.375 0.5 0.625 0.75 0.375 1 0.375 0.75 0.375 0.5 0.125 0.75 0.125 0.5 0.875 0.5 0.625 0.75 0.625 0.5 0.625 0 0.625 0.25 0.375 0.25 0.625 0.25 0.625 0.5 0.375 0.5 0.625 0.5 0.625 0.75 0.375 0.75 0.625 0.75 0.625 1 0.375 1 0.375 0.5 0.375 0.75 0.125 0.75 0.875 0.5 0.875 0.75 0.625 0.75</float_array>
          <technique_common>
            <accessor source="#Colmesh_pole3-1-mesh-map-0-array" count="36" stride="2">
              <param name="S" type="float"/>
              <param name="T" type="float"/>
            </accessor>
          </technique_common>
        </source>
        <vertices id="Colmesh_pole3-1-mesh-vertices">
          <input semantic="POSITION" source="#Colmesh_pole3-1-mesh-positions"/>
        </vertices>
        <triangles material="Colmesh_Material-material" count="12">
          <input semantic="VERTEX" source="#Colmesh_pole3-1-mesh-vertices" offset="0"/>
          <input semantic="NORMAL" source="#Colmesh_pole3-1-mesh-normals" offset="1"/>
          <input semantic="TEXCOORD" source="#Colmesh_pole3-1-mesh-map-0" offset="2" set="0"/>
          <p>1 0 0 2 0 1 0 0 2 3 1 3 6 1 4 2 1 5 7 2 6 4 2 7 6 2 8 5 3 9 0 3 10 4 3 11 6 4 12 0 4 13 2 4 14 3 5 15 5 5 16 7 5 17 1 6 18 3 6 19 2 6 20 3 7 21 7 7 22 6 7 23 7 8 24 5 8 25 4 8 26 5 9 27 1 9 28 0 9 29 6 10 30 4 10 31 0 10 32 3 11 33 1 11 34 5 11 35</p>
        </triangles>
      </mesh>
    </geometry>
    <geometry id="Colmesh_pole2-1-mesh" name="Colmesh_pole2-1">
      <mesh>
        <source id="Colmesh_pole2-1-mesh-positions">
          <float_array id="Colmesh_pole2-1-mesh-positions-array" count="24">2.96 1.46 0 2.96 1.46 2.028 2.96 1.54 0 2.96 1.54 2.028 3.04 1.46 0 3.04 1.46 2.028 3.04 1.54 0 3.04 1.54 2.028</float_array>
          <technique_common>
            <accessor source="#Colmesh_pole2-1-mesh-positions-array" count="8" stride="3">
              <param name="X" type="float"/>
              <param name="Y" type="float"/>
              <param name="Z" type="float"/>
            </accessor>
          </technique_common>
        </source>
        <source id="Colmesh_pole2-1-mesh-normals">
          <float_array id="Colmesh_pole2-1-mesh-normals-array" count="36">-1 0 0 0 1 0 1 0 0 0 -1 0 0 0 -1 0 0 1 -1 0 0 0 1 0 1 0 0 0 -1 0 0 0 -1 0 0 1</float_array>
          <technique_common>
            <accessor source="#Colmesh_pole2-1-mesh-normals-array" count="12" stride="3">
              <param name="X" type="float"/>
              <param name="Y" type="float"/>
              <param name="Z" type="float"/>
            </accessor>
          </technique_common>
        </source>
        <source id="Colmesh_pole2-1-mesh-map-0">
          <float_array id="Colmesh_pole2-1-mesh-map-0-array" count="72">0.625 0 0.375 0.25 0.375 0 0.625 0.25 0.375 0.5 0.375 0.25 0.625 0.5 0.375 0.75 0.375 0.5 0.625 0.75 0.375 1 0.375 0.75 0.375 0.5 0.125 0.75 0.125 0.5 0.875 0.5 0.625 0.75 0.625 0.5 0.625 0 0.625 0.25 0.375 0.25 0.625 0.25 0.625 0.5 0.375 0.5 0.625 0.5 0.625 0.75 0.375 0.75 0.625 0.75 0.625 1 0.375 1 0.375 0.5 0.375 0.75 0.125 0.75 0.875 0.5 0.875 0.75 0.625 0.75</float_array>
          <technique_common>
            <accessor source="#Colmesh_pole2-1-mesh-map-0-array" count="36" stride="2">
              <param name="S" type="float"/>
              <param name="T" type="float"/>
            </accessor>
          </technique_common>
        </source>
        <vertices id="Colmesh_pole2-1-mesh-vertices">
          <input semantic="POSITION" source="#Colmesh_pole2-1-mesh-positions"/>
        </vertices>
        <triangles material="Colmesh_Material-material" count="12">
          <input semantic="VERTEX" source="#Colmesh_pole2-1-mesh-vertices" offset="0"/>
          <input semantic="NORMAL" source="#Colmesh_pole2-1-mesh-normals" offset="1"/>
          <input semantic="TEXCOORD" source="#Colmesh_pole2-1-mesh-map-0" offset="2" set="0"/>
          <p>1 0 0 2 0 1 0 0 2 3 1 3 6 1 4 2 1 5 7 2 6 4 2 7 6 2 8 5 3 9 0 3 10 4 3 11 6 4 12 0 4 13 2 4 14 3 5 15 5 5 16 7 5 17 1 6 18 3 6 19 2 6 20 3 7 21 7 7 22 6 7 23 7 8 24 5 8 25 4 8 26 5 9 27 1 9 28 0 9 29 6 10 30 4 10 31 0 10 32 3 11 33 1 11 34 5 11 35</p>
        </triangles>
      </mesh>
    </geometry>
    <geometry id="Colmesh_pole1-1-mesh" name="Colmesh_pole1-1">
      <mesh>
        <source id="Colmesh_pole1-1-mesh-positions">
          <float_array id="Colmesh_pole1-1-mesh-positions-array" count="24">2.96 -1.54 0 2.96 -1.54 2.028 2.96 -1.46 0 2.96 -1.46 2.028 3.04 -1.54 0 3.04 -1.54 2.028 3.04 -1.46 0 3.04 -1.46 2.028</float_array>
          <technique_common>
            <accessor source="#Colmesh_pole1-1-mesh-positions-array" count="8" stride="3">
              <param name="X" type="float"/>
              <param name="Y" type="float"/>
              <param name="Z" type="float"/>
            </accessor>
          </technique_common>
        </source>
        <source id="Colmesh_pole1-1-mesh-normals">
          <float_array id="Colmesh_pole1-1-mesh-normals-array" count="36">-1 0 0 0 1 0 1 0 0 0 -1 0 0 0 -1 0 0 1 -1 0 0 0 1 0 1 0 0 0 -1 0 0 0 -1 0 0 1</float_array>
          <technique_common>
            <accessor source="#Colmesh_pole1-1-mesh-normals-array" count="12" stride="3">
              <param name="X" type="float"/>
              <param name="Y" type="float"/>
              <param name="Z" type="float"/>
            </accessor>
          </technique_common>
        </source>
        <source id="Colmesh_pole1-1-mesh-map-0">
          <float_array id="Colmesh_pole1-1-mesh-map-0-array" count="72">0.625 0 0.375 0.25 0.375 0 0.625 0.25 0.375 0.5 0.375 0.25 0.625 0.5 0.375 0.75 0.375 0.5 0.625 0.75 0.375 1 0.375 0.75 0.375 0.5 0.125 0.75 0.125 0.5 0.875 0.5 0.625 0.75 0.625 0.5 0.625 0 0.625 0.25 0.375 0.25 0.625 0.25 0.625 0.5 0.375 0.5 0.625 0.5 0.625 0.75 0.375 0.75 0.625 0.75 0.625 1 0.375 1 0.375 0.5 0.375 0.75 0.125 0.75 0.875 0.5 0.875 0.75 0.625 0.75</float_array>
          <technique_common>
            <accessor source="#Colmesh_pole1-1-mesh-map-0-array" count="36" stride="2">
              <param name="S" type="float"/>
              <param name="T" type="float"/>
            </accessor>
          </technique_common>
        </source>
        <vertices id="Colmesh_pole1-1-mesh-vertices">
          <input semantic="POSITION" source="#Colmesh_pole1-1-mesh-positions"/>
        </vertices>
        <triangles material="Colmesh_Material-material" count="12">
          <input semantic="VERTEX" source="#Colmesh_pole1-1-mesh-vertices" offset="0"/>
          <input semantic="NORMAL" source="#Colmesh_pole1-1-mesh-normals" offset="1"/>
          <input semantic="TEXCOORD" source="#Colmesh_pole1-1-mesh-map-0" offset="2" set="0"/>
          <p>1 0 0 2 0 1 0 0 2 3 1 3 6 1 4 2 1 5 7 2 6 4 2 7 6 2 8 5 3 9 0 3 10 4 3 11 6 4 12 0 4 13 2 4 14 3 5 15 5 5 16 7 5 17 1 6 18 3 6 19 2 6 20 3 7 21 7 7 22 6 7 23 7 8 24 5 8 25 4 8 26 5 9 27 1 9 28 0 9 29 6 10 30 4 10 31 0 10 32 3 11 33 1 11 34 5 11 35</p>
        </triangles>
      </mesh>
    </geometry>
    <geometry id="Colmesh_pole0-1-mesh" name="Colmesh_pole0-1">
      <mesh>
        <source id="Colmesh_pole0-1-mesh-positions">
          <float_array id="Colmesh_pole0-1-mesh-positions-array" count="24">-3.04 -1.54 0 -3.04 -1.54 2.028 -3.04 -1.46 0 -3.04 -1.46 2.028 -2.96 -1.54 0 -2.96 -1.54 2.028 -2.96 -1.46 0 -2.96 -1.46 2.028</float_array>
          <technique_common>
            <accessor source="#Colmesh_pole0-1-mesh-positions-array" count="8" stride="3">
              <param name="X" type="float"/>
              <param name="Y" type="float"/>
              <param name="Z" type="float"/>
            </accessor>
          </technique_common>
        </source>
        <source id="Colmesh_pole0-1-mesh-normals">
          <float_array id="Colmesh_pole0-1-mesh-normals-array" count="36">-1 0 0 0 1 0 1 0 0 0 -1 0 0 0 -1 0 0 1 -1 0 0 0 1 0 1 0 0 0 -1 0 0 0 -1 0 0 1</float_array>
          <technique_common>
            <accessor source="#Colmesh_pole0-1-mesh-normals-array" count="12" stride="3">
              <param name="X" type="float"/>
              <param name="Y" type="float"/>
              <param name="Z" type="float"/>
            </accessor>
          </technique_common>
        </source>
        <source id="Colmesh_pole0-1-mesh-map-0">
          <float_array id="Colmesh_pole0-1-mesh-map-0-array" count="72">0.625 0 0.375 0.25 0.375 0 0.625 0.25 0.375 0.5 0.375 0.25 0.625 0.5 0.375 0.75 0.375 0.5 0.625 0.75 0.375 1 0.375 0.75 0.375 0.5 0.125 0.75 0.125 0.5 0.875 0.5 0.625 0.75 0.625 0.5 0.625 0 0.625 0.25 0.375 0.25 0.625 0.25 0.625 0.5 0.375 0.5 0.625 0.5 0.625 0.75 0.375 0.75 0.625 0.75 0.625 1 0.375 1 0.375 0.5 0.375 0.75 0.125 0.75 0.875 0.5 0.875 0.75 0.625 0.75</float_array>
          <technique_common>
            <accessor source="#Colmesh_pole0-1-mesh-map-0-array" count="36" stride="2">
              <param name="S" type="float"/>
              <param name="T" type="float"/>
            </accessor>
          </technique_common>
        </source>
        <vertices id="Colmesh_pole0-1-mesh-vertices">
          <input semantic="POSITION" source="#Colmesh_pole0-1-mesh-positions"/>
        </vertices>
        <triangles material="Colmesh_Material-material" count="12">
          <input semantic="VERTEX" source="#Colmesh_pole0-1-mesh-vertices" offset="0"/>
          <input semantic="NORMAL" source="#Colmesh_pole0-1-mesh-normals" offset="1"/>
          <input semantic="TEXCOORD" source="#Colmesh_pole0-1-mesh-map-0" offset="2" set="0"/>
          <p>1 0 0 2 0 1 0 0 2 3 1 3 6 1 4 2 1 5 7 2 6 4 2 7 6 2 8 5 3 9 0 3 10 4 3 11 6 4 12 0 4 13 2 4 14 3 5 15 5 5 16 7 5 17 1 6 18 3 6 19 2 6 20 3 7 21 7 7 22 6 7 23 7 8 24 5 8 25 4 8 26 5 9 27 1 9 28 0 9 29 6 10 30 4 10 31 0 10 32 3 11 33 1 11 34 5 11 35</p>
        </triangles>
      </mesh>
    </geometry>
    <geometry id="tent_black_6x3_a800-mesh" name="tent_black_6x3_a800">
      <mesh>
        <source id="tent_black_6x3_a800-mesh-positions">
          <float_array id="tent_black_6x3_a800-mesh-positions-array" count="216">-3 -1.47 0 -3 -1.47 2.028 -2.978787 -1.478787 0 -2.978787 -1.478787 2.028 -2.97 -1.5 0 -2.97 -1.5 2.028 -2.978787 -1.521213 0 -2.978787 -1.521213 2.028 -3 -1.53 0 -3 -1.53 2.028 -3.021213 -1.521213 0 -3.021213 -1.521213 2.028 -3.03 -1.5 0 -3.03 -1.5 2.028 -3.021213 -1.478787 0 -3.021213 -1.478787 2.028 3 -1.47 0 3 -1.47 2.028 3.021213 -1.478787 0 3.021213 -1.478787 2.028 3.03 -1.5 0 3.03 -1.5 2.028 3.021213 -1.521213 0 3.021213 -1.521213 2.028 3 -1.53 0 3 -1.53 2.028 2.978787 -1.521213 0 2.978787 -1.521213 2.028 2.97 -1.5 0 2.97 -1.5 2.028 2.978787 -1.478787 0 2.978787 -1.478787 2.028 3 1.53 0 3 1.53 2.028 3.021213 1.521213 0 3.021213 1.521213 2.028 3.03 1.5 0 3.03 1.5 2.028 3.021213 1.478787 0 3.021213 1.478787 2.028 3 1.47 0 3 1.47 2.028 2.978787 1.478787 0 2.978787 1.478787 2.028 2.97 1.5 0 2.97 1.5 2.028 2.978787 1.521213 0 2.978787 1.521213 2.028 -3 1.53 0 -3 1.53 2.028 -2.978787 1.521213 0 -2.978787 1.521213 2.028 -2.97 1.5 0 -2.97 1.5 2.028 -2.978787 1.478787 0 -2.978787 1.478787 2.028 -3 1.47 0 -3 1.47 2.028 -3.021213 1.478787 0 -3.021213 1.478787 2.028 -3.03 1.5 0 -3.03 1.5 2.028 -3.021213 1.521213 0 -3.021213 1.521213 2.028 -3.06 -1.53 2.274 -3.06 -1.53 2.354 -3.06 1.53 2.274 -3.06 1.53 2.354 3.06 -1.53 2.274 3.06 -1.53 2.354 3.06 1.53 2.274 3.06 1.53 2.354</float_array>
          <technique_common>
            <accessor source="#tent_black_6x3_a800-mesh-positions-array" count="72" stride="3">
              <param name="X" type="float"/>
              <param name="Y" type="float"/>
              <param name="Z" type="float"/>
            </accessor>
          </technique_common>
        </source>
        <source id="tent_black_6x3_a800-mesh-normals">
          <float_array id="tent_black_6x3_a800-mesh-normals-array" count="372">0.3826821 0.9238801 0 0.9238812 0.3826795 0 0.9238812 -0.3826795 0 0.3826821 -0.9238801 0 -0.3826821 -0.9238801 0 -0.9238812 -0.3826795 0 0 0 1 -0.9238812 0.3826795 0 -0.3826821 0.9238801 0 0 0 -1 0.3826821 0.9238801 0 0.9238812 0.3826795 0 0.9238812 -0.3826795 0 0.3826821 -0.9238801 0 -0.3826821 -0.9238801 0 -0.9238812 -0.3826795 0 0 0 1 -0.9238812 0.3826795 0 -0.3826821 0.9238801 0 0 0 -1 0.3826821 0.9238801 0 0.9238812 0.3826795 0 0.9238812 -0.3826795 0 0.3826821 -0.9238801 0 -0.3826821 -0.9238801 0 -0.9238812 -0.3826795 0 0 0 1 -0.9238812 0.3826795 0 -0.3826821 0.9238801 0 0 0 -1 0.3826821 0.9238801 0 0.9238812 0.3826795 0 0.9238812 -0.3826795 0 0.3826821 -0.9238801 0 -0.3826821 -0.9238801 0 -0.9238812 -0.3826795 0 0 0 1 -0.9238812 0.3826795 0 -0.3826821 0.9238801 0 0 0 -1 -1 0 0 0 1 0 1 0 0 0 -1 0 0 0 -1 0 0 1 0.3826821 0.9238801 0 0.9238812 0.3826795 0 0.9238812 -0.3826795 0 0.3826821 -0.9238801 0 -0.3826821 -0.9238801 0 -0.9238812 -0.3826795 0 0 0 1 0 0 1 0 0 1 0 0 1 0 0 1 -0.9238812 0.3826795 0 -0.3826821 0.9238801 0 0 0 -1 0 0 -1 0 0 -1 0 0 -1 0 0 -1 0.3826821 0.9238801 0 0.9238812 0.3826795 0 0.9238812 -0.3826795 0 0.3826821 -0.9238801 0 -0.3826821 -0.9238801 0 -0.9238812 -0.3826795 0 0 0 1 0 0 1 0 0 1 0 0 1 0 0 1 -0.9238812 0.3826795 0 -0.3826821 0.9238801 0 0 0 -1 0 0 -1 0 0 -1 0 0 -1 0 0 -1 0.3826821 0.9238801 0 0.9238812 0.3826795 0 0.9238812 -0.3826795 0 0.3826821 -0.9238801 0 -0.3826821 -0.9238801 0 -0.9238812 -0.3826795 0 0 0 1 0 0 1 0 0 1 0 0 1 0 0 1 -0.9238812 0.3826795 0 -0.3826821 0.9238801 0 0 0 -1 0 0 -1 0 0 -1 0 0 -1 0 0 -1 0.3826821 0.9238801 0 0.9238812 0.3826795 0 0.9238812 -0.3826795 0 0.3826821 -0.9238801 0 -0.3826821 -0.9238801 0 -0.9238812 -0.3826795 0 0 0 1 0 0 1 0 0 1 0 0 1 0 0 1 -0.9238812 0.3826795 0 -0.3826821 0.9238801 0 0 0 -1 0 0 -1 0 0 -1 0 0 -1 0 0 -1 -1 0 0 0 1 0 1 0 0 0 -1 0 0 0 -1 0 0 1</float_array>
          <technique_common>
            <accessor source="#tent_black_6x3_a800-mesh-normals-array" count="124" stride="3">
              <param name="X" type="float"/>
              <param name="Y" type="float"/>
              <param name="Z" type="float"/>
            </accessor>
          </technique_common>
        </source>
        <source id="tent_black_6x3_a800-mesh-map-0">
          <float_array id="tent_black_6x3_a800-mesh-map-0-array" count="744">0.001218497 0.001218557 0.01251292 0.9987815 0.001218497 0.9987815 0.01251292 0.001218557 0.02049928 0.9987815 0.01251292 0.9987815 0.0229364 0.001218557 0.03423076 0.9987815 0.0229364 0.9987815 0.03423076 0.001218557 0.04221713 0.9987815 0.03423076 0.9987815 0.04465425 0.001218557 0.05594867 0.9987815 0.04465425 0.9987815 0.05594867 0.001218557 0.06393498 0.9987815 0.05594867 0.9987815 0.0960763 0.001218557 0.1153571 0.009204864 0.1073707 0.02848565 0.06637209 0.001218557 0.07766652 0.9987815 0.06637209 0.9987815 0.07766652 0.001218557 0.08565288 0.9987815 0.07766652 0.9987815 0.1073707 0.0581898 0.0960763 0.0581898 0.1073707 0.03092271 0.001218497 0.001218557 0.01251292 0.9987815 0.001218497 0.9987815 0.01251292 0.001218557 0.02049928 0.9987815 0.01251292 0.9987815 0.0229364 0.001218557 0.03423076 0.9987815 0.0229364 0.9987815 0.03423076 0.001218557 0.04221713 0.9987815 0.03423076 0.9987815 0.04465425 0.001218557 0.05594867 0.9987815 0.04465425 0.9987815 0.05594867 0.001218557 0.06393498 0.9987815 0.05594867 0.9987815 0.0960763 0.001218557 0.1153571 0.009204864 0.1073707 0.02848565 0.06637209 0.001218557 0.07766652 0.9987815 0.06637209 0.9987815 0.07766652 0.001218557 0.08565288 0.9987815 0.07766652 0.9987815 0.1073707 0.0581898 0.0960763 0.0581898 0.1073707 0.03092271 0.001218497 0.001218557 0.01251292 0.9987815 0.001218497 0.9987815 0.01251292 0.001218557 0.02049928 0.9987815 0.01251292 0.9987815 0.0229364 0.001218557 0.03423076 0.9987815 0.0229364 0.9987815 0.03423076 0.001218557 0.04221713 0.9987815 0.03423076 0.9987815 0.04465425 0.001218557 0.05594867 0.9987815 0.04465425 0.9987815 0.05594867 0.001218557 0.06393498 0.9987815 0.05594867 0.9987815 0.0960763 0.001218557 0.1153571 0.009204864 0.1073707 0.02848565 0.06637209 0.001218557 0.07766652 0.9987815 0.06637209 0.9987815 0.07766652 0.001218557 0.08565288 0.9987815 0.07766652 0.9987815 0.1073707 0.0581898 0.0960763 0.0581898 0.1073707 0.03092271 0.001218497 0.001218557 0.01251292 0.9987815 0.001218497 0.9987815 0.01251292 0.001218557 0.02049928 0.9987815 0.01251292 0.9987815 0.0229364 0.001218557 0.03423076 0.9987815 0.0229364 0.9987815 0.03423076 0.001218557 0.04221713 0.9987815 0.03423076 0.9987815 0.04465425 0.001218557 0.05594867 0.9987815 0.04465425 0.9987815 0.05594867 0.001218557 0.06393498 0.9987815 0.05594867 0.9987815 0.0960763 0.001218557 0.1153571 0.009204864 0.1073707 0.02848565 0.06637209 0.001218557 0.07766652 0.9987815 0.06637209 0.9987815 0.07766652 0.001218557 0.08565288 0.9987815 0.07766652 0.9987815 0.1073707 0.0581898 0.0960763 0.0581898 0.1073707 0.03092271 0.9844871 0.4683396 0.9966436 0.003356337 0.9966436 0.4683396 0.9467486 0.933323 0.9589051 0.003356397 0.958905 0.933323 0.9844872 0.9400357 0.9966436 0.4750524 0.9966436 0.9400357 0.9656178 0.933323 0.9777743 0.003356397 0.9777743 0.933323 0.4683396 0.933323 0.003356397 0.003356397 0.4683397 0.003356397 0.9400357 0.933323 0.4750525 0.003356337 0.9400358 0.003356397 0.001218497 0.001218557 0.01251292 0.001218557 0.01251292 0.9987815 0.01251292 0.001218557 0.02049928 0.001218557 0.02049928 0.9987815 0.0229364 0.001218557 0.03423076 0.001218557 0.03423076 0.9987815 0.03423076 0.001218557 0.04221713 0.001218557 0.04221713 0.9987815 0.04465425 0.001218557 0.05594867 0.001218557 0.05594867 0.9987815 0.05594867 0.001218557 0.06393498 0.001218557 0.06393498 0.9987815 0.1073707 0.02848565 0.0960763 0.02848565 0.08808994 0.02049928 0.08808994 0.02049928 0.08808994 0.009204864 0.0960763 0.001218557 0.0960763 0.001218557 0.1073707 0.001218557 0.1153571 0.009204864 0.1153571 0.009204864 0.1153571 0.02049928 0.1073707 0.02848565 0.1073707 0.02848565 0.08808994 0.02049928 0.0960763 0.001218557 0.06637209 0.001218557 0.07766652 0.001218557 0.07766652 0.9987815 0.07766652 0.001218557 0.08565288 0.001218557 0.08565288 0.9987815 0.0960763 0.0581898 0.08808994 0.0502035 0.08809 0.03890907 0.08809 0.03890907 0.0960763 0.03092271 0.0960763 0.0581898 0.0960763 0.03092271 0.1073707 0.03092271 0.0960763 0.0581898 0.1073707 0.03092271 0.1153571 0.03890907 0.1153571 0.0502035 0.1153571 0.0502035 0.1073707 0.0581898 0.1073707 0.03092271 0.001218497 0.001218557 0.01251292 0.001218557 0.01251292 0.9987815 0.01251292 0.001218557 0.02049928 0.001218557 0.02049928 0.9987815 0.0229364 0.001218557 0.03423076 0.001218557 0.03423076 0.9987815 0.03423076 0.001218557 0.04221713 0.001218557 0.04221713 0.9987815 0.04465425 0.001218557 0.05594867 0.001218557 0.05594867 0.9987815 0.05594867 0.001218557 0.06393498 0.001218557 0.06393498 0.9987815 0.1073707 0.02848565 0.0960763 0.02848565 0.08808994 0.02049928 0.08808994 0.02049928 0.08808994 0.009204864 0.0960763 0.001218557 0.0960763 0.001218557 0.1073707 0.001218557 0.1153571 0.009204864 0.1153571 0.009204864 0.1153571 0.02049928 0.1073707 0.02848565 0.1073707 0.02848565 0.08808994 0.02049928 0.0960763 0.001218557 0.06637209 0.001218557 0.07766652 0.001218557 0.07766652 0.9987815 0.07766652 0.001218557 0.08565288 0.001218557 0.08565288 0.9987815 0.0960763 0.0581898 0.08808994 0.0502035 0.08809 0.03890907 0.08809 0.03890907 0.0960763 0.03092271 0.0960763 0.0581898 0.0960763 0.03092271 0.1073707 0.03092271 0.0960763 0.0581898 0.1073707 0.03092271 0.1153571 0.03890907 0.1153571 0.0502035 0.1153571 0.0502035 0.1073707 0.0581898 0.1073707 0.03092271 0.001218497 0.001218557 0.01251292 0.001218557 0.01251292 0.9987815 0.01251292 0.001218557 0.02049928 0.001218557 0.02049928 0.9987815 0.0229364 0.001218557 0.03423076 0.001218557 0.03423076 0.9987815 0.03423076 0.001218557 0.04221713 0.001218557 0.04221713 0.9987815 0.04465425 0.001218557 0.05594867 0.001218557 0.05594867 0.9987815 0.05594867 0.001218557 0.06393498 0.001218557 0.06393498 0.9987815 0.1073707 0.02848565 0.0960763 0.02848565 0.08808994 0.02049928 0.08808994 0.02049928 0.08808994 0.009204864 0.0960763 0.001218557 0.0960763 0.001218557 0.1073707 0.001218557 0.1153571 0.009204864 0.1153571 0.009204864 0.1153571 0.02049928 0.1073707 0.02848565 0.1073707 0.02848565 0.08808994 0.02049928 0.0960763 0.001218557 0.06637209 0.001218557 0.07766652 0.001218557 0.07766652 0.9987815 0.07766652 0.001218557 0.08565288 0.001218557 0.08565288 0.9987815 0.0960763 0.0581898 0.08808994 0.0502035 0.08809 0.03890907 0.08809 0.03890907 0.0960763 0.03092271 0.0960763 0.0581898 0.0960763 0.03092271 0.1073707 0.03092271 0.0960763 0.0581898 0.1073707 0.03092271 0.1153571 0.03890907 0.1153571 0.0502035 0.1153571 0.0502035 0.1073707 0.0581898 0.1073707 0.03092271 0.001218497 0.001218557 0.01251292 0.001218557 0.01251292 0.9987815 0.01251292 0.001218557 0.02049928 0.001218557 0.02049928 0.9987815 0.0229364 0.001218557 0.03423076 0.001218557 0.03423076 0.9987815 0.03423076 0.001218557 0.04221713 0.001218557 0.04221713 0.9987815 0.04465425 0.001218557 0.05594867 0.001218557 0.05594867 0.9987815 0.05594867 0.001218557 0.06393498 0.001218557 0.06393498 0.9987815 0.1073707 0.02848565 0.0960763 0.02848565 0.08808994 0.02049928 0.08808994 0.02049928 0.08808994 0.009204864 0.0960763 0.001218557 0.0960763 0.001218557 0.1073707 0.001218557 0.1153571 0.009204864 0.1153571 0.009204864 0.1153571 0.02049928 0.1073707 0.02848565 0.1073707 0.02848565 0.08808994 0.02049928 0.0960763 0.001218557 0.06637209 0.001218557 0.07766652 0.001218557 0.07766652 0.9987815 0.07766652 0.001218557 0.08565288 0.001218557 0.08565288 0.9987815 0.0960763 0.0581898 0.08808994 0.0502035 0.08809 0.03890907 0.08809 0.03890907 0.0960763 0.03092271 0.0960763 0.0581898 0.0960763 0.03092271 0.1073707 0.03092271 0.0960763 0.0581898 0.1073707 0.03092271 0.1153571 0.03890907 0.1153571 0.0502035 0.1153571 0.0502035 0.1073707 0.0581898 0.1073707 0.03092271 0.9844871 0.4683396 0.9844872 0.003356337 0.9966436 0.003356337 0.9467486 0.933323 0.9467486 0.003356337 0.9589051 0.003356397 0.9844872 0.9400357 0.9844872 0.4750524 0.9966436 0.4750524 0.9656178 0.933323 0.9656179 0.003356397 0.9777743 0.003356397 0.4683396 0.933323 0.003356337 0.933323 0.003356397 0.003356397 0.9400357 0.933323 0.4750524 0.933323 0.4750525 0.003356337</float_array>
          <technique_common>
            <accessor source="#tent_black_6x3_a800-mesh-map-0-array" count="372" stride="2">
              <param name="S" type="float"/>
              <param name="T" type="float"/>
            </accessor>
          </technique_common>
        </source>
        <vertices id="tent_black_6x3_a800-mesh-vertices">
          <input semantic="POSITION" source="#tent_black_6x3_a800-mesh-positions"/>
        </vertices>
        <triangles material="pole_005-material" count="112">
          <input semantic="VERTEX" source="#tent_black_6x3_a800-mesh-vertices" offset="0"/>
          <input semantic="NORMAL" source="#tent_black_6x3_a800-mesh-normals" offset="1"/>
          <input semantic="TEXCOORD" source="#tent_black_6x3_a800-mesh-map-0" offset="2" set="0"/>
          <p>1 0 0 2 0 1 0 0 2 3 1 3 4 1 4 2 1 5 5 2 6 6 2 7 4 2 8 7 3 9 8 3 10 6 3 11 9 4 12 10 4 13 8 4 14 11 5 15 12 5 16 10 5 17 13 6 18 9 6 19 5 6 20 13 7 21 14 7 22 12 7 23 15 8 24 0 8 25 14 8 26 12 9 27 14 9 28 6 9 29 17 10 30 18 10 31 16 10 32 19 11 33 20 11 34 18 11 35 21 12 36 22 12 37 20 12 38 23 13 39 24 13 40 22 13 41 25 14 42 26 14 43 24 14 44 27 15 45 28 15 46 26 15 47 29 16 48 25 16 49 21 16 50 29 17 51 30 17 52 28 17 53 31 18 54 16 18 55 30 18 56 28 19 57 30 19 58 22 19 59 33 20 60 34 20 61 32 20 62 35 21 63 36 21 64 34 21 65 37 22 66 38 22 67 36 22 68 39 23 69 40 23 70 38 23 71 41 24 72 42 24 73 40 24 74 43 25 75 44 25 76 42 25 77 45 26 78 41 26 79 37 26 80 45 27 81 46 27 82 44 27 83 47 28 84 32 28 85 46 28 86 44 29 87 46 29 88 38 29 89 49 30 90 50 30 91 48 30 92 51 31 93 52 31 94 50 31 95 53 32 96 54 32 97 52 32 98 55 33 99 56 33 100 54 33 101 57 34 102 58 34 103 56 34 104 59 35 105 60 35 106 58 35 107 61 36 108 57 36 109 53 36 110 61 37 111 62 37 112 60 37 113 63 38 114 48 38 115 62 38 116 60 39 117 62 39 118 54 39 119 1 46 138 3 46 139 2 46 140 3 47 141 5 47 142 4 47 143 5 48 144 7 48 145 6 48 146 7 49 147 9 49 148 8 49 149 9 50 150 11 50 151 10 50 152 11 51 153 13 51 154 12 51 155 5 52 156 3 52 157 1 52 158 1 53 159 15 53 160 13 53 161 13 54 162 11 54 163 9 54 164 9 55 165 7 55 166 5 55 167 5 56 168 1 56 169 13 56 170 13 57 171 15 57 172 14 57 173 15 58 174 1 58 175 0 58 176 14 59 177 0 59 178 2 59 179 2 60 180 4 60 181 14 60 182 4 61 183 6 61 184 14 61 185 6 62 186 8 62 187 10 62 188 10 63 189 12 63 190 6 63 191 17 64 192 19 64 193 18 64 194 19 65 195 21 65 196 20 65 197 21 66 198 23 66 199 22 66 200 23 67 201 25 67 202 24 67 203 25 68 204 27 68 205 26 68 206 27 69 207 29 69 208 28 69 209 21 70 210 19 70 211 17 70 212 17 71 213 31 71 214 29 71 215 29 72 216 27 72 217 25 72 218 25 73 219 23 73 220 21 73 221 21 74 222 17 74 223 29 74 224 29 75 225 31 75 226 30 75 227 31 76 228 17 76 229 16 76 230 30 77 231 16 77 232 18 77 233 18 78 234 20 78 235 30 78 236 20 79 237 22 79 238 30 79 239 22 80 240 24 80 241 26 80 242 26 81 243 28 81 244 22 81 245 33 82 246 35 82 247 34 82 248 35 83 249 37 83 250 36 83 251 37 84 252 39 84 253 38 84 254 39 85 255 41 85 256 40 85 257 41 86 258 43 86 259 42 86 260 43 87 261 45 87 262 44 87 263 37 88 264 35 88 265 33 88 266 33 89 267 47 89 268 45 89 269 45 90 270 43 90 271 41 90 272 41 91 273 39 91 274 37 91 275 37 92 276 33 92 277 45 92 278 45 93 279 47 93 280 46 93 281 47 94 282 33 94 283 32 94 284 46 95 285 32 95 286 34 95 287 34 96 288 36 96 289 46 96 290 36 97 291 38 97 292 46 97 293 38 98 294 40 98 295 42 98 296 42 99 297 44 99 298 38 99 299 49 100 300 51 100 301 50 100 302 51 101 303 53 101 304 52 101 305 53 102 306 55 102 307 54 102 308 55 103 309 57 103 310 56 103 311 57 104 312 59 104 313 58 104 314 59 105 315 61 105 316 60 105 317 53 106 318 51 106 319 49 106 320 49 107 321 63 107 322 61 107 323 61 108 324 59 108 325 57 108 326 57 109 327 55 109 328 53 109 329 53 110 330 49 110 331 61 110 332 61 111 333 63 111 334 62 111 335 63 112 336 49 112 337 48 112 338 62 113 339 48 113 340 50 113 341 50 114 342 52 114 343 62 114 344 52 115 345 54 115 346 62 115 347 54 116 348 56 116 349 58 116 350 58 117 351 60 117 352 54 117 353</p>
        </triangles>
        <triangles material="fab_005-material" count="12">
          <input semantic="VERTEX" source="#tent_black_6x3_a800-mesh-vertices" offset="0"/>
          <input semantic="NORMAL" source="#tent_black_6x3_a800-mesh-normals" offset="1"/>
          <input semantic="TEXCOORD" source="#tent_black_6x3_a800-mesh-map-0" offset="2" set="0"/>
          <p>65 40 120 66 40 121 64 40 122 67 41 123 70 41 124 66 41 125 71 42 126 68 42 127 70 42 128 69 43 129 64 43 130 68 43 131 70 44 132 64 44 133 66 44 134 67 45 135 69 45 136 71 45 137 65 118 354 67 118 355 66 118 356 67 119 357 71 119 358 70 119 359 71 120 360 69 120 361 68 120 362 69 121 363 65 121 364 64 121 365 70 122 366 68 122 367 64 122 368 67 123 369 65 123 370 69 123 371</p>
        </triangles>
      </mesh>
    </geometry>
  </library_geometries>
  <library_visual_scenes>
    <visual_scene id="Scene" name="Scene">
      <node id="base00" name="base00" type="NODE">
        <matrix sid="transform">1 0 0 0 0 1 0 0 0 0 1 0 0 0 0 1</matrix>
        <node id="start01" name="start01" type="NODE">
          <matrix sid="transform">1 0 0 0 0 1 0 0 0 0 1 0 0 0 0 1</matrix>
          <node id="tent_black_6x3_a800" name="tent_black_6x3_a800" type="NODE">
            <matrix sid="transform">1 0 0 0 0 1 0 0 0 0 1 0 0 0 0 1</matrix>
            <instance_geometry url="#tent_black_6x3_a800-mesh" name="tent_black_6x3_a800">
              <bind_material>
                <technique_common>
                  <instance_material symbol="pole_005-material" target="#pole_005-material">
                    <bind_vertex_input semantic="UVMap" input_semantic="TEXCOORD" input_set="0"/>
                  </instance_material>
                  <instance_material symbol="fab_005-material" target="#fab_005-material">
                    <bind_vertex_input semantic="UVMap" input_semantic="TEXCOORD" input_set="0"/>
                  </instance_material>
                </technique_common>
              </bind_material>
            </instance_geometry>
          </node>
          <node id="tent_black_6x3_a200" name="tent_black_6x3_a200" type="NODE">
            <matrix sid="transform">1 0 0 0 0 1 0 0 0 0 1 0 0 0 0 1</matrix>
            <instance_geometry url="#tent_black_6x3_a200-mesh" name="tent_black_6x3_a200">
              <bind_material>
                <technique_common>
                  <instance_material symbol="pole_005-material" target="#pole_005-material">
                    <bind_vertex_input semantic="UVMap" input_semantic="TEXCOORD" input_set="0"/>
                  </instance_material>
                  <instance_material symbol="fab_005-material" target="#fab_005-material">
                    <bind_vertex_input semantic="UVMap" input_semantic="TEXCOORD" input_set="0"/>
                  </instance_material>
                </technique_common>
              </bind_material>
            </instance_geometry>
          </node>
          <node id="tent_black_6x3_a50" name="tent_black_6x3_a50" type="NODE">
            <matrix sid="transform">1 0 0 0 0 1 0 0 0 0 1 0 0 0 0 1</matrix>
            <instance_geometry url="#tent_black_6x3_a50-mesh" name="tent_black_6x3_a50">
              <bind_material>
                <technique_common>
                  <instance_material symbol="pole_005-material" target="#pole_005-material">
                    <bind_vertex_input semantic="UVMap" input_semantic="TEXCOORD" input_set="0"/>
                  </instance_material>
                </technique_common>
              </bind_material>
            </instance_geometry>
          </node>
          <node id="nulldetail20" name="nulldetail20" type="NODE">
            <matrix sid="transform">1 0 0 0 0 1 0 0 0 0 1 0 0 0 0 1</matrix>
          </node>
        </node>
        <node id="collision-1" name="collision-1" type="NODE">
          <matrix sid="transform">1 0 0 0 0 1 0 0 0 0 1 0 0 0 0 1</matrix>
          <node id="Colmesh_pole0-1" name="Colmesh_pole0-1" type="NODE">
            <matrix sid="transform">1 0 0 0 0 1 0 0 0 0 1 0 0 0 0 1</matrix>
            <instance_geometry url="#Colmesh_pole0-1-mesh" name="Colmesh_pole0-1">
              <bind_material>
                <technique_common>
                  <instance_material symbol="Colmesh_Material-material" target="#Colmesh_Material-material">
                    <bind_vertex_input semantic="UVMap" input_semantic="TEXCOORD" input_set="0"/>
                  </instance_material>
                </technique_common>
              </bind_material>
            </instance_geometry>
          </node>
          <node id="Colmesh_pole1-1" name="Colmesh_pole1-1" type="NODE">
            <matrix sid="transform">1 0 0 0 0 1 0 0 0 0 1 0 0 0 0 1</matrix>
            <instance_geometry url="#Colmesh_pole1-1-mesh" name="Colmesh_pole1-1">
              <bind_material>
                <technique_common>
                  <instance_material symbol="Colmesh_Material-material" target="#Colmesh_Material-material">
                    <bind_vertex_input semantic="UVMap" input_semantic="TEXCOORD" input_set="0"/>
                  </instance_material>
                </technique_common>
              </bind_material>
            </instance_geometry>
          </node>
          <node id="Colmesh_pole2-1" name="Colmesh_pole2-1" type="NODE">
            <matrix sid="transform">1 0 0 0 0 1 0 0 0 0 1 0 0 0 0 1</matrix>
            <instance_geometry url="#Colmesh_pole2-1-mesh" name="Colmesh_pole2-1">
              <bind_material>
                <technique_common>
                  <instance_material symbol="Colmesh_Material-material" target="#Colmesh_Material-material">
                    <bind_vertex_input semantic="UVMap" input_semantic="TEXCOORD" input_set="0"/>
                  </instance_material>
                </technique_common>
              </bind_material>
            </instance_geometry>
          </node>
          <node id="Colmesh_pole3-1" name="Colmesh_pole3-1" type="NODE">
            <matrix sid="transform">1 0 0 0 0 1 0 0 0 0 1 0 0 0 0 1</matrix>
            <instance_geometry url="#Colmesh_pole3-1-mesh" name="Colmesh_pole3-1">
              <bind_material>
                <technique_common>
                  <instance_material symbol="Colmesh_Material-material" target="#Colmesh_Material-material">
                    <bind_vertex_input semantic="UVMap" input_semantic="TEXCOORD" input_set="0"/>
                  </instance_material>
                </technique_common>
              </bind_material>
            </instance_geometry>
          </node>
          <node id="Colmesh_roof-1" name="Colmesh_roof-1" type="NODE">
            <matrix sid="transform">1 0 0 0 0 1 0 0 0 0 1 0 0 0 0 1</matrix>
            <instance_geometry url="#Colmesh_roof-1-mesh" name="Colmesh_roof-1">
              <bind_material>
                <technique_common>
                  <instance_material symbol="Colmesh_Material-material" target="#Colmesh_Material-material">
                    <bind_vertex_input semantic="UVMap" input_semantic="TEXCOORD" input_set="0"/>
                  </instance_material>
                </technique_common>
              </bind_material>
            </instance_geometry>
          </node>
        </node>
      </node>
    </visual_scene>
  </library_visual_scenes>
  <scene>
    <instance_visual_scene url="#Scene"/>
  </scene>
</COLLADA>