<?xml version="1.0" encoding="utf-8"?>
<COLLADA xmlns="http://www.collada.org/2005/11/COLLADASchema" version="1.4.1" xmlns:xsi="http://www.w3.org/2001/XMLSchema-instance">
  <asset>
    <contributor>
      <author>Blender User</author>
      <authoring_tool>Blender 4.2.9 LTS commit date:2025-04-14, commit time:12:24, hash:a10f621e649a</authoring_tool>
    </contributor>
    <created>2026-08-01T07:55:08</created>
    <modified>2026-08-01T07:55:08</modified>
    <unit name="meter" meter="1"/>
    <up_axis>Z_UP</up_axis>
  </asset>
  <library_effects>
    <effect id="hay_004-effect">
      <profile_COMMON>
        <newparam sid="hay_gold_png-surface">
          <surface type="2D">
            <init_from>hay_gold_png</init_from>
          </surface>
        </newparam>
        <newparam sid="hay_gold_png-sampler">
          <sampler2D>
            <source>hay_gold_png-surface</source>
          </sampler2D>
        </newparam>
        <technique sid="common">
          <lambert>
            <emission>
              <color sid="emission">0 0 0 1</color>
            </emission>
            <diffuse>
              <texture texture="hay_gold_png-sampler" texcoord="UVMap"/>
            </diffuse>
            <index_of_refraction>
              <float sid="ior">1.5</float>
            </index_of_refraction>
          </lambert>
        </technique>
      </profile_COMMON>
    </effect>
    <effect id="Colmesh_Material-effect">
      <profile_COMMON>
        <technique sid="common">
          <lambert>
            <emission>
              <color sid="emission">0 0 0 1</color>
            </emission>
            <diffuse>
              <color sid="diffuse">1 0 1 1</color>
            </diffuse>
            <transparent opaque="A_ONE">
              <color sid="alpha">0 0 0 0.15</color>
            </transparent>
            <index_of_refraction>
              <float sid="ior">1.5</float>
            </index_of_refraction>
          </lambert>
        </technique>
      </profile_COMMON>
    </effect>
  </library_effects>
  <library_images>
    <image id="hay_gold_png" name="hay_gold_png">
      <init_from>hay_gold.png</init_from>
    </image>
  </library_images>
  <library_materials>
    <material id="hay_004-material" name="hay.004">
      <instance_effect url="#hay_004-effect"/>
    </material>
    <material id="Colmesh_Material-material" name="Colmesh_Material">
      <instance_effect url="#Colmesh_Material-effect"/>
    </material>
  </library_materials>
  <library_geometries>
    <geometry id="haybale_stack_3_a50-mesh" name="haybale_stack_3_a50">
      <mesh>
        <source id="haybale_stack_3_a50-mesh-positions">
          <float_array id="haybale_stack_3_a50-mesh-positions-array" count="24">-0.525 0 -0.01049995 0.525 0 -0.01049995 0.525 0 1.0605 -0.525 0 1.0605 0 -0.525 -0.01049995 0 0.525 -0.01049995 0 0.525 1.0605 0 -0.525 1.0605</float_array>
          <technique_common>
            <accessor source="#haybale_stack_3_a50-mesh-positions-array" count="8" stride="3">
              <param name="X" type="float"/>
              <param name="Y" type="float"/>
              <param name="Z" type="float"/>
            </accessor>
          </technique_common>
        </source>
        <source id="haybale_stack_3_a50-mesh-normals">
          <float_array id="haybale_stack_3_a50-mesh-normals-array" count="12">0 -1 0 1 0 0 0 -1 0 1 0 0</float_array>
          <technique_common>
            <accessor source="#haybale_stack_3_a50-mesh-normals-array" count="4" stride="3">
              <param name="X" type="float"/>
              <param name="Y" type="float"/>
              <param name="Z" type="float"/>
            </accessor>
          </technique_common>
        </source>
        <source id="haybale_stack_3_a50-mesh-map-0">
          <float_array id="haybale_stack_3_a50-mesh-map-0-array" count="24">1 0 0 1 0 0 1 0 0 1 0 0 1 0 1 1 0 1 1 0 1 1 0 1</float_array>
          <technique_common>
            <accessor source="#haybale_stack_3_a50-mesh-map-0-array" count="12" stride="2">
              <param name="S" type="float"/>
              <param name="T" type="float"/>
            </accessor>
          </technique_common>
        </source>
        <vertices id="haybale_stack_3_a50-mesh-vertices">
          <input semantic="POSITION" source="#haybale_stack_3_a50-mesh-positions"/>
        </vertices>
        <triangles material="hay_004-material" count="4">
          <input semantic="VERTEX" source="#haybale_stack_3_a50-mesh-vertices" offset="0"/>
          <input semantic="NORMAL" source="#haybale_stack_3_a50-mesh-normals" offset="1"/>
          <input semantic="TEXCOORD" source="#haybale_stack_3_a50-mesh-map-0" offset="2" set="0"/>
          <p>1 0 0 3 0 1 0 0 2 5 1 3 7 1 4 4 1 5 1 2 6 2 2 7 3 2 8 5 3 9 6 3 10 7 3 11</p>
        </triangles>
      </mesh>
    </geometry>
    <geometry id="haybale_stack_3_a200-mesh" name="haybale_stack_3_a200">
      <mesh>
        <source id="haybale_stack_3_a200-mesh-positions">
          <float_array id="haybale_stack_3_a200-mesh-positions-array" count="45">-0.5 -0.225 0.1166666 -0.5 0.225 0 -0.5 0.225 0.35 0.5 -0.225 0 0.5 -0.225 0.35 0.5 0.225 0.1166666 -0.5 -0.225 0.4666666 -0.5 0.225 0.5833333 0.5 -0.225 0.35 0.5 -0.225 0.7 0.5 0.225 0.4666666 -0.5 -0.225 0.8166667 -0.5 0.225 0.9333333 0.5 -0.225 0.9333333 0.5 0.225 0.8166667</float_array>
          <technique_common>
            <accessor source="#haybale_stack_3_a200-mesh-positions-array" count="15" stride="3">
              <param name="X" type="float"/>
              <param name="Y" type="float"/>
              <param name="Z" type="float"/>
            </accessor>
          </technique_common>
        </source>
        <source id="haybale_stack_3_a200-mesh-normals">
          <float_array id="haybale_stack_3_a200-mesh-normals-array" count="51">0 1 0 0 -1 0 0 -1 0 -1 0 0 1 0 0 -0.2028367 0.4507483 0.8693004 -0.1122196 0.249377 -0.9618825 -0.1122196 -0.2493769 -0.9618825 1 0 0 -0.2028367 0.4507483 0.8693004 0.1122196 0.2493768 -0.9618825 -0.1122196 0.2493768 0.9618825 0.2028367 -0.4507483 0.8693004 -0.1122196 0.2493769 -0.9618825 0.1122196 0.2493769 -0.9618825 -0.1122196 -0.2493768 -0.9618825 0.1122196 -0.2493768 0.9618825</float_array>
          <technique_common>
            <accessor source="#haybale_stack_3_a200-mesh-normals-array" count="17" stride="3">
              <param name="X" type="float"/>
              <param name="Y" type="float"/>
              <param name="Z" type="float"/>
            </accessor>
          </technique_common>
        </source>
        <source id="haybale_stack_3_a200-mesh-map-0">
          <float_array id="haybale_stack_3_a200-mesh-map-0-array" count="102">0.5645074 0.6089399 0.7056567 0.004014968 0.7762312 0.60894 0.7842612 0.6089399 0.9254104 0.004014968 0.9959849 0.6089399 0.7842612 0.6089399 0.9254104 0.004014968 0.9959849 0.6089399 0.1451641 0.889186 0.004014968 0.6169698 0.2157387 0.6169699 0.3649179 0.889186 0.2237687 0.6169699 0.4354925 0.6169699 0.5564775 0.004014968 0.2842612 0.6089399 0.2842613 0.004014909 0.004015028 0.004014968 0.2762312 0.60894 0.004014968 0.6089399 0.2762312 0.004014968 0.004014968 0.6089399 0.004015028 0.004014968 0.3649179 0.889186 0.2237687 0.6169699 0.4354925 0.6169699 0.5564775 0.004014968 0.2842612 0.6089399 0.2842613 0.004014909 0.2762312 0.004014968 0.004014968 0.6089399 0.004015028 0.004014968 0.5564775 0.004014968 0.2842612 0.6089399 0.2842613 0.004014909 0.5564775 0.004014968 0.5564774 0.6089399 0.2842612 0.6089399 0.004015028 0.004014968 0.2762312 0.004014968 0.2762312 0.60894 0.2762312 0.004014968 0.2762312 0.60894 0.004014968 0.6089399 0.2762312 0.004014968 0.2762312 0.60894 0.004014968 0.6089399 0.5564775 0.004014968 0.5564774 0.6089399 0.2842612 0.6089399</float_array>
          <technique_common>
            <accessor source="#haybale_stack_3_a200-mesh-map-0-array" count="51" stride="2">
              <param name="S" type="float"/>
              <param name="T" type="float"/>
            </accessor>
          </technique_common>
        </source>
        <vertices id="haybale_stack_3_a200-mesh-vertices">
          <input semantic="POSITION" source="#haybale_stack_3_a200-mesh-positions"/>
        </vertices>
        <triangles material="hay_004-material" count="17">
          <input semantic="VERTEX" source="#haybale_stack_3_a200-mesh-vertices" offset="0"/>
          <input semantic="NORMAL" source="#haybale_stack_3_a200-mesh-normals" offset="1"/>
          <input semantic="TEXCOORD" source="#haybale_stack_3_a200-mesh-map-0" offset="2" set="0"/>
          <p>2 0 0 5 0 1 1 0 2 4 1 3 0 1 4 3 1 5 9 2 6 6 2 7 8 2 8 0 3 9 2 3 10 1 3 11 5 4 12 4 4 13 3 4 14 5 5 15 0 5 16 4 5 17 6 6 18 10 6 19 8 6 20 1 7 21 3 7 22 0 7 23 10 8 24 9 8 25 8 8 26 10 9 27 6 9 28 9 9 29 12 10 30 13 10 31 11 10 32 14 11 33 11 11 34 13 11 35 5 12 36 2 12 37 0 12 38 6 13 39 7 13 40 10 13 41 1 14 42 5 14 43 3 14 44 12 15 45 14 15 46 13 15 47 14 16 48 12 16 49 11 16 50</p>
        </triangles>
      </mesh>
    </geometry>
    <geometry id="Colmesh_stack-1-mesh" name="Colmesh_stack-1">
      <mesh>
        <source id="Colmesh_stack-1-mesh-positions">
          <float_array id="Colmesh_stack-1-mesh-positions-array" count="24">-0.5 -0.225 0 -0.5 -0.225 1.05 -0.5 0.225 0 -0.5 0.225 1.05 0.5 -0.225 0 0.5 -0.225 1.05 0.5 0.225 0 0.5 0.225 1.05</float_array>
          <technique_common>
            <accessor source="#Colmesh_stack-1-mesh-positions-array" count="8" stride="3">
              <param name="X" type="float"/>
              <param name="Y" type="float"/>
              <param name="Z" type="float"/>
            </accessor>
          </technique_common>
        </source>
        <source id="Colmesh_stack-1-mesh-normals">
          <float_array id="Colmesh_stack-1-mesh-normals-array" count="36">-1 0 0 0 1 0 1 0 0 0 -1 0 0 0 -1 0 0 1 -1 0 0 0 1 0 1 0 0 0 -1 0 0 0 -1 0 0 1</float_array>
          <technique_common>
            <accessor source="#Colmesh_stack-1-mesh-normals-array" count="12" stride="3">
              <param name="X" type="float"/>
              <param name="Y" type="float"/>
              <param name="Z" type="float"/>
            </accessor>
          </technique_common>
        </source>
        <source id="Colmesh_stack-1-mesh-map-0">
          <float_array id="Colmesh_stack-1-mesh-map-0-array" count="72">0.625 0 0.375 0.25 0.375 0 0.625 0.25 0.375 0.5 0.375 0.25 0.625 0.5 0.375 0.75 0.375 0.5 0.625 0.75 0.375 1 0.375 0.75 0.375 0.5 0.125 0.75 0.125 0.5 0.875 0.5 0.625 0.75 0.625 0.5 0.625 0 0.625 0.25 0.375 0.25 0.625 0.25 0.625 0.5 0.375 0.5 0.625 0.5 0.625 0.75 0.375 0.75 0.625 0.75 0.625 1 0.375 1 0.375 0.5 0.375 0.75 0.125 0.75 0.875 0.5 0.875 0.75 0.625 0.75</float_array>
          <technique_common>
            <accessor source="#Colmesh_stack-1-mesh-map-0-array" count="36" stride="2">
              <param name="S" type="float"/>
              <param name="T" type="float"/>
            </accessor>
          </technique_common>
        </source>
        <vertices id="Colmesh_stack-1-mesh-vertices">
          <input semantic="POSITION" source="#Colmesh_stack-1-mesh-positions"/>
        </vertices>
        <triangles material="Colmesh_Material-material" count="12">
          <input semantic="VERTEX" source="#Colmesh_stack-1-mesh-vertices" offset="0"/>
          <input semantic="NORMAL" source="#Colmesh_stack-1-mesh-normals" offset="1"/>
          <input semantic="TEXCOORD" source="#Colmesh_stack-1-mesh-map-0" offset="2" set="0"/>
          <p>1 0 0 2 0 1 0 0 2 3 1 3 6 1 4 2 1 5 7 2 6 4 2 7 6 2 8 5 3 9 0 3 10 4 3 11 6 4 12 0 4 13 2 4 14 3 5 15 5 5 16 7 5 17 1 6 18 3 6 19 2 6 20 3 7 21 7 7 22 6 7 23 7 8 24 5 8 25 4 8 26 5 9 27 1 9 28 0 9 29 6 10 30 4 10 31 0 10 32 3 11 33 1 11 34 5 11 35</p>
        </triangles>
      </mesh>
    </geometry>
    <geometry id="haybale_stack_3_a800-mesh" name="haybale_stack_3_a800">
      <mesh>
        <source id="haybale_stack_3_a800-mesh-positions">
          <float_array id="haybale_stack_3_a800-mesh-positions-array" count="72">-0.5 -0.225 0 -0.5 -0.225 0.35 -0.5 0.225 0 -0.5 0.225 0.35 0.5 -0.225 0 0.5 -0.225 0.35 0.5 0.225 0 0.5 0.225 0.35 -0.5 -0.225 0.35 -0.5 -0.225 0.7 -0.5 0.225 0.35 -0.5 0.225 0.7 0.5 -0.225 0.35 0.5 -0.225 0.7 0.5 0.225 0.35 0.5 0.225 0.7 -0.5 -0.225 0.7 -0.5 -0.225 1.05 -0.5 0.225 0.7 -0.5 0.225 1.05 0.5 -0.225 0.7 0.5 -0.225 1.05 0.5 0.225 0.7 0.5 0.225 1.05</float_array>
          <technique_common>
            <accessor source="#haybale_stack_3_a800-mesh-positions-array" count="24" stride="3">
              <param name="X" type="float"/>
              <param name="Y" type="float"/>
              <param name="Z" type="float"/>
            </accessor>
          </technique_common>
        </source>
        <source id="haybale_stack_3_a800-mesh-normals">
          <float_array id="haybale_stack_3_a800-mesh-normals-array" count="108">-1 0 0 0 1 0 1 0 0 0 -1 0 0 0 -1 0 0 1 -1 0 0 0 1 0 1 0 0 0 -1 0 0 0 -1 0 0 1 -1 0 0 0 1 0 1 0 0 0 -1 0 0 0 -1 0 0 1 -1 0 0 0 1 0 1 0 0 0 -1 0 0 0 -1 0 0 1 -1 0 0 0 1 0 1 0 0 0 -1 0 0 0 -1 0 0 1 -1 0 0 0 1 0 1 0 0 0 -1 0 0 0 -1 0 0 1</float_array>
          <technique_common>
            <accessor source="#haybale_stack_3_a800-mesh-normals-array" count="36" stride="3">
              <param name="X" type="float"/>
              <param name="Y" type="float"/>
              <param name="Z" type="float"/>
            </accessor>
          </technique_common>
        </source>
        <source id="haybale_stack_3_a800-mesh-map-0">
          <float_array id="haybale_stack_3_a800-mesh-map-0-array" count="216">0.004014968 0.889186 0.2157387 0.6169699 0.2157387 0.8891861 0.5645074 0.6089399 0.7762312 0.004014968 0.7762312 0.60894 0.2237687 0.8891861 0.4354925 0.6169699 0.4354925 0.8891861 0.7842612 0.6089399 0.995985 0.004014968 0.9959849 0.6089399 0.2762312 0.60894 0.004015028 0.004014968 0.2762312 0.004014968 0.5564774 0.6089399 0.2842613 0.004014909 0.5564775 0.004014968 0.004014968 0.889186 0.2157387 0.6169699 0.2157387 0.8891861 0.5645074 0.6089399 0.7762312 0.004014968 0.7762312 0.60894 0.2237687 0.8891861 0.4354925 0.6169699 0.4354925 0.8891861 0.7842612 0.6089399 0.995985 0.004014968 0.9959849 0.6089399 0.2762312 0.60894 0.004015028 0.004014968 0.2762312 0.004014968 0.5564774 0.6089399 0.2842613 0.004014909 0.5564775 0.004014968 0.004014968 0.889186 0.2157387 0.6169699 0.2157387 0.8891861 0.5645074 0.6089399 0.7762312 0.004014968 0.7762312 0.60894 0.2237687 0.8891861 0.4354925 0.6169699 0.4354925 0.8891861 0.7842612 0.6089399 0.995985 0.004014968 0.9959849 0.6089399 0.2762312 0.60894 0.004015028 0.004014968 0.2762312 0.004014968 0.5564774 0.6089399 0.2842613 0.004014909 0.5564775 0.004014968 0.004014968 0.889186 0.004014968 0.6169698 0.2157387 0.6169699 0.5645074 0.6089399 0.5645075 0.004014968 0.7762312 0.004014968 0.2237687 0.8891861 0.2237687 0.6169699 0.4354925 0.6169699 0.7842612 0.6089399 0.7842612 0.004014909 0.995985 0.004014968 0.2762312 0.60894 0.004014968 0.6089399 0.004015028 0.004014968 0.5564774 0.6089399 0.2842612 0.6089399 0.2842613 0.004014909 0.004014968 0.889186 0.004014968 0.6169698 0.2157387 0.6169699 0.5645074 0.6089399 0.5645075 0.004014968 0.7762312 0.004014968 0.2237687 0.8891861 0.2237687 0.6169699 0.4354925 0.6169699 0.7842612 0.6089399 0.7842612 0.004014909 0.995985 0.004014968 0.2762312 0.60894 0.004014968 0.6089399 0.004015028 0.004014968 0.5564774 0.6089399 0.2842612 0.6089399 0.2842613 0.004014909 0.004014968 0.889186 0.004014968 0.6169698 0.2157387 0.6169699 0.5645074 0.6089399 0.5645075 0.004014968 0.7762312 0.004014968 0.2237687 0.8891861 0.2237687 0.6169699 0.4354925 0.6169699 0.7842612 0.6089399 0.7842612 0.004014909 0.995985 0.004014968 0.2762312 0.60894 0.004014968 0.6089399 0.004015028 0.004014968 0.5564774 0.6089399 0.2842612 0.6089399 0.2842613 0.004014909</float_array>
          <technique_common>
            <accessor source="#haybale_stack_3_a800-mesh-map-0-array" count="108" stride="2">
              <param name="S" type="float"/>
              <param name="T" type="float"/>
            </accessor>
          </technique_common>
        </source>
        <vertices id="haybale_stack_3_a800-mesh-vertices">
          <input semantic="POSITION" source="#haybale_stack_3_a800-mesh-positions"/>
        </vertices>
        <triangles material="hay_004-material" count="36">
          <input semantic="VERTEX" source="#haybale_stack_3_a800-mesh-vertices" offset="0"/>
          <input semantic="NORMAL" source="#haybale_stack_3_a800-mesh-normals" offset="1"/>
          <input semantic="TEXCOORD" source="#haybale_stack_3_a800-mesh-map-0" offset="2" set="0"/>
          <p>1 0 0 2 0 1 0 0 2 3 1 3 6 1 4 2 1 5 7 2 6 4 2 7 6 2 8 5 3 9 0 3 10 4 3 11 6 4 12 0 4 13 2 4 14 3 5 15 5 5 16 7 5 17 9 6 18 10 6 19 8 6 20 11 7 21 14 7 22 10 7 23 15 8 24 12 8 25 14 8 26 13 9 27 8 9 28 12 9 29 14 10 30 8 10 31 10 10 32 11 11 33 13 11 34 15 11 35 17 12 36 18 12 37 16 12 38 19 13 39 22 13 40 18 13 41 23 14 42 20 14 43 22 14 44 21 15 45 16 15 46 20 15 47 22 16 48 16 16 49 18 16 50 19 17 51 21 17 52 23 17 53 1 18 54 3 18 55 2 18 56 3 19 57 7 19 58 6 19 59 7 20 60 5 20 61 4 20 62 5 21 63 1 21 64 0 21 65 6 22 66 4 22 67 0 22 68 3 23 69 1 23 70 5 23 71 9 24 72 11 24 73 10 24 74 11 25 75 15 25 76 14 25 77 15 26 78 13 26 79 12 26 80 13 27 81 9 27 82 8 27 83 14 28 84 12 28 85 8 28 86 11 29 87 9 29 88 13 29 89 17 30 90 19 30 91 18 30 92 19 31 93 23 31 94 22 31 95 23 32 96 21 32 97 20 32 98 21 33 99 17 33 100 16 33 101 22 34 102 20 34 103 16 34 104 19 35 105 17 35 106 21 35 107</p>
        </triangles>
      </mesh>
    </geometry>
  </library_geometries>
  <library_visual_scenes>
    <visual_scene id="Scene" name="Scene">
      <node id="base00" name="base00" type="NODE">
        <matrix sid="transform">1 0 0 0 0 1 0 0 0 0 1 0 0 0 0 1</matrix>
        <node id="start01" name="start01" type="NODE">
          <matrix sid="transform">1 0 0 0 0 1 0 0 0 0 1 0 0 0 0 1</matrix>
          <node id="haybale_stack_3_a800" name="haybale_stack_3_a800" type="NODE">
            <matrix sid="transform">1 0 0 0 0 1 0 0 0 0 1 0 0 0 0 1</matrix>
            <instance_geometry url="#haybale_stack_3_a800-mesh" name="haybale_stack_3_a800">
              <bind_material>
                <technique_common>
                  <instance_material symbol="hay_004-material" target="#hay_004-material">
                    <bind_vertex_input semantic="UVMap" input_semantic="TEXCOORD" input_set="0"/>
                  </instance_material>
                </technique_common>
              </bind_material>
            </instance_geometry>
          </node>
          <node id="haybale_stack_3_a200" name="haybale_stack_3_a200" type="NODE">
            <matrix sid="transform">1 0 0 0 0 1 0 0 0 0 1 0 0 0 0 1</matrix>
            <instance_geometry url="#haybale_stack_3_a200-mesh" name="haybale_stack_3_a200">
              <bind_material>
                <technique_common>
                  <instance_material symbol="hay_004-material" target="#hay_004-material">
                    <bind_vertex_input semantic="UVMap" input_semantic="TEXCOORD" input_set="0"/>
                  </instance_material>
                </technique_common>
              </bind_material>
            </instance_geometry>
          </node>
          <node id="haybale_stack_3_a50" name="haybale_stack_3_a50" type="NODE">
            <matrix sid="transform">1 0 0 0 0 1 0 0 0 0 1 0 0 0 0 1</matrix>
            <instance_geometry url="#haybale_stack_3_a50-mesh" name="haybale_stack_3_a50">
              <bind_material>
                <technique_common>
                  <instance_material symbol="hay_004-material" target="#hay_004-material">
                    <bind_vertex_input semantic="UVMap" input_semantic="TEXCOORD" input_set="0"/>
                  </instance_material>
                </technique_common>
              </bind_material>
            </instance_geometry>
          </node>
          <node id="nulldetail20" name="nulldetail20" type="NODE">
            <matrix sid="transform">1 0 0 0 0 1 0 0 0 0 1 0 0 0 0 1</matrix>
          </node>
        </node>
        <node id="collision-1" name="collision-1" type="NODE">
          <matrix sid="transform">1 0 0 0 0 1 0 0 0 0 1 0 0 0 0 1</matrix>
          <node id="Colmesh_stack-1" name="Colmesh_stack-1" type="NODE">
            <matrix sid="transform">1 0 0 0 0 1 0 0 0 0 1 0 0 0 0 1</matrix>
            <instance_geometry url="#Colmesh_stack-1-mesh" name="Colmesh_stack-1">
              <bind_material>
                <technique_common>
                  <instance_material symbol="Colmesh_Material-material" target="#Colmesh_Material-material">
                    <bind_vertex_input semantic="UVMap" input_semantic="TEXCOORD" input_set="0"/>
                  </instance_material>
                </technique_common>
              </bind_material>
            </instance_geometry>
          </node>
        </node>
      </node>
    </visual_scene>
  </library_visual_scenes>
  <scene>
    <instance_visual_scene url="#Scene"/>
  </scene>
</COLLADA>