<?xml version="1.0" encoding="utf-8"?>
<COLLADA xmlns="http://www.collada.org/2005/11/COLLADASchema" version="1.4.1" xmlns:xsi="http://www.w3.org/2001/XMLSchema-instance">
  <asset>
    <contributor>
      <author>Blender User</author>
      <authoring_tool>Blender 4.2.9 LTS commit date:2025-04-14, commit time:12:24, hash:a10f621e649a</authoring_tool>
    </contributor>
    <created>2026-08-01T07:28:30</created>
    <modified>2026-08-01T07:28:30</modified>
    <unit name="meter" meter="1"/>
    <up_axis>Z_UP</up_axis>
  </asset>
  <library_effects>
    <effect id="ROCK_33-effect">
      <profile_COMMON>
        <newparam sid="rock_dark_png-surface">
          <surface type="2D">
            <init_from>rock_dark_png</init_from>
          </surface>
        </newparam>
        <newparam sid="rock_dark_png-sampler">
          <sampler2D>
            <source>rock_dark_png-surface</source>
          </sampler2D>
        </newparam>
        <technique sid="common">
          <lambert>
            <emission>
              <color sid="emission">0 0 0 1</color>
            </emission>
            <diffuse>
              <texture texture="rock_dark_png-sampler" texcoord="UVMap"/>
            </diffuse>
            <index_of_refraction>
              <float sid="ior">1.5</float>
            </index_of_refraction>
          </lambert>
        </technique>
      </profile_COMMON>
    </effect>
  </library_effects>
  <library_images>
    <image id="rock_dark_png" name="rock_dark_png">
      <init_from>rock_dark.png</init_from>
    </image>
  </library_images>
  <library_materials>
    <material id="ROCK_33-material" name="ROCK_33">
      <instance_effect url="#ROCK_33-effect"/>
    </material>
  </library_materials>
  <library_geometries>
    <geometry id="Icosphere-mesh" name="Icosphere">
      <mesh>
        <source id="Icosphere-mesh-positions">
          <float_array id="Icosphere-mesh-positions-array" count="126">0 0 0.02528929 1.295203 -0.6990352 0.01109158 -0.4873917 -1.114332 0.03563243 -1.630187 0 0.007460474 -0.4792773 1.09578 0.02468466 1.241542 0.6700741 0.03864789 0.4813786 -1.100584 0.4896021 -1.25551 -0.6776124 0.4877447 -1.289241 0.6958172 0.5008485 0.4785814 1.094189 0.4867572 1.557153 0 0.4893937 0 0 1.131185 -0.2861377 -0.6542018 0.002103865 0.7620165 -0.4112687 0.02943414 0.4545686 -1.039251 0.03386348 1.540164 0 0.0222243 0.8011667 0.4323984 0.004690289 -0.9103223 0 0.0392009 -1.180217 -0.6369812 0.008534491 -0.2973499 0.6798365 0.02999275 -1.149678 0.6204987 0.01286679 0.4325267 0.9888581 0.01090818 1.627175 -0.3927432 0.02098733 1.692213 0.4084413 0.01576834 0 -1.293265 0.004403352 1.021109 -1.044038 0.0349102 -1.702315 -0.4108795 0.02238607 -1.028228 -1.051316 0.005957961 -1.008801 1.031453 0.01266211 -1.666536 0.4022437 0.01101613 1.014469 1.037248 0.007713496 0 1.366384 0.01831197 1.20019 -0.6477608 0.5763211 -0.4511444 -1.031422 0.567153 -1.491453 0 0.5794047 -0.4594201 1.050343 0.5775568 1.169192 0.6310307 0.5614362 0.2688947 -0.6147787 0.8850248 0.9573672 0 0.9736937 -0.7398001 -0.3992782 0.9300441 -0.8100016 0.4371667 1.018298 0.2657544 0.6075991 0.8746892</float_array>
          <technique_common>
            <accessor source="#Icosphere-mesh-positions-array" count="42" stride="3">
              <param name="X" type="float"/>
              <param name="Y" type="float"/>
              <param name="Z" type="float"/>
            </accessor>
          </technique_common>
        </source>
        <source id="Icosphere-mesh-normals">
          <float_array id="Icosphere-mesh-normals-array" count="240">0.01986426 0.02673274 -0.9994452 -0.02169084 0.02351868 -0.9994881 -0.01526671 0.0420826 -0.9989975 -0.01528024 2.34343e-4 -0.9998832 -0.02381491 -0.003499746 -0.9997102 0.02233076 0.00809592 -0.9997179 -0.01284772 0.137853 -0.9903694 -0.03922891 -0.02939575 -0.9987978 0.02374666 -0.008638501 -0.9996807 0.00143671 -0.08307003 -0.9965427 0.3141018 -0.311461 -0.8968457 0.09903782 0.4266648 -0.8989709 -0.1674507 -0.006417036 -0.9858596 0.03245002 -0.08093374 -0.9961911 -0.1512784 -0.1755129 -0.9727847 0.2464267 -0.544692 0.8016138 -0.3281907 -0.5785285 0.7467234 -0.6369613 0.2667632 0.7232687 0.04808402 0.6097171 0.7911592 0.6021581 0.2850705 0.7457483 0.1534211 0.3266007 0.9326274 0.2807662 0.4571024 0.8439359 0.2661765 0.5270269 0.807089 0.06651663 0.363218 0.9293267 0.01761674 0.5769034 0.8166225 -0.346933 0.670058 0.6562467 -0.1999706 -0.1193927 0.9725005 -0.4756655 -0.1316861 0.8697132 -0.5272011 -0.2915368 0.7981637 -0.04157024 -0.3870095 0.9211382 -0.07348448 -0.5215414 0.8500556 0.01836031 -0.6263218 0.7793484 0.1544151 -0.3083085 0.9386703 0.270747 -0.4275951 0.8624724 0.6106297 -0.2350161 0.75624 0.7388305 0.3916262 0.5484145 0.6398702 0.693899 0.330258 0.4691706 0.7694532 0.4333829 0.007505238 0.8679205 0.4966464 -0.3050765 0.9143894 0.2661208 -0.3948022 0.847147 0.3556308 -0.8342707 0.2950332 0.4657766 -0.9450247 0.04610991 0.3237317 -0.7680866 -0.34078 0.5421365 -0.3978691 -0.8062911 0.4377157 -0.2207788 -0.9399335 0.260349 -0.03483217 -0.9165 0.3985151 0.4438496 -0.7867265 0.429021 0.712245 -0.6575312 0.2456824 0.8084564 -0.3858804 0.4444034 0.3025989 0.9253178 0.2285188 -0.006500482 0.01216179 -0.9999049 -0.0147956 0.002657771 -0.999887 -0.6879932 0.7189255 0.09905236 0.004432559 -0.002017676 -0.9999882 -1.46498e-4 0.008825957 -0.9999611 -0.6665797 -0.7076168 0.2344142 -0.028328 -0.004175543 -0.99959 0.05795484 0.02746504 -0.9979414 0.2299755 -0.9610191 0.1534715 0.002768218 0.1103162 -0.9938927 0.00125271 -0.0698654 -0.9975556 0.9744256 -0.07772862 0.2108389 -0.03190577 -0.003920614 -0.9994832 -0.04923135 0.002540111 -0.9987842 0.05223268 0.0457499 -0.9975864 -0.02410745 -0.004799842 -0.9996979 -0.01749688 -0.02040976 -0.9996386 0.02035713 -0.00385487 -0.9997854 0.02242648 -0.03375428 -0.9991785 0.04403513 -0.02539879 -0.9987071 0.04403024 0.02941972 -0.9985969 -0.006206274 0.05071008 -0.9986941 -0.008503437 -0.06897193 -0.9975824 0.05137026 0.04734361 -0.9975569 0.006389439 -0.029612 -0.9995411 -0.01013123 -0.02884513 -0.9995325 0.004060745 -0.07444071 -0.9972172 0.03123301 -0.0223391 -0.9992625 -0.03020799 0.007739365 -0.9995137</float_array>
          <technique_common>
            <accessor source="#Icosphere-mesh-normals-array" count="80" stride="3">
              <param name="X" type="float"/>
              <param name="Y" type="float"/>
              <param name="Z" type="float"/>
            </accessor>
          </technique_common>
        </source>
        <source id="Icosphere-mesh-map-0">
          <float_array id="Icosphere-mesh-map-0-array" count="480">0.259376 0.260603 0.2212511 0.1139903 0.3772284 0.2193468 0.1945447 0.01144355 0.2212511 0.1139903 0.07583975 0.0633378 0.259376 0.260603 0.3772284 0.2193468 0.3678733 0.3771756 0.259376 0.260603 0.3678733 0.3771756 0.2077447 0.3796831 0.259376 0.260603 0.2077447 0.3796831 0.1084963 0.2095443 0.1945447 0.01144355 0.07583975 0.0633378 0.1157708 0.005399882 0.4601904 0.1902382 0.3383241 0.0785371 0.4249836 0.1065483 0.45361 0.4694371 0.4815739 0.3359045 0.5148504 0.4296918 0.1761435 0.4525547 0.3168868 0.4818142 0.2474653 0.5127357 0.02562695 0.181396 0.081164 0.3230523 0.005615293 0.2542861 0.1945447 0.01144355 0.1157708 0.005399882 0.2714275 0.005399882 0.4601904 0.1902382 0.4249836 0.1065483 0.5165254 0.2670736 0.45361 0.4694371 0.5148504 0.4296918 0.4064283 0.5220138 0.1761435 0.4525547 0.2474653 0.5127357 0.08436375 0.423421 0.02562695 0.181396 0.005615293 0.2542861 0.005399823 0.09254044 0.6244125 0.5944366 0.6723622 0.491654 0.7133892 0.6509191 0.624434 0.9071693 0.6289902 0.7555815 0.7194374 0.8312302 0.228313 0.7234123 0.1154273 0.6714353 0.2473827 0.5957089 0.6750708 0.3057394 0.6159468 0.1516612 0.7557638 0.2238314 0.9024561 0.411103 0.7957766 0.3830718 0.8975918 0.2916882 0.8975918 0.2916882 0.7557638 0.2238314 0.8369432 0.1335918 0.8975918 0.2916882 0.7957766 0.3830718 0.7557638 0.2238314 0.7957766 0.3830718 0.6750708 0.3057394 0.7557638 0.2238314 0.7557638 0.2238314 0.707115 0.03809678 0.8369432 0.1335918 0.7557638 0.2238314 0.6159468 0.1516612 0.707115 0.03809678 0.6159468 0.1516612 0.5915834 0.005399823 0.707115 0.03809678 0.707115 0.03809678 0.814737 0.005399823 0.8369432 0.1335918 0.2473827 0.5957089 0.1154273 0.6714353 0.116963 0.5328136 0.1154273 0.6714353 0.01815801 0.60907 0.116963 0.5328136 0.7194374 0.8312302 0.7133892 0.6509191 0.7837798 0.7225435 0.7194374 0.8312302 0.6289902 0.7555815 0.7133892 0.6509191 0.6289902 0.7555815 0.6244125 0.5944366 0.7133892 0.6509191 0.9173052 0.1531311 0.8975918 0.2916882 0.8369432 0.1335918 0.2857397 0.5349446 0.3811051 0.5899003 0.2747616 0.6697779 0.3811051 0.5899003 0.381338 0.7177643 0.2747616 0.6697779 0.4449646 0.8068968 0.321552 0.7974443 0.381338 0.7177643 0.8186305 0.480854 0.6829079 0.411589 0.7957766 0.3830718 0.6829079 0.411589 0.6750708 0.3057394 0.7957766 0.3830718 0.5620229 0.2713397 0.6159468 0.1516612 0.6750708 0.3057394 0.5620229 0.2713397 0.5273253 0.09445655 0.6159468 0.1516612 0.5273253 0.09445655 0.5915834 0.005399823 0.6159468 0.1516612 0.1316117 0.7938258 0.1154273 0.6714353 0.228313 0.7234123 0.1316117 0.7938258 0.005399823 0.7279794 0.1154273 0.6714353 0.005399823 0.7279794 0.01815801 0.60907 0.1154273 0.6714353 0.5273252 0.852991 0.6289902 0.7555815 0.624434 0.9071693 0.5273252 0.852991 0.5273252 0.6682157 0.6289902 0.7555815 0.5273252 0.6682157 0.6244125 0.5944366 0.6289902 0.7555815 0.5589111 0.5055103 0.6723622 0.491654 0.6244125 0.5944366 0.4789594 0.5328136 0.4789594 0.672421 0.3811051 0.5899003 0.4789594 0.672421 0.381338 0.7177643 0.3811051 0.5899003 0.6829079 0.411589 0.5620229 0.2713397 0.6750708 0.3057394 0.005615293 0.2542861 0.081164 0.3230523 0.08436375 0.423421 0.081164 0.3230523 0.1761435 0.4525547 0.08436375 0.423421 0.2639619 0.7938258 0.1316117 0.7938258 0.228313 0.7234123 0.2474653 0.5127357 0.3168868 0.4818142 0.4064283 0.5220138 0.3168868 0.4818142 0.45361 0.4694371 0.4064283 0.5220138 0.5557362 0.9946 0.5273252 0.852991 0.624434 0.9071693 0.5148504 0.4296918 0.4815739 0.3359045 0.5165254 0.2670736 0.4815739 0.3359045 0.4601904 0.1902382 0.5165254 0.2670736 0.5273252 0.6682157 0.5589111 0.5055103 0.6244125 0.5944366 0.4249836 0.1065483 0.3383241 0.0785371 0.2714275 0.005399882 0.3383241 0.0785371 0.1945447 0.01144355 0.2714275 0.005399882 0.4789594 0.672421 0.4449646 0.8068968 0.381338 0.7177643 0.1157708 0.005399882 0.07583975 0.0633378 0.005399823 0.09254044 0.07583975 0.0633378 0.02562695 0.181396 0.005399823 0.09254044 0.1084963 0.2095443 0.081164 0.3230523 0.02562695 0.181396 0.1084963 0.2095443 0.2077447 0.3796831 0.081164 0.3230523 0.2077447 0.3796831 0.1761435 0.4525547 0.081164 0.3230523 0.2077447 0.3796831 0.3168868 0.4818142 0.1761435 0.4525547 0.2077447 0.3796831 0.3678733 0.3771756 0.3168868 0.4818142 0.3678733 0.3771756 0.45361 0.4694371 0.3168868 0.4818142 0.3678733 0.3771756 0.4815739 0.3359045 0.45361 0.4694371 0.3678733 0.3771756 0.3772284 0.2193468 0.4815739 0.3359045 0.3772284 0.2193468 0.4601904 0.1902382 0.4815739 0.3359045 0.07583975 0.0633378 0.1084963 0.2095443 0.02562695 0.181396 0.07583975 0.0633378 0.2212511 0.1139903 0.1084963 0.2095443 0.2212511 0.1139903 0.259376 0.260603 0.1084963 0.2095443 0.3772284 0.2193468 0.3383241 0.0785371 0.4601904 0.1902382 0.3772284 0.2193468 0.2212511 0.1139903 0.3383241 0.0785371 0.2212511 0.1139903 0.1945447 0.01144355 0.3383241 0.0785371</float_array>
          <technique_common>
            <accessor source="#Icosphere-mesh-map-0-array" count="240" stride="2">
              <param name="S" type="float"/>
              <param name="T" type="float"/>
            </accessor>
          </technique_common>
        </source>
        <vertices id="Icosphere-mesh-vertices">
          <input semantic="POSITION" source="#Icosphere-mesh-positions"/>
        </vertices>
        <triangles material="ROCK_33-material" count="80">
          <input semantic="VERTEX" source="#Icosphere-mesh-vertices" offset="0"/>
          <input semantic="NORMAL" source="#Icosphere-mesh-normals" offset="1"/>
          <input semantic="TEXCOORD" source="#Icosphere-mesh-map-0" offset="2" set="0"/>
          <p>0 0 0 13 0 1 12 0 2 1 1 3 13 1 4 15 1 5 0 2 6 12 2 7 17 2 8 0 3 9 17 3 10 19 3 11 0 4 12 19 4 13 16 4 14 1 5 15 15 5 16 22 5 17 2 6 18 14 6 19 24 6 20 3 7 21 18 7 22 26 7 23 4 8 24 20 8 25 28 8 26 5 9 27 21 9 28 30 9 29 1 10 30 22 10 31 25 10 32 2 11 33 24 11 34 27 11 35 3 12 36 26 12 37 29 12 38 4 13 39 28 13 40 31 13 41 5 14 42 30 14 43 23 14 44 6 15 45 32 15 46 37 15 47 7 16 48 33 16 49 39 16 50 8 17 51 34 17 52 40 17 53 9 18 54 35 18 55 41 18 56 10 19 57 36 19 58 38 19 59 38 20 60 41 20 61 11 20 62 38 21 63 36 21 64 41 21 65 36 22 66 9 22 67 41 22 68 41 23 69 40 23 70 11 23 71 41 24 72 35 24 73 40 24 74 35 25 75 8 25 76 40 25 77 40 26 78 39 26 79 11 26 80 40 27 81 34 27 82 39 27 83 34 28 84 7 28 85 39 28 86 39 29 87 37 29 88 11 29 89 39 30 90 33 30 91 37 30 92 33 31 93 6 31 94 37 31 95 37 32 96 38 32 97 11 32 98 37 33 99 32 33 100 38 33 101 32 34 102 10 34 103 38 34 104 23 35 105 36 35 106 10 35 107 23 36 108 30 36 109 36 36 110 30 37 111 9 37 112 36 37 113 31 38 114 35 38 115 9 38 116 31 39 117 28 39 118 35 39 119 28 40 120 8 40 121 35 40 122 29 41 123 34 41 124 8 41 125 29 42 126 26 42 127 34 42 128 26 43 129 7 43 130 34 43 131 27 44 132 33 44 133 7 44 134 27 45 135 24 45 136 33 45 137 24 46 138 6 46 139 33 46 140 25 47 141 32 47 142 6 47 143 25 48 144 22 48 145 32 48 146 22 49 147 10 49 148 32 49 149 30 50 150 31 50 151 9 50 152 30 51 153 21 51 154 31 51 155 21 52 156 4 52 157 31 52 158 28 53 159 29 53 160 8 53 161 28 54 162 20 54 163 29 54 164 20 55 165 3 55 166 29 55 167 26 56 168 27 56 169 7 56 170 26 57 171 18 57 172 27 57 173 18 58 174 2 58 175 27 58 176 24 59 177 25 59 178 6 59 179 24 60 180 14 60 181 25 60 182 14 61 183 1 61 184 25 61 185 22 62 186 23 62 187 10 62 188 22 63 189 15 63 190 23 63 191 15 64 192 5 64 193 23 64 194 16 65 195 21 65 196 5 65 197 16 66 198 19 66 199 21 66 200 19 67 201 4 67 202 21 67 203 19 68 204 20 68 205 4 68 206 19 69 207 17 69 208 20 69 209 17 70 210 3 70 211 20 70 212 17 71 213 18 71 214 3 71 215 17 72 216 12 72 217 18 72 218 12 73 219 2 73 220 18 73 221 15 74 222 16 74 223 5 74 224 15 75 225 13 75 226 16 75 227 13 76 228 0 76 229 16 76 230 12 77 231 14 77 232 2 77 233 12 78 234 13 78 235 14 78 236 13 79 237 1 79 238 14 79 239</p>
        </triangles>
      </mesh>
    </geometry>
  </library_geometries>
  <library_visual_scenes>
    <visual_scene id="Scene" name="Scene">
      <node id="rock_root" name="rock_root" type="NODE">
        <matrix sid="transform">1 0 0 0 0 1 0 0 0 0 1 0 0 0 0 1</matrix>
        <node id="rock_mesh" name="rock_mesh" type="NODE">
          <matrix sid="transform">1 0 0 0 0 1 0 0 0 0 1 -0.002103925 0 0 0 1</matrix>
          <instance_geometry url="#Icosphere-mesh" name="rock_mesh">
            <bind_material>
              <technique_common>
                <instance_material symbol="ROCK_33-material" target="#ROCK_33-material">
                  <bind_vertex_input semantic="UVMap" input_semantic="TEXCOORD" input_set="0"/>
                </instance_material>
              </technique_common>
            </bind_material>
          </instance_geometry>
        </node>
      </node>
    </visual_scene>
  </library_visual_scenes>
  <scene>
    <instance_visual_scene url="#Scene"/>
  </scene>
</COLLADA>