<?xml version="1.0" encoding="utf-8"?>
<COLLADA xmlns="http://www.collada.org/2005/11/COLLADASchema" version="1.4.1" xmlns:xsi="http://www.w3.org/2001/XMLSchema-instance">
  <asset>
    <contributor>
      <author>Blender User</author>
      <authoring_tool>Blender 4.2.9 LTS commit date:2025-04-14, commit time:12:24, hash:a10f621e649a</authoring_tool>
    </contributor>
    <created>2026-08-01T07:51:24</created>
    <modified>2026-08-01T07:51:24</modified>
    <unit name="meter" meter="1"/>
    <up_axis>Z_UP</up_axis>
  </asset>
  <library_effects>
    <effect id="Colmesh_Material-effect">
      <profile_COMMON>
        <technique sid="common">
          <lambert>
            <emission>
              <color sid="emission">0 0 0 1</color>
            </emission>
            <diffuse>
              <color sid="diffuse">1 0 1 1</color>
            </diffuse>
            <transparent opaque="A_ONE">
              <color sid="alpha">0 0 0 0.15</color>
            </transparent>
            <index_of_refraction>
              <float sid="ior">1.5</float>
            </index_of_refraction>
          </lambert>
        </technique>
      </profile_COMMON>
    </effect>
    <effect id="rock_006-effect">
      <profile_COMMON>
        <newparam sid="rock_red_png-surface">
          <surface type="2D">
            <init_from>rock_red_png</init_from>
          </surface>
        </newparam>
        <newparam sid="rock_red_png-sampler">
          <sampler2D>
            <source>rock_red_png-surface</source>
          </sampler2D>
        </newparam>
        <technique sid="common">
          <lambert>
            <emission>
              <color sid="emission">0 0 0 1</color>
            </emission>
            <diffuse>
              <texture texture="rock_red_png-sampler" texcoord="UVMap"/>
            </diffuse>
            <index_of_refraction>
              <float sid="ior">1.5</float>
            </index_of_refraction>
          </lambert>
        </technique>
      </profile_COMMON>
    </effect>
  </library_effects>
  <library_images>
    <image id="rock_red_png" name="rock_red_png">
      <init_from>rock_red.png</init_from>
    </image>
  </library_images>
  <library_materials>
    <material id="Colmesh_Material-material" name="Colmesh_Material">
      <instance_effect url="#Colmesh_Material-effect"/>
    </material>
    <material id="rock_006-material" name="rock.006">
      <instance_effect url="#rock_006-effect"/>
    </material>
  </library_materials>
  <library_geometries>
    <geometry id="Colmesh_rock-1-mesh" name="Colmesh_rock-1">
      <mesh>
        <source id="Colmesh_rock-1-mesh-positions">
          <float_array id="Colmesh_rock-1-mesh-positions-array" count="48">0 0.5625 -0.418 0 0.5625 0.418 0.3977475 0.3977475 -0.418 0.3977475 0.3977475 0.418 0.5625 0 -0.418 0.5625 0 0.418 0.3977475 -0.3977475 -0.418 0.3977475 -0.3977475 0.418 0 -0.5625 -0.418 0 -0.5625 0.418 -0.3977475 -0.3977475 -0.418 -0.3977475 -0.3977475 0.418 -0.5625 0 -0.418 -0.5625 0 0.418 -0.3977475 0.3977475 -0.418 -0.3977475 0.3977475 0.418</float_array>
          <technique_common>
            <accessor source="#Colmesh_rock-1-mesh-positions-array" count="16" stride="3">
              <param name="X" type="float"/>
              <param name="Y" type="float"/>
              <param name="Z" type="float"/>
            </accessor>
          </technique_common>
        </source>
        <source id="Colmesh_rock-1-mesh-normals">
          <float_array id="Colmesh_rock-1-mesh-normals-array" count="84">0.3826835 0.9238796 0 0.9238796 0.3826835 0 0.9238796 -0.3826835 0 0.3826835 -0.9238796 0 -0.3826835 -0.9238796 0 -0.9238796 -0.3826835 0 0 0 1 -0.9238796 0.3826835 0 -0.3826835 0.9238796 0 0 0 -1 0.3826835 0.9238796 0 0.9238796 0.3826835 0 0.9238796 -0.3826835 0 0.3826835 -0.9238796 0 -0.3826835 -0.9238796 0 -0.9238796 -0.3826835 0 0 0 1 0 0 1 0 0 1 0 0 1 0 0 1 -0.9238796 0.3826835 0 -0.3826835 0.9238796 0 0 0 -1 0 0 -1 0 0 -1 0 0 -1 0 0 -1</float_array>
          <technique_common>
            <accessor source="#Colmesh_rock-1-mesh-normals-array" count="28" stride="3">
              <param name="X" type="float"/>
              <param name="Y" type="float"/>
              <param name="Z" type="float"/>
            </accessor>
          </technique_common>
        </source>
        <source id="Colmesh_rock-1-mesh-map-0">
          <float_array id="Colmesh_rock-1-mesh-map-0-array" count="168">1 1 0.875 0.5 1 0.5 0.875 1 0.75 0.5 0.875 0.5 0.75 1 0.625 0.5 0.75 0.5 0.625 1 0.5 0.5 0.625 0.5 0.5 1 0.375 0.5 0.5 0.5 0.375 1 0.25 0.5 0.375 0.5 0.00999999 0.25 0.25 0.00999999 0.49 0.25 0.25 1 0.125 0.5 0.25 0.5 0.125 1 0 0.5 0.125 0.5 0.9197056 0.08029437 0.5802944 0.08029437 0.5802944 0.4197056 1 1 0.875 1 0.875 0.5 0.875 1 0.75 1 0.75 0.5 0.75 1 0.625 1 0.625 0.5 0.625 1 0.5 1 0.5 0.5 0.5 1 0.375 1 0.375 0.5 0.375 1 0.25 1 0.25 0.5 0.49 0.25 0.4197056 0.4197056 0.25 0.49 0.25 0.49 0.08029437 0.4197056 0.00999999 0.25 0.00999999 0.25 0.08029437 0.08029437 0.25 0.00999999 0.25 0.00999999 0.4197056 0.08029437 0.49 0.25 0.49 0.25 0.25 0.49 0.00999999 0.25 0.25 1 0.125 1 0.125 0.5 0.125 1 0 1 0 0.5 0.5802944 0.4197056 0.75 0.49 0.9197056 0.4197056 0.9197056 0.4197056 0.99 0.25 0.9197056 0.08029437 0.9197056 0.08029437 0.75 0.00999999 0.5802944 0.08029437 0.5802944 0.08029437 0.51 0.25 0.5802944 0.4197056 0.5802944 0.4197056 0.9197056 0.4197056 0.9197056 0.08029437</float_array>
          <technique_common>
            <accessor source="#Colmesh_rock-1-mesh-map-0-array" count="84" stride="2">
              <param name="S" type="float"/>
              <param name="T" type="float"/>
            </accessor>
          </technique_common>
        </source>
        <vertices id="Colmesh_rock-1-mesh-vertices">
          <input semantic="POSITION" source="#Colmesh_rock-1-mesh-positions"/>
        </vertices>
        <triangles material="Colmesh_Material-material" count="28">
          <input semantic="VERTEX" source="#Colmesh_rock-1-mesh-vertices" offset="0"/>
          <input semantic="NORMAL" source="#Colmesh_rock-1-mesh-normals" offset="1"/>
          <input semantic="TEXCOORD" source="#Colmesh_rock-1-mesh-map-0" offset="2" set="0"/>
          <p>1 0 0 2 0 1 0 0 2 3 1 3 4 1 4 2 1 5 5 2 6 6 2 7 4 2 8 7 3 9 8 3 10 6 3 11 9 4 12 10 4 13 8 4 14 11 5 15 12 5 16 10 5 17 13 6 18 9 6 19 5 6 20 13 7 21 14 7 22 12 7 23 15 8 24 0 8 25 14 8 26 6 9 27 10 9 28 14 9 29 1 10 30 3 10 31 2 10 32 3 11 33 5 11 34 4 11 35 5 12 36 7 12 37 6 12 38 7 13 39 9 13 40 8 13 41 9 14 42 11 14 43 10 14 44 11 15 45 13 15 46 12 15 47 5 16 48 3 16 49 1 16 50 1 17 51 15 17 52 13 17 53 13 18 54 11 18 55 9 18 56 9 19 57 7 19 58 5 19 59 5 20 60 1 20 61 13 20 62 13 21 63 15 21 64 14 21 65 15 22 66 1 22 67 0 22 68 14 23 69 0 23 70 2 23 71 2 24 72 4 24 73 6 24 74 6 25 75 8 25 76 10 25 77 10 26 78 12 26 79 14 26 80 14 27 81 2 27 82 6 27 83</p>
        </triangles>
      </mesh>
    </geometry>
    <geometry id="rock_med_red_a_a800-mesh" name="rock_med_red_a_a800">
      <mesh>
        <source id="rock_med_red_a_a800-mesh-positions">
          <float_array id="rock_med_red_a_a800-mesh-positions-array" count="36">0 0 0.01999998 0.4804038 -0.2931849 0.01999998 -0.1669371 -0.431582 0.01999998 -0.6041629 0 0.01999998 -0.1672441 0.432376 0.01999998 0.4695908 0.2865859 0.01999998 0.1645131 -0.4253153 0.1874023 -0.4751505 -0.2899789 0.2067387 -0.4363294 0.2662869 0.1898475 0.1809241 0.4677428 0.2060967 0.5834991 0 0.2053928 0 0 0.4692754</float_array>
          <technique_common>
            <accessor source="#rock_med_red_a_a800-mesh-positions-array" count="12" stride="3">
              <param name="X" type="float"/>
              <param name="Y" type="float"/>
              <param name="Z" type="float"/>
            </accessor>
          </technique_common>
        </source>
        <source id="rock_med_red_a_a800-mesh-normals">
          <float_array id="rock_med_red_a_a800-mesh-normals-array" count="60">0 0 -1 0 0 -1 0 0 -1 0 0 -1 0 0 -1 0.8628202 0.01609194 -0.5052549 0.1956062 -0.9149314 -0.3530423 -0.597106 -0.6049144 -0.5268236 -0.6486818 0.6554971 -0.3866983 0.191122 0.8348525 -0.5162302 0.5577418 -0.5747705 0.5988013 -0.1794126 -0.9035747 0.3890553 -0.764127 0.07278984 0.6409459 -0.2953364 0.8737255 0.3864971 0.6667772 0.5731621 0.4763333 0.3765438 -0.4061591 0.8326162 -0.09725677 -0.5756783 0.8118718 -0.5112884 0.06171089 0.8571907 -0.1970209 0.5375325 0.8199034 0.3885295 0.333105 0.8591192</float_array>
          <technique_common>
            <accessor source="#rock_med_red_a_a800-mesh-normals-array" count="20" stride="3">
              <param name="X" type="float"/>
              <param name="Y" type="float"/>
              <param name="Z" type="float"/>
            </accessor>
          </technique_common>
        </source>
        <source id="rock_med_red_a_a800-mesh-map-0">
          <float_array id="rock_med_red_a_a800-mesh-map-0-array" count="120">0.6866101 0.2912307 0.6233738 0.6170534 0.5244525 0.354988 0.6233738 0.6170534 0.6866101 0.2912307 0.8226353 0.4195674 0.6866101 0.2912307 0.5244525 0.354988 0.6388703 0.003793895 0.6866101 0.2912307 0.6388703 0.003793895 0.8226353 0.06821984 0.6866101 0.2912307 0.8226353 0.06821984 0.8226353 0.4195674 0.8302235 0.9540795 0.8302234 0.6054478 0.9593846 0.7789967 0.5244525 0.354988 0.6233738 0.6170534 0.4714674 0.4841001 0.6388703 0.003793895 0.5244525 0.354988 0.4582404 0.131814 0.9099993 0.3646478 0.8302233 0.003793895 0.9781343 0.1598809 0.8302233 0.5978598 0.9099993 0.3646478 0.996206 0.5132877 0.4093837 0.7041464 0.3388244 0.7729855 0.2623425 0.5436262 0.5244525 0.354988 0.4714674 0.4841001 0.4582404 0.131814 0.4506525 0.3574969 0.2952128 0.5134293 0.3315166 0.1799932 0.9099993 0.3646478 0.9781343 0.1598809 0.996206 0.5132877 0.2332935 0.9588074 0.003793895 0.9324216 0.3388244 0.7729855 0.2623425 0.5436262 0.3388244 0.7729855 0.003793954 0.6019538 0.2952128 0.5134293 0.003793954 0.5360382 0.003793954 0.2916446 0.3315166 0.1799932 0.2952128 0.5134293 0.003793954 0.2916446 0.06483608 0.003793954 0.3315166 0.1799932 0.003793954 0.2916446 0.3388244 0.7729855 0.003793895 0.9324216 0.003793954 0.6019538</float_array>
          <technique_common>
            <accessor source="#rock_med_red_a_a800-mesh-map-0-array" count="60" stride="2">
              <param name="S" type="float"/>
              <param name="T" type="float"/>
            </accessor>
          </technique_common>
        </source>
        <vertices id="rock_med_red_a_a800-mesh-vertices">
          <input semantic="POSITION" source="#rock_med_red_a_a800-mesh-positions"/>
        </vertices>
        <triangles material="rock_006-material" count="20">
          <input semantic="VERTEX" source="#rock_med_red_a_a800-mesh-vertices" offset="0"/>
          <input semantic="NORMAL" source="#rock_med_red_a_a800-mesh-normals" offset="1"/>
          <input semantic="TEXCOORD" source="#rock_med_red_a_a800-mesh-map-0" offset="2" set="0"/>
          <p>0 0 0 1 0 1 2 0 2 1 1 3 0 1 4 5 1 5 0 2 6 2 2 7 3 2 8 0 3 9 3 3 10 4 3 11 0 4 12 4 4 13 5 4 14 1 5 15 5 5 16 10 5 17 2 6 18 1 6 19 6 6 20 3 7 21 2 7 22 7 7 23 4 8 24 3 8 25 8 8 26 5 9 27 4 9 28 9 9 29 1 10 30 10 10 31 6 10 32 2 11 33 6 11 34 7 11 35 3 12 36 7 12 37 8 12 38 4 13 39 8 13 40 9 13 41 5 14 42 9 14 43 10 14 44 6 15 45 10 15 46 11 15 47 7 16 48 6 16 49 11 16 50 8 17 51 7 17 52 11 17 53 9 18 54 8 18 55 11 18 56 10 19 57 9 19 58 11 19 59</p>
        </triangles>
      </mesh>
    </geometry>
  </library_geometries>
  <library_visual_scenes>
    <visual_scene id="Scene" name="Scene">
      <node id="base00" name="base00" type="NODE">
        <matrix sid="transform">1 0 0 0 0 1 0 0 0 0 1 0 0 0 0 1</matrix>
        <node id="start01" name="start01" type="NODE">
          <matrix sid="transform">1 0 0 0 0 1 0 0 0 0 1 0 0 0 0 1</matrix>
          <node id="rock_med_red_a_a800" name="rock_med_red_a_a800" type="NODE">
            <matrix sid="transform">1 0 0 0 0 1 0 0 0 0 1 0.48 0 0 0 1</matrix>
            <instance_geometry url="#rock_med_red_a_a800-mesh" name="rock_med_red_a_a800">
              <bind_material>
                <technique_common>
                  <instance_material symbol="rock_006-material" target="#rock_006-material">
                    <bind_vertex_input semantic="UVMap" input_semantic="TEXCOORD" input_set="0"/>
                  </instance_material>
                </technique_common>
              </bind_material>
            </instance_geometry>
          </node>
        </node>
        <node id="collision-1" name="collision-1" type="NODE">
          <matrix sid="transform">1 0 0 0 0 1 0 0 0 0 1 0 0 0 0 1</matrix>
          <node id="Colmesh_rock-1" name="Colmesh_rock-1" type="NODE">
            <matrix sid="transform">1 0 0 0 0 1 0 0 0 0 1 0.418 0 0 0 1</matrix>
            <instance_geometry url="#Colmesh_rock-1-mesh" name="Colmesh_rock-1">
              <bind_material>
                <technique_common>
                  <instance_material symbol="Colmesh_Material-material" target="#Colmesh_Material-material">
                    <bind_vertex_input semantic="UVMap" input_semantic="TEXCOORD" input_set="0"/>
                  </instance_material>
                </technique_common>
              </bind_material>
            </instance_geometry>
          </node>
        </node>
      </node>
    </visual_scene>
  </library_visual_scenes>
  <scene>
    <instance_visual_scene url="#Scene"/>
  </scene>
</COLLADA>