<?xml version="1.0" encoding="utf-8"?>
<COLLADA xmlns="http://www.collada.org/2005/11/COLLADASchema" version="1.4.1" xmlns:xsi="http://www.w3.org/2001/XMLSchema-instance">
  <asset>
    <contributor>
      <author>Blender User</author>
      <authoring_tool>Blender 4.2.9 LTS commit date:2025-04-14, commit time:12:24, hash:a10f621e649a</authoring_tool>
    </contributor>
    <created>2026-08-01T07:51:24</created>
    <modified>2026-08-01T07:51:24</modified>
    <unit name="meter" meter="1"/>
    <up_axis>Z_UP</up_axis>
  </asset>
  <library_effects>
    <effect id="Colmesh_Material-effect">
      <profile_COMMON>
        <technique sid="common">
          <lambert>
            <emission>
              <color sid="emission">0 0 0 1</color>
            </emission>
            <diffuse>
              <color sid="diffuse">1 0 1 1</color>
            </diffuse>
            <transparent opaque="A_ONE">
              <color sid="alpha">0 0 0 0.15</color>
            </transparent>
            <index_of_refraction>
              <float sid="ior">1.5</float>
            </index_of_refraction>
          </lambert>
        </technique>
      </profile_COMMON>
    </effect>
    <effect id="rock_004-effect">
      <profile_COMMON>
        <newparam sid="rock_tan_png-surface">
          <surface type="2D">
            <init_from>rock_tan_png</init_from>
          </surface>
        </newparam>
        <newparam sid="rock_tan_png-sampler">
          <sampler2D>
            <source>rock_tan_png-surface</source>
          </sampler2D>
        </newparam>
        <technique sid="common">
          <lambert>
            <emission>
              <color sid="emission">0 0 0 1</color>
            </emission>
            <diffuse>
              <texture texture="rock_tan_png-sampler" texcoord="UVMap"/>
            </diffuse>
            <index_of_refraction>
              <float sid="ior">1.5</float>
            </index_of_refraction>
          </lambert>
        </technique>
      </profile_COMMON>
    </effect>
  </library_effects>
  <library_images>
    <image id="rock_tan_png" name="rock_tan_png">
      <init_from>rock_tan.png</init_from>
    </image>
  </library_images>
  <library_materials>
    <material id="Colmesh_Material-material" name="Colmesh_Material">
      <instance_effect url="#Colmesh_Material-effect"/>
    </material>
    <material id="rock_004-material" name="rock.004">
      <instance_effect url="#rock_004-effect"/>
    </material>
  </library_materials>
  <library_geometries>
    <geometry id="Colmesh_rock-1-mesh" name="Colmesh_rock-1">
      <mesh>
        <source id="Colmesh_rock-1-mesh-positions">
          <float_array id="Colmesh_rock-1-mesh-positions-array" count="48">0 0.585 -0.38 0 0.585 0.38 0.4136574 0.4136574 -0.38 0.4136574 0.4136574 0.38 0.585 0 -0.38 0.585 0 0.38 0.4136574 -0.4136574 -0.38 0.4136574 -0.4136574 0.38 0 -0.585 -0.38 0 -0.585 0.38 -0.4136574 -0.4136574 -0.38 -0.4136574 -0.4136574 0.38 -0.585 0 -0.38 -0.585 0 0.38 -0.4136574 0.4136574 -0.38 -0.4136574 0.4136574 0.38</float_array>
          <technique_common>
            <accessor source="#Colmesh_rock-1-mesh-positions-array" count="16" stride="3">
              <param name="X" type="float"/>
              <param name="Y" type="float"/>
              <param name="Z" type="float"/>
            </accessor>
          </technique_common>
        </source>
        <source id="Colmesh_rock-1-mesh-normals">
          <float_array id="Colmesh_rock-1-mesh-normals-array" count="84">0.3826834 0.9238796 0 0.9238796 0.3826834 0 0.9238796 -0.3826834 0 0.3826834 -0.9238796 0 -0.3826834 -0.9238796 0 -0.9238796 -0.3826834 0 0 0 1 -0.9238796 0.3826834 0 -0.3826834 0.9238796 0 0 0 -1 0.3826834 0.9238796 0 0.9238796 0.3826834 0 0.9238796 -0.3826834 0 0.3826834 -0.9238796 0 -0.3826834 -0.9238796 0 -0.9238796 -0.3826834 0 0 0 1 0 0 1 0 0 1 0 0 1 0 0 1 -0.9238796 0.3826834 0 -0.3826834 0.9238796 0 0 0 -1 0 0 -1 0 0 -1 0 0 -1 0 0 -1</float_array>
          <technique_common>
            <accessor source="#Colmesh_rock-1-mesh-normals-array" count="28" stride="3">
              <param name="X" type="float"/>
              <param name="Y" type="float"/>
              <param name="Z" type="float"/>
            </accessor>
          </technique_common>
        </source>
        <source id="Colmesh_rock-1-mesh-map-0">
          <float_array id="Colmesh_rock-1-mesh-map-0-array" count="168">1 1 0.875 0.5 1 0.5 0.875 1 0.75 0.5 0.875 0.5 0.75 1 0.625 0.5 0.75 0.5 0.625 1 0.5 0.5 0.625 0.5 0.5 1 0.375 0.5 0.5 0.5 0.375 1 0.25 0.5 0.375 0.5 0.00999999 0.25 0.25 0.00999999 0.49 0.25 0.25 1 0.125 0.5 0.25 0.5 0.125 1 0 0.5 0.125 0.5 0.5802944 0.08029437 0.51 0.25 0.5802944 0.4197056 1 1 0.875 1 0.875 0.5 0.875 1 0.75 1 0.75 0.5 0.75 1 0.625 1 0.625 0.5 0.625 1 0.5 1 0.5 0.5 0.5 1 0.375 1 0.375 0.5 0.375 1 0.25 1 0.25 0.5 0.49 0.25 0.4197056 0.4197056 0.25 0.49 0.25 0.49 0.08029437 0.4197056 0.00999999 0.25 0.00999999 0.25 0.08029437 0.08029437 0.25 0.00999999 0.25 0.00999999 0.4197056 0.08029437 0.49 0.25 0.49 0.25 0.25 0.49 0.00999999 0.25 0.25 1 0.125 1 0.125 0.5 0.125 1 0 1 0 0.5 0.5802944 0.4197056 0.75 0.49 0.9197056 0.08029437 0.75 0.49 0.9197056 0.4197056 0.9197056 0.08029437 0.9197056 0.4197056 0.99 0.25 0.9197056 0.08029437 0.9197056 0.08029437 0.75 0.00999999 0.5802944 0.4197056 0.75 0.00999999 0.5802944 0.08029437 0.5802944 0.4197056</float_array>
          <technique_common>
            <accessor source="#Colmesh_rock-1-mesh-map-0-array" count="84" stride="2">
              <param name="S" type="float"/>
              <param name="T" type="float"/>
            </accessor>
          </technique_common>
        </source>
        <vertices id="Colmesh_rock-1-mesh-vertices">
          <input semantic="POSITION" source="#Colmesh_rock-1-mesh-positions"/>
        </vertices>
        <triangles material="Colmesh_Material-material" count="28">
          <input semantic="VERTEX" source="#Colmesh_rock-1-mesh-vertices" offset="0"/>
          <input semantic="NORMAL" source="#Colmesh_rock-1-mesh-normals" offset="1"/>
          <input semantic="TEXCOORD" source="#Colmesh_rock-1-mesh-map-0" offset="2" set="0"/>
          <p>1 0 0 2 0 1 0 0 2 3 1 3 4 1 4 2 1 5 5 2 6 6 2 7 4 2 8 7 3 9 8 3 10 6 3 11 9 4 12 10 4 13 8 4 14 11 5 15 12 5 16 10 5 17 13 6 18 9 6 19 5 6 20 13 7 21 14 7 22 12 7 23 15 8 24 0 8 25 14 8 26 10 9 27 12 9 28 14 9 29 1 10 30 3 10 31 2 10 32 3 11 33 5 11 34 4 11 35 5 12 36 7 12 37 6 12 38 7 13 39 9 13 40 8 13 41 9 14 42 11 14 43 10 14 44 11 15 45 13 15 46 12 15 47 5 16 48 3 16 49 1 16 50 1 17 51 15 17 52 13 17 53 13 18 54 11 18 55 9 18 56 9 19 57 7 19 58 5 19 59 5 20 60 1 20 61 13 20 62 13 21 63 15 21 64 14 21 65 15 22 66 1 22 67 0 22 68 14 23 69 0 23 70 6 23 71 0 24 72 2 24 73 6 24 74 2 25 75 4 25 76 6 25 77 6 26 78 8 26 79 14 26 80 8 27 81 10 27 82 14 27 83</p>
        </triangles>
      </mesh>
    </geometry>
    <geometry id="rock_med_tan_b_a800-mesh" name="rock_med_tan_b_a800">
      <mesh>
        <source id="rock_med_tan_b_a800-mesh-positions">
          <float_array id="rock_med_tan_b_a800-mesh-positions-array" count="36">0 0 0.01999998 0.4186322 -0.3294964 0.01999998 -0.1575685 -0.525367 0.01999998 -0.5820879 0 0.01999998 -0.1610949 0.5371247 0.01999998 0.4174494 0.3285654 0.01999998 0.1713503 -0.5713185 0.1848397 -0.4309092 -0.3391593 0.1775465 -0.4634386 0.3647626 0.1909496 0.1621373 0.5406005 0.1749015 0.579117 0 0.19304 0 0 0.3935561</float_array>
          <technique_common>
            <accessor source="#rock_med_tan_b_a800-mesh-positions-array" count="12" stride="3">
              <param name="X" type="float"/>
              <param name="Y" type="float"/>
              <param name="Z" type="float"/>
            </accessor>
          </technique_common>
        </source>
        <source id="rock_med_tan_b_a800-mesh-normals">
          <float_array id="rock_med_tan_b_a800-mesh-normals-array" count="60">0 0 -1 0 0 -1 0 0 -1 0 0 -1 0 0 -1 0.7319551 0.001315593 -0.6813517 0.2384976 -0.7015983 -0.6714751 -0.6650078 -0.5373552 -0.5186657 -0.6236021 0.4887731 -0.6100994 0.2740699 0.760271 -0.5889599 0.7635039 -0.5497978 0.3387982 -0.3302397 -0.8433816 0.4238506 -0.7700296 -0.04769843 0.6362227 -0.2294026 0.8580737 0.4594389 0.7169581 0.5666337 0.4060757 0.3176347 -0.2398723 0.917371 -0.1576015 -0.3802141 0.9113721 -0.424505 -0.03684264 0.9046757 -0.08787316 0.396044 0.9140172 0.3147342 0.273262 0.9089941</float_array>
          <technique_common>
            <accessor source="#rock_med_tan_b_a800-mesh-normals-array" count="20" stride="3">
              <param name="X" type="float"/>
              <param name="Y" type="float"/>
              <param name="Z" type="float"/>
            </accessor>
          </technique_common>
        </source>
        <source id="rock_med_tan_b_a800-mesh-map-0">
          <float_array id="rock_med_tan_b_a800-mesh-map-0-array" count="120">0.2520996 0.2583884 0.2453848 0.002629339 0.49454 0.1554069 0.2453848 0.002629339 0.2520996 0.2583884 0.002629339 0.2049747 0.2520996 0.2583884 0.49454 0.1554069 0.4306975 0.4734386 0.2520996 0.2583884 0.4306975 0.4734386 0.1030885 0.4827064 0.2520996 0.2583884 0.1030885 0.4827064 0.002629339 0.2049747 0.2453848 0.002629339 0.002629339 0.2049747 0.07441329 0.04443585 0.49454 0.1554069 0.2453848 0.002629339 0.4105968 0.01979017 0.4306975 0.4734386 0.49454 0.1554069 0.5096135 0.3135243 0.1030885 0.4827064 0.4306975 0.4734386 0.259533 0.5415216 0.002629339 0.2049747 0.1030885 0.4827064 0.002629339 0.364356 0.6671323 0.5293244 0.5148722 0.4338305 0.8365259 0.5346859 0.9433412 0.4405311 0.8365259 0.5346859 0.9973707 0.278106 0.9511815 0.1229988 0.9973707 0.278106 0.8044567 0.002629339 0.5148722 0.7041015 0.602773 0.5399447 0.602773 0.852109 0.6819793 0.6782632 0.6080316 0.7336137 0.6080317 0.5399447 0.8365259 0.5346859 0.5148722 0.4338305 0.7407556 0.2511034 0.9973707 0.278106 0.8365259 0.5346859 0.7407556 0.2511034 0.8044567 0.002629339 0.9973707 0.278106 0.7407556 0.2511034 0.5148723 0.1144424 0.8044567 0.002629339 0.7407556 0.2511034 0.5148722 0.4338305 0.5148723 0.1144424 0.7407556 0.2511034</float_array>
          <technique_common>
            <accessor source="#rock_med_tan_b_a800-mesh-map-0-array" count="60" stride="2">
              <param name="S" type="float"/>
              <param name="T" type="float"/>
            </accessor>
          </technique_common>
        </source>
        <vertices id="rock_med_tan_b_a800-mesh-vertices">
          <input semantic="POSITION" source="#rock_med_tan_b_a800-mesh-positions"/>
        </vertices>
        <triangles material="rock_004-material" count="20">
          <input semantic="VERTEX" source="#rock_med_tan_b_a800-mesh-vertices" offset="0"/>
          <input semantic="NORMAL" source="#rock_med_tan_b_a800-mesh-normals" offset="1"/>
          <input semantic="TEXCOORD" source="#rock_med_tan_b_a800-mesh-map-0" offset="2" set="0"/>
          <p>0 0 0 1 0 1 2 0 2 1 1 3 0 1 4 5 1 5 0 2 6 2 2 7 3 2 8 0 3 9 3 3 10 4 3 11 0 4 12 4 4 13 5 4 14 1 5 15 5 5 16 10 5 17 2 6 18 1 6 19 6 6 20 3 7 21 2 7 22 7 7 23 4 8 24 3 8 25 8 8 26 5 9 27 4 9 28 9 9 29 1 10 30 10 10 31 6 10 32 2 11 33 6 11 34 7 11 35 3 12 36 7 12 37 8 12 38 4 13 39 8 13 40 9 13 41 5 14 42 9 14 43 10 14 44 6 15 45 10 15 46 11 15 47 7 16 48 6 16 49 11 16 50 8 17 51 7 17 52 11 17 53 9 18 54 8 18 55 11 18 56 10 19 57 9 19 58 11 19 59</p>
        </triangles>
      </mesh>
    </geometry>
  </library_geometries>
  <library_visual_scenes>
    <visual_scene id="Scene" name="Scene">
      <node id="base00" name="base00" type="NODE">
        <matrix sid="transform">1 0 0 0 0 1 0 0 0 0 1 0 0 0 0 1</matrix>
        <node id="start01" name="start01" type="NODE">
          <matrix sid="transform">1 0 0 0 0 1 0 0 0 0 1 0 0 0 0 1</matrix>
          <node id="rock_med_tan_b_a800" name="rock_med_tan_b_a800" type="NODE">
            <matrix sid="transform">1 0 0 0 0 1 0 0 0 0 1 0.48 0 0 0 1</matrix>
            <instance_geometry url="#rock_med_tan_b_a800-mesh" name="rock_med_tan_b_a800">
              <bind_material>
                <technique_common>
                  <instance_material symbol="rock_004-material" target="#rock_004-material">
                    <bind_vertex_input semantic="UVMap" input_semantic="TEXCOORD" input_set="0"/>
                  </instance_material>
                </technique_common>
              </bind_material>
            </instance_geometry>
          </node>
        </node>
        <node id="collision-1" name="collision-1" type="NODE">
          <matrix sid="transform">1 0 0 0 0 1 0 0 0 0 1 0 0 0 0 1</matrix>
          <node id="Colmesh_rock-1" name="Colmesh_rock-1" type="NODE">
            <matrix sid="transform">1 0 0 0 0 1 0 0 0 0 1 0.38 0 0 0 1</matrix>
            <instance_geometry url="#Colmesh_rock-1-mesh" name="Colmesh_rock-1">
              <bind_material>
                <technique_common>
                  <instance_material symbol="Colmesh_Material-material" target="#Colmesh_Material-material">
                    <bind_vertex_input semantic="UVMap" input_semantic="TEXCOORD" input_set="0"/>
                  </instance_material>
                </technique_common>
              </bind_material>
            </instance_geometry>
          </node>
        </node>
      </node>
    </visual_scene>
  </library_visual_scenes>
  <scene>
    <instance_visual_scene url="#Scene"/>
  </scene>
</COLLADA>