<?xml version="1.0" encoding="utf-8"?>
<COLLADA xmlns="http://www.collada.org/2005/11/COLLADASchema" version="1.4.1" xmlns:xsi="http://www.w3.org/2001/XMLSchema-instance">
  <asset>
    <contributor>
      <author>Blender User</author>
      <authoring_tool>Blender 4.2.9 LTS commit date:2025-04-14, commit time:12:24, hash:a10f621e649a</authoring_tool>
    </contributor>
    <created>2026-08-01T07:51:24</created>
    <modified>2026-08-01T07:51:24</modified>
    <unit name="meter" meter="1"/>
    <up_axis>Z_UP</up_axis>
  </asset>
  <library_effects>
    <effect id="Colmesh_Material-effect">
      <profile_COMMON>
        <technique sid="common">
          <lambert>
            <emission>
              <color sid="emission">0 0 0 1</color>
            </emission>
            <diffuse>
              <color sid="diffuse">1 0 1 1</color>
            </diffuse>
            <transparent opaque="A_ONE">
              <color sid="alpha">0 0 0 0.15</color>
            </transparent>
            <index_of_refraction>
              <float sid="ior">1.5</float>
            </index_of_refraction>
          </lambert>
        </technique>
      </profile_COMMON>
    </effect>
    <effect id="rock-effect">
      <profile_COMMON>
        <newparam sid="rock_tan_png-surface">
          <surface type="2D">
            <init_from>rock_tan_png</init_from>
          </surface>
        </newparam>
        <newparam sid="rock_tan_png-sampler">
          <sampler2D>
            <source>rock_tan_png-surface</source>
          </sampler2D>
        </newparam>
        <technique sid="common">
          <lambert>
            <emission>
              <color sid="emission">0 0 0 1</color>
            </emission>
            <diffuse>
              <texture texture="rock_tan_png-sampler" texcoord="UVMap"/>
            </diffuse>
            <index_of_refraction>
              <float sid="ior">1.5</float>
            </index_of_refraction>
          </lambert>
        </technique>
      </profile_COMMON>
    </effect>
  </library_effects>
  <library_images>
    <image id="rock_tan_png" name="rock_tan_png">
      <init_from>rock_tan.png</init_from>
    </image>
  </library_images>
  <library_materials>
    <material id="Colmesh_Material-material" name="Colmesh_Material">
      <instance_effect url="#Colmesh_Material-effect"/>
    </material>
    <material id="rock-material" name="rock">
      <instance_effect url="#rock-effect"/>
    </material>
  </library_materials>
  <library_geometries>
    <geometry id="Colmesh_rock-1-mesh" name="Colmesh_rock-1">
      <mesh>
        <source id="Colmesh_rock-1-mesh-positions">
          <float_array id="Colmesh_rock-1-mesh-positions-array" count="48">0 0.2475 -0.16625 0 0.2475 0.16625 0.1750089 0.1750089 -0.16625 0.1750089 0.1750089 0.16625 0.2475 0 -0.16625 0.2475 0 0.16625 0.1750089 -0.1750089 -0.16625 0.1750089 -0.1750089 0.16625 0 -0.2475 -0.16625 0 -0.2475 0.16625 -0.1750089 -0.1750089 -0.16625 -0.1750089 -0.1750089 0.16625 -0.2475 0 -0.16625 -0.2475 0 0.16625 -0.1750089 0.1750089 -0.16625 -0.1750089 0.1750089 0.16625</float_array>
          <technique_common>
            <accessor source="#Colmesh_rock-1-mesh-positions-array" count="16" stride="3">
              <param name="X" type="float"/>
              <param name="Y" type="float"/>
              <param name="Z" type="float"/>
            </accessor>
          </technique_common>
        </source>
        <source id="Colmesh_rock-1-mesh-normals">
          <float_array id="Colmesh_rock-1-mesh-normals-array" count="84">0.3826835 0.9238795 0 0.9238795 0.3826835 0 0.9238795 -0.3826835 0 0.3826835 -0.9238795 0 -0.3826835 -0.9238795 0 -0.9238795 -0.3826835 0 0 0 1 -0.9238795 0.3826835 0 -0.3826835 0.9238795 0 0 0 -1 0.3826835 0.9238795 0 0.9238795 0.3826835 0 0.9238795 -0.3826835 0 0.3826835 -0.9238795 0 -0.3826835 -0.9238795 0 -0.9238795 -0.3826835 0 0 0 1 0 0 1 0 0 1 0 0 1 0 0 1 -0.9238795 0.3826835 0 -0.3826835 0.9238795 0 0 0 -1 0 0 -1 0 0 -1 0 0 -1 0 0 -1</float_array>
          <technique_common>
            <accessor source="#Colmesh_rock-1-mesh-normals-array" count="28" stride="3">
              <param name="X" type="float"/>
              <param name="Y" type="float"/>
              <param name="Z" type="float"/>
            </accessor>
          </technique_common>
        </source>
        <source id="Colmesh_rock-1-mesh-map-0">
          <float_array id="Colmesh_rock-1-mesh-map-0-array" count="168">1 1 0.875 0.5 1 0.5 0.875 1 0.75 0.5 0.875 0.5 0.75 1 0.625 0.5 0.75 0.5 0.625 1 0.5 0.5 0.625 0.5 0.5 1 0.375 0.5 0.5 0.5 0.375 1 0.25 0.5 0.375 0.5 0.4197056 0.08029437 0.49 0.25 0.00999999 0.25 0.25 1 0.125 0.5 0.25 0.5 0.125 1 0 0.5 0.125 0.5 0.9197056 0.08029437 0.5802944 0.08029437 0.5802944 0.4197056 1 1 0.875 1 0.875 0.5 0.875 1 0.75 1 0.75 0.5 0.75 1 0.625 1 0.625 0.5 0.625 1 0.5 1 0.5 0.5 0.5 1 0.375 1 0.375 0.5 0.375 1 0.25 1 0.25 0.5 0.49 0.25 0.4197056 0.4197056 0.25 0.49 0.25 0.49 0.08029437 0.4197056 0.49 0.25 0.08029437 0.4197056 0.00999999 0.25 0.49 0.25 0.00999999 0.25 0.08029437 0.08029437 0.25 0.00999999 0.25 0.00999999 0.4197056 0.08029437 0.00999999 0.25 0.25 1 0.125 1 0.125 0.5 0.125 1 0 1 0 0.5 0.5802944 0.4197056 0.75 0.49 0.9197056 0.4197056 0.9197056 0.4197056 0.99 0.25 0.9197056 0.08029437 0.9197056 0.08029437 0.75 0.00999999 0.5802944 0.08029437 0.5802944 0.08029437 0.51 0.25 0.5802944 0.4197056 0.5802944 0.4197056 0.9197056 0.4197056 0.9197056 0.08029437</float_array>
          <technique_common>
            <accessor source="#Colmesh_rock-1-mesh-map-0-array" count="84" stride="2">
              <param name="S" type="float"/>
              <param name="T" type="float"/>
            </accessor>
          </technique_common>
        </source>
        <vertices id="Colmesh_rock-1-mesh-vertices">
          <input semantic="POSITION" source="#Colmesh_rock-1-mesh-positions"/>
        </vertices>
        <triangles material="Colmesh_Material-material" count="28">
          <input semantic="VERTEX" source="#Colmesh_rock-1-mesh-vertices" offset="0"/>
          <input semantic="NORMAL" source="#Colmesh_rock-1-mesh-normals" offset="1"/>
          <input semantic="TEXCOORD" source="#Colmesh_rock-1-mesh-map-0" offset="2" set="0"/>
          <p>1 0 0 2 0 1 0 0 2 3 1 3 4 1 4 2 1 5 5 2 6 6 2 7 4 2 8 7 3 9 8 3 10 6 3 11 9 4 12 10 4 13 8 4 14 11 5 15 12 5 16 10 5 17 7 6 18 5 6 19 13 6 20 13 7 21 14 7 22 12 7 23 15 8 24 0 8 25 14 8 26 6 9 27 10 9 28 14 9 29 1 10 30 3 10 31 2 10 32 3 11 33 5 11 34 4 11 35 5 12 36 7 12 37 6 12 38 7 13 39 9 13 40 8 13 41 9 14 42 11 14 43 10 14 44 11 15 45 13 15 46 12 15 47 5 16 48 3 16 49 1 16 50 1 17 51 15 17 52 5 17 53 15 18 54 13 18 55 5 18 56 13 19 57 11 19 58 9 19 59 9 20 60 7 20 61 13 20 62 13 21 63 15 21 64 14 21 65 15 22 66 1 22 67 0 22 68 14 23 69 0 23 70 2 23 71 2 24 72 4 24 73 6 24 74 6 25 75 8 25 76 10 25 77 10 26 78 12 26 79 14 26 80 14 27 81 2 27 82 6 27 83</p>
        </triangles>
      </mesh>
    </geometry>
    <geometry id="rock_small_tan_a_a800-mesh" name="rock_small_tan_a_a800">
      <mesh>
        <source id="rock_small_tan_a_a800-mesh-positions">
          <float_array id="rock_small_tan_a_a800-mesh-positions-array" count="36">0 0 0.01999998 0.2093984 -0.1244741 0.01999998 -0.0904743 -0.2278276 0.01999998 -0.2509716 0 0.01999998 -0.07898229 0.1988891 0.01999998 0.2111972 0.1255434 0.01999998 0.07006239 -0.1764274 0.07214266 -0.2062803 -0.1226206 0.0811299 -0.2139658 0.1271891 0.08415257 0.08685219 0.2187066 0.08943098 0.2226486 0 0.07084316 0 0 0.167272</float_array>
          <technique_common>
            <accessor source="#rock_small_tan_a_a800-mesh-positions-array" count="12" stride="3">
              <param name="X" type="float"/>
              <param name="Y" type="float"/>
              <param name="Z" type="float"/>
            </accessor>
          </technique_common>
        </source>
        <source id="rock_small_tan_a_a800-mesh-normals">
          <float_array id="rock_small_tan_a_a800-mesh-normals-array" count="60">0 0 -1 0 0 -1 0 0 -1 0 0 -1 0 0 -1 0.9716991 -0.006991147 -0.2361187 0.3250232 -0.9430313 -0.07107734 -0.7140291 -0.5030108 -0.4869728 -0.5733547 0.4958081 -0.6522566 0.1856093 0.7343309 -0.6529222 0.4449313 -0.3788291 0.8114953 -0.08399617 -0.5681262 0.8186436 -0.8366588 -0.0323559 0.546768 -0.2729063 0.8738328 0.4024156 0.6390641 0.3380825 0.6908671 0.3766198 -0.3193207 0.8695928 -0.06806278 -0.4943081 0.8666182 -0.3737191 -0.02271741 0.9272637 -0.1311488 0.3782329 0.9163732 0.3918842 0.1664216 0.9048373</float_array>
          <technique_common>
            <accessor source="#rock_small_tan_a_a800-mesh-normals-array" count="20" stride="3">
              <param name="X" type="float"/>
              <param name="Y" type="float"/>
              <param name="Z" type="float"/>
            </accessor>
          </technique_common>
        </source>
        <source id="rock_small_tan_a_a800-mesh-map-0">
          <float_array id="rock_small_tan_a_a800-mesh-map-0-array" count="120">0.7338954 0.2950593 0.5048674 0.4889751 0.5048674 0.09823238 0.5048674 0.4889751 0.7338954 0.2950593 0.7953352 0.5914311 0.7338954 0.2950593 0.5048674 0.09823238 0.8346393 0.002758264 0.7338954 0.2950593 0.8346393 0.002758264 0.9972419 0.2829075 0.7338954 0.2950593 0.9972419 0.2829075 0.7953352 0.5914311 0.574782 0.9049554 0.574782 0.5969476 0.6392388 0.7515007 0.5048674 0.9876903 0.5048673 0.5969476 0.5692654 0.7800839 0.8346393 0.002758264 0.5048674 0.09823238 0.673886 0.005587399 0.9972419 0.2829075 0.8346393 0.002758264 0.9679189 0.09691381 0.7953352 0.5914311 0.9972419 0.2829075 0.9537543 0.4840064 0.4678778 0.5147653 0.3379181 0.5678617 0.4993507 0.3322126 0.4993507 0.1253922 0.4993507 0.3322126 0.3558068 0.01846444 0.1844066 0.002758264 0.3558068 0.01846444 0.06149166 0.08493047 0.002758264 0.2683687 0.06149166 0.08493047 0.04541009 0.4718026 0.1754443 0.5926446 0.04541009 0.4718026 0.3379181 0.5678617 0.4993507 0.3322126 0.3379181 0.5678617 0.2940076 0.3011917 0.3558068 0.01846444 0.4993507 0.3322126 0.2940076 0.3011917 0.06149166 0.08493047 0.3558068 0.01846444 0.2940076 0.3011917 0.04541009 0.4718026 0.06149166 0.08493047 0.2940076 0.3011917 0.3379181 0.5678617 0.04541009 0.4718026 0.2940076 0.3011917</float_array>
          <technique_common>
            <accessor source="#rock_small_tan_a_a800-mesh-map-0-array" count="60" stride="2">
              <param name="S" type="float"/>
              <param name="T" type="float"/>
            </accessor>
          </technique_common>
        </source>
        <vertices id="rock_small_tan_a_a800-mesh-vertices">
          <input semantic="POSITION" source="#rock_small_tan_a_a800-mesh-positions"/>
        </vertices>
        <triangles material="rock-material" count="20">
          <input semantic="VERTEX" source="#rock_small_tan_a_a800-mesh-vertices" offset="0"/>
          <input semantic="NORMAL" source="#rock_small_tan_a_a800-mesh-normals" offset="1"/>
          <input semantic="TEXCOORD" source="#rock_small_tan_a_a800-mesh-map-0" offset="2" set="0"/>
          <p>0 0 0 1 0 1 2 0 2 1 1 3 0 1 4 5 1 5 0 2 6 2 2 7 3 2 8 0 3 9 3 3 10 4 3 11 0 4 12 4 4 13 5 4 14 1 5 15 5 5 16 10 5 17 2 6 18 1 6 19 6 6 20 3 7 21 2 7 22 7 7 23 4 8 24 3 8 25 8 8 26 5 9 27 4 9 28 9 9 29 1 10 30 10 10 31 6 10 32 2 11 33 6 11 34 7 11 35 3 12 36 7 12 37 8 12 38 4 13 39 8 13 40 9 13 41 5 14 42 9 14 43 10 14 44 6 15 45 10 15 46 11 15 47 7 16 48 6 16 49 11 16 50 8 17 51 7 17 52 11 17 53 9 18 54 8 18 55 11 18 56 10 19 57 9 19 58 11 19 59</p>
        </triangles>
      </mesh>
    </geometry>
  </library_geometries>
  <library_visual_scenes>
    <visual_scene id="Scene" name="Scene">
      <node id="base00" name="base00" type="NODE">
        <matrix sid="transform">1 0 0 0 0 1 0 0 0 0 1 0 0 0 0 1</matrix>
        <node id="start01" name="start01" type="NODE">
          <matrix sid="transform">1 0 0 0 0 1 0 0 0 0 1 0 0 0 0 1</matrix>
          <node id="rock_small_tan_a_a800" name="rock_small_tan_a_a800" type="NODE">
            <matrix sid="transform">1 0 0 0 0 1 0 0 0 0 1 0.48 0 0 0 1</matrix>
            <instance_geometry url="#rock_small_tan_a_a800-mesh" name="rock_small_tan_a_a800">
              <bind_material>
                <technique_common>
                  <instance_material symbol="rock-material" target="#rock-material">
                    <bind_vertex_input semantic="UVMap" input_semantic="TEXCOORD" input_set="0"/>
                  </instance_material>
                </technique_common>
              </bind_material>
            </instance_geometry>
          </node>
        </node>
        <node id="collision-1" name="collision-1" type="NODE">
          <matrix sid="transform">1 0 0 0 0 1 0 0 0 0 1 0 0 0 0 1</matrix>
          <node id="Colmesh_rock-1" name="Colmesh_rock-1" type="NODE">
            <matrix sid="transform">1 0 0 0 0 1 0 0 0 0 1 0.16625 0 0 0 1</matrix>
            <instance_geometry url="#Colmesh_rock-1-mesh" name="Colmesh_rock-1">
              <bind_material>
                <technique_common>
                  <instance_material symbol="Colmesh_Material-material" target="#Colmesh_Material-material">
                    <bind_vertex_input semantic="UVMap" input_semantic="TEXCOORD" input_set="0"/>
                  </instance_material>
                </technique_common>
              </bind_material>
            </instance_geometry>
          </node>
        </node>
      </node>
    </visual_scene>
  </library_visual_scenes>
  <scene>
    <instance_visual_scene url="#Scene"/>
  </scene>
</COLLADA>