<?xml version="1.0" encoding="utf-8"?>
<COLLADA xmlns="http://www.collada.org/2005/11/COLLADASchema" version="1.4.1" xmlns:xsi="http://www.w3.org/2001/XMLSchema-instance">
  <asset>
    <contributor>
      <author>Blender User</author>
      <authoring_tool>Blender 4.2.9 LTS commit date:2025-04-14, commit time:12:24, hash:a10f621e649a</authoring_tool>
    </contributor>
    <created>2026-08-01T07:28:30</created>
    <modified>2026-08-01T07:28:30</modified>
    <unit name="meter" meter="1"/>
    <up_axis>Z_UP</up_axis>
  </asset>
  <library_effects>
    <effect id="ROCK_13-effect">
      <profile_COMMON>
        <newparam sid="rock_red_png-surface">
          <surface type="2D">
            <init_from>rock_red_png</init_from>
          </surface>
        </newparam>
        <newparam sid="rock_red_png-sampler">
          <sampler2D>
            <source>rock_red_png-surface</source>
          </sampler2D>
        </newparam>
        <technique sid="common">
          <lambert>
            <emission>
              <color sid="emission">0 0 0 1</color>
            </emission>
            <diffuse>
              <texture texture="rock_red_png-sampler" texcoord="UVMap"/>
            </diffuse>
            <index_of_refraction>
              <float sid="ior">1.5</float>
            </index_of_refraction>
          </lambert>
        </technique>
      </profile_COMMON>
    </effect>
  </library_effects>
  <library_images>
    <image id="rock_red_png" name="rock_red_png">
      <init_from>rock_red.png</init_from>
    </image>
  </library_images>
  <library_materials>
    <material id="ROCK_13-material" name="ROCK_13">
      <instance_effect url="#ROCK_13-effect"/>
    </material>
  </library_materials>
  <library_geometries>
    <geometry id="Icosphere-mesh" name="Icosphere">
      <mesh>
        <source id="Icosphere-mesh-positions">
          <float_array id="Icosphere-mesh-positions-array" count="126">0 0 0.02741026 0.2504266 -0.1455547 0.03397339 -0.06062227 -0.1492635 0.009222328 -0.1852247 0 0.0090065 -0.09215426 0.2269011 0.005208492 0.2436712 0.1416283 0.008556246 0.07624405 -0.1877273 0.07895648 -0.1746299 -0.1014996 0.06907427 -0.2269716 0.1319221 0.08977788 0.09690165 0.2385902 0.100349 0.2279892 0 0.07295691 0 0 0.1904867 -0.03676277 -0.09051698 0.03485137 0.1810088 -0.1052072 0.03224182 0.0979157 -0.2410783 0.02978998 0.3333854 0 0.03175079 0.1345463 0.07820194 0.03399753 -0.1469497 0 0.03020012 -0.1815816 -0.105541 0.01718306 -0.04834365 0.1190313 0.01719284 -0.1639037 0.09526604 0.004694402 0.1035292 0.2548992 0.03193032 0.335088 -0.08709996 0.02763688 0.2967371 0.07713139 0.02993643 0 -0.1855432 0.02707284 0.1726481 -0.1901036 0.007065296 -0.206667 -0.05371928 0.0209077 -0.1297086 -0.1428228 0.01837831 -0.1635423 0.1800773 0.01583027 -0.2048608 0.05324977 0.01963424 0.1669405 0.183819 0.00942713 0 0.2071973 0.01465755 0.1777225 -0.103298 0.08689248 -0.07959663 -0.195975 0.1018837 -0.2743617 0 0.1085228 -0.0733273 0.1805393 0.09385895 0.2557988 0.1486784 0.1250658 0.07213854 -0.1776187 0.2417497 0.14091 0 0.1459187 -0.08792406 -0.05110383 0.112544 -0.1548225 0.08998703 0.1981748 0.07176059 0.1766882 0.2404832</float_array>
          <technique_common>
            <accessor source="#Icosphere-mesh-positions-array" count="42" stride="3">
              <param name="X" type="float"/>
              <param name="Y" type="float"/>
              <param name="Z" type="float"/>
            </accessor>
          </technique_common>
        </source>
        <source id="Icosphere-mesh-normals">
          <float_array id="Icosphere-mesh-normals-array" count="240">0.01701021 0.07505398 0.9970343 -0.01206648 0.02214246 0.999682 0.01892906 0.07427656 0.997058 0.01889902 0.0931254 0.9954751 -0.07960504 0.05311316 0.9954105 0.1053292 -0.04486262 0.9934249 0.4886556 0.8665364 0.1016386 0.3141527 0.08410555 0.9456396 0.227415 -0.127726 0.9653851 0.263995 0.4971775 -0.8265115 0.5419003 -0.8093842 -0.2263649 0.1593372 0.6372405 0.7540135 0.4808457 0.002318739 0.8768022 0.03911745 -0.2774006 -0.9599577 -0.2875119 -0.5061037 -0.8131396 -0.6353191 0.7696089 -0.063811 0.4039563 0.09020513 -0.9103199 0.7151197 -0.3434012 -0.6088345 0.3154914 -0.8876403 -0.3354994 -0.5985922 0.3623518 -0.7144148 -0.2807362 0.3651781 -0.8875992 -0.48495 0.2575162 -0.8357685 -0.3931612 -0.8129217 -0.4296309 0.089845 0.2372196 -0.9672925 0.3917359 -0.8240373 -0.4092746 0.2733299 -0.8218399 -0.49987 0.3098407 0.5963472 -0.7405193 0.1735075 0.5697874 -0.8032668 0.151152 0.4835969 -0.862141 0.6482989 0.04392236 -0.760118 0.6687562 0.09272235 -0.7376772 -0.06204456 0.9960567 -0.06341463 -0.2802201 -0.3695106 -0.8859676 -0.8308439 0.0216661 -0.5560836 -0.6286395 0.2046909 -0.750276 -0.7429279 0.3408657 -0.5760806 -0.636544 -0.722606 0.2695412 -0.5033814 -0.8546674 0.1270861 0.3233577 -0.9460848 -0.01906257 0.1597066 -0.9708183 -0.1789011 0.2925046 -0.8964555 -0.3328795 0.828392 -0.224672 0.5131171 0.7895146 -0.006025433 0.6137022 0.734762 0.6581594 0.1641679 0.6982853 0.7149133 0.03600704 0.2621534 0.8776288 0.4013022 -0.03821033 0.9944513 0.09801352 -0.4616207 0.6149328 -0.6393464 -0.3254194 0.6502929 -0.6864556 -0.3562719 0.04747748 -0.9331753 -0.1100801 -0.8865833 0.4492797 0.01411086 0.3132145 -0.9495776 0.1214568 0.09419292 -0.9881173 0.8091832 -0.2476382 0.5328207 0.445244 -0.1184331 0.8875423 0.3815231 -0.0435931 0.9233308 0.7513059 0.6449257 0.1400364 0.112908 0.1254978 -0.985648 0.1494171 0.2386586 0.9595398 0.02672958 0.9996387 0.002801358 -0.1179541 -0.2549254 -0.9597395 0.5282968 -0.8372993 -0.1408277 -0.451168 -0.09292745 -0.8875877 0.1532743 0.04961115 -0.9869376 -0.6355957 -0.2851211 0.7174427 0.200965 0.04672455 0.9784834 -0.09251385 -0.004590809 0.9957008 -0.1424146 0.05197548 0.9884415 -0.1198045 0.06143093 0.9908951 -0.1513515 0.2304216 0.9612485 -0.4791952 0.146418 0.8654096 -0.4837857 0.05098879 0.8736999 -0.1119301 -0.08537971 0.9900414 -0.07408833 -0.373338 0.9247322 0.09784162 0.2208966 0.9703771 0.008367657 -0.00745213 0.9999372 -0.03779166 -0.01913756 0.9991024 -0.2835163 -0.284395 0.9158264 0.01033532 -0.02435988 0.9996498 -0.02613192 -0.002058088 0.9996563</float_array>
          <technique_common>
            <accessor source="#Icosphere-mesh-normals-array" count="80" stride="3">
              <param name="X" type="float"/>
              <param name="Y" type="float"/>
              <param name="Z" type="float"/>
            </accessor>
          </technique_common>
        </source>
        <source id="Icosphere-mesh-map-0">
          <float_array id="Icosphere-mesh-map-0-array" count="480">0.2253991 0.2267276 0.2763742 0.1530354 0.3933991 0.3098452 0.4578408 0.3417407 0.3863864 0.4765961 0.3933991 0.3098452 0.2253991 0.2267276 0.1539416 0.1158354 0.2763742 0.1530354 0.2253991 0.2267276 0.1115896 0.2510353 0.1539416 0.1158354 0.2253991 0.2267276 0.2297575 0.3655554 0.1115896 0.2510353 0.4578408 0.3417407 0.4545852 0.4353625 0.3863864 0.4765961 0.8766891 0.7692184 0.8676272 0.7049439 0.8766891 0.605153 0.1376484 0.09047126 0.1672906 0.04581743 0.2196592 0.03958207 0.008740067 0.2735011 0.009031414 0.1949324 0.07521456 0.1544094 0.7790321 0.7265481 0.7956685 0.7943058 0.7790321 0.8668804 0.8299848 0.1696003 0.8527005 0.08894491 0.8388089 0.261672 0.3126797 0.1100983 0.2733052 0.05989706 0.3680307 0.1348118 0.1376484 0.09047126 0.08609092 0.1004019 0.1672906 0.04581743 0.8106823 0.5328119 0.8431336 0.4624803 0.8431336 0.5901508 0.8265237 0.8290274 0.8106822 0.8803825 0.8106822 0.7652783 0.4728431 0.141758 0.508482 0.0557323 0.5715804 0.2052605 0.702117 0.6627927 0.6637899 0.5709153 0.7956799 0.581395 0.4874569 0.6739655 0.5358774 0.5685599 0.6057882 0.7115458 0.3145391 0.4980972 0.4550725 0.5169625 0.3344354 0.6613218 0.6706656 0.2389647 0.6623306 0.1364505 0.8149825 0.2175278 0.6623306 0.1364505 0.6362617 0.007501065 0.8149825 0.01729327 0.6623306 0.1364505 0.8149825 0.01729327 0.8149825 0.2175278 0.5075661 0.898141 0.4728431 0.7265481 0.5852214 0.7492341 0.4728431 0.3672633 0.6267593 0.4610264 0.5358774 0.5685599 0.4550725 0.5169625 0.4550725 0.7420805 0.3344354 0.6613218 0.3344354 0.6613218 0.4550725 0.7420805 0.3528503 0.8072511 0.5358774 0.5685599 0.6267593 0.4610264 0.6637899 0.5709153 0.5358774 0.5685599 0.6637899 0.5709153 0.6057882 0.7115458 0.6057882 0.7115458 0.6637899 0.5709153 0.702117 0.6627927 0.6637899 0.5709153 0.6267593 0.4610264 0.7956799 0.3946967 0.6637899 0.5709153 0.7956799 0.3946967 0.7956799 0.581395 0.08948141 0.6237949 0.007501065 0.5024756 0.1506534 0.5390507 0.508482 0.0557323 0.6362617 0.007501065 0.6623306 0.1364505 0.508482 0.0557323 0.6623306 0.1364505 0.5715804 0.2052605 0.5715804 0.2052605 0.6623306 0.1364505 0.6706656 0.2389647 0.746533 0.3041257 0.6706656 0.2389647 0.8149825 0.2175278 0.5721911 0.9924989 0.5075661 0.898141 0.6369413 0.8525096 0.6369413 0.8525096 0.5075661 0.898141 0.5852214 0.7492341 0.2543116 0.6028065 0.3145391 0.4980972 0.3344354 0.6613218 0.2543116 0.6028065 0.3344354 0.6613218 0.2716346 0.7499662 0.2716346 0.7499662 0.3344354 0.6613218 0.3528503 0.8072511 0.08609092 0.1004019 0.007501065 0.111519 0.0839551 0.007501125 0.08609092 0.1004019 0.0839551 0.007501125 0.1672906 0.04581743 0.1080801 0.812215 0.007501065 0.8626276 0.08080303 0.7496609 0.1417819 0.7106466 0.08080303 0.7496609 0.08948141 0.6237949 0.1417819 0.7106466 0.08948141 0.6237949 0.1745731 0.6019016 0.1745731 0.6019016 0.08948141 0.6237949 0.1506534 0.5390507 0.4815335 0.2510455 0.4728431 0.141758 0.5715804 0.2052605 0.4815335 0.2510455 0.5715804 0.2052605 0.6130968 0.3522611 0.6130968 0.3522611 0.5715804 0.2052605 0.6706656 0.2389647 0.6369413 0.8525096 0.5852214 0.7492341 0.689809 0.7265481 0.7048112 0.859306 0.7048112 0.726548 0.7640299 0.8000481 0.8178044 0.3672633 0.8431336 0.4624803 0.8106823 0.5328119 0.009031414 0.1949324 0.007501065 0.111519 0.08609092 0.1004019 0.009031414 0.1949324 0.08609092 0.1004019 0.07521456 0.1544094 0.07521456 0.1544094 0.08609092 0.1004019 0.1376484 0.09047126 0.1080801 0.812215 0.08080303 0.7496609 0.1417819 0.7106466 0.8677028 0.2646421 0.8677028 0.1651791 0.8809689 0.2161399 0.2196592 0.03958207 0.2733052 0.05989706 0.3126797 0.1100983 0.1745731 0.6019016 0.1506534 0.5390507 0.2393093 0.4980972 0.8526248 0.605153 0.8526248 0.7502759 0.8106821 0.6760696 0.8299848 0.007501125 0.8527005 0.08894491 0.8299848 0.1696003 0.6130968 0.3522611 0.6706656 0.2389647 0.746533 0.3041257 0.8736296 0.3672633 0.8736296 0.5197987 0.8581358 0.4453346 0.8677028 0.007501125 0.8780812 0.07544618 0.8677028 0.150177 0.2297575 0.3655554 0.2365489 0.4830949 0.0791583 0.4301606 0.2297575 0.3655554 0.0791583 0.4301606 0.1115896 0.2510353 0.1115896 0.2510353 0.0791583 0.4301606 0.008740067 0.2735011 0.1115896 0.2510353 0.008740067 0.2735011 0.07521456 0.1544094 0.1115896 0.2510353 0.07521456 0.1544094 0.1539416 0.1158354 0.1539416 0.1158354 0.07521456 0.1544094 0.1376484 0.09047126 0.1539416 0.1158354 0.1376484 0.09047126 0.2196592 0.03958207 0.1539416 0.1158354 0.2196592 0.03958207 0.2763742 0.1530354 0.2763742 0.1530354 0.2196592 0.03958207 0.3126797 0.1100983 0.3863864 0.4765961 0.2365489 0.4830949 0.2297575 0.3655554 0.3863864 0.4765961 0.2297575 0.3655554 0.3933991 0.3098452 0.3933991 0.3098452 0.2297575 0.3655554 0.2253991 0.2267276 0.2763742 0.1530354 0.3126797 0.1100983 0.4578408 0.1804393 0.2763742 0.1530354 0.4578408 0.1804393 0.3933991 0.3098452 0.3933991 0.3098452 0.4578408 0.1804393 0.4578408 0.3417407</float_array>
          <technique_common>
            <accessor source="#Icosphere-mesh-map-0-array" count="240" stride="2">
              <param name="S" type="float"/>
              <param name="T" type="float"/>
            </accessor>
          </technique_common>
        </source>
        <vertices id="Icosphere-mesh-vertices">
          <input semantic="POSITION" source="#Icosphere-mesh-positions"/>
        </vertices>
        <triangles material="ROCK_13-material" count="80">
          <input semantic="VERTEX" source="#Icosphere-mesh-vertices" offset="0"/>
          <input semantic="NORMAL" source="#Icosphere-mesh-normals" offset="1"/>
          <input semantic="TEXCOORD" source="#Icosphere-mesh-map-0" offset="2" set="0"/>
          <p>0 0 0 12 0 1 13 0 2 1 1 3 15 1 4 13 1 5 0 2 6 17 2 7 12 2 8 0 3 9 19 3 10 17 3 11 0 4 12 16 4 13 19 4 14 1 5 15 22 5 16 15 5 17 2 6 18 24 6 19 14 6 20 3 7 21 26 7 22 18 7 23 4 8 24 28 8 25 20 8 26 5 9 27 30 9 28 21 9 29 1 10 30 25 10 31 22 10 32 2 11 33 27 11 34 24 11 35 3 12 36 29 12 37 26 12 38 4 13 39 31 13 40 28 13 41 5 14 42 23 14 43 30 14 44 6 15 45 37 15 46 32 15 47 7 16 48 39 16 49 33 16 50 8 17 51 40 17 52 34 17 53 9 18 54 41 18 55 35 18 56 10 19 57 38 19 58 36 19 59 38 20 60 11 20 61 41 20 62 38 21 63 41 21 64 36 21 65 36 22 66 41 22 67 9 22 68 41 23 69 11 23 70 40 23 71 41 24 72 40 24 73 35 24 74 35 25 75 40 25 76 8 25 77 40 26 78 11 26 79 39 26 80 40 27 81 39 27 82 34 27 83 34 28 84 39 28 85 7 28 86 39 29 87 11 29 88 37 29 89 39 30 90 37 30 91 33 30 92 33 31 93 37 31 94 6 31 95 37 32 96 11 32 97 38 32 98 37 33 99 38 33 100 32 33 101 32 34 102 38 34 103 10 34 104 23 35 105 10 35 106 36 35 107 23 36 108 36 36 109 30 36 110 30 37 111 36 37 112 9 37 113 31 38 114 9 38 115 35 38 116 31 39 117 35 39 118 28 39 119 28 40 120 35 40 121 8 40 122 29 41 123 8 41 124 34 41 125 29 42 126 34 42 127 26 42 128 26 43 129 34 43 130 7 43 131 27 44 132 7 44 133 33 44 134 27 45 135 33 45 136 24 45 137 24 46 138 33 46 139 6 46 140 25 47 141 6 47 142 32 47 143 25 48 144 32 48 145 22 48 146 22 49 147 32 49 148 10 49 149 30 50 150 9 50 151 31 50 152 30 51 153 31 51 154 21 51 155 21 52 156 31 52 157 4 52 158 28 53 159 8 53 160 29 53 161 28 54 162 29 54 163 20 54 164 20 55 165 29 55 166 3 55 167 26 56 168 7 56 169 27 56 170 26 57 171 27 57 172 18 57 173 18 58 174 27 58 175 2 58 176 24 59 177 6 59 178 25 59 179 24 60 180 25 60 181 14 60 182 14 61 183 25 61 184 1 61 185 22 62 186 10 62 187 23 62 188 22 63 189 23 63 190 15 63 191 15 64 192 23 64 193 5 64 194 16 65 195 5 65 196 21 65 197 16 66 198 21 66 199 19 66 200 19 67 201 21 67 202 4 67 203 19 68 204 4 68 205 20 68 206 19 69 207 20 69 208 17 69 209 17 70 210 20 70 211 3 70 212 17 71 213 3 71 214 18 71 215 17 72 216 18 72 217 12 72 218 12 73 219 18 73 220 2 73 221 15 74 222 5 74 223 16 74 224 15 75 225 16 75 226 13 75 227 13 76 228 16 76 229 0 76 230 12 77 231 2 77 232 14 77 233 12 78 234 14 78 235 13 78 236 13 79 237 14 79 238 1 79 239</p>
        </triangles>
      </mesh>
    </geometry>
  </library_geometries>
  <library_visual_scenes>
    <visual_scene id="Scene" name="Scene">
      <node id="rock_root" name="rock_root" type="NODE">
        <matrix sid="transform">1 0 0 0 0 1 0 0 0 0 1 0 0 0 0 1</matrix>
        <node id="rock_mesh" name="rock_mesh" type="NODE">
          <matrix sid="transform">1 0 0 0 0 1 0 0 0 0 1 -0.004694402 0 0 0 1</matrix>
          <instance_geometry url="#Icosphere-mesh" name="rock_mesh">
            <bind_material>
              <technique_common>
                <instance_material symbol="ROCK_13-material" target="#ROCK_13-material">
                  <bind_vertex_input semantic="UVMap" input_semantic="TEXCOORD" input_set="0"/>
                </instance_material>
              </technique_common>
            </bind_material>
          </instance_geometry>
        </node>
      </node>
    </visual_scene>
  </library_visual_scenes>
  <scene>
    <instance_visual_scene url="#Scene"/>
  </scene>
</COLLADA>