<?xml version="1.0" encoding="utf-8"?>
<COLLADA xmlns="http://www.collada.org/2005/11/COLLADASchema" version="1.4.1" xmlns:xsi="http://www.w3.org/2001/XMLSchema-instance">
  <asset>
    <contributor>
      <author>Blender User</author>
      <authoring_tool>Blender 4.2.9 LTS commit date:2025-04-14, commit time:12:24, hash:a10f621e649a</authoring_tool>
    </contributor>
    <created>2026-08-01T07:51:24</created>
    <modified>2026-08-01T07:51:24</modified>
    <unit name="meter" meter="1"/>
    <up_axis>Z_UP</up_axis>
  </asset>
  <library_effects>
    <effect id="Colmesh_Material-effect">
      <profile_COMMON>
        <technique sid="common">
          <lambert>
            <emission>
              <color sid="emission">0 0 0 1</color>
            </emission>
            <diffuse>
              <color sid="diffuse">1 0 1 1</color>
            </diffuse>
            <transparent opaque="A_ONE">
              <color sid="alpha">0 0 0 0.15</color>
            </transparent>
            <index_of_refraction>
              <float sid="ior">1.5</float>
            </index_of_refraction>
          </lambert>
        </technique>
      </profile_COMMON>
    </effect>
    <effect id="rock_011-effect">
      <profile_COMMON>
        <newparam sid="rock_red_png-surface">
          <surface type="2D">
            <init_from>rock_red_png</init_from>
          </surface>
        </newparam>
        <newparam sid="rock_red_png-sampler">
          <sampler2D>
            <source>rock_red_png-surface</source>
          </sampler2D>
        </newparam>
        <technique sid="common">
          <lambert>
            <emission>
              <color sid="emission">0 0 0 1</color>
            </emission>
            <diffuse>
              <texture texture="rock_red_png-sampler" texcoord="UVMap"/>
            </diffuse>
            <index_of_refraction>
              <float sid="ior">1.5</float>
            </index_of_refraction>
          </lambert>
        </technique>
      </profile_COMMON>
    </effect>
  </library_effects>
  <library_images>
    <image id="rock_red_png" name="rock_red_png">
      <init_from>rock_red.png</init_from>
    </image>
  </library_images>
  <library_materials>
    <material id="Colmesh_Material-material" name="Colmesh_Material">
      <instance_effect url="#Colmesh_Material-effect"/>
    </material>
    <material id="rock_011-material" name="rock.011">
      <instance_effect url="#rock_011-effect"/>
    </material>
  </library_materials>
  <library_geometries>
    <geometry id="Colmesh_rock-1-mesh" name="Colmesh_rock-1">
      <mesh>
        <source id="Colmesh_rock-1-mesh-positions">
          <float_array id="Colmesh_rock-1-mesh-positions-array" count="48">0 2.16 -1.3775 0 2.16 1.3775 1.527351 1.527351 -1.3775 1.527351 1.527351 1.3775 2.16 0 -1.3775 2.16 0 1.3775 1.527351 -1.527351 -1.3775 1.527351 -1.527351 1.3775 0 -2.16 -1.3775 0 -2.16 1.3775 -1.527351 -1.527351 -1.3775 -1.527351 -1.527351 1.3775 -2.16 0 -1.3775 -2.16 0 1.3775 -1.527351 1.527351 -1.3775 -1.527351 1.527351 1.3775</float_array>
          <technique_common>
            <accessor source="#Colmesh_rock-1-mesh-positions-array" count="16" stride="3">
              <param name="X" type="float"/>
              <param name="Y" type="float"/>
              <param name="Z" type="float"/>
            </accessor>
          </technique_common>
        </source>
        <source id="Colmesh_rock-1-mesh-normals">
          <float_array id="Colmesh_rock-1-mesh-normals-array" count="84">0.3826835 0.9238796 0 0.9238796 0.3826835 0 0.9238796 -0.3826835 0 0.3826835 -0.9238796 0 -0.3826835 -0.9238796 0 -0.9238796 -0.3826835 0 0 0 1 -0.9238796 0.3826835 0 -0.3826835 0.9238796 0 0 0 -1 0.3826835 0.9238796 0 0.9238796 0.3826835 0 0.9238796 -0.3826835 0 0.3826835 -0.9238796 0 -0.3826835 -0.9238796 0 -0.9238796 -0.3826835 0 0 0 1 0 0 1 0 0 1 0 0 1 0 0 1 -0.9238796 0.3826835 0 -0.3826835 0.9238796 0 0 0 -1 0 0 -1 0 0 -1 0 0 -1 0 0 -1</float_array>
          <technique_common>
            <accessor source="#Colmesh_rock-1-mesh-normals-array" count="28" stride="3">
              <param name="X" type="float"/>
              <param name="Y" type="float"/>
              <param name="Z" type="float"/>
            </accessor>
          </technique_common>
        </source>
        <source id="Colmesh_rock-1-mesh-map-0">
          <float_array id="Colmesh_rock-1-mesh-map-0-array" count="168">1 1 0.875 0.5 1 0.5 0.875 1 0.75 0.5 0.875 0.5 0.75 1 0.625 0.5 0.75 0.5 0.625 1 0.5 0.5 0.625 0.5 0.5 1 0.375 0.5 0.5 0.5 0.375 1 0.25 0.5 0.375 0.5 0.25 0.00999999 0.4197056 0.08029437 0.49 0.25 0.25 1 0.125 0.5 0.25 0.5 0.125 1 0 0.5 0.125 0.5 0.9197056 0.08029437 0.5802944 0.08029437 0.5802944 0.4197056 1 1 0.875 1 0.875 0.5 0.875 1 0.75 1 0.75 0.5 0.75 1 0.625 1 0.625 0.5 0.625 1 0.5 1 0.5 0.5 0.5 1 0.375 1 0.375 0.5 0.375 1 0.25 1 0.25 0.5 0.49 0.25 0.4197056 0.4197056 0.00999999 0.25 0.4197056 0.4197056 0.25 0.49 0.00999999 0.25 0.25 0.49 0.08029437 0.4197056 0.00999999 0.25 0.00999999 0.25 0.08029437 0.08029437 0.49 0.25 0.08029437 0.08029437 0.25 0.00999999 0.49 0.25 0.25 1 0.125 1 0.125 0.5 0.125 1 0 1 0 0.5 0.5802944 0.4197056 0.75 0.49 0.9197056 0.4197056 0.9197056 0.4197056 0.99 0.25 0.9197056 0.08029437 0.9197056 0.08029437 0.75 0.00999999 0.5802944 0.08029437 0.5802944 0.08029437 0.51 0.25 0.5802944 0.4197056 0.5802944 0.4197056 0.9197056 0.4197056 0.9197056 0.08029437</float_array>
          <technique_common>
            <accessor source="#Colmesh_rock-1-mesh-map-0-array" count="84" stride="2">
              <param name="S" type="float"/>
              <param name="T" type="float"/>
            </accessor>
          </technique_common>
        </source>
        <vertices id="Colmesh_rock-1-mesh-vertices">
          <input semantic="POSITION" source="#Colmesh_rock-1-mesh-positions"/>
        </vertices>
        <triangles material="Colmesh_Material-material" count="28">
          <input semantic="VERTEX" source="#Colmesh_rock-1-mesh-vertices" offset="0"/>
          <input semantic="NORMAL" source="#Colmesh_rock-1-mesh-normals" offset="1"/>
          <input semantic="TEXCOORD" source="#Colmesh_rock-1-mesh-map-0" offset="2" set="0"/>
          <p>1 0 0 2 0 1 0 0 2 3 1 3 4 1 4 2 1 5 5 2 6 6 2 7 4 2 8 7 3 9 8 3 10 6 3 11 9 4 12 10 4 13 8 4 14 11 5 15 12 5 16 10 5 17 9 6 18 7 6 19 5 6 20 13 7 21 14 7 22 12 7 23 15 8 24 0 8 25 14 8 26 6 9 27 10 9 28 14 9 29 1 10 30 3 10 31 2 10 32 3 11 33 5 11 34 4 11 35 5 12 36 7 12 37 6 12 38 7 13 39 9 13 40 8 13 41 9 14 42 11 14 43 10 14 44 11 15 45 13 15 46 12 15 47 5 16 48 3 16 49 13 16 50 3 17 51 1 17 52 13 17 53 1 18 54 15 18 55 13 18 56 13 19 57 11 19 58 5 19 59 11 20 60 9 20 61 5 20 62 13 21 63 15 21 64 14 21 65 15 22 66 1 22 67 0 22 68 14 23 69 0 23 70 2 23 71 2 24 72 4 24 73 6 24 74 6 25 75 8 25 76 10 25 77 10 26 78 12 26 79 14 26 80 14 27 81 2 27 82 6 27 83</p>
        </triangles>
      </mesh>
    </geometry>
    <geometry id="rock_boulder_red_a800-mesh" name="rock_boulder_red_a800">
      <mesh>
        <source id="rock_boulder_red_a800-mesh-positions">
          <float_array id="rock_boulder_red_a800-mesh-positions-array" count="36">0 0 0.01999998 1.712195 -1.03664 0.01999998 -0.6599017 -1.692502 0.01999998 -2.133081 0 0.01999998 -0.6725385 1.724913 0.01999998 1.754678 1.062361 0.01999998 0.6768026 -1.735849 0.6616383 -1.716232 -1.039084 0.6408413 -1.738069 1.052305 0.6489954 0.6531859 1.675278 0.6385508 2.132731 0 0.6442661 0 0 1.458428</float_array>
          <technique_common>
            <accessor source="#rock_boulder_red_a800-mesh-positions-array" count="12" stride="3">
              <param name="X" type="float"/>
              <param name="Y" type="float"/>
              <param name="Z" type="float"/>
            </accessor>
          </technique_common>
        </source>
        <source id="rock_boulder_red_a800-mesh-normals">
          <float_array id="rock_boulder_red_a800-mesh-normals-array" count="60">0 0 -1 0 0 -1 0 0 -1 0 0 -1 0 0 -1 0.8421339 -0.0170446 -0.5389991 0.226463 -0.8190621 -0.5271165 -0.6489657 -0.5648695 -0.5096725 -0.6538866 0.5536682 -0.5156393 0.2367522 0.8673267 -0.4378274 0.6754204 -0.5617213 0.4777829 -0.2511055 -0.848516 0.4657967 -0.8385045 -0.01087939 0.5447861 -0.2128314 0.8257035 0.5224142 0.620162 0.5496144 0.5597527 0.3425504 -0.2783308 0.8973246 -0.1409438 -0.4578703 0.8777754 -0.426123 -0.007976472 0.9046301 -0.1195854 0.4736528 0.8725551 0.3398563 0.3031861 0.8902673</float_array>
          <technique_common>
            <accessor source="#rock_boulder_red_a800-mesh-normals-array" count="20" stride="3">
              <param name="X" type="float"/>
              <param name="Y" type="float"/>
              <param name="Z" type="float"/>
            </accessor>
          </technique_common>
        </source>
        <source id="rock_boulder_red_a800-mesh-map-0">
          <float_array id="rock_boulder_red_a800-mesh-map-0-array" count="120">0.2321498 0.2549318 0.2726362 0.002492487 0.4641683 0.2517714 0.2726362 0.002492487 0.2321498 0.2549318 0.02214944 0.09825211 0.2321498 0.2549318 0.4641683 0.2517714 0.3345744 0.5074126 0.2321498 0.2549318 0.3345744 0.5074126 0.06027501 0.4173619 0.2321498 0.2549318 0.06027501 0.4173619 0.02214944 0.09825211 0.2726362 0.002492487 0.02214944 0.09825211 0.129742 0.002492487 0.4641683 0.2517714 0.2726362 0.002492487 0.4051143 0.09147191 0.3345744 0.5074126 0.4641683 0.2517714 0.4375489 0.4081785 0.06027501 0.4173619 0.3345744 0.5074126 0.1910516 0.511186 0.02214944 0.09825211 0.06027501 0.4173619 0.002492487 0.25806 0.6232274 0.01982307 0.7816947 0.002492487 0.5299207 0.1231184 0.4691534 0.2898278 0.5299207 0.1231184 0.5345459 0.4414545 0.6220272 0.5285091 0.5345459 0.4414545 0.7816947 0.5148477 0.2660538 0.8904418 0.1234351 0.9975075 0.2449059 0.7061763 0.2660538 0.5885041 0.2449059 0.7061763 0.1242289 0.516171 0.5299207 0.1231184 0.7816947 0.002492487 0.7419318 0.2644312 0.5345459 0.4414545 0.5299207 0.1231184 0.7419318 0.2644312 0.7816947 0.5148477 0.5345459 0.4414545 0.7419318 0.2644312 0.2449059 0.7061763 0.1234351 0.9975075 0.002492487 0.7515051 0.1242289 0.516171 0.2449059 0.7061763 0.002492487 0.7515051</float_array>
          <technique_common>
            <accessor source="#rock_boulder_red_a800-mesh-map-0-array" count="60" stride="2">
              <param name="S" type="float"/>
              <param name="T" type="float"/>
            </accessor>
          </technique_common>
        </source>
        <vertices id="rock_boulder_red_a800-mesh-vertices">
          <input semantic="POSITION" source="#rock_boulder_red_a800-mesh-positions"/>
        </vertices>
        <triangles material="rock_011-material" count="20">
          <input semantic="VERTEX" source="#rock_boulder_red_a800-mesh-vertices" offset="0"/>
          <input semantic="NORMAL" source="#rock_boulder_red_a800-mesh-normals" offset="1"/>
          <input semantic="TEXCOORD" source="#rock_boulder_red_a800-mesh-map-0" offset="2" set="0"/>
          <p>0 0 0 1 0 1 2 0 2 1 1 3 0 1 4 5 1 5 0 2 6 2 2 7 3 2 8 0 3 9 3 3 10 4 3 11 0 4 12 4 4 13 5 4 14 1 5 15 5 5 16 10 5 17 2 6 18 1 6 19 6 6 20 3 7 21 2 7 22 7 7 23 4 8 24 3 8 25 8 8 26 5 9 27 4 9 28 9 9 29 1 10 30 10 10 31 6 10 32 2 11 33 6 11 34 7 11 35 3 12 36 7 12 37 8 12 38 4 13 39 8 13 40 9 13 41 5 14 42 9 14 43 10 14 44 6 15 45 10 15 46 11 15 47 7 16 48 6 16 49 11 16 50 8 17 51 7 17 52 11 17 53 9 18 54 8 18 55 11 18 56 10 19 57 9 19 58 11 19 59</p>
        </triangles>
      </mesh>
    </geometry>
  </library_geometries>
  <library_visual_scenes>
    <visual_scene id="Scene" name="Scene">
      <node id="base00" name="base00" type="NODE">
        <matrix sid="transform">1 0 0 0 0 1 0 0 0 0 1 0 0 0 0 1</matrix>
        <node id="start01" name="start01" type="NODE">
          <matrix sid="transform">1 0 0 0 0 1 0 0 0 0 1 0 0 0 0 1</matrix>
          <node id="rock_boulder_red_a800" name="rock_boulder_red_a800" type="NODE">
            <matrix sid="transform">1 0 0 0 0 1 0 0 0 0 1 0.48 0 0 0 1</matrix>
            <instance_geometry url="#rock_boulder_red_a800-mesh" name="rock_boulder_red_a800">
              <bind_material>
                <technique_common>
                  <instance_material symbol="rock_011-material" target="#rock_011-material">
                    <bind_vertex_input semantic="UVMap" input_semantic="TEXCOORD" input_set="0"/>
                  </instance_material>
                </technique_common>
              </bind_material>
            </instance_geometry>
          </node>
        </node>
        <node id="collision-1" name="collision-1" type="NODE">
          <matrix sid="transform">1 0 0 0 0 1 0 0 0 0 1 0 0 0 0 1</matrix>
          <node id="Colmesh_rock-1" name="Colmesh_rock-1" type="NODE">
            <matrix sid="transform">1 0 0 0 0 1 0 0 0 0 1 1.3775 0 0 0 1</matrix>
            <instance_geometry url="#Colmesh_rock-1-mesh" name="Colmesh_rock-1">
              <bind_material>
                <technique_common>
                  <instance_material symbol="Colmesh_Material-material" target="#Colmesh_Material-material">
                    <bind_vertex_input semantic="UVMap" input_semantic="TEXCOORD" input_set="0"/>
                  </instance_material>
                </technique_common>
              </bind_material>
            </instance_geometry>
          </node>
        </node>
      </node>
    </visual_scene>
  </library_visual_scenes>
  <scene>
    <instance_visual_scene url="#Scene"/>
  </scene>
</COLLADA>