<?xml version="1.0" encoding="utf-8"?>
<COLLADA xmlns="http://www.collada.org/2005/11/COLLADASchema" version="1.4.1" xmlns:xsi="http://www.w3.org/2001/XMLSchema-instance">
  <asset>
    <contributor>
      <author>Blender User</author>
      <authoring_tool>Blender 4.2.9 LTS commit date:2025-04-14, commit time:12:24, hash:a10f621e649a</authoring_tool>
    </contributor>
    <created>2026-08-01T07:12:28</created>
    <modified>2026-08-01T07:12:28</modified>
    <unit name="meter" meter="1"/>
    <up_axis>Z_UP</up_axis>
  </asset>
  <library_effects>
    <effect id="CS_frame-effect">
      <profile_COMMON>
        <technique sid="common">
          <lambert>
            <emission>
              <color sid="emission">0 0 0 1</color>
            </emission>
            <diffuse>
              <color sid="diffuse">0.08 0.08 0.08 1</color>
            </diffuse>
            <reflectivity>
              <float sid="specular">0.2</float>
            </reflectivity>
            <index_of_refraction>
              <float sid="ior">1.5</float>
            </index_of_refraction>
          </lambert>
        </technique>
      </profile_COMMON>
    </effect>
    <effect id="CS_back-effect">
      <profile_COMMON>
        <newparam sid="arrow_back_wrong_way_png-surface">
          <surface type="2D">
            <init_from>arrow_back_wrong_way_png</init_from>
          </surface>
        </newparam>
        <newparam sid="arrow_back_wrong_way_png-sampler">
          <sampler2D>
            <source>arrow_back_wrong_way_png-surface</source>
          </sampler2D>
        </newparam>
        <technique sid="common">
          <lambert>
            <emission>
              <color sid="emission">0 0 0 1</color>
            </emission>
            <diffuse>
              <texture texture="arrow_back_wrong_way_png-sampler" texcoord="UVMap"/>
            </diffuse>
            <reflectivity>
              <float sid="specular">0.1</float>
            </reflectivity>
            <index_of_refraction>
              <float sid="ior">1.5</float>
            </index_of_refraction>
          </lambert>
        </technique>
      </profile_COMMON>
    </effect>
    <effect id="CS_front-effect">
      <profile_COMMON>
        <newparam sid="arrow_turn_left_png-surface">
          <surface type="2D">
            <init_from>arrow_turn_left_png</init_from>
          </surface>
        </newparam>
        <newparam sid="arrow_turn_left_png-sampler">
          <sampler2D>
            <source>arrow_turn_left_png-surface</source>
          </sampler2D>
        </newparam>
        <technique sid="common">
          <lambert>
            <emission>
              <color sid="emission">0 0 0 1</color>
            </emission>
            <diffuse>
              <texture texture="arrow_turn_left_png-sampler" texcoord="UVMap"/>
            </diffuse>
            <reflectivity>
              <float sid="specular">0.1</float>
            </reflectivity>
            <index_of_refraction>
              <float sid="ior">1.5</float>
            </index_of_refraction>
          </lambert>
        </technique>
      </profile_COMMON>
    </effect>
    <effect id="CS_metal-effect">
      <profile_COMMON>
        <newparam sid="sign_metal_png-surface">
          <surface type="2D">
            <init_from>sign_metal_png</init_from>
          </surface>
        </newparam>
        <newparam sid="sign_metal_png-sampler">
          <sampler2D>
            <source>sign_metal_png-surface</source>
          </sampler2D>
        </newparam>
        <technique sid="common">
          <lambert>
            <emission>
              <color sid="emission">0 0 0 1</color>
            </emission>
            <diffuse>
              <texture texture="sign_metal_png-sampler" texcoord="UVMap"/>
            </diffuse>
            <reflectivity>
              <float sid="specular">0.85</float>
            </reflectivity>
            <index_of_refraction>
              <float sid="ior">1.5</float>
            </index_of_refraction>
          </lambert>
        </technique>
      </profile_COMMON>
    </effect>
    <effect id="CS_wood-effect">
      <profile_COMMON>
        <newparam sid="post_wood_png-surface">
          <surface type="2D">
            <init_from>post_wood_png</init_from>
          </surface>
        </newparam>
        <newparam sid="post_wood_png-sampler">
          <sampler2D>
            <source>post_wood_png-surface</source>
          </sampler2D>
        </newparam>
        <technique sid="common">
          <lambert>
            <emission>
              <color sid="emission">0 0 0 1</color>
            </emission>
            <diffuse>
              <texture texture="post_wood_png-sampler" texcoord="UVMap"/>
            </diffuse>
            <index_of_refraction>
              <float sid="ior">1.5</float>
            </index_of_refraction>
          </lambert>
        </technique>
      </profile_COMMON>
    </effect>
  </library_effects>
  <library_images>
    <image id="arrow_back_wrong_way_png" name="arrow_back_wrong_way_png">
      <init_from>arrow_back_wrong_way.png</init_from>
    </image>
    <image id="arrow_turn_left_png" name="arrow_turn_left_png">
      <init_from>arrow_turn_left.png</init_from>
    </image>
    <image id="post_wood_png" name="post_wood_png">
      <init_from>post_wood.png</init_from>
    </image>
    <image id="sign_metal_png" name="sign_metal_png">
      <init_from>sign_metal.png</init_from>
    </image>
  </library_images>
  <library_materials>
    <material id="CS_frame-material" name="CS_frame">
      <instance_effect url="#CS_frame-effect"/>
    </material>
    <material id="CS_back-material" name="CS_back">
      <instance_effect url="#CS_back-effect"/>
    </material>
    <material id="CS_front-material" name="CS_front">
      <instance_effect url="#CS_front-effect"/>
    </material>
    <material id="CS_metal-material" name="CS_metal">
      <instance_effect url="#CS_metal-effect"/>
    </material>
    <material id="CS_wood-material" name="CS_wood">
      <instance_effect url="#CS_wood-effect"/>
    </material>
  </library_materials>
  <library_geometries>
    <geometry id="Cube_004-mesh" name="Cube.004">
      <mesh>
        <source id="Cube_004-mesh-positions">
          <float_array id="Cube_004-mesh-positions-array" count="24">-0.2875 -0.005999982 -0.2875 -0.2875 -0.005999982 0.2875 -0.2875 0.005999982 -0.2875 -0.2875 0.005999982 0.2875 0.2875 -0.005999982 -0.2875 0.2875 -0.005999982 0.2875 0.2875 0.005999982 -0.2875 0.2875 0.005999982 0.2875</float_array>
          <technique_common>
            <accessor source="#Cube_004-mesh-positions-array" count="8" stride="3">
              <param name="X" type="float"/>
              <param name="Y" type="float"/>
              <param name="Z" type="float"/>
            </accessor>
          </technique_common>
        </source>
        <source id="Cube_004-mesh-normals">
          <float_array id="Cube_004-mesh-normals-array" count="36">-1 0 0 0 1 0 1 0 0 0 -1 0 0 0 -1 0 0 1 -1 0 0 0 1 0 1 0 0 0 -1 0 0 0 -1 0 0 1</float_array>
          <technique_common>
            <accessor source="#Cube_004-mesh-normals-array" count="12" stride="3">
              <param name="X" type="float"/>
              <param name="Y" type="float"/>
              <param name="Z" type="float"/>
            </accessor>
          </technique_common>
        </source>
        <source id="Cube_004-mesh-map-0">
          <float_array id="Cube_004-mesh-map-0-array" count="72">0.625 0 0.375 0.25 0.375 0 0.625 0.25 0.375 0.5 0.375 0.25 0.625 0.5 0.375 0.75 0.375 0.5 0.625 0.75 0.375 1 0.375 0.75 0.375 0.5 0.125 0.75 0.125 0.5 0.875 0.5 0.625 0.75 0.625 0.5 0.625 0 0.625 0.25 0.375 0.25 0.625 0.25 0.625 0.5 0.375 0.5 0.625 0.5 0.625 0.75 0.375 0.75 0.625 0.75 0.625 1 0.375 1 0.375 0.5 0.375 0.75 0.125 0.75 0.875 0.5 0.875 0.75 0.625 0.75</float_array>
          <technique_common>
            <accessor source="#Cube_004-mesh-map-0-array" count="36" stride="2">
              <param name="S" type="float"/>
              <param name="T" type="float"/>
            </accessor>
          </technique_common>
        </source>
        <vertices id="Cube_004-mesh-vertices">
          <input semantic="POSITION" source="#Cube_004-mesh-positions"/>
        </vertices>
        <triangles material="CS_frame-material" count="12">
          <input semantic="VERTEX" source="#Cube_004-mesh-vertices" offset="0"/>
          <input semantic="NORMAL" source="#Cube_004-mesh-normals" offset="1"/>
          <input semantic="TEXCOORD" source="#Cube_004-mesh-map-0" offset="2" set="0"/>
          <p>1 0 0 2 0 1 0 0 2 3 1 3 6 1 4 2 1 5 7 2 6 4 2 7 6 2 8 5 3 9 0 3 10 4 3 11 6 4 12 0 4 13 2 4 14 3 5 15 5 5 16 7 5 17 1 6 18 3 6 19 2 6 20 3 7 21 7 7 22 6 7 23 7 8 24 5 8 25 4 8 26 5 9 27 1 9 28 0 9 29 6 10 30 4 10 31 0 10 32 3 11 33 1 11 34 5 11 35</p>
        </triangles>
      </mesh>
    </geometry>
    <geometry id="Cube_003-mesh" name="Cube.003">
      <mesh>
        <source id="Cube_003-mesh-positions">
          <float_array id="Cube_003-mesh-positions-array" count="168">-0.273 -0.01299995 -0.275 -0.273 -0.01499998 -0.273 -0.275 -0.01299995 -0.273 -0.273 -0.01441419 -0.2744142 -0.2741547 -0.01415467 -0.2741547 -0.2744142 -0.01441419 -0.273 -0.2744142 -0.01299995 -0.2744142 -0.273 -0.01499998 0.273 -0.273 -0.01299995 0.275 -0.275 -0.01299995 0.273 -0.273 -0.01441419 0.2744142 -0.2741547 -0.01415467 0.2741547 -0.2744142 -0.01299995 0.2744142 -0.2744142 -0.01441419 0.273 -0.273 0.01299995 -0.275 -0.275 0.01299995 -0.273 -0.273 0.01499998 -0.273 -0.2744142 0.01299995 -0.2744142 -0.2741547 0.01415467 -0.2741547 -0.2744142 0.01441419 -0.273 -0.273 0.01441419 -0.2744142 -0.273 0.01299995 0.275 -0.273 0.01499998 0.273 -0.275 0.01299995 0.273 -0.273 0.01441419 0.2744142 -0.2741547 0.01415467 0.2741547 -0.2744142 0.01441419 0.273 -0.2744142 0.01299995 0.2744142 0.273 -0.01299995 -0.275 0.275 -0.01299995 -0.273 0.273 -0.01499998 -0.273 0.2744142 -0.01299995 -0.2744142 0.2741547 -0.01415467 -0.2741547 0.2744142 -0.01441419 -0.273 0.273 -0.01441419 -0.2744142 0.273 -0.01299995 0.275 0.273 -0.01499998 0.273 0.275 -0.01299995 0.273 0.273 -0.01441419 0.2744142 0.2741547 -0.01415467 0.2741547 0.2744142 -0.01441419 0.273 0.2744142 -0.01299995 0.2744142 0.273 0.01299995 -0.275 0.273 0.01499998 -0.273 0.275 0.01299995 -0.273 0.273 0.01441419 -0.2744142 0.2741547 0.01415467 -0.2741547 0.2744142 0.01441419 -0.273 0.2744142 0.01299995 -0.2744142 0.273 0.01299995 0.275 0.275 0.01299995 0.273 0.273 0.01499998 0.273 0.2744142 0.01299995 0.2744142 0.2741547 0.01415467 0.2741547 0.2744142 0.01441419 0.273 0.273 0.01441419 0.2744142</float_array>
          <technique_common>
            <accessor source="#Cube_003-mesh-positions-array" count="56" stride="3">
              <param name="X" type="float"/>
              <param name="Y" type="float"/>
              <param name="Z" type="float"/>
            </accessor>
          </technique_common>
        </source>
        <source id="Cube_003-mesh-normals">
          <float_array id="Cube_003-mesh-normals-array" count="324">0 -1 0 1 0 0 0 0 1 -1 0 0 0 1 0 -0.367185 -0.2817535 -0.886448 -0.2817513 -0.8864504 -0.3671811 -0.8864483 -0.367184 -0.2817541 -0.3671811 -0.8864504 0.2817513 -0.2817541 -0.367184 0.8864483 -0.886448 -0.2817535 0.367185 -0.2817541 0.367184 -0.8864483 -0.886448 0.2817535 -0.367185 -0.3671811 0.8864504 -0.2817513 -0.367185 0.2817535 0.886448 -0.2817513 0.8864504 0.3671811 -0.8864483 0.367184 0.2817541 0.2817541 -0.367184 -0.8864483 0.886448 -0.2817535 -0.367185 0.3671811 -0.8864504 -0.2817513 0.367185 -0.2817535 0.886448 0.2817513 -0.8864504 0.3671811 0.8864483 -0.367184 0.2817541 0.367185 0.2817535 -0.886448 0.2817513 0.8864504 -0.3671811 0.8864483 0.367184 -0.2817541 0.2817541 0.367184 0.8864483 0.886448 0.2817535 0.367185 0.3671811 0.8864504 0.2817513 -0.3826888 0 -0.9238772 -0.9238773 0 -0.3826888 -0.3826847 -0.923879 0 -0.9238777 -0.3826879 0 -0.3826888 0 0.9238772 -0.9238773 0 0.3826888 -0.3826847 0.923879 0 -0.9238777 0.3826879 0 0 0.3826879 -0.9238777 0 0.923879 -0.3826847 0 0.3826879 0.9238777 0 0.923879 0.3826847 0.9238777 0.3826879 0 0.3826847 0.923879 0 0.3826888 0 -0.9238772 0.9238773 0 -0.3826888 0.3826888 0 0.9238772 0.9238773 0 0.3826888 0.3826847 -0.923879 0 0.9238777 -0.3826879 0 0 -0.3826879 -0.9238777 0 -0.923879 -0.3826847 0 -0.3826879 0.9238777 0 -0.923879 0.3826847 0 0 -1 0 -1 0 1 0 0 0 0 1 -1 0 0 0 1 0 -0.2817541 -0.367184 -0.8864483 -0.3671811 -0.8864504 -0.2817514 -0.886448 -0.2817535 -0.367185 -0.2817514 -0.8864504 0.3671811 -0.367185 -0.2817535 0.886448 -0.8864483 -0.3671839 0.281754 -0.367185 0.2817535 -0.886448 -0.8864483 0.3671839 -0.281754 -0.2817514 0.8864504 -0.3671811 -0.2817541 0.367184 0.8864483 -0.3671811 0.8864504 0.2817514 -0.886448 0.2817535 0.367185 0.367185 -0.2817535 -0.886448 0.8864483 -0.3671839 -0.281754 0.2817514 -0.8864504 -0.3671811 0.2817541 -0.367184 0.8864483 0.3671811 -0.8864504 0.2817514 0.886448 -0.2817535 0.367185 0.2817541 0.367184 -0.8864483 0.3671811 0.8864504 -0.2817514 0.886448 0.2817535 -0.367185 0.367185 0.2817535 0.886448 0.8864483 0.3671839 0.281754 0.2817514 0.8864504 0.3671811 -0.3826888 0 -0.9238773 -0.9238774 0 -0.3826888 -0.3826847 -0.923879 0 -0.9238777 -0.3826879 0 -0.3826888 0 0.9238773 -0.9238774 0 0.3826888 -0.3826847 0.923879 0 -0.9238777 0.3826879 0 0 0.3826879 -0.9238777 0 0.923879 -0.3826847 0 0.3826879 0.9238777 0 0.923879 0.3826847 0.9238777 0.3826879 0 0.3826847 0.923879 0 0.3826888 0 -0.9238773 0.9238774 0 -0.3826888 0.3826888 0 0.9238773 0.9238774 0 0.3826888 0.3826847 -0.923879 0 0.9238777 -0.3826879 0 0 -0.3826879 -0.9238777 0 -0.923879 -0.3826847 0 -0.3826879 0.9238777 0 -0.923879 0.3826847 0 0 -1</float_array>
          <technique_common>
            <accessor source="#Cube_003-mesh-normals-array" count="108" stride="3">
              <param name="X" type="float"/>
              <param name="Y" type="float"/>
              <param name="Z" type="float"/>
            </accessor>
          </technique_common>
        </source>
        <source id="Cube_003-mesh-map-0">
          <float_array id="Cube_003-mesh-map-0-array" count="648">0.004152834 0.4958471 0.4958471 0.004152834 0.4958471 0.4958471 0.5041529 0.004152834 0.5275669 0.4958471 0.5041529 0.4958471 0.5358726 0.004034757 0.5592867 0.4874236 0.5358726 0.4874236 0.5041529 0.5041528 0.5275669 0.9958471 0.5041529 0.9958471 0.004152834 0.9958471 0.4958471 0.5041529 0.4958471 0.9958471 0.5592867 0.9792684 0.5603265 0.9801513 0.5592867 0.9804239 0.4958471 0.004152834 0.496887 0.003113031 0.4971207 0.004152834 0.5041529 0.9958471 0.503113 0.9968869 0.5028793 0.9958471 0.004152894 0.004152834 0.003113031 0.003112971 0.004152894 0.002879261 0.5592867 0.004034757 0.5603265 0.003151834 0.5605602 0.004131317 0.5041529 0.5041528 0.503113 0.503113 0.5041529 0.5028793 0.5358726 0.9792684 0.5348328 0.9801513 0.5345991 0.9791718 0.5275669 0.9958471 0.5286067 0.9968869 0.5275669 0.9971206 0.4958471 0.9958471 0.4968869 0.996887 0.4958471 0.9971207 0.5358726 0.004034757 0.5348328 0.003151834 0.5358726 0.002879261 0.004152834 0.9958471 0.003112971 0.9968869 0.002879261 0.9958471 0.5275669 0.5041528 0.5286067 0.503113 0.5288404 0.5041528 0.5592867 0.4958795 0.5603265 0.4947179 0.5605602 0.495783 0.5275669 0.4958471 0.5286067 0.4968869 0.5275669 0.4971206 0.4958471 0.4958471 0.4968869 0.496887 0.4958471 0.4971207 0.5592867 0.4874236 0.5603265 0.4885852 0.5592867 0.4887722 0.004152834 0.4958471 0.003112971 0.4968869 0.002879261 0.4958471 0.5275669 0.004152834 0.5286067 0.003112971 0.5288404 0.004152834 0.5358726 0.4958795 0.5348328 0.4947179 0.5358726 0.4945309 0.4958471 0.5041529 0.496887 0.503113 0.4971207 0.5041529 0.5041529 0.4958471 0.503113 0.4968869 0.5028793 0.4958471 0.5358726 0.4874236 0.5348328 0.4885852 0.5345991 0.4875202 0.5041529 0.004152834 0.503113 0.003112971 0.5041529 0.002879261 0.004152894 0.5041529 0.003113031 0.503113 0.004152894 0.5028793 0.5592867 0.9792684 0.5358726 0.9804239 0.5358726 0.9792684 0.5041529 0.9971206 0.5275669 0.9958471 0.5275669 0.9971206 0.004152894 0.004152834 0.4958471 0.002879321 0.4958471 0.004152834 0.5028793 0.5041528 0.5041529 0.9958471 0.5028793 0.9958471 0.5358726 0.004034757 0.5592867 0.002879261 0.5592867 0.004034757 0.5275669 0.5028793 0.5041529 0.5041528 0.5041529 0.5028793 0.4958471 0.9958471 0.004152834 0.9971206 0.004152834 0.9958471 0.5288404 0.9958471 0.5275669 0.5041528 0.5288404 0.5041528 0.5358726 0.9792684 0.5345991 0.495783 0.5358726 0.4958795 0.4971206 0.9958471 0.4958471 0.5041529 0.4971207 0.5041529 0.5358726 0.4874236 0.5345991 0.004131317 0.5358726 0.004034757 0.002879321 0.5041529 0.004152834 0.9958471 0.002879261 0.9958471 0.5041529 0.4958471 0.5028793 0.004152834 0.5041529 0.004152834 0.4958471 0.5028794 0.004152894 0.5041529 0.004152894 0.5028793 0.5358726 0.4958795 0.5592867 0.4945309 0.5592867 0.4958795 0.5041529 0.4971206 0.5275669 0.4958471 0.5275669 0.4971206 0.5592867 0.4874236 0.5358726 0.4887722 0.5358726 0.4874236 0.5275669 0.002879261 0.5041529 0.004152834 0.5041529 0.002879261 0.4958471 0.4958471 0.004152834 0.4971206 0.004152834 0.4958471 0.5288404 0.4958471 0.5275669 0.004152834 0.5288404 0.004152834 0.5592867 0.4958795 0.5605602 0.9791718 0.5592867 0.9792684 0.4971206 0.4958471 0.4958471 0.004152834 0.4971207 0.004152834 0.5592867 0.004034757 0.5605602 0.4875202 0.5592867 0.4874236 0.002879321 0.004152834 0.004152834 0.4958471 0.002879261 0.4958471 0.5358726 0.4958795 0.5592867 0.9792684 0.5358726 0.9792684 0.004152834 0.4958471 0.004152894 0.004152834 0.4958471 0.004152834 0.5041529 0.004152834 0.5275669 0.004152834 0.5275669 0.4958471 0.5358726 0.004034757 0.5592867 0.004034757 0.5592867 0.4874236 0.5041529 0.5041528 0.5275669 0.5041528 0.5275669 0.9958471 0.004152834 0.9958471 0.004152894 0.5041529 0.4958471 0.5041529 0.5592867 0.9792684 0.5605602 0.9791718 0.5603265 0.9801513 0.4958471 0.004152834 0.4958471 0.002879321 0.496887 0.003113031 0.5041529 0.9958471 0.5041529 0.9971206 0.503113 0.9968869 0.004152894 0.004152834 0.002879321 0.004152834 0.003113031 0.003112971 0.5592867 0.004034757 0.5592867 0.002879261 0.5603265 0.003151834 0.5041529 0.5041528 0.5028793 0.5041528 0.503113 0.503113 0.5358726 0.9792684 0.5358726 0.9804239 0.5348328 0.9801513 0.5275669 0.9958471 0.5288404 0.9958471 0.5286067 0.9968869 0.4958471 0.9958471 0.4971206 0.9958471 0.4968869 0.996887 0.5358726 0.004034757 0.5345991 0.004131317 0.5348328 0.003151834 0.004152834 0.9958471 0.004152834 0.9971206 0.003112971 0.9968869 0.5275669 0.5041528 0.5275669 0.5028793 0.5286067 0.503113 0.5592867 0.4958795 0.5592867 0.4945309 0.5603265 0.4947179 0.5275669 0.4958471 0.5288404 0.4958471 0.5286067 0.4968869 0.4958471 0.4958471 0.4971206 0.4958471 0.4968869 0.496887 0.5592867 0.4874236 0.5605602 0.4875202 0.5603265 0.4885852 0.004152834 0.4958471 0.004152834 0.4971206 0.003112971 0.4968869 0.5275669 0.004152834 0.5275669 0.002879261 0.5286067 0.003112971 0.5358726 0.4958795 0.5345991 0.495783 0.5348328 0.4947179 0.4958471 0.5041529 0.4958471 0.5028794 0.496887 0.503113 0.5041529 0.4958471 0.5041529 0.4971206 0.503113 0.4968869 0.5358726 0.4874236 0.5358726 0.4887722 0.5348328 0.4885852 0.5041529 0.004152834 0.5028793 0.004152834 0.503113 0.003112971 0.004152894 0.5041529 0.002879321 0.5041529 0.003113031 0.503113 0.5592867 0.9792684 0.5592867 0.9804239 0.5358726 0.9804239 0.5041529 0.9971206 0.5041529 0.9958471 0.5275669 0.9958471 0.004152894 0.004152834 0.004152894 0.002879261 0.4958471 0.002879321 0.5028793 0.5041528 0.5041529 0.5041528 0.5041529 0.9958471 0.5358726 0.004034757 0.5358726 0.002879261 0.5592867 0.002879261 0.5275669 0.5028793 0.5275669 0.5041528 0.5041529 0.5041528 0.4958471 0.9958471 0.4958471 0.9971207 0.004152834 0.9971206 0.5288404 0.9958471 0.5275669 0.9958471 0.5275669 0.5041528 0.5358726 0.9792684 0.5345991 0.9791718 0.5345991 0.495783 0.4971206 0.9958471 0.4958471 0.9958471 0.4958471 0.5041529 0.5358726 0.4874236 0.5345991 0.4875202 0.5345991 0.004131317 0.002879321 0.5041529 0.004152894 0.5041529 0.004152834 0.9958471 0.5041529 0.4958471 0.5028793 0.4958471 0.5028793 0.004152834 0.4958471 0.5028794 0.4958471 0.5041529 0.004152894 0.5041529 0.5358726 0.4958795 0.5358726 0.4945309 0.5592867 0.4945309 0.5041529 0.4971206 0.5041529 0.4958471 0.5275669 0.4958471 0.5592867 0.4874236 0.5592867 0.4887722 0.5358726 0.4887722 0.5275669 0.002879261 0.5275669 0.004152834 0.5041529 0.004152834 0.4958471 0.4958471 0.4958471 0.4971207 0.004152834 0.4971206 0.5288404 0.4958471 0.5275669 0.4958471 0.5275669 0.004152834 0.5592867 0.4958795 0.5605602 0.495783 0.5605602 0.9791718 0.4971206 0.4958471 0.4958471 0.4958471 0.4958471 0.004152834 0.5592867 0.004034757 0.5605602 0.004131317 0.5605602 0.4875202 0.002879321 0.004152834 0.004152894 0.004152834 0.004152834 0.4958471 0.5358726 0.4958795 0.5592867 0.4958795 0.5592867 0.9792684</float_array>
          <technique_common>
            <accessor source="#Cube_003-mesh-map-0-array" count="324" stride="2">
              <param name="S" type="float"/>
              <param name="T" type="float"/>
            </accessor>
          </technique_common>
        </source>
        <vertices id="Cube_003-mesh-vertices">
          <input semantic="POSITION" source="#Cube_003-mesh-positions"/>
        </vertices>
        <triangles material="CS_back-material" count="108">
          <input semantic="VERTEX" source="#Cube_003-mesh-vertices" offset="0"/>
          <input semantic="NORMAL" source="#Cube_003-mesh-normals" offset="1"/>
          <input semantic="TEXCOORD" source="#Cube_003-mesh-map-0" offset="2" set="0"/>
          <p>36 0 0 1 0 1 30 0 2 50 1 3 29 1 4 44 1 5 21 2 6 35 2 7 49 2 8 9 3 9 15 3 10 2 3 11 22 4 12 43 4 13 16 4 14 0 5 15 4 5 16 6 5 17 1 6 18 4 6 19 3 6 20 2 7 21 4 7 22 5 7 23 7 8 24 11 8 25 13 8 26 8 9 27 11 9 28 10 9 29 9 10 30 11 10 31 12 10 32 14 11 33 18 11 34 20 11 35 15 12 36 18 12 37 17 12 38 16 13 39 18 13 40 19 13 41 21 14 42 25 14 43 27 14 44 22 15 45 25 15 46 24 15 47 23 16 48 25 16 49 26 16 50 28 17 51 32 17 52 34 17 53 29 18 54 32 18 55 31 18 56 30 19 57 32 19 58 33 19 59 35 20 60 39 20 61 41 20 62 36 21 63 39 21 64 38 21 65 37 22 66 39 22 67 40 22 68 42 23 69 46 23 70 48 23 71 43 24 72 46 24 73 45 24 74 44 25 75 46 25 76 47 25 77 49 26 78 53 26 79 55 26 80 50 27 81 53 27 82 52 27 83 51 28 84 53 28 85 54 28 86 0 29 87 17 29 88 14 29 89 6 30 90 15 30 91 17 30 92 7 31 93 5 31 94 1 31 95 13 32 96 2 32 97 5 32 98 21 33 99 12 33 100 8 33 101 27 34 102 9 34 103 12 34 104 16 35 105 26 35 106 22 35 107 19 36 108 23 36 109 26 36 110 14 37 111 45 37 112 42 37 113 20 38 114 43 38 115 45 38 116 49 39 117 24 39 118 21 39 119 55 40 120 22 40 121 24 40 122 44 41 123 54 41 124 50 41 125 47 42 126 51 42 127 54 42 128 42 43 129 31 43 130 28 43 131 48 44 132 29 44 133 31 44 134 35 45 135 52 45 136 49 45 137 41 46 138 50 46 139 52 46 140 30 47 141 40 47 142 36 47 143 33 48 144 37 48 145 40 48 146 28 49 147 3 49 148 0 49 149 34 50 150 1 50 151 3 50 152 8 51 153 38 51 154 35 51 155 10 52 156 36 52 157 38 52 158 42 53 159 0 53 160 14 53 161 36 54 162 7 54 163 1 54 164 50 55 165 37 55 166 29 55 167 21 56 168 8 56 169 35 56 170 9 57 171 23 57 172 15 57 173 22 58 174 51 58 175 43 58 176 0 59 177 3 59 178 4 59 179 1 60 180 5 60 181 4 60 182 2 61 183 6 61 184 4 61 185 7 62 186 10 62 187 11 62 188 8 63 189 12 63 190 11 63 191 9 64 192 13 64 193 11 64 194 14 65 195 17 65 196 18 65 197 15 66 198 19 66 199 18 66 200 16 67 201 20 67 202 18 67 203 21 68 204 24 68 205 25 68 206 22 69 207 26 69 208 25 69 209 23 70 210 27 70 211 25 70 212 28 71 213 31 71 214 32 71 215 29 72 216 33 72 217 32 72 218 30 73 219 34 73 220 32 73 221 35 74 222 38 74 223 39 74 224 36 75 225 40 75 226 39 75 227 37 76 228 41 76 229 39 76 230 42 77 231 45 77 232 46 77 233 43 78 234 47 78 235 46 78 236 44 79 237 48 79 238 46 79 239 49 80 240 52 80 241 53 80 242 50 81 243 54 81 244 53 81 245 51 82 246 55 82 247 53 82 248 0 83 249 6 83 250 17 83 251 6 84 252 2 84 253 15 84 254 7 85 255 13 85 256 5 85 257 13 86 258 9 86 259 2 86 260 21 87 261 27 87 262 12 87 263 27 88 264 23 88 265 9 88 266 16 89 267 19 89 268 26 89 269 19 90 270 15 90 271 23 90 272 14 91 273 20 91 274 45 91 275 20 92 276 16 92 277 43 92 278 49 93 279 55 93 280 24 93 281 55 94 282 51 94 283 22 94 284 44 95 285 47 95 286 54 95 287 47 96 288 43 96 289 51 96 290 42 97 291 48 97 292 31 97 293 48 98 294 44 98 295 29 98 296 35 99 297 41 99 298 52 99 299 41 100 300 37 100 301 50 100 302 30 101 303 33 101 304 40 101 305 33 102 306 29 102 307 37 102 308 28 103 309 34 103 310 3 103 311 34 104 312 30 104 313 1 104 314 8 105 315 10 105 316 38 105 317 10 106 318 7 106 319 36 106 320 42 107 321 28 107 322 0 107 323</p>
        </triangles>
      </mesh>
    </geometry>
    <geometry id="Cube_002-mesh" name="Cube.002">
      <mesh>
        <source id="Cube_002-mesh-positions">
          <float_array id="Cube_002-mesh-positions-array" count="168">-0.273 -0.01299995 -0.275 -0.273 -0.01499998 -0.273 -0.275 -0.01299995 -0.273 -0.273 -0.01441419 -0.2744142 -0.2741547 -0.01415467 -0.2741547 -0.2744142 -0.01441419 -0.273 -0.2744142 -0.01299995 -0.2744142 -0.273 -0.01499998 0.273 -0.273 -0.01299995 0.275 -0.275 -0.01299995 0.273 -0.273 -0.01441419 0.2744142 -0.2741547 -0.01415467 0.2741547 -0.2744142 -0.01299995 0.2744142 -0.2744142 -0.01441419 0.273 -0.273 0.01299995 -0.275 -0.275 0.01299995 -0.273 -0.273 0.01499998 -0.273 -0.2744142 0.01299995 -0.2744142 -0.2741547 0.01415467 -0.2741547 -0.2744142 0.01441419 -0.273 -0.273 0.01441419 -0.2744142 -0.273 0.01299995 0.275 -0.273 0.01499998 0.273 -0.275 0.01299995 0.273 -0.273 0.01441419 0.2744142 -0.2741547 0.01415467 0.2741547 -0.2744142 0.01441419 0.273 -0.2744142 0.01299995 0.2744142 0.273 -0.01299995 -0.275 0.275 -0.01299995 -0.273 0.273 -0.01499998 -0.273 0.2744142 -0.01299995 -0.2744142 0.2741547 -0.01415467 -0.2741547 0.2744142 -0.01441419 -0.273 0.273 -0.01441419 -0.2744142 0.273 -0.01299995 0.275 0.273 -0.01499998 0.273 0.275 -0.01299995 0.273 0.273 -0.01441419 0.2744142 0.2741547 -0.01415467 0.2741547 0.2744142 -0.01441419 0.273 0.2744142 -0.01299995 0.2744142 0.273 0.01299995 -0.275 0.273 0.01499998 -0.273 0.275 0.01299995 -0.273 0.273 0.01441419 -0.2744142 0.2741547 0.01415467 -0.2741547 0.2744142 0.01441419 -0.273 0.2744142 0.01299995 -0.2744142 0.273 0.01299995 0.275 0.275 0.01299995 0.273 0.273 0.01499998 0.273 0.2744142 0.01299995 0.2744142 0.2741547 0.01415467 0.2741547 0.2744142 0.01441419 0.273 0.273 0.01441419 0.2744142</float_array>
          <technique_common>
            <accessor source="#Cube_002-mesh-positions-array" count="56" stride="3">
              <param name="X" type="float"/>
              <param name="Y" type="float"/>
              <param name="Z" type="float"/>
            </accessor>
          </technique_common>
        </source>
        <source id="Cube_002-mesh-normals">
          <float_array id="Cube_002-mesh-normals-array" count="324">0 -1 0 1 0 0 0 0 1 -1 0 0 0 1 0 -0.367185 -0.2817535 -0.886448 -0.2817513 -0.8864504 -0.3671811 -0.8864483 -0.367184 -0.2817541 -0.3671811 -0.8864504 0.2817513 -0.2817541 -0.367184 0.8864483 -0.886448 -0.2817535 0.367185 -0.2817541 0.367184 -0.8864483 -0.886448 0.2817535 -0.367185 -0.3671811 0.8864504 -0.2817513 -0.367185 0.2817535 0.886448 -0.2817513 0.8864504 0.3671811 -0.8864483 0.367184 0.2817541 0.2817541 -0.367184 -0.8864483 0.886448 -0.2817535 -0.367185 0.3671811 -0.8864504 -0.2817513 0.367185 -0.2817535 0.886448 0.2817513 -0.8864504 0.3671811 0.8864483 -0.367184 0.2817541 0.367185 0.2817535 -0.886448 0.2817513 0.8864504 -0.3671811 0.8864483 0.367184 -0.2817541 0.2817541 0.367184 0.8864483 0.886448 0.2817535 0.367185 0.3671811 0.8864504 0.2817513 -0.3826888 0 -0.9238772 -0.9238773 0 -0.3826888 -0.3826847 -0.923879 0 -0.9238777 -0.3826879 0 -0.3826888 0 0.9238772 -0.9238773 0 0.3826888 -0.3826847 0.923879 0 -0.9238777 0.3826879 0 0 0.3826879 -0.9238777 0 0.923879 -0.3826847 0 0.3826879 0.9238777 0 0.923879 0.3826847 0.9238777 0.3826879 0 0.3826847 0.923879 0 0.3826888 0 -0.9238772 0.9238773 0 -0.3826888 0.3826888 0 0.9238772 0.9238773 0 0.3826888 0.3826847 -0.923879 0 0.9238777 -0.3826879 0 0 -0.3826879 -0.9238777 0 -0.923879 -0.3826847 0 -0.3826879 0.9238777 0 -0.923879 0.3826847 0 0 -1 0 -1 0 1 0 0 0 0 1 -1 0 0 0 1 0 -0.2817541 -0.367184 -0.8864483 -0.3671811 -0.8864504 -0.2817514 -0.886448 -0.2817535 -0.367185 -0.2817514 -0.8864504 0.3671811 -0.367185 -0.2817535 0.886448 -0.8864483 -0.3671839 0.281754 -0.367185 0.2817535 -0.886448 -0.8864483 0.3671839 -0.281754 -0.2817514 0.8864504 -0.3671811 -0.2817541 0.367184 0.8864483 -0.3671811 0.8864504 0.2817514 -0.886448 0.2817535 0.367185 0.367185 -0.2817535 -0.886448 0.8864483 -0.3671839 -0.281754 0.2817514 -0.8864504 -0.3671811 0.2817541 -0.367184 0.8864483 0.3671811 -0.8864504 0.2817514 0.886448 -0.2817535 0.367185 0.2817541 0.367184 -0.8864483 0.3671811 0.8864504 -0.2817514 0.886448 0.2817535 -0.367185 0.367185 0.2817535 0.886448 0.8864483 0.3671839 0.281754 0.2817514 0.8864504 0.3671811 -0.3826888 0 -0.9238773 -0.9238774 0 -0.3826888 -0.3826847 -0.923879 0 -0.9238777 -0.3826879 0 -0.3826888 0 0.9238773 -0.9238774 0 0.3826888 -0.3826847 0.923879 0 -0.9238777 0.3826879 0 0 0.3826879 -0.9238777 0 0.923879 -0.3826847 0 0.3826879 0.9238777 0 0.923879 0.3826847 0.9238777 0.3826879 0 0.3826847 0.923879 0 0.3826888 0 -0.9238773 0.9238774 0 -0.3826888 0.3826888 0 0.9238773 0.9238774 0 0.3826888 0.3826847 -0.923879 0 0.9238777 -0.3826879 0 0 -0.3826879 -0.9238777 0 -0.923879 -0.3826847 0 -0.3826879 0.9238777 0 -0.923879 0.3826847 0 0 -1</float_array>
          <technique_common>
            <accessor source="#Cube_002-mesh-normals-array" count="108" stride="3">
              <param name="X" type="float"/>
              <param name="Y" type="float"/>
              <param name="Z" type="float"/>
            </accessor>
          </technique_common>
        </source>
        <source id="Cube_002-mesh-map-0">
          <float_array id="Cube_002-mesh-map-0-array" count="648">0.004152834 0.4958471 0.4958471 0.004152834 0.4958471 0.4958471 0.5041529 0.004152834 0.5275669 0.4958471 0.5041529 0.4958471 0.5358726 0.004034757 0.5592867 0.4874236 0.5358726 0.4874236 0.5041529 0.5041528 0.5275669 0.9958471 0.5041529 0.9958471 0.004152834 0.9958471 0.4958471 0.5041529 0.4958471 0.9958471 0.5592867 0.9792684 0.5603265 0.9801513 0.5592867 0.9804239 0.4958471 0.004152834 0.496887 0.003113031 0.4971207 0.004152834 0.5041529 0.9958471 0.503113 0.9968869 0.5028793 0.9958471 0.004152894 0.004152834 0.003113031 0.003112971 0.004152894 0.002879261 0.5592867 0.004034757 0.5603265 0.003151834 0.5605602 0.004131317 0.5041529 0.5041528 0.503113 0.503113 0.5041529 0.5028793 0.5358726 0.9792684 0.5348328 0.9801513 0.5345991 0.9791718 0.5275669 0.9958471 0.5286067 0.9968869 0.5275669 0.9971206 0.4958471 0.9958471 0.4968869 0.996887 0.4958471 0.9971207 0.5358726 0.004034757 0.5348328 0.003151834 0.5358726 0.002879261 0.004152834 0.9958471 0.003112971 0.9968869 0.002879261 0.9958471 0.5275669 0.5041528 0.5286067 0.503113 0.5288404 0.5041528 0.5592867 0.4958795 0.5603265 0.4947179 0.5605602 0.495783 0.5275669 0.4958471 0.5286067 0.4968869 0.5275669 0.4971206 0.4958471 0.4958471 0.4968869 0.496887 0.4958471 0.4971207 0.5592867 0.4874236 0.5603265 0.4885852 0.5592867 0.4887722 0.004152834 0.4958471 0.003112971 0.4968869 0.002879261 0.4958471 0.5275669 0.004152834 0.5286067 0.003112971 0.5288404 0.004152834 0.5358726 0.4958795 0.5348328 0.4947179 0.5358726 0.4945309 0.4958471 0.5041529 0.496887 0.503113 0.4971207 0.5041529 0.5041529 0.4958471 0.503113 0.4968869 0.5028793 0.4958471 0.5358726 0.4874236 0.5348328 0.4885852 0.5345991 0.4875202 0.5041529 0.004152834 0.503113 0.003112971 0.5041529 0.002879261 0.004152894 0.5041529 0.003113031 0.503113 0.004152894 0.5028793 0.5592867 0.9792684 0.5358726 0.9804239 0.5358726 0.9792684 0.5041529 0.9971206 0.5275669 0.9958471 0.5275669 0.9971206 0.004152894 0.004152834 0.4958471 0.002879321 0.4958471 0.004152834 0.5028793 0.5041528 0.5041529 0.9958471 0.5028793 0.9958471 0.5358726 0.004034757 0.5592867 0.002879261 0.5592867 0.004034757 0.5275669 0.5028793 0.5041529 0.5041528 0.5041529 0.5028793 0.4958471 0.9958471 0.004152834 0.9971206 0.004152834 0.9958471 0.5288404 0.9958471 0.5275669 0.5041528 0.5288404 0.5041528 0.5358726 0.9792684 0.5345991 0.495783 0.5358726 0.4958795 0.4971206 0.9958471 0.4958471 0.5041529 0.4971207 0.5041529 0.5358726 0.4874236 0.5345991 0.004131317 0.5358726 0.004034757 0.002879321 0.5041529 0.004152834 0.9958471 0.002879261 0.9958471 0.5041529 0.4958471 0.5028793 0.004152834 0.5041529 0.004152834 0.4958471 0.5028794 0.004152894 0.5041529 0.004152894 0.5028793 0.5358726 0.4958795 0.5592867 0.4945309 0.5592867 0.4958795 0.5041529 0.4971206 0.5275669 0.4958471 0.5275669 0.4971206 0.5592867 0.4874236 0.5358726 0.4887722 0.5358726 0.4874236 0.5275669 0.002879261 0.5041529 0.004152834 0.5041529 0.002879261 0.4958471 0.4958471 0.004152834 0.4971206 0.004152834 0.4958471 0.5288404 0.4958471 0.5275669 0.004152834 0.5288404 0.004152834 0.5592867 0.4958795 0.5605602 0.9791718 0.5592867 0.9792684 0.4971206 0.4958471 0.4958471 0.004152834 0.4971207 0.004152834 0.5592867 0.004034757 0.5605602 0.4875202 0.5592867 0.4874236 0.002879321 0.004152834 0.004152834 0.4958471 0.002879261 0.4958471 0.5358726 0.4958795 0.5592867 0.9792684 0.5358726 0.9792684 0.004152834 0.4958471 0.004152894 0.004152834 0.4958471 0.004152834 0.5041529 0.004152834 0.5275669 0.004152834 0.5275669 0.4958471 0.5358726 0.004034757 0.5592867 0.004034757 0.5592867 0.4874236 0.5041529 0.5041528 0.5275669 0.5041528 0.5275669 0.9958471 0.004152834 0.9958471 0.004152894 0.5041529 0.4958471 0.5041529 0.5592867 0.9792684 0.5605602 0.9791718 0.5603265 0.9801513 0.4958471 0.004152834 0.4958471 0.002879321 0.496887 0.003113031 0.5041529 0.9958471 0.5041529 0.9971206 0.503113 0.9968869 0.004152894 0.004152834 0.002879321 0.004152834 0.003113031 0.003112971 0.5592867 0.004034757 0.5592867 0.002879261 0.5603265 0.003151834 0.5041529 0.5041528 0.5028793 0.5041528 0.503113 0.503113 0.5358726 0.9792684 0.5358726 0.9804239 0.5348328 0.9801513 0.5275669 0.9958471 0.5288404 0.9958471 0.5286067 0.9968869 0.4958471 0.9958471 0.4971206 0.9958471 0.4968869 0.996887 0.5358726 0.004034757 0.5345991 0.004131317 0.5348328 0.003151834 0.004152834 0.9958471 0.004152834 0.9971206 0.003112971 0.9968869 0.5275669 0.5041528 0.5275669 0.5028793 0.5286067 0.503113 0.5592867 0.4958795 0.5592867 0.4945309 0.5603265 0.4947179 0.5275669 0.4958471 0.5288404 0.4958471 0.5286067 0.4968869 0.4958471 0.4958471 0.4971206 0.4958471 0.4968869 0.496887 0.5592867 0.4874236 0.5605602 0.4875202 0.5603265 0.4885852 0.004152834 0.4958471 0.004152834 0.4971206 0.003112971 0.4968869 0.5275669 0.004152834 0.5275669 0.002879261 0.5286067 0.003112971 0.5358726 0.4958795 0.5345991 0.495783 0.5348328 0.4947179 0.4958471 0.5041529 0.4958471 0.5028794 0.496887 0.503113 0.5041529 0.4958471 0.5041529 0.4971206 0.503113 0.4968869 0.5358726 0.4874236 0.5358726 0.4887722 0.5348328 0.4885852 0.5041529 0.004152834 0.5028793 0.004152834 0.503113 0.003112971 0.004152894 0.5041529 0.002879321 0.5041529 0.003113031 0.503113 0.5592867 0.9792684 0.5592867 0.9804239 0.5358726 0.9804239 0.5041529 0.9971206 0.5041529 0.9958471 0.5275669 0.9958471 0.004152894 0.004152834 0.004152894 0.002879261 0.4958471 0.002879321 0.5028793 0.5041528 0.5041529 0.5041528 0.5041529 0.9958471 0.5358726 0.004034757 0.5358726 0.002879261 0.5592867 0.002879261 0.5275669 0.5028793 0.5275669 0.5041528 0.5041529 0.5041528 0.4958471 0.9958471 0.4958471 0.9971207 0.004152834 0.9971206 0.5288404 0.9958471 0.5275669 0.9958471 0.5275669 0.5041528 0.5358726 0.9792684 0.5345991 0.9791718 0.5345991 0.495783 0.4971206 0.9958471 0.4958471 0.9958471 0.4958471 0.5041529 0.5358726 0.4874236 0.5345991 0.4875202 0.5345991 0.004131317 0.002879321 0.5041529 0.004152894 0.5041529 0.004152834 0.9958471 0.5041529 0.4958471 0.5028793 0.4958471 0.5028793 0.004152834 0.4958471 0.5028794 0.4958471 0.5041529 0.004152894 0.5041529 0.5358726 0.4958795 0.5358726 0.4945309 0.5592867 0.4945309 0.5041529 0.4971206 0.5041529 0.4958471 0.5275669 0.4958471 0.5592867 0.4874236 0.5592867 0.4887722 0.5358726 0.4887722 0.5275669 0.002879261 0.5275669 0.004152834 0.5041529 0.004152834 0.4958471 0.4958471 0.4958471 0.4971207 0.004152834 0.4971206 0.5288404 0.4958471 0.5275669 0.4958471 0.5275669 0.004152834 0.5592867 0.4958795 0.5605602 0.495783 0.5605602 0.9791718 0.4971206 0.4958471 0.4958471 0.4958471 0.4958471 0.004152834 0.5592867 0.004034757 0.5605602 0.004131317 0.5605602 0.4875202 0.002879321 0.004152834 0.004152894 0.004152834 0.004152834 0.4958471 0.5358726 0.4958795 0.5592867 0.4958795 0.5592867 0.9792684</float_array>
          <technique_common>
            <accessor source="#Cube_002-mesh-map-0-array" count="324" stride="2">
              <param name="S" type="float"/>
              <param name="T" type="float"/>
            </accessor>
          </technique_common>
        </source>
        <vertices id="Cube_002-mesh-vertices">
          <input semantic="POSITION" source="#Cube_002-mesh-positions"/>
        </vertices>
        <triangles material="CS_front-material" count="108">
          <input semantic="VERTEX" source="#Cube_002-mesh-vertices" offset="0"/>
          <input semantic="NORMAL" source="#Cube_002-mesh-normals" offset="1"/>
          <input semantic="TEXCOORD" source="#Cube_002-mesh-map-0" offset="2" set="0"/>
          <p>36 0 0 1 0 1 30 0 2 50 1 3 29 1 4 44 1 5 21 2 6 35 2 7 49 2 8 9 3 9 15 3 10 2 3 11 22 4 12 43 4 13 16 4 14 0 5 15 4 5 16 6 5 17 1 6 18 4 6 19 3 6 20 2 7 21 4 7 22 5 7 23 7 8 24 11 8 25 13 8 26 8 9 27 11 9 28 10 9 29 9 10 30 11 10 31 12 10 32 14 11 33 18 11 34 20 11 35 15 12 36 18 12 37 17 12 38 16 13 39 18 13 40 19 13 41 21 14 42 25 14 43 27 14 44 22 15 45 25 15 46 24 15 47 23 16 48 25 16 49 26 16 50 28 17 51 32 17 52 34 17 53 29 18 54 32 18 55 31 18 56 30 19 57 32 19 58 33 19 59 35 20 60 39 20 61 41 20 62 36 21 63 39 21 64 38 21 65 37 22 66 39 22 67 40 22 68 42 23 69 46 23 70 48 23 71 43 24 72 46 24 73 45 24 74 44 25 75 46 25 76 47 25 77 49 26 78 53 26 79 55 26 80 50 27 81 53 27 82 52 27 83 51 28 84 53 28 85 54 28 86 0 29 87 17 29 88 14 29 89 6 30 90 15 30 91 17 30 92 7 31 93 5 31 94 1 31 95 13 32 96 2 32 97 5 32 98 21 33 99 12 33 100 8 33 101 27 34 102 9 34 103 12 34 104 16 35 105 26 35 106 22 35 107 19 36 108 23 36 109 26 36 110 14 37 111 45 37 112 42 37 113 20 38 114 43 38 115 45 38 116 49 39 117 24 39 118 21 39 119 55 40 120 22 40 121 24 40 122 44 41 123 54 41 124 50 41 125 47 42 126 51 42 127 54 42 128 42 43 129 31 43 130 28 43 131 48 44 132 29 44 133 31 44 134 35 45 135 52 45 136 49 45 137 41 46 138 50 46 139 52 46 140 30 47 141 40 47 142 36 47 143 33 48 144 37 48 145 40 48 146 28 49 147 3 49 148 0 49 149 34 50 150 1 50 151 3 50 152 8 51 153 38 51 154 35 51 155 10 52 156 36 52 157 38 52 158 42 53 159 0 53 160 14 53 161 36 54 162 7 54 163 1 54 164 50 55 165 37 55 166 29 55 167 21 56 168 8 56 169 35 56 170 9 57 171 23 57 172 15 57 173 22 58 174 51 58 175 43 58 176 0 59 177 3 59 178 4 59 179 1 60 180 5 60 181 4 60 182 2 61 183 6 61 184 4 61 185 7 62 186 10 62 187 11 62 188 8 63 189 12 63 190 11 63 191 9 64 192 13 64 193 11 64 194 14 65 195 17 65 196 18 65 197 15 66 198 19 66 199 18 66 200 16 67 201 20 67 202 18 67 203 21 68 204 24 68 205 25 68 206 22 69 207 26 69 208 25 69 209 23 70 210 27 70 211 25 70 212 28 71 213 31 71 214 32 71 215 29 72 216 33 72 217 32 72 218 30 73 219 34 73 220 32 73 221 35 74 222 38 74 223 39 74 224 36 75 225 40 75 226 39 75 227 37 76 228 41 76 229 39 76 230 42 77 231 45 77 232 46 77 233 43 78 234 47 78 235 46 78 236 44 79 237 48 79 238 46 79 239 49 80 240 52 80 241 53 80 242 50 81 243 54 81 244 53 81 245 51 82 246 55 82 247 53 82 248 0 83 249 6 83 250 17 83 251 6 84 252 2 84 253 15 84 254 7 85 255 13 85 256 5 85 257 13 86 258 9 86 259 2 86 260 21 87 261 27 87 262 12 87 263 27 88 264 23 88 265 9 88 266 16 89 267 19 89 268 26 89 269 19 90 270 15 90 271 23 90 272 14 91 273 20 91 274 45 91 275 20 92 276 16 92 277 43 92 278 49 93 279 55 93 280 24 93 281 55 94 282 51 94 283 22 94 284 44 95 285 47 95 286 54 95 287 47 96 288 43 96 289 51 96 290 42 97 291 48 97 292 31 97 293 48 98 294 44 98 295 29 98 296 35 99 297 41 99 298 52 99 299 41 100 300 37 100 301 50 100 302 30 101 303 33 101 304 40 101 305 33 102 306 29 102 307 37 102 308 28 103 309 34 103 310 3 103 311 34 104 312 30 104 313 1 104 314 8 105 315 10 105 316 38 105 317 10 106 318 7 106 319 36 106 320 42 107 321 28 107 322 0 107 323</p>
        </triangles>
      </mesh>
    </geometry>
    <geometry id="Cube_001-mesh" name="Cube.001">
      <mesh>
        <source id="Cube_001-mesh-positions">
          <float_array id="Cube_001-mesh-positions-array" count="24">-0.05499994 -0.05499994 -0.01749998 -0.05499994 -0.05499994 0.01749998 -0.05499994 0.05499994 -0.01749998 -0.05499994 0.05499994 0.01749998 0.05499994 -0.05499994 -0.01749998 0.05499994 -0.05499994 0.01749998 0.05499994 0.05499994 -0.01749998 0.05499994 0.05499994 0.01749998</float_array>
          <technique_common>
            <accessor source="#Cube_001-mesh-positions-array" count="8" stride="3">
              <param name="X" type="float"/>
              <param name="Y" type="float"/>
              <param name="Z" type="float"/>
            </accessor>
          </technique_common>
        </source>
        <source id="Cube_001-mesh-normals">
          <float_array id="Cube_001-mesh-normals-array" count="36">-1 0 0 0 1 0 1 0 0 0 -1 0 0 0 -1 0 0 1 -1 0 0 0 1 0 1 0 0 0 -1 0 0 0 -1 0 0 1</float_array>
          <technique_common>
            <accessor source="#Cube_001-mesh-normals-array" count="12" stride="3">
              <param name="X" type="float"/>
              <param name="Y" type="float"/>
              <param name="Z" type="float"/>
            </accessor>
          </technique_common>
        </source>
        <source id="Cube_001-mesh-map-0">
          <float_array id="Cube_001-mesh-map-0-array" count="72">0.625 0 0.375 0.25 0.375 0 0.625 0.25 0.375 0.5 0.375 0.25 0.625 0.5 0.375 0.75 0.375 0.5 0.625 0.75 0.375 1 0.375 0.75 0.375 0.5 0.125 0.75 0.125 0.5 0.875 0.5 0.625 0.75 0.625 0.5 0.625 0 0.625 0.25 0.375 0.25 0.625 0.25 0.625 0.5 0.375 0.5 0.625 0.5 0.625 0.75 0.375 0.75 0.625 0.75 0.625 1 0.375 1 0.375 0.5 0.375 0.75 0.125 0.75 0.875 0.5 0.875 0.75 0.625 0.75</float_array>
          <technique_common>
            <accessor source="#Cube_001-mesh-map-0-array" count="36" stride="2">
              <param name="S" type="float"/>
              <param name="T" type="float"/>
            </accessor>
          </technique_common>
        </source>
        <vertices id="Cube_001-mesh-vertices">
          <input semantic="POSITION" source="#Cube_001-mesh-positions"/>
        </vertices>
        <triangles material="CS_metal-material" count="12">
          <input semantic="VERTEX" source="#Cube_001-mesh-vertices" offset="0"/>
          <input semantic="NORMAL" source="#Cube_001-mesh-normals" offset="1"/>
          <input semantic="TEXCOORD" source="#Cube_001-mesh-map-0" offset="2" set="0"/>
          <p>1 0 0 2 0 1 0 0 2 3 1 3 6 1 4 2 1 5 7 2 6 4 2 7 6 2 8 5 3 9 0 3 10 4 3 11 6 4 12 0 4 13 2 4 14 3 5 15 5 5 16 7 5 17 1 6 18 3 6 19 2 6 20 3 7 21 7 7 22 6 7 23 7 8 24 5 8 25 4 8 26 5 9 27 1 9 28 0 9 29 6 10 30 4 10 31 0 10 32 3 11 33 1 11 34 5 11 35</p>
        </triangles>
      </mesh>
    </geometry>
    <geometry id="Cone-mesh" name="Cone">
      <mesh>
        <source id="Cone-mesh-positions">
          <float_array id="Cone-mesh-positions-array" count="15">-0.04454767 0.04454767 -0.07999998 0.04454767 0.04454767 -0.07999998 0.04454767 -0.04454767 -0.07999998 -0.04454767 -0.04454767 -0.07999998 0 0 0.07999998</float_array>
          <technique_common>
            <accessor source="#Cone-mesh-positions-array" count="5" stride="3">
              <param name="X" type="float"/>
              <param name="Y" type="float"/>
              <param name="Z" type="float"/>
            </accessor>
          </technique_common>
        </source>
        <source id="Cone-mesh-normals">
          <float_array id="Cone-mesh-normals-array" count="18">0 0.9633574 0.2682211 0.9633574 0 0.2682211 0 0 -1 0 -0.9633574 0.2682211 -0.9633574 0 0.2682211 0 0 -1</float_array>
          <technique_common>
            <accessor source="#Cone-mesh-normals-array" count="6" stride="3">
              <param name="X" type="float"/>
              <param name="Y" type="float"/>
              <param name="Z" type="float"/>
            </accessor>
          </technique_common>
        </source>
        <source id="Cone-mesh-map-0">
          <float_array id="Cone-mesh-map-0-array" count="36">0.25 0.49 0.25 0.25 0.49 0.25 0.49 0.25 0.25 0.25 0.25 0.00999999 0.99 0.25 0.51 0.25 0.75 0.49 0.25 0.00999999 0.25 0.25 0.00999999 0.25 0.00999999 0.25 0.25 0.25 0.25 0.49 0.99 0.25 0.75 0.00999999 0.51 0.25</float_array>
          <technique_common>
            <accessor source="#Cone-mesh-map-0-array" count="18" stride="2">
              <param name="S" type="float"/>
              <param name="T" type="float"/>
            </accessor>
          </technique_common>
        </source>
        <vertices id="Cone-mesh-vertices">
          <input semantic="POSITION" source="#Cone-mesh-positions"/>
        </vertices>
        <triangles material="CS_wood-material" count="6">
          <input semantic="VERTEX" source="#Cone-mesh-vertices" offset="0"/>
          <input semantic="NORMAL" source="#Cone-mesh-normals" offset="1"/>
          <input semantic="TEXCOORD" source="#Cone-mesh-map-0" offset="2" set="0"/>
          <p>0 0 0 4 0 1 1 0 2 1 1 3 4 1 4 2 1 5 1 2 6 3 2 7 0 2 8 2 3 9 4 3 10 3 3 11 3 4 12 4 4 13 0 4 14 1 5 15 2 5 16 3 5 17</p>
        </triangles>
      </mesh>
    </geometry>
    <geometry id="Cube-mesh" name="Cube">
      <mesh>
        <source id="Cube-mesh-positions">
          <float_array id="Cube-mesh-positions-array" count="168">-0.04249995 -0.04249995 0 -0.04249995 -0.04499995 0.002499997 -0.04499995 -0.04249995 0.002499997 -0.04249995 -0.04426777 7.32243e-4 -0.04394334 -0.04394334 0.001056611 -0.04426771 -0.04426777 0.002499997 -0.04426771 -0.04249995 7.32243e-4 -0.04249995 -0.04499995 1.5475 -0.04249995 -0.04249995 1.55 -0.04499995 -0.04249995 1.5475 -0.04249995 -0.04426777 1.549268 -0.04394334 -0.04394334 1.548943 -0.04426771 -0.04249995 1.549268 -0.04426771 -0.04426777 1.5475 -0.04249995 0.04249995 0 -0.04499995 0.04249995 0.002499997 -0.04249995 0.04499995 0.002499997 -0.04426777 0.04249995 7.32243e-4 -0.04394334 0.04394334 0.001056611 -0.04426777 0.04426771 0.002499997 -0.04249995 0.04426771 7.32243e-4 -0.04249995 0.04249995 1.55 -0.04249995 0.04499995 1.5475 -0.04499995 0.04249995 1.5475 -0.04249995 0.04426777 1.549268 -0.04394334 0.04394334 1.548943 -0.04426771 0.04426777 1.5475 -0.04426771 0.04249995 1.549268 0.04249995 -0.04249995 0 0.04499995 -0.04249995 0.002499997 0.04249995 -0.04499995 0.002499997 0.04426777 -0.04249995 7.32243e-4 0.04394334 -0.04394334 0.001056611 0.04426777 -0.04426771 0.002499997 0.04249995 -0.04426771 7.32243e-4 0.04249995 -0.04249995 1.55 0.04249995 -0.04499995 1.5475 0.04499995 -0.04249995 1.5475 0.04249995 -0.04426777 1.549268 0.04394334 -0.04394334 1.548943 0.04426771 -0.04426777 1.5475 0.04426771 -0.04249995 1.549268 0.04249995 0.04249995 0 0.04249995 0.04499995 0.002499997 0.04499995 0.04249995 0.002499997 0.04249995 0.04426777 7.32243e-4 0.04394334 0.04394334 0.001056611 0.04426771 0.04426777 0.002499997 0.04426771 0.04249995 7.32243e-4 0.04249995 0.04249995 1.55 0.04499995 0.04249995 1.5475 0.04249995 0.04499995 1.5475 0.04426777 0.04249995 1.549268 0.04394334 0.04394334 1.548943 0.04426777 0.04426771 1.5475 0.04249995 0.04426771 1.549268</float_array>
          <technique_common>
            <accessor source="#Cube-mesh-positions-array" count="56" stride="3">
              <param name="X" type="float"/>
              <param name="Y" type="float"/>
              <param name="Z" type="float"/>
            </accessor>
          </technique_common>
        </source>
        <source id="Cube-mesh-normals">
          <float_array id="Cube-mesh-normals-array" count="324">0 -1 0 1 0 0 0 0 1 -1 0 0 0 1 0 -0.3671857 -0.2817359 -0.8864534 -0.2817441 -0.8864525 -0.3671814 -0.8864517 -0.3671803 -0.2817482 -0.3671784 -0.8864525 0.2817479 -0.2818002 -0.3671526 0.8864466 -0.8864535 -0.2817698 0.3671596 -0.2817359 0.3671857 -0.8864534 -0.8864525 0.2817441 -0.3671814 -0.3671803 0.8864517 -0.2817482 -0.3671529 0.2818002 0.8864465 -0.2817695 0.8864544 0.3671574 -0.8864517 0.3671803 0.2817482 0.2817359 -0.3671857 -0.8864534 0.8864525 -0.2817441 -0.3671814 0.3671803 -0.8864517 -0.2817482 0.3671529 -0.2818002 0.8864465 0.2817695 -0.8864544 0.3671574 0.8864517 -0.3671803 0.2817482 0.3671857 0.2817359 -0.8864534 0.2817441 0.8864525 -0.3671814 0.8864517 0.3671803 -0.2817482 0.2818002 0.3671529 0.8864465 0.8864544 0.2817695 0.3671574 0.3671803 0.8864517 0.2817482 -0.3826868 0 -0.9238781 -0.9238795 0 -0.3826835 -0.3826815 -0.9238803 0 -0.9238795 -0.3826834 0 -0.3826615 0 0.9238886 -0.9238873 0 0.3826648 -0.3826815 0.9238803 0 -0.9238795 0.3826834 0 0 0.3826868 -0.9238781 0 0.9238795 -0.3826835 0 0.3826602 0.9238892 0 0.9238886 0.3826615 0.9238803 0.3826815 0 0.3826834 0.9238795 0 0.3826868 0 -0.9238781 0.9238795 0 -0.3826835 0.3826602 0 0.9238892 0.9238886 0 0.3826615 0.3826815 -0.9238803 0 0.9238795 -0.3826834 0 0 -0.3826868 -0.9238781 0 -0.9238795 -0.3826835 0 -0.3826602 0.9238892 0 -0.9238886 0.3826615 0 0 -1 0 -1 0 1 0 0 0 0 1 -1 0 0 0 1 0 -0.2817359 -0.3671854 -0.8864535 -0.3671785 -0.8864526 -0.2817479 -0.8864516 -0.2817444 -0.3671835 -0.2817695 -0.8864544 0.3671573 -0.3671529 -0.2818002 0.8864465 -0.8864517 -0.3671803 0.2817482 -0.3671854 0.2817359 -0.8864535 -0.8864526 0.3671785 -0.2817479 -0.2817444 0.8864516 -0.3671835 -0.2818002 0.3671526 0.8864466 -0.3671785 0.8864526 0.2817479 -0.8864535 0.2817698 0.3671595 0.3671854 -0.2817359 -0.8864535 0.8864526 -0.3671785 -0.2817479 0.2817444 -0.8864516 -0.3671835 0.2818002 -0.3671526 0.8864466 0.3671785 -0.8864526 0.2817479 0.8864535 -0.2817698 0.3671595 0.2817359 0.3671854 -0.8864535 0.3671785 0.8864526 -0.2817479 0.8864516 0.2817444 -0.3671835 0.3671526 0.2818002 0.8864466 0.8864526 0.3671785 0.2817479 0.2817698 0.8864535 0.3671595 -0.3826881 0 -0.9238775 -0.9238782 0 -0.3826869 -0.3826815 -0.9238803 0 -0.9238795 -0.3826834 0 -0.3826615 0 0.9238886 -0.9238873 0 0.3826649 -0.3826834 0.9238795 0 -0.9238803 0.3826815 0 0 0.3826881 -0.9238775 0 0.9238782 -0.3826869 0 0.3826615 0.9238886 0 0.9238873 0.3826649 0.9238795 0.3826834 0 0.3826815 0.9238803 0 0.3826881 0 -0.9238775 0.9238782 0 -0.3826869 0.3826615 0 0.9238886 0.9238873 0 0.3826649 0.3826834 -0.9238795 0 0.9238803 -0.3826815 0 0 -0.3826881 -0.9238775 0 -0.9238782 -0.3826869 0 -0.3826602 0.9238892 0 -0.9238886 0.3826615 0 0 -1</float_array>
          <technique_common>
            <accessor source="#Cube-mesh-normals-array" count="108" stride="3">
              <param name="X" type="float"/>
              <param name="Y" type="float"/>
              <param name="Z" type="float"/>
            </accessor>
          </technique_common>
        </source>
        <source id="Cube-mesh-map-0">
          <float_array id="Cube-mesh-map-0-array" count="648">0.6245968 0.7569445 0.3754032 0.9930556 0.3754032 0.7569445 0.6245968 0.5069444 0.3754032 0.7430556 0.3754032 0.5069444 0.8680556 0.5069444 0.6319444 0.7430555 0.6319444 0.5069444 0.6245968 0.006944417 0.3754032 0.2430555 0.3754032 0.006944417 0.6245968 0.2569444 0.3754032 0.4930555 0.3754032 0.2569444 0.1319444 0.7430555 0.127935 0.75 0.125 0.7430556 0.3754032 0.9930556 0.3751705 1 0.375 0.9930555 0.3754032 0.006944417 0.375 0.002935051 0.3754032 0 0.6245968 0.9930555 0.625 0.997065 0.6245967 1 0.8680556 0.7430556 0.875 0.747065 0.8680556 0.75 0.6245968 0.006944417 0.6248295 0 0.625 0.006944417 0.1319444 0.5069444 0.125 0.5029351 0.1319444 0.5 0.3754032 0.2430555 0.3751705 0.25 0.375 0.2430555 0.3754032 0.2569444 0.375 0.2529351 0.3754033 0.25 0.8680556 0.5069444 0.872065 0.5 0.875 0.5069444 0.6245968 0.2569444 0.6248295 0.25 0.625 0.2569444 0.6245968 0.2430555 0.625 0.2470649 0.6245967 0.25 0.3680555 0.7430556 0.3750568 0.75 0.3680556 0.75 0.3754032 0.7430556 0.3750568 0.75 0.375 0.7430555 0.3754032 0.7569445 0.3750568 0.75 0.3754033 0.75 0.6319444 0.7430555 0.6259216 0.7490217 0.625 0.7430556 0.6245968 0.7569445 0.6259216 0.7490217 0.625 0.7569445 0.6245968 0.7430556 0.6259216 0.7490217 0.6245967 0.75 0.3680555 0.5069444 0.3740785 0.5009784 0.375 0.5069444 0.3754032 0.4930555 0.3740785 0.5009784 0.375 0.4930555 0.3754032 0.5069444 0.3740785 0.5009784 0.3754033 0.5 0.6319444 0.5069444 0.6249432 0.5 0.6319444 0.5 0.6245968 0.5069444 0.6249432 0.5 0.625 0.5069444 0.6245968 0.4930555 0.6249432 0.5 0.6245967 0.5 0.1319444 0.7430555 0.125 0.5069444 0.1319444 0.5069444 0.375 0.2430555 0.3754032 0.006944417 0.3754032 0.2430555 0.6245968 0.9930555 0.3754033 1 0.3754032 0.9930556 0.6245967 0 0.3754032 0.006944417 0.3754032 0 0.8680556 0.5069444 0.875 0.7430556 0.8680556 0.7430556 0.625 0.2430555 0.6245968 0.006944417 0.625 0.006944417 0.3754032 0.2569444 0.6245967 0.25 0.6245968 0.2569444 0.3754033 0.25 0.6245968 0.2430555 0.6245967 0.25 0.1319444 0.5069444 0.3680555 0.5 0.3680555 0.5069444 0.375 0.4930555 0.3754032 0.2569444 0.3754032 0.4930555 0.6319444 0.5069444 0.8680555 0.5 0.8680556 0.5069444 0.625 0.2569444 0.6245968 0.4930555 0.6245968 0.2569444 0.3754032 0.5069444 0.6245967 0.5 0.6245968 0.5069444 0.3754033 0.5 0.6245968 0.4930555 0.6245967 0.5 0.3680555 0.5069444 0.375 0.7430555 0.3680555 0.7430556 0.375 0.7430555 0.3754032 0.5069444 0.3754032 0.7430556 0.6319444 0.7430555 0.625 0.5069444 0.6319444 0.5069444 0.625 0.5069444 0.6245968 0.7430556 0.6245968 0.5069444 0.3754032 0.7569445 0.6245967 0.75 0.6245968 0.7569445 0.3754033 0.75 0.6245968 0.7430556 0.6245967 0.75 0.3680555 0.7430556 0.1319444 0.75 0.1319444 0.7430555 0.375 0.9930555 0.3754032 0.7569445 0.3754032 0.9930556 0.8680556 0.7430556 0.6319445 0.75 0.6319444 0.7430555 0.625 0.9930556 0.6245968 0.7569445 0.625 0.7569445 0.3680555 0.5069444 0.1319444 0.7430555 0.1319444 0.5069444 0.6245968 0.7569445 0.6245968 0.9930555 0.3754032 0.9930556 0.6245968 0.5069444 0.6245968 0.7430556 0.3754032 0.7430556 0.8680556 0.5069444 0.8680556 0.7430556 0.6319444 0.7430555 0.6245968 0.006944417 0.6245968 0.2430555 0.3754032 0.2430555 0.6245968 0.2569444 0.6245968 0.4930555 0.3754032 0.4930555 0.1319444 0.7430555 0.1319444 0.75 0.127935 0.75 0.3754032 0.9930556 0.3754033 1 0.3751705 1 0.3754032 0.006944417 0.375 0.006944417 0.375 0.002935051 0.6245968 0.9930555 0.625 0.9930556 0.625 0.997065 0.8680556 0.7430556 0.875 0.7430556 0.875 0.747065 0.6245968 0.006944417 0.6245967 0 0.6248295 0 0.1319444 0.5069444 0.125 0.5069444 0.125 0.5029351 0.3754032 0.2430555 0.3754033 0.25 0.3751705 0.25 0.3754032 0.2569444 0.375 0.2569444 0.375 0.2529351 0.8680556 0.5069444 0.8680555 0.5 0.872065 0.5 0.6245968 0.2569444 0.6245967 0.25 0.6248295 0.25 0.6245968 0.2430555 0.625 0.2430555 0.625 0.2470649 0.3680555 0.7430556 0.375 0.7430555 0.3750568 0.75 0.3754032 0.7430556 0.3754033 0.75 0.3750568 0.75 0.3754032 0.7569445 0.375 0.7569444 0.3750568 0.75 0.6319444 0.7430555 0.6319445 0.75 0.6259216 0.7490217 0.6245968 0.7569445 0.6245967 0.75 0.6259216 0.7490217 0.6245968 0.7430556 0.625 0.7430556 0.6259216 0.7490217 0.3680555 0.5069444 0.3680555 0.5 0.3740785 0.5009784 0.3754032 0.4930555 0.3754033 0.5 0.3740785 0.5009784 0.3754032 0.5069444 0.375 0.5069444 0.3740785 0.5009784 0.6319444 0.5069444 0.625 0.5069444 0.6249432 0.5 0.6245968 0.5069444 0.6245967 0.5 0.6249432 0.5 0.6245968 0.4930555 0.625 0.4930556 0.6249432 0.5 0.1319444 0.7430555 0.125 0.7430556 0.125 0.5069444 0.375 0.2430555 0.375 0.006944417 0.3754032 0.006944417 0.6245968 0.9930555 0.6245967 1 0.3754033 1 0.6245967 0 0.6245968 0.006944417 0.3754032 0.006944417 0.8680556 0.5069444 0.875 0.5069444 0.875 0.7430556 0.625 0.2430555 0.6245968 0.2430555 0.6245968 0.006944417 0.3754032 0.2569444 0.3754033 0.25 0.6245967 0.25 0.3754033 0.25 0.3754032 0.2430555 0.6245968 0.2430555 0.1319444 0.5069444 0.1319444 0.5 0.3680555 0.5 0.375 0.4930555 0.375 0.2569444 0.3754032 0.2569444 0.6319444 0.5069444 0.6319444 0.5 0.8680555 0.5 0.625 0.2569444 0.625 0.4930556 0.6245968 0.4930555 0.3754032 0.5069444 0.3754033 0.5 0.6245967 0.5 0.3754033 0.5 0.3754032 0.4930555 0.6245968 0.4930555 0.3680555 0.5069444 0.375 0.5069444 0.375 0.7430555 0.375 0.7430555 0.375 0.5069444 0.3754032 0.5069444 0.6319444 0.7430555 0.625 0.7430556 0.625 0.5069444 0.625 0.5069444 0.625 0.7430556 0.6245968 0.7430556 0.3754032 0.7569445 0.3754033 0.75 0.6245967 0.75 0.3754033 0.75 0.3754032 0.7430556 0.6245968 0.7430556 0.3680555 0.7430556 0.3680556 0.75 0.1319444 0.75 0.375 0.9930555 0.375 0.7569444 0.3754032 0.7569445 0.8680556 0.7430556 0.8680556 0.75 0.6319445 0.75 0.625 0.9930556 0.6245968 0.9930555 0.6245968 0.7569445 0.3680555 0.5069444 0.3680555 0.7430556 0.1319444 0.7430555</float_array>
          <technique_common>
            <accessor source="#Cube-mesh-map-0-array" count="324" stride="2">
              <param name="S" type="float"/>
              <param name="T" type="float"/>
            </accessor>
          </technique_common>
        </source>
        <vertices id="Cube-mesh-vertices">
          <input semantic="POSITION" source="#Cube-mesh-positions"/>
        </vertices>
        <triangles material="CS_wood-material" count="108">
          <input semantic="VERTEX" source="#Cube-mesh-vertices" offset="0"/>
          <input semantic="NORMAL" source="#Cube-mesh-normals" offset="1"/>
          <input semantic="TEXCOORD" source="#Cube-mesh-map-0" offset="2" set="0"/>
          <p>36 0 0 1 0 1 30 0 2 50 1 3 29 1 4 44 1 5 21 2 6 35 2 7 49 2 8 9 3 9 15 3 10 2 3 11 22 4 12 43 4 13 16 4 14 0 5 15 4 5 16 6 5 17 1 6 18 4 6 19 3 6 20 2 7 21 4 7 22 5 7 23 7 8 24 11 8 25 13 8 26 8 9 27 11 9 28 10 9 29 9 10 30 11 10 31 12 10 32 14 11 33 18 11 34 20 11 35 15 12 36 18 12 37 17 12 38 16 13 39 18 13 40 19 13 41 21 14 42 25 14 43 27 14 44 22 15 45 25 15 46 24 15 47 23 16 48 25 16 49 26 16 50 28 17 51 32 17 52 34 17 53 29 18 54 32 18 55 31 18 56 30 19 57 32 19 58 33 19 59 35 20 60 39 20 61 41 20 62 36 21 63 39 21 64 38 21 65 37 22 66 39 22 67 40 22 68 42 23 69 46 23 70 48 23 71 43 24 72 46 24 73 45 24 74 44 25 75 46 25 76 47 25 77 49 26 78 53 26 79 55 26 80 50 27 81 53 27 82 52 27 83 51 28 84 53 28 85 54 28 86 0 29 87 17 29 88 14 29 89 17 30 90 2 30 91 15 30 92 7 31 93 5 31 94 1 31 95 13 32 96 2 32 97 5 32 98 21 33 99 12 33 100 8 33 101 27 34 102 9 34 103 12 34 104 16 35 105 26 35 106 22 35 107 19 36 108 23 36 109 26 36 110 14 37 111 45 37 112 42 37 113 45 38 114 16 38 115 43 38 116 49 39 117 24 39 118 21 39 119 24 40 120 51 40 121 22 40 122 44 41 123 54 41 124 50 41 125 47 42 126 51 42 127 54 42 128 42 43 129 31 43 130 28 43 131 31 44 132 44 44 133 29 44 134 35 45 135 52 45 136 49 45 137 52 46 138 37 46 139 50 46 140 30 47 141 40 47 142 36 47 143 33 48 144 37 48 145 40 48 146 28 49 147 3 49 148 0 49 149 3 50 150 30 50 151 1 50 152 8 51 153 38 51 154 35 51 155 10 52 156 36 52 157 38 52 158 42 53 159 0 53 160 14 53 161 36 54 162 7 54 163 1 54 164 50 55 165 37 55 166 29 55 167 21 56 168 8 56 169 35 56 170 9 57 171 23 57 172 15 57 173 22 58 174 51 58 175 43 58 176 0 59 177 3 59 178 4 59 179 1 60 180 5 60 181 4 60 182 2 61 183 6 61 184 4 61 185 7 62 186 10 62 187 11 62 188 8 63 189 12 63 190 11 63 191 9 64 192 13 64 193 11 64 194 14 65 195 17 65 196 18 65 197 15 66 198 19 66 199 18 66 200 16 67 201 20 67 202 18 67 203 21 68 204 24 68 205 25 68 206 22 69 207 26 69 208 25 69 209 23 70 210 27 70 211 25 70 212 28 71 213 31 71 214 32 71 215 29 72 216 33 72 217 32 72 218 30 73 219 34 73 220 32 73 221 35 74 222 38 74 223 39 74 224 36 75 225 40 75 226 39 75 227 37 76 228 41 76 229 39 76 230 42 77 231 45 77 232 46 77 233 43 78 234 47 78 235 46 78 236 44 79 237 48 79 238 46 79 239 49 80 240 52 80 241 53 80 242 50 81 243 54 81 244 53 81 245 51 82 246 55 82 247 53 82 248 0 83 249 6 83 250 17 83 251 17 84 252 6 84 253 2 84 254 7 85 255 13 85 256 5 85 257 13 86 258 9 86 259 2 86 260 21 87 261 27 87 262 12 87 263 27 88 264 23 88 265 9 88 266 16 89 267 19 89 268 26 89 269 19 90 270 15 90 271 23 90 272 14 91 273 20 91 274 45 91 275 45 92 276 20 92 277 16 92 278 49 93 279 55 93 280 24 93 281 24 94 282 55 94 283 51 94 284 44 95 285 47 95 286 54 95 287 47 96 288 43 96 289 51 96 290 42 97 291 48 97 292 31 97 293 31 98 294 48 98 295 44 98 296 35 99 297 41 99 298 52 99 299 52 100 300 41 100 301 37 100 302 30 101 303 33 101 304 40 101 305 33 102 306 29 102 307 37 102 308 28 103 309 34 103 310 3 103 311 3 104 312 34 104 313 30 104 314 8 105 315 10 105 316 38 105 317 10 106 318 7 106 319 36 106 320 42 107 321 28 107 322 0 107 323</p>
        </triangles>
      </mesh>
    </geometry>
  </library_geometries>
  <library_visual_scenes>
    <visual_scene id="Scene" name="Scene">
      <node id="sign_post" name="sign_post" type="NODE">
        <matrix sid="transform">1 0 0 0 0 1 0 0 0 0 1 0 0 0 0 1</matrix>
        <instance_geometry url="#Cube-mesh" name="sign_post">
          <bind_material>
            <technique_common>
              <instance_material symbol="CS_wood-material" target="#CS_wood-material">
                <bind_vertex_input semantic="UVMap" input_semantic="TEXCOORD" input_set="0"/>
              </instance_material>
            </technique_common>
          </bind_material>
        </instance_geometry>
        <node id="sign_tip" name="sign_tip" type="NODE">
          <matrix sid="transform">1 0 0 0 0 1 0 0 0 0 1 0.705 0 0 0 1</matrix>
          <instance_geometry url="#Cone-mesh" name="sign_tip">
            <bind_material>
              <technique_common>
                <instance_material symbol="CS_wood-material" target="#CS_wood-material">
                  <bind_vertex_input semantic="UVMap" input_semantic="TEXCOORD" input_set="0"/>
                </instance_material>
              </technique_common>
            </bind_material>
          </instance_geometry>
        </node>
        <node id="sign_band" name="sign_band" type="NODE">
          <matrix sid="transform">1 0 0 0 0 1 0 0 0 0 1 1.895 0 0 0 1</matrix>
          <instance_geometry url="#Cube_001-mesh" name="sign_band">
            <bind_material>
              <technique_common>
                <instance_material symbol="CS_metal-material" target="#CS_metal-material">
                  <bind_vertex_input semantic="UVMap" input_semantic="TEXCOORD" input_set="0"/>
                </instance_material>
              </technique_common>
            </bind_material>
          </instance_geometry>
        </node>
        <node id="sign_front" name="sign_front" type="NODE">
          <matrix sid="transform">1 0 0 0 0 1 0 -0.064 0 0 1 2.075 0 0 0 1</matrix>
          <instance_geometry url="#Cube_002-mesh" name="sign_front">
            <bind_material>
              <technique_common>
                <instance_material symbol="CS_front-material" target="#CS_front-material">
                  <bind_vertex_input semantic="UVMap" input_semantic="TEXCOORD" input_set="0"/>
                </instance_material>
              </technique_common>
            </bind_material>
          </instance_geometry>
        </node>
        <node id="sign_back" name="sign_back" type="NODE">
          <matrix sid="transform">1 0 0 0 0 1 0 0.064 0 0 1 2.075 0 0 0 1</matrix>
          <instance_geometry url="#Cube_003-mesh" name="sign_back">
            <bind_material>
              <technique_common>
                <instance_material symbol="CS_back-material" target="#CS_back-material">
                  <bind_vertex_input semantic="UVMap" input_semantic="TEXCOORD" input_set="0"/>
                </instance_material>
              </technique_common>
            </bind_material>
          </instance_geometry>
        </node>
        <node id="sign_frame" name="sign_frame" type="NODE">
          <matrix sid="transform">1 0 0 0 0 1 0 -0.066 0 0 1 2.075 0 0 0 1</matrix>
          <instance_geometry url="#Cube_004-mesh" name="sign_frame">
            <bind_material>
              <technique_common>
                <instance_material symbol="CS_frame-material" target="#CS_frame-material">
                  <bind_vertex_input semantic="UVMap" input_semantic="TEXCOORD" input_set="0"/>
                </instance_material>
              </technique_common>
            </bind_material>
          </instance_geometry>
        </node>
      </node>
    </visual_scene>
  </library_visual_scenes>
  <scene>
    <instance_visual_scene url="#Scene"/>
  </scene>
</COLLADA>