<?xml version="1.0" encoding="utf-8"?>
<COLLADA xmlns="http://www.collada.org/2005/11/COLLADASchema" version="1.4.1" xmlns:xsi="http://www.w3.org/2001/XMLSchema-instance">
  <asset>
    <contributor>
      <author>Blender User</author>
      <authoring_tool>Blender 4.2.9 LTS commit date:2025-04-14, commit time:12:24, hash:a10f621e649a</authoring_tool>
    </contributor>
    <created>2026-08-01T08:03:48</created>
    <modified>2026-08-01T08:03:48</modified>
    <unit name="meter" meter="1"/>
    <up_axis>Z_UP</up_axis>
  </asset>
  <library_effects>
    <effect id="black-effect">
      <profile_COMMON>
        <technique sid="common">
          <lambert>
            <emission>
              <color sid="emission">0 0 0 1</color>
            </emission>
            <diffuse>
              <color sid="diffuse">0.1 0.1 0.1 1</color>
            </diffuse>
            <reflectivity>
              <float sid="specular">0.7</float>
            </reflectivity>
            <index_of_refraction>
              <float sid="ior">1.5</float>
            </index_of_refraction>
          </lambert>
        </technique>
      </profile_COMMON>
    </effect>
    <effect id="body_007-effect">
      <profile_COMMON>
        <newparam sid="lt_body_png-surface">
          <surface type="2D">
            <init_from>lt_body_png</init_from>
          </surface>
        </newparam>
        <newparam sid="lt_body_png-sampler">
          <sampler2D>
            <source>lt_body_png-surface</source>
          </sampler2D>
        </newparam>
        <technique sid="common">
          <lambert>
            <emission>
              <color sid="emission">0 0 0 1</color>
            </emission>
            <diffuse>
              <texture texture="lt_body_png-sampler" texcoord="UVMap"/>
            </diffuse>
            <reflectivity>
              <float sid="specular">0.05</float>
            </reflectivity>
            <index_of_refraction>
              <float sid="ior">1.5</float>
            </index_of_refraction>
          </lambert>
        </technique>
      </profile_COMMON>
    </effect>
    <effect id="lens-effect">
      <profile_COMMON>
        <newparam sid="lt_lens_png-surface">
          <surface type="2D">
            <init_from>lt_lens_png</init_from>
          </surface>
        </newparam>
        <newparam sid="lt_lens_png-sampler">
          <sampler2D>
            <source>lt_lens_png-surface</source>
          </sampler2D>
        </newparam>
        <technique sid="common">
          <lambert>
            <emission>
              <color sid="emission">0 0 0 1</color>
            </emission>
            <diffuse>
              <texture texture="lt_lens_png-sampler" texcoord="UVMap"/>
            </diffuse>
            <index_of_refraction>
              <float sid="ior">1.5</float>
            </index_of_refraction>
          </lambert>
        </technique>
      </profile_COMMON>
    </effect>
    <effect id="Colmesh_Material-effect">
      <profile_COMMON>
        <technique sid="common">
          <lambert>
            <emission>
              <color sid="emission">0 0 0 1</color>
            </emission>
            <diffuse>
              <color sid="diffuse">1 0 1 1</color>
            </diffuse>
            <transparent opaque="A_ONE">
              <color sid="alpha">0 0 0 0.15</color>
            </transparent>
            <index_of_refraction>
              <float sid="ior">1.5</float>
            </index_of_refraction>
          </lambert>
        </technique>
      </profile_COMMON>
    </effect>
  </library_effects>
  <library_images>
    <image id="lt_body_png" name="lt_body_png">
      <init_from>lt_body.png</init_from>
    </image>
    <image id="lt_lens_png" name="lt_lens_png">
      <init_from>lt_lens.png</init_from>
    </image>
  </library_images>
  <library_materials>
    <material id="black-material" name="black">
      <instance_effect url="#black-effect"/>
    </material>
    <material id="body_007-material" name="body.007">
      <instance_effect url="#body_007-effect"/>
    </material>
    <material id="lens-material" name="lens">
      <instance_effect url="#lens-effect"/>
    </material>
    <material id="Colmesh_Material-material" name="Colmesh_Material">
      <instance_effect url="#Colmesh_Material-effect"/>
    </material>
  </library_materials>
  <library_geometries>
    <geometry id="lighttower_blank_raised_a50-mesh" name="lighttower_blank_raised_a50">
      <mesh>
        <source id="lighttower_blank_raised_a50-mesh-positions">
          <float_array id="lighttower_blank_raised_a50-mesh-positions-array" count="24">-1.81125 0 -0.01729995 1.81125 0 -0.01729995 1.81125 0 8.8873 -1.81125 0 8.8873 0 -1.81125 -0.01729995 0 1.81125 -0.01729995 0 1.81125 8.8873 0 -1.81125 8.8873</float_array>
          <technique_common>
            <accessor source="#lighttower_blank_raised_a50-mesh-positions-array" count="8" stride="3">
              <param name="X" type="float"/>
              <param name="Y" type="float"/>
              <param name="Z" type="float"/>
            </accessor>
          </technique_common>
        </source>
        <source id="lighttower_blank_raised_a50-mesh-normals">
          <float_array id="lighttower_blank_raised_a50-mesh-normals-array" count="12">0 -1 0 1 0 0 0 -1 0 1 0 0</float_array>
          <technique_common>
            <accessor source="#lighttower_blank_raised_a50-mesh-normals-array" count="4" stride="3">
              <param name="X" type="float"/>
              <param name="Y" type="float"/>
              <param name="Z" type="float"/>
            </accessor>
          </technique_common>
        </source>
        <source id="lighttower_blank_raised_a50-mesh-map-0">
          <float_array id="lighttower_blank_raised_a50-mesh-map-0-array" count="24">1 0 0 1 0 0 1 0 0 1 0 0 1 0 1 1 0 1 1 0 1 1 0 1</float_array>
          <technique_common>
            <accessor source="#lighttower_blank_raised_a50-mesh-map-0-array" count="12" stride="2">
              <param name="S" type="float"/>
              <param name="T" type="float"/>
            </accessor>
          </technique_common>
        </source>
        <vertices id="lighttower_blank_raised_a50-mesh-vertices">
          <input semantic="POSITION" source="#lighttower_blank_raised_a50-mesh-positions"/>
        </vertices>
        <triangles material="black-material" count="4">
          <input semantic="VERTEX" source="#lighttower_blank_raised_a50-mesh-vertices" offset="0"/>
          <input semantic="NORMAL" source="#lighttower_blank_raised_a50-mesh-normals" offset="1"/>
          <input semantic="TEXCOORD" source="#lighttower_blank_raised_a50-mesh-map-0" offset="2" set="0"/>
          <p>1 0 0 3 0 1 0 0 2 5 1 3 7 1 4 4 1 5 1 2 6 2 2 7 3 2 8 5 3 9 6 3 10 7 3 11</p>
        </triangles>
      </mesh>
    </geometry>
    <geometry id="lighttower_blank_raised_a200-mesh" name="lighttower_blank_raised_a200">
      <mesh>
        <source id="lighttower_blank_raised_a200-mesh-positions">
          <float_array id="lighttower_blank_raised_a200-mesh-positions-array" count="195">-0.525 -0.5749999 0.11 -0.525 1.725 0.15 0.525 -0.5749999 0.15 0.525 1.725 0.11 -0.5 -0.125 0.175 -0.5 -0.125 1.225 -0.5 1.575 0.175 -0.5 1.575 1.225 0.5 -0.125 0.175 0.5 -0.125 1.225 0.5 1.575 0.175 0.5 1.575 1.225 -0.06 -1.725 0.2166666 -0.06 -0.625 0.2433333 0.06 -1.725 0.2433333 0.06 -0.625 0.2166666 -0.06 -0.155 8.8 -0.06 -0.1949999 1.3 0.06 -0.155 1.3 0.06 -0.1949999 8.8 -0.8000001 -0.175 8.425001 0.8000001 -0.2149999 8.438334 0.8000001 -0.1349999 8.411667 -0.625 -0.265 8.765001 -0.625 -0.2049999 8.485 -0.625 -0.08499997 8.765001 -0.275 -0.1449999 8.485 -0.275 -0.2049999 8.765002 -0.6 -0.27 8.745001 -0.6 -0.28 8.505001 -0.3 -0.27 8.505001 -0.3 -0.28 8.745001 0.275 -0.265 8.765001 0.275 -0.2049999 8.485 0.275 -0.08499997 8.765001 0.625 -0.1449999 8.485 0.625 -0.2049999 8.765002 0.3 -0.27 8.745001 0.3 -0.28 8.505001 0.6 -0.27 8.505001 0.6 -0.28 8.745001 -0.625 -0.465 8.485 -0.625 -0.465 8.765001 -0.625 -0.285 8.485 -0.625 -0.285 8.765001 -0.275 -0.465 8.485 -0.275 -0.465 8.765001 -0.275 -0.285 8.485 -0.275 -0.285 8.765001 -0.6 -0.47 8.745001 -0.6 -0.48 8.505001 -0.3 -0.47 8.505001 -0.3 -0.48 8.745001 0.275 -0.465 8.485 0.275 -0.465 8.765001 0.275 -0.285 8.485 0.275 -0.285 8.765001 0.625 -0.465 8.485 0.625 -0.465 8.765001 0.625 -0.285 8.485 0.625 -0.285 8.765001 0.3 -0.47 8.745001 0.3 -0.48 8.505001 0.6 -0.47 8.505001 0.6 -0.48 8.745001</float_array>
          <technique_common>
            <accessor source="#lighttower_blank_raised_a200-mesh-positions-array" count="65" stride="3">
              <param name="X" type="float"/>
              <param name="Y" type="float"/>
              <param name="Z" type="float"/>
            </accessor>
          </technique_common>
        </source>
        <source id="lighttower_blank_raised_a200-mesh-normals">
          <float_array id="lighttower_blank_raised_a200-mesh-normals-array" count="228">0 0.3162275 0.9486833 0.03806185 0.01737606 -0.9991243 -0.03806185 0.01737606 0.9991243 -1 0 0 0 1 0 1 0 0 0 -1 0 0 0 -1 0 0 1 0.2168698 0.02365851 -0.9759138 -0.2168698 0.02365851 0.9759138 -0.3162236 0.9486712 0.00505954 0.3162236 -0.9486712 0.00505954 -0.1653169 0.9643486 0.2066449 0 -0.3162275 -0.9486833 -1 0 0 0.1653174 -0.9643483 -0.2066456 -0.03328591 0.9985795 0.04160726 -2.72478e-6 0 1 0.03328591 -0.9985795 0.04160726 -0.1653169 0.9643486 0.2066449 -1 0 0 0.1653174 -0.9643483 -0.2066456 -0.03328591 0.9985795 0.04160726 -2.72478e-6 0 1 0.03328591 -0.9985795 0.04160726 -1 0 0 0 1 0 1 0 0 0 -1 0 0 0 -1 0 0 1 -0.03328591 0.9985795 0.04160726 0.03328591 -0.9985795 0.04160726 -1 0 0 0 1 0 1 0 0 0 -1 0 0 0 -1 0 0 1 -0.03328591 0.9985795 0.04160726 0.03328591 -0.9985795 0.04160726 -0.03806185 -0.01737606 -0.9991243 0.03806185 -0.01737606 0.9991243 -1 0 0 0 1 0 1 0 0 0 -1 0 0 0 -1 0 0 1 -0.2168698 -0.02365851 -0.9759138 0.2168698 -0.02365851 0.9759138 0.3162236 0.9486712 -0.00505954 -0.3162236 -0.9486712 -0.00505954 0.3005651 0.8766453 -0.3757042 0.03328591 0.9985795 -0.04160726 -0.03328591 -0.9985795 -0.04160726 0.3005651 0.8766453 -0.3757042 0.03328591 0.9985795 -0.04160726 -0.03328591 -0.9985795 -0.04160726 -1 0 0 0 1 0 1 0 0 0 -1 0 0 0 -1 0 0 1 0.03328591 0.9985795 -0.04160726 -0.03328591 -0.9985795 -0.04160726 -1 0 0 0 1 0 1 0 0 0 -1 0 0 0 -1 0 0 1 0.03328591 0.9985795 -0.04160726 -0.03328591 -0.9985795 -0.04160726</float_array>
          <technique_common>
            <accessor source="#lighttower_blank_raised_a200-mesh-normals-array" count="76" stride="3">
              <param name="X" type="float"/>
              <param name="Y" type="float"/>
              <param name="Z" type="float"/>
            </accessor>
          </technique_common>
        </source>
        <source id="lighttower_blank_raised_a200-mesh-map-0">
          <float_array id="lighttower_blank_raised_a200-mesh-map-0-array" count="456">0.1881737 0.998019 0.1632728 0.00198096 0.2130747 0.00198096 0.414385 0.9031676 0.003807544 0.003807544 0.414385 0.003807544 0.8325775 0.9031676 0.4220001 0.003807544 0.8325775 0.003807544 0.3078263 0.4957618 0.004238188 0.004238128 0.3078263 0.004238188 0.6283671 0.3078263 0.9174987 0.004238128 0.9174987 0.3078263 0.6198908 0.4957618 0.3163027 0.004238128 0.6198908 0.004238188 0.6283671 0.6198908 0.9174987 0.3163026 0.9174987 0.6198908 0.2933697 0.9957619 0.004238128 0.5042382 0.2933697 0.5042382 0.5909776 0.9957619 0.3018461 0.5042382 0.5909776 0.5042382 0.1112339 0.997259 0.002741038 0.002741038 0.1112339 0.002741038 0.2252088 0.997259 0.116716 0.002741038 0.2252088 0.002741038 0.006395459 0.9989263 0.04794311 0.001073598 0.04262125 0.9989263 0.04262125 0.9989263 0.07137787 0.001073598 0.07137787 0.9989264 0.3799536 0.4738839 0.004232466 0.004232466 0.3799536 0.004232466 0.1593107 0.998019 0.1095088 0.998019 0.1344098 0.00198096 0.5042325 0.4823489 0.7457675 0.4823489 0.5847442 0.85807 0.7641398 0.004232466 0.3884186 0.4738839 0.3884186 0.004232466 0.4361822 0.5444195 0.003233075 0.003233015 0.4361822 0.003233015 0.4957675 0.9520003 0.2542325 0.9520003 0.3347442 0.4823489 0.8755974 0.5444195 0.4426484 0.003233015 0.8755974 0.003233015 0.3799536 0.4738839 0.004232466 0.004232466 0.3799536 0.004232466 0.5042325 0.4823489 0.7457675 0.4823489 0.5847442 0.85807 0.7641398 0.004232466 0.3884186 0.4738839 0.3884186 0.004232466 0.4361822 0.5444195 0.003233075 0.003233015 0.4361822 0.003233015 0.4957675 0.9520003 0.2542325 0.9520003 0.3347442 0.4823489 0.8755974 0.5444195 0.4426484 0.003233015 0.8755974 0.003233015 0.5042325 0.85807 0.7457675 0.4823489 0.7457675 0.85807 0.3799536 0.4738839 0.004232466 0.004232466 0.3799536 0.004232466 0.7542325 0.85807 0.9957675 0.4823489 0.9957675 0.85807 0.7641397 0.4738839 0.3884186 0.004232466 0.7641398 0.004232466 0.2457675 0.4823489 0.004232466 0.9520003 0.004232466 0.4823489 0.4957675 0.4823489 0.2542325 0.9520003 0.2542325 0.4823489 0.4361822 0.5444195 0.003233075 0.003233015 0.4361822 0.003233015 0.8755974 0.5444195 0.4426484 0.003233015 0.8755974 0.003233015 0.5042325 0.85807 0.7457675 0.4823489 0.7457675 0.85807 0.3799536 0.4738839 0.004232466 0.004232466 0.3799536 0.004232466 0.7542325 0.85807 0.9957675 0.4823489 0.9957675 0.85807 0.7641397 0.4738839 0.3884186 0.004232466 0.7641398 0.004232466 0.2457675 0.4823489 0.004232466 0.9520003 0.004232466 0.4823489 0.4957675 0.4823489 0.2542325 0.9520003 0.2542325 0.4823489 0.4361822 0.5444195 0.003233075 0.003233015 0.4361822 0.003233015 0.8755974 0.5444195 0.4426484 0.003233015 0.8755974 0.003233015 0.414385 0.9031676 0.003807544 0.9031676 0.003807544 0.003807544 0.8325775 0.9031676 0.4220001 0.9031676 0.4220001 0.003807544 0.3078263 0.4957618 0.004238128 0.4957618 0.004238188 0.004238128 0.6283671 0.3078263 0.6283671 0.004238128 0.9174987 0.004238128 0.6198908 0.4957618 0.3163027 0.4957618 0.3163027 0.004238128 0.6283671 0.6198908 0.6283671 0.3163026 0.9174987 0.3163026 0.2933697 0.9957619 0.004238128 0.9957619 0.004238128 0.5042382 0.5909776 0.9957619 0.3018461 0.9957619 0.3018461 0.5042382 0.1112339 0.997259 0.002741038 0.997259 0.002741038 0.002741038 0.2252088 0.997259 0.116716 0.997259 0.116716 0.002741038 0.006395459 0.9989263 0.01171737 0.001073598 0.04794311 0.001073598 0.04262125 0.9989263 0.04794311 0.001073598 0.07137787 0.001073598 0.3799536 0.4738839 0.004232466 0.4738839 0.004232466 0.004232466 0.4361822 0.5444195 0.003233015 0.5444194 0.003233075 0.003233015 0.8755974 0.5444195 0.4426483 0.5444195 0.4426484 0.003233015 0.3799536 0.4738839 0.004232466 0.4738839 0.004232466 0.004232466 0.4361822 0.5444195 0.003233015 0.5444194 0.003233075 0.003233015 0.8755974 0.5444195 0.4426483 0.5444195 0.4426484 0.003233015 0.5042325 0.85807 0.5042325 0.4823489 0.7457675 0.4823489 0.3799536 0.4738839 0.004232466 0.4738839 0.004232466 0.004232466 0.7542325 0.85807 0.7542325 0.4823489 0.9957675 0.4823489 0.7641397 0.4738839 0.3884186 0.4738839 0.3884186 0.004232466 0.2457675 0.4823489 0.2457675 0.9520003 0.004232466 0.9520003 0.4957675 0.4823489 0.4957675 0.9520003 0.2542325 0.9520003 0.4361822 0.5444195 0.003233015 0.5444194 0.003233075 0.003233015 0.8755974 0.5444195 0.4426483 0.5444195 0.4426484 0.003233015 0.5042325 0.85807 0.5042325 0.4823489 0.7457675 0.4823489 0.3799536 0.4738839 0.004232466 0.4738839 0.004232466 0.004232466 0.7542325 0.85807 0.7542325 0.4823489 0.9957675 0.4823489 0.7641397 0.4738839 0.3884186 0.4738839 0.3884186 0.004232466 0.2457675 0.4823489 0.2457675 0.9520003 0.004232466 0.9520003 0.4957675 0.4823489 0.4957675 0.9520003 0.2542325 0.9520003 0.4361822 0.5444195 0.003233015 0.5444194 0.003233075 0.003233015 0.8755974 0.5444195 0.4426483 0.5444195 0.4426484 0.003233015</float_array>
          <technique_common>
            <accessor source="#lighttower_blank_raised_a200-mesh-map-0-array" count="228" stride="2">
              <param name="S" type="float"/>
              <param name="T" type="float"/>
            </accessor>
          </technique_common>
        </source>
        <vertices id="lighttower_blank_raised_a200-mesh-vertices">
          <input semantic="POSITION" source="#lighttower_blank_raised_a200-mesh-positions"/>
        </vertices>
        <triangles material="black-material" count="48">
          <input semantic="VERTEX" source="#lighttower_blank_raised_a200-mesh-vertices" offset="0"/>
          <input semantic="NORMAL" source="#lighttower_blank_raised_a200-mesh-normals" offset="1"/>
          <input semantic="TEXCOORD" source="#lighttower_blank_raised_a200-mesh-map-0" offset="2" set="0"/>
          <p>20 0 0 21 0 1 22 0 2 1 1 3 2 1 4 0 1 5 3 2 6 0 2 7 2 2 8 13 9 27 14 9 28 12 9 29 15 10 30 12 10 31 14 10 32 17 11 33 19 11 34 18 11 35 18 12 36 16 12 37 17 12 38 24 13 39 27 13 40 26 13 41 22 14 42 21 14 43 20 14 44 23 15 45 25 15 46 24 15 47 24 16 48 27 16 49 23 16 50 25 18 54 23 18 55 27 18 56 33 20 60 36 20 61 35 20 62 32 21 63 34 21 64 33 21 65 33 22 66 36 22 67 32 22 68 34 24 72 32 24 73 36 24 74 41 26 78 44 26 79 43 26 80 43 27 81 48 27 82 47 27 83 47 28 84 46 28 85 45 28 86 45 29 87 42 29 88 41 29 89 43 30 90 45 30 91 41 30 92 48 31 93 42 31 94 46 31 95 53 34 102 56 34 103 55 34 104 55 35 105 60 35 106 59 35 107 59 36 108 58 36 109 57 36 110 57 37 111 54 37 112 53 37 113 55 38 114 57 38 115 53 38 116 60 39 117 54 39 118 58 39 119 1 42 126 3 42 127 2 42 128 3 43 129 1 43 130 0 43 131 13 50 150 15 50 151 14 50 152 15 51 153 13 51 154 12 51 155 17 52 156 16 52 157 19 52 158 18 53 159 19 53 160 16 53 161 24 54 162 25 54 163 27 54 164 33 57 171 34 57 172 36 57 173 41 60 180 42 60 181 44 60 182 43 61 183 44 61 184 48 61 185 47 62 186 48 62 187 46 62 188 45 63 189 46 63 190 42 63 191 43 64 192 47 64 193 45 64 194 48 65 195 44 65 196 42 65 197 53 68 204 54 68 205 56 68 206 55 69 207 56 69 208 60 69 209 59 70 210 60 70 211 58 70 212 57 71 213 58 71 214 54 71 215 55 72 216 59 72 217 57 72 218 60 73 219 56 73 220 54 73 221</p>
        </triangles>
        <triangles material="body_007-material" count="12">
          <input semantic="VERTEX" source="#lighttower_blank_raised_a200-mesh-vertices" offset="0"/>
          <input semantic="NORMAL" source="#lighttower_blank_raised_a200-mesh-normals" offset="1"/>
          <input semantic="TEXCOORD" source="#lighttower_blank_raised_a200-mesh-map-0" offset="2" set="0"/>
          <p>4 3 9 7 3 10 6 3 11 6 4 12 11 4 13 10 4 14 10 5 15 9 5 16 8 5 17 8 6 18 5 6 19 4 6 20 6 7 21 8 7 22 4 7 23 11 8 24 5 8 25 9 8 26 4 44 132 5 44 133 7 44 134 6 45 135 7 45 136 11 45 137 10 46 138 11 46 139 9 46 140 8 47 141 9 47 142 5 47 143 6 48 144 10 48 145 8 48 146 11 49 147 7 49 148 5 49 149</p>
        </triangles>
        <triangles material="lens-material" count="16">
          <input semantic="VERTEX" source="#lighttower_blank_raised_a200-mesh-vertices" offset="0"/>
          <input semantic="NORMAL" source="#lighttower_blank_raised_a200-mesh-normals" offset="1"/>
          <input semantic="TEXCOORD" source="#lighttower_blank_raised_a200-mesh-map-0" offset="2" set="0"/>
          <p>29 17 51 31 17 52 30 17 53 30 19 57 28 19 58 29 19 59 38 23 69 40 23 70 39 23 71 39 25 75 37 25 76 38 25 77 50 32 96 52 32 97 51 32 98 51 33 99 49 33 100 50 33 101 62 40 120 64 40 121 63 40 122 63 41 123 61 41 124 62 41 125 29 55 165 28 55 166 31 55 167 30 56 168 31 56 169 28 56 170 38 58 174 37 58 175 40 58 176 39 59 177 40 59 178 37 59 179 50 66 198 49 66 199 52 66 200 51 67 201 52 67 202 49 67 203 62 74 222 61 74 223 64 74 224 63 75 225 64 75 226 61 75 227</p>
        </triangles>
      </mesh>
    </geometry>
    <geometry id="Colmesh_mast-1-mesh" name="Colmesh_mast-1">
      <mesh>
        <source id="Colmesh_mast-1-mesh-positions">
          <float_array id="Colmesh_mast-1-mesh-positions-array" count="24">-0.08999997 -0.265 1.3 -0.08999997 -0.265 8.8 -0.08999997 -0.08499997 1.3 -0.08999997 -0.08499997 8.8 0.08999997 -0.265 1.3 0.08999997 -0.265 8.8 0.08999997 -0.08499997 1.3 0.08999997 -0.08499997 8.8</float_array>
          <technique_common>
            <accessor source="#Colmesh_mast-1-mesh-positions-array" count="8" stride="3">
              <param name="X" type="float"/>
              <param name="Y" type="float"/>
              <param name="Z" type="float"/>
            </accessor>
          </technique_common>
        </source>
        <source id="Colmesh_mast-1-mesh-normals">
          <float_array id="Colmesh_mast-1-mesh-normals-array" count="36">-1 0 0 0 1 0 1 0 0 0 -1 0 0 0 -1 0 0 1 -1 0 0 0 1 0 1 0 0 0 -1 0 0 0 -1 0 0 1</float_array>
          <technique_common>
            <accessor source="#Colmesh_mast-1-mesh-normals-array" count="12" stride="3">
              <param name="X" type="float"/>
              <param name="Y" type="float"/>
              <param name="Z" type="float"/>
            </accessor>
          </technique_common>
        </source>
        <source id="Colmesh_mast-1-mesh-map-0">
          <float_array id="Colmesh_mast-1-mesh-map-0-array" count="72">0.625 0 0.375 0.25 0.375 0 0.625 0.25 0.375 0.5 0.375 0.25 0.625 0.5 0.375 0.75 0.375 0.5 0.625 0.75 0.375 1 0.375 0.75 0.375 0.5 0.125 0.75 0.125 0.5 0.875 0.5 0.625 0.75 0.625 0.5 0.625 0 0.625 0.25 0.375 0.25 0.625 0.25 0.625 0.5 0.375 0.5 0.625 0.5 0.625 0.75 0.375 0.75 0.625 0.75 0.625 1 0.375 1 0.375 0.5 0.375 0.75 0.125 0.75 0.875 0.5 0.875 0.75 0.625 0.75</float_array>
          <technique_common>
            <accessor source="#Colmesh_mast-1-mesh-map-0-array" count="36" stride="2">
              <param name="S" type="float"/>
              <param name="T" type="float"/>
            </accessor>
          </technique_common>
        </source>
        <vertices id="Colmesh_mast-1-mesh-vertices">
          <input semantic="POSITION" source="#Colmesh_mast-1-mesh-positions"/>
        </vertices>
        <triangles material="Colmesh_Material-material" count="12">
          <input semantic="VERTEX" source="#Colmesh_mast-1-mesh-vertices" offset="0"/>
          <input semantic="NORMAL" source="#Colmesh_mast-1-mesh-normals" offset="1"/>
          <input semantic="TEXCOORD" source="#Colmesh_mast-1-mesh-map-0" offset="2" set="0"/>
          <p>1 0 0 2 0 1 0 0 2 3 1 3 6 1 4 2 1 5 7 2 6 4 2 7 6 2 8 5 3 9 0 3 10 4 3 11 6 4 12 0 4 13 2 4 14 3 5 15 5 5 16 7 5 17 1 6 18 3 6 19 2 6 20 3 7 21 7 7 22 6 7 23 7 8 24 5 8 25 4 8 26 5 9 27 1 9 28 0 9 29 6 10 30 4 10 31 0 10 32 3 11 33 1 11 34 5 11 35</p>
        </triangles>
      </mesh>
    </geometry>
    <geometry id="Colmesh_body-1-mesh" name="Colmesh_body-1">
      <mesh>
        <source id="Colmesh_body-1-mesh-positions">
          <float_array id="Colmesh_body-1-mesh-positions-array" count="24">-0.525 -0.325 0 -0.525 -0.325 1.3 -0.525 1.675 0 -0.525 1.675 1.3 0.525 -0.325 0 0.525 -0.325 1.3 0.525 1.675 0 0.525 1.675 1.3</float_array>
          <technique_common>
            <accessor source="#Colmesh_body-1-mesh-positions-array" count="8" stride="3">
              <param name="X" type="float"/>
              <param name="Y" type="float"/>
              <param name="Z" type="float"/>
            </accessor>
          </technique_common>
        </source>
        <source id="Colmesh_body-1-mesh-normals">
          <float_array id="Colmesh_body-1-mesh-normals-array" count="36">-1 0 0 0 1 0 1 0 0 0 -1 0 0 0 -1 0 0 1 -1 0 0 0 1 0 1 0 0 0 -1 0 0 0 -1 0 0 1</float_array>
          <technique_common>
            <accessor source="#Colmesh_body-1-mesh-normals-array" count="12" stride="3">
              <param name="X" type="float"/>
              <param name="Y" type="float"/>
              <param name="Z" type="float"/>
            </accessor>
          </technique_common>
        </source>
        <source id="Colmesh_body-1-mesh-map-0">
          <float_array id="Colmesh_body-1-mesh-map-0-array" count="72">0.625 0 0.375 0.25 0.375 0 0.625 0.25 0.375 0.5 0.375 0.25 0.625 0.5 0.375 0.75 0.375 0.5 0.625 0.75 0.375 1 0.375 0.75 0.375 0.5 0.125 0.75 0.125 0.5 0.875 0.5 0.625 0.75 0.625 0.5 0.625 0 0.625 0.25 0.375 0.25 0.625 0.25 0.625 0.5 0.375 0.5 0.625 0.5 0.625 0.75 0.375 0.75 0.625 0.75 0.625 1 0.375 1 0.375 0.5 0.375 0.75 0.125 0.75 0.875 0.5 0.875 0.75 0.625 0.75</float_array>
          <technique_common>
            <accessor source="#Colmesh_body-1-mesh-map-0-array" count="36" stride="2">
              <param name="S" type="float"/>
              <param name="T" type="float"/>
            </accessor>
          </technique_common>
        </source>
        <vertices id="Colmesh_body-1-mesh-vertices">
          <input semantic="POSITION" source="#Colmesh_body-1-mesh-positions"/>
        </vertices>
        <triangles material="Colmesh_Material-material" count="12">
          <input semantic="VERTEX" source="#Colmesh_body-1-mesh-vertices" offset="0"/>
          <input semantic="NORMAL" source="#Colmesh_body-1-mesh-normals" offset="1"/>
          <input semantic="TEXCOORD" source="#Colmesh_body-1-mesh-map-0" offset="2" set="0"/>
          <p>1 0 0 2 0 1 0 0 2 3 1 3 6 1 4 2 1 5 7 2 6 4 2 7 6 2 8 5 3 9 0 3 10 4 3 11 6 4 12 0 4 13 2 4 14 3 5 15 5 5 16 7 5 17 1 6 18 3 6 19 2 6 20 3 7 21 7 7 22 6 7 23 7 8 24 5 8 25 4 8 26 5 9 27 1 9 28 0 9 29 6 10 30 4 10 31 0 10 32 3 11 33 1 11 34 5 11 35</p>
        </triangles>
      </mesh>
    </geometry>
    <geometry id="lighttower_blank_raised_a800-mesh" name="lighttower_blank_raised_a800">
      <mesh>
        <source id="lighttower_blank_raised_a800-mesh-positions">
          <float_array id="lighttower_blank_raised_a800-mesh-positions-array" count="312">-0.525 -0.5749999 0.06999999 -0.525 -0.5749999 0.1899999 -0.525 1.725 0.06999999 -0.525 1.725 0.1899999 0.525 -0.5749999 0.06999999 0.525 -0.5749999 0.1899999 0.525 1.725 0.06999999 0.525 1.725 0.1899999 -0.5 -0.125 0.175 -0.5 -0.125 1.225 -0.5 1.575 0.175 -0.5 1.575 1.225 0.5 -0.125 0.175 0.5 -0.125 1.225 0.5 1.575 0.175 0.5 1.575 1.225 -0.06 -1.725 0.1899999 -0.06 -1.725 0.27 -0.06 -0.625 0.1899999 -0.06 -0.625 0.27 0.06 -1.725 0.1899999 0.06 -1.725 0.27 0.06 -0.625 0.1899999 0.06 -0.625 0.27 -0.06 -0.235 1.3 -0.06 -0.235 8.8 -0.06 -0.115 1.3 -0.06 -0.115 8.8 0.06 -0.235 1.3 0.06 -0.235 8.8 0.06 -0.115 1.3 0.06 -0.115 8.8 -0.8 -0.2149999 8.385001 -0.8 -0.2149999 8.465001 -0.8 -0.1349999 8.385001 -0.8 -0.1349999 8.465001 0.8 -0.2149999 8.385001 0.8 -0.2149999 8.465001 0.8 -0.1349999 8.385001 0.8 -0.1349999 8.465001 -0.625 -0.265 8.485 -0.625 -0.265 8.765001 -0.625 -0.08499997 8.485 -0.625 -0.08499997 8.765001 -0.275 -0.265 8.485 -0.275 -0.265 8.765001 -0.275 -0.08499997 8.485 -0.275 -0.08499997 8.765001 -0.6 -0.29 8.505001 -0.6 -0.29 8.745 -0.6 -0.26 8.505001 -0.6 -0.26 8.745 -0.3 -0.29 8.505001 -0.3 -0.29 8.745 -0.3 -0.26 8.505001 -0.3 -0.26 8.745 0.275 -0.265 8.485 0.275 -0.265 8.765001 0.275 -0.08499997 8.485 0.275 -0.08499997 8.765001 0.625 -0.265 8.485 0.625 -0.265 8.765001 0.625 -0.08499997 8.485 0.625 -0.08499997 8.765001 0.3 -0.29 8.505001 0.3 -0.29 8.745 0.3 -0.26 8.505001 0.3 -0.26 8.745 0.6 -0.29 8.505001 0.6 -0.29 8.745 0.6 -0.26 8.505001 0.6 -0.26 8.745 -0.625 -0.465 8.485 -0.625 -0.465 8.765001 -0.625 -0.285 8.485 -0.625 -0.285 8.765001 -0.275 -0.465 8.485 -0.275 -0.465 8.765001 -0.275 -0.285 8.485 -0.275 -0.285 8.765001 -0.6 -0.49 8.505001 -0.6 -0.49 8.745 -0.6 -0.46 8.505001 -0.6 -0.46 8.745 -0.3 -0.49 8.505001 -0.3 -0.49 8.745 -0.3 -0.46 8.505001 -0.3 -0.46 8.745 0.275 -0.465 8.485 0.275 -0.465 8.765001 0.275 -0.285 8.485 0.275 -0.285 8.765001 0.625 -0.465 8.485 0.625 -0.465 8.765001 0.625 -0.285 8.485 0.625 -0.285 8.765001 0.3 -0.49 8.505001 0.3 -0.49 8.745 0.3 -0.46 8.505001 0.3 -0.46 8.745 0.6 -0.49 8.505001 0.6 -0.49 8.745 0.6 -0.46 8.505001 0.6 -0.46 8.745</float_array>
          <technique_common>
            <accessor source="#lighttower_blank_raised_a800-mesh-positions-array" count="104" stride="3">
              <param name="X" type="float"/>
              <param name="Y" type="float"/>
              <param name="Z" type="float"/>
            </accessor>
          </technique_common>
        </source>
        <source id="lighttower_blank_raised_a800-mesh-normals">
          <float_array id="lighttower_blank_raised_a800-mesh-normals-array" count="468">-1 0 0 0 1 0 1 0 0 0 -1 0 0 0 -1 0 0 1 -1 0 0 0 1 0 1 0 0 0 -1 0 0 0 -1 0 0 1 -1 0 0 0 1 0 1 0 0 0 -1 0 0 0 -1 0 0 1 -1 0 0 0 1 0 1 0 0 0 -1 0 0 0 -1 0 0 1 -1 0 0 0 1 0 1 0 0 0 -1 0 0 0 -1 0 0 1 -1 0 0 0 1 0 1 0 0 0 -1 0 0 0 -1 0 0 1 -1 0 0 0 1 0 1 0 0 0 -1 0 0 0 -1 0 0 1 -1 0 0 0 1 0 1 0 0 0 -1 0 0 0 -1 0 0 1 -1 0 0 0 1 0 1 0 0 0 -1 0 0 0 -1 0 0 1 -1 0 0 0 1 0 1 0 0 0 -1 0 0 0 -1 0 0 1 -1 0 0 0 1 0 1 0 0 0 -1 0 0 0 -1 0 0 1 -1 0 0 0 1 0 1 0 0 0 -1 0 0 0 -1 0 0 1 -1 0 0 0 1 0 1 0 0 0 -1 0 0 0 -1 0 0 1 -1 0 0 0 1 0 1 0 0 0 -1 0 0 0 -1 0 0 1 -1 0 0 0 1 0 1 0 0 0 -1 0 0 0 -1 0 0 1 -1 0 0 0 1 0 1 0 0 0 -1 0 0 0 -1 0 0 1 -1 0 0 0 1 0 1 0 0 0 -1 0 0 0 -1 0 0 1 -1 0 0 0 1 0 1 0 0 0 -1 0 0 0 -1 0 0 1 -1 0 0 0 1 0 1 0 0 0 -1 0 0 0 -1 0 0 1 -1 0 0 0 1 0 1 0 0 0 -1 0 0 0 -1 0 0 1 -1 0 0 0 1 0 1 0 0 0 -1 0 0 0 -1 0 0 1 -1 0 0 0 1 0 1 0 0 0 -1 0 0 0 -1 0 0 1 -1 0 0 0 1 0 1 0 0 0 -1 0 0 0 -1 0 0 1 -1 0 0 0 1 0 1 0 0 0 -1 0 0 0 -1 0 0 1 -1 0 0 0 1 0 1 0 0 0 -1 0 0 0 -1 0 0 1 -1 0 0 0 1 0 1 0 0 0 -1 0 0 0 -1 0 0 1</float_array>
          <technique_common>
            <accessor source="#lighttower_blank_raised_a800-mesh-normals-array" count="156" stride="3">
              <param name="X" type="float"/>
              <param name="Y" type="float"/>
              <param name="Z" type="float"/>
            </accessor>
          </technique_common>
        </source>
        <source id="lighttower_blank_raised_a800-mesh-map-0">
          <float_array id="lighttower_blank_raised_a800-mesh-map-0-array" count="936">0.8401926 0.9031676 0.8871158 0.003807544 0.8871157 0.9031676 0.9492692 0.414385 0.9961924 0.003807544 0.9961924 0.414385 0.8947309 0.9031676 0.9416541 0.003807544 0.941654 0.9031676 0.9492693 0.8325775 0.9961925 0.4220001 0.9961925 0.8325775 0.003807544 0.9031676 0.414385 0.003807544 0.414385 0.9031676 0.4220001 0.9031676 0.8325775 0.003807544 0.8325775 0.9031676 0.004238128 0.4957618 0.3078263 0.004238188 0.3078263 0.4957618 0.6283671 0.004238128 0.9174987 0.3078263 0.6283671 0.3078263 0.3163027 0.4957618 0.6198908 0.004238188 0.6198908 0.4957618 0.6283671 0.3163026 0.9174987 0.6198908 0.6283671 0.6198908 0.004238128 0.9957619 0.2933697 0.5042382 0.2933697 0.9957619 0.3018461 0.9957619 0.5909776 0.5042382 0.5909776 0.9957619 0.230691 0.997259 0.3030197 0.002741038 0.3030195 0.997259 0.3863125 0.1112339 0.4586411 0.002741038 0.4586411 0.1112339 0.3085017 0.997259 0.3808304 0.002741038 0.3808303 0.997259 0.3863125 0.2252089 0.4586411 0.116716 0.4586411 0.2252089 0.002741038 0.997259 0.1112339 0.002741038 0.1112339 0.997259 0.116716 0.997259 0.2252088 0.002741038 0.2252088 0.997259 0.001073598 0.001073598 0.01703923 0.9989264 0.001073598 0.9989264 0.01918649 0.001073598 0.03515213 0.9989264 0.01918649 0.9989264 0.03729933 0.001073598 0.05326497 0.9989264 0.03729933 0.9989264 0.05541223 0.001073598 0.07137787 0.9989264 0.05541223 0.9989264 0.08949077 0.01703923 0.07352513 0.001073598 0.08949077 0.001073598 0.08949077 0.03515213 0.07352513 0.01918649 0.08949077 0.01918649 0.2170367 0.05178284 0.2668386 0.00198096 0.2668386 0.05178284 0.00198096 0.998019 0.0517829 0.00198096 0.05178284 0.998019 0.2170367 0.1055467 0.2668386 0.05574482 0.2668386 0.1055467 0.05574488 0.998019 0.1055468 0.00198096 0.1055468 0.998019 0.1593107 0.998019 0.1095089 0.00198096 0.1593108 0.00198096 0.2130746 0.998019 0.1632728 0.00198096 0.2130747 0.00198096 0.5042325 0.4823489 0.7457675 0.85807 0.5042325 0.85807 0.004232466 0.4738839 0.3799536 0.004232466 0.3799536 0.4738839 0.7542325 0.4823489 0.9957675 0.85807 0.7542325 0.85807 0.3884186 0.4738839 0.7641398 0.004232466 0.7641397 0.4738839 0.2457675 0.9520003 0.004232466 0.4823489 0.2457675 0.4823489 0.4957675 0.9520003 0.2542325 0.4823489 0.4957675 0.4823489 0.003233015 0.5508856 0.05735164 0.9838347 0.003233015 0.9838347 0.003233015 0.5444194 0.4361822 0.003233015 0.4361822 0.5444195 0.06381773 0.5508856 0.1179364 0.9838347 0.06381773 0.9838347 0.4426483 0.5444195 0.8755974 0.003233015 0.8755974 0.5444195 0.9361822 0.5444194 0.8820636 0.003233015 0.9361823 0.003233015 0.9967669 0.5444194 0.9426482 0.003233015 0.9967669 0.003233015 0.5042325 0.4823489 0.7457675 0.85807 0.5042325 0.85807 0.004232466 0.4738839 0.3799536 0.004232466 0.3799536 0.4738839 0.7542325 0.4823489 0.9957675 0.85807 0.7542325 0.85807 0.3884186 0.4738839 0.7641398 0.004232466 0.7641397 0.4738839 0.2457675 0.9520003 0.004232466 0.4823489 0.2457675 0.4823489 0.4957675 0.9520003 0.2542325 0.4823489 0.4957675 0.4823489 0.003233015 0.5508856 0.05735164 0.9838347 0.003233015 0.9838347 0.003233015 0.5444194 0.4361822 0.003233015 0.4361822 0.5444195 0.06381773 0.5508856 0.1179364 0.9838347 0.06381773 0.9838347 0.4426483 0.5444195 0.8755974 0.003233015 0.8755974 0.5444195 0.9361822 0.5444194 0.8820636 0.003233015 0.9361823 0.003233015 0.9967669 0.5444194 0.9426482 0.003233015 0.9967669 0.003233015 0.5042325 0.4823489 0.7457675 0.85807 0.5042325 0.85807 0.004232466 0.4738839 0.3799536 0.004232466 0.3799536 0.4738839 0.7542325 0.4823489 0.9957675 0.85807 0.7542325 0.85807 0.3884186 0.4738839 0.7641398 0.004232466 0.7641397 0.4738839 0.2457675 0.9520003 0.004232466 0.4823489 0.2457675 0.4823489 0.4957675 0.9520003 0.2542325 0.4823489 0.4957675 0.4823489 0.003233015 0.5508856 0.05735164 0.9838347 0.003233015 0.9838347 0.003233015 0.5444194 0.4361822 0.003233015 0.4361822 0.5444195 0.06381773 0.5508856 0.1179364 0.9838347 0.06381773 0.9838347 0.4426483 0.5444195 0.8755974 0.003233015 0.8755974 0.5444195 0.9361822 0.5444194 0.8820636 0.003233015 0.9361823 0.003233015 0.9967669 0.5444194 0.9426482 0.003233015 0.9967669 0.003233015 0.5042325 0.4823489 0.7457675 0.85807 0.5042325 0.85807 0.004232466 0.4738839 0.3799536 0.004232466 0.3799536 0.4738839 0.7542325 0.4823489 0.9957675 0.85807 0.7542325 0.85807 0.3884186 0.4738839 0.7641398 0.004232466 0.7641397 0.4738839 0.2457675 0.9520003 0.004232466 0.4823489 0.2457675 0.4823489 0.4957675 0.9520003 0.2542325 0.4823489 0.4957675 0.4823489 0.003233015 0.5508856 0.05735164 0.9838347 0.003233015 0.9838347 0.003233015 0.5444194 0.4361822 0.003233015 0.4361822 0.5444195 0.06381773 0.5508856 0.1179364 0.9838347 0.06381773 0.9838347 0.4426483 0.5444195 0.8755974 0.003233015 0.8755974 0.5444195 0.9361822 0.5444194 0.8820636 0.003233015 0.9361823 0.003233015 0.9967669 0.5444194 0.9426482 0.003233015 0.9967669 0.003233015 0.8401926 0.9031676 0.8401927 0.003807544 0.8871158 0.003807544 0.9492692 0.414385 0.9492693 0.003807544 0.9961924 0.003807544 0.8947309 0.9031676 0.894731 0.003807544 0.9416541 0.003807544 0.9492693 0.8325775 0.9492694 0.4220001 0.9961925 0.4220001 0.003807544 0.9031676 0.003807544 0.003807544 0.414385 0.003807544 0.4220001 0.9031676 0.4220001 0.003807544 0.8325775 0.003807544 0.004238128 0.4957618 0.004238188 0.004238128 0.3078263 0.004238188 0.6283671 0.004238128 0.9174987 0.004238128 0.9174987 0.3078263 0.3163027 0.4957618 0.3163027 0.004238128 0.6198908 0.004238188 0.6283671 0.3163026 0.9174987 0.3163026 0.9174987 0.6198908 0.004238128 0.9957619 0.004238128 0.5042382 0.2933697 0.5042382 0.3018461 0.9957619 0.3018461 0.5042382 0.5909776 0.5042382 0.230691 0.997259 0.230691 0.002741038 0.3030197 0.002741038 0.3863125 0.1112339 0.3863126 0.002741038 0.4586411 0.002741038 0.3085017 0.997259 0.3085018 0.002741038 0.3808304 0.002741038 0.3863125 0.2252089 0.3863125 0.116716 0.4586411 0.116716 0.002741038 0.997259 0.002741038 0.002741038 0.1112339 0.002741038 0.116716 0.997259 0.116716 0.002741038 0.2252088 0.002741038 0.001073598 0.001073598 0.01703923 0.001073598 0.01703923 0.9989264 0.01918649 0.001073598 0.03515213 0.001073598 0.03515213 0.9989264 0.03729933 0.001073598 0.05326497 0.001073598 0.05326497 0.9989264 0.05541223 0.001073598 0.07137787 0.001073598 0.07137787 0.9989264 0.08949077 0.01703923 0.07352513 0.01703923 0.07352513 0.001073598 0.08949077 0.03515213 0.07352513 0.03515213 0.07352513 0.01918649 0.2170367 0.05178284 0.2170367 0.00198096 0.2668386 0.00198096 0.00198096 0.998019 0.001981019 0.00198096 0.0517829 0.00198096 0.2170367 0.1055467 0.2170367 0.05574482 0.2668386 0.05574482 0.05574488 0.998019 0.05574494 0.00198096 0.1055468 0.00198096 0.1593107 0.998019 0.1095088 0.998019 0.1095089 0.00198096 0.2130746 0.998019 0.1632727 0.998019 0.1632728 0.00198096 0.5042325 0.4823489 0.7457675 0.4823489 0.7457675 0.85807 0.004232466 0.4738839 0.004232466 0.004232466 0.3799536 0.004232466 0.7542325 0.4823489 0.9957675 0.4823489 0.9957675 0.85807 0.3884186 0.4738839 0.3884186 0.004232466 0.7641398 0.004232466 0.2457675 0.9520003 0.004232466 0.9520003 0.004232466 0.4823489 0.4957675 0.9520003 0.2542325 0.9520003 0.2542325 0.4823489 0.003233015 0.5508856 0.05735164 0.5508856 0.05735164 0.9838347 0.003233015 0.5444194 0.003233075 0.003233015 0.4361822 0.003233015 0.06381773 0.5508856 0.1179364 0.5508856 0.1179364 0.9838347 0.4426483 0.5444195 0.4426484 0.003233015 0.8755974 0.003233015 0.9361822 0.5444194 0.8820636 0.5444194 0.8820636 0.003233015 0.9967669 0.5444194 0.9426482 0.5444194 0.9426482 0.003233015 0.5042325 0.4823489 0.7457675 0.4823489 0.7457675 0.85807 0.004232466 0.4738839 0.004232466 0.004232466 0.3799536 0.004232466 0.7542325 0.4823489 0.9957675 0.4823489 0.9957675 0.85807 0.3884186 0.4738839 0.3884186 0.004232466 0.7641398 0.004232466 0.2457675 0.9520003 0.004232466 0.9520003 0.004232466 0.4823489 0.4957675 0.9520003 0.2542325 0.9520003 0.2542325 0.4823489 0.003233015 0.5508856 0.05735164 0.5508856 0.05735164 0.9838347 0.003233015 0.5444194 0.003233075 0.003233015 0.4361822 0.003233015 0.06381773 0.5508856 0.1179364 0.5508856 0.1179364 0.9838347 0.4426483 0.5444195 0.4426484 0.003233015 0.8755974 0.003233015 0.9361822 0.5444194 0.8820636 0.5444194 0.8820636 0.003233015 0.9967669 0.5444194 0.9426482 0.5444194 0.9426482 0.003233015 0.5042325 0.4823489 0.7457675 0.4823489 0.7457675 0.85807 0.004232466 0.4738839 0.004232466 0.004232466 0.3799536 0.004232466 0.7542325 0.4823489 0.9957675 0.4823489 0.9957675 0.85807 0.3884186 0.4738839 0.3884186 0.004232466 0.7641398 0.004232466 0.2457675 0.9520003 0.004232466 0.9520003 0.004232466 0.4823489 0.4957675 0.9520003 0.2542325 0.9520003 0.2542325 0.4823489 0.003233015 0.5508856 0.05735164 0.5508856 0.05735164 0.9838347 0.003233015 0.5444194 0.003233075 0.003233015 0.4361822 0.003233015 0.06381773 0.5508856 0.1179364 0.5508856 0.1179364 0.9838347 0.4426483 0.5444195 0.4426484 0.003233015 0.8755974 0.003233015 0.9361822 0.5444194 0.8820636 0.5444194 0.8820636 0.003233015 0.9967669 0.5444194 0.9426482 0.5444194 0.9426482 0.003233015 0.5042325 0.4823489 0.7457675 0.4823489 0.7457675 0.85807 0.004232466 0.4738839 0.004232466 0.004232466 0.3799536 0.004232466 0.7542325 0.4823489 0.9957675 0.4823489 0.9957675 0.85807 0.3884186 0.4738839 0.3884186 0.004232466 0.7641398 0.004232466 0.2457675 0.9520003 0.004232466 0.9520003 0.004232466 0.4823489 0.4957675 0.9520003 0.2542325 0.9520003 0.2542325 0.4823489 0.003233015 0.5508856 0.05735164 0.5508856 0.05735164 0.9838347 0.003233015 0.5444194 0.003233075 0.003233015 0.4361822 0.003233015 0.06381773 0.5508856 0.1179364 0.5508856 0.1179364 0.9838347 0.4426483 0.5444195 0.4426484 0.003233015 0.8755974 0.003233015 0.9361822 0.5444194 0.8820636 0.5444194 0.8820636 0.003233015 0.9967669 0.5444194 0.9426482 0.5444194 0.9426482 0.003233015</float_array>
          <technique_common>
            <accessor source="#lighttower_blank_raised_a800-mesh-map-0-array" count="468" stride="2">
              <param name="S" type="float"/>
              <param name="T" type="float"/>
            </accessor>
          </technique_common>
        </source>
        <vertices id="lighttower_blank_raised_a800-mesh-vertices">
          <input semantic="POSITION" source="#lighttower_blank_raised_a800-mesh-positions"/>
        </vertices>
        <triangles material="black-material" count="96">
          <input semantic="VERTEX" source="#lighttower_blank_raised_a800-mesh-vertices" offset="0"/>
          <input semantic="NORMAL" source="#lighttower_blank_raised_a800-mesh-normals" offset="1"/>
          <input semantic="TEXCOORD" source="#lighttower_blank_raised_a800-mesh-map-0" offset="2" set="0"/>
          <p>1 0 0 2 0 1 0 0 2 3 1 3 6 1 4 2 1 5 7 2 6 4 2 7 6 2 8 5 3 9 0 3 10 4 3 11 6 4 12 0 4 13 2 4 14 3 5 15 5 5 16 7 5 17 17 12 36 18 12 37 16 12 38 19 13 39 22 13 40 18 13 41 23 14 42 20 14 43 22 14 44 21 15 45 16 15 46 20 15 47 22 16 48 16 16 49 18 16 50 19 17 51 21 17 52 23 17 53 25 18 54 26 18 55 24 18 56 27 19 57 30 19 58 26 19 59 31 20 60 28 20 61 30 20 62 29 21 63 24 21 64 28 21 65 30 22 66 24 22 67 26 22 68 27 23 69 29 23 70 31 23 71 33 24 72 34 24 73 32 24 74 35 25 75 38 25 76 34 25 77 39 26 78 36 26 79 38 26 80 37 27 81 32 27 82 36 27 83 38 28 84 32 28 85 34 28 86 35 29 87 37 29 88 39 29 89 41 30 90 42 30 91 40 30 92 43 31 93 46 31 94 42 31 95 47 32 96 44 32 97 46 32 98 45 33 99 40 33 100 44 33 101 46 34 102 40 34 103 42 34 104 43 35 105 45 35 106 47 35 107 57 42 126 58 42 127 56 42 128 59 43 129 62 43 130 58 43 131 63 44 132 60 44 133 62 44 134 61 45 135 56 45 136 60 45 137 62 46 138 56 46 139 58 46 140 59 47 141 61 47 142 63 47 143 73 54 162 74 54 163 72 54 164 75 55 165 78 55 166 74 55 167 79 56 168 76 56 169 78 56 170 77 57 171 72 57 172 76 57 173 78 58 174 72 58 175 74 58 176 75 59 177 77 59 178 79 59 179 89 66 198 90 66 199 88 66 200 91 67 201 94 67 202 90 67 203 95 68 204 92 68 205 94 68 206 93 69 207 88 69 208 92 69 209 94 70 210 88 70 211 90 70 212 91 71 213 93 71 214 95 71 215 1 78 234 3 78 235 2 78 236 3 79 237 7 79 238 6 79 239 7 80 240 5 80 241 4 80 242 5 81 243 1 81 244 0 81 245 6 82 246 4 82 247 0 82 248 3 83 249 1 83 250 5 83 251 17 90 270 19 90 271 18 90 272 19 91 273 23 91 274 22 91 275 23 92 276 21 92 277 20 92 278 21 93 279 17 93 280 16 93 281 22 94 282 20 94 283 16 94 284 19 95 285 17 95 286 21 95 287 25 96 288 27 96 289 26 96 290 27 97 291 31 97 292 30 97 293 31 98 294 29 98 295 28 98 296 29 99 297 25 99 298 24 99 299 30 100 300 28 100 301 24 100 302 27 101 303 25 101 304 29 101 305 33 102 306 35 102 307 34 102 308 35 103 309 39 103 310 38 103 311 39 104 312 37 104 313 36 104 314 37 105 315 33 105 316 32 105 317 38 106 318 36 106 319 32 106 320 35 107 321 33 107 322 37 107 323 41 108 324 43 108 325 42 108 326 43 109 327 47 109 328 46 109 329 47 110 330 45 110 331 44 110 332 45 111 333 41 111 334 40 111 335 46 112 336 44 112 337 40 112 338 43 113 339 41 113 340 45 113 341 57 120 360 59 120 361 58 120 362 59 121 363 63 121 364 62 121 365 63 122 366 61 122 367 60 122 368 61 123 369 57 123 370 56 123 371 62 124 372 60 124 373 56 124 374 59 125 375 57 125 376 61 125 377 73 132 396 75 132 397 74 132 398 75 133 399 79 133 400 78 133 401 79 134 402 77 134 403 76 134 404 77 135 405 73 135 406 72 135 407 78 136 408 76 136 409 72 136 410 75 137 411 73 137 412 77 137 413 89 144 432 91 144 433 90 144 434 91 145 435 95 145 436 94 145 437 95 146 438 93 146 439 92 146 440 93 147 441 89 147 442 88 147 443 94 148 444 92 148 445 88 148 446 91 149 447 89 149 448 93 149 449</p>
        </triangles>
        <triangles material="body_007-material" count="12">
          <input semantic="VERTEX" source="#lighttower_blank_raised_a800-mesh-vertices" offset="0"/>
          <input semantic="NORMAL" source="#lighttower_blank_raised_a800-mesh-normals" offset="1"/>
          <input semantic="TEXCOORD" source="#lighttower_blank_raised_a800-mesh-map-0" offset="2" set="0"/>
          <p>9 6 18 10 6 19 8 6 20 11 7 21 14 7 22 10 7 23 15 8 24 12 8 25 14 8 26 13 9 27 8 9 28 12 9 29 14 10 30 8 10 31 10 10 32 11 11 33 13 11 34 15 11 35 9 84 252 11 84 253 10 84 254 11 85 255 15 85 256 14 85 257 15 86 258 13 86 259 12 86 260 13 87 261 9 87 262 8 87 263 14 88 264 12 88 265 8 88 266 11 89 267 9 89 268 13 89 269</p>
        </triangles>
        <triangles material="lens-material" count="48">
          <input semantic="VERTEX" source="#lighttower_blank_raised_a800-mesh-vertices" offset="0"/>
          <input semantic="NORMAL" source="#lighttower_blank_raised_a800-mesh-normals" offset="1"/>
          <input semantic="TEXCOORD" source="#lighttower_blank_raised_a800-mesh-map-0" offset="2" set="0"/>
          <p>49 36 108 50 36 109 48 36 110 51 37 111 54 37 112 50 37 113 55 38 114 52 38 115 54 38 116 53 39 117 48 39 118 52 39 119 54 40 120 48 40 121 50 40 122 51 41 123 53 41 124 55 41 125 65 48 144 66 48 145 64 48 146 67 49 147 70 49 148 66 49 149 71 50 150 68 50 151 70 50 152 69 51 153 64 51 154 68 51 155 70 52 156 64 52 157 66 52 158 67 53 159 69 53 160 71 53 161 81 60 180 82 60 181 80 60 182 83 61 183 86 61 184 82 61 185 87 62 186 84 62 187 86 62 188 85 63 189 80 63 190 84 63 191 86 64 192 80 64 193 82 64 194 83 65 195 85 65 196 87 65 197 97 72 216 98 72 217 96 72 218 99 73 219 102 73 220 98 73 221 103 74 222 100 74 223 102 74 224 101 75 225 96 75 226 100 75 227 102 76 228 96 76 229 98 76 230 99 77 231 101 77 232 103 77 233 49 114 342 51 114 343 50 114 344 51 115 345 55 115 346 54 115 347 55 116 348 53 116 349 52 116 350 53 117 351 49 117 352 48 117 353 54 118 354 52 118 355 48 118 356 51 119 357 49 119 358 53 119 359 65 126 378 67 126 379 66 126 380 67 127 381 71 127 382 70 127 383 71 128 384 69 128 385 68 128 386 69 129 387 65 129 388 64 129 389 70 130 390 68 130 391 64 130 392 67 131 393 65 131 394 69 131 395 81 138 414 83 138 415 82 138 416 83 139 417 87 139 418 86 139 419 87 140 420 85 140 421 84 140 422 85 141 423 81 141 424 80 141 425 86 142 426 84 142 427 80 142 428 83 143 429 81 143 430 85 143 431 97 150 450 99 150 451 98 150 452 99 151 453 103 151 454 102 151 455 103 152 456 101 152 457 100 152 458 101 153 459 97 153 460 96 153 461 102 154 462 100 154 463 96 154 464 99 155 465 97 155 466 101 155 467</p>
        </triangles>
      </mesh>
    </geometry>
  </library_geometries>
  <library_visual_scenes>
    <visual_scene id="Scene" name="Scene">
      <node id="base00" name="base00" type="NODE">
        <matrix sid="transform">1 0 0 0 0 1 0 0 0 0 1 0 0 0 0 1</matrix>
        <node id="start01" name="start01" type="NODE">
          <matrix sid="transform">1 0 0 0 0 1 0 0 0 0 1 0 0 0 0 1</matrix>
          <node id="lighttower_blank_raised_a800" name="lighttower_blank_raised_a800" type="NODE">
            <matrix sid="transform">1 0 0 0 0 1 0 0 0 0 1 0 0 0 0 1</matrix>
            <instance_geometry url="#lighttower_blank_raised_a800-mesh" name="lighttower_blank_raised_a800">
              <bind_material>
                <technique_common>
                  <instance_material symbol="black-material" target="#black-material">
                    <bind_vertex_input semantic="UVMap" input_semantic="TEXCOORD" input_set="0"/>
                  </instance_material>
                  <instance_material symbol="body_007-material" target="#body_007-material">
                    <bind_vertex_input semantic="UVMap" input_semantic="TEXCOORD" input_set="0"/>
                  </instance_material>
                  <instance_material symbol="lens-material" target="#lens-material">
                    <bind_vertex_input semantic="UVMap" input_semantic="TEXCOORD" input_set="0"/>
                  </instance_material>
                </technique_common>
              </bind_material>
            </instance_geometry>
          </node>
          <node id="lighttower_blank_raised_a200" name="lighttower_blank_raised_a200" type="NODE">
            <matrix sid="transform">1 0 0 0 0 1 0 0 0 0 1 0 0 0 0 1</matrix>
            <instance_geometry url="#lighttower_blank_raised_a200-mesh" name="lighttower_blank_raised_a200">
              <bind_material>
                <technique_common>
                  <instance_material symbol="black-material" target="#black-material">
                    <bind_vertex_input semantic="UVMap" input_semantic="TEXCOORD" input_set="0"/>
                  </instance_material>
                  <instance_material symbol="body_007-material" target="#body_007-material">
                    <bind_vertex_input semantic="UVMap" input_semantic="TEXCOORD" input_set="0"/>
                  </instance_material>
                  <instance_material symbol="lens-material" target="#lens-material">
                    <bind_vertex_input semantic="UVMap" input_semantic="TEXCOORD" input_set="0"/>
                  </instance_material>
                </technique_common>
              </bind_material>
            </instance_geometry>
          </node>
          <node id="lighttower_blank_raised_a50" name="lighttower_blank_raised_a50" type="NODE">
            <matrix sid="transform">1 0 0 0 0 1 0 0 0 0 1 0 0 0 0 1</matrix>
            <instance_geometry url="#lighttower_blank_raised_a50-mesh" name="lighttower_blank_raised_a50">
              <bind_material>
                <technique_common>
                  <instance_material symbol="black-material" target="#black-material">
                    <bind_vertex_input semantic="UVMap" input_semantic="TEXCOORD" input_set="0"/>
                  </instance_material>
                </technique_common>
              </bind_material>
            </instance_geometry>
          </node>
          <node id="nulldetail20" name="nulldetail20" type="NODE">
            <matrix sid="transform">1 0 0 0 0 1 0 0 0 0 1 0 0 0 0 1</matrix>
          </node>
        </node>
        <node id="collision-1" name="collision-1" type="NODE">
          <matrix sid="transform">1 0 0 0 0 1 0 0 0 0 1 0 0 0 0 1</matrix>
          <node id="Colmesh_body-1" name="Colmesh_body-1" type="NODE">
            <matrix sid="transform">1 0 0 0 0 1 0 0 0 0 1 0 0 0 0 1</matrix>
            <instance_geometry url="#Colmesh_body-1-mesh" name="Colmesh_body-1">
              <bind_material>
                <technique_common>
                  <instance_material symbol="Colmesh_Material-material" target="#Colmesh_Material-material">
                    <bind_vertex_input semantic="UVMap" input_semantic="TEXCOORD" input_set="0"/>
                  </instance_material>
                </technique_common>
              </bind_material>
            </instance_geometry>
          </node>
          <node id="Colmesh_mast-1" name="Colmesh_mast-1" type="NODE">
            <matrix sid="transform">1 0 0 0 0 1 0 0 0 0 1 0 0 0 0 1</matrix>
            <instance_geometry url="#Colmesh_mast-1-mesh" name="Colmesh_mast-1">
              <bind_material>
                <technique_common>
                  <instance_material symbol="Colmesh_Material-material" target="#Colmesh_Material-material">
                    <bind_vertex_input semantic="UVMap" input_semantic="TEXCOORD" input_set="0"/>
                  </instance_material>
                </technique_common>
              </bind_material>
            </instance_geometry>
          </node>
        </node>
      </node>
    </visual_scene>
  </library_visual_scenes>
  <scene>
    <instance_visual_scene url="#Scene"/>
  </scene>
</COLLADA>