<?xml version="1.0" encoding="utf-8"?>
<COLLADA xmlns="http://www.collada.org/2005/11/COLLADASchema" version="1.4.1" xmlns:xsi="http://www.w3.org/2001/XMLSchema-instance">
  <asset>
    <contributor>
      <author>Blender User</author>
      <authoring_tool>Blender 4.2.9 LTS commit date:2025-04-14, commit time:12:24, hash:a10f621e649a</authoring_tool>
    </contributor>
    <created>2026-08-01T07:32:15</created>
    <modified>2026-08-01T07:32:15</modified>
    <unit name="meter" meter="1"/>
    <up_axis>Z_UP</up_axis>
  </asset>
  <library_effects>
    <effect id="TIRE_rim-effect">
      <profile_COMMON>
        <newparam sid="tire_rim_png-surface">
          <surface type="2D">
            <init_from>tire_rim_png</init_from>
          </surface>
        </newparam>
        <newparam sid="tire_rim_png-sampler">
          <sampler2D>
            <source>tire_rim_png-surface</source>
          </sampler2D>
        </newparam>
        <technique sid="common">
          <lambert>
            <emission>
              <color sid="emission">0 0 0 1</color>
            </emission>
            <diffuse>
              <texture texture="tire_rim_png-sampler" texcoord="UVMap"/>
            </diffuse>
            <reflectivity>
              <float sid="specular">0.6</float>
            </reflectivity>
            <index_of_refraction>
              <float sid="ior">1.5</float>
            </index_of_refraction>
          </lambert>
        </technique>
      </profile_COMMON>
    </effect>
    <effect id="TIRE_rubber-effect">
      <profile_COMMON>
        <newparam sid="tire_rubber_png-surface">
          <surface type="2D">
            <init_from>tire_rubber_png</init_from>
          </surface>
        </newparam>
        <newparam sid="tire_rubber_png-sampler">
          <sampler2D>
            <source>tire_rubber_png-surface</source>
          </sampler2D>
        </newparam>
        <technique sid="common">
          <lambert>
            <emission>
              <color sid="emission">0 0 0 1</color>
            </emission>
            <diffuse>
              <texture texture="tire_rubber_png-sampler" texcoord="UVMap"/>
            </diffuse>
            <index_of_refraction>
              <float sid="ior">1.5</float>
            </index_of_refraction>
          </lambert>
        </technique>
      </profile_COMMON>
    </effect>
  </library_effects>
  <library_images>
    <image id="tire_rim_png" name="tire_rim_png">
      <init_from>tire_rim.png</init_from>
    </image>
    <image id="tire_rubber_png" name="tire_rubber_png">
      <init_from>tire_rubber.png</init_from>
    </image>
  </library_images>
  <library_materials>
    <material id="TIRE_rim-material" name="TIRE_rim">
      <instance_effect url="#TIRE_rim-effect"/>
    </material>
    <material id="TIRE_rubber-material" name="TIRE_rubber">
      <instance_effect url="#TIRE_rubber-effect"/>
    </material>
  </library_materials>
  <library_geometries>
    <geometry id="Cylinder-mesh" name="Cylinder">
      <mesh>
        <source id="Cylinder-mesh-positions">
          <float_array id="Cylinder-mesh-positions-array" count="96">0 0.272 -0.01999998 0 0.272 0.01999998 0.1040899 0.2512952 -0.01999998 0.1040899 0.2512952 0.01999998 0.1923331 0.1923331 -0.01999998 0.1923331 0.1923331 0.01999998 0.2512952 0.1040899 -0.01999998 0.2512952 0.1040899 0.01999998 0.272 0 -0.01999998 0.272 0 0.01999998 0.2512952 -0.1040899 -0.01999998 0.2512952 -0.1040899 0.01999998 0.1923331 -0.1923331 -0.01999998 0.1923331 -0.1923331 0.01999998 0.1040899 -0.2512952 -0.01999998 0.1040899 -0.2512952 0.01999998 0 -0.272 -0.01999998 0 -0.272 0.01999998 -0.1040899 -0.2512952 -0.01999998 -0.1040899 -0.2512952 0.01999998 -0.1923331 -0.1923331 -0.01999998 -0.1923331 -0.1923331 0.01999998 -0.2512952 -0.1040899 -0.01999998 -0.2512952 -0.1040899 0.01999998 -0.272 0 -0.01999998 -0.272 0 0.01999998 -0.2512952 0.1040899 -0.01999998 -0.2512952 0.1040899 0.01999998 -0.1923331 0.1923331 -0.01999998 -0.1923331 0.1923331 0.01999998 -0.1040899 0.2512952 -0.01999998 -0.1040899 0.2512952 0.01999998</float_array>
          <technique_common>
            <accessor source="#Cylinder-mesh-positions-array" count="32" stride="3">
              <param name="X" type="float"/>
              <param name="Y" type="float"/>
              <param name="Z" type="float"/>
            </accessor>
          </technique_common>
        </source>
        <source id="Cylinder-mesh-normals">
          <float_array id="Cylinder-mesh-normals-array" count="180">0.1950903 0.9807853 0 0.5555701 0.8314696 0 0.8314696 0.5555701 0 0.9807853 0.1950903 0 0.9807853 -0.1950903 0 0.8314696 -0.5555701 0 0.5555701 -0.8314696 0 0.1950903 -0.9807853 0 -0.1950903 -0.9807853 0 -0.5555701 -0.8314696 0 -0.8314696 -0.5555701 0 -0.9807853 -0.1950903 0 -0.9807853 0.1950903 0 -0.8314696 0.5555701 0 0 0 1 -0.5555701 0.8314696 0 -0.1950903 0.9807853 0 0 0 -1 0.1950903 0.9807853 0 0.5555701 0.8314696 0 0.8314696 0.5555701 0 0.9807853 0.1950903 0 0.9807853 -0.1950903 0 0.8314696 -0.5555701 0 0.5555701 -0.8314696 0 0.1950903 -0.9807853 0 -0.1950903 -0.9807853 0 -0.5555701 -0.8314696 0 -0.8314696 -0.5555701 0 -0.9807853 -0.1950903 0 -0.9807853 0.1950903 0 -0.8314696 0.5555701 0 0 0 1 0 0 1 0 0 1 0 0 1 0 0 1 0 0 1 0 0 1 0 0 1 0 0 1 0 0 1 0 0 1 0 0 1 0 0 1 -0.5555701 0.8314696 0 -0.1950903 0.9807853 0 0 0 -1 0 0 -1 0 0 -1 0 0 -1 0 0 -1 0 0 -1 0 0 -1 0 0 -1 0 0 -1 0 0 -1 0 0 -1 0 0 -1 0 0 -1</float_array>
          <technique_common>
            <accessor source="#Cylinder-mesh-normals-array" count="60" stride="3">
              <param name="X" type="float"/>
              <param name="Y" type="float"/>
              <param name="Z" type="float"/>
            </accessor>
          </technique_common>
        </source>
        <source id="Cylinder-mesh-map-0">
          <float_array id="Cylinder-mesh-map-0-array" count="360">1 1 0.9375 0.5 1 0.5 0.9375 1 0.875 0.5 0.9375 0.5 0.875 1 0.8125 0.5 0.875 0.5 0.8125 1 0.75 0.5 0.8125 0.5 0.75 1 0.6875 0.5 0.75 0.5 0.6875 1 0.625 0.5 0.6875 0.5 0.625 1 0.5625 0.5 0.625 0.5 0.5625 1 0.5 0.5 0.5625 0.5 0.5 1 0.4375 0.5 0.5 0.5 0.4375 1 0.375 0.5 0.4375 0.5 0.375 1 0.3125 0.5 0.375 0.5 0.3125 1 0.25 0.5 0.3125 0.5 0.25 1 0.1875 0.5 0.25 0.5 0.1875 1 0.125 0.5 0.1875 0.5 0.08029437 0.08029437 0.4197056 0.08029437 0.4197056 0.4197056 0.125 1 0.0625 0.5 0.125 0.5 0.0625 1 0 0.5 0.0625 0.5 0.841844 0.02826887 0.5282689 0.1581559 0.658156 0.4717311 1 1 0.9375 1 0.9375 0.5 0.9375 1 0.875 1 0.875 0.5 0.875 1 0.8125 1 0.8125 0.5 0.8125 1 0.75 1 0.75 0.5 0.75 1 0.6875 1 0.6875 0.5 0.6875 1 0.625 1 0.625 0.5 0.625 1 0.5625 1 0.5625 0.5 0.5625 1 0.5 1 0.5 0.5 0.5 1 0.4375 1 0.4375 0.5 0.4375 1 0.375 1 0.375 0.5 0.375 1 0.3125 1 0.3125 0.5 0.3125 1 0.25 1 0.25 0.5 0.25 1 0.1875 1 0.1875 0.5 0.1875 1 0.125 1 0.125 0.5 0.4197056 0.4197056 0.341844 0.4717311 0.25 0.49 0.25 0.49 0.1581559 0.4717311 0.4197056 0.4197056 0.1581559 0.4717311 0.08029437 0.4197056 0.4197056 0.4197056 0.08029437 0.4197056 0.02826887 0.341844 0.08029437 0.08029437 0.02826887 0.341844 0.00999999 0.25 0.08029437 0.08029437 0.00999999 0.25 0.02826887 0.1581559 0.08029437 0.08029437 0.08029437 0.08029437 0.1581559 0.02826887 0.4197056 0.08029437 0.1581559 0.02826887 0.25 0.00999999 0.4197056 0.08029437 0.25 0.00999999 0.341844 0.02826887 0.4197056 0.08029437 0.4197056 0.08029437 0.4717311 0.1581559 0.49 0.25 0.49 0.25 0.4717311 0.341844 0.4197056 0.08029437 0.4717311 0.341844 0.4197056 0.4197056 0.4197056 0.08029437 0.4197056 0.4197056 0.08029437 0.4197056 0.08029437 0.08029437 0.125 1 0.0625 1 0.0625 0.5 0.0625 1 0 1 0 0.5 0.658156 0.4717311 0.75 0.49 0.841844 0.4717311 0.841844 0.4717311 0.9197056 0.4197056 0.9717311 0.341844 0.9717311 0.341844 0.99 0.25 0.9717311 0.1581559 0.9717311 0.1581559 0.9197056 0.08029437 0.841844 0.02826887 0.841844 0.02826887 0.75 0.00999999 0.658156 0.02826887 0.658156 0.02826887 0.5802944 0.08029437 0.5282689 0.1581559 0.5282689 0.1581559 0.51 0.25 0.5282689 0.341844 0.5282689 0.341844 0.5802944 0.4197056 0.658156 0.4717311 0.658156 0.4717311 0.841844 0.4717311 0.9717311 0.341844 0.9717311 0.341844 0.9717311 0.1581559 0.841844 0.02826887 0.841844 0.02826887 0.658156 0.02826887 0.5282689 0.1581559 0.5282689 0.1581559 0.5282689 0.341844 0.658156 0.4717311 0.658156 0.4717311 0.9717311 0.341844 0.841844 0.02826887</float_array>
          <technique_common>
            <accessor source="#Cylinder-mesh-map-0-array" count="180" stride="2">
              <param name="S" type="float"/>
              <param name="T" type="float"/>
            </accessor>
          </technique_common>
        </source>
        <vertices id="Cylinder-mesh-vertices">
          <input semantic="POSITION" source="#Cylinder-mesh-positions"/>
        </vertices>
        <triangles material="TIRE_rim-material" count="60">
          <input semantic="VERTEX" source="#Cylinder-mesh-vertices" offset="0"/>
          <input semantic="NORMAL" source="#Cylinder-mesh-normals" offset="1"/>
          <input semantic="TEXCOORD" source="#Cylinder-mesh-map-0" offset="2" set="0"/>
          <p>1 0 0 2 0 1 0 0 2 3 1 3 4 1 4 2 1 5 5 2 6 6 2 7 4 2 8 7 3 9 8 3 10 6 3 11 9 4 12 10 4 13 8 4 14 11 5 15 12 5 16 10 5 17 13 6 18 14 6 19 12 6 20 15 7 21 16 7 22 14 7 23 17 8 24 18 8 25 16 8 26 19 9 27 20 9 28 18 9 29 21 10 30 22 10 31 20 10 32 23 11 33 24 11 34 22 11 35 25 12 36 26 12 37 24 12 38 27 13 39 28 13 40 26 13 41 21 14 42 13 14 43 5 14 44 29 15 45 30 15 46 28 15 47 31 16 48 0 16 49 30 16 50 14 17 51 22 17 52 30 17 53 1 18 54 3 18 55 2 18 56 3 19 57 5 19 58 4 19 59 5 20 60 7 20 61 6 20 62 7 21 63 9 21 64 8 21 65 9 22 66 11 22 67 10 22 68 11 23 69 13 23 70 12 23 71 13 24 72 15 24 73 14 24 74 15 25 75 17 25 76 16 25 77 17 26 78 19 26 79 18 26 80 19 27 81 21 27 82 20 27 83 21 28 84 23 28 85 22 28 86 23 29 87 25 29 88 24 29 89 25 30 90 27 30 91 26 30 92 27 31 93 29 31 94 28 31 95 5 32 96 3 32 97 1 32 98 1 33 99 31 33 100 5 33 101 31 34 102 29 34 103 5 34 104 29 35 105 27 35 106 21 35 107 27 36 108 25 36 109 21 36 110 25 37 111 23 37 112 21 37 113 21 38 114 19 38 115 13 38 116 19 39 117 17 39 118 13 39 119 17 40 120 15 40 121 13 40 122 13 41 123 11 41 124 9 41 125 9 42 126 7 42 127 13 42 128 7 43 129 5 43 130 13 43 131 5 44 132 29 44 133 21 44 134 29 45 135 31 45 136 30 45 137 31 46 138 1 46 139 0 46 140 30 47 141 0 47 142 2 47 143 2 48 144 4 48 145 6 48 146 6 49 147 8 49 148 10 49 149 10 50 150 12 50 151 14 50 152 14 51 153 16 51 154 18 51 155 18 52 156 20 52 157 22 52 158 22 53 159 24 53 160 26 53 161 26 54 162 28 54 163 30 54 164 30 55 165 2 55 166 6 55 167 6 56 168 10 56 169 14 56 170 14 57 171 18 57 172 22 57 173 22 58 174 26 58 175 30 58 176 30 59 177 6 59 178 14 59 179</p>
        </triangles>
      </mesh>
    </geometry>
    <geometry id="Torus-mesh" name="Torus">
      <mesh>
        <source id="Torus-mesh-positions">
          <float_array id="Torus-mesh-positions-array" count="720">0.412 0 0 0.3967213 0 0.06348079 0.3567214 0 0.1027141 0.3072786 0 0.1027141 0.2672786 0 0.06348079 0.252 0 0 0.2672786 0 -0.06348079 0.3072786 0 -0.1027141 0.3567214 0 -0.1027141 0.3967213 0 -0.06348079 0.3979614 0.1066334 0 0.3832034 0.102679 0.06348079 0.3445664 0.09232622 0.1027141 0.2968084 0.07952952 0.1027141 0.2581713 0.06917679 0.06348079 0.2434133 0.06522238 0 0.2581713 0.06917679 -0.06348079 0.2968084 0.07952952 -0.1027141 0.3445664 0.09232622 -0.1027141 0.3832034 0.102679 -0.06348079 0.3568024 0.206 0 0.3435707 0.1983607 0.06348079 0.3089297 0.1783607 0.1027141 0.2661111 0.1536393 0.1027141 0.2314701 0.1336393 0.06348079 0.2182383 0.126 0 0.2314701 0.1336393 -0.06348079 0.2661111 0.1536393 -0.1027141 0.3089297 0.1783607 -0.1027141 0.3435707 0.1983607 -0.06348079 0.291328 0.291328 0 0.2805243 0.2805244 0.06348079 0.2522401 0.2522401 0.1027141 0.2172787 0.2172788 0.1027141 0.1889945 0.1889945 0.06348079 0.1781908 0.1781909 0 0.1889945 0.1889945 -0.06348079 0.2172787 0.2172788 -0.1027141 0.2522401 0.2522401 -0.1027141 0.2805243 0.2805244 -0.06348079 0.206 0.3568025 0 0.1983606 0.3435708 0.06348079 0.1783607 0.3089298 0.1027141 0.1536393 0.2661111 0.1027141 0.1336393 0.2314701 0.06348079 0.1259999 0.2182384 0 0.1336393 0.2314701 -0.06348079 0.1536393 0.2661111 -0.1027141 0.1783607 0.3089298 -0.1027141 0.1983606 0.3435708 -0.06348079 0.1066334 0.3979614 0 0.102679 0.3832034 0.06348079 0.09232628 0.3445664 0.1027141 0.07952952 0.2968084 0.1027141 0.06917679 0.2581713 0.06348079 0.06522238 0.2434133 0 0.06917679 0.2581713 -0.06348079 0.07952952 0.2968084 -0.1027141 0.09232628 0.3445664 -0.1027141 0.102679 0.3832034 -0.06348079 0 0.412 0 0 0.3967213 0.06348079 0 0.3567214 0.1027141 0 0.3072786 0.1027141 0 0.2672786 0.06348079 0 0.252 0 0 0.2672786 -0.06348079 0 0.3072786 -0.1027141 0 0.3567214 -0.1027141 0 0.3967213 -0.06348079 -0.1066334 0.3979614 0 -0.102679 0.3832034 0.06348079 -0.09232622 0.3445664 0.1027141 -0.07952952 0.2968084 0.1027141 -0.06917673 0.2581713 0.06348079 -0.06522232 0.2434133 0 -0.06917673 0.2581713 -0.06348079 -0.07952952 0.2968084 -0.1027141 -0.09232622 0.3445664 -0.1027141 -0.102679 0.3832034 -0.06348079 -0.2059999 0.3568025 0 -0.1983606 0.3435708 0.06348079 -0.1783606 0.3089298 0.1027141 -0.1536393 0.2661111 0.1027141 -0.1336392 0.2314701 0.06348079 -0.1259999 0.2182384 0 -0.1336392 0.2314701 -0.06348079 -0.1536393 0.2661111 -0.1027141 -0.1783606 0.3089298 -0.1027141 -0.1983606 0.3435708 -0.06348079 -0.2913281 0.2913279 0 -0.2805244 0.2805243 0.06348079 -0.2522401 0.25224 0.1027141 -0.2172788 0.2172787 0.1027141 -0.1889945 0.1889945 0.06348079 -0.1781909 0.1781908 0 -0.1889945 0.1889945 -0.06348079 -0.2172788 0.2172787 -0.1027141 -0.2522401 0.25224 -0.1027141 -0.2805244 0.2805243 -0.06348079 -0.3568024 0.2060001 0 -0.3435707 0.1983608 0.06348079 -0.3089297 0.1783607 0.1027141 -0.266111 0.1536394 0.1027141 -0.2314701 0.1336393 0.06348079 -0.2182383 0.126 0 -0.2314701 0.1336393 -0.06348079 -0.266111 0.1536394 -0.1027141 -0.3089297 0.1783607 -0.1027141 -0.3435707 0.1983608 -0.06348079 -0.3979614 0.1066334 0 -0.3832034 0.102679 0.06348079 -0.3445664 0.09232622 0.1027141 -0.2968084 0.07952952 0.1027141 -0.2581713 0.06917673 0.06348079 -0.2434133 0.06522232 0 -0.2581713 0.06917673 -0.06348079 -0.2968084 0.07952952 -0.1027141 -0.3445664 0.09232622 -0.1027141 -0.3832034 0.102679 -0.06348079 -0.412 0 0 -0.3967213 0 0.06348079 -0.3567214 0 0.1027141 -0.3072786 0 0.1027141 -0.2672786 0 0.06348079 -0.252 0 0 -0.2672786 0 -0.06348079 -0.3072786 0 -0.1027141 -0.3567214 0 -0.1027141 -0.3967213 0 -0.06348079 -0.3979614 -0.1066334 0 -0.3832034 -0.102679 0.06348079 -0.3445664 -0.09232622 0.1027141 -0.2968084 -0.07952952 0.1027141 -0.2581713 -0.06917673 0.06348079 -0.2434133 -0.06522232 0 -0.2581713 -0.06917673 -0.06348079 -0.2968084 -0.07952952 -0.1027141 -0.3445664 -0.09232622 -0.1027141 -0.3832034 -0.102679 -0.06348079 -0.3568025 -0.2059999 0 -0.3435708 -0.1983606 0.06348079 -0.3089298 -0.1783606 0.1027141 -0.2661111 -0.1536392 0.1027141 -0.2314701 -0.1336392 0.06348079 -0.2182384 -0.1259999 0 -0.2314701 -0.1336392 -0.06348079 -0.2661111 -0.1536392 -0.1027141 -0.3089298 -0.1783606 -0.1027141 -0.3435708 -0.1983606 -0.06348079 -0.2913281 -0.2913279 0 -0.2805244 -0.2805243 0.06348079 -0.2522401 -0.25224 0.1027141 -0.2172788 -0.2172787 0.1027141 -0.1889945 -0.1889945 0.06348079 -0.1781909 -0.1781908 0 -0.1889945 -0.1889945 -0.06348079 -0.2172788 -0.2172787 -0.1027141 -0.2522401 -0.25224 -0.1027141 -0.2805244 -0.2805243 -0.06348079 -0.2059999 -0.3568025 0 -0.1983606 -0.3435708 0.06348079 -0.1783606 -0.3089298 0.1027141 -0.1536393 -0.2661111 0.1027141 -0.1336392 -0.2314701 0.06348079 -0.1259999 -0.2182384 0 -0.1336392 -0.2314701 -0.06348079 -0.1536393 -0.2661111 -0.1027141 -0.1783606 -0.3089298 -0.1027141 -0.1983606 -0.3435708 -0.06348079 -0.1066336 -0.3979614 0 -0.1026791 -0.3832033 0.06348079 -0.0923264 -0.3445664 0.1027141 -0.07952964 -0.2968083 0.1027141 -0.06917685 -0.2581713 0.06348079 -0.06522244 -0.2434132 0 -0.06917685 -0.2581713 -0.06348079 -0.07952964 -0.2968083 -0.1027141 -0.0923264 -0.3445664 -0.1027141 -0.1026791 -0.3832033 -0.06348079 0 -0.412 0 0 -0.3967213 0.06348079 0 -0.3567214 0.1027141 0 -0.3072786 0.1027141 0 -0.2672786 0.06348079 0 -0.252 0 0 -0.2672786 -0.06348079 0 -0.3072786 -0.1027141 0 -0.3567214 -0.1027141 0 -0.3967213 -0.06348079 0.1066333 -0.3979615 0 0.1026788 -0.3832034 0.06348079 0.0923261 -0.3445664 0.1027141 0.0795294 -0.2968084 0.1027141 0.06917667 -0.2581714 0.06348079 0.06522226 -0.2434133 0 0.06917667 -0.2581714 -0.06348079 0.0795294 -0.2968084 -0.1027141 0.0923261 -0.3445664 -0.1027141 0.1026788 -0.3832034 -0.06348079 0.206 -0.3568025 0 0.1983606 -0.3435708 0.06348079 0.1783607 -0.3089298 0.1027141 0.1536393 -0.2661111 0.1027141 0.1336393 -0.2314701 0.06348079 0.1259999 -0.2182384 0 0.1336393 -0.2314701 -0.06348079 0.1536393 -0.2661111 -0.1027141 0.1783607 -0.3089298 -0.1027141 0.1983606 -0.3435708 -0.06348079 0.2913278 -0.2913281 0 0.2805242 -0.2805245 0.06348079 0.25224 -0.2522402 0.1027141 0.2172787 -0.2172789 0.1027141 0.1889944 -0.1889946 0.06348079 0.1781908 -0.178191 0 0.1889944 -0.1889946 -0.06348079 0.2172787 -0.2172789 -0.1027141 0.25224 -0.2522402 -0.1027141 0.2805242 -0.2805245 -0.06348079 0.3568024 -0.206 0 0.3435707 -0.1983607 0.06348079 0.3089297 -0.1783607 0.1027141 0.2661111 -0.1536393 0.1027141 0.2314701 -0.1336393 0.06348079 0.2182383 -0.126 0 0.2314701 -0.1336393 -0.06348079 0.2661111 -0.1536393 -0.1027141 0.3089297 -0.1783607 -0.1027141 0.3435707 -0.1983607 -0.06348079 0.3979614 -0.1066333 0 0.3832034 -0.1026789 0.06348079 0.3445664 -0.09232616 0.1027141 0.2968084 -0.07952946 0.1027141 0.2581713 -0.06917673 0.06348079 0.2434133 -0.06522232 0 0.2581713 -0.06917673 -0.06348079 0.2968084 -0.07952946 -0.1027141 0.3445664 -0.09232616 -0.1027141 0.3832034 -0.1026789 -0.06348079</float_array>
          <technique_common>
            <accessor source="#Torus-mesh-positions-array" count="240" stride="3">
              <param name="X" type="float"/>
              <param name="Y" type="float"/>
              <param name="Z" type="float"/>
            </accessor>
          </technique_common>
        </source>
        <source id="Torus-mesh-normals">
          <float_array id="Torus-mesh-normals-array" count="1440">0.964369 0.1269616 0.2321059 0.6972751 0.09179794 0.7109013 0 0 1 -0.6972751 -0.09179806 0.7109013 -0.9643691 -0.1269615 0.2321059 -0.964369 -0.1269616 -0.2321059 -0.6972751 -0.09179794 -0.7109013 0 0 -1 0.6972751 0.09179794 -0.7109013 0.964369 0.1269616 -0.2321059 0.8986489 0.3722326 0.2321058 0.6497568 0.2691382 0.7109014 0 0 1 -0.649757 -0.2691382 0.7109012 -0.8986489 -0.3722326 0.232106 -0.8986489 -0.3722326 -0.232106 -0.649757 -0.2691382 -0.7109012 0 0 -1 0.6497567 0.2691382 -0.7109014 0.8986489 0.3722327 -0.2321058 0.7716872 0.5921366 0.232106 0.557959 0.4281371 0.7109012 0 0 1 -0.557959 -0.428137 0.7109012 -0.7716872 -0.5921365 0.232106 -0.7716872 -0.5921366 -0.232106 -0.557959 -0.428137 -0.7109012 0 0 -1 0.557959 0.428137 -0.7109012 0.7716872 0.5921366 -0.232106 0.5921365 0.7716873 0.2321058 0.428137 0.5579588 0.7109013 0 0 1 -0.428137 -0.557959 0.7109012 -0.5921365 -0.7716873 0.232106 -0.5921364 -0.7716873 -0.232106 -0.428137 -0.557959 -0.7109012 0 0 -1 0.428137 0.5579588 -0.7109013 0.5921365 0.7716873 -0.2321057 0.3722324 0.8986489 0.232106 0.2691382 0.649757 0.7109013 0 0 1 -0.2691382 -0.649757 0.7109012 -0.3722326 -0.8986488 0.2321061 -0.3722326 -0.8986489 -0.232106 -0.2691381 -0.6497569 -0.7109012 0 0 -1 0.2691382 0.649757 -0.7109012 0.3722324 0.8986489 -0.232106 0.1269616 0.964369 0.2321058 0.09179794 0.6972749 0.7109014 0 0 1 -0.09179806 -0.6972751 0.7109012 -0.1269615 -0.9643689 0.232106 -0.1269616 -0.964369 -0.232106 -0.09179794 -0.6972752 -0.7109012 0 0 -1 0.09179806 0.6972749 -0.7109014 0.1269615 0.9643691 -0.2321058 -0.1269614 0.9643691 0.2321059 -0.09179788 0.6972751 0.7109013 0 0 1 0.09179794 -0.6972751 0.7109013 0.1269615 -0.9643691 0.2321059 0.1269614 -0.9643691 -0.2321059 0.09179794 -0.6972751 -0.7109013 0 0 -1 -0.09179788 0.6972751 -0.7109013 -0.1269614 0.9643691 -0.2321059 -0.3722323 0.8986489 0.2321062 -0.2691381 0.649757 0.7109012 0 0 1 0.269138 -0.6497568 0.7109014 0.3722326 -0.8986489 0.2321058 0.3722326 -0.8986489 -0.2321058 0.269138 -0.6497568 -0.7109014 0 0 -1 -0.2691381 0.649757 -0.7109012 -0.3722323 0.8986489 -0.2321062 -0.5921366 0.7716872 0.232106 -0.4281369 0.5579587 0.7109014 0 0 1 0.4281371 -0.5579589 0.7109013 0.5921366 -0.7716872 0.232106 0.5921366 -0.7716872 -0.232106 0.428137 -0.5579588 -0.7109013 0 0 -1 -0.4281369 0.5579588 -0.7109014 -0.5921365 0.7716872 -0.232106 -0.7716872 0.5921364 0.2321061 -0.5579589 0.428137 0.7109013 0 0 1 0.5579589 -0.4281369 0.7109013 0.7716873 -0.5921365 0.2321059 0.7716872 -0.5921365 -0.2321059 0.5579589 -0.4281369 -0.7109013 0 0 -1 -0.5579589 0.428137 -0.7109013 -0.7716873 0.5921364 -0.232106 -0.8986489 0.3722327 0.2321057 -0.6497567 0.2691382 0.7109015 0 0 1 0.649757 -0.2691382 0.7109012 0.8986487 -0.3722327 0.232106 0.8986487 -0.3722327 -0.232106 0.6497571 -0.2691382 -0.7109012 0 0 -1 -0.6497567 0.2691382 -0.7109014 -0.8986488 0.3722327 -0.2321057 -0.9643689 0.1269616 0.2321062 -0.6972752 0.09179806 0.7109012 0 0 1 0.6972749 -0.09179782 0.7109014 0.9643691 -0.1269616 0.2321058 0.9643691 -0.1269615 -0.2321058 0.697275 -0.09179782 -0.7109014 0 0 -1 -0.6972752 0.09179806 -0.7109012 -0.9643689 0.1269616 -0.2321062 -0.9643691 -0.1269614 0.2321059 -0.6972751 -0.09179788 0.7109013 0 0 1 0.6972751 0.09179782 0.7109013 0.9643691 0.1269615 0.2321059 0.9643691 0.1269614 -0.2321059 0.6972751 0.09179794 -0.7109013 0 0 -1 -0.6972751 -0.09179788 -0.7109013 -0.9643691 -0.1269614 -0.2321059 -0.8986489 -0.3722323 0.2321062 -0.6497571 -0.269138 0.7109012 0 0 1 0.6497568 0.269138 0.7109014 0.8986489 0.3722326 0.2321058 0.8986489 0.3722326 -0.2321058 0.6497568 0.269138 -0.7109014 0 0 -1 -0.6497571 -0.269138 -0.7109012 -0.8986489 -0.3722323 -0.2321062 -0.7716874 -0.5921363 0.232106 -0.557959 -0.4281368 0.7109014 0 0 1 0.557959 0.4281368 0.7109012 0.7716873 0.5921363 0.232106 0.7716873 0.5921364 -0.232106 0.5579591 0.4281369 -0.7109013 0 0 -1 -0.557959 -0.4281368 -0.7109014 -0.7716874 -0.5921363 -0.2321061 -0.5921366 -0.7716872 0.232106 -0.4281369 -0.5579589 0.7109013 0 0 1 0.428137 0.5579588 0.7109013 0.5921365 0.7716872 0.2321059 0.5921365 0.7716872 -0.2321059 0.428137 0.5579588 -0.7109013 0 0 -1 -0.4281369 -0.5579588 -0.7109013 -0.5921366 -0.7716872 -0.232106 -0.3722324 -0.8986488 0.232106 -0.2691383 -0.6497567 0.7109014 0 0 1 0.269138 0.6497569 0.7109013 0.3722326 0.8986488 0.232106 0.3722327 0.8986487 -0.2321061 0.269138 0.6497569 -0.7109013 0 0 -1 -0.2691383 -0.6497567 -0.7109015 -0.3722324 -0.8986489 -0.232106 -0.1269617 -0.964369 0.2321058 -0.09179806 -0.6972752 0.7109012 0 0 1 0.09179818 0.6972752 0.7109012 0.1269617 0.964369 0.2321058 0.1269617 0.964369 -0.2321058 0.09179818 0.6972751 -0.7109013 0 0 -1 -0.091798 -0.6972752 -0.7109012 -0.1269617 -0.964369 -0.2321058 0.1269613 -0.9643691 0.2321059 0.09179794 -0.6972751 0.7109012 0 0 1 -0.09179794 0.697275 0.7109013 -0.1269613 0.9643691 0.2321059 -0.1269614 0.964369 -0.2321059 -0.09179776 0.6972751 -0.7109013 0 0 -1 0.09179794 -0.6972751 -0.7109012 0.1269613 -0.9643691 -0.2321059 0.3722322 -0.898649 0.2321062 0.2691379 -0.6497572 0.7109012 0 0 1 -0.269138 0.6497571 0.7109012 -0.3722323 0.898649 0.232106 -0.3722323 0.8986489 -0.2321059 -0.269138 0.6497571 -0.7109012 0 0 -1 0.2691379 -0.6497571 -0.7109011 0.3722322 -0.898649 -0.2321062 0.5921363 -0.7716874 0.232106 0.4281368 -0.557959 0.7109013 0 0 1 -0.4281368 0.557959 0.7109012 -0.5921362 0.7716873 0.232106 -0.5921362 0.7716876 -0.2321061 -0.4281368 0.5579591 -0.7109012 0 0 -1 0.4281369 -0.557959 -0.7109012 0.5921363 -0.7716874 -0.232106 0.771687 -0.5921366 0.232106 0.5579589 -0.4281371 0.7109013 0 0 1 -0.5579589 0.4281371 0.7109013 -0.7716872 0.5921366 0.2321059 -0.7716872 0.5921366 -0.2321059 -0.5579589 0.4281371 -0.7109013 0 0 -1 0.5579589 -0.4281371 -0.7109013 0.7716871 -0.5921366 -0.232106 0.8986489 -0.3722324 0.232106 0.6497571 -0.269138 0.7109012 0 0 1 -0.649757 0.269138 0.7109012 -0.8986489 0.3722323 0.232106 -0.8986489 0.3722323 -0.232106 -0.649757 0.269138 -0.7109012 0 0 -1 0.649757 -0.269138 -0.7109012 0.8986489 -0.3722324 -0.232106 0.9643689 -0.1269616 0.2321062 0.6972752 -0.09179794 0.7109012 0 0 1 -0.6972749 0.09179794 0.7109014 -0.964369 0.1269616 0.2321058 -0.964369 0.1269616 -0.2321058 -0.6972749 0.091798 -0.7109014 0 0 -1 0.6972752 -0.09179794 -0.7109013 0.9643689 -0.1269616 -0.2321062 0.9643691 0.1269615 0.2321058 0.6972749 0.09179806 0.7109014 0 0 1 -0.6972752 -0.09179794 0.7109012 -0.964369 -0.1269616 0.232106 -0.9643691 -0.1269615 -0.232106 -0.6972752 -0.09179806 -0.7109012 0 0 -1 0.6972749 0.09179806 -0.7109014 0.9643691 0.1269615 -0.2321058 0.8986488 0.3722327 0.2321061 0.649757 0.2691381 0.7109012 0 0 1 -0.649757 -0.2691382 0.7109013 -0.8986488 -0.3722326 0.232106 -0.8986488 -0.3722326 -0.232106 -0.649757 -0.2691382 -0.7109013 0 0 -1 0.649757 0.2691381 -0.7109012 0.8986488 0.3722326 -0.232106 0.7716873 0.5921365 0.2321057 0.5579589 0.428137 0.7109013 0 0 1 -0.557959 -0.428137 0.7109013 -0.7716872 -0.5921365 0.232106 -0.7716872 -0.5921365 -0.232106 -0.557959 -0.428137 -0.7109013 0 0 -1 0.5579589 0.428137 -0.7109013 0.7716873 0.5921365 -0.2321057 0.5921366 0.7716872 0.232106 0.428137 0.557959 0.7109012 0 0 1 -0.428137 -0.557959 0.7109012 -0.5921364 -0.7716872 0.232106 -0.5921364 -0.7716872 -0.232106 -0.4281369 -0.557959 -0.7109012 0 0 -1 0.428137 0.557959 -0.7109012 0.5921366 0.7716872 -0.232106 0.3722326 0.8986489 0.2321058 0.2691379 0.6497569 0.7109014 0 0 1 -0.2691382 -0.649757 0.7109012 -0.3722325 -0.8986488 0.232106 -0.3722325 -0.8986488 -0.232106 -0.2691382 -0.649757 -0.7109012 0 0 -1 0.2691379 0.6497569 -0.7109014 0.3722326 0.8986489 -0.2321058 0.1269615 0.9643691 0.2321059 0.09179806 0.6972751 0.7109013 0 0 1 -0.09179794 -0.6972751 0.7109013 -0.1269616 -0.964369 0.2321059 -0.1269615 -0.9643691 -0.2321059 -0.09179806 -0.6972751 -0.7109013 0 0 -1 0.09179794 0.6972751 -0.7109013 0.1269616 0.964369 -0.2321059 -0.1269615 0.9643689 0.2321062 -0.091798 0.6972752 0.7109012 0 0 1 0.09179776 -0.6972749 0.7109014 0.1269614 -0.9643691 0.2321058 0.1269615 -0.9643691 -0.2321058 0.09179776 -0.6972749 -0.7109014 0 0 -1 -0.091798 0.6972752 -0.7109012 -0.1269615 0.9643689 -0.2321062 -0.3722323 0.898649 0.232106 -0.2691379 0.6497569 0.7109014 0 0 1 0.269138 -0.649757 0.7109013 0.3722323 -0.8986489 0.232106 0.3722323 -0.8986489 -0.232106 0.269138 -0.649757 -0.7109013 0 0 -1 -0.2691379 0.6497569 -0.7109014 -0.3722323 0.898649 -0.232106 -0.5921366 0.7716872 0.232106 -0.4281369 0.5579589 0.7109013 0 0 1 0.428137 -0.5579588 0.7109013 0.5921365 -0.7716872 0.2321059 0.5921365 -0.7716872 -0.2321059 0.428137 -0.5579588 -0.7109013 0 0 -1 -0.4281369 0.5579589 -0.7109013 -0.5921366 0.7716872 -0.232106 -0.7716872 0.5921366 0.2321058 -0.5579588 0.4281368 0.7109014 0 0 1 0.5579589 -0.4281371 0.7109012 0.7716872 -0.5921366 0.232106 0.7716872 -0.5921366 -0.232106 0.5579589 -0.4281371 -0.7109012 0 0 -1 -0.5579588 0.4281368 -0.7109014 -0.7716872 0.5921366 -0.2321058 -0.8986489 0.3722324 0.2321062 -0.649757 0.2691381 0.7109012 0 0 1 0.6497567 -0.2691383 0.7109014 0.8986489 -0.3722325 0.2321058 0.8986489 -0.3722325 -0.2321058 0.6497567 -0.2691383 -0.7109014 0 0 -1 -0.649757 0.2691381 -0.7109012 -0.8986489 0.3722324 -0.2321062 -0.9643691 0.1269614 0.2321059 -0.6972751 0.09179794 0.7109013 0 0 1 0.6972751 -0.091798 0.7109013 0.9643689 -0.1269614 0.2321059 0.9643689 -0.1269614 -0.2321059 0.6972751 -0.091798 -0.7109013 0 0 -1 -0.6972751 0.09179794 -0.7109013 -0.9643691 0.1269614 -0.2321059 -0.9643689 -0.1269615 0.2321062 -0.6972751 -0.09179794 0.7109012 0 0 1 0.6972749 0.09179788 0.7109014 0.9643691 0.1269614 0.2321058 0.9643691 0.1269615 -0.2321058 0.697275 0.09179776 -0.7109014 0 0 -1 -0.6972751 -0.09179794 -0.7109012 -0.9643689 -0.1269615 -0.2321062 -0.8986489 -0.3722323 0.232106 -0.6497568 -0.269138 0.7109014 0 0 1 0.649757 0.269138 0.7109013 0.8986489 0.3722323 0.232106 0.8986489 0.3722323 -0.232106 0.649757 0.269138 -0.7109013 0 0 -1 -0.6497568 -0.269138 -0.7109014 -0.8986489 -0.3722323 -0.232106 -0.7716873 -0.5921363 0.2321061 -0.557959 -0.4281368 0.7109013 0 0 1 0.557959 0.4281369 0.7109013 0.7716874 0.5921363 0.2321059 0.7716874 0.5921363 -0.2321059 0.557959 0.4281369 -0.7109013 0 0 -1 -0.557959 -0.4281368 -0.7109013 -0.7716873 -0.5921363 -0.2321061 -0.5921366 -0.7716872 0.232106 -0.4281369 -0.5579588 0.7109014 0 0 1 0.4281371 0.5579589 0.7109013 0.5921366 0.7716872 0.232106 0.5921366 0.7716872 -0.232106 0.4281371 0.5579589 -0.7109013 0 0 -1 -0.4281369 -0.5579588 -0.7109014 -0.5921366 -0.7716872 -0.232106 -0.3722326 -0.8986489 0.2321059 -0.2691382 -0.6497569 0.7109012 0 0 1 0.2691382 0.6497569 0.7109013 0.3722327 0.8986487 0.2321058 0.3722326 0.8986488 -0.2321058 0.2691382 0.6497569 -0.7109013 0 0 -1 -0.2691382 -0.6497569 -0.7109012 -0.3722326 -0.8986489 -0.2321059 -0.1269616 -0.964369 0.2321059 -0.09179794 -0.6972751 0.7109013 0 0 1 0.09179806 0.6972751 0.7109013 0.1269616 0.9643691 0.2321059 0.1269616 0.9643691 -0.2321059 0.09179806 0.6972751 -0.7109013 0 0 -1 -0.09179794 -0.6972751 -0.7109013 -0.1269616 -0.964369 -0.2321059 0.1269615 -0.964369 0.2321062 0.09179782 -0.6972752 0.7109012 0 0 1 -0.09179782 0.6972752 0.7109012 -0.1269614 0.964369 0.232106 -0.1269613 0.964369 -0.232106 -0.09179794 0.6972752 -0.7109012 0 0 -1 0.09179782 -0.6972752 -0.7109012 0.1269615 -0.964369 -0.2321062 0.3722321 -0.898649 0.232106 0.2691379 -0.6497572 0.7109012 0 0 1 -0.2691379 0.6497571 0.7109012 -0.3722323 0.8986489 0.232106 -0.3722323 0.8986489 -0.232106 -0.2691379 0.6497571 -0.7109012 0 0 -1 0.2691379 -0.6497572 -0.7109012 0.3722321 -0.898649 -0.232106 0.5921363 -0.7716874 0.232106 0.4281369 -0.557959 0.7109013 0 0 1 -0.4281367 0.557959 0.7109013 -0.5921362 0.7716876 0.2321059 -0.5921362 0.7716874 -0.2321059 -0.4281367 0.557959 -0.7109013 0 0 -1 0.4281368 -0.557959 -0.7109014 0.5921363 -0.7716874 -0.232106 0.7716871 -0.5921366 0.232106 0.5579589 -0.4281371 0.7109012 0 0 1 -0.5579589 0.4281371 0.7109012 -0.771687 0.5921367 0.232106 -0.771687 0.5921367 -0.232106 -0.5579589 0.4281371 -0.7109012 0 0 -1 0.5579589 -0.4281371 -0.7109012 0.7716871 -0.5921366 -0.232106 0.8986488 -0.3722325 0.2321062 0.649757 -0.2691381 0.7109012 0 0 1 -0.6497569 0.2691381 0.7109014 -0.8986489 0.3722326 0.2321058 -0.8986489 0.3722326 -0.2321058 -0.6497569 0.2691381 -0.7109014 0 0 -1 0.649757 -0.2691381 -0.7109012 0.8986488 -0.3722325 -0.2321062 0.9643691 -0.1269615 0.2321059 0.697275 -0.09179806 0.7109013 0 0 1 -0.6972751 0.09179788 0.7109013 -0.9643691 0.1269615 0.2321059 -0.9643691 0.1269615 -0.2321059 -0.6972751 0.09179788 -0.7109013 0 0 -1 0.697275 -0.09179806 -0.7109013 0.9643691 -0.1269615 -0.2321059</float_array>
          <technique_common>
            <accessor source="#Torus-mesh-normals-array" count="480" stride="3">
              <param name="X" type="float"/>
              <param name="Y" type="float"/>
              <param name="Z" type="float"/>
            </accessor>
          </technique_common>
        </source>
        <source id="Torus-mesh-map-0">
          <float_array id="Torus-mesh-map-0-array" count="2880">0.6899902 0.9329032 0.6551703 0.8774906 0.6970862 0.8835291 0.4172086 0.4647517 0.4441494 0.4013999 0.4647517 0.4172086 0.4013999 0.4441493 0.4186835 0.3818593 0.4441494 0.4013999 0.3818593 0.4186835 0.3980813 0.3660506 0.4186835 0.3818593 0.8770502 0.5084958 0.9205794 0.5473953 0.8810468 0.5406078 0.9168112 0.5171189 0.962602 0.5421509 0.9205794 0.5473953 0.6087843 0.1547842 0.6250063 0.1021512 0.640815 0.1227535 0.6250063 0.1021512 0.5627162 0.1194349 0.6054657 0.07668536 0.6054657 0.07668536 0.5421139 0.1036262 0.5896569 0.05608308 0.525486 0.9250338 0.5742347 0.8835291 0.5671387 0.9329032 0.5792523 0.8230584 0.6138886 0.8774907 0.5742347 0.8835291 0.3589804 0.4983697 0.4013999 0.4441493 0.4172086 0.4647517 0.4013999 0.4441493 0.3367589 0.4447222 0.3818593 0.4186835 0.3818593 0.4186835 0.3268212 0.4207304 0.3660506 0.3980813 0.3847251 0.7299655 0.4211239 0.7631565 0.38147 0.769195 0.4211239 0.7631565 0.4662949 0.7299655 0.4630398 0.769195 0.5861352 0.1940136 0.588182 0.1389755 0.6087843 0.1547842 0.5621433 0.1840758 0.5627162 0.1194349 0.588182 0.1389755 0.5627162 0.1194349 0.5084958 0.1618544 0.5421139 0.1036262 0.5371504 0.8192625 0.5742347 0.8835291 0.5323188 0.8774907 0.5818496 0.7556122 0.6187202 0.8192625 0.5792523 0.8230584 0.3589804 0.4983697 0.2906458 0.4900252 0.3490427 0.4743778 0.2906458 0.4900252 0.3367589 0.4447222 0.3490427 0.4743778 0.3367589 0.4447222 0.2830665 0.4324544 0.3268212 0.4207304 0.3864101 0.6862108 0.424193 0.7261697 0.3847251 0.7299655 0.424193 0.7261697 0.4679799 0.6862108 0.4662949 0.7299655 0.4679799 0.6862108 0.4949494 0.7399033 0.4662949 0.7299655 0.5621433 0.1840758 0.5168403 0.230189 0.5324877 0.1717922 0.5107446 0.7509279 0.5371504 0.8192625 0.5084958 0.8093248 0.5371504 0.8192625 0.5818496 0.7556122 0.5792523 0.8230584 0.5818496 0.7556122 0.6212211 0.6870814 0.6212211 0.7543175 0.2940354 0.5157717 0.2301889 0.4900252 0.2906458 0.4900252 0.2906458 0.4900252 0.2343786 0.4582008 0.2864561 0.4582008 0.2343786 0.4582008 0.2830665 0.4324544 0.2864561 0.4582008 0.3864101 0.6862108 0.4257816 0.6422073 0.4257816 0.6849161 0.4257816 0.6422073 0.4679799 0.6862108 0.4257816 0.6849161 0.4679799 0.6409126 0.4968866 0.6896004 0.4679799 0.6862108 0.5486648 0.2864561 0.5168403 0.230189 0.5486647 0.2343788 0.5107446 0.690471 0.5396513 0.7543175 0.5107446 0.7509279 0.5396513 0.6870814 0.5818496 0.7556122 0.5396513 0.7543175 0.5792523 0.6183405 0.6212211 0.6870814 0.5818496 0.6857867 0.1618543 0.4983697 0.2301889 0.4900252 0.2267993 0.5157717 0.171792 0.4743778 0.2343786 0.4582008 0.2301889 0.4900252 0.1840758 0.4447222 0.2377682 0.4324544 0.2343786 0.4582008 0.3864101 0.6409126 0.424193 0.6009538 0.4257816 0.6422073 0.424193 0.6009538 0.4679799 0.6409126 0.4257816 0.6422073 0.4679799 0.6409126 0.4949495 0.5872201 0.4968866 0.637523 0.5486648 0.2864561 0.5324878 0.3490428 0.5168403 0.2906459 0.5107446 0.690471 0.5371503 0.6221364 0.5396513 0.6870814 0.5396513 0.6870814 0.5792523 0.6183405 0.5818496 0.6857867 0.5742347 0.5578699 0.6187201 0.6221364 0.5792523 0.6183405 0.1036261 0.4647517 0.171792 0.4743778 0.1618543 0.4983697 0.171792 0.4743778 0.1389755 0.4186835 0.1840758 0.4447222 0.1389755 0.4186835 0.1940135 0.4207304 0.1840758 0.4447222 0.38147 0.5579285 0.424193 0.6009538 0.3847251 0.5971579 0.4211239 0.5639669 0.4662949 0.5971579 0.424193 0.6009538 0.6087843 0.3660506 0.5621434 0.336759 0.5861352 0.3268213 0.588182 0.3818593 0.5324878 0.3490428 0.5621434 0.336759 0.5627162 0.4014 0.5084959 0.3589805 0.5324878 0.3490428 0.5323188 0.5639082 0.5792523 0.6183405 0.5371503 0.6221364 0.5671387 0.5084958 0.6138886 0.5639082 0.5742347 0.5578699 0.1036261 0.4647517 0.07668536 0.4013999 0.1194348 0.4441494 0.1194348 0.4441494 0.1021512 0.3818593 0.1389755 0.4186835 0.1389755 0.4186835 0.1227535 0.3660506 0.1547842 0.3980813 0.3374972 0.5579285 0.2912411 0.5337672 0.3328937 0.5258978 0.4167837 0.5337672 0.4630398 0.5579285 0.4211239 0.5639669 0.640815 0.3980813 0.588182 0.3818593 0.6087843 0.3660506 0.6250063 0.4186836 0.5627162 0.4014 0.588182 0.3818593 0.6054657 0.4441494 0.5421139 0.4172087 0.5627162 0.4014 0.5323188 0.5639082 0.5671387 0.5084958 0.5742347 0.5578699 0.7961675 0.5689664 0.7615312 0.5145342 0.8011851 0.5084958 0.05608308 0.4172086 0.04645693 0.3490427 0.07668536 0.4013999 0.04645693 0.3490427 0.1021512 0.3818593 0.07668536 0.4013999 0.0761125 0.3367589 0.1227535 0.3660506 0.1021512 0.3818593 0.3374972 0.5579285 0.2986503 0.6009538 0.2955813 0.5639668 0.2986503 0.6009538 0.2559273 0.5579285 0.2955813 0.5639668 0.640815 0.3980813 0.6701067 0.4447222 0.6250063 0.4186836 0.6250063 0.4186836 0.6578229 0.4743779 0.6054657 0.4441494 0.6578229 0.4743779 0.589657 0.4647517 0.6054657 0.4441494 0.843101 0.5145342 0.7961675 0.5689664 0.8011851 0.5084958 0.7961675 0.5689664 0.7541987 0.6377074 0.7566997 0.5727623 0.005063056 0.2940353 0.04645693 0.3490427 0.02246505 0.3589805 0.04645693 0.3490427 0.06263387 0.286456 0.0761125 0.3367589 0.3713439 0.637523 0.3407523 0.5971578 0.3694068 0.5872201 0.3424372 0.6409126 0.2986503 0.6009538 0.3407523 0.5971578 0.2986503 0.6009538 0.2608674 0.6409126 0.2591825 0.5971578 0.6800444 0.4207304 0.7204096 0.4582009 0.6701067 0.4447222 0.7204096 0.4582009 0.6578229 0.4743779 0.6701067 0.4447222 0.866924 0.5827001 0.8357685 0.6377075 0.8382695 0.5727623 0.8357685 0.6377075 0.7961675 0.5689664 0.8382695 0.5727623 0.7935702 0.7062381 0.7541987 0.6377074 0.7935702 0.6364127 0.005063056 0.2267993 0.03080952 0.2906457 0.005063056 0.2940353 0.03080952 0.2906457 0.06263387 0.2343787 0.06263387 0.286456 0.3713439 0.6896003 0.3424372 0.6409126 0.3713439 0.637523 0.3424372 0.6409126 0.300239 0.684916 0.300239 0.6422073 0.300239 0.684916 0.2608674 0.6409126 0.300239 0.6422073 0.7237992 0.4324544 0.7724869 0.4582009 0.7204096 0.4582009 0.7724869 0.4582009 0.7162199 0.4900253 0.7204096 0.4582009 0.8646752 0.6410971 0.8357685 0.7049434 0.8357685 0.6377075 0.8357685 0.6377075 0.7935702 0.7062381 0.7935702 0.6364127 0.7961675 0.7736845 0.7541987 0.7049434 0.7935702 0.7062381 0.005063056 0.2267993 0.04645693 0.171792 0.03080952 0.2301889 0.03080952 0.2301889 0.0761125 0.1840757 0.06263387 0.2343787 0.3713439 0.6896003 0.3407523 0.7299655 0.3424372 0.6862108 0.3424372 0.6862108 0.2986503 0.7261697 0.300239 0.684916 0.2986503 0.7261697 0.2608674 0.6862108 0.300239 0.684916 0.8128521 0.4207304 0.7724869 0.4582009 0.7690973 0.4324544 0.8227899 0.4447222 0.7766767 0.4900252 0.7724869 0.4582009 0.866924 0.7599508 0.8357685 0.7049434 0.8646752 0.7015538 0.8357685 0.7049434 0.7961675 0.7736845 0.7935702 0.7062381 0.7961675 0.7736845 0.7615312 0.8281166 0.7566997 0.7698885 0.05608308 0.1036261 0.04645693 0.171792 0.02246505 0.1618542 0.07668536 0.1194348 0.0761125 0.1840757 0.04645693 0.171792 0.1021512 0.1389755 0.1001044 0.1940135 0.0761125 0.1840757 0.3374972 0.7691949 0.2986503 0.7261697 0.3407523 0.7299655 0.2986503 0.7261697 0.2559274 0.7691949 0.2591825 0.7299655 0.8128521 0.4207304 0.8678901 0.4186835 0.8227899 0.4447222 0.8227899 0.4447222 0.8874308 0.4441494 0.8350736 0.4743778 0.8350736 0.4743778 0.9032395 0.4647517 0.8450114 0.4983697 0.843101 0.8281167 0.7961675 0.7736845 0.8382695 0.7698885 0.8082811 0.8835291 0.7615312 0.8281166 0.8011851 0.834155 0.05608308 0.1036261 0.1194348 0.0766853 0.07668536 0.1194348 0.07668536 0.1194348 0.1389755 0.1021512 0.1021512 0.1389755 0.1389755 0.1021512 0.1227535 0.1547842 0.1021512 0.1389755 0.3328938 0.8012256 0.2955813 0.7631565 0.3374972 0.7691949 0.1676755 0.7639514 0.2042611 0.8027195 0.1627647 0.7940635 0.8841121 0.3660506 0.8678901 0.4186835 0.8520814 0.3980813 0.9047144 0.3818593 0.8874308 0.4441494 0.8678901 0.4186835 0.9301803 0.4013999 0.9032395 0.4647517 0.8874308 0.4441494 0.843101 0.8281167 0.8082811 0.8835291 0.8011851 0.834155 0.04703187 0.5863685 0.01239556 0.5319362 0.05204951 0.5258978 0.1618542 0.02246499 0.1194348 0.0766853 0.1036261 0.05608302 0.171792 0.04645687 0.1389755 0.1021512 0.1194348 0.0766853 0.1840758 0.0761125 0.1547842 0.1227535 0.1389755 0.1021512 0.1279144 0.7692385 0.1714437 0.7270292 0.1676755 0.7639514 0.1714437 0.7270292 0.2094697 0.7707816 0.1676755 0.7639514 0.8841121 0.3660506 0.9307531 0.336759 0.9047144 0.3818593 0.9307531 0.336759 0.9301803 0.4013999 0.9047144 0.3818593 0.9301803 0.4013999 0.9844006 0.3589805 0.9507825 0.4172086 0.09396535 0.5319362 0.04703187 0.5863685 0.05204951 0.5258978 0.04443454 0.6538147 0.007564008 0.5901644 0.04703187 0.5863685 0.1618542 0.02246499 0.2301889 0.03080946 0.171792 0.04645687 0.2301889 0.03080946 0.1840758 0.0761125 0.171792 0.04645687 0.2343786 0.06263387 0.1940135 0.1001043 0.1840758 0.0761125 0.1344235 0.6863628 0.1714437 0.7270292 0.1319111 0.7300778 0.1714437 0.7270292 0.2159787 0.6879059 0.2134663 0.7316209 0.2134663 0.7316209 0.2448161 0.6918417 0.2419277 0.7420989 0.9307531 0.336759 0.976056 0.2906458 0.9604087 0.3490427 0.1155395 0.658499 0.08913385 0.5901644 0.1177884 0.6001021 0.08913385 0.5901644 0.04443454 0.6538147 0.04703187 0.5863685 0.04443454 0.7236403 0.005063056 0.6551094 0.04443454 0.6538147 0.2267993 0.005062997 0.2906459 0.03080946 0.2301889 0.03080946 0.2906459 0.03080946 0.2343786 0.06263387 0.2301889 0.03080946 0.2343786 0.06263387 0.2830665 0.08838033 0.2377682 0.08838033 0.1344235 0.6863628 0.1746204 0.6431118 0.1738125 0.6858131 0.1746204 0.6431118 0.2159787 0.6879059 0.1738125 0.6858131 0.2168356 0.6426157 0.2448161 0.6918417 0.2159787 0.6879059 0.9442317 0.2864561 0.976056 0.2301888 0.976056 0.2906458 0.1155395 0.718956 0.08663284 0.6551094 0.1155395 0.658499 0.08663284 0.6551094 0.04443454 0.7236403 0.04443454 0.6538147 0.04703187 0.7910864 0.005062997 0.7223456 0.04443454 0.7236403 0.2940355 0.005062997 0.3490427 0.04645681 0.2906459 0.03080946 0.2906459 0.03080946 0.3367589 0.07611244 0.2864561 0.06263387 0.3367589 0.07611244 0.2830665 0.08838033 0.2864561 0.06263387 0.1344235 0.5972939 0.1746204 0.6431118 0.1352804 0.6410726 0.1738125 0.6018357 0.2168356 0.6426157 0.1746204 0.6431118 0.2168356 0.6426157 0.2448161 0.5894431 0.2458013 0.6397735 0.9307531 0.1840758 0.976056 0.2301888 0.9442317 0.2343786 0.1177883 0.7773528 0.08663284 0.7223456 0.1155395 0.718956 0.08663284 0.7223456 0.04703187 0.7910864 0.04443454 0.7236403 0.05204945 0.8515572 0.007564008 0.7872905 0.04703187 0.7910864 0.4172086 0.05608302 0.3490427 0.04645681 0.3589804 0.02246493 0.3490427 0.04645681 0.3818593 0.1021512 0.3367589 0.07611244 0.3818593 0.1021512 0.3268212 0.1001043 0.3367589 0.07611244 0.1319111 0.5580099 0.1738125 0.6018357 0.1344235 0.5972939 0.1738125 0.6018357 0.2134663 0.559553 0.2159787 0.598837 0.9067612 0.1940135 0.9047144 0.1389754 0.9307531 0.1840758 0.9047144 0.1389754 0.9604087 0.171792 0.9307531 0.1840758 0.9604087 0.171792 0.9507825 0.1036261 0.9844006 0.1618543 0.08913379 0.7872905 0.05204945 0.8515572 0.04703187 0.7910864 0.6970862 0.5578697 0.6483376 0.5163651 0.6899903 0.5084958 0.4647516 0.103626 0.4013999 0.07668536 0.4172086 0.05608302 0.4441493 0.1194347 0.3818593 0.1021512 0.4013999 0.07668536 0.4186835 0.1389754 0.3660506 0.1227535 0.3818593 0.1021512 0.1279144 0.5258979 0.1714437 0.5647974 0.1319111 0.5580099 0.1676755 0.5345211 0.2134663 0.559553 0.1714437 0.5647974 0.8520815 0.1227535 0.9047144 0.1389754 0.8841121 0.1547841 0.8678901 0.1021512 0.9301802 0.1194348 0.9047144 0.1389754 0.9301802 0.1194348 0.9032395 0.05608308 0.9507825 0.1036261 0.09396535 0.8455188 0.05914539 0.9009312 0.05204945 0.8515572 0.7021038 0.6183404 0.6551703 0.5639081 0.6970862 0.5578697 0.4647516 0.103626 0.4743779 0.171792 0.4441493 0.1194347 0.4743779 0.171792 0.4186835 0.1389754 0.4441493 0.1194347 0.4186835 0.1389754 0.4207304 0.1940135 0.3980812 0.154784 0.8810468 0.7126756 0.9168112 0.7465493 0.8770502 0.7518365 0.9168112 0.7465493 0.962602 0.7142187 0.9586054 0.7533796 0.812852 0.1001044 0.8678901 0.1021512 0.8520815 0.1227535 0.8227897 0.0761125 0.8874308 0.07668536 0.8678901 0.1021512 0.8350735 0.04645687 0.9032395 0.05608308 0.8874308 0.07668536 0.7367401 0.5639081 0.7021038 0.6183404 0.6970862 0.5578697 0.7047011 0.6857866 0.6600019 0.6221364 0.7021038 0.6183404 0.6625028 0.6870813 0.6313474 0.6320741 0.6600019 0.6221364 0.4900252 0.2301888 0.4447222 0.1840758 0.4743779 0.171792 0.4447222 0.1840758 0.4324544 0.2377681 0.4207304 0.1940135 0.8835592 0.6689607 0.9205794 0.709627 0.8810468 0.7126756 0.9229482 0.668411 0.962602 0.7142187 0.9205794 0.709627 0.9651144 0.6705038 0.9910634 0.7246968 0.962602 0.7142187 0.8227897 0.0761125 0.7766767 0.03080952 0.8350735 0.04645687 0.7766767 0.03080952 0.8450112 0.02246499 0.8350735 0.04645687 0.7415717 0.6221364 0.7047011 0.6857866 0.7021038 0.6183404 0.7047011 0.7556121 0.6625028 0.6870813 0.7047011 0.6857866 0.6625028 0.7543175 0.6335962 0.6904709 0.6625028 0.6870813 0.4900252 0.2906458 0.4582009 0.2343785 0.4900252 0.2301888 0.4582009 0.286456 0.4324544 0.2377681 0.4582009 0.2343785 0.8835592 0.6689607 0.9237561 0.6257098 0.9229482 0.668411 0.9237561 0.6257098 0.9651144 0.6705038 0.9229482 0.668411 0.9651144 0.6705038 0.994937 0.6223715 0.9939518 0.6744396 0.7724869 0.06263387 0.7162197 0.03080952 0.7766767 0.03080952 0.7766767 0.03080952 0.7128301 0.005063056 0.7800663 0.005063056 0.7440727 0.6870813 0.7047011 0.7556121 0.7047011 0.6857866 0.7047011 0.7556121 0.6600019 0.8192626 0.6625028 0.7543175 0.6600019 0.8192626 0.6335961 0.7509279 0.6625028 0.7543175 0.4743778 0.3490427 0.4582009 0.286456 0.4900252 0.2906458 0.4582009 0.286456 0.4207304 0.3268212 0.4324544 0.2830665 0.8835592 0.5798918 0.9237561 0.6257098 0.8844161 0.6236705 0.9237561 0.6257098 0.9651144 0.5814348 0.9659713 0.6252136 0.9651144 0.5814348 0.994937 0.6223715 0.9659713 0.6252136 0.7204095 0.06263393 0.6578228 0.04645693 0.7162197 0.03080952 0.7162197 0.03080952 0.647885 0.0224651 0.7128301 0.005063056 0.7415717 0.8192626 0.7047011 0.7556121 0.7440726 0.7543175 0.7021038 0.8230585 0.6551703 0.8774906 0.6600019 0.8192626 0.4983697 0.3589805 0.4441494 0.4013999 0.4743778 0.3490427 0.4743778 0.3490427 0.4186835 0.3818593 0.4447222 0.336759 0.4447222 0.336759 0.3980813 0.3660506 0.4207304 0.3268212 0.8810468 0.5406078 0.9229482 0.5844336 0.8835592 0.5798918 0.9229482 0.5844336 0.962602 0.5421509 0.9651144 0.5814348 0.640815 0.1227535 0.6701065 0.07611256 0.6800443 0.1001045 0.6250063 0.1021512 0.6578228 0.04645693 0.6701065 0.07611256 0.6054657 0.07668536 0.647885 0.0224651 0.6578228 0.04645693 0.7367401 0.8774907 0.7021038 0.8230585 0.7415717 0.8192626 0.6899902 0.9329032 0.6483375 0.9250338 0.6551703 0.8774906 0.4172086 0.4647517 0.4013999 0.4441493 0.4441494 0.4013999 0.4013999 0.4441493 0.3818593 0.4186835 0.4186835 0.3818593 0.3818593 0.4186835 0.3660506 0.3980813 0.3980813 0.3660506 0.8770502 0.5084958 0.9168112 0.5171189 0.9205794 0.5473953 0.9168112 0.5171189 0.9586054 0.5100389 0.962602 0.5421509 0.6087843 0.1547842 0.588182 0.1389755 0.6250063 0.1021512 0.6250063 0.1021512 0.588182 0.1389755 0.5627162 0.1194349 0.6054657 0.07668536 0.5627162 0.1194349 0.5421139 0.1036262 0.525486 0.9250338 0.5323188 0.8774907 0.5742347 0.8835291 0.5792523 0.8230584 0.6187202 0.8192625 0.6138886 0.8774907 0.3589804 0.4983697 0.3490427 0.4743778 0.4013999 0.4441493 0.4013999 0.4441493 0.3490427 0.4743778 0.3367589 0.4447222 0.3818593 0.4186835 0.3367589 0.4447222 0.3268212 0.4207304 0.3847251 0.7299655 0.424193 0.7261697 0.4211239 0.7631565 0.4211239 0.7631565 0.424193 0.7261697 0.4662949 0.7299655 0.5861352 0.1940136 0.5621433 0.1840758 0.588182 0.1389755 0.5621433 0.1840758 0.5324877 0.1717922 0.5627162 0.1194349 0.5627162 0.1194349 0.5324877 0.1717922 0.5084958 0.1618544 0.5371504 0.8192625 0.5792523 0.8230584 0.5742347 0.8835291 0.5818496 0.7556122 0.6212211 0.7543175 0.6187202 0.8192625 0.3589804 0.4983697 0.2940354 0.5157717 0.2906458 0.4900252 0.2906458 0.4900252 0.2864561 0.4582008 0.3367589 0.4447222 0.3367589 0.4447222 0.2864561 0.4582008 0.2830665 0.4324544 0.3864101 0.6862108 0.4257816 0.6849161 0.424193 0.7261697 0.424193 0.7261697 0.4257816 0.6849161 0.4679799 0.6862108 0.4679799 0.6862108 0.4968866 0.6896004 0.4949494 0.7399033 0.5621433 0.1840758 0.5486647 0.2343788 0.5168403 0.230189 0.5107446 0.7509279 0.5396513 0.7543175 0.5371504 0.8192625 0.5371504 0.8192625 0.5396513 0.7543175 0.5818496 0.7556122 0.5818496 0.7556122 0.5818496 0.6857867 0.6212211 0.6870814 0.2940354 0.5157717 0.2267993 0.5157717 0.2301889 0.4900252 0.2906458 0.4900252 0.2301889 0.4900252 0.2343786 0.4582008 0.2343786 0.4582008 0.2377682 0.4324544 0.2830665 0.4324544 0.3864101 0.6862108 0.3864101 0.6409126 0.4257816 0.6422073 0.4257816 0.6422073 0.4679799 0.6409126 0.4679799 0.6862108 0.4679799 0.6409126 0.4968866 0.637523 0.4968866 0.6896004 0.5486648 0.2864561 0.5168403 0.2906459 0.5168403 0.230189 0.5107446 0.690471 0.5396513 0.6870814 0.5396513 0.7543175 0.5396513 0.6870814 0.5818496 0.6857867 0.5818496 0.7556122 0.5792523 0.6183405 0.6187201 0.6221364 0.6212211 0.6870814 0.1618543 0.4983697 0.171792 0.4743778 0.2301889 0.4900252 0.171792 0.4743778 0.1840758 0.4447222 0.2343786 0.4582008 0.1840758 0.4447222 0.1940135 0.4207304 0.2377682 0.4324544 0.3864101 0.6409126 0.3847251 0.5971579 0.424193 0.6009538 0.424193 0.6009538 0.4662949 0.5971579 0.4679799 0.6409126 0.4679799 0.6409126 0.4662949 0.5971579 0.4949495 0.5872201 0.5486648 0.2864561 0.5621434 0.336759 0.5324878 0.3490428 0.5107446 0.690471 0.5084958 0.6320741 0.5371503 0.6221364 0.5396513 0.6870814 0.5371503 0.6221364 0.5792523 0.6183405 0.5742347 0.5578699 0.6138886 0.5639082 0.6187201 0.6221364 0.1036261 0.4647517 0.1194348 0.4441494 0.171792 0.4743778 0.171792 0.4743778 0.1194348 0.4441494 0.1389755 0.4186835 0.1389755 0.4186835 0.1547842 0.3980813 0.1940135 0.4207304 0.38147 0.5579285 0.4211239 0.5639669 0.424193 0.6009538 0.4211239 0.5639669 0.4630398 0.5579285 0.4662949 0.5971579 0.6087843 0.3660506 0.588182 0.3818593 0.5621434 0.336759 0.588182 0.3818593 0.5627162 0.4014 0.5324878 0.3490428 0.5627162 0.4014 0.5421139 0.4172087 0.5084959 0.3589805 0.5323188 0.5639082 0.5742347 0.5578699 0.5792523 0.6183405 0.5671387 0.5084958 0.6070558 0.5163652 0.6138886 0.5639082 0.1036261 0.4647517 0.05608308 0.4172086 0.07668536 0.4013999 0.1194348 0.4441494 0.07668536 0.4013999 0.1021512 0.3818593 0.1389755 0.4186835 0.1021512 0.3818593 0.1227535 0.3660506 0.3374972 0.5579285 0.2955813 0.5639668 0.2912411 0.5337672 0.4167837 0.5337672 0.4584364 0.5258979 0.4630398 0.5579285 0.640815 0.3980813 0.6250063 0.4186836 0.588182 0.3818593 0.6250063 0.4186836 0.6054657 0.4441494 0.5627162 0.4014 0.6054657 0.4441494 0.589657 0.4647517 0.5421139 0.4172087 0.5323188 0.5639082 0.525486 0.5163652 0.5671387 0.5084958 0.7961675 0.5689664 0.7566997 0.5727623 0.7615312 0.5145342 0.05608308 0.4172086 0.02246505 0.3589805 0.04645693 0.3490427 0.04645693 0.3490427 0.0761125 0.3367589 0.1021512 0.3818593 0.0761125 0.3367589 0.1001044 0.3268212 0.1227535 0.3660506 0.3374972 0.5579285 0.3407523 0.5971578 0.2986503 0.6009538 0.2986503 0.6009538 0.2591825 0.5971578 0.2559273 0.5579285 0.640815 0.3980813 0.6800444 0.4207304 0.6701067 0.4447222 0.6250063 0.4186836 0.6701067 0.4447222 0.6578229 0.4743779 0.6578229 0.4743779 0.6478852 0.4983698 0.589657 0.4647517 0.843101 0.5145342 0.8382695 0.5727623 0.7961675 0.5689664 0.7961675 0.5689664 0.7935702 0.6364127 0.7541987 0.6377074 0.005063056 0.2940353 0.03080952 0.2906457 0.04645693 0.3490427 0.04645693 0.3490427 0.03080952 0.2906457 0.06263387 0.286456 0.3713439 0.637523 0.3424372 0.6409126 0.3407523 0.5971578 0.3424372 0.6409126 0.300239 0.6422073 0.2986503 0.6009538 0.2986503 0.6009538 0.300239 0.6422073 0.2608674 0.6409126 0.6800444 0.4207304 0.7237992 0.4324544 0.7204096 0.4582009 0.7204096 0.4582009 0.7162199 0.4900253 0.6578229 0.4743779 0.866924 0.5827001 0.8646752 0.6410971 0.8357685 0.6377075 0.8357685 0.6377075 0.7935702 0.6364127 0.7961675 0.5689664 0.7935702 0.7062381 0.7541987 0.7049434 0.7541987 0.6377074 0.005063056 0.2267993 0.03080952 0.2301889 0.03080952 0.2906457 0.03080952 0.2906457 0.03080952 0.2301889 0.06263387 0.2343787 0.3713439 0.6896003 0.3424372 0.6862108 0.3424372 0.6409126 0.3424372 0.6409126 0.3424372 0.6862108 0.300239 0.684916 0.300239 0.684916 0.2608674 0.6862108 0.2608674 0.6409126 0.7237992 0.4324544 0.7690973 0.4324544 0.7724869 0.4582009 0.7724869 0.4582009 0.7766767 0.4900252 0.7162199 0.4900253 0.8646752 0.6410971 0.8646752 0.7015538 0.8357685 0.7049434 0.8357685 0.6377075 0.8357685 0.7049434 0.7935702 0.7062381 0.7961675 0.7736845 0.7566997 0.7698885 0.7541987 0.7049434 0.005063056 0.2267993 0.02246505 0.1618542 0.04645693 0.171792 0.03080952 0.2301889 0.04645693 0.171792 0.0761125 0.1840757 0.3713439 0.6896003 0.3694068 0.7399033 0.3407523 0.7299655 0.3424372 0.6862108 0.3407523 0.7299655 0.2986503 0.7261697 0.2986503 0.7261697 0.2591825 0.7299655 0.2608674 0.6862108 0.8128521 0.4207304 0.8227899 0.4447222 0.7724869 0.4582009 0.8227899 0.4447222 0.8350736 0.4743778 0.7766767 0.4900252 0.866924 0.7599508 0.8382695 0.7698885 0.8357685 0.7049434 0.8357685 0.7049434 0.8382695 0.7698885 0.7961675 0.7736845 0.7961675 0.7736845 0.8011851 0.834155 0.7615312 0.8281166 0.05608308 0.1036261 0.07668536 0.1194348 0.04645693 0.171792 0.07668536 0.1194348 0.1021512 0.1389755 0.0761125 0.1840757 0.1021512 0.1389755 0.1227535 0.1547842 0.1001044 0.1940135 0.3374972 0.7691949 0.2955813 0.7631565 0.2986503 0.7261697 0.2986503 0.7261697 0.2955813 0.7631565 0.2559274 0.7691949 0.8128521 0.4207304 0.8520814 0.3980813 0.8678901 0.4186835 0.8227899 0.4447222 0.8678901 0.4186835 0.8874308 0.4441494 0.8350736 0.4743778 0.8874308 0.4441494 0.9032395 0.4647517 0.843101 0.8281167 0.8011851 0.834155 0.7961675 0.7736845 0.8082811 0.8835291 0.768364 0.8756597 0.7615312 0.8281166 0.05608308 0.1036261 0.1036261 0.05608302 0.1194348 0.0766853 0.07668536 0.1194348 0.1194348 0.0766853 0.1389755 0.1021512 0.1389755 0.1021512 0.1547842 0.1227535 0.1227535 0.1547842 0.3328938 0.8012256 0.2912411 0.7933562 0.2955813 0.7631565 0.1676755 0.7639514 0.2094697 0.7707816 0.2042611 0.8027195 0.8841121 0.3660506 0.9047144 0.3818593 0.8678901 0.4186835 0.9047144 0.3818593 0.9301803 0.4013999 0.8874308 0.4441494 0.9301803 0.4013999 0.9507825 0.4172086 0.9032395 0.4647517 0.843101 0.8281167 0.8499338 0.8756597 0.8082811 0.8835291 0.04703187 0.5863685 0.007564008 0.5901644 0.01239556 0.5319362 0.1618542 0.02246499 0.171792 0.04645687 0.1194348 0.0766853 0.171792 0.04645687 0.1840758 0.0761125 0.1389755 0.1021512 0.1840758 0.0761125 0.1940135 0.1001043 0.1547842 0.1227535 0.1279144 0.7692385 0.1319111 0.7300778 0.1714437 0.7270292 0.1714437 0.7270292 0.2134663 0.7316209 0.2094697 0.7707816 0.8841121 0.3660506 0.9067612 0.3268212 0.9307531 0.336759 0.9307531 0.336759 0.9604087 0.3490427 0.9301803 0.4013999 0.9301803 0.4013999 0.9604087 0.3490427 0.9844006 0.3589805 0.09396535 0.5319362 0.08913385 0.5901644 0.04703187 0.5863685 0.04443454 0.6538147 0.005063056 0.6551094 0.007564008 0.5901644 0.1618542 0.02246499 0.2267993 0.005062997 0.2301889 0.03080946 0.2301889 0.03080946 0.2343786 0.06263387 0.1840758 0.0761125 0.2343786 0.06263387 0.2377682 0.08838033 0.1940135 0.1001043 0.1344235 0.6863628 0.1738125 0.6858131 0.1714437 0.7270292 0.1714437 0.7270292 0.1738125 0.6858131 0.2159787 0.6879059 0.2134663 0.7316209 0.2159787 0.6879059 0.2448161 0.6918417 0.9307531 0.336759 0.9442317 0.2864561 0.976056 0.2906458 0.1155395 0.658499 0.08663284 0.6551094 0.08913385 0.5901644 0.08913385 0.5901644 0.08663284 0.6551094 0.04443454 0.6538147 0.04443454 0.7236403 0.005062997 0.7223456 0.005063056 0.6551094 0.2267993 0.005062997 0.2940355 0.005062997 0.2906459 0.03080946 0.2906459 0.03080946 0.2864561 0.06263387 0.2343786 0.06263387 0.2343786 0.06263387 0.2864561 0.06263387 0.2830665 0.08838033 0.1344235 0.6863628 0.1352804 0.6410726 0.1746204 0.6431118 0.1746204 0.6431118 0.2168356 0.6426157 0.2159787 0.6879059 0.2168356 0.6426157 0.2458013 0.6397735 0.2448161 0.6918417 0.9442317 0.2864561 0.9442317 0.2343786 0.976056 0.2301888 0.1155395 0.718956 0.08663284 0.7223456 0.08663284 0.6551094 0.08663284 0.6551094 0.08663284 0.7223456 0.04443454 0.7236403 0.04703187 0.7910864 0.007564008 0.7872905 0.005062997 0.7223456 0.2940355 0.005062997 0.3589804 0.02246493 0.3490427 0.04645681 0.2906459 0.03080946 0.3490427 0.04645681 0.3367589 0.07611244 0.3367589 0.07611244 0.3268212 0.1001043 0.2830665 0.08838033 0.1344235 0.5972939 0.1738125 0.6018357 0.1746204 0.6431118 0.1738125 0.6018357 0.2159787 0.598837 0.2168356 0.6426157 0.2168356 0.6426157 0.2159787 0.598837 0.2448161 0.5894431 0.9307531 0.1840758 0.9604087 0.171792 0.976056 0.2301888 0.1177883 0.7773528 0.08913379 0.7872905 0.08663284 0.7223456 0.08663284 0.7223456 0.08913379 0.7872905 0.04703187 0.7910864 0.05204945 0.8515572 0.01239556 0.8455188 0.007564008 0.7872905 0.4172086 0.05608302 0.4013999 0.07668536 0.3490427 0.04645681 0.3490427 0.04645681 0.4013999 0.07668536 0.3818593 0.1021512 0.3818593 0.1021512 0.3660506 0.1227535 0.3268212 0.1001043 0.1319111 0.5580099 0.1714437 0.5647974 0.1738125 0.6018357 0.1738125 0.6018357 0.1714437 0.5647974 0.2134663 0.559553 0.9067612 0.1940135 0.8841121 0.1547841 0.9047144 0.1389754 0.9047144 0.1389754 0.9301802 0.1194348 0.9604087 0.171792 0.9604087 0.171792 0.9301802 0.1194348 0.9507825 0.1036261 0.08913379 0.7872905 0.09396535 0.8455188 0.05204945 0.8515572 0.6970862 0.5578697 0.6551703 0.5639081 0.6483376 0.5163651 0.4647516 0.103626 0.4441493 0.1194347 0.4013999 0.07668536 0.4441493 0.1194347 0.4186835 0.1389754 0.3818593 0.1021512 0.4186835 0.1389754 0.3980812 0.154784 0.3660506 0.1227535 0.1279144 0.5258979 0.1676755 0.5345211 0.1714437 0.5647974 0.1676755 0.5345211 0.2094697 0.527441 0.2134663 0.559553 0.8520815 0.1227535 0.8678901 0.1021512 0.9047144 0.1389754 0.8678901 0.1021512 0.8874308 0.07668536 0.9301802 0.1194348 0.9301802 0.1194348 0.8874308 0.07668536 0.9032395 0.05608308 0.09396535 0.8455188 0.1007981 0.8930618 0.05914539 0.9009312 0.7021038 0.6183404 0.6600019 0.6221364 0.6551703 0.5639081 0.4647516 0.103626 0.4983698 0.1618542 0.4743779 0.171792 0.4743779 0.171792 0.4447222 0.1840758 0.4186835 0.1389754 0.4186835 0.1389754 0.4447222 0.1840758 0.4207304 0.1940135 0.8810468 0.7126756 0.9205794 0.709627 0.9168112 0.7465493 0.9168112 0.7465493 0.9205794 0.709627 0.962602 0.7142187 0.812852 0.1001044 0.8227897 0.0761125 0.8678901 0.1021512 0.8227897 0.0761125 0.8350735 0.04645687 0.8874308 0.07668536 0.8350735 0.04645687 0.8450112 0.02246499 0.9032395 0.05608308 0.7367401 0.5639081 0.7415717 0.6221364 0.7021038 0.6183404 0.7047011 0.6857866 0.6625028 0.6870813 0.6600019 0.6221364 0.6625028 0.6870813 0.6335962 0.6904709 0.6313474 0.6320741 0.4900252 0.2301888 0.4582009 0.2343785 0.4447222 0.1840758 0.4447222 0.1840758 0.4582009 0.2343785 0.4324544 0.2377681 0.8835592 0.6689607 0.9229482 0.668411 0.9205794 0.709627 0.9229482 0.668411 0.9651144 0.6705038 0.962602 0.7142187 0.9651144 0.6705038 0.9939518 0.6744396 0.9910634 0.7246968 0.8227897 0.0761125 0.7724869 0.06263387 0.7766767 0.03080952 0.7766767 0.03080952 0.7800663 0.005063056 0.8450112 0.02246499 0.7415717 0.6221364 0.7440727 0.6870813 0.7047011 0.6857866 0.7047011 0.7556121 0.6625028 0.7543175 0.6625028 0.6870813 0.6625028 0.7543175 0.6335961 0.7509279 0.6335962 0.6904709 0.4900252 0.2906458 0.4582009 0.286456 0.4582009 0.2343785 0.4582009 0.286456 0.4324544 0.2830665 0.4324544 0.2377681 0.8835592 0.6689607 0.8844161 0.6236705 0.9237561 0.6257098 0.9237561 0.6257098 0.9659713 0.6252136 0.9651144 0.6705038 0.9651144 0.6705038 0.9659713 0.6252136 0.994937 0.6223715 0.7724869 0.06263387 0.7204095 0.06263393 0.7162197 0.03080952 0.7766767 0.03080952 0.7162197 0.03080952 0.7128301 0.005063056 0.7440727 0.6870813 0.7440726 0.7543175 0.7047011 0.7556121 0.7047011 0.7556121 0.7021038 0.8230585 0.6600019 0.8192626 0.6600019 0.8192626 0.6313473 0.8093248 0.6335961 0.7509279 0.4743778 0.3490427 0.4447222 0.336759 0.4582009 0.286456 0.4582009 0.286456 0.4447222 0.336759 0.4207304 0.3268212 0.8835592 0.5798918 0.9229482 0.5844336 0.9237561 0.6257098 0.9237561 0.6257098 0.9229482 0.5844336 0.9651144 0.5814348 0.9651144 0.5814348 0.9939518 0.5720409 0.994937 0.6223715 0.7204095 0.06263393 0.6701065 0.07611256 0.6578228 0.04645693 0.7162197 0.03080952 0.6578228 0.04645693 0.647885 0.0224651 0.7415717 0.8192626 0.7021038 0.8230585 0.7047011 0.7556121 0.7021038 0.8230585 0.6970862 0.8835291 0.6551703 0.8774906 0.4983697 0.3589805 0.4647517 0.4172086 0.4441494 0.4013999 0.4743778 0.3490427 0.4441494 0.4013999 0.4186835 0.3818593 0.4447222 0.336759 0.4186835 0.3818593 0.3980813 0.3660506 0.8810468 0.5406078 0.9205794 0.5473953 0.9229482 0.5844336 0.9229482 0.5844336 0.9205794 0.5473953 0.962602 0.5421509 0.640815 0.1227535 0.6250063 0.1021512 0.6701065 0.07611256 0.6250063 0.1021512 0.6054657 0.07668536 0.6578228 0.04645693 0.6054657 0.07668536 0.5896569 0.05608308 0.647885 0.0224651 0.7367401 0.8774907 0.6970862 0.8835291 0.7021038 0.8230585</float_array>
          <technique_common>
            <accessor source="#Torus-mesh-map-0-array" count="1440" stride="2">
              <param name="S" type="float"/>
              <param name="T" type="float"/>
            </accessor>
          </technique_common>
        </source>
        <vertices id="Torus-mesh-vertices">
          <input semantic="POSITION" source="#Torus-mesh-positions"/>
        </vertices>
        <triangles material="TIRE_rubber-material" count="480">
          <input semantic="VERTEX" source="#Torus-mesh-vertices" offset="0"/>
          <input semantic="NORMAL" source="#Torus-mesh-normals" offset="1"/>
          <input semantic="TEXCOORD" source="#Torus-mesh-map-0" offset="2" set="0"/>
          <p>10 0 0 1 0 1 0 0 2 11 1 3 2 1 4 1 1 5 12 2 6 3 2 7 2 2 8 13 3 9 4 3 10 3 3 11 14 4 12 5 4 13 4 4 14 15 5 15 6 5 16 5 5 17 16 6 18 7 6 19 6 6 20 7 7 21 18 7 22 8 7 23 8 8 24 19 8 25 9 8 26 9 9 27 10 9 28 0 9 29 20 10 30 11 10 31 10 10 32 21 11 33 12 11 34 11 11 35 12 12 36 23 12 37 13 12 38 13 13 39 24 13 40 14 13 41 24 14 42 15 14 43 14 14 44 15 15 45 26 15 46 16 15 47 26 16 48 17 16 49 16 16 50 27 17 51 18 17 52 17 17 53 18 18 54 29 18 55 19 18 56 29 19 57 10 19 58 19 19 59 30 20 60 21 20 61 20 20 62 21 21 63 32 21 64 22 21 65 32 22 66 23 22 67 22 22 68 23 23 69 34 23 70 24 23 71 34 24 72 25 24 73 24 24 74 25 25 75 36 25 76 26 25 77 36 26 78 27 26 79 26 26 80 27 27 81 38 27 82 28 27 83 38 28 84 29 28 85 28 28 86 29 29 87 30 29 88 20 29 89 30 30 90 41 30 91 31 30 92 31 31 93 42 31 94 32 31 95 32 32 96 43 32 97 33 32 98 43 33 99 34 33 100 33 33 101 34 34 102 45 34 103 35 34 104 45 35 105 36 35 106 35 35 107 46 36 108 37 36 109 36 36 110 47 37 111 38 37 112 37 37 113 48 38 114 39 38 115 38 38 116 49 39 117 30 39 118 39 39 119 50 40 120 41 40 121 40 40 122 51 41 123 42 41 124 41 41 125 52 42 126 43 42 127 42 42 128 53 43 129 44 43 130 43 43 131 44 44 132 55 44 133 45 44 134 55 45 135 46 45 136 45 45 137 46 46 138 57 46 139 47 46 140 47 47 141 58 47 142 48 47 143 48 48 144 59 48 145 49 48 146 49 49 147 50 49 148 40 49 149 60 50 150 51 50 151 50 50 152 61 51 153 52 51 154 51 51 155 52 52 156 63 52 157 53 52 158 63 53 159 54 53 160 53 53 161 64 54 162 55 54 163 54 54 164 65 55 165 56 55 166 55 55 167 66 56 168 57 56 169 56 56 170 67 57 171 58 57 172 57 57 173 68 58 174 59 58 175 58 58 176 69 59 177 50 59 178 59 59 179 70 60 180 61 60 181 60 60 182 61 61 183 72 61 184 62 61 185 62 62 186 73 62 187 63 62 188 63 63 189 74 63 190 64 63 191 74 64 192 65 64 193 64 64 194 75 65 195 66 65 196 65 65 197 76 66 198 67 66 199 66 66 200 77 67 201 68 67 202 67 67 203 78 68 204 69 68 205 68 68 206 69 69 207 70 69 208 60 69 209 80 70 210 71 70 211 70 70 212 71 71 213 82 71 214 72 71 215 82 72 216 73 72 217 72 72 218 83 73 219 74 73 220 73 73 221 74 74 222 85 74 223 75 74 224 85 75 225 76 75 226 75 75 227 76 76 228 87 76 229 77 76 230 77 77 231 88 77 232 78 77 233 88 78 234 79 78 235 78 78 236 79 79 237 80 79 238 70 79 239 80 80 240 91 80 241 81 80 242 91 81 243 82 81 244 81 81 245 82 82 246 93 82 247 83 82 248 93 83 249 84 83 250 83 83 251 94 84 252 85 84 253 84 84 254 85 85 255 96 85 256 86 85 257 86 86 258 97 86 259 87 86 260 97 87 261 88 87 262 87 87 263 88 88 264 99 88 265 89 88 266 99 89 267 80 89 268 89 89 269 100 90 270 91 90 271 90 90 272 101 91 273 92 91 274 91 91 275 92 92 276 103 92 277 93 92 278 103 93 279 94 93 280 93 93 281 94 94 282 105 94 283 95 94 284 105 95 285 96 95 286 95 95 287 96 96 288 107 96 289 97 96 290 107 97 291 98 97 292 97 97 293 98 98 294 109 98 295 99 98 296 99 99 297 100 99 298 90 99 299 110 100 300 101 100 301 100 100 302 101 101 303 112 101 304 102 101 305 102 102 306 113 102 307 103 102 308 103 103 309 114 103 310 104 103 311 104 104 312 115 104 313 105 104 314 115 105 315 106 105 316 105 105 317 116 106 318 107 106 319 106 106 320 117 107 321 108 107 322 107 107 323 118 108 324 109 108 325 108 108 326 109 109 327 110 109 328 100 109 329 110 110 330 121 110 331 111 110 332 121 111 333 112 111 334 111 111 335 122 112 336 113 112 337 112 112 338 123 113 339 114 113 340 113 113 341 124 114 342 115 114 343 114 114 344 115 115 345 126 115 346 116 115 347 116 116 348 127 116 349 117 116 350 117 117 351 128 117 352 118 117 353 118 118 354 129 118 355 119 118 356 129 119 357 110 119 358 119 119 359 130 120 360 121 120 361 120 120 362 121 121 363 132 121 364 122 121 365 122 122 366 133 122 367 123 122 368 133 123 369 124 123 370 123 123 371 134 124 372 125 124 373 124 124 374 135 125 375 126 125 376 125 125 377 136 126 378 127 126 379 126 126 380 137 127 381 128 127 382 127 127 383 138 128 384 129 128 385 128 128 386 129 129 387 130 129 388 120 129 389 140 130 390 131 130 391 130 130 392 141 131 393 132 131 394 131 131 395 142 132 396 133 132 397 132 132 398 143 133 399 134 133 400 133 133 401 134 134 402 145 134 403 135 134 404 145 135 405 136 135 406 135 135 407 136 136 408 147 136 409 137 136 410 147 137 411 138 137 412 137 137 413 138 138 414 149 138 415 139 138 416 139 139 417 140 139 418 130 139 419 150 140 420 141 140 421 140 140 422 141 141 423 152 141 424 142 141 425 152 142 426 143 142 427 142 142 428 153 143 429 144 143 430 143 143 431 154 144 432 145 144 433 144 144 434 145 145 435 156 145 436 146 145 437 146 146 438 157 146 439 147 146 440 147 147 441 158 147 442 148 147 443 158 148 444 149 148 445 148 148 446 149 149 447 150 149 448 140 149 449 160 150 450 151 150 451 150 150 452 151 151 453 162 151 454 152 151 455 162 152 456 153 152 457 152 152 458 153 153 459 164 153 460 154 153 461 154 154 462 165 154 463 155 154 464 165 155 465 156 155 466 155 155 467 166 156 468 157 156 469 156 156 470 157 157 471 168 157 472 158 157 473 168 158 474 159 158 475 158 158 476 159 159 477 160 159 478 150 159 479 170 160 480 161 160 481 160 160 482 161 161 483 172 161 484 162 161 485 162 162 486 173 162 487 163 162 488 173 163 489 164 163 490 163 163 491 174 164 492 165 164 493 164 164 494 175 165 495 166 165 496 165 165 497 166 166 498 177 166 499 167 166 500 177 167 501 168 167 502 167 167 503 178 168 504 169 168 505 168 168 506 169 169 507 170 169 508 160 169 509 180 170 510 171 170 511 170 170 512 181 171 513 172 171 514 171 171 515 172 172 516 183 172 517 173 172 518 183 173 519 174 173 520 173 173 521 184 174 522 175 174 523 174 174 524 175 175 525 186 175 526 176 175 527 176 176 528 187 176 529 177 176 530 187 177 531 178 177 532 177 177 533 178 178 534 189 178 535 179 178 536 179 179 537 180 179 538 170 179 539 190 180 540 181 180 541 180 180 542 191 181 543 182 181 544 181 181 545 192 182 546 183 182 547 182 182 548 193 183 549 184 183 550 183 183 551 194 184 552 185 184 553 184 184 554 195 185 555 186 185 556 185 185 557 196 186 558 187 186 559 186 186 560 197 187 561 188 187 562 187 187 563 188 188 564 199 188 565 189 188 566 189 189 567 190 189 568 180 189 569 200 190 570 191 190 571 190 190 572 191 191 573 202 191 574 192 191 575 202 192 576 193 192 577 192 192 578 193 193 579 204 193 580 194 193 581 204 194 582 195 194 583 194 194 584 195 195 585 206 195 586 196 195 587 206 196 588 197 196 589 196 196 590 207 197 591 198 197 592 197 197 593 208 198 594 199 198 595 198 198 596 199 199 597 200 199 598 190 199 599 210 200 600 201 200 601 200 200 602 211 201 603 202 201 604 201 201 605 212 202 606 203 202 607 202 202 608 203 203 609 214 203 610 204 203 611 214 204 612 205 204 613 204 204 614 215 205 615 206 205 616 205 205 617 216 206 618 207 206 619 206 206 620 207 207 621 218 207 622 208 207 623 218 208 624 209 208 625 208 208 626 209 209 627 210 209 628 200 209 629 220 210 630 211 210 631 210 210 632 221 211 633 212 211 634 211 211 635 222 212 636 213 212 637 212 212 638 223 213 639 214 213 640 213 213 641 214 214 642 225 214 643 215 214 644 225 215 645 216 215 646 215 215 647 216 216 648 227 216 649 217 216 650 217 217 651 228 217 652 218 217 653 218 218 654 229 218 655 219 218 656 219 219 657 220 219 658 210 219 659 220 220 660 231 220 661 221 220 662 231 221 663 222 221 664 221 221 665 232 222 666 223 222 667 222 222 668 223 223 669 234 223 670 224 223 671 234 224 672 225 224 673 224 224 674 225 225 675 236 225 676 226 225 677 236 226 678 227 226 679 226 226 680 227 227 681 238 227 682 228 227 683 228 228 684 239 228 685 229 228 686 239 229 687 220 229 688 229 229 689 230 230 690 1 230 691 231 230 692 231 231 693 2 231 694 232 231 695 232 232 696 3 232 697 233 232 698 233 233 699 4 233 700 234 233 701 4 234 702 235 234 703 234 234 704 235 235 705 6 235 706 236 235 707 6 236 708 237 236 709 236 236 710 7 237 711 238 237 712 237 237 713 8 238 714 239 238 715 238 238 716 9 239 717 230 239 718 239 239 719 10 240 720 11 240 721 1 240 722 11 241 723 12 241 724 2 241 725 12 242 726 13 242 727 3 242 728 13 243 729 14 243 730 4 243 731 14 244 732 15 244 733 5 244 734 15 245 735 16 245 736 6 245 737 16 246 738 17 246 739 7 246 740 7 247 741 17 247 742 18 247 743 8 248 744 18 248 745 19 248 746 9 249 747 19 249 748 10 249 749 20 250 750 21 250 751 11 250 752 21 251 753 22 251 754 12 251 755 12 252 756 22 252 757 23 252 758 13 253 759 23 253 760 24 253 761 24 254 762 25 254 763 15 254 764 15 255 765 25 255 766 26 255 767 26 256 768 27 256 769 17 256 770 27 257 771 28 257 772 18 257 773 18 258 774 28 258 775 29 258 776 29 259 777 20 259 778 10 259 779 30 260 780 31 260 781 21 260 782 21 261 783 31 261 784 32 261 785 32 262 786 33 262 787 23 262 788 23 263 789 33 263 790 34 263 791 34 264 792 35 264 793 25 264 794 25 265 795 35 265 796 36 265 797 36 266 798 37 266 799 27 266 800 27 267 801 37 267 802 38 267 803 38 268 804 39 268 805 29 268 806 29 269 807 39 269 808 30 269 809 30 270 810 40 270 811 41 270 812 31 271 813 41 271 814 42 271 815 32 272 816 42 272 817 43 272 818 43 273 819 44 273 820 34 273 821 34 274 822 44 274 823 45 274 824 45 275 825 46 275 826 36 275 827 46 276 828 47 276 829 37 276 830 47 277 831 48 277 832 38 277 833 48 278 834 49 278 835 39 278 836 49 279 837 40 279 838 30 279 839 50 280 840 51 280 841 41 280 842 51 281 843 52 281 844 42 281 845 52 282 846 53 282 847 43 282 848 53 283 849 54 283 850 44 283 851 44 284 852 54 284 853 55 284 854 55 285 855 56 285 856 46 285 857 46 286 858 56 286 859 57 286 860 47 287 861 57 287 862 58 287 863 48 288 864 58 288 865 59 288 866 49 289 867 59 289 868 50 289 869 60 290 870 61 290 871 51 290 872 61 291 873 62 291 874 52 291 875 52 292 876 62 292 877 63 292 878 63 293 879 64 293 880 54 293 881 64 294 882 65 294 883 55 294 884 65 295 885 66 295 886 56 295 887 66 296 888 67 296 889 57 296 890 67 297 891 68 297 892 58 297 893 68 298 894 69 298 895 59 298 896 69 299 897 60 299 898 50 299 899 70 300 900 71 300 901 61 300 902 61 301 903 71 301 904 72 301 905 62 302 906 72 302 907 73 302 908 63 303 909 73 303 910 74 303 911 74 304 912 75 304 913 65 304 914 75 305 915 76 305 916 66 305 917 76 306 918 77 306 919 67 306 920 77 307 921 78 307 922 68 307 923 78 308 924 79 308 925 69 308 926 69 309 927 79 309 928 70 309 929 80 310 930 81 310 931 71 310 932 71 311 933 81 311 934 82 311 935 82 312 936 83 312 937 73 312 938 83 313 939 84 313 940 74 313 941 74 314 942 84 314 943 85 314 944 85 315 945 86 315 946 76 315 947 76 316 948 86 316 949 87 316 950 77 317 951 87 317 952 88 317 953 88 318 954 89 318 955 79 318 956 79 319 957 89 319 958 80 319 959 80 320 960 90 320 961 91 320 962 91 321 963 92 321 964 82 321 965 82 322 966 92 322 967 93 322 968 93 323 969 94 323 970 84 323 971 94 324 972 95 324 973 85 324 974 85 325 975 95 325 976 96 325 977 86 326 978 96 326 979 97 326 980 97 327 981 98 327 982 88 327 983 88 328 984 98 328 985 99 328 986 99 329 987 90 329 988 80 329 989 100 330 990 101 330 991 91 330 992 101 331 993 102 331 994 92 331 995 92 332 996 102 332 997 103 332 998 103 333 999 104 333 1000 94 333 1001 94 334 1002 104 334 1003 105 334 1004 105 335 1005 106 335 1006 96 335 1007 96 336 1008 106 336 1009 107 336 1010 107 337 1011 108 337 1012 98 337 1013 98 338 1014 108 338 1015 109 338 1016 99 339 1017 109 339 1018 100 339 1019 110 340 1020 111 340 1021 101 340 1022 101 341 1023 111 341 1024 112 341 1025 102 342 1026 112 342 1027 113 342 1028 103 343 1029 113 343 1030 114 343 1031 104 344 1032 114 344 1033 115 344 1034 115 345 1035 116 345 1036 106 345 1037 116 346 1038 117 346 1039 107 346 1040 117 347 1041 118 347 1042 108 347 1043 118 348 1044 119 348 1045 109 348 1046 109 349 1047 119 349 1048 110 349 1049 110 350 1050 120 350 1051 121 350 1052 121 351 1053 122 351 1054 112 351 1055 122 352 1056 123 352 1057 113 352 1058 123 353 1059 124 353 1060 114 353 1061 124 354 1062 125 354 1063 115 354 1064 115 355 1065 125 355 1066 126 355 1067 116 356 1068 126 356 1069 127 356 1070 117 357 1071 127 357 1072 128 357 1073 118 358 1074 128 358 1075 129 358 1076 129 359 1077 120 359 1078 110 359 1079 130 360 1080 131 360 1081 121 360 1082 121 361 1083 131 361 1084 132 361 1085 122 362 1086 132 362 1087 133 362 1088 133 363 1089 134 363 1090 124 363 1091 134 364 1092 135 364 1093 125 364 1094 135 365 1095 136 365 1096 126 365 1097 136 366 1098 137 366 1099 127 366 1100 137 367 1101 138 367 1102 128 367 1103 138 368 1104 139 368 1105 129 368 1106 129 369 1107 139 369 1108 130 369 1109 140 370 1110 141 370 1111 131 370 1112 141 371 1113 142 371 1114 132 371 1115 142 372 1116 143 372 1117 133 372 1118 143 373 1119 144 373 1120 134 373 1121 134 374 1122 144 374 1123 145 374 1124 145 375 1125 146 375 1126 136 375 1127 136 376 1128 146 376 1129 147 376 1130 147 377 1131 148 377 1132 138 377 1133 138 378 1134 148 378 1135 149 378 1136 139 379 1137 149 379 1138 140 379 1139 150 380 1140 151 380 1141 141 380 1142 141 381 1143 151 381 1144 152 381 1145 152 382 1146 153 382 1147 143 382 1148 153 383 1149 154 383 1150 144 383 1151 154 384 1152 155 384 1153 145 384 1154 145 385 1155 155 385 1156 156 385 1157 146 386 1158 156 386 1159 157 386 1160 147 387 1161 157 387 1162 158 387 1163 158 388 1164 159 388 1165 149 388 1166 149 389 1167 159 389 1168 150 389 1169 160 390 1170 161 390 1171 151 390 1172 151 391 1173 161 391 1174 162 391 1175 162 392 1176 163 392 1177 153 392 1178 153 393 1179 163 393 1180 164 393 1181 154 394 1182 164 394 1183 165 394 1184 165 395 1185 166 395 1186 156 395 1187 166 396 1188 167 396 1189 157 396 1190 157 397 1191 167 397 1192 168 397 1193 168 398 1194 169 398 1195 159 398 1196 159 399 1197 169 399 1198 160 399 1199 170 400 1200 171 400 1201 161 400 1202 161 401 1203 171 401 1204 172 401 1205 162 402 1206 172 402 1207 173 402 1208 173 403 1209 174 403 1210 164 403 1211 174 404 1212 175 404 1213 165 404 1214 175 405 1215 176 405 1216 166 405 1217 166 406 1218 176 406 1219 177 406 1220 177 407 1221 178 407 1222 168 407 1223 178 408 1224 179 408 1225 169 408 1226 169 409 1227 179 409 1228 170 409 1229 180 410 1230 181 410 1231 171 410 1232 181 411 1233 182 411 1234 172 411 1235 172 412 1236 182 412 1237 183 412 1238 183 413 1239 184 413 1240 174 413 1241 184 414 1242 185 414 1243 175 414 1244 175 415 1245 185 415 1246 186 415 1247 176 416 1248 186 416 1249 187 416 1250 187 417 1251 188 417 1252 178 417 1253 178 418 1254 188 418 1255 189 418 1256 179 419 1257 189 419 1258 180 419 1259 190 420 1260 191 420 1261 181 420 1262 191 421 1263 192 421 1264 182 421 1265 192 422 1266 193 422 1267 183 422 1268 193 423 1269 194 423 1270 184 423 1271 194 424 1272 195 424 1273 185 424 1274 195 425 1275 196 425 1276 186 425 1277 196 426 1278 197 426 1279 187 426 1280 197 427 1281 198 427 1282 188 427 1283 188 428 1284 198 428 1285 199 428 1286 189 429 1287 199 429 1288 190 429 1289 200 430 1290 201 430 1291 191 430 1292 191 431 1293 201 431 1294 202 431 1295 202 432 1296 203 432 1297 193 432 1298 193 433 1299 203 433 1300 204 433 1301 204 434 1302 205 434 1303 195 434 1304 195 435 1305 205 435 1306 206 435 1307 206 436 1308 207 436 1309 197 436 1310 207 437 1311 208 437 1312 198 437 1313 208 438 1314 209 438 1315 199 438 1316 199 439 1317 209 439 1318 200 439 1319 210 440 1320 211 440 1321 201 440 1322 211 441 1323 212 441 1324 202 441 1325 212 442 1326 213 442 1327 203 442 1328 203 443 1329 213 443 1330 214 443 1331 214 444 1332 215 444 1333 205 444 1334 215 445 1335 216 445 1336 206 445 1337 216 446 1338 217 446 1339 207 446 1340 207 447 1341 217 447 1342 218 447 1343 218 448 1344 219 448 1345 209 448 1346 209 449 1347 219 449 1348 210 449 1349 220 450 1350 221 450 1351 211 450 1352 221 451 1353 222 451 1354 212 451 1355 222 452 1356 223 452 1357 213 452 1358 223 453 1359 224 453 1360 214 453 1361 214 454 1362 224 454 1363 225 454 1364 225 455 1365 226 455 1366 216 455 1367 216 456 1368 226 456 1369 227 456 1370 217 457 1371 227 457 1372 228 457 1373 218 458 1374 228 458 1375 229 458 1376 219 459 1377 229 459 1378 220 459 1379 220 460 1380 230 460 1381 231 460 1382 231 461 1383 232 461 1384 222 461 1385 232 462 1386 233 462 1387 223 462 1388 223 463 1389 233 463 1390 234 463 1391 234 464 1392 235 464 1393 225 464 1394 225 465 1395 235 465 1396 236 465 1397 236 466 1398 237 466 1399 227 466 1400 227 467 1401 237 467 1402 238 467 1403 228 468 1404 238 468 1405 239 468 1406 239 469 1407 230 469 1408 220 469 1409 230 470 1410 0 470 1411 1 470 1412 231 471 1413 1 471 1414 2 471 1415 232 472 1416 2 472 1417 3 472 1418 233 473 1419 3 473 1420 4 473 1421 4 474 1422 5 474 1423 235 474 1424 235 475 1425 5 475 1426 6 475 1427 6 476 1428 7 476 1429 237 476 1430 7 477 1431 8 477 1432 238 477 1433 8 478 1434 9 478 1435 239 478 1436 9 479 1437 0 479 1438 230 479 1439</p>
        </triangles>
      </mesh>
    </geometry>
  </library_geometries>
  <library_visual_scenes>
    <visual_scene id="Scene" name="Scene">
      <node id="tire_root" name="tire_root" type="NODE">
        <matrix sid="transform">1 0 0 0 0 1 0 0 0 0 1 0 0 0 0 1</matrix>
        <node id="tire_0" name="tire_0" type="NODE">
          <matrix sid="transform">1 0 0 0 0 1 0 0 0 0 1 0.12 0 0 0 1</matrix>
          <instance_geometry url="#Torus-mesh" name="tire_0">
            <bind_material>
              <technique_common>
                <instance_material symbol="TIRE_rubber-material" target="#TIRE_rubber-material">
                  <bind_vertex_input semantic="UVMap" input_semantic="TEXCOORD" input_set="0"/>
                </instance_material>
              </technique_common>
            </bind_material>
          </instance_geometry>
        </node>
        <node id="rim_0" name="rim_0" type="NODE">
          <matrix sid="transform">1 0 0 0 0 1 0 0 0 0 1 0.12 0 0 0 1</matrix>
          <instance_geometry url="#Cylinder-mesh" name="rim_0">
            <bind_material>
              <technique_common>
                <instance_material symbol="TIRE_rim-material" target="#TIRE_rim-material">
                  <bind_vertex_input semantic="UVMap" input_semantic="TEXCOORD" input_set="0"/>
                </instance_material>
              </technique_common>
            </bind_material>
          </instance_geometry>
        </node>
      </node>
    </visual_scene>
  </library_visual_scenes>
  <scene>
    <instance_visual_scene url="#Scene"/>
  </scene>
</COLLADA>