<?xml version="1.0" encoding="utf-8"?>
<COLLADA xmlns="http://www.collada.org/2005/11/COLLADASchema" version="1.4.1" xmlns:xsi="http://www.w3.org/2001/XMLSchema-instance">
  <asset>
    <contributor>
      <author>Blender User</author>
      <authoring_tool>Blender 4.2.9 LTS commit date:2025-04-14, commit time:12:24, hash:a10f621e649a</authoring_tool>
    </contributor>
    <created>2026-08-01T08:09:21</created>
    <modified>2026-08-01T08:09:21</modified>
    <unit name="meter" meter="1"/>
    <up_axis>Z_UP</up_axis>
  </asset>
  <library_effects>
    <effect id="ParkerVegBark-effect">
      <profile_COMMON>
        <newparam sid="vegetation_atlas_2048_png-surface">
          <surface type="2D">
            <init_from>vegetation_atlas_2048_png</init_from>
          </surface>
        </newparam>
        <newparam sid="vegetation_atlas_2048_png-sampler">
          <sampler2D>
            <source>vegetation_atlas_2048_png-surface</source>
          </sampler2D>
        </newparam>
        <technique sid="common">
          <lambert>
            <emission>
              <color sid="emission">0 0 0 1</color>
            </emission>
            <diffuse>
              <texture texture="vegetation_atlas_2048_png-sampler" texcoord="UVMap"/>
            </diffuse>
            <index_of_refraction>
              <float sid="ior">1.5</float>
            </index_of_refraction>
          </lambert>
        </technique>
      </profile_COMMON>
    </effect>
    <effect id="ParkerVegFoliage-effect">
      <profile_COMMON>
        <newparam sid="vegetation_atlas_2048_png-surface">
          <surface type="2D">
            <init_from>vegetation_atlas_2048_png</init_from>
          </surface>
        </newparam>
        <newparam sid="vegetation_atlas_2048_png-sampler">
          <sampler2D>
            <source>vegetation_atlas_2048_png-surface</source>
          </sampler2D>
        </newparam>
        <technique sid="common">
          <lambert>
            <emission>
              <color sid="emission">0 0 0 1</color>
            </emission>
            <diffuse>
              <texture texture="vegetation_atlas_2048_png-sampler" texcoord="UVMap"/>
            </diffuse>
            <index_of_refraction>
              <float sid="ior">1.5</float>
            </index_of_refraction>
          </lambert>
        </technique>
      </profile_COMMON>
    </effect>
    <effect id="Colmesh_Material-effect">
      <profile_COMMON>
        <technique sid="common">
          <lambert>
            <emission>
              <color sid="emission">0 0 0 1</color>
            </emission>
            <diffuse>
              <color sid="diffuse">1 0 1 1</color>
            </diffuse>
            <transparent opaque="A_ONE">
              <color sid="alpha">0 0 0 0.15</color>
            </transparent>
            <index_of_refraction>
              <float sid="ior">1.5</float>
            </index_of_refraction>
          </lambert>
        </technique>
      </profile_COMMON>
    </effect>
  </library_effects>
  <library_images>
    <image id="vegetation_atlas_2048_png" name="vegetation_atlas_2048_png">
      <init_from>vegetation_atlas_2048.png</init_from>
    </image>
  </library_images>
  <library_materials>
    <material id="ParkerVegBark-material" name="ParkerVegBark">
      <instance_effect url="#ParkerVegBark-effect"/>
    </material>
    <material id="ParkerVegFoliage-material" name="ParkerVegFoliage">
      <instance_effect url="#ParkerVegFoliage-effect"/>
    </material>
    <material id="Colmesh_Material-material" name="Colmesh_Material">
      <instance_effect url="#Colmesh_Material-effect"/>
    </material>
  </library_materials>
  <library_geometries>
    <geometry id="creosote_med_a50-mesh" name="creosote_med_a50">
      <mesh>
        <source id="creosote_med_a50-mesh-positions">
          <float_array id="creosote_med_a50-mesh-positions-array" count="24">-0.3518519 8.09163e-4 -0.01023209 0.3143599 8.09163e-4 -0.01023209 0.3143599 8.09163e-4 1.033441 -0.3518519 8.09163e-4 1.033441 -0.01874601 -0.3322967 -0.01023209 -0.01874601 0.3339151 -0.01023209 -0.01874601 0.3339151 1.033441 -0.01874601 -0.3322967 1.033441</float_array>
          <technique_common>
            <accessor source="#creosote_med_a50-mesh-positions-array" count="8" stride="3">
              <param name="X" type="float"/>
              <param name="Y" type="float"/>
              <param name="Z" type="float"/>
            </accessor>
          </technique_common>
        </source>
        <source id="creosote_med_a50-mesh-normals">
          <float_array id="creosote_med_a50-mesh-normals-array" count="12">0 -1 0 1 0 0 0 -1 0 1 0 0</float_array>
          <technique_common>
            <accessor source="#creosote_med_a50-mesh-normals-array" count="4" stride="3">
              <param name="X" type="float"/>
              <param name="Y" type="float"/>
              <param name="Z" type="float"/>
            </accessor>
          </technique_common>
        </source>
        <source id="creosote_med_a50-mesh-map-0">
          <float_array id="creosote_med_a50-mesh-map-0-array" count="24">1 0 0 1 0 0 1 0 0 1 0 0 1 0 1 1 0 1 1 0 1 1 0 1</float_array>
          <technique_common>
            <accessor source="#creosote_med_a50-mesh-map-0-array" count="12" stride="2">
              <param name="S" type="float"/>
              <param name="T" type="float"/>
            </accessor>
          </technique_common>
        </source>
        <vertices id="creosote_med_a50-mesh-vertices">
          <input semantic="POSITION" source="#creosote_med_a50-mesh-positions"/>
        </vertices>
        <triangles material="ParkerVegBark-material" count="4">
          <input semantic="VERTEX" source="#creosote_med_a50-mesh-vertices" offset="0"/>
          <input semantic="NORMAL" source="#creosote_med_a50-mesh-normals" offset="1"/>
          <input semantic="TEXCOORD" source="#creosote_med_a50-mesh-map-0" offset="2" set="0"/>
          <p>1 0 0 3 0 1 0 0 2 5 1 3 7 1 4 4 1 5 1 2 6 2 2 7 3 2 8 5 3 9 6 3 10 7 3 11</p>
        </triangles>
      </mesh>
    </geometry>
    <geometry id="creosote_med_a200-mesh" name="creosote_med_a200">
      <mesh>
        <source id="creosote_med_a200-mesh-positions">
          <float_array id="creosote_med_a200-mesh-positions-array" count="132">0.02503752 -0.04274177 0 -0.02503752 0.04274177 0 0 0 0.49 0.1367914 -0.02554905 0.7534239 0.1115851 0.1566622 0.7163486 0.09764355 0.2574434 0.585273 0.09938621 0.2448458 0.4303655 0.1115851 0.1566622 0.2873739 0.126398 0.04958212 0.2158781 0.1464391 -0.09529089 0.23971 0.1621234 -0.2086697 0.3588697 0.1656088 -0.2338651 0.5078192 0.1568953 -0.1708768 0.6567688 0.02446496 0.137178 0.9952519 -0.160104 0.1093606 0.9570858 -0.2622364 0.09396779 0.8221273 -0.2494698 0.09589189 0.6626309 -0.160104 0.1093606 0.5154034 -0.05158853 0.1257156 0.4417897 0.09522658 0.1478428 0.4663276 0.2101254 0.1651598 0.5890172 0.2356584 0.169008 0.7423791 0.1718258 0.1593875 0.8957411 -0.1318638 -0.0059942 0.8797526 -0.12506 -0.1556689 0.8345487 -0.1201117 -0.2645232 0.6688011 -0.1207302 -0.2509164 0.4729176 -0.1250599 -0.1556689 0.292102 -0.1303175 -0.04001116 0.2016941 -0.1374306 0.1164668 0.2318301 -0.1429974 0.2389279 0.3825098 -0.1442344 0.2661415 0.5708593 -0.1411418 0.1981076 0.7592089 -0.135575 0.07564646 0.8646847 -0.06805258 -0.12694 1.024737 0.1683464 -0.146006 0.9842302 0.2984977 -0.156503 0.8413093 0.2822288 -0.1551908 0.6724029 0.1683464 -0.146006 0.5164892 0.03006064 -0.134853 0.4385324 -0.1570317 -0.1197637 0.464518 -0.3034519 -0.1079546 0.594446 -0.3359897 -0.1053304 0.7568561 -0.2546452 -0.111891 0.9192661</float_array>
          <technique_common>
            <accessor source="#creosote_med_a200-mesh-positions-array" count="44" stride="3">
              <param name="X" type="float"/>
              <param name="Y" type="float"/>
              <param name="Z" type="float"/>
            </accessor>
          </technique_common>
        </source>
        <source id="creosote_med_a200-mesh-normals">
          <float_array id="creosote_med_a200-mesh-normals-array" count="105">0.8628562 0.5054494 0 -0.8628562 -0.5054494 0 -0.9905669 -0.1370303 1.20332e-7 -0.9905669 -0.1370303 0 -0.9905669 -0.1370303 0 -0.9905669 -0.1370303 0 -0.9905669 -0.1370303 0 -0.9905669 -0.1370302 0 -0.9905669 -0.1370303 0 -0.9905668 -0.1370304 0 0.1490318 -0.9888324 0 0.1490318 -0.9888324 0 0.1490319 -0.9888324 0 0.1490318 -0.9888324 0 0.1490318 -0.9888324 0 0.1490319 -0.9888324 0 0.1490318 -0.9888324 0 0.1490319 -0.9888324 0 0.9989684 0.04541069 0 0.9989684 0.04541075 0 0.9989684 0.04541069 0 0.9989684 0.04541075 0 0.9989684 0.04541069 0 0.9989684 0.04541075 0 0.9989684 0.04541087 0 0.9989684 0.04541081 0 0.9989684 0.04541075 0 0.08039057 0.9967634 0 0.08039069 0.9967635 1.21587e-7 0.08039063 0.9967634 0 0.08039063 0.9967635 0 0.08039069 0.9967634 0 0.08039069 0.9967635 0 0.08039069 0.9967634 0 0.08039069 0.9967635 0</float_array>
          <technique_common>
            <accessor source="#creosote_med_a200-mesh-normals-array" count="35" stride="3">
              <param name="X" type="float"/>
              <param name="Y" type="float"/>
              <param name="Z" type="float"/>
            </accessor>
          </technique_common>
        </source>
        <source id="creosote_med_a200-mesh-map-0">
          <float_array id="creosote_med_a200-mesh-map-0-array" count="210">0.75 0.9038462 0.5 1 0.5 0.75 0.75 0.845322 0.5 1 0.5 0.75 0.8608648 0.9692441 0.9212 0.959 0.812 0.938 0.9212 0.959 0.9548 0.9128 0.812 0.938 0.9548 0.9128 0.9506 0.8582 0.812 0.938 0.9506 0.8582 0.9212 0.8078 0.812 0.938 0.9212 0.8078 0.8855 0.7826 0.812 0.938 0.8855 0.7826 0.8372 0.791 0.812 0.938 0.8372 0.791 0.7994 0.833 0.812 0.938 0.7994 0.833 0.791 0.8855 0.812 0.938 0.8609032 0.9692506 0.9212 0.959 0.8119999 0.938 0.9212 0.959 0.9548 0.9128 0.8119999 0.938 0.9548 0.9128 0.9506 0.8582 0.8119999 0.938 0.9506 0.8582 0.9212 0.8078 0.8119999 0.938 0.9212 0.8078 0.8855 0.7826 0.8119999 0.938 0.8855 0.7826 0.8372 0.791 0.8119999 0.938 0.8372 0.791 0.7994 0.833 0.8119999 0.938 0.7994 0.833 0.791 0.8855 0.8119999 0.938 0.875 0.9716 0.9212 0.959 0.791 0.8855 0.9212 0.959 0.9548 0.9128 0.791 0.8855 0.9548 0.9128 0.9506 0.8582 0.791 0.8855 0.9506 0.8582 0.9212 0.8078 0.791 0.8855 0.9212 0.8078 0.8855 0.7826 0.791 0.8855 0.8855 0.7826 0.8372 0.791 0.791 0.8855 0.8372 0.791 0.7994 0.833 0.791 0.8855 0.812 0.938 0.8498 0.9674 0.791 0.8855 0.8498 0.9674 0.875 0.9716 0.791 0.8855 0.9212 0.959 0.9548 0.9128 0.8604788 0.9691798 0.9548 0.9128 0.9506 0.8582 0.8604788 0.9691798 0.9506 0.8582 0.9212 0.8078 0.8604788 0.9691798 0.9212 0.8078 0.8855 0.7826 0.8604788 0.9691798 0.8855 0.7826 0.8372 0.791 0.8604788 0.9691798 0.8372 0.791 0.7994 0.833 0.8604788 0.9691798 0.7994 0.833 0.791 0.8855 0.8604788 0.9691798 0.791 0.8855 0.812 0.938 0.8604788 0.9691798</float_array>
          <technique_common>
            <accessor source="#creosote_med_a200-mesh-map-0-array" count="105" stride="2">
              <param name="S" type="float"/>
              <param name="T" type="float"/>
            </accessor>
          </technique_common>
        </source>
        <vertices id="creosote_med_a200-mesh-vertices">
          <input semantic="POSITION" source="#creosote_med_a200-mesh-positions"/>
        </vertices>
        <triangles material="ParkerVegBark-material" count="2">
          <input semantic="VERTEX" source="#creosote_med_a200-mesh-vertices" offset="0"/>
          <input semantic="NORMAL" source="#creosote_med_a200-mesh-normals" offset="1"/>
          <input semantic="TEXCOORD" source="#creosote_med_a200-mesh-map-0" offset="2" set="0"/>
          <p>2 0 0 0 0 1 1 0 2 2 1 3 1 1 4 0 1 5</p>
        </triangles>
        <triangles material="ParkerVegFoliage-material" count="33">
          <input semantic="VERTEX" source="#creosote_med_a200-mesh-vertices" offset="0"/>
          <input semantic="NORMAL" source="#creosote_med_a200-mesh-normals" offset="1"/>
          <input semantic="TEXCOORD" source="#creosote_med_a200-mesh-map-0" offset="2" set="0"/>
          <p>3 2 6 4 2 7 12 2 8 4 3 9 5 3 10 12 3 11 5 4 12 6 4 13 12 4 14 6 5 15 7 5 16 12 5 17 7 6 18 8 6 19 12 6 20 8 7 21 9 7 22 12 7 23 9 8 24 10 8 25 12 8 26 10 9 27 11 9 28 12 9 29 13 10 30 14 10 31 22 10 32 14 11 33 15 11 34 22 11 35 15 12 36 16 12 37 22 12 38 16 13 39 17 13 40 22 13 41 17 14 42 18 14 43 22 14 44 18 15 45 19 15 46 22 15 47 19 16 48 20 16 49 22 16 50 20 17 51 21 17 52 22 17 53 23 18 54 24 18 55 31 18 56 24 19 57 25 19 58 31 19 59 25 20 60 26 20 61 31 20 62 26 21 63 27 21 64 31 21 65 27 22 66 28 22 67 31 22 68 28 23 69 29 23 70 31 23 71 29 24 72 30 24 73 31 24 74 32 25 75 33 25 76 31 25 77 33 26 78 23 26 79 31 26 80 35 27 81 36 27 82 34 27 83 36 28 84 37 28 85 34 28 86 37 29 87 38 29 88 34 29 89 38 30 90 39 30 91 34 30 92 39 31 93 40 31 94 34 31 95 40 32 96 41 32 97 34 32 98 41 33 99 42 33 100 34 33 101 42 34 102 43 34 103 34 34 104</p>
        </triangles>
      </mesh>
    </geometry>
    <geometry id="Colmesh_bush-1-mesh" name="Colmesh_bush-1">
      <mesh>
        <source id="Colmesh_bush-1-mesh-positions">
          <float_array id="Colmesh_bush-1-mesh-positions-array" count="48">0 0.385 0 0 0.385 1.19 0.2722361 0.2722361 0 0.2722361 0.2722361 1.19 0.385 0 0 0.385 0 1.19 0.2722361 -0.2722361 0 0.2722361 -0.2722361 1.19 0 -0.385 0 0 -0.385 1.19 -0.2722361 -0.2722361 0 -0.2722361 -0.2722361 1.19 -0.385 0 0 -0.385 0 1.19 -0.2722361 0.2722361 0 -0.2722361 0.2722361 1.19</float_array>
          <technique_common>
            <accessor source="#Colmesh_bush-1-mesh-positions-array" count="16" stride="3">
              <param name="X" type="float"/>
              <param name="Y" type="float"/>
              <param name="Z" type="float"/>
            </accessor>
          </technique_common>
        </source>
        <source id="Colmesh_bush-1-mesh-normals">
          <float_array id="Colmesh_bush-1-mesh-normals-array" count="84">0.3826834 0.9238796 0 0.9238796 0.3826834 0 0.9238796 -0.3826834 0 0.3826834 -0.9238796 0 -0.3826834 -0.9238796 0 -0.9238796 -0.3826834 0 0 0 1 -0.9238796 0.3826834 0 -0.3826834 0.9238796 0 0 0 -1 0.3826834 0.9238796 0 0.9238796 0.3826834 0 0.9238796 -0.3826834 0 0.3826834 -0.9238796 0 -0.3826834 -0.9238796 0 -0.9238796 -0.3826834 0 0 0 1 0 0 1 0 0 1 0 0 1 0 0 1 -0.9238796 0.3826834 0 -0.3826834 0.9238796 0 0 0 -1 0 0 -1 0 0 -1 0 0 -1 0 0 -1</float_array>
          <technique_common>
            <accessor source="#Colmesh_bush-1-mesh-normals-array" count="28" stride="3">
              <param name="X" type="float"/>
              <param name="Y" type="float"/>
              <param name="Z" type="float"/>
            </accessor>
          </technique_common>
        </source>
        <source id="Colmesh_bush-1-mesh-map-0">
          <float_array id="Colmesh_bush-1-mesh-map-0-array" count="168">1 1 0.875 0.5 1 0.5 0.875 1 0.75 0.5 0.875 0.5 0.75 1 0.625 0.5 0.75 0.5 0.625 1 0.5 0.5 0.625 0.5 0.5 1 0.375 0.5 0.5 0.5 0.375 1 0.25 0.5 0.375 0.5 0.00999999 0.25 0.25 0.00999999 0.49 0.25 0.25 1 0.125 0.5 0.25 0.5 0.125 1 0 0.5 0.125 0.5 0.9197056 0.08029437 0.5802944 0.08029437 0.5802944 0.4197056 1 1 0.875 1 0.875 0.5 0.875 1 0.75 1 0.75 0.5 0.75 1 0.625 1 0.625 0.5 0.625 1 0.5 1 0.5 0.5 0.5 1 0.375 1 0.375 0.5 0.375 1 0.25 1 0.25 0.5 0.49 0.25 0.4197056 0.4197056 0.25 0.49 0.25 0.49 0.08029437 0.4197056 0.00999999 0.25 0.00999999 0.25 0.08029437 0.08029437 0.25 0.00999999 0.25 0.00999999 0.4197056 0.08029437 0.49 0.25 0.49 0.25 0.25 0.49 0.00999999 0.25 0.25 1 0.125 1 0.125 0.5 0.125 1 0 1 0 0.5 0.5802944 0.4197056 0.75 0.49 0.9197056 0.4197056 0.9197056 0.4197056 0.99 0.25 0.9197056 0.08029437 0.9197056 0.08029437 0.75 0.00999999 0.5802944 0.08029437 0.5802944 0.08029437 0.51 0.25 0.5802944 0.4197056 0.5802944 0.4197056 0.9197056 0.4197056 0.9197056 0.08029437</float_array>
          <technique_common>
            <accessor source="#Colmesh_bush-1-mesh-map-0-array" count="84" stride="2">
              <param name="S" type="float"/>
              <param name="T" type="float"/>
            </accessor>
          </technique_common>
        </source>
        <vertices id="Colmesh_bush-1-mesh-vertices">
          <input semantic="POSITION" source="#Colmesh_bush-1-mesh-positions"/>
        </vertices>
        <triangles material="Colmesh_Material-material" count="28">
          <input semantic="VERTEX" source="#Colmesh_bush-1-mesh-vertices" offset="0"/>
          <input semantic="NORMAL" source="#Colmesh_bush-1-mesh-normals" offset="1"/>
          <input semantic="TEXCOORD" source="#Colmesh_bush-1-mesh-map-0" offset="2" set="0"/>
          <p>1 0 0 2 0 1 0 0 2 3 1 3 4 1 4 2 1 5 5 2 6 6 2 7 4 2 8 7 3 9 8 3 10 6 3 11 9 4 12 10 4 13 8 4 14 11 5 15 12 5 16 10 5 17 13 6 18 9 6 19 5 6 20 13 7 21 14 7 22 12 7 23 15 8 24 0 8 25 14 8 26 6 9 27 10 9 28 14 9 29 1 10 30 3 10 31 2 10 32 3 11 33 5 11 34 4 11 35 5 12 36 7 12 37 6 12 38 7 13 39 9 13 40 8 13 41 9 14 42 11 14 43 10 14 44 11 15 45 13 15 46 12 15 47 5 16 48 3 16 49 1 16 50 1 17 51 15 17 52 13 17 53 13 18 54 11 18 55 9 18 56 9 19 57 7 19 58 5 19 59 5 20 60 1 20 61 13 20 62 13 21 63 15 21 64 14 21 65 15 22 66 1 22 67 0 22 68 14 23 69 0 23 70 2 23 71 2 24 72 4 24 73 6 24 74 6 25 75 8 25 76 10 25 77 10 26 78 12 26 79 14 26 80 14 27 81 2 27 82 6 27 83</p>
        </triangles>
      </mesh>
    </geometry>
    <geometry id="creosote_med_a800-mesh" name="creosote_med_a800">
      <mesh>
        <source id="creosote_med_a800-mesh-positions">
          <float_array id="creosote_med_a800-mesh-positions-array" count="192">0 0.04399996 0 0 0.04399996 0.49 0.03111267 0.03111267 0 0.03111267 0.03111267 0.49 0.04399996 0 0 0.04399996 0 0.49 0.03111267 -0.03111267 0 0.03111267 -0.03111267 0.49 0 -0.04399996 0 0 -0.04399996 0.49 -0.03111267 -0.03111267 0 -0.03111267 -0.03111267 0.49 -0.04399996 0 0 -0.04399996 0 0.49 -0.03111267 0.03111267 0 -0.03111267 0.03111267 0.49 0.1307548 0.01808798 0.7520965 0.1115851 0.1566622 0.7163486 0.09764355 0.2574434 0.585273 0.09938621 0.2448458 0.4303655 0.1115851 0.1566622 0.2873739 0.126398 0.04958212 0.2158781 0.1464391 -0.09529089 0.23971 0.1621234 -0.2086697 0.3588697 0.1656088 -0.2338651 0.5078192 0.1568953 -0.1708768 0.6567688 0.141211 -0.05749791 0.7401805 0.1317846 0.01064389 0.4991531 -0.01967221 0.1305258 0.9938927 -0.160104 0.1093606 0.9570858 -0.2622364 0.09396779 0.8221273 -0.2494698 0.09589189 0.6626309 -0.160104 0.1093606 0.5154034 -0.05158853 0.1257156 0.4417897 0.09522658 0.1478428 0.4663276 0.2101254 0.1651598 0.5890172 0.2356584 0.169008 0.7423791 0.1718258 0.1593875 0.8957411 0.05692696 0.1420705 0.9816237 -0.01212835 0.1316628 0.7334562 -0.1318638 -0.0059942 0.8797526 -0.12506 -0.1556689 0.8345487 -0.1201117 -0.2645232 0.6688011 -0.1207302 -0.2509164 0.4729176 -0.1250599 -0.1556689 0.292102 -0.1303175 -0.04001116 0.2016941 -0.1374306 0.1164668 0.2318301 -0.1429974 0.2389279 0.3825098 -0.1442344 0.2661415 0.5708593 -0.1411418 0.1981076 0.7592089 -0.135575 0.07564646 0.8646847 -0.1322293 0.002046108 0.5599008 -0.01061153 -0.1315727 1.023209 0.1683464 -0.146006 0.9842302 0.2984977 -0.156503 0.8413093 0.2822288 -0.1551908 0.6724029 0.1683464 -0.146006 0.5164892 0.03006064 -0.134853 0.4385324 -0.1570317 -0.1197637 0.464518 -0.3034519 -0.1079546 0.594446 -0.3359897 -0.1053304 0.7568561 -0.2546452 -0.111891 0.9192661 -0.108225 -0.1237 1.010216 -0.02022498 -0.1307974 0.7474068</float_array>
          <technique_common>
            <accessor source="#creosote_med_a800-mesh-positions-array" count="64" stride="3">
              <param name="X" type="float"/>
              <param name="Y" type="float"/>
              <param name="Z" type="float"/>
            </accessor>
          </technique_common>
        </source>
        <source id="creosote_med_a800-mesh-normals">
          <float_array id="creosote_med_a800-mesh-normals-array" count="216">0.3826835 0.9238795 0 0.9238795 0.3826835 0 0.9238795 -0.3826835 0 0.3826835 -0.9238795 0 -0.3826835 -0.9238795 0 -0.9238795 -0.3826835 0 0 0 1 -0.9238795 0.3826835 0 -0.3826835 0.9238795 0 0 0 -1 -0.9905669 -0.1370303 0 -0.9905669 -0.1370302 0 -0.9905669 -0.1370303 0 -0.9905669 -0.1370303 0 -0.9905669 -0.1370303 0 -0.9905669 -0.1370302 0 -0.9905669 -0.1370303 0 -0.9905669 -0.1370303 0 -0.9905669 -0.1370303 0 -0.9905669 -0.1370303 0 -0.9905669 -0.1370302 0 0.1490318 -0.9888325 0 0.1490318 -0.9888324 0 0.1490318 -0.9888324 0 0.1490318 -0.9888324 0 0.1490318 -0.9888324 0 0.1490319 -0.9888324 0 0.1490319 -0.9888324 0 0.1490319 -0.9888324 0 0.1490319 -0.9888323 0 0.1490318 -0.9888324 0 0.1490318 -0.9888324 0 0.9989684 0.04541069 0 0.9989684 0.04541075 0 0.9989684 0.04541075 0 0.9989685 0.04541069 0 0.9989684 0.04541069 0 0.9989684 0.04541075 0 0.9989684 0.04541075 0 0.9989684 0.04541069 0 0.9989684 0.04541069 0 0.9989684 0.04541075 0 0.9989684 0.04541075 0 0.08039063 0.9967634 0 0.08039069 0.9967635 0 0.08039063 0.9967634 1.24787e-7 0.08039063 0.9967635 0 0.08039069 0.9967634 0 0.08039069 0.9967634 0 0.08039069 0.9967635 0 0.08039069 0.9967635 0 0.08039069 0.9967635 0 0.08039063 0.9967634 0 0.08039075 0.9967635 0 0.3826835 0.9238795 0 0.9238795 0.3826835 0 0.9238795 -0.3826835 0 0.3826835 -0.9238795 0 -0.3826835 -0.9238795 0 -0.9238795 -0.3826835 0 0 0 1 0 0 1 0 0 1 0 0 1 0 0 1 -0.9238795 0.3826835 0 -0.3826835 0.9238795 0 0 0 -1 0 0 -1 0 0 -1 0 0 -1 0 0 -1</float_array>
          <technique_common>
            <accessor source="#creosote_med_a800-mesh-normals-array" count="72" stride="3">
              <param name="X" type="float"/>
              <param name="Y" type="float"/>
              <param name="Z" type="float"/>
            </accessor>
          </technique_common>
        </source>
        <source id="creosote_med_a800-mesh-map-0">
          <float_array id="creosote_med_a800-mesh-map-0-array" count="432">0.75 0.75 0.5 1 0.5 0.75 0.75 0.75 0.5 1 0.5 0.75 0.75 0.75 0.5 1 0.5 0.75 0.75 0.75 0.5 1 0.5 0.75 0.75 0.75 0.5 1 0.5 0.75 0.75 0.75 0.5 1 0.5 0.75 0.00999999 0.25 0.25 0.00999999 0.49 0.25 0.75 0.75 0.5 1 0.5 0.75 0.75 0.75 0.5 1 0.5 0.75 0.9197056 0.08029437 0.5802944 0.08029437 0.5802944 0.4197056 0.875 0.9716 0.9212 0.959 0.875 0.875 0.9212 0.959 0.9548 0.9128 0.875 0.875 0.9548 0.9128 0.9506 0.8582 0.875 0.875 0.9506 0.8582 0.9212 0.8078 0.875 0.875 0.9212 0.8078 0.8855 0.7826 0.875 0.875 0.8855 0.7826 0.8372 0.791 0.875 0.875 0.8372 0.791 0.7994 0.833 0.875 0.875 0.7994 0.833 0.791 0.8855 0.875 0.875 0.791 0.8855 0.812 0.938 0.875 0.875 0.812 0.938 0.8498 0.9674 0.875 0.875 0.8498 0.9674 0.875 0.9716 0.875 0.875 0.875 0.9716 0.9212 0.959 0.875 0.875 0.9212 0.959 0.9548 0.9128 0.875 0.875 0.9548 0.9128 0.9506 0.8582 0.875 0.875 0.9506 0.8582 0.9212 0.8078 0.875 0.875 0.9212 0.8078 0.8855 0.7826 0.875 0.875 0.8855 0.7826 0.8372 0.791 0.875 0.875 0.8372 0.791 0.7994 0.833 0.875 0.875 0.7994 0.833 0.791 0.8855 0.875 0.875 0.791 0.8855 0.812 0.938 0.875 0.875 0.812 0.938 0.8498 0.9674 0.875 0.875 0.8498 0.9674 0.875 0.9716 0.875 0.875 0.875 0.9716 0.9212 0.959 0.875 0.875 0.9212 0.959 0.9548 0.9128 0.875 0.875 0.9548 0.9128 0.9506 0.8582 0.875 0.875 0.9506 0.8582 0.9212 0.8078 0.875 0.875 0.9212 0.8078 0.8855 0.7826 0.875 0.875 0.8855 0.7826 0.8372 0.791 0.875 0.875 0.8372 0.791 0.7994 0.833 0.875 0.875 0.7994 0.833 0.791 0.8855 0.875 0.875 0.791 0.8855 0.812 0.938 0.875 0.875 0.812 0.938 0.8498 0.9674 0.875 0.875 0.8498 0.9674 0.875 0.9716 0.875 0.875 0.875 0.9716 0.9212 0.959 0.875 0.875 0.9212 0.959 0.9548 0.9128 0.875 0.875 0.9548 0.9128 0.9506 0.8582 0.875 0.875 0.9506 0.8582 0.9212 0.8078 0.875 0.875 0.9212 0.8078 0.8855 0.7826 0.875 0.875 0.8855 0.7826 0.8372 0.791 0.875 0.875 0.8372 0.791 0.7994 0.833 0.875 0.875 0.7994 0.833 0.791 0.8855 0.875 0.875 0.791 0.8855 0.812 0.938 0.875 0.875 0.812 0.938 0.8498 0.9674 0.875 0.875 0.8498 0.9674 0.875 0.9716 0.875 0.875 0.75 0.75 0.75 1 0.5 1 0.75 0.75 0.75 1 0.5 1 0.75 0.75 0.75 1 0.5 1 0.75 0.75 0.75 1 0.5 1 0.75 0.75 0.75 1 0.5 1 0.75 0.75 0.75 1 0.5 1 0.49 0.25 0.4197056 0.4197056 0.25 0.49 0.25 0.49 0.08029437 0.4197056 0.00999999 0.25 0.00999999 0.25 0.08029437 0.08029437 0.25 0.00999999 0.25 0.00999999 0.4197056 0.08029437 0.49 0.25 0.49 0.25 0.25 0.49 0.00999999 0.25 0.75 0.75 0.75 1 0.5 1 0.75 0.75 0.75 1 0.5 1 0.5802944 0.4197056 0.75 0.49 0.9197056 0.4197056 0.9197056 0.4197056 0.99 0.25 0.9197056 0.08029437 0.9197056 0.08029437 0.75 0.00999999 0.5802944 0.08029437 0.5802944 0.08029437 0.51 0.25 0.5802944 0.4197056 0.5802944 0.4197056 0.9197056 0.4197056 0.9197056 0.08029437</float_array>
          <technique_common>
            <accessor source="#creosote_med_a800-mesh-map-0-array" count="216" stride="2">
              <param name="S" type="float"/>
              <param name="T" type="float"/>
            </accessor>
          </technique_common>
        </source>
        <vertices id="creosote_med_a800-mesh-vertices">
          <input semantic="POSITION" source="#creosote_med_a800-mesh-positions"/>
        </vertices>
        <triangles material="ParkerVegBark-material" count="28">
          <input semantic="VERTEX" source="#creosote_med_a800-mesh-vertices" offset="0"/>
          <input semantic="NORMAL" source="#creosote_med_a800-mesh-normals" offset="1"/>
          <input semantic="TEXCOORD" source="#creosote_med_a800-mesh-map-0" offset="2" set="0"/>
          <p>1 0 0 2 0 1 0 0 2 3 1 3 4 1 4 2 1 5 5 2 6 6 2 7 4 2 8 7 3 9 8 3 10 6 3 11 9 4 12 10 4 13 8 4 14 11 5 15 12 5 16 10 5 17 13 6 18 9 6 19 5 6 20 13 7 21 14 7 22 12 7 23 15 8 24 0 8 25 14 8 26 6 9 27 10 9 28 14 9 29 1 54 162 3 54 163 2 54 164 3 55 165 5 55 166 4 55 167 5 56 168 7 56 169 6 56 170 7 57 171 9 57 172 8 57 173 9 58 174 11 58 175 10 58 176 11 59 177 13 59 178 12 59 179 5 60 180 3 60 181 1 60 182 1 61 183 15 61 184 13 61 185 13 62 186 11 62 187 9 62 188 9 63 189 7 63 190 5 63 191 5 64 192 1 64 193 13 64 194 13 65 195 15 65 196 14 65 197 15 66 198 1 66 199 0 66 200 14 67 201 0 67 202 2 67 203 2 68 204 4 68 205 6 68 206 6 69 207 8 69 208 10 69 209 10 70 210 12 70 211 14 70 212 14 71 213 2 71 214 6 71 215</p>
        </triangles>
        <triangles material="ParkerVegFoliage-material" count="44">
          <input semantic="VERTEX" source="#creosote_med_a800-mesh-vertices" offset="0"/>
          <input semantic="NORMAL" source="#creosote_med_a800-mesh-normals" offset="1"/>
          <input semantic="TEXCOORD" source="#creosote_med_a800-mesh-map-0" offset="2" set="0"/>
          <p>16 10 30 17 10 31 27 10 32 17 11 33 18 11 34 27 11 35 18 12 36 19 12 37 27 12 38 19 13 39 20 13 40 27 13 41 20 14 42 21 14 43 27 14 44 21 15 45 22 15 46 27 15 47 22 16 48 23 16 49 27 16 50 23 17 51 24 17 52 27 17 53 24 18 54 25 18 55 27 18 56 25 19 57 26 19 58 27 19 59 26 20 60 16 20 61 27 20 62 28 21 63 29 21 64 39 21 65 29 22 66 30 22 67 39 22 68 30 23 69 31 23 70 39 23 71 31 24 72 32 24 73 39 24 74 32 25 75 33 25 76 39 25 77 33 26 78 34 26 79 39 26 80 34 27 81 35 27 82 39 27 83 35 28 84 36 28 85 39 28 86 36 29 87 37 29 88 39 29 89 37 30 90 38 30 91 39 30 92 38 31 93 28 31 94 39 31 95 40 32 96 41 32 97 51 32 98 41 33 99 42 33 100 51 33 101 42 34 102 43 34 103 51 34 104 43 35 105 44 35 106 51 35 107 44 36 108 45 36 109 51 36 110 45 37 111 46 37 112 51 37 113 46 38 114 47 38 115 51 38 116 47 39 117 48 39 118 51 39 119 48 40 120 49 40 121 51 40 122 49 41 123 50 41 124 51 41 125 50 42 126 40 42 127 51 42 128 52 43 129 53 43 130 63 43 131 53 44 132 54 44 133 63 44 134 54 45 135 55 45 136 63 45 137 55 46 138 56 46 139 63 46 140 56 47 141 57 47 142 63 47 143 57 48 144 58 48 145 63 48 146 58 49 147 59 49 148 63 49 149 59 50 150 60 50 151 63 50 152 60 51 153 61 51 154 63 51 155 61 52 156 62 52 157 63 52 158 62 53 159 52 53 160 63 53 161</p>
        </triangles>
      </mesh>
    </geometry>
  </library_geometries>
  <library_visual_scenes>
    <visual_scene id="Scene" name="Scene">
      <node id="base00" name="base00" type="NODE">
        <matrix sid="transform">1 0 0 0 0 1 0 0 0 0 1 0 0 0 0 1</matrix>
        <node id="start01" name="start01" type="NODE">
          <matrix sid="transform">1 0 0 0 0 1 0 0 0 0 1 0 0 0 0 1</matrix>
          <node id="creosote_med_a800" name="creosote_med_a800" type="NODE">
            <matrix sid="transform">1 0 0 0 0 1 0 0 0 0 1 0 0 0 0 1</matrix>
            <instance_geometry url="#creosote_med_a800-mesh" name="creosote_med_a800">
              <bind_material>
                <technique_common>
                  <instance_material symbol="ParkerVegBark-material" target="#ParkerVegBark-material">
                    <bind_vertex_input semantic="UVMap" input_semantic="TEXCOORD" input_set="0"/>
                  </instance_material>
                  <instance_material symbol="ParkerVegFoliage-material" target="#ParkerVegFoliage-material">
                    <bind_vertex_input semantic="UVMap" input_semantic="TEXCOORD" input_set="0"/>
                  </instance_material>
                </technique_common>
              </bind_material>
            </instance_geometry>
          </node>
          <node id="creosote_med_a200" name="creosote_med_a200" type="NODE">
            <matrix sid="transform">1 0 0 0 0 1 0 0 0 0 1 0 0 0 0 1</matrix>
            <instance_geometry url="#creosote_med_a200-mesh" name="creosote_med_a200">
              <bind_material>
                <technique_common>
                  <instance_material symbol="ParkerVegBark-material" target="#ParkerVegBark-material">
                    <bind_vertex_input semantic="UVMap" input_semantic="TEXCOORD" input_set="0"/>
                  </instance_material>
                  <instance_material symbol="ParkerVegFoliage-material" target="#ParkerVegFoliage-material">
                    <bind_vertex_input semantic="UVMap" input_semantic="TEXCOORD" input_set="0"/>
                  </instance_material>
                </technique_common>
              </bind_material>
            </instance_geometry>
          </node>
          <node id="creosote_med_a50" name="creosote_med_a50" type="NODE">
            <matrix sid="transform">1 0 0 0 0 1 0 0 0 0 1 0 0 0 0 1</matrix>
            <instance_geometry url="#creosote_med_a50-mesh" name="creosote_med_a50">
              <bind_material>
                <technique_common>
                  <instance_material symbol="ParkerVegBark-material" target="#ParkerVegBark-material">
                    <bind_vertex_input semantic="UVMap" input_semantic="TEXCOORD" input_set="0"/>
                  </instance_material>
                </technique_common>
              </bind_material>
            </instance_geometry>
          </node>
          <node id="nulldetail20" name="nulldetail20" type="NODE">
            <matrix sid="transform">1 0 0 0 0 1 0 0 0 0 1 0 0 0 0 1</matrix>
          </node>
        </node>
        <node id="collision-1" name="collision-1" type="NODE">
          <matrix sid="transform">1 0 0 0 0 1 0 0 0 0 1 0 0 0 0 1</matrix>
          <node id="Colmesh_bush-1" name="Colmesh_bush-1" type="NODE">
            <matrix sid="transform">1 0 0 0 0 1 0 0 0 0 1 0 0 0 0 1</matrix>
            <instance_geometry url="#Colmesh_bush-1-mesh" name="Colmesh_bush-1">
              <bind_material>
                <technique_common>
                  <instance_material symbol="Colmesh_Material-material" target="#Colmesh_Material-material">
                    <bind_vertex_input semantic="UVMap" input_semantic="TEXCOORD" input_set="0"/>
                  </instance_material>
                </technique_common>
              </bind_material>
            </instance_geometry>
          </node>
        </node>
      </node>
    </visual_scene>
  </library_visual_scenes>
  <scene>
    <instance_visual_scene url="#Scene"/>
  </scene>
</COLLADA>