<?xml version="1.0" encoding="utf-8"?>
<COLLADA xmlns="http://www.collada.org/2005/11/COLLADASchema" version="1.4.1" xmlns:xsi="http://www.w3.org/2001/XMLSchema-instance">
  <asset>
    <contributor>
      <author>Blender User</author>
      <authoring_tool>Blender 4.2.9 LTS commit date:2025-04-14, commit time:12:24, hash:a10f621e649a</authoring_tool>
    </contributor>
    <created>2026-08-01T08:09:21</created>
    <modified>2026-08-01T08:09:21</modified>
    <unit name="meter" meter="1"/>
    <up_axis>Z_UP</up_axis>
  </asset>
  <library_effects>
    <effect id="ParkerVegBark-effect">
      <profile_COMMON>
        <newparam sid="vegetation_atlas_2048_png-surface">
          <surface type="2D">
            <init_from>vegetation_atlas_2048_png</init_from>
          </surface>
        </newparam>
        <newparam sid="vegetation_atlas_2048_png-sampler">
          <sampler2D>
            <source>vegetation_atlas_2048_png-surface</source>
          </sampler2D>
        </newparam>
        <technique sid="common">
          <lambert>
            <emission>
              <color sid="emission">0 0 0 1</color>
            </emission>
            <diffuse>
              <texture texture="vegetation_atlas_2048_png-sampler" texcoord="UVMap"/>
            </diffuse>
            <index_of_refraction>
              <float sid="ior">1.5</float>
            </index_of_refraction>
          </lambert>
        </technique>
      </profile_COMMON>
    </effect>
    <effect id="ParkerVegFoliage-effect">
      <profile_COMMON>
        <newparam sid="vegetation_atlas_2048_png-surface">
          <surface type="2D">
            <init_from>vegetation_atlas_2048_png</init_from>
          </surface>
        </newparam>
        <newparam sid="vegetation_atlas_2048_png-sampler">
          <sampler2D>
            <source>vegetation_atlas_2048_png-surface</source>
          </sampler2D>
        </newparam>
        <technique sid="common">
          <lambert>
            <emission>
              <color sid="emission">0 0 0 1</color>
            </emission>
            <diffuse>
              <texture texture="vegetation_atlas_2048_png-sampler" texcoord="UVMap"/>
            </diffuse>
            <index_of_refraction>
              <float sid="ior">1.5</float>
            </index_of_refraction>
          </lambert>
        </technique>
      </profile_COMMON>
    </effect>
    <effect id="Colmesh_Material-effect">
      <profile_COMMON>
        <technique sid="common">
          <lambert>
            <emission>
              <color sid="emission">0 0 0 1</color>
            </emission>
            <diffuse>
              <color sid="diffuse">1 0 1 1</color>
            </diffuse>
            <transparent opaque="A_ONE">
              <color sid="alpha">0 0 0 0.15</color>
            </transparent>
            <index_of_refraction>
              <float sid="ior">1.5</float>
            </index_of_refraction>
          </lambert>
        </technique>
      </profile_COMMON>
    </effect>
  </library_effects>
  <library_images>
    <image id="vegetation_atlas_2048_png" name="vegetation_atlas_2048_png">
      <init_from>vegetation_atlas_2048.png</init_from>
    </image>
  </library_images>
  <library_materials>
    <material id="ParkerVegBark-material" name="ParkerVegBark">
      <instance_effect url="#ParkerVegBark-effect"/>
    </material>
    <material id="ParkerVegFoliage-material" name="ParkerVegFoliage">
      <instance_effect url="#ParkerVegFoliage-effect"/>
    </material>
    <material id="Colmesh_Material-material" name="Colmesh_Material">
      <instance_effect url="#Colmesh_Material-effect"/>
    </material>
  </library_materials>
  <library_geometries>
    <geometry id="mesquite_large_a50-mesh" name="mesquite_large_a50">
      <mesh>
        <source id="mesquite_large_a50-mesh-positions">
          <float_array id="mesquite_large_a50-mesh-positions-array" count="24">-0.9230625 0 -0.05867999 0.9905625 0 -0.05867999 0.9905625 0 5.92668 -0.9230625 0 5.92668 0.03374999 -0.9568125 -0.05867999 0.03374999 0.9568125 -0.05867999 0.03374999 0.9568125 5.92668 0.03374999 -0.9568125 5.92668</float_array>
          <technique_common>
            <accessor source="#mesquite_large_a50-mesh-positions-array" count="8" stride="3">
              <param name="X" type="float"/>
              <param name="Y" type="float"/>
              <param name="Z" type="float"/>
            </accessor>
          </technique_common>
        </source>
        <source id="mesquite_large_a50-mesh-normals">
          <float_array id="mesquite_large_a50-mesh-normals-array" count="12">0 -1 0 1 0 0 0 -1 0 1 0 0</float_array>
          <technique_common>
            <accessor source="#mesquite_large_a50-mesh-normals-array" count="4" stride="3">
              <param name="X" type="float"/>
              <param name="Y" type="float"/>
              <param name="Z" type="float"/>
            </accessor>
          </technique_common>
        </source>
        <source id="mesquite_large_a50-mesh-map-0">
          <float_array id="mesquite_large_a50-mesh-map-0-array" count="24">1 0 0 1 0 0 1 0 0 1 0 0 1 0 1 1 0 1 1 0 1 1 0 1</float_array>
          <technique_common>
            <accessor source="#mesquite_large_a50-mesh-map-0-array" count="12" stride="2">
              <param name="S" type="float"/>
              <param name="T" type="float"/>
            </accessor>
          </technique_common>
        </source>
        <vertices id="mesquite_large_a50-mesh-vertices">
          <input semantic="POSITION" source="#mesquite_large_a50-mesh-positions"/>
        </vertices>
        <triangles material="ParkerVegBark-material" count="4">
          <input semantic="VERTEX" source="#mesquite_large_a50-mesh-vertices" offset="0"/>
          <input semantic="NORMAL" source="#mesquite_large_a50-mesh-normals" offset="1"/>
          <input semantic="TEXCOORD" source="#mesquite_large_a50-mesh-map-0" offset="2" set="0"/>
          <p>1 0 0 3 0 1 0 0 2 5 1 3 7 1 4 4 1 5 1 2 6 2 2 7 3 2 8 5 3 9 6 3 10 7 3 11</p>
        </triangles>
      </mesh>
    </geometry>
    <geometry id="mesquite_large_a200-mesh" name="mesquite_large_a200">
      <mesh>
        <source id="mesquite_large_a200-mesh-positions">
          <float_array id="mesquite_large_a200-mesh-positions-array" count="183">0.04377114 0.1705384 0 0 0.17 3.3 0.1616796 0.05253285 0 0.1486656 0.09432816 3.3 0.1486656 -0.09432816 0 0.1616796 -0.05253285 3.3 0 -0.17 0 0.04377114 -0.1705384 3.3 -0.1356515 -0.1122404 0 -0.1486656 -0.09432816 3.3 -0.1486656 0.09432816 0 -0.1356515 0.1122404 3.3 -0.4899126 0.02802163 3.057655 0.08991247 0.02802157 4.442345 -0.4479795 -0.07556498 3.038101 0.1934491 -0.03372687 4.394065 -0.5502575 -0.1150705 3.085794 0.06082177 -0.1059827 4.45591 -0.5813419 -0.00730133 3.100289 0.5440148 0.07248657 3.082883 -0.08838951 0.07654362 4.443055 0.5859478 -0.03110003 3.102437 -0.05165648 -0.02941966 4.460184 0.4899126 -0.07163041 3.057655 -0.1455379 -0.07568746 4.416407 0.4479795 0.03195613 3.038101 -0.182271 0.03027558 4.399278 0.189153 0.08894515 3.010532 -0.1042863 0.06521356 4.484843 0.2293367 -0.01701802 3.015822 0.03253126 0.04956507 4.502856 0.1266363 -0.063286 3.002301 -0.02767282 -0.07156264 4.49493 0.0864526 0.04267716 2.997011 0 0 5.868 0.6075 0 5.4225 0.945 0 4.80375 0.675 0 4.06125 0.16875 0 3.56625 -0.405 0 3.81375 -0.8775 0 4.55625 -0.7425 0 5.29875 -0.27 0 5.7195 0 0 5.868 -0.30375 0.5261104 5.4225 -0.4725 0.818394 4.80375 -0.3375 0.5845671 4.06125 -0.08437502 0.1461417 3.56625 0.2025 -0.3507403 3.81375 0.43875 -0.7599373 4.55625 0.37125 -0.6430239 5.29875 0.1350001 -0.2338268 5.7195 0 0 5.868 -0.30375 -0.5261105 5.4225 -0.4724999 -0.8183941 4.80375 -0.3374999 -0.5845672 4.06125 -0.0843749 -0.1461418 3.56625 0.2025 0.3507403 3.81375 0.4387499 0.7599374 4.55625 0.3712499 0.6430239 5.29875 0.1349999 0.2338269 5.7195</float_array>
          <technique_common>
            <accessor source="#mesquite_large_a200-mesh-positions-array" count="61" stride="3">
              <param name="X" type="float"/>
              <param name="Y" type="float"/>
              <param name="Z" type="float"/>
            </accessor>
          </technique_common>
        </source>
        <source id="mesquite_large_a200-mesh-normals">
          <float_array id="mesquite_large_a200-mesh-normals-array" count="219">0.7073843 0.7068024 -0.006162106 0.4536151 -0.8911764 -0.006162106 -0.3682003 0.9297345 -0.004732072 0.4106838 -0.8964259 -0.1666117 0.8204655 0.4077726 -0.4006968 -0.8695303 -0.3032361 0.3898266 0.9960928 -0.08826816 -0.002810239 -0.3050411 0.9437342 0.1277329 0.9278959 0.3572126 0.1068103 0.4064254 -0.9129363 0.03695434 -0.1305271 7.44662e-7 0.9914447 -0.4026975 0.9129899 -0.06545466 0 1 0 0 1 0 0 1 0 0 1 0 0 1 0 0 1 0 0 1 0 -0.8660254 -0.5000001 0 -0.8660253 -0.5000001 0 -0.8660253 -0.5000001 0 -0.8660253 -0.5000001 0 -0.8660254 -0.5000001 0 -0.8660255 -0.5000001 0 -0.8660254 -0.5000001 0 0.8660255 -0.4999999 0 0.8660254 -0.5 0 0.8660255 -0.4999999 0 0.8660255 -0.4999998 0 0.8660254 -0.5 0 0.8660255 -0.4999999 0 0.8660254 -0.4999998 0 0.4536151 0.8911764 0.006162106 -0.3917568 -0.9200624 0.003449082 0.7073843 -0.7068024 0.006162106 -0.9980149 0.06287586 0.003594517 0 0 1 0 0 -1 0.4388684 0.879558 -0.1837717 -0.4226167 0 -0.9063085 0.4226168 -7.00216e-7 0.9063085 -0.8722135 0.2328879 0.4301244 0.8266608 0.4078252 0.3876989 0.3704653 -0.9130581 0.1705301 -0.8283615 -0.4078263 -0.3840507 -0.422617 8.15255e-7 0.9063083 -0.3687654 0.9130574 -0.1741788 0.4226176 1.63051e-7 -0.9063081 -0.8658201 -0.4917805 -0.0922361 0.1086634 0.9933665 0.03761774 0.8834453 -0.4480623 0.1369842 0.1305276 7.42789e-7 -0.9914447 -0.3917568 0.9200624 -0.003449082 0.3041945 -0.9437786 -0.1294124 0.9960928 0.08826816 0.002810239 -0.3682003 -0.9297345 0.004732072 -0.9980149 -0.06287586 -0.003594517 0 0 1 0 0 1 0 0 1 0 0 -1 0 0 -1 0 0 -1 -0.4226193 1.36808e-6 -0.9063073 0.8473471 0.3572527 0.3929038 0.3229303 -0.9340056 0.1528055 -0.8456456 -0.3572539 -0.3965517 -0.4226173 4.52921e-7 0.9063083 -0.3246315 0.9340056 -0.1491574 0.4226182 -1.35876e-7 -0.9063078 -0.9270976 -0.3572409 -0.113442 0.1305276 7.47319e-7 -0.9914447</float_array>
          <technique_common>
            <accessor source="#mesquite_large_a200-mesh-normals-array" count="73" stride="3">
              <param name="X" type="float"/>
              <param name="Y" type="float"/>
              <param name="Z" type="float"/>
            </accessor>
          </technique_common>
        </source>
        <source id="mesquite_large_a200-mesh-map-0">
          <float_array id="mesquite_large_a200-mesh-map-0-array" count="438">0.75 0.9013416 0.5 1 0.5 0.75 0.75 0.9013416 0.5 1 0.5 0.75 0.5 0.75 0.75 1 0.5 1 0.75 1 0.5 0.75 0.75 0.75 0.75 0.8931552 0.5 1 0.5 0.75 0.5 0.75 0.75 0.9038458 0.5 1 0.5 0.75 0.75 1 0.5 1 0.5 0.75 0.75 0.8749997 0.5 1 0.5 0.75 0.75 0.8461541 0.5 1 0.75 0.8931549 0.5 1 0.5 0.75 0.2739405 0.06016838 0.446742 0.3544341 0.09884035 0.3673027 0.75 0.8750001 0.5 1 0.5 0.75 0.9338 0.8855 0.917 0.8225 0.9128 0.938 0.917 0.8225 0.8855 0.7805 0.9128 0.938 0.8855 0.7805 0.8498 0.8015 0.9128 0.938 0.8498 0.8015 0.8204 0.8645 0.9128 0.938 0.8204 0.8645 0.8288 0.9275 0.9128 0.938 0.8288 0.9275 0.8582 0.9632 0.9128 0.938 0.8582 0.9632 0.875 0.9758 0.9128 0.938 0.9338 0.8855 0.917 0.8225 0.9128 0.938 0.917 0.8225 0.8855 0.7805 0.9128 0.938 0.8855 0.7805 0.8498 0.8015 0.9128 0.938 0.8498 0.8015 0.8204 0.8645 0.9128 0.938 0.8204 0.8645 0.8288 0.9275 0.9128 0.938 0.8288 0.9275 0.8582 0.9632 0.9128 0.938 0.8582 0.9632 0.875 0.9758 0.9128 0.938 0.9338 0.8855 0.917 0.8225 0.9128 0.938 0.917 0.8225 0.8855 0.7805 0.9128 0.938 0.8855 0.7805 0.8498 0.8015 0.9128 0.938 0.8498 0.8015 0.8204 0.8645 0.9128 0.938 0.8204 0.8645 0.8288 0.9275 0.9128 0.938 0.8288 0.9275 0.8582 0.9632 0.9128 0.938 0.8582 0.9632 0.875 0.9758 0.9128 0.938 0.75 0.75 0.75 1 0.5 0.8486585 0.5 0.75 0.75 1 0.5 1 0.75 0.75 0.75 1 0.5 0.8486585 0.5 1 0.75 0.75 0.75 1 0.25 0.49 0.05615264 0.1284798 0.4782536 0.1758359 0.5561527 0.3715202 0.9782536 0.3241641 0.75 0.00999999 0.5 0.8749995 0.75 0.75 0.75 1 0.6455656 0.05325806 0.8348525 0.4548529 0.9548528 0.1651472 0.4398317 0.2739403 0.1651469 0.4548527 0.1132708 0.1221809 0.75 0.75 0.75 1 0.5 0.9038463 0.5 0.75 0.75 1 0.5 1 0.5 1 0.75 0.75 0.75 1 0.5 0.75 0.75 1 0.5 1 0.04514706 0.3348525 0.4548527 0.1651468 0.3348526 0.4548529 0.5 1 0.75 0.75 0.75 1 0.8348528 0.4548528 0.6651474 0.04514712 0.5451472 0.3348528 0.75 1 0.5 0.75 0.75 0.75 0.5 0.8749999 0.75 0.75 0.75 1 0.5 0.8749999 0.75 0.75 0.75 1 0.9548528 0.1651473 0.5451471 0.3348528 0.8348528 0.4548528 0.5 0.75 0.75 0.75 0.75 1 0.75 1 0.5 1 0.5 0.75 0.5 0.75 0.75 0.75 0.75 1 0.5 0.75 0.75 0.75 0.75 1 0.5 1 0.5 0.75 0.75 0.75 0.4782536 0.1758359 0.4438474 0.3715202 0.25 0.49 0.25 0.49 0.07452535 0.396808 0.05615264 0.1284798 0.05615264 0.1284798 0.3056704 0.02808839 0.4782536 0.1758359 0.75 0.00999999 0.5745254 0.1031919 0.5561527 0.3715202 0.5561527 0.3715202 0.8056704 0.4719116 0.9782536 0.3241641 0.9782536 0.3241641 0.9438473 0.1284798 0.75 0.00999999 0.6455656 0.05325806 0.5532581 0.3544343 0.8348525 0.4548529 0.5 0.75 0.75 0.75 0.75 1 0.5 1 0.5 0.75 0.75 0.75 0.5 0.75 0.75 0.75 0.75 1 0.04514706 0.3348525 0.1651472 0.04514718 0.4548527 0.1651468 0.5 1 0.5 0.75 0.75 0.75 0.8348528 0.4548528 0.9548527 0.1651469 0.6651474 0.04514712 0.75 1 0.5 1 0.5 0.75 0.9548528 0.1651473 0.6651473 0.04514712 0.5451471 0.3348528</float_array>
          <technique_common>
            <accessor source="#mesquite_large_a200-mesh-map-0-array" count="219" stride="2">
              <param name="S" type="float"/>
              <param name="T" type="float"/>
            </accessor>
          </technique_common>
        </source>
        <vertices id="mesquite_large_a200-mesh-vertices">
          <input semantic="POSITION" source="#mesquite_large_a200-mesh-positions"/>
        </vertices>
        <triangles material="ParkerVegBark-material" count="52">
          <input semantic="VERTEX" source="#mesquite_large_a200-mesh-vertices" offset="0"/>
          <input semantic="NORMAL" source="#mesquite_large_a200-mesh-normals" offset="1"/>
          <input semantic="TEXCOORD" source="#mesquite_large_a200-mesh-map-0" offset="2" set="0"/>
          <p>3 0 0 2 0 1 0 0 2 7 1 3 6 1 4 4 1 5 10 2 6 1 2 7 0 2 8 17 3 9 14 3 10 15 3 11 15 4 12 14 4 13 12 4 14 16 5 15 17 5 16 18 5 17 2 6 18 5 6 19 4 6 20 18 7 21 13 7 22 12 7 23 27 8 24 30 8 25 29 8 26 32 9 27 31 9 28 29 9 29 32 10 30 30 10 31 28 10 32 28 11 33 27 11 34 33 11 35 1 33 99 3 33 100 0 33 101 6 34 102 9 34 103 8 34 104 5 35 105 7 35 106 4 35 107 10 36 108 9 36 109 11 36 110 1 37 111 9 37 112 5 37 113 10 38 114 2 38 115 6 38 116 12 39 117 13 39 118 15 39 119 16 40 120 12 40 121 14 40 122 15 41 123 13 41 124 17 41 125 17 42 126 13 42 127 18 42 128 19 43 129 22 43 130 21 43 131 23 44 132 22 44 133 24 44 134 23 45 135 26 45 136 25 45 137 26 46 138 22 46 139 20 46 140 19 47 141 26 47 142 20 47 143 19 48 144 23 48 145 25 48 146 28 49 147 31 49 148 32 49 149 27 50 150 28 50 151 30 50 152 29 51 153 30 51 154 32 51 155 29 52 156 33 52 157 27 52 158 10 53 159 11 53 160 1 53 161 17 54 162 16 54 163 14 54 164 2 55 165 3 55 166 5 55 167 6 56 168 7 56 169 9 56 170 10 57 171 8 57 172 9 57 173 5 58 174 3 58 175 1 58 176 1 59 177 11 59 178 9 59 179 9 60 180 7 60 181 5 60 182 6 61 183 8 61 184 10 61 185 10 62 186 0 62 187 2 62 188 2 63 189 4 63 190 6 63 191 16 64 192 18 64 193 12 64 194 19 65 195 20 65 196 22 65 197 23 66 198 21 66 199 22 66 200 23 67 201 24 67 202 26 67 203 26 68 204 24 68 205 22 68 206 19 69 207 25 69 208 26 69 209 19 70 210 21 70 211 23 70 212 28 71 213 33 71 214 31 71 215 29 72 216 31 72 217 33 72 218</p>
        </triangles>
        <triangles material="ParkerVegFoliage-material" count="21">
          <input semantic="VERTEX" source="#mesquite_large_a200-mesh-vertices" offset="0"/>
          <input semantic="NORMAL" source="#mesquite_large_a200-mesh-normals" offset="1"/>
          <input semantic="TEXCOORD" source="#mesquite_large_a200-mesh-map-0" offset="2" set="0"/>
          <p>36 12 36 37 12 37 35 12 38 37 13 39 38 13 40 35 13 41 38 14 42 39 14 43 35 14 44 39 15 45 40 15 46 35 15 47 40 16 48 41 16 49 35 16 50 41 17 51 42 17 52 35 17 53 42 18 54 34 18 55 35 18 56 45 19 57 46 19 58 44 19 59 46 20 60 47 20 61 44 20 62 47 21 63 48 21 64 44 21 65 48 22 66 49 22 67 44 22 68 49 23 69 50 23 70 44 23 71 50 24 72 51 24 73 44 24 74 51 25 75 43 25 76 44 25 77 54 26 78 55 26 79 53 26 80 55 27 81 56 27 82 53 27 83 56 28 84 57 28 85 53 28 86 57 29 87 58 29 88 53 29 89 58 30 90 59 30 91 53 30 92 59 31 93 60 31 94 53 31 95 60 32 96 52 32 97 53 32 98</p>
        </triangles>
      </mesh>
    </geometry>
    <geometry id="Colmesh_canopy-1-mesh" name="Colmesh_canopy-1">
      <mesh>
        <source id="Colmesh_canopy-1-mesh-positions">
          <float_array id="Colmesh_canopy-1-mesh-positions-array" count="48">0 1.575 3.63 0 1.575 5.73 1.113693 1.113693 3.63 1.113693 1.113693 5.73 1.575 0 3.63 1.575 0 5.73 1.113693 -1.113693 3.63 1.113693 -1.113693 5.73 0 -1.575 3.63 0 -1.575 5.73 -1.113693 -1.113693 3.63 -1.113693 -1.113693 5.73 -1.575 0 3.63 -1.575 0 5.73 -1.113693 1.113693 3.63 -1.113693 1.113693 5.73</float_array>
          <technique_common>
            <accessor source="#Colmesh_canopy-1-mesh-positions-array" count="16" stride="3">
              <param name="X" type="float"/>
              <param name="Y" type="float"/>
              <param name="Z" type="float"/>
            </accessor>
          </technique_common>
        </source>
        <source id="Colmesh_canopy-1-mesh-normals">
          <float_array id="Colmesh_canopy-1-mesh-normals-array" count="84">0.3826834 0.9238796 0 0.9238796 0.3826834 0 0.9238796 -0.3826834 0 0.3826834 -0.9238796 0 -0.3826834 -0.9238796 0 -0.9238796 -0.3826834 0 0 0 1 -0.9238796 0.3826834 0 -0.3826834 0.9238796 0 0 0 -1 0.3826834 0.9238796 0 0.9238796 0.3826834 0 0.9238796 -0.3826834 0 0.3826834 -0.9238796 0 -0.3826834 -0.9238796 0 -0.9238796 -0.3826834 0 0 0 1 0 0 1 0 0 1 0 0 1 0 0 1 -0.9238796 0.3826834 0 -0.3826834 0.9238796 0 0 0 -1 0 0 -1 0 0 -1 0 0 -1 0 0 -1</float_array>
          <technique_common>
            <accessor source="#Colmesh_canopy-1-mesh-normals-array" count="28" stride="3">
              <param name="X" type="float"/>
              <param name="Y" type="float"/>
              <param name="Z" type="float"/>
            </accessor>
          </technique_common>
        </source>
        <source id="Colmesh_canopy-1-mesh-map-0">
          <float_array id="Colmesh_canopy-1-mesh-map-0-array" count="168">1 1 0.875 0.5 1 0.5 0.875 1 0.75 0.5 0.875 0.5 0.75 1 0.625 0.5 0.75 0.5 0.625 1 0.5 0.5 0.625 0.5 0.5 1 0.375 0.5 0.5 0.5 0.375 1 0.25 0.5 0.375 0.5 0.4197056 0.08029437 0.49 0.25 0.00999999 0.25 0.25 1 0.125 0.5 0.25 0.5 0.125 1 0 0.5 0.125 0.5 0.51 0.25 0.5802944 0.4197056 0.9197056 0.08029437 1 1 0.875 1 0.875 0.5 0.875 1 0.75 1 0.75 0.5 0.75 1 0.625 1 0.625 0.5 0.625 1 0.5 1 0.5 0.5 0.5 1 0.375 1 0.375 0.5 0.375 1 0.25 1 0.25 0.5 0.49 0.25 0.4197056 0.4197056 0.25 0.49 0.25 0.49 0.08029437 0.4197056 0.49 0.25 0.08029437 0.4197056 0.00999999 0.25 0.49 0.25 0.00999999 0.25 0.08029437 0.08029437 0.25 0.00999999 0.25 0.00999999 0.4197056 0.08029437 0.00999999 0.25 0.25 1 0.125 1 0.125 0.5 0.125 1 0 1 0 0.5 0.5802944 0.4197056 0.75 0.49 0.9197056 0.4197056 0.9197056 0.4197056 0.99 0.25 0.5802944 0.4197056 0.99 0.25 0.9197056 0.08029437 0.5802944 0.4197056 0.9197056 0.08029437 0.75 0.00999999 0.5802944 0.08029437 0.5802944 0.08029437 0.51 0.25 0.9197056 0.08029437</float_array>
          <technique_common>
            <accessor source="#Colmesh_canopy-1-mesh-map-0-array" count="84" stride="2">
              <param name="S" type="float"/>
              <param name="T" type="float"/>
            </accessor>
          </technique_common>
        </source>
        <vertices id="Colmesh_canopy-1-mesh-vertices">
          <input semantic="POSITION" source="#Colmesh_canopy-1-mesh-positions"/>
        </vertices>
        <triangles material="Colmesh_Material-material" count="28">
          <input semantic="VERTEX" source="#Colmesh_canopy-1-mesh-vertices" offset="0"/>
          <input semantic="NORMAL" source="#Colmesh_canopy-1-mesh-normals" offset="1"/>
          <input semantic="TEXCOORD" source="#Colmesh_canopy-1-mesh-map-0" offset="2" set="0"/>
          <p>1 0 0 2 0 1 0 0 2 3 1 3 4 1 4 2 1 5 5 2 6 6 2 7 4 2 8 7 3 9 8 3 10 6 3 11 9 4 12 10 4 13 8 4 14 11 5 15 12 5 16 10 5 17 7 6 18 5 6 19 13 6 20 13 7 21 14 7 22 12 7 23 15 8 24 0 8 25 14 8 26 12 9 27 14 9 28 6 9 29 1 10 30 3 10 31 2 10 32 3 11 33 5 11 34 4 11 35 5 12 36 7 12 37 6 12 38 7 13 39 9 13 40 8 13 41 9 14 42 11 14 43 10 14 44 11 15 45 13 15 46 12 15 47 5 16 48 3 16 49 1 16 50 1 17 51 15 17 52 5 17 53 15 18 54 13 18 55 5 18 56 13 19 57 11 19 58 9 19 59 9 20 60 7 20 61 13 20 62 13 21 63 15 21 64 14 21 65 15 22 66 1 22 67 0 22 68 14 23 69 0 23 70 2 23 71 2 24 72 4 24 73 14 24 74 4 25 75 6 25 76 14 25 77 6 26 78 8 26 79 10 26 80 10 27 81 12 27 82 6 27 83</p>
        </triangles>
      </mesh>
    </geometry>
    <geometry id="Colmesh_trunk-1-mesh" name="Colmesh_trunk-1">
      <mesh>
        <source id="Colmesh_trunk-1-mesh-positions">
          <float_array id="Colmesh_trunk-1-mesh-positions-array" count="48">0 0.221 0 0 0.221 3.3 0.1562706 0.1562706 0 0.1562706 0.1562706 3.3 0.221 0 0 0.221 0 3.3 0.1562706 -0.1562706 0 0.1562706 -0.1562706 3.3 0 -0.221 0 0 -0.221 3.3 -0.1562706 -0.1562706 0 -0.1562706 -0.1562706 3.3 -0.221 0 0 -0.221 0 3.3 -0.1562706 0.1562706 0 -0.1562706 0.1562706 3.3</float_array>
          <technique_common>
            <accessor source="#Colmesh_trunk-1-mesh-positions-array" count="16" stride="3">
              <param name="X" type="float"/>
              <param name="Y" type="float"/>
              <param name="Z" type="float"/>
            </accessor>
          </technique_common>
        </source>
        <source id="Colmesh_trunk-1-mesh-normals">
          <float_array id="Colmesh_trunk-1-mesh-normals-array" count="84">0.3826835 0.9238795 0 0.9238795 0.3826835 0 0.9238795 -0.3826835 0 0.3826835 -0.9238795 0 -0.3826835 -0.9238795 0 -0.9238795 -0.3826835 0 0 0 1 -0.9238795 0.3826835 0 -0.3826835 0.9238795 0 0 0 -1 0.3826835 0.9238795 0 0.9238795 0.3826835 0 0.9238795 -0.3826835 0 0.3826835 -0.9238795 0 -0.3826835 -0.9238795 0 -0.9238795 -0.3826835 0 0 0 1 0 0 1 0 0 1 0 0 1 0 0 1 -0.9238795 0.3826835 0 -0.3826835 0.9238795 0 0 0 -1 0 0 -1 0 0 -1 0 0 -1 0 0 -1</float_array>
          <technique_common>
            <accessor source="#Colmesh_trunk-1-mesh-normals-array" count="28" stride="3">
              <param name="X" type="float"/>
              <param name="Y" type="float"/>
              <param name="Z" type="float"/>
            </accessor>
          </technique_common>
        </source>
        <source id="Colmesh_trunk-1-mesh-map-0">
          <float_array id="Colmesh_trunk-1-mesh-map-0-array" count="168">1 1 0.875 0.5 1 0.5 0.875 1 0.75 0.5 0.875 0.5 0.75 1 0.625 0.5 0.75 0.5 0.625 1 0.5 0.5 0.625 0.5 0.5 1 0.375 0.5 0.5 0.5 0.375 1 0.25 0.5 0.375 0.5 0.4197056 0.08029437 0.49 0.25 0.00999999 0.25 0.25 1 0.125 0.5 0.25 0.5 0.125 1 0 0.5 0.125 0.5 0.51 0.25 0.5802944 0.4197056 0.9197056 0.08029437 1 1 0.875 1 0.875 0.5 0.875 1 0.75 1 0.75 0.5 0.75 1 0.625 1 0.625 0.5 0.625 1 0.5 1 0.5 0.5 0.5 1 0.375 1 0.375 0.5 0.375 1 0.25 1 0.25 0.5 0.49 0.25 0.4197056 0.4197056 0.25 0.49 0.25 0.49 0.08029437 0.4197056 0.49 0.25 0.08029437 0.4197056 0.00999999 0.25 0.49 0.25 0.00999999 0.25 0.08029437 0.08029437 0.25 0.00999999 0.25 0.00999999 0.4197056 0.08029437 0.00999999 0.25 0.25 1 0.125 1 0.125 0.5 0.125 1 0 1 0 0.5 0.5802944 0.4197056 0.75 0.49 0.9197056 0.4197056 0.9197056 0.4197056 0.99 0.25 0.5802944 0.4197056 0.99 0.25 0.9197056 0.08029437 0.5802944 0.4197056 0.9197056 0.08029437 0.75 0.00999999 0.5802944 0.08029437 0.5802944 0.08029437 0.51 0.25 0.9197056 0.08029437</float_array>
          <technique_common>
            <accessor source="#Colmesh_trunk-1-mesh-map-0-array" count="84" stride="2">
              <param name="S" type="float"/>
              <param name="T" type="float"/>
            </accessor>
          </technique_common>
        </source>
        <vertices id="Colmesh_trunk-1-mesh-vertices">
          <input semantic="POSITION" source="#Colmesh_trunk-1-mesh-positions"/>
        </vertices>
        <triangles material="Colmesh_Material-material" count="28">
          <input semantic="VERTEX" source="#Colmesh_trunk-1-mesh-vertices" offset="0"/>
          <input semantic="NORMAL" source="#Colmesh_trunk-1-mesh-normals" offset="1"/>
          <input semantic="TEXCOORD" source="#Colmesh_trunk-1-mesh-map-0" offset="2" set="0"/>
          <p>1 0 0 2 0 1 0 0 2 3 1 3 4 1 4 2 1 5 5 2 6 6 2 7 4 2 8 7 3 9 8 3 10 6 3 11 9 4 12 10 4 13 8 4 14 11 5 15 12 5 16 10 5 17 7 6 18 5 6 19 13 6 20 13 7 21 14 7 22 12 7 23 15 8 24 0 8 25 14 8 26 12 9 27 14 9 28 6 9 29 1 10 30 3 10 31 2 10 32 3 11 33 5 11 34 4 11 35 5 12 36 7 12 37 6 12 38 7 13 39 9 13 40 8 13 41 9 14 42 11 14 43 10 14 44 11 15 45 13 15 46 12 15 47 5 16 48 3 16 49 1 16 50 1 17 51 15 17 52 5 17 53 15 18 54 13 18 55 5 18 56 13 19 57 11 19 58 9 19 59 9 20 60 7 20 61 13 20 62 13 21 63 15 21 64 14 21 65 15 22 66 1 22 67 0 22 68 14 23 69 0 23 70 2 23 71 2 24 72 4 24 73 14 24 74 4 25 75 6 25 76 14 25 77 6 26 78 8 26 79 10 26 80 10 27 81 12 27 82 6 27 83</p>
        </triangles>
      </mesh>
    </geometry>
    <geometry id="mesquite_large_a800-mesh" name="mesquite_large_a800">
      <mesh>
        <source id="mesquite_large_a800-mesh-positions">
          <float_array id="mesquite_large_a800-mesh-positions-array" count="294">0 0.17 0 0 0.17 3.3 0.09992349 0.1375328 0 0.09992349 0.1375328 3.3 0.1616796 0.05253285 0 0.1616796 0.05253285 3.3 0.1616796 -0.05253285 0 0.1616796 -0.05253285 3.3 0.09992349 -0.1375328 0 0.09992349 -0.1375328 3.3 0 -0.17 0 0 -0.17 3.3 -0.09992349 -0.1375328 0 -0.09992349 -0.1375328 3.3 -0.1616796 -0.05253285 0 -0.1616796 -0.05253285 3.3 -0.1616796 0.05253285 0 -0.1616796 0.05253285 3.3 -0.09992349 0.1375328 0 -0.09992349 0.1375328 3.3 -0.5169637 0.03246307 3.070269 0.1169637 0.03246307 4.429731 -0.4679382 0.01005673 3.047408 0.1659892 0.01005673 4.40687 -0.4476312 -0.04403686 3.037939 0.1862962 -0.04403686 4.3974 -0.4679382 -0.09813052 3.047408 0.1659892 -0.09813052 4.40687 -0.5169637 -0.1205369 3.070269 0.1169637 -0.1205369 4.429731 -0.5659892 -0.09813052 3.09313 0.06793814 -0.09813052 4.452592 -0.5862963 -0.04403686 3.102599 0.04763114 -0.04403686 4.462061 -0.5659892 0.01005673 3.09313 0.06793814 0.01005673 4.452592 0.5169637 0.07692807 3.070269 -0.1169637 0.07692807 4.429731 0.5659892 0.05452173 3.09313 -0.06793814 0.05452173 4.452592 0.5862963 4.28089e-4 3.102599 -0.04763114 4.28089e-4 4.462061 0.5659892 -0.05366557 3.09313 -0.06793814 -0.05366557 4.452592 0.5169637 -0.07607191 3.070269 -0.1169637 -0.07607191 4.429731 0.4679382 -0.05366557 3.047408 -0.1659892 -0.05366557 4.40687 0.4476312 4.28089e-4 3.037939 -0.1862962 4.28089e-4 4.3974 0.4679382 0.05452173 3.047408 -0.1659892 0.05452173 4.40687 0.1578946 0.08932954 3.006416 -0.0378946 0.08932954 4.493584 0.2115255 0.0669232 3.013477 0.01573622 0.0669232 4.500644 0.2337402 0.01282954 3.016402 0.03795087 0.01282954 4.503569 0.2115255 -0.04126405 3.013477 0.01573622 -0.04126405 4.500644 0.1578946 -0.06367039 3.006416 -0.0378946 -0.06367039 4.493584 0.1042637 -0.04126405 2.999356 -0.09152549 -0.04126405 4.486523 0.08204907 0.01282954 2.996431 -0.1137402 0.01282954 4.483598 0.1042637 0.0669232 2.999356 -0.09152549 0.0669232 4.486523 0 0 5.868 0.6075 0 5.4225 0.945 0 4.80375 0.675 0 4.06125 0.16875 0 3.56625 -0.405 0 3.81375 -0.8775 0 4.55625 -0.7425 0 5.29875 -0.27 0 5.7195 0.01124995 0 4.79 0 0 5.868 -0.30375 0.5261104 5.4225 -0.4725 0.818394 4.80375 -0.3375 0.5845671 4.06125 -0.08437502 0.1461417 3.56625 0.2025 -0.3507403 3.81375 0.43875 -0.7599373 4.55625 0.37125 -0.6430239 5.29875 0.1350001 -0.2338268 5.7195 -0.005624949 0.009742736 4.79 0 0 5.868 -0.30375 -0.5261105 5.4225 -0.4724999 -0.8183941 4.80375 -0.3374999 -0.5845672 4.06125 -0.0843749 -0.1461418 3.56625 0.2025 0.3507403 3.81375 0.4387499 0.7599374 4.55625 0.3712499 0.6430239 5.29875 0.1349999 0.2338269 5.7195 -0.005624949 -0.009742736 4.79</float_array>
          <technique_common>
            <accessor source="#mesquite_large_a800-mesh-positions-array" count="98" stride="3">
              <param name="X" type="float"/>
              <param name="Y" type="float"/>
              <param name="Z" type="float"/>
            </accessor>
          </technique_common>
        </source>
        <source id="mesquite_large_a800-mesh-normals">
          <float_array id="mesquite_large_a800-mesh-normals-array" count="441">0.309017 0.9510565 0 0.8090169 0.5877853 0 1 0 0 0.8090169 -0.5877853 0 0.309017 -0.9510565 0 -0.309017 -0.9510565 0 -0.8090169 -0.5877853 0 -1 0 0 0 0 1 -0.8090169 0.5877853 0 -0.309017 0.9510565 0 0 0 -1 0.3468288 0.9238796 -0.1617289 0.8373196 0.3826825 -0.3904486 0.8373194 -0.3826828 -0.3904485 0.3468289 -0.9238796 -0.1617289 -0.3468292 -0.9238795 0.161729 -0.8373191 -0.3826836 0.3904483 0.4226155 0 0.9063091 -0.8373191 0.3826835 0.3904483 -0.3468292 0.9238794 0.161729 -0.4226157 0 -0.906309 0.3468291 0.9238795 0.161729 0.8373191 0.3826836 0.3904483 0.8373191 -0.3826835 0.3904483 0.3468292 -0.9238794 0.161729 -0.3468288 -0.9238796 -0.1617289 -0.8373196 -0.3826825 -0.3904486 -0.4226211 6.21917e-6 0.9063065 -0.8373194 0.3826828 -0.3904485 -0.3468288 0.9238796 -0.1617289 0.4226188 0 -0.9063075 0.3794096 0.9238795 0.04995018 0.9159756 0.3826835 0.1205905 0.9159756 -0.3826836 0.1205905 0.3794096 -0.9238795 0.04995018 -0.3794096 -0.9238795 -0.04995018 -0.9159756 -0.3826836 -0.1205905 -0.1305286 -4.56443e-6 0.9914445 -0.9159755 0.3826837 -0.1205905 -0.3794096 0.9238795 -0.04995018 0.1305241 0 -0.9914451 0 1 0 0 1 0 0 1 0 0 1 0 0 1 0 0 1 0 0 1 0 0 1 0 0 1 0 -0.8660253 -0.5000001 0 -0.8660253 -0.5000001 0 -0.8660254 -0.5000001 0 -0.8660254 -0.5000001 0 -0.8660254 -0.5000001 0 -0.8660254 -0.5000001 0 -0.8660254 -0.5000001 0 -0.8660255 -0.5 0 -0.8660253 -0.5000001 0 0.8660255 -0.4999998 0 0.8660255 -0.4999999 0 0.8660255 -0.4999999 0 0.8660255 -0.4999999 0 0.8660254 -0.4999999 0 0.8660255 -0.4999999 0 0.8660255 -0.4999999 0 0.8660255 -0.4999999 0 0.8660255 -0.4999999 0 0.309017 0.9510565 0 0.8090169 0.5877853 0 1 0 0 0.8090169 -0.5877853 0 0.309017 -0.9510565 0 -0.309017 -0.9510565 0 -0.8090169 -0.5877853 0 -1 0 0 0 0 1 0 0 1 0 0 1 0 0 1 0 0 1 0 0 1 0 0 1 -0.8090169 0.5877853 0 -0.309017 0.9510565 0 0 0 -1 0 0 -1 0 0 -1 0 0 -1 0 0 -1 0 0 -1 0 0 -1 0.3468289 0.9238795 -0.161729 0.8373188 0.3826846 -0.3904482 0.8373188 -0.3826847 -0.3904481 0.3468291 -0.9238795 -0.161729 -0.3468291 -0.9238795 0.161729 -0.8373199 -0.3826817 0.3904486 0.4226175 -3.42175e-6 0.9063082 0.4226211 -6.21917e-6 0.9063065 0.4226211 6.21917e-6 0.9063065 0.4226174 3.42175e-6 0.9063081 0.4226206 0 0.9063068 -0.8373199 0.3826817 0.3904486 -0.3468289 0.9238795 0.161729 -0.4226189 -1.54727e-7 -0.9063075 -0.4226186 0 -0.9063076 -0.4226167 0 -0.9063085 -0.4226186 1.54727e-7 -0.9063076 -0.422619 0 -0.9063075 0.3468289 0.9238795 0.161729 0.8373199 0.3826817 0.3904486 0.8373199 -0.3826817 0.3904486 0.3468289 -0.9238795 0.161729 -0.3468289 -0.9238795 -0.161729 -0.8373188 -0.3826846 -0.3904482 -0.4226211 -6.21917e-6 0.9063065 -0.4226178 -2.58601e-6 0.9063079 -0.422618 -3.16486e-6 0.9063079 -0.422618 3.16486e-6 0.9063079 -0.4226178 2.58601e-6 0.9063079 -0.8373188 0.3826846 -0.3904482 -0.3468289 0.9238795 -0.161729 0.4226188 -5.2827e-7 -0.9063076 0.4226157 0 -0.9063089 0.4226188 5.2827e-7 -0.9063076 0.4226188 9.34943e-7 -0.9063075 0.4226182 -6.61105e-7 -0.9063078 0.3794096 0.9238795 0.04995018 0.9159753 0.3826841 0.1205904 0.9159753 -0.3826841 0.1205904 0.3794096 -0.9238795 0.04995018 -0.3794097 -0.9238795 -0.04995024 -0.9159754 -0.3826839 -0.1205905 -0.1305286 4.56443e-6 0.9914445 -0.1305254 -3.24246e-6 0.9914449 -0.1305209 -7.80999e-6 0.9914456 -0.1305209 7.80999e-6 0.9914456 -0.1305254 3.24246e-6 0.9914449 -0.9159754 0.3826839 -0.1205905 -0.3794097 0.9238795 -0.04995024 0.1305241 0 -0.9914451 0.1305292 0 -0.9914444 0.1305241 0 -0.9914451 0.1305291 0 -0.9914445 0.1305241 0 -0.9914451</float_array>
          <technique_common>
            <accessor source="#mesquite_large_a800-mesh-normals-array" count="147" stride="3">
              <param name="X" type="float"/>
              <param name="Y" type="float"/>
              <param name="Z" type="float"/>
            </accessor>
          </technique_common>
        </source>
        <source id="mesquite_large_a800-mesh-map-0">
          <float_array id="mesquite_large_a800-mesh-map-0-array" count="882">0.75 0.75 0.5 1 0.5 0.75 0.75 0.75 0.5 1 0.5 0.75 0.75 0.75 0.5 1 0.5 0.75 0.75 0.75 0.5 1 0.5 0.75 0.75 0.75 0.5 1 0.5 0.75 0.75 0.75 0.5 1 0.5 0.75 0.75 0.75 0.5 1 0.5 0.75 0.75 0.75 0.5 1 0.5 0.75 0.02174639 0.3241641 0.1089316 0.0558359 0.3910685 0.0558359 0.75 0.75 0.5 1 0.5 0.75 0.75 0.75 0.5 1 0.5 0.75 0.9782536 0.1758359 0.75 0.00999999 0.5217465 0.1758359 0.75 0.75 0.5 1 0.5 0.75 0.5 0.75 0.75 1 0.5 1 0.75 0.75 0.5 1 0.5 0.75 0.75 0.75 0.5 1 0.5 0.75 0.75 0.75 0.5 1 0.5 0.75 0.5 0.75 0.75 1 0.5 1 0.25 0.49 0.00999999 0.25 0.25 0.00999999 0.75 0.75 0.5 1 0.5 0.75 0.5 0.75 0.75 1 0.5 1 0.5802944 0.08029437 0.51 0.25 0.5802944 0.4197056 0.75 0.75 0.5 1 0.5 0.75 0.5 0.75 0.75 1 0.5 1 0.75 0.75 0.5 1 0.5 0.75 0.5 0.75 0.75 1 0.5 1 0.75 0.75 0.5 1 0.5 0.75 0.5 0.75 0.75 1 0.5 1 0.25 0.00999999 0.4197056 0.08029437 0.49 0.25 0.75 0.75 0.5 1 0.5 0.75 0.75 0.75 0.5 1 0.5 0.75 0.5802944 0.4197056 0.9197056 0.4197056 0.9197056 0.08029437 0.5 0.75 0.75 1 0.5 1 0.75 0.75 0.5 1 0.5 0.75 0.5 0.75 0.75 1 0.5 1 0.75 0.75 0.5 1 0.5 0.75 0.75 0.75 0.5 1 0.5 0.75 0.5 0.75 0.75 1 0.5 1 0.4197056 0.08029437 0.49 0.25 0.00999999 0.25 0.75 0.75 0.5 1 0.5 0.75 0.5 0.75 0.75 1 0.5 1 0.9197056 0.08029437 0.5802944 0.08029437 0.5802944 0.4197056 0.875 0.9758 0.9128 0.938 0.875 0.875 0.9128 0.938 0.9338 0.8855 0.875 0.875 0.9338 0.8855 0.917 0.8225 0.875 0.875 0.917 0.8225 0.8855 0.7805 0.875 0.875 0.8855 0.7805 0.8498 0.8015 0.875 0.875 0.8498 0.8015 0.8204 0.8645 0.875 0.875 0.8204 0.8645 0.8288 0.9275 0.875 0.875 0.8288 0.9275 0.8582 0.9632 0.875 0.875 0.8582 0.9632 0.875 0.9758 0.875 0.875 0.875 0.9758 0.9128 0.938 0.875 0.875 0.9128 0.938 0.9338 0.8855 0.875 0.875 0.9338 0.8855 0.917 0.8225 0.875 0.875 0.917 0.8225 0.8855 0.7805 0.875 0.875 0.8855 0.7805 0.8498 0.8015 0.875 0.875 0.8498 0.8015 0.8204 0.8645 0.875 0.875 0.8204 0.8645 0.8288 0.9275 0.875 0.875 0.8288 0.9275 0.8582 0.9632 0.875 0.875 0.8582 0.9632 0.875 0.9758 0.875 0.875 0.875 0.9758 0.9128 0.938 0.875 0.875 0.9128 0.938 0.9338 0.8855 0.875 0.875 0.9338 0.8855 0.917 0.8225 0.875 0.875 0.917 0.8225 0.8855 0.7805 0.875 0.875 0.8855 0.7805 0.8498 0.8015 0.875 0.875 0.8498 0.8015 0.8204 0.8645 0.875 0.875 0.8204 0.8645 0.8288 0.9275 0.875 0.875 0.8288 0.9275 0.8582 0.9632 0.875 0.875 0.8582 0.9632 0.875 0.9758 0.875 0.875 0.75 0.75 0.75 1 0.5 1 0.75 0.75 0.75 1 0.5 1 0.75 0.75 0.75 1 0.5 1 0.75 0.75 0.75 1 0.5 1 0.75 0.75 0.75 1 0.5 1 0.75 0.75 0.75 1 0.5 1 0.75 0.75 0.75 1 0.5 1 0.75 0.75 0.75 1 0.5 1 0.4782536 0.3241641 0.3910685 0.444164 0.25 0.49 0.25 0.49 0.1089316 0.444164 0.02174639 0.3241641 0.02174639 0.3241641 0.02174639 0.1758359 0.1089316 0.0558359 0.1089316 0.0558359 0.25 0.00999999 0.3910685 0.0558359 0.3910685 0.0558359 0.4782536 0.1758359 0.4782536 0.3241641 0.4782536 0.3241641 0.25 0.49 0.3910685 0.0558359 0.25 0.49 0.02174639 0.3241641 0.3910685 0.0558359 0.75 0.75 0.75 1 0.5 1 0.75 0.75 0.75 1 0.5 1 0.6089316 0.444164 0.75 0.49 0.8910685 0.444164 0.8910685 0.444164 0.9782536 0.3241641 0.9782536 0.1758359 0.9782536 0.1758359 0.8910685 0.0558359 0.75 0.00999999 0.75 0.00999999 0.6089316 0.0558359 0.5217465 0.1758359 0.5217465 0.1758359 0.5217465 0.3241641 0.6089316 0.444164 0.6089316 0.444164 0.8910685 0.444164 0.5217465 0.1758359 0.8910685 0.444164 0.9782536 0.1758359 0.5217465 0.1758359 0.75 0.75 0.75 1 0.5 1 0.5 0.75 0.75 0.75 0.75 1 0.75 0.75 0.75 1 0.5 1 0.75 0.75 0.75 1 0.5 1 0.75 0.75 0.75 1 0.5 1 0.5 0.75 0.75 0.75 0.75 1 0.49 0.25 0.4197056 0.4197056 0.25 0.49 0.25 0.49 0.08029437 0.4197056 0.00999999 0.25 0.00999999 0.25 0.08029437 0.08029437 0.25 0.00999999 0.25 0.00999999 0.4197056 0.08029437 0.49 0.25 0.49 0.25 0.25 0.49 0.25 0.00999999 0.75 0.75 0.75 1 0.5 1 0.5 0.75 0.75 0.75 0.75 1 0.5802944 0.4197056 0.75 0.49 0.9197056 0.08029437 0.75 0.49 0.9197056 0.4197056 0.9197056 0.08029437 0.9197056 0.4197056 0.99 0.25 0.9197056 0.08029437 0.9197056 0.08029437 0.75 0.00999999 0.5802944 0.4197056 0.75 0.00999999 0.5802944 0.08029437 0.5802944 0.4197056 0.75 0.75 0.75 1 0.5 1 0.5 0.75 0.75 0.75 0.75 1 0.75 0.75 0.75 1 0.5 1 0.5 0.75 0.75 0.75 0.75 1 0.75 0.75 0.75 1 0.5 1 0.5 0.75 0.75 0.75 0.75 1 0.49 0.25 0.4197056 0.4197056 0.25 0.49 0.25 0.49 0.08029437 0.4197056 0.49 0.25 0.08029437 0.4197056 0.00999999 0.25 0.49 0.25 0.00999999 0.25 0.08029437 0.08029437 0.49 0.25 0.08029437 0.08029437 0.25 0.00999999 0.49 0.25 0.75 0.75 0.75 1 0.5 1 0.75 0.75 0.75 1 0.5 1 0.5802944 0.4197056 0.75 0.49 0.9197056 0.4197056 0.9197056 0.4197056 0.99 0.25 0.9197056 0.08029437 0.9197056 0.08029437 0.75 0.00999999 0.5802944 0.08029437 0.5802944 0.08029437 0.51 0.25 0.9197056 0.08029437 0.51 0.25 0.5802944 0.4197056 0.9197056 0.08029437 0.5 0.75 0.75 0.75 0.75 1 0.75 0.75 0.75 1 0.5 1 0.5 0.75 0.75 0.75 0.75 1 0.75 0.75 0.75 1 0.5 1 0.75 0.75 0.75 1 0.5 1 0.5 0.75 0.75 0.75 0.75 1 0.49 0.25 0.4197056 0.4197056 0.00999999 0.25 0.4197056 0.4197056 0.25 0.49 0.00999999 0.25 0.25 0.49 0.08029437 0.4197056 0.00999999 0.25 0.00999999 0.25 0.08029437 0.08029437 0.25 0.00999999 0.25 0.00999999 0.4197056 0.08029437 0.00999999 0.25 0.75 0.75 0.75 1 0.5 1 0.5 0.75 0.75 0.75 0.75 1 0.5802944 0.4197056 0.75 0.49 0.9197056 0.4197056 0.9197056 0.4197056 0.99 0.25 0.9197056 0.08029437 0.9197056 0.08029437 0.75 0.00999999 0.5802944 0.08029437 0.5802944 0.08029437 0.51 0.25 0.5802944 0.4197056 0.5802944 0.4197056 0.9197056 0.4197056 0.9197056 0.08029437</float_array>
          <technique_common>
            <accessor source="#mesquite_large_a800-mesh-map-0-array" count="441" stride="2">
              <param name="S" type="float"/>
              <param name="T" type="float"/>
            </accessor>
          </technique_common>
        </source>
        <vertices id="mesquite_large_a800-mesh-vertices">
          <input semantic="POSITION" source="#mesquite_large_a800-mesh-positions"/>
        </vertices>
        <triangles material="ParkerVegBark-material" count="120">
          <input semantic="VERTEX" source="#mesquite_large_a800-mesh-vertices" offset="0"/>
          <input semantic="NORMAL" source="#mesquite_large_a800-mesh-normals" offset="1"/>
          <input semantic="TEXCOORD" source="#mesquite_large_a800-mesh-map-0" offset="2" set="0"/>
          <p>1 0 0 2 0 1 0 0 2 3 1 3 4 1 4 2 1 5 5 2 6 6 2 7 4 2 8 7 3 9 8 3 10 6 3 11 9 4 12 10 4 13 8 4 14 11 5 15 12 5 16 10 5 17 13 6 18 14 6 19 12 6 20 15 7 21 16 7 22 14 7 23 17 8 24 13 8 25 9 8 26 17 9 27 18 9 28 16 9 29 19 10 30 0 10 31 18 10 32 6 11 33 10 11 34 14 11 35 21 12 36 22 12 37 20 12 38 22 13 39 25 13 40 24 13 41 25 14 42 26 14 43 24 14 44 27 15 45 28 15 46 26 15 47 29 16 48 30 16 49 28 16 50 30 17 51 33 17 52 32 17 53 21 18 54 33 18 55 29 18 56 33 19 57 34 19 58 32 19 59 34 20 60 21 20 61 20 20 62 30 21 63 32 21 64 34 21 65 37 22 66 38 22 67 36 22 68 38 23 69 41 23 70 40 23 71 41 24 72 42 24 73 40 24 74 42 25 75 45 25 76 44 25 77 45 26 78 46 26 79 44 26 80 46 27 81 49 27 82 48 27 83 45 28 84 43 28 85 41 28 86 49 29 87 50 29 88 48 29 89 51 30 90 36 30 91 50 30 92 50 31 93 38 31 94 42 31 95 52 32 96 55 32 97 54 32 98 55 33 99 56 33 100 54 33 101 56 34 102 59 34 103 58 34 104 59 35 105 60 35 106 58 35 107 61 36 108 62 36 109 60 36 110 62 37 111 65 37 112 64 37 113 59 38 114 57 38 115 65 38 116 65 39 117 66 39 118 64 39 119 66 40 120 53 40 121 52 40 122 58 41 123 62 41 124 66 41 125 1 69 207 3 69 208 2 69 209 3 70 210 5 70 211 4 70 212 5 71 213 7 71 214 6 71 215 7 72 216 9 72 217 8 72 218 9 73 219 11 73 220 10 73 221 11 74 222 13 74 223 12 74 224 13 75 225 15 75 226 14 75 227 15 76 228 17 76 229 16 76 230 5 77 231 3 77 232 1 77 233 1 78 234 19 78 235 17 78 236 17 79 237 15 79 238 13 79 239 13 80 240 11 80 241 9 80 242 9 81 243 7 81 244 5 81 245 5 82 246 1 82 247 9 82 248 1 83 249 17 83 250 9 83 251 17 84 252 19 84 253 18 84 254 19 85 255 1 85 256 0 85 257 18 86 258 0 86 259 2 86 260 2 87 261 4 87 262 6 87 263 6 88 264 8 88 265 10 88 266 10 89 267 12 89 268 14 89 269 14 90 270 16 90 271 18 90 272 18 91 273 2 91 274 14 91 275 2 92 276 6 92 277 14 92 278 21 93 279 23 93 280 22 93 281 22 94 282 23 94 283 25 94 284 25 95 285 27 95 286 26 95 287 27 96 288 29 96 289 28 96 290 29 97 291 31 97 292 30 97 293 30 98 294 31 98 295 33 98 296 25 99 297 23 99 298 21 99 299 21 100 300 35 100 301 33 100 302 33 101 303 31 101 304 29 101 305 29 102 306 27 102 307 25 102 308 25 103 309 21 103 310 29 103 311 33 104 312 35 104 313 34 104 314 34 105 315 35 105 316 21 105 317 34 106 318 20 106 319 26 106 320 20 107 321 22 107 322 26 107 323 22 108 324 24 108 325 26 108 326 26 109 327 28 109 328 34 109 329 28 110 330 30 110 331 34 110 332 37 111 333 39 111 334 38 111 335 38 112 336 39 112 337 41 112 338 41 113 339 43 113 340 42 113 341 42 114 342 43 114 343 45 114 344 45 115 345 47 115 346 46 115 347 46 116 348 47 116 349 49 116 350 41 117 351 39 117 352 37 117 353 37 118 354 51 118 355 41 118 356 51 119 357 49 119 358 41 119 359 49 120 360 47 120 361 41 120 362 47 121 363 45 121 364 41 121 365 49 122 366 51 122 367 50 122 368 51 123 369 37 123 370 36 123 371 50 124 372 36 124 373 38 124 374 38 125 375 40 125 376 42 125 377 42 126 378 44 126 379 46 126 380 46 127 381 48 127 382 42 127 383 48 128 384 50 128 385 42 128 386 52 129 387 53 129 388 55 129 389 55 130 390 57 130 391 56 130 392 56 131 393 57 131 394 59 131 395 59 132 396 61 132 397 60 132 398 61 133 399 63 133 400 62 133 401 62 134 402 63 134 403 65 134 404 57 135 405 55 135 406 65 135 407 55 136 408 53 136 409 65 136 410 53 137 411 67 137 412 65 137 413 65 138 414 63 138 415 61 138 416 61 139 417 59 139 418 65 139 419 65 140 420 67 140 421 66 140 422 66 141 423 67 141 424 53 141 425 66 142 426 52 142 427 54 142 428 54 143 429 56 143 430 58 143 431 58 144 432 60 144 433 62 144 434 62 145 435 64 145 436 66 145 437 66 146 438 54 146 439 58 146 440</p>
        </triangles>
        <triangles material="ParkerVegFoliage-material" count="27">
          <input semantic="VERTEX" source="#mesquite_large_a800-mesh-vertices" offset="0"/>
          <input semantic="NORMAL" source="#mesquite_large_a800-mesh-normals" offset="1"/>
          <input semantic="TEXCOORD" source="#mesquite_large_a800-mesh-map-0" offset="2" set="0"/>
          <p>68 42 126 69 42 127 77 42 128 69 43 129 70 43 130 77 43 131 70 44 132 71 44 133 77 44 134 71 45 135 72 45 136 77 45 137 72 46 138 73 46 139 77 46 140 73 47 141 74 47 142 77 47 143 74 48 144 75 48 145 77 48 146 75 49 147 76 49 148 77 49 149 76 50 150 68 50 151 77 50 152 78 51 153 79 51 154 87 51 155 79 52 156 80 52 157 87 52 158 80 53 159 81 53 160 87 53 161 81 54 162 82 54 163 87 54 164 82 55 165 83 55 166 87 55 167 83 56 168 84 56 169 87 56 170 84 57 171 85 57 172 87 57 173 85 58 174 86 58 175 87 58 176 86 59 177 78 59 178 87 59 179 88 60 180 89 60 181 97 60 182 89 61 183 90 61 184 97 61 185 90 62 186 91 62 187 97 62 188 91 63 189 92 63 190 97 63 191 92 64 192 93 64 193 97 64 194 93 65 195 94 65 196 97 65 197 94 66 198 95 66 199 97 66 200 95 67 201 96 67 202 97 67 203 96 68 204 88 68 205 97 68 206</p>
        </triangles>
      </mesh>
    </geometry>
  </library_geometries>
  <library_visual_scenes>
    <visual_scene id="Scene" name="Scene">
      <node id="base00" name="base00" type="NODE">
        <matrix sid="transform">1 0 0 0 0 1 0 0 0 0 1 0 0 0 0 1</matrix>
        <node id="start01" name="start01" type="NODE">
          <matrix sid="transform">1 0 0 0 0 1 0 0 0 0 1 0 0 0 0 1</matrix>
          <node id="mesquite_large_a800" name="mesquite_large_a800" type="NODE">
            <matrix sid="transform">1 0 0 0 0 1 0 0 0 0 1 0 0 0 0 1</matrix>
            <instance_geometry url="#mesquite_large_a800-mesh" name="mesquite_large_a800">
              <bind_material>
                <technique_common>
                  <instance_material symbol="ParkerVegBark-material" target="#ParkerVegBark-material">
                    <bind_vertex_input semantic="UVMap" input_semantic="TEXCOORD" input_set="0"/>
                  </instance_material>
                  <instance_material symbol="ParkerVegFoliage-material" target="#ParkerVegFoliage-material">
                    <bind_vertex_input semantic="UVMap" input_semantic="TEXCOORD" input_set="0"/>
                  </instance_material>
                </technique_common>
              </bind_material>
            </instance_geometry>
          </node>
          <node id="mesquite_large_a200" name="mesquite_large_a200" type="NODE">
            <matrix sid="transform">1 0 0 0 0 1 0 0 0 0 1 0 0 0 0 1</matrix>
            <instance_geometry url="#mesquite_large_a200-mesh" name="mesquite_large_a200">
              <bind_material>
                <technique_common>
                  <instance_material symbol="ParkerVegBark-material" target="#ParkerVegBark-material">
                    <bind_vertex_input semantic="UVMap" input_semantic="TEXCOORD" input_set="0"/>
                  </instance_material>
                  <instance_material symbol="ParkerVegFoliage-material" target="#ParkerVegFoliage-material">
                    <bind_vertex_input semantic="UVMap" input_semantic="TEXCOORD" input_set="0"/>
                  </instance_material>
                </technique_common>
              </bind_material>
            </instance_geometry>
          </node>
          <node id="mesquite_large_a50" name="mesquite_large_a50" type="NODE">
            <matrix sid="transform">1 0 0 0 0 1 0 0 0 0 1 0 0 0 0 1</matrix>
            <instance_geometry url="#mesquite_large_a50-mesh" name="mesquite_large_a50">
              <bind_material>
                <technique_common>
                  <instance_material symbol="ParkerVegBark-material" target="#ParkerVegBark-material">
                    <bind_vertex_input semantic="UVMap" input_semantic="TEXCOORD" input_set="0"/>
                  </instance_material>
                </technique_common>
              </bind_material>
            </instance_geometry>
          </node>
          <node id="nulldetail20" name="nulldetail20" type="NODE">
            <matrix sid="transform">1 0 0 0 0 1 0 0 0 0 1 0 0 0 0 1</matrix>
          </node>
        </node>
        <node id="collision-1" name="collision-1" type="NODE">
          <matrix sid="transform">1 0 0 0 0 1 0 0 0 0 1 0 0 0 0 1</matrix>
          <node id="Colmesh_trunk-1" name="Colmesh_trunk-1" type="NODE">
            <matrix sid="transform">1 0 0 0 0 1 0 0 0 0 1 0 0 0 0 1</matrix>
            <instance_geometry url="#Colmesh_trunk-1-mesh" name="Colmesh_trunk-1">
              <bind_material>
                <technique_common>
                  <instance_material symbol="Colmesh_Material-material" target="#Colmesh_Material-material">
                    <bind_vertex_input semantic="UVMap" input_semantic="TEXCOORD" input_set="0"/>
                  </instance_material>
                </technique_common>
              </bind_material>
            </instance_geometry>
          </node>
          <node id="Colmesh_canopy-1" name="Colmesh_canopy-1" type="NODE">
            <matrix sid="transform">1 0 0 0 0 1 0 0 0 0 1 0 0 0 0 1</matrix>
            <instance_geometry url="#Colmesh_canopy-1-mesh" name="Colmesh_canopy-1">
              <bind_material>
                <technique_common>
                  <instance_material symbol="Colmesh_Material-material" target="#Colmesh_Material-material">
                    <bind_vertex_input semantic="UVMap" input_semantic="TEXCOORD" input_set="0"/>
                  </instance_material>
                </technique_common>
              </bind_material>
            </instance_geometry>
          </node>
        </node>
      </node>
    </visual_scene>
  </library_visual_scenes>
  <scene>
    <instance_visual_scene url="#Scene"/>
  </scene>
</COLLADA>