<?xml version="1.0" encoding="utf-8"?>
<COLLADA xmlns="http://www.collada.org/2005/11/COLLADASchema" version="1.4.1" xmlns:xsi="http://www.w3.org/2001/XMLSchema-instance">
  <asset>
    <contributor>
      <author>Blender User</author>
      <authoring_tool>Blender 4.2.9 LTS commit date:2025-04-14, commit time:12:24, hash:a10f621e649a</authoring_tool>
    </contributor>
    <created>2026-08-01T08:09:21</created>
    <modified>2026-08-01T08:09:21</modified>
    <unit name="meter" meter="1"/>
    <up_axis>Z_UP</up_axis>
  </asset>
  <library_effects>
    <effect id="ParkerVegBark-effect">
      <profile_COMMON>
        <newparam sid="vegetation_atlas_2048_png-surface">
          <surface type="2D">
            <init_from>vegetation_atlas_2048_png</init_from>
          </surface>
        </newparam>
        <newparam sid="vegetation_atlas_2048_png-sampler">
          <sampler2D>
            <source>vegetation_atlas_2048_png-surface</source>
          </sampler2D>
        </newparam>
        <technique sid="common">
          <lambert>
            <emission>
              <color sid="emission">0 0 0 1</color>
            </emission>
            <diffuse>
              <texture texture="vegetation_atlas_2048_png-sampler" texcoord="UVMap"/>
            </diffuse>
            <index_of_refraction>
              <float sid="ior">1.5</float>
            </index_of_refraction>
          </lambert>
        </technique>
      </profile_COMMON>
    </effect>
    <effect id="Colmesh_Material-effect">
      <profile_COMMON>
        <technique sid="common">
          <lambert>
            <emission>
              <color sid="emission">0 0 0 1</color>
            </emission>
            <diffuse>
              <color sid="diffuse">1 0 1 1</color>
            </diffuse>
            <transparent opaque="A_ONE">
              <color sid="alpha">0 0 0 0.15</color>
            </transparent>
            <index_of_refraction>
              <float sid="ior">1.5</float>
            </index_of_refraction>
          </lambert>
        </technique>
      </profile_COMMON>
    </effect>
  </library_effects>
  <library_images>
    <image id="vegetation_atlas_2048_png" name="vegetation_atlas_2048_png">
      <init_from>vegetation_atlas_2048.png</init_from>
    </image>
  </library_images>
  <library_materials>
    <material id="ParkerVegBark-material" name="ParkerVegBark">
      <instance_effect url="#ParkerVegBark-effect"/>
    </material>
    <material id="Colmesh_Material-material" name="Colmesh_Material">
      <instance_effect url="#Colmesh_Material-effect"/>
    </material>
  </library_materials>
  <library_geometries>
    <geometry id="saguaro_armed_a50-mesh" name="saguaro_armed_a50">
      <mesh>
        <source id="saguaro_armed_a50-mesh-positions">
          <float_array id="saguaro_armed_a50-mesh-positions-array" count="24">-0.725584 0 -0.04799997 0.725584 0 -0.04799997 0.725584 0 4.848 -0.725584 0 4.848 0 -0.725584 -0.04799997 0 0.725584 -0.04799997 0 0.725584 4.848 0 -0.725584 4.848</float_array>
          <technique_common>
            <accessor source="#saguaro_armed_a50-mesh-positions-array" count="8" stride="3">
              <param name="X" type="float"/>
              <param name="Y" type="float"/>
              <param name="Z" type="float"/>
            </accessor>
          </technique_common>
        </source>
        <source id="saguaro_armed_a50-mesh-normals">
          <float_array id="saguaro_armed_a50-mesh-normals-array" count="12">0 -1 0 1 0 0 0 -1 0 1 0 0</float_array>
          <technique_common>
            <accessor source="#saguaro_armed_a50-mesh-normals-array" count="4" stride="3">
              <param name="X" type="float"/>
              <param name="Y" type="float"/>
              <param name="Z" type="float"/>
            </accessor>
          </technique_common>
        </source>
        <source id="saguaro_armed_a50-mesh-map-0">
          <float_array id="saguaro_armed_a50-mesh-map-0-array" count="24">1 0 0 1 0 0 1 0 0 1 0 0 1 0 1 1 0 1 1 0 1 1 0 1</float_array>
          <technique_common>
            <accessor source="#saguaro_armed_a50-mesh-map-0-array" count="12" stride="2">
              <param name="S" type="float"/>
              <param name="T" type="float"/>
            </accessor>
          </technique_common>
        </source>
        <vertices id="saguaro_armed_a50-mesh-vertices">
          <input semantic="POSITION" source="#saguaro_armed_a50-mesh-positions"/>
        </vertices>
        <triangles material="ParkerVegBark-material" count="4">
          <input semantic="VERTEX" source="#saguaro_armed_a50-mesh-vertices" offset="0"/>
          <input semantic="NORMAL" source="#saguaro_armed_a50-mesh-normals" offset="1"/>
          <input semantic="TEXCOORD" source="#saguaro_armed_a50-mesh-map-0" offset="2" set="0"/>
          <p>1 0 0 3 0 1 0 0 2 5 1 3 7 1 4 4 1 5 1 2 6 2 2 7 3 2 8 5 3 9 6 3 10 7 3 11</p>
        </triangles>
      </mesh>
    </geometry>
    <geometry id="saguaro_armed_a200-mesh" name="saguaro_armed_a200">
      <mesh>
        <source id="saguaro_armed_a200-mesh-positions">
          <float_array id="saguaro_armed_a200-mesh-positions-array" count="144">0.05664747 0.2771441 0 -0.06229186 0.2771441 3.36 0.1351778 0.239023 3.36 0.2362008 0.138 0 0.2743219 -0.05946969 0 0.2743219 0.05946969 3.36 0.2362008 -0.138 3.36 0.1351778 -0.239023 0 -0.06229186 -0.2771441 0 0.05664747 -0.2771441 3.36 -0.2418451 -0.138 0 -0.2131011 -0.1900743 3.36 -0.2799662 0.05946969 0 -0.2725709 0.08706969 3.36 -0.1408222 0.239023 0 0.1587409 0.1787371 2.4 0.07118707 0.2292863 4.8 0.2327502 -0.05054926 2.4 0.2327502 0.05054926 4.8 0.07118707 -0.2292863 2.4 0.1587409 -0.1787371 4.8 -0.1643853 -0.1787371 2.4 -0.07683145 -0.2292863 4.8 -0.2383946 0.05054926 2.4 -0.2383946 -0.05054926 4.8 -0.07683145 0.2292863 2.4 -0.1643853 0.1787371 4.8 -0.5040848 0.09612864 2.309369 -0.1838877 0.116045 3.97875 -0.4516666 -0.004351258 2.298228 -0.09390151 -0.004351258 3.959623 -0.5358608 -0.1290496 2.316124 -0.1838877 -0.1247476 3.97875 -0.6756697 -0.07876026 2.345841 -0.6910324 0.03402858 2.349106 -0.3446008 -0.05790871 4.012911 -0.6137568 0.116045 2.332681 -0.2935596 0.09612864 4.002062 0.5754924 0.1349254 2.350723 0.2504948 0.1267544 4.074592 0.7010644 0.01014387 2.377414 0.3364351 -0.00603187 4.09286 0.6218202 -0.1175388 2.36057 0.2822709 -0.09842389 4.081346 0.4785526 -0.0799455 2.330118 0.1645354 -0.1175388 4.056321 0.4599524 0.04043585 2.326164 0.08725833 0.0431149 4.039896</float_array>
          <technique_common>
            <accessor source="#saguaro_armed_a200-mesh-positions-array" count="48" stride="3">
              <param name="X" type="float"/>
              <param name="Y" type="float"/>
              <param name="Z" type="float"/>
            </accessor>
          </technique_common>
        </source>
        <source id="saguaro_armed_a200-mesh-normals">
          <float_array id="saguaro_armed_a200-mesh-normals-array" count="240">0.9818493 0.1895437 -0.006709575 0.1895437 -0.9818493 -0.006709575 -0.6125299 -0.7904164 -0.007010042 -0.1895437 0.9818493 -0.006709575 0.2097871 0.9776614 -0.01293849 0.9515733 0.3071497 -0.01293849 0.7417861 -0.6705118 -0.01293849 -0.2097871 -0.9776615 -0.01293849 -0.9515733 -0.3071497 -0.01293849 -0.7417861 0.6705117 -0.01293843 0.1693922 0.9845555 -0.04423654 -0.9711418 -0.1379107 0.1945872 -0.2403604 -0.9685173 -0.06481683 -0.9652425 -0.1560266 -0.2096724 -0.6101508 0.7808862 -0.1339133 0.1895437 0.9818493 0.006709575 0.6125362 -0.7904244 0.005348443 0.9818493 -0.1895437 0.006709575 -0.9818647 -0.1895467 0.003718078 -0.3071573 -0.9515966 0.0108729 5.14659e-7 1.37903e-7 1 -0.6705502 0.7418287 0.007255673 0 0 -1 0.7417861 0.6705118 0.01293849 0.9515733 -0.3071497 0.01293849 0.2097871 -0.9776614 0.01293843 -0.7417861 -0.6705117 0.01293843 -0.9515733 0.3071497 0.01293849 0 0 1 -0.2097871 0.9776615 0.01293849 0 0 -1 0.7790058 0.6071304 -0.1566612 0.8054311 -0.5680732 -0.1690374 -0.3672603 -0.92627 0.08452111 0.7904244 0.6125363 0.005348443 0.2079126 9.8137e-7 0.9781474 -0.92356 0.3208194 0.2100281 0.8146765 0.5518035 0.178368 -0.1693921 0.9845554 0.04423654 -0.207911 -2.62681e-6 -0.9781478 0.8272573 -0.535743 0.1691883 0.1516467 -0.9875885 0.04089379 -0.8811653 -0.4412262 -0.1699036 -0.2079163 1.42974e-7 0.9781466 -0.4412417 0.8939087 -0.07894933 0.20791 -1.04598e-6 -0.9781479 0.7904244 -0.6125362 -0.005348443 -0.9777305 -0.209802 0.005112648 9.94891e-7 -1.10065e-6 1 5.41424e-7 0 1 3.90446e-7 1.20963e-6 1 -2.61904e-6 -7.01769e-7 1 -0.7904314 0.6125416 -0.003291785 0 0 -1 0 0 -1 0 0 -1 0 0 -1 0 0 -1 0 0 1 0 0 1 0 0 1 0 0 -1 0 0 -1 0 0 -1 0.862581 0.4705864 -0.1857482 0.7767795 -0.6071521 -0.1672717 -0.3242035 -0.9433137 0.07107371 0.6125361 0.7904244 -0.005348443 0.2079101 -3.43627e-7 0.9781479 0.2079127 9.82737e-7 0.9781474 -0.705761 0.6937343 0.1436456 0.6843595 0.7170197 0.1324195 -0.2079117 -5.06333e-7 -0.9781476 -0.2079116 -1.16667e-6 -0.9781476 -0.2079117 -6.20924e-7 -0.9781476 0.8399746 -0.5140749 0.1736946 -0.2079099 1.09783e-6 0.978148 -0.2079109 -4.29982e-7 0.9781478 0.2079118 -2.25295e-7 -0.9781476 0.207912 1.10487e-6 -0.9781475</float_array>
          <technique_common>
            <accessor source="#saguaro_armed_a200-mesh-normals-array" count="80" stride="3">
              <param name="X" type="float"/>
              <param name="Y" type="float"/>
              <param name="Z" type="float"/>
            </accessor>
          </technique_common>
        </source>
        <source id="saguaro_armed_a200-mesh-map-0">
          <float_array id="saguaro_armed_a200-mesh-map-0-array" count="480">1 0.65 0.75 0.75 0.75 0.5 1 0.65 0.75 0.75 0.75 0.5 1 0.65 0.75 0.75 0.75 0.5 1 0.65 0.75 0.75 0.75 0.5 0.75 0.65 0.5 0.75 0.5 0.5 0.75 0.65 0.5 0.75 0.5 0.5 0.75 0.65 0.5 0.75 0.5 0.5 0.75 0.65 0.5 0.75 0.5 0.5 0.75 0.65 0.5 0.75 0.5 0.5 0.75 0.65 0.5 0.75 0.5 0.5 0.75 0.6249999 0.5 0.75 0.5 0.5 0.75 0.625 0.5 0.75 0.5 0.5 0.75 0.6513417 0.5 0.75 0.5 0.5 0.75 0.6702327 0.5 0.75 0.5 0.5 0.5 0.5 0.75 0.6250002 0.5 0.75 1 0.5 1 0.75 0.75 0.5999999 0.75 0.75 1 0.5 1 0.75 1 0.5 1 0.75 0.75 0.6 0.75 0.5 1 0.75 0.75 0.75 1 0.5 1 0.75 0.75 0.5999999 0.4578461 0.1299999 0.37 0.4578461 0.07729232 0.09486156 0.75 0.75 1 0.5 1 0.75 0.9578461 0.37 0.87 0.04215389 0.5421539 0.1299999 0.75 0.5 0.75 0.75 0.5 0.6 0.75 0.5 0.75 0.75 0.5 0.6 0.75 0.5 0.75 0.75 0.5 0.6 0.75 0.5 0.75 0.75 0.5 0.6 0.75 0.5 0.75 0.75 0.5 0.6 0.1779999 0.02929234 0.4051384 0.07729232 0.322 0.4707077 0.75 0.5 0.75 0.75 0.5 0.6 0.822 0.02929234 0.5948616 0.07729232 0.5228615 0.298 0.75 0.75 0.5 0.5 0.75 0.5 0.5 0.5 0.75 0.75 0.5 0.75 0.5 0.75 0.75 0.5 0.75 0.75 0.75 0.75 1 0.5 1 0.75 0.3205341 0.03291791 0.3205342 0.4670821 0.1089315 0.4441641 0.75 0.75 0.5 0.5 0.75 0.5 0.5 0.75 0.75 0.5 0.75 0.75 0.75 0.5 0.75 0.75 0.5 0.6249998 0.5217465 0.3241641 0.6794657 0.467082 0.8910685 0.4441641 0.5 0.5 0.75 0.75 0.5 0.75 0.75 0.5 0.75 0.75 0.5 0.5986585 0.75 0.5 0.75 0.75 0.5 0.5986583 0.3910685 0.0558359 0.4782536 0.2343712 0.3205342 0.467082 0.5 0.6250002 0.75 0.5 0.75 0.75 0.8353981 0.0377475 0.5745254 0.1031919 0.5217465 0.3241641 0.75 0.75 0.75 0.5 1 0.5 0.75 0.5 1 0.5 1 0.75 0.37 0.4578461 0.202 0.4771385 0.02929228 0.322 0.02929228 0.322 0.07729232 0.09486156 0.37 0.4578461 0.07729232 0.09486156 0.298 0.02286154 0.4578461 0.1299999 0.4578461 0.1299999 0.4771385 0.298 0.37 0.4578461 0.75 0.75 0.75 0.5 1 0.5 0.5421539 0.1299999 0.5228615 0.298 0.63 0.4578461 0.63 0.4578461 0.798 0.4771385 0.9578461 0.37 0.9578461 0.37 0.9771385 0.202 0.87 0.04215389 0.87 0.04215389 0.702 0.02286154 0.5421539 0.1299999 0.5421539 0.1299999 0.63 0.4578461 0.9578461 0.37 0.4051384 0.07729232 0.4771385 0.298 0.322 0.4707077 0.322 0.4707077 0.09486156 0.4227077 0.02286154 0.202 0.02286154 0.202 0.1779999 0.02929234 0.322 0.4707077 0.5228615 0.298 0.678 0.4707077 0.822 0.02929234 0.678 0.4707077 0.9051384 0.4227077 0.822 0.02929234 0.9051384 0.4227077 0.9771385 0.202 0.822 0.02929234 0.75 0.75 0.5 0.75 0.5 0.5 0.5 0.5 0.75 0.5 0.75 0.75 0.5 0.75 0.5 0.5 0.75 0.5 0.75 0.75 0.75 0.5 1 0.5 0.1089315 0.4441641 0.05843353 0.1682965 0.3205341 0.03291791 0.3205341 0.03291791 0.4782536 0.25 0.3205342 0.4670821 0.75 0.75 0.5 0.75 0.5 0.5 0.5 0.75 0.5 0.5 0.75 0.5 0.8910685 0.4441641 0.9782535 0.25 0.5217465 0.3241641 0.9782535 0.25 0.8205342 0.03291791 0.565339 0.115836 0.5217465 0.3241641 0.9782535 0.25 0.565339 0.115836 0.5 0.5 0.75 0.5 0.75 0.75 0.3205342 0.467082 0.05142998 0.317693 0.3910685 0.0558359 0.05142998 0.317693 0.1646018 0.0377475 0.3910685 0.0558359 0.7469817 0.4597697 0.9782535 0.2656288 0.5217465 0.3241641 0.9782535 0.2656288 0.8353981 0.0377475 0.5217465 0.3241641</float_array>
          <technique_common>
            <accessor source="#saguaro_armed_a200-mesh-map-0-array" count="240" stride="2">
              <param name="S" type="float"/>
              <param name="T" type="float"/>
            </accessor>
          </technique_common>
        </source>
        <vertices id="saguaro_armed_a200-mesh-vertices">
          <input semantic="POSITION" source="#saguaro_armed_a200-mesh-positions"/>
        </vertices>
        <triangles material="ParkerVegBark-material" count="80">
          <input semantic="VERTEX" source="#saguaro_armed_a200-mesh-vertices" offset="0"/>
          <input semantic="NORMAL" source="#saguaro_armed_a200-mesh-normals" offset="1"/>
          <input semantic="TEXCOORD" source="#saguaro_armed_a200-mesh-map-0" offset="2" set="0"/>
          <p>5 0 0 4 0 1 3 0 2 9 1 3 8 1 4 7 1 5 11 2 6 10 2 7 8 2 8 1 3 9 0 3 10 14 3 11 16 4 12 15 4 13 25 4 14 18 5 15 17 5 16 15 5 17 20 6 18 19 6 19 17 6 20 22 7 21 21 7 22 19 7 23 24 8 24 23 8 25 21 8 26 26 9 27 25 9 28 23 9 29 28 10 30 27 10 31 36 10 32 35 11 33 34 11 34 33 11 35 45 12 36 44 12 37 42 12 38 47 13 39 46 13 40 44 13 41 46 14 42 47 14 43 38 14 44 1 15 45 2 15 46 0 15 47 7 16 48 6 16 49 9 16 50 5 17 51 6 17 52 4 17 53 10 18 54 13 18 55 12 18 56 9 19 57 11 19 58 8 19 59 6 20 60 2 20 61 11 20 62 14 21 63 13 21 64 1 21 65 3 22 66 7 22 67 10 22 68 16 23 69 18 23 70 15 23 71 18 24 72 20 24 73 17 24 74 20 25 75 22 25 76 19 25 77 22 26 78 24 26 79 21 26 80 24 27 81 26 27 82 23 27 83 22 28 84 20 28 85 16 28 86 26 29 87 16 29 88 25 29 89 19 30 90 21 30 91 23 30 92 30 31 93 27 31 94 28 31 95 29 32 96 32 32 97 31 32 98 33 33 99 32 33 100 35 33 101 3 34 102 2 34 103 5 34 104 32 35 105 28 35 106 37 35 107 37 36 108 34 36 109 35 36 110 40 37 111 39 37 112 41 37 113 37 38 114 28 38 115 36 38 116 34 39 117 36 39 118 27 39 119 40 40 120 43 40 121 42 40 122 43 41 123 45 41 124 42 41 125 45 42 126 47 42 127 44 42 128 43 43 129 41 43 130 39 43 131 38 44 132 47 44 133 39 44 134 42 45 135 44 45 136 46 45 137 7 46 138 4 46 139 6 46 140 10 47 141 11 47 142 13 47 143 2 48 144 1 48 145 13 48 146 13 49 147 11 49 148 2 49 149 11 50 150 9 50 151 6 50 152 6 51 153 5 51 154 2 51 155 14 52 156 12 52 157 13 52 158 10 53 159 12 53 160 14 53 161 14 54 162 0 54 163 3 54 164 3 55 165 4 55 166 7 55 167 7 56 168 8 56 169 10 56 170 10 57 171 14 57 172 3 57 173 20 58 174 18 58 175 16 58 176 16 59 177 26 59 178 24 59 179 24 60 180 22 60 181 16 60 182 23 61 183 25 61 184 19 61 185 25 62 186 15 62 187 19 62 188 15 63 189 17 63 190 19 63 191 30 64 192 29 64 193 27 64 194 29 65 195 30 65 196 32 65 197 33 66 198 31 66 199 32 66 200 3 67 201 0 67 202 2 67 203 37 68 204 35 68 205 32 68 206 32 69 207 30 69 208 28 69 209 37 70 210 36 70 211 34 70 212 40 71 213 38 71 214 39 71 215 27 72 216 29 72 217 34 72 218 29 73 219 31 73 220 33 73 221 34 74 222 29 74 223 33 74 224 40 75 225 41 75 226 43 75 227 39 76 228 47 76 229 43 76 230 47 77 231 45 77 232 43 77 233 38 78 234 40 78 235 46 78 236 40 79 237 42 79 238 46 79 239</p>
        </triangles>
      </mesh>
    </geometry>
    <geometry id="Colmesh_arm1-1-mesh" name="Colmesh_arm1-1">
      <mesh>
        <source id="Colmesh_arm1-1-mesh-positions">
          <float_array id="Colmesh_arm1-1-mesh-positions-array" count="48">0.3931778 0.138 1.908 0.3931778 0.138 3.588 0.4907585 0.09758073 1.908 0.4907585 0.09758073 3.588 0.5311778 0 1.908 0.5311778 0 3.588 0.4907585 -0.09758073 1.908 0.4907585 -0.09758073 3.588 0.3931778 -0.138 1.908 0.3931778 -0.138 3.588 0.2955971 -0.09758073 1.908 0.2955971 -0.09758073 3.588 0.2551778 0 1.908 0.2551778 0 3.588 0.2955971 0.09758073 1.908 0.2955971 0.09758073 3.588</float_array>
          <technique_common>
            <accessor source="#Colmesh_arm1-1-mesh-positions-array" count="16" stride="3">
              <param name="X" type="float"/>
              <param name="Y" type="float"/>
              <param name="Z" type="float"/>
            </accessor>
          </technique_common>
        </source>
        <source id="Colmesh_arm1-1-mesh-normals">
          <float_array id="Colmesh_arm1-1-mesh-normals-array" count="84">0.3826835 0.9238795 0 0.9238795 0.3826836 0 0.9238795 -0.3826836 0 0.3826835 -0.9238795 0 -0.3826835 -0.9238795 0 -0.9238795 -0.3826836 0 0 0 1 -0.9238795 0.3826836 0 -0.3826835 0.9238795 0 0 0 -1 0.3826835 0.9238795 0 0.9238795 0.3826836 0 0.9238795 -0.3826836 0 0.3826835 -0.9238795 0 -0.3826835 -0.9238795 0 -0.9238795 -0.3826836 0 0 0 1 0 0 1 0 0 1 0 0 1 0 0 1 -0.9238795 0.3826836 0 -0.3826835 0.9238795 0 0 0 -1 0 0 -1 0 0 -1 0 0 -1 0 0 -1</float_array>
          <technique_common>
            <accessor source="#Colmesh_arm1-1-mesh-normals-array" count="28" stride="3">
              <param name="X" type="float"/>
              <param name="Y" type="float"/>
              <param name="Z" type="float"/>
            </accessor>
          </technique_common>
        </source>
        <source id="Colmesh_arm1-1-mesh-map-0">
          <float_array id="Colmesh_arm1-1-mesh-map-0-array" count="168">1 1 0.875 0.5 1 0.5 0.875 1 0.75 0.5 0.875 0.5 0.75 1 0.625 0.5 0.75 0.5 0.625 1 0.5 0.5 0.625 0.5 0.5 1 0.375 0.5 0.5 0.5 0.375 1 0.25 0.5 0.375 0.5 0.00999999 0.25 0.25 0.00999999 0.49 0.25 0.25 1 0.125 0.5 0.25 0.5 0.125 1 0 0.5 0.125 0.5 0.5802944 0.08029437 0.51 0.25 0.5802944 0.4197056 1 1 0.875 1 0.875 0.5 0.875 1 0.75 1 0.75 0.5 0.75 1 0.625 1 0.625 0.5 0.625 1 0.5 1 0.5 0.5 0.5 1 0.375 1 0.375 0.5 0.375 1 0.25 1 0.25 0.5 0.49 0.25 0.4197056 0.4197056 0.25 0.49 0.25 0.49 0.08029437 0.4197056 0.00999999 0.25 0.00999999 0.25 0.08029437 0.08029437 0.25 0.00999999 0.25 0.00999999 0.4197056 0.08029437 0.49 0.25 0.49 0.25 0.25 0.49 0.00999999 0.25 0.25 1 0.125 1 0.125 0.5 0.125 1 0 1 0 0.5 0.5802944 0.4197056 0.75 0.49 0.9197056 0.08029437 0.75 0.49 0.9197056 0.4197056 0.9197056 0.08029437 0.9197056 0.4197056 0.99 0.25 0.9197056 0.08029437 0.9197056 0.08029437 0.75 0.00999999 0.5802944 0.4197056 0.75 0.00999999 0.5802944 0.08029437 0.5802944 0.4197056</float_array>
          <technique_common>
            <accessor source="#Colmesh_arm1-1-mesh-map-0-array" count="84" stride="2">
              <param name="S" type="float"/>
              <param name="T" type="float"/>
            </accessor>
          </technique_common>
        </source>
        <vertices id="Colmesh_arm1-1-mesh-vertices">
          <input semantic="POSITION" source="#Colmesh_arm1-1-mesh-positions"/>
        </vertices>
        <triangles material="Colmesh_Material-material" count="28">
          <input semantic="VERTEX" source="#Colmesh_arm1-1-mesh-vertices" offset="0"/>
          <input semantic="NORMAL" source="#Colmesh_arm1-1-mesh-normals" offset="1"/>
          <input semantic="TEXCOORD" source="#Colmesh_arm1-1-mesh-map-0" offset="2" set="0"/>
          <p>1 0 0 2 0 1 0 0 2 3 1 3 4 1 4 2 1 5 5 2 6 6 2 7 4 2 8 7 3 9 8 3 10 6 3 11 9 4 12 10 4 13 8 4 14 11 5 15 12 5 16 10 5 17 13 6 18 9 6 19 5 6 20 13 7 21 14 7 22 12 7 23 15 8 24 0 8 25 14 8 26 10 9 27 12 9 28 14 9 29 1 10 30 3 10 31 2 10 32 3 11 33 5 11 34 4 11 35 5 12 36 7 12 37 6 12 38 7 13 39 9 13 40 8 13 41 9 14 42 11 14 43 10 14 44 11 15 45 13 15 46 12 15 47 5 16 48 3 16 49 1 16 50 1 17 51 15 17 52 13 17 53 13 18 54 11 18 55 9 18 56 9 19 57 7 19 58 5 19 59 5 20 60 1 20 61 13 20 62 13 21 63 15 21 64 14 21 65 15 22 66 1 22 67 0 22 68 14 23 69 0 23 70 6 23 71 0 24 72 2 24 73 6 24 74 2 25 75 4 25 76 6 25 77 6 26 78 8 26 79 14 26 80 8 27 81 10 27 82 14 27 83</p>
        </triangles>
      </mesh>
    </geometry>
    <geometry id="Colmesh_arm0-1-mesh" name="Colmesh_arm0-1">
      <mesh>
        <source id="Colmesh_arm0-1-mesh-positions">
          <float_array id="Colmesh_arm0-1-mesh-positions-array" count="48">-0.3988222 0.138 1.908 -0.3988222 0.138 3.588 -0.3012415 0.09758073 1.908 -0.3012415 0.09758073 3.588 -0.2608222 0 1.908 -0.2608222 0 3.588 -0.3012415 -0.09758073 1.908 -0.3012415 -0.09758073 3.588 -0.3988222 -0.138 1.908 -0.3988222 -0.138 3.588 -0.4964029 -0.09758073 1.908 -0.4964029 -0.09758073 3.588 -0.5368222 0 1.908 -0.5368222 0 3.588 -0.4964029 0.09758073 1.908 -0.4964029 0.09758073 3.588</float_array>
          <technique_common>
            <accessor source="#Colmesh_arm0-1-mesh-positions-array" count="16" stride="3">
              <param name="X" type="float"/>
              <param name="Y" type="float"/>
              <param name="Z" type="float"/>
            </accessor>
          </technique_common>
        </source>
        <source id="Colmesh_arm0-1-mesh-normals">
          <float_array id="Colmesh_arm0-1-mesh-normals-array" count="84">0.3826835 0.9238795 0 0.9238795 0.3826836 0 0.9238795 -0.3826836 0 0.3826835 -0.9238795 0 -0.3826835 -0.9238795 0 -0.9238795 -0.3826836 0 0 0 1 -0.9238795 0.3826836 0 -0.3826835 0.9238795 0 0 0 -1 0.3826835 0.9238795 0 0.9238795 0.3826836 0 0.9238795 -0.3826836 0 0.3826835 -0.9238795 0 -0.3826835 -0.9238795 0 -0.9238795 -0.3826836 0 0 0 1 0 0 1 0 0 1 0 0 1 0 0 1 -0.9238795 0.3826836 0 -0.3826835 0.9238795 0 0 0 -1 0 0 -1 0 0 -1 0 0 -1 0 0 -1</float_array>
          <technique_common>
            <accessor source="#Colmesh_arm0-1-mesh-normals-array" count="28" stride="3">
              <param name="X" type="float"/>
              <param name="Y" type="float"/>
              <param name="Z" type="float"/>
            </accessor>
          </technique_common>
        </source>
        <source id="Colmesh_arm0-1-mesh-map-0">
          <float_array id="Colmesh_arm0-1-mesh-map-0-array" count="168">1 1 0.875 0.5 1 0.5 0.875 1 0.75 0.5 0.875 0.5 0.75 1 0.625 0.5 0.75 0.5 0.625 1 0.5 0.5 0.625 0.5 0.5 1 0.375 0.5 0.5 0.5 0.375 1 0.25 0.5 0.375 0.5 0.00999999 0.25 0.25 0.00999999 0.49 0.25 0.25 1 0.125 0.5 0.25 0.5 0.125 1 0 0.5 0.125 0.5 0.5802944 0.08029437 0.51 0.25 0.5802944 0.4197056 1 1 0.875 1 0.875 0.5 0.875 1 0.75 1 0.75 0.5 0.75 1 0.625 1 0.625 0.5 0.625 1 0.5 1 0.5 0.5 0.5 1 0.375 1 0.375 0.5 0.375 1 0.25 1 0.25 0.5 0.49 0.25 0.4197056 0.4197056 0.25 0.49 0.25 0.49 0.08029437 0.4197056 0.00999999 0.25 0.00999999 0.25 0.08029437 0.08029437 0.25 0.00999999 0.25 0.00999999 0.4197056 0.08029437 0.49 0.25 0.49 0.25 0.25 0.49 0.00999999 0.25 0.25 1 0.125 1 0.125 0.5 0.125 1 0 1 0 0.5 0.5802944 0.4197056 0.75 0.49 0.9197056 0.08029437 0.75 0.49 0.9197056 0.4197056 0.9197056 0.08029437 0.9197056 0.4197056 0.99 0.25 0.9197056 0.08029437 0.9197056 0.08029437 0.75 0.00999999 0.5802944 0.4197056 0.75 0.00999999 0.5802944 0.08029437 0.5802944 0.4197056</float_array>
          <technique_common>
            <accessor source="#Colmesh_arm0-1-mesh-map-0-array" count="84" stride="2">
              <param name="S" type="float"/>
              <param name="T" type="float"/>
            </accessor>
          </technique_common>
        </source>
        <vertices id="Colmesh_arm0-1-mesh-vertices">
          <input semantic="POSITION" source="#Colmesh_arm0-1-mesh-positions"/>
        </vertices>
        <triangles material="Colmesh_Material-material" count="28">
          <input semantic="VERTEX" source="#Colmesh_arm0-1-mesh-vertices" offset="0"/>
          <input semantic="NORMAL" source="#Colmesh_arm0-1-mesh-normals" offset="1"/>
          <input semantic="TEXCOORD" source="#Colmesh_arm0-1-mesh-map-0" offset="2" set="0"/>
          <p>1 0 0 2 0 1 0 0 2 3 1 3 4 1 4 2 1 5 5 2 6 6 2 7 4 2 8 7 3 9 8 3 10 6 3 11 9 4 12 10 4 13 8 4 14 11 5 15 12 5 16 10 5 17 13 6 18 9 6 19 5 6 20 13 7 21 14 7 22 12 7 23 15 8 24 0 8 25 14 8 26 10 9 27 12 9 28 14 9 29 1 10 30 3 10 31 2 10 32 3 11 33 5 11 34 4 11 35 5 12 36 7 12 37 6 12 38 7 13 39 9 13 40 8 13 41 9 14 42 11 14 43 10 14 44 11 15 45 13 15 46 12 15 47 5 16 48 3 16 49 1 16 50 1 17 51 15 17 52 13 17 53 13 18 54 11 18 55 9 18 56 9 19 57 7 19 58 5 19 59 5 20 60 1 20 61 13 20 62 13 21 63 15 21 64 14 21 65 15 22 66 1 22 67 0 22 68 14 23 69 0 23 70 6 23 71 0 24 72 2 24 73 6 24 74 2 25 75 4 25 76 6 25 77 6 26 78 8 26 79 14 26 80 8 27 81 10 27 82 14 27 83</p>
        </triangles>
      </mesh>
    </geometry>
    <geometry id="Colmesh_trunk-1-mesh" name="Colmesh_trunk-1">
      <mesh>
        <source id="Colmesh_trunk-1-mesh-positions">
          <float_array id="Colmesh_trunk-1-mesh-positions-array" count="60">-0.00282216 0.3174 0 -0.00282216 0.3174 4.8 0.1837408 0.256782 0 0.1837408 0.256782 4.8 0.2990431 0.098082 0 0.2990431 0.098082 4.8 0.2990431 -0.098082 0 0.2990431 -0.098082 4.8 0.1837408 -0.256782 0 0.1837408 -0.256782 4.8 -0.00282216 -0.3174 0 -0.00282216 -0.3174 4.8 -0.1893852 -0.256782 0 -0.1893852 -0.256782 4.8 -0.3046875 -0.098082 0 -0.3046875 -0.098082 4.8 -0.3046875 0.098082 0 -0.3046875 0.098082 4.8 -0.1893852 0.256782 0 -0.1893852 0.256782 4.8</float_array>
          <technique_common>
            <accessor source="#Colmesh_trunk-1-mesh-positions-array" count="20" stride="3">
              <param name="X" type="float"/>
              <param name="Y" type="float"/>
              <param name="Z" type="float"/>
            </accessor>
          </technique_common>
        </source>
        <source id="Colmesh_trunk-1-mesh-normals">
          <float_array id="Colmesh_trunk-1-mesh-normals-array" count="108">0.309017 0.9510565 0 0.809017 0.5877853 0 1 0 0 0.809017 -0.5877853 0 0.309017 -0.9510565 0 -0.309017 -0.9510565 0 -0.809017 -0.5877853 0 -1 0 0 0 0 1 -0.809017 0.5877853 0 -0.309017 0.9510565 0 0 0 -1 0.309017 0.9510565 0 0.809017 0.5877853 0 1 0 0 0.809017 -0.5877853 0 0.309017 -0.9510565 0 -0.309017 -0.9510565 0 -0.809017 -0.5877853 0 -1 0 0 0 0 1 0 0 1 0 0 1 0 0 1 0 0 1 0 0 1 0 0 1 -0.809017 0.5877853 0 -0.309017 0.9510565 0 0 0 -1 0 0 -1 0 0 -1 0 0 -1 0 0 -1 0 0 -1 0 0 -1</float_array>
          <technique_common>
            <accessor source="#Colmesh_trunk-1-mesh-normals-array" count="36" stride="3">
              <param name="X" type="float"/>
              <param name="Y" type="float"/>
              <param name="Z" type="float"/>
            </accessor>
          </technique_common>
        </source>
        <source id="Colmesh_trunk-1-mesh-map-0">
          <float_array id="Colmesh_trunk-1-mesh-map-0-array" count="216">1 1 0.9 0.5 1 0.5 0.9 1 0.8 0.5 0.9 0.5 0.8 1 0.6999999 0.5 0.8 0.5 0.6999999 1 0.5999999 0.5 0.6999999 0.5 0.5999999 1 0.4999999 0.5 0.5999999 0.5 0.4999999 1 0.3999999 0.5 0.4999999 0.5 0.3999999 1 0.2999999 0.5 0.3999999 0.5 0.2999999 1 0.1999999 0.5 0.2999999 0.5 0.02174639 0.3241641 0.3910685 0.0558359 0.4782536 0.3241641 0.1999999 1 0.0999999 0.5 0.1999999 0.5 0.0999999 1 0 0.5 0.0999999 0.5 0.8910685 0.444164 0.9782536 0.1758359 0.5217465 0.1758359 1 1 0.9 1 0.9 0.5 0.9 1 0.8 1 0.8 0.5 0.8 1 0.6999999 1 0.6999999 0.5 0.6999999 1 0.5999999 1 0.5999999 0.5 0.5999999 1 0.4999999 1 0.4999999 0.5 0.4999999 1 0.3999999 1 0.3999999 0.5 0.3999999 1 0.2999999 1 0.2999999 0.5 0.2999999 1 0.1999999 1 0.1999999 0.5 0.4782536 0.3241641 0.3910685 0.444164 0.25 0.49 0.25 0.49 0.1089315 0.444164 0.4782536 0.3241641 0.1089315 0.444164 0.02174639 0.3241641 0.4782536 0.3241641 0.02174639 0.3241641 0.02174639 0.1758359 0.1089315 0.0558359 0.1089315 0.0558359 0.25 0.00999999 0.02174639 0.3241641 0.25 0.00999999 0.3910685 0.0558359 0.02174639 0.3241641 0.3910685 0.0558359 0.4782536 0.1758359 0.4782536 0.3241641 0.1999999 1 0.0999999 1 0.0999999 0.5 0.0999999 1 0 1 0 0.5 0.6089316 0.444164 0.75 0.49 0.8910685 0.444164 0.8910685 0.444164 0.9782536 0.3241641 0.9782536 0.1758359 0.9782536 0.1758359 0.8910685 0.0558359 0.5217465 0.1758359 0.8910685 0.0558359 0.75 0.00999999 0.5217465 0.1758359 0.75 0.00999999 0.6089316 0.0558359 0.5217465 0.1758359 0.5217465 0.1758359 0.5217465 0.3241641 0.6089316 0.444164 0.6089316 0.444164 0.8910685 0.444164 0.5217465 0.1758359</float_array>
          <technique_common>
            <accessor source="#Colmesh_trunk-1-mesh-map-0-array" count="108" stride="2">
              <param name="S" type="float"/>
              <param name="T" type="float"/>
            </accessor>
          </technique_common>
        </source>
        <vertices id="Colmesh_trunk-1-mesh-vertices">
          <input semantic="POSITION" source="#Colmesh_trunk-1-mesh-positions"/>
        </vertices>
        <triangles material="Colmesh_Material-material" count="36">
          <input semantic="VERTEX" source="#Colmesh_trunk-1-mesh-vertices" offset="0"/>
          <input semantic="NORMAL" source="#Colmesh_trunk-1-mesh-normals" offset="1"/>
          <input semantic="TEXCOORD" source="#Colmesh_trunk-1-mesh-map-0" offset="2" set="0"/>
          <p>1 0 0 2 0 1 0 0 2 3 1 3 4 1 4 2 1 5 5 2 6 6 2 7 4 2 8 7 3 9 8 3 10 6 3 11 9 4 12 10 4 13 8 4 14 11 5 15 12 5 16 10 5 17 13 6 18 14 6 19 12 6 20 15 7 21 16 7 22 14 7 23 17 8 24 9 8 25 5 8 26 17 9 27 18 9 28 16 9 29 19 10 30 0 10 31 18 10 32 2 11 33 6 11 34 14 11 35 1 12 36 3 12 37 2 12 38 3 13 39 5 13 40 4 13 41 5 14 42 7 14 43 6 14 44 7 15 45 9 15 46 8 15 47 9 16 48 11 16 49 10 16 50 11 17 51 13 17 52 12 17 53 13 18 54 15 18 55 14 18 56 15 19 57 17 19 58 16 19 59 5 20 60 3 20 61 1 20 62 1 21 63 19 21 64 5 21 65 19 22 66 17 22 67 5 22 68 17 23 69 15 23 70 13 23 71 13 24 72 11 24 73 17 24 74 11 25 75 9 25 76 17 25 77 9 26 78 7 26 79 5 26 80 17 27 81 19 27 82 18 27 83 19 28 84 1 28 85 0 28 86 18 29 87 0 29 88 2 29 89 2 30 90 4 30 91 6 30 92 6 31 93 8 31 94 14 31 95 8 32 96 10 32 97 14 32 98 10 33 99 12 33 100 14 33 101 14 34 102 16 34 103 18 34 104 18 35 105 2 35 106 14 35 107</p>
        </triangles>
      </mesh>
    </geometry>
    <geometry id="saguaro_armed_a800-mesh" name="saguaro_armed_a800">
      <mesh>
        <source id="saguaro_armed_a800-mesh-positions">
          <float_array id="saguaro_armed_a800-mesh-positions-array" count="264">-0.00282216 0.276 0 -0.00282216 0.276 3.36 0.1351778 0.239023 0 0.1351778 0.239023 3.36 0.2362008 0.138 0 0.2362008 0.138 3.36 0.2731778 0 0 0.2731778 0 3.36 0.2362008 -0.138 0 0.2362008 -0.138 3.36 0.1351778 -0.239023 0 0.1351778 -0.239023 3.36 -0.00282216 -0.276 0 -0.00282216 -0.276 3.36 -0.1408222 -0.239023 0 -0.1408222 -0.239023 3.36 -0.2418451 -0.138 0 -0.2418451 -0.138 3.36 -0.2788222 0 0 -0.2788222 0 3.36 -0.2418451 0.138 0 -0.2418451 0.138 3.36 -0.1408222 0.239023 0 -0.1408222 0.239023 3.36 -0.00282216 0.2346 2.4 -0.00282216 0.2346 4.8 0.1144778 0.2031695 2.4 0.1144778 0.2031695 4.8 0.2003473 0.1173 2.4 0.2003473 0.1173 4.8 0.2317778 0 2.4 0.2317778 0 4.8 0.2003473 -0.1173 2.4 0.2003473 -0.1173 4.8 0.1144778 -0.2031695 2.4 0.1144778 -0.2031695 4.8 -0.00282216 -0.2346 2.4 -0.00282216 -0.2346 4.8 -0.1201221 -0.2031695 2.4 -0.1201221 -0.2031695 4.8 -0.2059917 -0.1173 2.4 -0.2059917 -0.1173 4.8 -0.2374222 0 2.4 -0.2374222 0 4.8 -0.2059917 0.1173 2.4 -0.2059917 0.1173 4.8 -0.1201221 0.2031695 2.4 -0.1201221 0.2031695 4.8 -0.5754924 0.1198487 2.324548 -0.2221519 0.1198487 3.986883 -0.5040848 0.09612864 2.309369 -0.1507443 0.09612864 3.971705 -0.4599524 0.03402858 2.299989 -0.106612 0.03402858 3.962325 -0.4599524 -0.04273116 2.299989 -0.106612 -0.04273116 3.962325 -0.5040848 -0.1048312 2.309369 -0.1507443 -0.1048312 3.971705 -0.5754924 -0.1285513 2.324548 -0.2221519 -0.1285513 3.986883 -0.6469001 -0.1048312 2.339725 -0.2935596 -0.1048312 4.002062 -0.6910324 -0.04273116 2.349106 -0.337692 -0.04273116 4.011442 -0.6910324 0.03402858 2.349106 -0.337692 0.03402858 4.011442 -0.6469001 0.09612864 2.339725 -0.2935596 0.09612864 4.002062 0.5754924 0.1262559 2.350723 0.2108632 0.1262559 4.066168 0.6469 0.1025359 2.365901 0.2822709 0.1025359 4.081346 0.6910324 0.04043585 2.375282 0.3264032 0.04043585 4.090727 0.6910324 -0.0363239 2.375282 0.3264032 -0.0363239 4.090727 0.6469 -0.09842389 2.365901 0.2822709 -0.09842389 4.081346 0.5754924 -0.122144 2.350723 0.2108632 -0.122144 4.066168 0.5040847 -0.09842389 2.335545 0.1394556 -0.09842389 4.05099 0.4599524 -0.0363239 2.326164 0.09532326 -0.0363239 4.04161 0.4599524 0.04043585 2.326164 0.09532326 0.04043585 4.04161 0.5040847 0.1025359 2.335545 0.1394556 0.1025359 4.05099</float_array>
          <technique_common>
            <accessor source="#saguaro_armed_a800-mesh-positions-array" count="88" stride="3">
              <param name="X" type="float"/>
              <param name="Y" type="float"/>
              <param name="Z" type="float"/>
            </accessor>
          </technique_common>
        </source>
        <source id="saguaro_armed_a800-mesh-normals">
          <float_array id="saguaro_armed_a800-mesh-normals-array" count="480">0.2588191 0.9659258 0 0.7071068 0.7071068 0 0.9659258 0.2588191 0 0.9659258 -0.2588191 0 0.7071068 -0.7071068 0 0.2588191 -0.9659258 0 -0.2588191 -0.9659258 0 -0.7071068 -0.7071068 0 -0.9659258 -0.2588191 0 -0.9659258 0.2588191 0 0 0 1 -0.7071068 0.7071068 0 -0.2588191 0.9659258 0 0 0 -1 0.258819 0.9659258 0 0.7071068 0.7071068 0 0.9659258 0.258819 0 0.9659258 -0.258819 0 0.7071068 -0.7071068 0 0.258819 -0.9659258 0 -0.258819 -0.9659258 0 -0.7071068 -0.7071068 0 -0.9659258 -0.258819 0 -0.9659258 0.258819 0 0 0 1 -0.7071068 0.7071068 0 -0.258819 0.9659258 0 0 0 -1 0.3022642 0.9510565 -0.0642482 0.791338 0.5877851 -0.1682041 0.9781476 0 -0.2079117 0.791338 -0.5877851 -0.1682041 0.3022641 -0.9510565 -0.0642482 -0.3022641 -0.9510565 0.0642482 -0.7913377 -0.5877857 0.168204 -0.9781476 0 0.2079117 0.2079117 1.38046e-6 0.9781476 -0.7913377 0.5877856 0.168204 -0.3022642 0.9510565 0.0642482 -0.2079124 -1.13692e-6 -0.9781475 0.3022643 0.9510565 0.06424826 0.7913381 0.5877853 0.1682041 0.9781476 0 0.2079117 0.7913383 -0.587785 0.1682041 0.3022643 -0.9510565 0.06424826 -0.302264 -0.9510566 -0.0642482 -0.7913383 -0.5877849 -0.1682041 -0.9781476 0 -0.2079117 -0.2079117 0 0.9781476 -0.7913385 0.5877847 -0.1682041 -0.3022641 0.9510565 -0.0642482 0.2079117 0 -0.9781476 0.2588191 0.9659258 0 0.7071068 0.7071068 0 0.9659258 0.2588191 0 0.9659258 -0.2588191 0 0.7071068 -0.7071068 0 0.2588191 -0.9659258 0 -0.2588191 -0.9659258 0 -0.7071068 -0.7071068 0 -0.9659258 -0.2588191 0 -0.9659258 0.2588191 0 0 0 1 0 0 1 0 0 1 0 0 1 0 0 1 0 0 1 0 0 1 0 0 1 0 0 1 -0.7071068 0.7071068 0 -0.2588191 0.9659258 0 0 0 -1 0 0 -1 0 0 -1 0 0 -1 0 0 -1 0 0 -1 0 0 -1 0 0 -1 0 0 -1 0.258819 0.9659258 0 0.7071068 0.7071068 0 0.9659258 0.258819 0 0.9659258 -0.258819 0 0.7071068 -0.7071068 0 0.258819 -0.9659258 0 -0.258819 -0.9659258 0 -0.7071068 -0.7071068 0 -0.9659258 -0.258819 0 -0.9659258 0.258819 0 0 0 1 0 0 1 0 0 1 0 0 1 0 0 1 0 0 1 0 0 1 0 0 1 0 0 1 -0.7071068 0.7071068 0 -0.258819 0.9659258 0 0 0 -1 0 0 -1 0 0 -1 0 0 -1 0 0 -1 0 0 -1 0 0 -1 0 0 -1 0 0 -1 0.3022644 0.9510565 -0.06424826 0.7913378 0.5877857 -0.168204 0.9781476 0 -0.2079117 0.7913378 -0.5877856 -0.168204 0.3022643 -0.9510565 -0.0642482 -0.3022639 -0.9510566 0.06424814 -0.7913384 -0.5877847 0.1682041 -0.9781476 0 0.2079117 0.2079117 -3.08681e-6 0.9781476 0.2079099 2.5037e-6 0.978148 0.2079184 -9.36156e-6 0.9781462 0.2079107 0 0.9781478 0.2079122 4.82765e-6 0.9781475 0.2079122 -9.81537e-6 0.9781475 0.2079158 0 0.9781467 -0.7913384 0.5877848 0.1682041 -0.302264 0.9510566 0.06424814 -0.2079106 5.1766e-6 -0.9781478 -0.2079108 0 -0.9781478 -0.2079127 1.44541e-6 -0.9781474 -0.2079069 6.65562e-6 -0.9781486 -0.2079158 0 -0.9781467 -0.2079106 0 -0.9781478 -0.2079112 -7.27494e-7 -0.9781478 0.3022642 0.9510565 0.0642482 0.7913377 0.5877856 0.168204 0.9781476 0 0.2079117 0.7913378 -0.5877856 0.168204 0.3022642 -0.9510566 0.0642482 -0.3022642 -0.9510566 -0.0642482 -0.7913384 -0.5877848 -0.1682041 -0.9781476 0 -0.2079117 -0.2079111 3.51269e-6 0.9781477 -0.2079126 1.33531e-6 0.9781474 -0.2079117 4.42787e-6 0.9781476 -0.2079107 0 0.9781478 -0.2079122 -4.82765e-6 0.9781475 -0.2079122 0 0.9781475 -0.2079125 -2.49086e-6 0.9781474 -0.7913384 0.5877848 -0.1682041 -0.3022642 0.9510565 -0.06424826 0.2079122 -2.68914e-7 -0.9781475 0.2079122 1.05284e-6 -0.9781475 0.2079119 0 -0.9781476 0.2079127 -1.44541e-6 -0.9781474 0.2079125 1.1765e-6 -0.9781475 0.2079117 0 -0.9781476 0.2079115 -4.55802e-7 -0.9781477</float_array>
          <technique_common>
            <accessor source="#saguaro_armed_a800-mesh-normals-array" count="160" stride="3">
              <param name="X" type="float"/>
              <param name="Y" type="float"/>
              <param name="Z" type="float"/>
            </accessor>
          </technique_common>
        </source>
        <source id="saguaro_armed_a800-mesh-map-0">
          <float_array id="saguaro_armed_a800-mesh-map-0-array" count="960">1 0.5 0.75 0.75 0.75 0.5 1 0.5 0.75 0.75 0.75 0.5 1 0.5 0.75 0.75 0.75 0.5 1 0.5 0.75 0.75 0.75 0.5 1 0.5 0.75 0.75 0.75 0.5 1 0.5 0.75 0.75 0.75 0.5 1 0.5 0.75 0.75 0.75 0.5 1 0.5 0.75 0.75 0.75 0.5 1 0.5 0.75 0.75 0.75 0.5 1 0.5 0.75 0.75 0.75 0.5 0.04215389 0.37 0.25 0.00999999 0.4578461 0.37 1 0.5 0.75 0.75 0.75 0.5 1 0.5 0.75 0.75 0.75 0.5 0.99 0.25 0.63 0.04215389 0.63 0.4578461 0.75 0.5 0.5 0.75 0.5 0.5 0.75 0.5 0.5 0.75 0.5 0.5 0.75 0.5 0.5 0.75 0.5 0.5 0.75 0.5 0.5 0.75 0.5 0.5 0.75 0.5 0.5 0.75 0.5 0.5 0.75 0.5 0.5 0.75 0.5 0.5 0.75 0.5 0.5 0.75 0.5 0.5 0.75 0.5 0.5 0.75 0.5 0.5 0.75 0.5 0.5 0.75 0.5 0.5 0.75 0.5 0.5 0.75 0.5 0.5 0.04215389 0.37 0.25 0.00999999 0.4578461 0.37 0.75 0.5 0.5 0.75 0.5 0.5 0.75 0.5 0.5 0.75 0.5 0.5 0.99 0.25 0.63 0.04215389 0.63 0.4578461 0.75 0.5 0.5 0.75 0.5 0.5 0.5 0.5 0.75 0.75 0.5 0.75 0.75 0.5 0.5 0.75 0.5 0.5 0.75 0.5 0.5 0.75 0.5 0.5 0.5 0.5 0.75 0.75 0.5 0.75 0.75 0.5 0.5 0.75 0.5 0.5 0.5 0.5 0.75 0.75 0.5 0.75 0.75 0.5 0.5 0.75 0.5 0.5 0.02174639 0.3241641 0.3910685 0.0558359 0.4782536 0.3241641 0.75 0.5 0.5 0.75 0.5 0.5 0.5 0.5 0.75 0.75 0.5 0.75 0.75 0.00999999 0.5217465 0.1758359 0.6089316 0.4441641 0.75 0.5 0.5 0.75 0.5 0.5 0.75 0.5 0.5 0.75 0.5 0.5 0.75 0.5 0.5 0.75 0.5 0.5 0.5 0.5 0.75 0.75 0.5 0.75 0.5 0.5 0.75 0.75 0.5 0.75 0.5 0.5 0.75 0.75 0.5 0.75 0.75 0.5 0.5 0.75 0.5 0.5 0.75 0.5 0.5 0.75 0.5 0.5 0.4782536 0.1758359 0.4782536 0.3241641 0.02174639 0.3241641 0.5 0.5 0.75 0.75 0.5 0.75 0.75 0.5 0.5 0.75 0.5 0.5 0.9782536 0.1758359 0.75 0.00999999 0.5217465 0.1758359 1 0.5 1 0.75 0.75 0.75 1 0.5 1 0.75 0.75 0.75 1 0.5 1 0.75 0.75 0.75 1 0.5 1 0.75 0.75 0.75 1 0.5 1 0.75 0.75 0.75 1 0.5 1 0.75 0.75 0.75 1 0.5 1 0.75 0.75 0.75 1 0.5 1 0.75 0.75 0.75 1 0.5 1 0.75 0.75 0.75 1 0.5 1 0.75 0.75 0.75 0.4578461 0.37 0.37 0.4578461 0.25 0.49 0.25 0.49 0.1299999 0.4578461 0.4578461 0.37 0.1299999 0.4578461 0.04215389 0.37 0.4578461 0.37 0.04215389 0.37 0.00999999 0.25 0.04215389 0.1299999 0.04215389 0.1299999 0.1299999 0.04215389 0.04215389 0.37 0.1299999 0.04215389 0.25 0.00999999 0.04215389 0.37 0.25 0.00999999 0.37 0.04215389 0.4578461 0.1299999 0.4578461 0.1299999 0.49 0.25 0.4578461 0.37 0.25 0.00999999 0.4578461 0.1299999 0.4578461 0.37 1 0.5 1 0.75 0.75 0.75 1 0.5 1 0.75 0.75 0.75 0.63 0.4578461 0.75 0.49 0.87 0.4578461 0.87 0.4578461 0.9578461 0.37 0.63 0.4578461 0.9578461 0.37 0.99 0.25 0.63 0.4578461 0.99 0.25 0.9578461 0.1299999 0.87 0.04215389 0.87 0.04215389 0.75 0.00999999 0.63 0.04215389 0.63 0.04215389 0.5421539 0.1299999 0.51 0.25 0.51 0.25 0.5421539 0.37 0.63 0.04215389 0.5421539 0.37 0.63 0.4578461 0.63 0.04215389 0.99 0.25 0.87 0.04215389 0.63 0.04215389 0.75 0.5 0.75 0.75 0.5 0.75 0.75 0.5 0.75 0.75 0.5 0.75 0.75 0.5 0.75 0.75 0.5 0.75 0.75 0.5 0.75 0.75 0.5 0.75 0.75 0.5 0.75 0.75 0.5 0.75 0.75 0.5 0.75 0.75 0.5 0.75 0.75 0.5 0.75 0.75 0.5 0.75 0.75 0.5 0.75 0.75 0.5 0.75 0.75 0.5 0.75 0.75 0.5 0.75 0.75 0.5 0.75 0.75 0.5 0.75 0.4578461 0.37 0.37 0.4578461 0.25 0.49 0.25 0.49 0.1299999 0.4578461 0.04215389 0.37 0.04215389 0.37 0.00999999 0.25 0.04215389 0.1299999 0.04215389 0.1299999 0.1299999 0.04215389 0.25 0.00999999 0.25 0.00999999 0.37 0.04215389 0.4578461 0.1299999 0.4578461 0.1299999 0.49 0.25 0.4578461 0.37 0.4578461 0.37 0.25 0.49 0.04215389 0.37 0.04215389 0.37 0.04215389 0.1299999 0.25 0.00999999 0.25 0.00999999 0.4578461 0.1299999 0.4578461 0.37 0.75 0.5 0.75 0.75 0.5 0.75 0.75 0.5 0.75 0.75 0.5 0.75 0.63 0.4578461 0.75 0.49 0.87 0.4578461 0.87 0.4578461 0.9578461 0.37 0.99 0.25 0.99 0.25 0.9578461 0.1299999 0.87 0.04215389 0.87 0.04215389 0.75 0.00999999 0.63 0.04215389 0.63 0.04215389 0.5421539 0.1299999 0.51 0.25 0.51 0.25 0.5421539 0.37 0.63 0.4578461 0.63 0.4578461 0.87 0.4578461 0.99 0.25 0.99 0.25 0.87 0.04215389 0.63 0.04215389 0.63 0.04215389 0.51 0.25 0.63 0.4578461 0.75 0.5 0.75 0.75 0.5 0.75 0.5 0.5 0.75 0.5 0.75 0.75 0.75 0.5 0.75 0.75 0.5 0.75 0.75 0.5 0.75 0.75 0.5 0.75 0.5 0.5 0.75 0.5 0.75 0.75 0.75 0.5 0.75 0.75 0.5 0.75 0.5 0.5 0.75 0.5 0.75 0.75 0.75 0.5 0.75 0.75 0.5 0.75 0.4782536 0.3241641 0.3910685 0.4441641 0.02174639 0.3241641 0.3910685 0.4441641 0.25 0.49 0.02174639 0.3241641 0.25 0.49 0.1089315 0.4441641 0.02174639 0.3241641 0.02174639 0.3241641 0.02174639 0.1758359 0.3910685 0.0558359 0.02174639 0.1758359 0.1089315 0.0558359 0.3910685 0.0558359 0.1089315 0.0558359 0.25 0.00999999 0.3910685 0.0558359 0.3910685 0.0558359 0.4782536 0.1758359 0.4782536 0.3241641 0.75 0.5 0.75 0.75 0.5 0.75 0.5 0.5 0.75 0.5 0.75 0.75 0.6089316 0.4441641 0.75 0.49 0.8910685 0.4441641 0.8910685 0.4441641 0.9782536 0.3241641 0.9782536 0.1758359 0.9782536 0.1758359 0.8910685 0.0558359 0.75 0.00999999 0.75 0.00999999 0.6089316 0.0558359 0.5217465 0.1758359 0.5217465 0.1758359 0.5217465 0.3241641 0.6089316 0.4441641 0.6089316 0.4441641 0.8910685 0.4441641 0.9782536 0.1758359 0.9782536 0.1758359 0.75 0.00999999 0.6089316 0.4441641 0.75 0.5 0.75 0.75 0.5 0.75 0.75 0.5 0.75 0.75 0.5 0.75 0.75 0.5 0.75 0.75 0.5 0.75 0.5 0.5 0.75 0.5 0.75 0.75 0.5 0.5 0.75 0.5 0.75 0.75 0.5 0.5 0.75 0.5 0.75 0.75 0.75 0.5 0.75 0.75 0.5 0.75 0.75 0.5 0.75 0.75 0.5 0.75 0.4782536 0.3241641 0.3910685 0.4441641 0.25 0.49 0.25 0.49 0.1089315 0.4441641 0.4782536 0.3241641 0.1089315 0.4441641 0.02174639 0.3241641 0.4782536 0.3241641 0.02174639 0.3241641 0.02174639 0.1758359 0.3910685 0.0558359 0.02174639 0.1758359 0.1089315 0.0558359 0.3910685 0.0558359 0.1089315 0.0558359 0.25 0.00999999 0.3910685 0.0558359 0.3910685 0.0558359 0.4782536 0.1758359 0.02174639 0.3241641 0.5 0.5 0.75 0.5 0.75 0.75 0.75 0.5 0.75 0.75 0.5 0.75 0.6089316 0.4441641 0.75 0.49 0.8910685 0.4441641 0.8910685 0.4441641 0.9782536 0.3241641 0.6089316 0.4441641 0.9782536 0.3241641 0.9782536 0.1758359 0.6089316 0.4441641 0.9782536 0.1758359 0.8910685 0.0558359 0.75 0.00999999 0.75 0.00999999 0.6089316 0.0558359 0.5217465 0.1758359 0.5217465 0.1758359 0.5217465 0.3241641 0.9782536 0.1758359 0.5217465 0.3241641 0.6089316 0.4441641 0.9782536 0.1758359</float_array>
          <technique_common>
            <accessor source="#saguaro_armed_a800-mesh-map-0-array" count="480" stride="2">
              <param name="S" type="float"/>
              <param name="T" type="float"/>
            </accessor>
          </technique_common>
        </source>
        <vertices id="saguaro_armed_a800-mesh-vertices">
          <input semantic="POSITION" source="#saguaro_armed_a800-mesh-positions"/>
        </vertices>
        <triangles material="ParkerVegBark-material" count="160">
          <input semantic="VERTEX" source="#saguaro_armed_a800-mesh-vertices" offset="0"/>
          <input semantic="NORMAL" source="#saguaro_armed_a800-mesh-normals" offset="1"/>
          <input semantic="TEXCOORD" source="#saguaro_armed_a800-mesh-map-0" offset="2" set="0"/>
          <p>1 0 0 2 0 1 0 0 2 3 1 3 4 1 4 2 1 5 5 2 6 6 2 7 4 2 8 7 3 9 8 3 10 6 3 11 9 4 12 10 4 13 8 4 14 11 5 15 12 5 16 10 5 17 13 6 18 14 6 19 12 6 20 15 7 21 16 7 22 14 7 23 17 8 24 18 8 25 16 8 26 19 9 27 20 9 28 18 9 29 21 10 30 13 10 31 5 10 32 21 11 33 22 11 34 20 11 35 23 12 36 0 12 37 22 12 38 6 13 39 14 13 40 22 13 41 25 14 42 26 14 43 24 14 44 27 15 45 28 15 46 26 15 47 29 16 48 30 16 49 28 16 50 31 17 51 32 17 52 30 17 53 33 18 54 34 18 55 32 18 56 35 19 57 36 19 58 34 19 59 37 20 60 38 20 61 36 20 62 39 21 63 40 21 64 38 21 65 41 22 66 42 22 67 40 22 68 43 23 69 44 23 70 42 23 71 45 24 72 37 24 73 29 24 74 45 25 75 46 25 76 44 25 77 47 26 78 24 26 79 46 26 80 30 27 81 38 27 82 46 27 83 49 28 84 50 28 85 48 28 86 50 29 87 53 29 88 52 29 89 53 30 90 54 30 91 52 30 92 55 31 93 56 31 94 54 31 95 56 32 96 59 32 97 58 32 98 59 33 99 60 33 100 58 33 101 60 34 102 63 34 103 62 34 104 63 35 105 64 35 106 62 35 107 65 36 108 57 36 109 53 36 110 65 37 111 66 37 112 64 37 113 66 38 114 49 38 115 48 38 116 58 39 117 62 39 118 66 39 119 69 40 120 70 40 121 68 40 122 71 41 123 72 41 124 70 41 125 73 42 126 74 42 127 72 42 128 74 43 129 77 43 130 76 43 131 76 44 132 79 44 133 78 44 134 78 45 135 81 45 136 80 45 137 81 46 138 82 46 139 80 46 140 83 47 141 84 47 142 82 47 143 75 48 144 73 48 145 85 48 146 84 49 147 87 49 148 86 49 149 87 50 150 68 50 151 86 50 152 74 51 153 78 51 154 82 51 155 1 52 156 3 52 157 2 52 158 3 53 159 5 53 160 4 53 161 5 54 162 7 54 163 6 54 164 7 55 165 9 55 166 8 55 167 9 56 168 11 56 169 10 56 170 11 57 171 13 57 172 12 57 173 13 58 174 15 58 175 14 58 176 15 59 177 17 59 178 16 59 179 17 60 180 19 60 181 18 60 182 19 61 183 21 61 184 20 61 185 5 62 186 3 62 187 1 62 188 1 63 189 23 63 190 5 63 191 23 64 192 21 64 193 5 64 194 21 65 195 19 65 196 17 65 197 17 66 198 15 66 199 21 66 200 15 67 201 13 67 202 21 67 203 13 68 204 11 68 205 9 68 206 9 69 207 7 69 208 5 69 209 13 70 210 9 70 211 5 70 212 21 71 213 23 71 214 22 71 215 23 72 216 1 72 217 0 72 218 22 73 219 0 73 220 2 73 221 2 74 222 4 74 223 22 74 224 4 75 225 6 75 226 22 75 227 6 76 228 8 76 229 10 76 230 10 77 231 12 77 232 14 77 233 14 78 234 16 78 235 18 78 236 18 79 237 20 79 238 14 79 239 20 80 240 22 80 241 14 80 242 6 81 243 10 81 244 14 81 245 25 82 246 27 82 247 26 82 248 27 83 249 29 83 250 28 83 251 29 84 252 31 84 253 30 84 254 31 85 255 33 85 256 32 85 257 33 86 258 35 86 259 34 86 260 35 87 261 37 87 262 36 87 263 37 88 264 39 88 265 38 88 266 39 89 267 41 89 268 40 89 269 41 90 270 43 90 271 42 90 272 43 91 273 45 91 274 44 91 275 29 92 276 27 92 277 25 92 278 25 93 279 47 93 280 45 93 281 45 94 282 43 94 283 41 94 284 41 95 285 39 95 286 37 95 287 37 96 288 35 96 289 33 96 290 33 97 291 31 97 292 29 97 293 29 98 294 25 98 295 45 98 296 45 99 297 41 99 298 37 99 299 37 100 300 33 100 301 29 100 302 45 101 303 47 101 304 46 101 305 47 102 306 25 102 307 24 102 308 46 103 309 24 103 310 26 103 311 26 104 312 28 104 313 30 104 314 30 105 315 32 105 316 34 105 317 34 106 318 36 106 319 38 106 320 38 107 321 40 107 322 42 107 323 42 108 324 44 108 325 46 108 326 46 109 327 26 109 328 30 109 329 30 110 330 34 110 331 38 110 332 38 111 333 42 111 334 46 111 335 49 112 336 51 112 337 50 112 338 50 113 339 51 113 340 53 113 341 53 114 342 55 114 343 54 114 344 55 115 345 57 115 346 56 115 347 56 116 348 57 116 349 59 116 350 59 117 351 61 117 352 60 117 353 60 118 354 61 118 355 63 118 356 63 119 357 65 119 358 64 119 359 53 120 360 51 120 361 65 120 362 51 121 363 49 121 364 65 121 365 49 122 366 67 122 367 65 122 368 65 123 369 63 123 370 57 123 371 63 124 372 61 124 373 57 124 374 61 125 375 59 125 376 57 125 377 57 126 378 55 126 379 53 126 380 65 127 381 67 127 382 66 127 383 66 128 384 67 128 385 49 128 386 66 129 387 48 129 388 50 129 389 50 130 390 52 130 391 54 130 392 54 131 393 56 131 394 58 131 395 58 132 396 60 132 397 62 132 398 62 133 399 64 133 400 66 133 401 66 134 402 50 134 403 54 134 404 54 135 405 58 135 406 66 135 407 69 136 408 71 136 409 70 136 410 71 137 411 73 137 412 72 137 413 73 138 414 75 138 415 74 138 416 74 139 417 75 139 418 77 139 419 76 140 420 77 140 421 79 140 422 78 141 423 79 141 424 81 141 425 81 142 426 83 142 427 82 142 428 83 143 429 85 143 430 84 143 431 73 144 432 71 144 433 69 144 434 69 145 435 87 145 436 73 145 437 87 146 438 85 146 439 73 146 440 85 147 441 83 147 442 77 147 443 83 148 444 81 148 445 77 148 446 81 149 447 79 149 448 77 149 449 77 150 450 75 150 451 85 150 452 84 151 453 85 151 454 87 151 455 87 152 456 69 152 457 68 152 458 86 153 459 68 153 460 70 153 461 70 154 462 72 154 463 86 154 464 72 155 465 74 155 466 86 155 467 74 156 468 76 156 469 78 156 470 78 157 471 80 157 472 82 157 473 82 158 474 84 158 475 74 158 476 84 159 477 86 159 478 74 159 479</p>
        </triangles>
      </mesh>
    </geometry>
  </library_geometries>
  <library_visual_scenes>
    <visual_scene id="Scene" name="Scene">
      <node id="base00" name="base00" type="NODE">
        <matrix sid="transform">1 0 0 0 0 1 0 0 0 0 1 0 0 0 0 1</matrix>
        <node id="start01" name="start01" type="NODE">
          <matrix sid="transform">1 0 0 0 0 1 0 0 0 0 1 0 0 0 0 1</matrix>
          <node id="saguaro_armed_a800" name="saguaro_armed_a800" type="NODE">
            <matrix sid="transform">1 0 0 0 0 1 0 0 0 0 1 0 0 0 0 1</matrix>
            <instance_geometry url="#saguaro_armed_a800-mesh" name="saguaro_armed_a800">
              <bind_material>
                <technique_common>
                  <instance_material symbol="ParkerVegBark-material" target="#ParkerVegBark-material">
                    <bind_vertex_input semantic="UVMap" input_semantic="TEXCOORD" input_set="0"/>
                  </instance_material>
                </technique_common>
              </bind_material>
            </instance_geometry>
          </node>
          <node id="saguaro_armed_a200" name="saguaro_armed_a200" type="NODE">
            <matrix sid="transform">1 0 0 0 0 1 0 0 0 0 1 0 0 0 0 1</matrix>
            <instance_geometry url="#saguaro_armed_a200-mesh" name="saguaro_armed_a200">
              <bind_material>
                <technique_common>
                  <instance_material symbol="ParkerVegBark-material" target="#ParkerVegBark-material">
                    <bind_vertex_input semantic="UVMap" input_semantic="TEXCOORD" input_set="0"/>
                  </instance_material>
                </technique_common>
              </bind_material>
            </instance_geometry>
          </node>
          <node id="saguaro_armed_a50" name="saguaro_armed_a50" type="NODE">
            <matrix sid="transform">1 0 0 0 0 1 0 0 0 0 1 0 0 0 0 1</matrix>
            <instance_geometry url="#saguaro_armed_a50-mesh" name="saguaro_armed_a50">
              <bind_material>
                <technique_common>
                  <instance_material symbol="ParkerVegBark-material" target="#ParkerVegBark-material">
                    <bind_vertex_input semantic="UVMap" input_semantic="TEXCOORD" input_set="0"/>
                  </instance_material>
                </technique_common>
              </bind_material>
            </instance_geometry>
          </node>
          <node id="nulldetail20" name="nulldetail20" type="NODE">
            <matrix sid="transform">1 0 0 0 0 1 0 0 0 0 1 0 0 0 0 1</matrix>
          </node>
        </node>
        <node id="collision-1" name="collision-1" type="NODE">
          <matrix sid="transform">1 0 0 0 0 1 0 0 0 0 1 0 0 0 0 1</matrix>
          <node id="Colmesh_trunk-1" name="Colmesh_trunk-1" type="NODE">
            <matrix sid="transform">1 0 0 0 0 1 0 0 0 0 1 0 0 0 0 1</matrix>
            <instance_geometry url="#Colmesh_trunk-1-mesh" name="Colmesh_trunk-1">
              <bind_material>
                <technique_common>
                  <instance_material symbol="Colmesh_Material-material" target="#Colmesh_Material-material">
                    <bind_vertex_input semantic="UVMap" input_semantic="TEXCOORD" input_set="0"/>
                  </instance_material>
                </technique_common>
              </bind_material>
            </instance_geometry>
          </node>
          <node id="Colmesh_arm0-1" name="Colmesh_arm0-1" type="NODE">
            <matrix sid="transform">1 0 0 0 0 1 0 0 0 0 1 0 0 0 0 1</matrix>
            <instance_geometry url="#Colmesh_arm0-1-mesh" name="Colmesh_arm0-1">
              <bind_material>
                <technique_common>
                  <instance_material symbol="Colmesh_Material-material" target="#Colmesh_Material-material">
                    <bind_vertex_input semantic="UVMap" input_semantic="TEXCOORD" input_set="0"/>
                  </instance_material>
                </technique_common>
              </bind_material>
            </instance_geometry>
          </node>
          <node id="Colmesh_arm1-1" name="Colmesh_arm1-1" type="NODE">
            <matrix sid="transform">1 0 0 0 0 1 0 0 0 0 1 0 0 0 0 1</matrix>
            <instance_geometry url="#Colmesh_arm1-1-mesh" name="Colmesh_arm1-1">
              <bind_material>
                <technique_common>
                  <instance_material symbol="Colmesh_Material-material" target="#Colmesh_Material-material">
                    <bind_vertex_input semantic="UVMap" input_semantic="TEXCOORD" input_set="0"/>
                  </instance_material>
                </technique_common>
              </bind_material>
            </instance_geometry>
          </node>
        </node>
      </node>
    </visual_scene>
  </library_visual_scenes>
  <scene>
    <instance_visual_scene url="#Scene"/>
  </scene>
</COLLADA>