# Parker 400 style mile marker
# Units: meters, Z-up, origin at ground
mtllib milemarker_01.mtl
o milemarker_01
v -0.050000 -0.050000 0.000000
v 0.050000 -0.050000 0.000000
v 0.050000 0.050000 0.000000
v -0.050000 0.050000 0.000000
v -0.050000 -0.050000 1.450000
v 0.050000 -0.050000 1.450000
v 0.050000 0.050000 1.450000
v -0.050000 0.050000 1.450000
v -0.055000 -0.055000 1.050000
v 0.055000 -0.055000 1.050000
v 0.055000 0.055000 1.050000
v -0.055000 0.055000 1.050000
v -0.055000 -0.055000 1.090000
v 0.055000 -0.055000 1.090000
v 0.055000 0.055000 1.090000
v -0.055000 0.055000 1.090000
v -0.210000 -0.085000 1.100000
v 0.210000 -0.085000 1.100000
v 0.210000 -0.055000 1.100000
v -0.210000 -0.055000 1.100000
v -0.210000 -0.085000 1.380000
v 0.210000 -0.085000 1.380000
v 0.210000 -0.055000 1.380000
v -0.210000 -0.055000 1.380000
v -0.200000 -0.055000 1.110000
v 0.200000 -0.055000 1.110000
v 0.200000 -0.045000 1.110000
v -0.200000 -0.045000 1.110000
v -0.200000 -0.055000 1.370000
v 0.200000 -0.055000 1.370000
v 0.200000 -0.045000 1.370000
v -0.200000 -0.045000 1.370000
vt 0.000000 0.000000
vt 1.000000 0.000000
vt 1.000000 1.000000
vt 0.000000 1.000000
vt 0.000000 0.000000
vt 1.000000 0.000000
vt 1.000000 1.000000
vt 0.000000 1.000000
vt 0.000000 0.000000
vt 1.000000 0.000000
vt 1.000000 1.000000
vt 0.000000 1.000000
vt 0.000000 0.000000
vt 1.000000 0.000000
vt 1.000000 1.000000
vt 0.000000 1.000000
vt 0.000000 0.000000
vt 1.000000 0.000000
vt 1.000000 1.000000
vt 0.000000 1.000000
vt 0.000000 0.000000
vt 1.000000 0.000000
vt 1.000000 1.000000
vt 0.000000 1.000000
vt 0.000000 0.000000
vt 1.000000 0.000000
vt 1.000000 1.000000
vt 0.000000 1.000000
vt 0.000000 0.000000
vt 1.000000 0.000000
vt 1.000000 1.000000
vt 0.000000 1.000000
vt 0.000000 0.000000
vt 1.000000 0.000000
vt 1.000000 1.000000
vt 0.000000 1.000000
vt 0.000000 0.000000
vt 1.000000 0.000000
vt 1.000000 1.000000
vt 0.000000 1.000000
vt 0.000000 0.000000
vt 1.000000 0.000000
vt 1.000000 1.000000
vt 0.000000 1.000000
vt 0.000000 0.000000
vt 1.000000 0.000000
vt 1.000000 1.000000
vt 0.000000 1.000000
vt 0.000000 0.000000
vt 1.000000 0.000000
vt 1.000000 1.000000
vt 0.000000 1.000000
vt 0.000000 0.000000
vt 1.000000 0.000000
vt 1.000000 1.000000
vt 0.000000 1.000000
vt 0.000000 0.000000
vt 1.000000 0.000000
vt 1.000000 1.000000
vt 0.000000 1.000000
vt 0.000000 0.000000
vt 1.000000 0.000000
vt 1.000000 1.000000
vt 0.000000 1.000000
vt 0.000000 0.000000
vt 1.000000 0.000000
vt 1.000000 1.000000
vt 0.000000 1.000000
vt 0.000000 0.000000
vt 1.000000 0.000000
vt 1.000000 1.000000
vt 0.000000 1.000000
vt 0.000000 0.000000
vt 1.000000 0.000000
vt 1.000000 1.000000
vt 0.000000 1.000000
vt 0.000000 0.000000
vt 1.000000 0.000000
vt 1.000000 1.000000
vt 0.000000 1.000000
vt 0.000000 0.000000
vt 1.000000 0.000000
vt 1.000000 1.000000
vt 0.000000 1.000000
vt 0.000000 0.000000
vt 1.000000 0.000000
vt 1.000000 1.000000
vt 0.000000 1.000000
vt 0.000000 0.000000
vt 1.000000 0.000000
vt 1.000000 1.000000
vt 0.000000 1.000000
vt 0.000000 0.000000
vt 1.000000 0.000000
vt 1.000000 1.000000
vt 0.000000 1.000000
usemtl wood
f 1/1 4/2 3/3 2/4
f 5/5 6/6 7/7 8/8
f 1/9 2/10 6/11 5/12
f 3/13 4/14 8/15 7/16
f 2/17 3/18 7/19 6/20
f 4/21 1/22 5/23 8/24
usemtl metal
f 9/25 12/26 11/27 10/28
f 13/29 14/30 15/31 16/32
f 9/33 10/34 14/35 13/36
f 11/37 12/38 16/39 15/40
f 10/41 11/42 15/43 14/44
f 12/45 9/46 13/47 16/48
usemtl sign
f 17/49 20/50 19/51 18/52
f 21/53 22/54 23/55 24/56
f 17/57 18/58 22/59 21/60
f 19/61 20/62 24/63 23/64
f 18/65 19/66 23/67 22/68
f 20/69 17/70 21/71 24/72
usemtl metal
f 25/73 28/74 27/75 26/76
f 29/77 30/78 31/79 32/80
f 25/81 26/82 30/83 29/84
f 27/85 28/86 32/87 31/88
f 26/89 27/90 31/91 30/92
f 28/93 25/94 29/95 32/96
