<?xml version="1.0" encoding="utf-8"?>
<COLLADA xmlns="http://www.collada.org/2005/11/COLLADASchema" version="1.4.1" xmlns:xsi="http://www.w3.org/2001/XMLSchema-instance">
  <asset>
    <contributor>
      <author>Blender User</author>
      <authoring_tool>Blender 4.2.9 LTS commit date:2025-04-14, commit time:12:24, hash:a10f621e649a</authoring_tool>
    </contributor>
    <created>2026-08-01T08:24:19</created>
    <modified>2026-08-01T08:24:19</modified>
    <unit name="meter" meter="1"/>
    <up_axis>Z_UP</up_axis>
  </asset>
  <library_effects>
    <effect id="tube-effect">
      <profile_COMMON>
        <newparam sid="arch_tube_png-surface">
          <surface type="2D">
            <init_from>arch_tube_png</init_from>
          </surface>
        </newparam>
        <newparam sid="arch_tube_png-sampler">
          <sampler2D>
            <source>arch_tube_png-surface</source>
          </sampler2D>
        </newparam>
        <technique sid="common">
          <lambert>
            <emission>
              <color sid="emission">0 0 0 1</color>
            </emission>
            <diffuse>
              <texture texture="arch_tube_png-sampler" texcoord="UVMap"/>
            </diffuse>
            <index_of_refraction>
              <float sid="ior">1.5</float>
            </index_of_refraction>
          </lambert>
        </technique>
      </profile_COMMON>
    </effect>
    <effect id="block-effect">
      <profile_COMMON>
        <newparam sid="arch_block_png-surface">
          <surface type="2D">
            <init_from>arch_block_png</init_from>
          </surface>
        </newparam>
        <newparam sid="arch_block_png-sampler">
          <sampler2D>
            <source>arch_block_png-surface</source>
          </sampler2D>
        </newparam>
        <technique sid="common">
          <lambert>
            <emission>
              <color sid="emission">0 0 0 1</color>
            </emission>
            <diffuse>
              <texture texture="arch_block_png-sampler" texcoord="UVMap"/>
            </diffuse>
            <index_of_refraction>
              <float sid="ior">1.5</float>
            </index_of_refraction>
          </lambert>
        </technique>
      </profile_COMMON>
    </effect>
    <effect id="logo-effect">
      <profile_COMMON>
        <newparam sid="arch_logo_png-surface">
          <surface type="2D">
            <init_from>arch_logo_png</init_from>
          </surface>
        </newparam>
        <newparam sid="arch_logo_png-sampler">
          <sampler2D>
            <source>arch_logo_png-surface</source>
          </sampler2D>
        </newparam>
        <technique sid="common">
          <lambert>
            <emission>
              <color sid="emission">0 0 0 1</color>
            </emission>
            <diffuse>
              <texture texture="arch_logo_png-sampler" texcoord="UVMap"/>
            </diffuse>
            <index_of_refraction>
              <float sid="ior">1.5</float>
            </index_of_refraction>
          </lambert>
        </technique>
      </profile_COMMON>
    </effect>
    <effect id="Colmesh_Material-effect">
      <profile_COMMON>
        <technique sid="common">
          <lambert>
            <emission>
              <color sid="emission">0 0 0 1</color>
            </emission>
            <diffuse>
              <color sid="diffuse">1 0 1 1</color>
            </diffuse>
            <transparent opaque="A_ONE">
              <color sid="alpha">0 0 0 0.15</color>
            </transparent>
            <index_of_refraction>
              <float sid="ior">1.5</float>
            </index_of_refraction>
          </lambert>
        </technique>
      </profile_COMMON>
    </effect>
  </library_effects>
  <library_images>
    <image id="arch_block_png" name="arch_block_png">
      <init_from>arch_block.png</init_from>
    </image>
    <image id="arch_logo_png" name="arch_logo_png">
      <init_from>arch_logo.png</init_from>
    </image>
    <image id="arch_tube_png" name="arch_tube_png">
      <init_from>arch_tube.png</init_from>
    </image>
  </library_images>
  <library_materials>
    <material id="tube-material" name="tube">
      <instance_effect url="#tube-effect"/>
    </material>
    <material id="block-material" name="block">
      <instance_effect url="#block-effect"/>
    </material>
    <material id="logo-material" name="logo">
      <instance_effect url="#logo-effect"/>
    </material>
    <material id="Colmesh_Material-material" name="Colmesh_Material">
      <instance_effect url="#Colmesh_Material-effect"/>
    </material>
  </library_materials>
  <library_geometries>
    <geometry id="arch_blank_a50-mesh" name="arch_blank_a50">
      <mesh>
        <source id="arch_blank_a50-mesh-positions">
          <float_array id="arch_blank_a50-mesh-positions-array" count="24">-4.984427 0 -0.06099998 4.984427 0 -0.06099998 4.984427 0 6.161 -4.984427 0 6.161 0 -4.984427 -0.06099998 0 4.984427 -0.06099998 0 4.984427 6.161 0 -4.984427 6.161</float_array>
          <technique_common>
            <accessor source="#arch_blank_a50-mesh-positions-array" count="8" stride="3">
              <param name="X" type="float"/>
              <param name="Y" type="float"/>
              <param name="Z" type="float"/>
            </accessor>
          </technique_common>
        </source>
        <source id="arch_blank_a50-mesh-normals">
          <float_array id="arch_blank_a50-mesh-normals-array" count="12">0 -1 0 1 0 0 0 -1 0 1 0 0</float_array>
          <technique_common>
            <accessor source="#arch_blank_a50-mesh-normals-array" count="4" stride="3">
              <param name="X" type="float"/>
              <param name="Y" type="float"/>
              <param name="Z" type="float"/>
            </accessor>
          </technique_common>
        </source>
        <source id="arch_blank_a50-mesh-map-0">
          <float_array id="arch_blank_a50-mesh-map-0-array" count="24">1 0 0 1 0 0 1 0 0 1 0 0 1 0 1 1 0 1 1 0 1 1 0 1</float_array>
          <technique_common>
            <accessor source="#arch_blank_a50-mesh-map-0-array" count="12" stride="2">
              <param name="S" type="float"/>
              <param name="T" type="float"/>
            </accessor>
          </technique_common>
        </source>
        <vertices id="arch_blank_a50-mesh-vertices">
          <input semantic="POSITION" source="#arch_blank_a50-mesh-positions"/>
        </vertices>
        <triangles material="tube-material" count="4">
          <input semantic="VERTEX" source="#arch_blank_a50-mesh-vertices" offset="0"/>
          <input semantic="NORMAL" source="#arch_blank_a50-mesh-normals" offset="1"/>
          <input semantic="TEXCOORD" source="#arch_blank_a50-mesh-map-0" offset="2" set="0"/>
          <p>1 0 0 3 0 1 0 0 2 5 1 3 7 1 4 4 1 5 1 2 6 2 2 7 3 2 8 5 3 9 6 3 10 7 3 11</p>
        </triangles>
      </mesh>
    </geometry>
    <geometry id="arch_blank_a200-mesh" name="arch_blank_a200">
      <mesh>
        <source id="arch_blank_a200-mesh-positions">
          <float_array id="arch_blank_a200-mesh-positions-array" count="255">-4.084995 0.5807881 0 -4.015006 0.5807881 4.765 -3.554917 0.2647212 0 -3.534353 0.2220208 4.765 -3.534353 -0.2220208 0 -3.554917 -0.2647212 4.765 -4.015006 -0.5807881 0 -4.084995 -0.5807881 4.765 -4.480008 -0.3429194 0 -4.624014 0.09512001 0 -4.624014 -0.09512001 4.765 -4.480008 0.3429194 4.765 -3.917774 0.7177597 0 -4.182226 0.7177597 0.12 -3.406392 0.344138 0 -3.571274 0.550894 0.12 -3.330807 0 0.06 -3.571274 -0.550894 0 -3.406392 -0.344138 0.12 -4.182226 -0.7177597 0 -3.917774 -0.7177597 0.12 -4.360227 -0.6441927 0.12 -4.693609 -0.3441378 0 -4.720341 -0.2886273 0.12 -4.720341 0.2886273 0 -4.693609 0.3441378 0.12 -4.360227 0.6441927 0 4.084995 0.5807881 4.765 4.480008 0.3429194 0 4.624014 0.09512001 4.765 4.624014 -0.09512001 0 4.480008 -0.3429194 4.765 4.084995 -0.5807881 0 4.015006 -0.5807881 4.765 3.554917 -0.2647212 0 3.534353 -0.2220208 4.765 3.534353 0.2220208 0 3.554917 0.2647212 4.765 4.015006 0.5807881 0 3.917774 0.7177597 0.12 4.229241 0.7128688 0.02399998 4.693609 0.3441378 0 4.720341 0.2886273 0.12 4.720341 -0.2886273 0 4.693609 -0.3441378 0.12 3.917774 -0.7177597 0 4.229241 -0.7128688 0.09599995 3.406392 -0.344138 0 3.571274 -0.550894 0.12 3.352927 -0.1591024 0.12 3.352927 0.1591024 0 3.571274 0.550894 0 3.406392 0.344138 0.12 -3.9275 -0.44 4.655 -3.9275 -0.44 5.535 -3.9275 0.44 4.655 -3.9275 0.44 5.535 -1.7225 -0.44 4.655 -1.7225 -0.44 5.535 -1.7225 0.44 4.655 -1.7225 0.44 5.535 1.7225 -0.44 4.655 1.7225 -0.44 5.535 1.7225 0.44 4.655 1.7225 0.44 5.535 3.9275 -0.44 4.655 3.9275 -0.44 5.535 3.9275 0.44 4.655 3.9275 0.44 5.535 -1.6 -0.425 4.75 -1.6 -0.425 6.1 -1.6 0.425 4.75 -1.6 0.425 6.1 1.6 -0.425 4.75 1.6 -0.425 6.1 1.6 0.425 4.75 1.6 0.425 6.1 -1.408 -0.4408333 5.911001 -1.408 -0.4491667 4.939 1.408 -0.4408333 4.939 1.408 -0.4491667 5.911001 -1.408 0.4491667 5.911001 -1.408 0.4408333 4.939 1.408 0.4491667 4.939 1.408 0.4408333 5.911001</float_array>
          <technique_common>
            <accessor source="#arch_blank_a200-mesh-positions-array" count="85" stride="3">
              <param name="X" type="float"/>
              <param name="Y" type="float"/>
              <param name="Z" type="float"/>
            </accessor>
          </technique_common>
        </source>
        <source id="arch_blank_a200-mesh-normals">
          <float_array id="arch_blank_a200-mesh-normals-array" count="402">-0.9499067 -0.3122845 -0.01246774 0.5101705 0.6982793 -0.5021276 0.7645292 -0.2699693 -0.5853304 0.2278501 -0.8342371 -0.5021282 -0.5514495 0.7547783 0.3552649 -0.1542516 0.9277129 -0.3399342 0.9499067 0.3122845 -0.01246774 0.6141495 -0.7594772 -0.2145104 -0.5101705 -0.6982793 -0.5021276 -0.8214897 0.4578207 -0.3399336 -0.1713799 0.7844825 -0.5960001 0.9991011 -0.04220944 0.00393337 0.5121201 -0.8588809 0.007522165 -0.6692708 -0.7427907 0.01840156 -0.4554058 0.8902588 0.006689131 0.5981547 0.8013675 0.004599869 -0.9499067 0.3122846 0.01246774 -6.08457e-7 -8.1517e-7 1 -0.6923549 -0.7012121 0.1701357 0 0 -1 0.2278501 0.8342371 0.5021282 0.7645292 0.2699693 0.5853305 0.5101705 -0.6982793 0.5021275 -0.1542516 -0.9277129 0.3399342 -0.979129 0.04136526 0.1989858 -0.0334993 -0.1226525 0.9918842 0.6692708 0.7427907 0.01840156 0.0633471 0.008279144 -0.9979572 0.4554058 -0.8902588 0.006689131 0.9499067 -0.3122846 0.01246774 -0.5981547 -0.8013675 0.004599869 -0.9991011 0.04220944 0.00393337 5.01532e-7 0 1 -0.5121201 0.8588809 0.007522165 0.979129 -0.04136526 0.1989858 0 0 -1 0.6141495 0.7594773 0.2145103 -0.9575389 0.1017305 0.2697597 -0.1713799 -0.7844825 0.5960001 -0.8214897 -0.4578207 0.3399336 0 0 1 -0.5101705 0.6982793 0.5021275 -1 0 0 0 0 -1 0 1 0 1 0 0 0 -1 0 0 0 -1 0 0 1 -1 0 0 0 1 0 1 0 0 0 -1 0 0 0 -1 0 0 1 -1 0 0 0 1 0 1 0 0 0 -1 0 0 0 -1 0 0 1 -0.002959132 0.9999589 0.008572995 0.002959132 -0.9999589 0.008572995 -0.002959132 0.9999589 0.008572995 0.002959132 -0.9999589 0.008572995 -0.6923549 0.7012121 -0.1701357 0.9991011 0.04220944 -0.00393337 0.5981547 -0.8013675 -0.004599869 -0.4554058 -0.8902588 -0.006689131 -0.6692708 0.7427907 -0.01840156 0.5121201 0.8588809 -0.007522165 7.56686e-7 8.39809e-7 1 -2.45265e-7 4.11336e-7 1 -5.01532e-7 0 1 -0.5514495 -0.7547783 -0.3552649 0 0 -1 0 0 -1 0 0 -1 -0.979129 -0.04136526 -0.1989858 0 0 1 0 0 1 0 0 1 0.0633471 -0.008279144 0.9979572 -0.05781298 0.1837801 0.9812657 0.4554058 0.8902588 -0.006689131 -0.0334993 0.1226525 -0.9918842 0 0 -1 0 0 -1 0 0 -1 -0.05781298 -0.1837801 -0.9812657 0.6692708 -0.7427907 -0.01840156 -0.5121201 -0.8588809 -0.007522165 -0.9991011 -0.04220944 -0.00393337 6.08457e-7 8.1517e-7 1 -7.56686e-7 -8.39809e-7 1 2.45265e-7 -4.11336e-7 1 -0.5981547 0.8013675 -0.004599869 0.979129 0.04136526 -0.1989858 0 0 -1 0 0 -1 0 0 -1 -0.9575389 -0.1017305 -0.2697597 0 0 1 0.04222655 0.0235331 0.9988308 -0.007641017 -0.05536347 0.9984371 0 0 1 0.2633867 0.4925879 0.8294484 -1 0 0 0.2633867 -0.4925879 -0.8294484 0 0 -1 0.04222655 -0.0235331 -0.9988308 -0.007641017 0.05536347 -0.9984371 0 0 -1 0 1 0 1 0 0 0 -1 0 0 0 -1 0 0 1 -1 0 0 0 1 0 1 0 0 0 -1 0 0 0 -1 0 0 1 -1 0 0 0 1 0 1 0 0 0 -1 0 0 0 -1 0 0 1 0.002959132 0.9999589 -0.008572995 -0.002959132 -0.9999589 -0.008572995 0.002959132 0.9999589 -0.008572995 -0.002959132 -0.9999589 -0.008572995</float_array>
          <technique_common>
            <accessor source="#arch_blank_a200-mesh-normals-array" count="134" stride="3">
              <param name="X" type="float"/>
              <param name="Y" type="float"/>
              <param name="Z" type="float"/>
            </accessor>
          </technique_common>
        </source>
        <source id="arch_blank_a200-mesh-map-0">
          <float_array id="arch_blank_a200-mesh-map-0-array" count="804">0.3211333 0.004073739 0.3338786 0.9959263 0.26442 0.9959263 0.09993761 0.662743 0.1424621 0.5763166 0.142462 0.7906743 0.002977728 0.7330492 0.04550218 0.6466228 0.02423995 0.851145 0.002977728 0.5440297 0.04550218 0.5156831 0.04550218 0.6466228 0.09398216 0.6172785 0.05145764 0.771003 0.0514577 0.5566452 0.0514577 0.5566452 0.09398216 0.5156831 0.09398216 0.6172785 0.1384588 0.004073739 0.1512042 0.9959263 0.0817455 0.9959263 0.002977728 0.7330493 0.01256376 0.5534885 0.04550218 0.7548827 0.1484175 0.662743 0.190942 0.5763166 0.190942 0.7906743 0.05145764 0.771003 0.09398216 0.6845765 0.0939821 0.8316364 0.0514577 0.5566452 0.09398216 0.5156831 0.09398216 0.6845765 0.1786007 0.9959263 0.1121534 0.004073739 0.1786007 0.004073739 0.4948657 0.9959263 0.3968191 0.004073739 0.499507 0.004073739 0.26442 0.9959263 0.2057071 0.004073739 0.3211333 0.004073739 0.6356934 0.9959262 0.5662348 0.004073739 0.6445817 0.004073739 0.1022881 0.9959263 0.01605737 0.004073739 0.1121534 0.004073739 0.52033 0.004073739 0.5662348 0.004073739 0.5330055 0.9959263 0.7628241 0.2284716 0.6795768 0.1485571 0.6933439 0.04717832 0.190942 0.5763165 0.1484175 0.730041 0.1484175 0.5566452 0.8028791 0.2457613 0.8861264 0.325676 0.8723592 0.4270548 0.09993761 0.8316364 0.09993761 0.662743 0.142462 0.7906743 0.09993761 0.662743 0.09993761 0.5156831 0.1424621 0.5763166 0.002977728 0.7330492 0.002977728 0.5440297 0.04550218 0.6466228 0.1484175 0.8316364 0.1484175 0.730041 0.190942 0.7906743 0.0939821 0.7906743 0.05145764 0.9019427 0.05145764 0.771003 0.4480965 0.4143293 0.3156107 0.4947524 0.1045191 0.4562889 0.0817455 0.9959263 0.02303266 0.004073739 0.1384588 0.004073739 0.7500001 0.5097276 0.5519036 0.09837597 0.8954809 0.05641645 0.484786 0.9959262 0.4153274 0.004073739 0.4936742 0.004073739 0.3694226 0.004073739 0.4153274 0.004073739 0.3820981 0.9959263 0.2849626 0.9959263 0.1987318 0.004073739 0.2948278 0.004073739 0.3612751 0.9959263 0.2948278 0.004073739 0.3612751 0.004073739 0.7094048 0.03437018 0.8028791 0.008644819 0.8723592 0.1899382 0.6457731 0.9959263 0.5477265 0.004073739 0.6504144 0.004073739 0.04550218 0.7548827 0.002977669 0.9019427 0.002977728 0.7330493 0.7628241 0.4655882 0.6795768 0.3856737 0.6933439 0.2842949 0.132876 0.777006 0.09993761 0.5566452 0.1424621 0.5763165 0.0939821 0.8316364 0.05145764 0.9019427 0.05145764 0.771003 0.1484175 0.8316364 0.1484175 0.662743 0.190942 0.7906743 0.1484175 0.662743 0.1484175 0.5156831 0.190942 0.5763166 0.1045191 0.4562889 0.05190348 0.09837597 0.4125509 0.442676 0.05145764 0.771003 0.0514577 0.5566452 0.09398216 0.6845765 0.2459684 0.8602485 0.004031479 0.6183115 0.2459684 0.6183115 0.9480965 0.4143294 0.5874492 0.07002925 0.8954808 0.05641639 0.2459684 0.6102485 0.004031538 0.004031479 0.2459685 0.004031479 0.4959684 0.8602485 0.2540315 0.6183115 0.4959685 0.6183115 0.4959684 0.6102485 0.2540315 0.004031479 0.4959685 0.004031479 0.7459685 0.004031479 0.5040315 0.6102485 0.5040315 0.004031479 0.9959684 0.004031479 0.7540314 0.6102485 0.7540315 0.004031479 0.2459684 0.8602485 0.004031479 0.6183115 0.2459684 0.6183115 0.2459684 0.6102485 0.004031538 0.004031479 0.2459685 0.004031479 0.4959684 0.8602485 0.2540315 0.6183115 0.4959685 0.6183115 0.4959684 0.6102485 0.2540315 0.004031479 0.4959685 0.004031479 0.7459685 0.004031479 0.5040315 0.6102485 0.5040315 0.004031479 0.9959684 0.004031479 0.7540314 0.6102485 0.7540315 0.004031479 0.004148781 0.9958512 0.1878618 0.7040718 0.1878618 0.9958512 0.2959282 0.6957741 0.00414884 0.004148781 0.2959282 0.004148781 0.1961594 0.9958512 0.3798724 0.7040718 0.3798724 0.9958512 0.5960054 0.6957741 0.304226 0.004148781 0.5960054 0.004148781 0.788016 0.004148781 0.604303 0.6957741 0.6043031 0.004148781 0.9800267 0.004148781 0.7963137 0.6957741 0.7963137 0.004148781 0.2937544 0.9985302 0.2507349 0.00146985 0.2937544 0.00146985 0.3404513 0.9985302 0.2952243 0.00146985 0.3400825 0.00146985 0.2937544 0.9985302 0.2507349 0.00146985 0.2937544 0.00146985 0.3404513 0.9985302 0.2952243 0.00146985 0.3400825 0.00146985 0.09398216 0.6172785 0.0939821 0.7906743 0.05145764 0.771003 0.1786007 0.9959263 0.1022881 0.9959263 0.1121534 0.004073739 0.4948657 0.9959263 0.3879308 0.9959263 0.3968191 0.004073739 0.26442 0.9959263 0.1995562 0.9959263 0.2057071 0.004073739 0.6356934 0.9959262 0.5330055 0.9959263 0.5662348 0.004073739 0.1022881 0.9959263 0.01284545 0.9959263 0.01605737 0.004073739 0.7751081 0.0121023 0.8849154 0.08732014 0.6933439 0.04717832 0.8849154 0.08732014 0.8562984 0.2027463 0.6933439 0.04717832 0.8562984 0.2027463 0.7628241 0.2284716 0.6933439 0.04717832 0.190942 0.5763165 0.190942 0.7906743 0.1484175 0.730041 0.7905952 0.4621308 0.6807878 0.3869128 0.8723592 0.4270548 0.6807878 0.3869128 0.7094048 0.2714868 0.8723592 0.4270548 0.7094048 0.2714868 0.8028791 0.2457613 0.8723592 0.4270548 0.0939821 0.7906743 0.0939821 0.9019427 0.05145764 0.9019427 0.1045191 0.4562889 0.002977669 0.2672694 0.25 0.002977728 0.002977669 0.2672694 0.08744913 0.07002925 0.25 0.002977728 0.25 0.002977728 0.3954808 0.05641633 0.4970223 0.2454357 0.1045191 0.4562889 0.25 0.002977728 0.4480965 0.4143293 0.4970223 0.2454357 0.4480965 0.4143293 0.25 0.002977728 0.0817455 0.9959263 0.01688182 0.9959263 0.02303266 0.004073739 0.6843894 0.01795291 0.8954809 0.05641645 0.5519036 0.09837597 0.8954809 0.05641645 0.9970224 0.2454358 0.7500001 0.5097276 0.9970224 0.2454358 0.9125509 0.442676 0.7500001 0.5097276 0.7500001 0.5097276 0.6045192 0.4562889 0.5029778 0.2672696 0.5029778 0.2672696 0.5519036 0.09837597 0.7500001 0.5097276 0.484786 0.9959262 0.3820981 0.9959263 0.4153274 0.004073739 0.2849626 0.9959263 0.1955199 0.9959263 0.1987318 0.004073739 0.3612751 0.9959263 0.2849626 0.9959263 0.2948278 0.004073739 0.8028791 0.008644819 0.8861264 0.08855938 0.8723592 0.1899382 0.8723592 0.1899382 0.7905951 0.2250142 0.6807878 0.1497963 0.6807878 0.1497963 0.7094048 0.03437018 0.8723592 0.1899382 0.6457731 0.9959263 0.5388383 0.9959263 0.5477265 0.004073739 0.04550218 0.7548827 0.04550218 0.9019427 0.002977669 0.9019427 0.6933439 0.2842949 0.775108 0.2492188 0.8849154 0.3244367 0.8849154 0.3244367 0.8562984 0.4398629 0.6933439 0.2842949 0.8562984 0.4398629 0.7628241 0.4655882 0.6933439 0.2842949 0.0939821 0.8316364 0.0939821 0.9019427 0.05145764 0.9019427 0.1045191 0.4562889 0.002977669 0.2672696 0.05190348 0.09837597 0.05190348 0.09837597 0.1843892 0.01795291 0.3954809 0.05641639 0.3954809 0.05641639 0.4970223 0.2454358 0.05190348 0.09837597 0.4970223 0.2454358 0.4125509 0.442676 0.05190348 0.09837597 0.4125509 0.442676 0.25 0.5097275 0.1045191 0.4562889 0.2459684 0.8602485 0.004031479 0.8602485 0.004031479 0.6183115 0.7500001 0.002977728 0.8954808 0.05641639 0.5874492 0.07002925 0.8954808 0.05641639 0.9970224 0.2454357 0.9480965 0.4143294 0.9480965 0.4143294 0.8156108 0.4947524 0.6045191 0.4562889 0.6045191 0.4562889 0.5029778 0.2672695 0.9480965 0.4143294 0.5029778 0.2672695 0.5874492 0.07002925 0.9480965 0.4143294 0.2459684 0.6102485 0.004031479 0.6102485 0.004031538 0.004031479 0.4959684 0.8602485 0.2540315 0.8602485 0.2540315 0.6183115 0.4959684 0.6102485 0.2540315 0.6102485 0.2540315 0.004031479 0.7459685 0.004031479 0.7459684 0.6102485 0.5040315 0.6102485 0.9959684 0.004031479 0.9959684 0.6102485 0.7540314 0.6102485 0.2459684 0.8602485 0.004031479 0.8602485 0.004031479 0.6183115 0.2459684 0.6102485 0.004031479 0.6102485 0.004031538 0.004031479 0.4959684 0.8602485 0.2540315 0.8602485 0.2540315 0.6183115 0.4959684 0.6102485 0.2540315 0.6102485 0.2540315 0.004031479 0.7459685 0.004031479 0.7459684 0.6102485 0.5040315 0.6102485 0.9959684 0.004031479 0.9959684 0.6102485 0.7540314 0.6102485 0.004148781 0.9958512 0.004148781 0.7040718 0.1878618 0.7040718 0.2959282 0.6957741 0.004148781 0.6957741 0.00414884 0.004148781 0.1961594 0.9958512 0.1961594 0.7040718 0.3798724 0.7040718 0.5960054 0.6957741 0.3042259 0.6957741 0.304226 0.004148781 0.788016 0.004148781 0.788016 0.6957741 0.604303 0.6957741 0.9800267 0.004148781 0.9800266 0.6957741 0.7963137 0.6957741 0.2937544 0.9985302 0.2507349 0.9985302 0.2507349 0.00146985 0.3404513 0.9985302 0.2952243 0.9985302 0.2952243 0.00146985 0.2937544 0.9985302 0.2507349 0.9985302 0.2507349 0.00146985 0.3404513 0.9985302 0.2952243 0.9985302 0.2952243 0.00146985</float_array>
          <technique_common>
            <accessor source="#arch_blank_a200-mesh-map-0-array" count="402" stride="2">
              <param name="S" type="float"/>
              <param name="T" type="float"/>
            </accessor>
          </technique_common>
        </source>
        <vertices id="arch_blank_a200-mesh-vertices">
          <input semantic="POSITION" source="#arch_blank_a200-mesh-positions"/>
        </vertices>
        <triangles material="tube-material" count="114">
          <input semantic="VERTEX" source="#arch_blank_a200-mesh-vertices" offset="0"/>
          <input semantic="NORMAL" source="#arch_blank_a200-mesh-normals" offset="1"/>
          <input semantic="TEXCOORD" source="#arch_blank_a200-mesh-map-0" offset="2" set="0"/>
          <p>10 0 0 9 0 1 8 0 2 15 1 3 14 1 4 12 1 5 18 2 6 17 2 7 16 2 8 20 3 9 19 3 10 17 3 11 26 4 12 25 4 13 13 4 14 13 5 15 12 5 16 26 5 17 29 6 18 30 6 19 28 6 20 44 7 21 46 7 22 43 7 23 48 8 24 47 8 25 45 8 26 52 9 27 51 9 28 50 9 29 39 10 30 40 10 31 51 10 32 4 11 33 3 11 34 5 11 35 6 12 36 5 12 37 7 12 38 8 13 39 7 13 40 10 13 41 0 14 42 11 14 43 1 14 44 2 15 45 1 15 46 3 15 47 10 16 48 11 16 49 9 16 50 3 17 51 1 17 52 11 17 53 22 18 54 21 18 55 23 18 56 4 19 57 6 19 58 8 19 59 13 20 60 15 20 61 12 20 62 15 21 63 16 21 64 14 21 65 18 22 66 20 22 67 17 22 68 20 23 69 21 23 70 19 23 71 24 24 72 23 24 73 25 24 74 16 25 75 15 25 76 13 25 77 28 26 78 27 26 79 29 26 80 26 27 81 16 27 82 19 27 83 32 28 84 31 28 85 33 28 86 29 29 87 31 29 88 30 29 89 34 30 90 33 30 91 35 30 92 36 31 93 35 31 94 37 31 95 37 32 96 35 32 97 31 32 98 38 33 99 37 33 100 27 33 101 43 34 102 42 34 103 44 34 104 36 35 105 38 35 106 28 35 107 40 36 108 42 36 109 41 36 110 50 37 111 49 37 112 52 37 113 46 38 114 48 38 115 45 38 116 48 39 117 49 39 118 47 39 119 39 40 120 49 40 121 42 40 122 52 41 123 39 41 124 51 41 125 53 42 126 56 42 127 55 42 128 50 43 129 43 43 130 45 43 131 55 44 132 60 44 133 59 44 134 59 45 135 58 45 136 57 45 137 57 46 138 54 46 139 53 46 140 55 47 141 57 47 142 53 47 143 60 48 144 54 48 145 58 48 146 61 49 147 64 49 148 63 49 149 63 50 150 68 50 151 67 50 152 67 51 153 66 51 154 65 51 155 65 52 156 62 52 157 61 52 158 63 53 159 65 53 160 61 53 161 68 54 162 62 54 163 66 54 164 26 65 195 24 65 196 25 65 197 4 66 198 2 66 199 3 66 200 6 67 201 4 67 202 5 67 203 8 68 204 6 68 205 7 68 206 0 69 207 9 69 208 11 69 209 2 70 210 0 70 211 1 70 212 10 71 213 7 71 214 11 71 215 7 72 216 5 72 217 11 72 218 5 73 219 3 73 220 11 73 221 22 74 222 19 74 223 21 74 224 9 75 225 0 75 226 8 75 227 0 76 228 2 76 229 8 76 230 2 77 231 4 77 232 8 77 233 24 78 234 22 78 235 23 78 236 13 79 237 25 79 238 21 79 239 25 80 240 23 80 241 21 80 242 21 81 243 20 81 244 18 81 245 13 82 246 21 82 247 16 82 248 18 83 249 16 83 250 21 83 251 28 84 252 38 84 253 27 84 254 17 85 255 19 85 256 16 85 257 19 86 258 22 86 259 26 86 260 22 87 261 24 87 262 26 87 263 26 88 264 12 88 265 14 88 266 14 89 267 16 89 268 26 89 269 32 90 270 30 90 271 31 90 272 34 91 273 32 91 274 33 91 275 36 92 276 34 92 277 35 92 278 35 93 279 33 93 280 31 93 281 31 94 282 29 94 283 27 94 284 27 95 285 37 95 286 31 95 287 38 96 288 36 96 289 37 96 290 43 97 291 41 97 292 42 97 293 28 98 294 30 98 295 32 98 296 32 99 297 34 99 298 28 99 299 34 100 300 36 100 301 28 100 302 50 101 303 47 101 304 49 101 305 39 102 306 52 102 307 49 102 308 49 103 309 48 103 310 46 103 311 46 104 312 44 104 313 49 104 314 44 105 315 42 105 316 49 105 317 42 106 318 40 106 319 39 106 320 53 107 321 54 107 322 56 107 323 46 108 324 45 108 325 43 108 326 45 109 327 47 109 328 50 109 329 50 110 330 51 110 331 40 110 332 40 111 333 41 111 334 50 111 335 41 112 336 43 112 337 50 112 338 55 113 339 56 113 340 60 113 341 59 114 342 60 114 343 58 114 344 57 115 345 58 115 346 54 115 347 55 116 348 59 116 349 57 116 350 60 117 351 56 117 352 54 117 353 61 118 354 62 118 355 64 118 356 63 119 357 64 119 358 68 119 359 67 120 360 68 120 361 66 120 362 65 121 363 66 121 364 62 121 365 63 122 366 67 122 367 65 122 368 68 123 369 64 123 370 62 123 371</p>
        </triangles>
        <triangles material="block-material" count="12">
          <input semantic="VERTEX" source="#arch_blank_a200-mesh-vertices" offset="0"/>
          <input semantic="NORMAL" source="#arch_blank_a200-mesh-normals" offset="1"/>
          <input semantic="TEXCOORD" source="#arch_blank_a200-mesh-map-0" offset="2" set="0"/>
          <p>69 55 165 72 55 166 71 55 167 71 56 168 76 56 169 75 56 170 75 57 171 74 57 172 73 57 173 73 58 174 70 58 175 69 58 176 71 59 177 73 59 178 69 59 179 76 60 180 70 60 181 74 60 182 69 124 372 70 124 373 72 124 374 71 125 375 72 125 376 76 125 377 75 126 378 76 126 379 74 126 380 73 127 381 74 127 382 70 127 383 71 128 384 75 128 385 73 128 386 76 129 387 72 129 388 70 129 389</p>
        </triangles>
        <triangles material="logo-material" count="8">
          <input semantic="VERTEX" source="#arch_blank_a200-mesh-vertices" offset="0"/>
          <input semantic="NORMAL" source="#arch_blank_a200-mesh-normals" offset="1"/>
          <input semantic="TEXCOORD" source="#arch_blank_a200-mesh-map-0" offset="2" set="0"/>
          <p>78 61 183 80 61 184 79 61 185 79 62 186 77 62 187 78 62 188 82 63 189 84 63 190 83 63 191 83 64 192 81 64 193 82 64 194 78 130 390 77 130 391 80 130 392 79 131 393 80 131 394 77 131 395 82 132 396 81 132 397 84 132 398 83 133 399 84 133 400 81 133 401</p>
        </triangles>
      </mesh>
    </geometry>
    <geometry id="Colmesh_header-1-mesh" name="Colmesh_header-1">
      <mesh>
        <source id="Colmesh_header-1-mesh-positions">
          <float_array id="Colmesh_header-1-mesh-positions-array" count="24">-2.2875 -0.605 4.475 -2.2875 -0.605 6.375 -2.2875 0.605 4.475 -2.2875 0.605 6.375 2.2875 -0.605 4.475 2.2875 -0.605 6.375 2.2875 0.605 4.475 2.2875 0.605 6.375</float_array>
          <technique_common>
            <accessor source="#Colmesh_header-1-mesh-positions-array" count="8" stride="3">
              <param name="X" type="float"/>
              <param name="Y" type="float"/>
              <param name="Z" type="float"/>
            </accessor>
          </technique_common>
        </source>
        <source id="Colmesh_header-1-mesh-normals">
          <float_array id="Colmesh_header-1-mesh-normals-array" count="36">-1 0 0 0 1 0 1 0 0 0 -1 0 0 0 -1 0 0 1 -1 0 0 0 1 0 1 0 0 0 -1 0 0 0 -1 0 0 1</float_array>
          <technique_common>
            <accessor source="#Colmesh_header-1-mesh-normals-array" count="12" stride="3">
              <param name="X" type="float"/>
              <param name="Y" type="float"/>
              <param name="Z" type="float"/>
            </accessor>
          </technique_common>
        </source>
        <source id="Colmesh_header-1-mesh-map-0">
          <float_array id="Colmesh_header-1-mesh-map-0-array" count="72">0.625 0 0.375 0.25 0.375 0 0.625 0.25 0.375 0.5 0.375 0.25 0.625 0.5 0.375 0.75 0.375 0.5 0.625 0.75 0.375 1 0.375 0.75 0.375 0.5 0.125 0.75 0.125 0.5 0.875 0.5 0.625 0.75 0.625 0.5 0.625 0 0.625 0.25 0.375 0.25 0.625 0.25 0.625 0.5 0.375 0.5 0.625 0.5 0.625 0.75 0.375 0.75 0.625 0.75 0.625 1 0.375 1 0.375 0.5 0.375 0.75 0.125 0.75 0.875 0.5 0.875 0.75 0.625 0.75</float_array>
          <technique_common>
            <accessor source="#Colmesh_header-1-mesh-map-0-array" count="36" stride="2">
              <param name="S" type="float"/>
              <param name="T" type="float"/>
            </accessor>
          </technique_common>
        </source>
        <vertices id="Colmesh_header-1-mesh-vertices">
          <input semantic="POSITION" source="#Colmesh_header-1-mesh-positions"/>
        </vertices>
        <triangles material="Colmesh_Material-material" count="12">
          <input semantic="VERTEX" source="#Colmesh_header-1-mesh-vertices" offset="0"/>
          <input semantic="NORMAL" source="#Colmesh_header-1-mesh-normals" offset="1"/>
          <input semantic="TEXCOORD" source="#Colmesh_header-1-mesh-map-0" offset="2" set="0"/>
          <p>1 0 0 2 0 1 0 0 2 3 1 3 6 1 4 2 1 5 7 2 6 4 2 7 6 2 8 5 3 9 0 3 10 4 3 11 6 4 12 0 4 13 2 4 14 3 5 15 5 5 16 7 5 17 1 6 18 3 6 19 2 6 20 3 7 21 7 7 22 6 7 23 7 8 24 5 8 25 4 8 26 5 9 27 1 9 28 0 9 29 6 10 30 4 10 31 0 10 32 3 11 33 1 11 34 5 11 35</p>
        </triangles>
      </mesh>
    </geometry>
    <geometry id="Colmesh_legR-1-mesh" name="Colmesh_legR-1">
      <mesh>
        <source id="Colmesh_legR-1-mesh-positions">
          <float_array id="Colmesh_legR-1-mesh-positions-array" count="24">3.4725 -0.5775 0 3.4725 -0.5775 4.765 3.4725 0.5775 0 3.4725 0.5775 4.765 4.6275 -0.5775 0 4.6275 -0.5775 4.765 4.6275 0.5775 0 4.6275 0.5775 4.765</float_array>
          <technique_common>
            <accessor source="#Colmesh_legR-1-mesh-positions-array" count="8" stride="3">
              <param name="X" type="float"/>
              <param name="Y" type="float"/>
              <param name="Z" type="float"/>
            </accessor>
          </technique_common>
        </source>
        <source id="Colmesh_legR-1-mesh-normals">
          <float_array id="Colmesh_legR-1-mesh-normals-array" count="36">-1 0 0 0 1 0 1 0 0 0 -1 0 0 0 -1 0 0 1 -1 0 0 0 1 0 1 0 0 0 -1 0 0 0 -1 0 0 1</float_array>
          <technique_common>
            <accessor source="#Colmesh_legR-1-mesh-normals-array" count="12" stride="3">
              <param name="X" type="float"/>
              <param name="Y" type="float"/>
              <param name="Z" type="float"/>
            </accessor>
          </technique_common>
        </source>
        <source id="Colmesh_legR-1-mesh-map-0">
          <float_array id="Colmesh_legR-1-mesh-map-0-array" count="72">0.625 0 0.375 0.25 0.375 0 0.625 0.25 0.375 0.5 0.375 0.25 0.625 0.5 0.375 0.75 0.375 0.5 0.625 0.75 0.375 1 0.375 0.75 0.375 0.5 0.125 0.75 0.125 0.5 0.875 0.5 0.625 0.75 0.625 0.5 0.625 0 0.625 0.25 0.375 0.25 0.625 0.25 0.625 0.5 0.375 0.5 0.625 0.5 0.625 0.75 0.375 0.75 0.625 0.75 0.625 1 0.375 1 0.375 0.5 0.375 0.75 0.125 0.75 0.875 0.5 0.875 0.75 0.625 0.75</float_array>
          <technique_common>
            <accessor source="#Colmesh_legR-1-mesh-map-0-array" count="36" stride="2">
              <param name="S" type="float"/>
              <param name="T" type="float"/>
            </accessor>
          </technique_common>
        </source>
        <vertices id="Colmesh_legR-1-mesh-vertices">
          <input semantic="POSITION" source="#Colmesh_legR-1-mesh-positions"/>
        </vertices>
        <triangles material="Colmesh_Material-material" count="12">
          <input semantic="VERTEX" source="#Colmesh_legR-1-mesh-vertices" offset="0"/>
          <input semantic="NORMAL" source="#Colmesh_legR-1-mesh-normals" offset="1"/>
          <input semantic="TEXCOORD" source="#Colmesh_legR-1-mesh-map-0" offset="2" set="0"/>
          <p>1 0 0 2 0 1 0 0 2 3 1 3 6 1 4 2 1 5 7 2 6 4 2 7 6 2 8 5 3 9 0 3 10 4 3 11 6 4 12 0 4 13 2 4 14 3 5 15 5 5 16 7 5 17 1 6 18 3 6 19 2 6 20 3 7 21 7 7 22 6 7 23 7 8 24 5 8 25 4 8 26 5 9 27 1 9 28 0 9 29 6 10 30 4 10 31 0 10 32 3 11 33 1 11 34 5 11 35</p>
        </triangles>
      </mesh>
    </geometry>
    <geometry id="Colmesh_legL-1-mesh" name="Colmesh_legL-1">
      <mesh>
        <source id="Colmesh_legL-1-mesh-positions">
          <float_array id="Colmesh_legL-1-mesh-positions-array" count="24">-4.6275 -0.5775 0 -4.6275 -0.5775 4.765 -4.6275 0.5775 0 -4.6275 0.5775 4.765 -3.4725 -0.5775 0 -3.4725 -0.5775 4.765 -3.4725 0.5775 0 -3.4725 0.5775 4.765</float_array>
          <technique_common>
            <accessor source="#Colmesh_legL-1-mesh-positions-array" count="8" stride="3">
              <param name="X" type="float"/>
              <param name="Y" type="float"/>
              <param name="Z" type="float"/>
            </accessor>
          </technique_common>
        </source>
        <source id="Colmesh_legL-1-mesh-normals">
          <float_array id="Colmesh_legL-1-mesh-normals-array" count="36">-1 0 0 0 1 0 1 0 0 0 -1 0 0 0 -1 0 0 1 -1 0 0 0 1 0 1 0 0 0 -1 0 0 0 -1 0 0 1</float_array>
          <technique_common>
            <accessor source="#Colmesh_legL-1-mesh-normals-array" count="12" stride="3">
              <param name="X" type="float"/>
              <param name="Y" type="float"/>
              <param name="Z" type="float"/>
            </accessor>
          </technique_common>
        </source>
        <source id="Colmesh_legL-1-mesh-map-0">
          <float_array id="Colmesh_legL-1-mesh-map-0-array" count="72">0.625 0 0.375 0.25 0.375 0 0.625 0.25 0.375 0.5 0.375 0.25 0.625 0.5 0.375 0.75 0.375 0.5 0.625 0.75 0.375 1 0.375 0.75 0.375 0.5 0.125 0.75 0.125 0.5 0.875 0.5 0.625 0.75 0.625 0.5 0.625 0 0.625 0.25 0.375 0.25 0.625 0.25 0.625 0.5 0.375 0.5 0.625 0.5 0.625 0.75 0.375 0.75 0.625 0.75 0.625 1 0.375 1 0.375 0.5 0.375 0.75 0.125 0.75 0.875 0.5 0.875 0.75 0.625 0.75</float_array>
          <technique_common>
            <accessor source="#Colmesh_legL-1-mesh-map-0-array" count="36" stride="2">
              <param name="S" type="float"/>
              <param name="T" type="float"/>
            </accessor>
          </technique_common>
        </source>
        <vertices id="Colmesh_legL-1-mesh-vertices">
          <input semantic="POSITION" source="#Colmesh_legL-1-mesh-positions"/>
        </vertices>
        <triangles material="Colmesh_Material-material" count="12">
          <input semantic="VERTEX" source="#Colmesh_legL-1-mesh-vertices" offset="0"/>
          <input semantic="NORMAL" source="#Colmesh_legL-1-mesh-normals" offset="1"/>
          <input semantic="TEXCOORD" source="#Colmesh_legL-1-mesh-map-0" offset="2" set="0"/>
          <p>1 0 0 2 0 1 0 0 2 3 1 3 6 1 4 2 1 5 7 2 6 4 2 7 6 2 8 5 3 9 0 3 10 4 3 11 6 4 12 0 4 13 2 4 14 3 5 15 5 5 16 7 5 17 1 6 18 3 6 19 2 6 20 3 7 21 7 7 22 6 7 23 7 8 24 5 8 25 4 8 26 5 9 27 1 9 28 0 9 29 6 10 30 4 10 31 0 10 32 3 11 33 1 11 34 5 11 35</p>
        </triangles>
      </mesh>
    </geometry>
    <geometry id="arch_blank_a800-mesh" name="arch_blank_a800">
      <mesh>
        <source id="arch_blank_a800-mesh-positions">
          <float_array id="arch_blank_a800-mesh-positions-array" count="456">-4.05 0.55 0 -4.05 0.55 4.765 -3.811364 0.4955329 0 -3.811364 0.4955329 4.765 -3.619993 0.3429194 0 -3.619993 0.3429194 4.765 -3.51379 0.1223865 0 -3.51379 0.1223865 4.765 -3.51379 -0.1223865 0 -3.51379 -0.1223865 4.765 -3.619993 -0.3429194 0 -3.619993 -0.3429194 4.765 -3.811364 -0.4955329 0 -3.811364 -0.4955329 4.765 -4.05 -0.55 0 -4.05 -0.55 4.765 -4.288636 -0.4955329 0 -4.288636 -0.4955329 4.765 -4.480008 -0.3429194 0 -4.480008 -0.3429194 4.765 -4.586211 -0.1223865 0 -4.586211 -0.1223865 4.765 -4.586211 0.1223865 0 -4.586211 0.1223865 4.765 -4.480008 0.3429194 0 -4.480008 0.3429194 4.765 -4.288636 0.4955329 0 -4.288636 0.4955329 4.765 -4.05 0.715 0 -4.05 0.715 0.12 -3.739773 0.6441927 0 -3.739773 0.6441927 0.12 -3.490991 0.4457952 0 -3.490991 0.4457952 0.12 -3.352927 0.1591024 0 -3.352927 0.1591024 0.12 -3.352927 -0.1591024 0 -3.352927 -0.1591024 0.12 -3.490991 -0.4457952 0 -3.490991 -0.4457952 0.12 -3.739773 -0.6441927 0 -3.739773 -0.6441927 0.12 -4.05 -0.715 0 -4.05 -0.715 0.12 -4.360227 -0.6441927 0 -4.360227 -0.6441927 0.12 -4.60901 -0.4457952 0 -4.60901 -0.4457952 0.12 -4.747074 -0.1591024 0 -4.747074 -0.1591024 0.12 -4.747074 0.1591024 0 -4.747074 0.1591024 0.12 -4.60901 0.4457952 0 -4.60901 0.4457952 0.12 -4.360227 0.6441927 0 -4.360227 0.6441927 0.12 4.05 0.55 0 4.05 0.55 4.765 4.288636 0.4955329 0 4.288636 0.4955329 4.765 4.480008 0.3429194 0 4.480008 0.3429194 4.765 4.586211 0.1223865 0 4.586211 0.1223865 4.765 4.586211 -0.1223865 0 4.586211 -0.1223865 4.765 4.480008 -0.3429194 0 4.480008 -0.3429194 4.765 4.288636 -0.4955329 0 4.288636 -0.4955329 4.765 4.05 -0.55 0 4.05 -0.55 4.765 3.811364 -0.4955329 0 3.811364 -0.4955329 4.765 3.619993 -0.3429194 0 3.619993 -0.3429194 4.765 3.51379 -0.1223865 0 3.51379 -0.1223865 4.765 3.51379 0.1223865 0 3.51379 0.1223865 4.765 3.619993 0.3429194 0 3.619993 0.3429194 4.765 3.811364 0.4955329 0 3.811364 0.4955329 4.765 4.05 0.715 0 4.05 0.715 0.12 4.360227 0.6441927 0 4.360227 0.6441927 0.12 4.60901 0.4457952 0 4.60901 0.4457952 0.12 4.747074 0.1591024 0 4.747074 0.1591024 0.12 4.747074 -0.1591024 0 4.747074 -0.1591024 0.12 4.60901 -0.4457952 0 4.60901 -0.4457952 0.12 4.360227 -0.6441927 0 4.360227 -0.6441927 0.12 4.05 -0.715 0 4.05 -0.715 0.12 3.739773 -0.6441927 0 3.739773 -0.6441927 0.12 3.490991 -0.4457952 0 3.490991 -0.4457952 0.12 3.352927 -0.1591024 0 3.352927 -0.1591024 0.12 3.352927 0.1591024 0 3.352927 0.1591024 0.12 3.490991 0.4457952 0 3.490991 0.4457952 0.12 3.739773 0.6441927 0 3.739773 0.6441927 0.12 -3.9275 -0.44 4.655 -3.9275 -0.44 5.535 -3.9275 0.44 4.655 -3.9275 0.44 5.535 -1.7225 -0.44 4.655 -1.7225 -0.44 5.535 -1.7225 0.44 4.655 -1.7225 0.44 5.535 1.7225 -0.44 4.655 1.7225 -0.44 5.535 1.7225 0.44 4.655 1.7225 0.44 5.535 3.9275 -0.44 4.655 3.9275 -0.44 5.535 3.9275 0.44 4.655 3.9275 0.44 5.535 -1.6 -0.425 4.75 -1.6 -0.425 6.1 -1.6 0.425 4.75 -1.6 0.425 6.1 1.6 -0.425 4.75 1.6 -0.425 6.1 1.6 0.425 4.75 1.6 0.425 6.1 -1.408 -0.4575 4.939 -1.408 -0.4575 5.911 -1.408 -0.4325 4.939 -1.408 -0.4325 5.911 1.408 -0.4575 4.939 1.408 -0.4575 5.911 1.408 -0.4325 4.939 1.408 -0.4325 5.911 -1.408 0.4325 4.939 -1.408 0.4325 5.911 -1.408 0.4575 4.939 -1.408 0.4575 5.911 1.408 0.4325 4.939 1.408 0.4325 5.911 1.408 0.4575 4.939 1.408 0.4575 5.911</float_array>
          <technique_common>
            <accessor source="#arch_blank_a800-mesh-positions-array" count="152" stride="3">
              <param name="X" type="float"/>
              <param name="Y" type="float"/>
              <param name="Z" type="float"/>
            </accessor>
          </technique_common>
        </source>
        <source id="arch_blank_a800-mesh-normals">
          <float_array id="arch_blank_a800-mesh-normals-array" count="804">0.222521 0.974928 0 0.6234897 0.7818315 0 0.9009689 0.4338839 0 1 0 0 0.9009689 -0.4338839 0 0.6234897 -0.7818315 0 0.222521 -0.974928 0 -0.222521 -0.974928 0 -0.6234893 -0.7818319 0 -0.9009689 -0.4338839 0 -1 0 0 -0.9009689 0.4338839 0 0 0 1 -0.6234893 0.7818319 0 -0.222521 0.974928 0 0 0 -1 0.222521 0.974928 0 0.6234897 0.7818316 0 0.900969 0.4338836 0 1 0 0 0.900969 -0.4338836 0 0.6234897 -0.7818316 0 0.222521 -0.974928 0 -0.222521 -0.974928 0 -0.6234897 -0.7818316 0 -0.900969 -0.4338836 0 -1 0 0 -0.900969 0.4338836 0 0 0 1 -0.6234897 0.7818316 0 -0.222521 0.974928 0 0 0 -1 0.222521 0.974928 0 0.6234893 0.7818319 0 0.9009689 0.4338839 0 1 0 0 0.9009689 -0.4338839 0 0.6234893 -0.7818319 0 0.222521 -0.974928 0 -0.222521 -0.974928 0 -0.6234897 -0.7818315 0 -0.9009689 -0.4338839 0 -1 0 0 -0.9009689 0.4338839 0 0 0 1 -0.6234897 0.7818315 0 -0.222521 0.974928 0 0 0 -1 0.222521 0.974928 0 0.6234897 0.7818316 0 0.900969 0.4338836 0 1 0 0 0.900969 -0.4338836 0 0.6234897 -0.7818316 0 0.222521 -0.974928 0 -0.222521 -0.974928 0 -0.6234897 -0.7818316 0 -0.900969 -0.4338836 0 -1 0 0 -0.900969 0.4338836 0 0 0 1 -0.6234897 0.7818316 0 -0.222521 0.974928 0 0 0 -1 -1 0 0 0 1 0 1 0 0 0 -1 0 0 0 -1 0 0 1 -1 0 0 0 1 0 1 0 0 0 -1 0 0 0 -1 0 0 1 -1 0 0 0 1 0 1 0 0 0 -1 0 0 0 -1 0 0 1 -1 0 0 0 1 0 1 0 0 0 -1 0 0 0 -1 0 0 1 -1 0 0 0 1 0 1 0 0 0 -1 0 0 0 -1 0 0 1 0.222521 0.974928 0 0.6234897 0.7818315 0 0.9009689 0.4338839 0 1 0 0 0.9009689 -0.4338839 0 0.6234897 -0.7818315 0 0.222521 -0.974928 0 -0.222521 -0.974928 0 -0.6234893 -0.7818319 0 -0.9009689 -0.4338839 0 -1 0 0 -0.9009689 0.4338839 0 0 0 1 0 0 1 0 0 1 0 0 1 0 0 1 0 0 1 0 0 1 0 0 1 0 0 1 0 0 1 0 0 1 -0.6234893 0.7818319 0 -0.222521 0.974928 0 0 0 -1 0 0 -1 0 0 -1 0 0 -1 0 0 -1 0 0 -1 0 0 -1 0 0 -1 0 0 -1 0 0 -1 0 0 -1 0.222521 0.974928 0 0.6234897 0.7818316 0 0.900969 0.4338836 0 1 0 0 0.900969 -0.4338836 0 0.6234897 -0.7818316 0 0.222521 -0.974928 0 -0.222521 -0.974928 0 -0.6234897 -0.7818316 0 -0.900969 -0.4338836 0 -1 0 0 -0.900969 0.4338836 0 0 0 1 0 0 1 0 0 1 0 0 1 0 0 1 0 0 1 0 0 1 0 0 1 0 0 1 0 0 1 0 0 1 -0.6234897 0.7818316 0 -0.222521 0.974928 0 0 0 -1 0 0 -1 0 0 -1 0 0 -1 0 0 -1 0 0 -1 0 0 -1 0 0 -1 0 0 -1 0 0 -1 0 0 -1 0.222521 0.974928 0 0.6234893 0.7818319 0 0.9009689 0.4338839 0 1 0 0 0.9009689 -0.4338839 0 0.6234893 -0.7818319 0 0.222521 -0.974928 0 -0.222521 -0.974928 0 -0.6234897 -0.7818315 0 -0.9009689 -0.4338839 0 -1 0 0 -0.9009689 0.4338839 0 0 0 1 0 0 1 0 0 1 0 0 1 0 0 1 0 0 1 0 0 1 0 0 1 0 0 1 0 0 1 0 0 1 -0.6234897 0.7818315 0 -0.222521 0.974928 0 0 0 -1 0 0 -1 0 0 -1 0 0 -1 0 0 -1 0 0 -1 0 0 -1 0 0 -1 0 0 -1 0 0 -1 0 0 -1 0.222521 0.974928 0 0.6234897 0.7818316 0 0.900969 0.4338836 0 1 0 0 0.900969 -0.4338836 0 0.6234897 -0.7818316 0 0.222521 -0.974928 0 -0.222521 -0.974928 0 -0.6234897 -0.7818316 0 -0.900969 -0.4338836 0 -1 0 0 -0.900969 0.4338836 0 0 0 1 0 0 1 0 0 1 0 0 1 0 0 1 0 0 1 0 0 1 0 0 1 0 0 1 0 0 1 0 0 1 -0.6234897 0.7818316 0 -0.222521 0.974928 0 0 0 -1 0 0 -1 0 0 -1 0 0 -1 0 0 -1 0 0 -1 0 0 -1 0 0 -1 0 0 -1 0 0 -1 0 0 -1 -1 0 0 0 1 0 1 0 0 0 -1 0 0 0 -1 0 0 1 -1 0 0 0 1 0 1 0 0 0 -1 0 0 0 -1 0 0 1 -1 0 0 0 1 0 1 0 0 0 -1 0 0 0 -1 0 0 1 -1 0 0 0 1 0 1 0 0 0 -1 0 0 0 -1 0 0 1 -1 0 0 0 1 0 1 0 0 0 -1 0 0 0 -1 0 0 1</float_array>
          <technique_common>
            <accessor source="#arch_blank_a800-mesh-normals-array" count="268" stride="3">
              <param name="X" type="float"/>
              <param name="Y" type="float"/>
              <param name="Z" type="float"/>
            </accessor>
          </technique_common>
        </source>
        <source id="arch_blank_a800-mesh-map-0">
          <float_array id="arch_blank_a800-mesh-map-0-array" count="1608">0.004073739 0.004073739 0.0358408 0.9959263 0.004073739 0.9959263 0.0358408 0.004073739 0.0817455 0.9959263 0.0358408 0.9959263 0.0817455 0.004073739 0.1326959 0.9959263 0.0817455 0.9959263 0.1326959 0.004073739 0.1786007 0.9959263 0.1326959 0.9959263 0.3694226 0.004073739 0.4153274 0.9959263 0.3694226 0.9959263 0.4153274 0.004073739 0.4662778 0.9959263 0.4153274 0.9959263 0.4662778 0.004073739 0.5121825 0.9959263 0.4662778 0.9959263 0.1867482 0.004073739 0.2185152 0.9959263 0.1867482 0.9959263 0.2185152 0.004073739 0.26442 0.9959263 0.2185152 0.9959263 0.26442 0.004073739 0.3153704 0.9959263 0.26442 0.9959263 0.3153704 0.004073739 0.3612751 0.9959263 0.3153704 0.9959263 0.52033 0.004073739 0.5662348 0.9959263 0.52033 0.9959263 0.6933439 0.04717832 0.8723592 0.04717826 0.8325246 0.2217053 0.5662348 0.004073739 0.6171852 0.9959263 0.5662348 0.9959263 0.6171852 0.004073739 0.6630899 0.9959263 0.6171852 0.9959263 0.693344 0.4270548 0.7331786 0.2525278 0.8944658 0.3301996 0.09993761 0.8316364 0.1424621 0.730041 0.142462 0.8316364 0.09993761 0.730041 0.1424621 0.6172786 0.1424621 0.730041 0.09993761 0.6172786 0.1424621 0.5156831 0.1424621 0.6172786 0.002977669 0.9019427 0.04550218 0.8003473 0.04550218 0.9019427 0.002977728 0.8003473 0.04550218 0.6875848 0.04550218 0.8003473 0.002977728 0.6875848 0.04550218 0.5859894 0.04550218 0.6875848 0.002977728 0.5859894 0.04550218 0.5156831 0.04550218 0.5859894 0.1484175 0.8316364 0.190942 0.730041 0.190942 0.8316364 0.1484175 0.730041 0.190942 0.6172786 0.190942 0.730041 0.1484175 0.6172786 0.190942 0.5156831 0.190942 0.6172786 0.05145764 0.9019427 0.0939821 0.8316364 0.0939821 0.9019427 0.05145764 0.8316364 0.09398216 0.730041 0.0939821 0.8316364 0.25 0.002977728 0.4480965 0.09837597 0.4970223 0.3127338 0.05145764 0.730041 0.09398216 0.6172785 0.09398216 0.730041 0.0514577 0.6172785 0.09398216 0.5156831 0.09398216 0.6172785 0.9480965 0.4143294 0.7500001 0.5097276 0.5029778 0.1999714 0.004073739 0.004073739 0.0358408 0.9959263 0.004073739 0.9959263 0.0358408 0.004073739 0.0817455 0.9959263 0.0358408 0.9959263 0.0817455 0.004073739 0.1326959 0.9959263 0.0817455 0.9959263 0.1326959 0.004073739 0.1786007 0.9959263 0.1326959 0.9959263 0.3694226 0.004073739 0.4153274 0.9959263 0.3694226 0.9959263 0.4153274 0.004073739 0.4662778 0.9959263 0.4153274 0.9959263 0.4662778 0.004073739 0.5121825 0.9959263 0.4662778 0.9959263 0.1867482 0.004073739 0.2185152 0.9959263 0.1867482 0.9959263 0.2185152 0.004073739 0.26442 0.9959263 0.2185152 0.9959263 0.26442 0.004073739 0.3153704 0.9959263 0.26442 0.9959263 0.3153704 0.004073739 0.3612751 0.9959263 0.3153704 0.9959263 0.52033 0.004073739 0.5662348 0.9959263 0.52033 0.9959263 0.8944658 0.1440334 0.8325246 0.2217053 0.6933439 0.04717832 0.5662348 0.004073739 0.6171852 0.9959263 0.5662348 0.9959263 0.6171852 0.004073739 0.6630899 0.9959263 0.6171852 0.9959263 0.7331786 0.2525278 0.8944658 0.3301996 0.7828516 0.4701594 0.09993761 0.8316364 0.1424621 0.730041 0.142462 0.8316364 0.09993761 0.730041 0.1424621 0.6172786 0.1424621 0.730041 0.09993761 0.6172786 0.1424621 0.5156831 0.1424621 0.6172786 0.002977669 0.9019427 0.04550218 0.8003473 0.04550218 0.9019427 0.002977728 0.8003473 0.04550218 0.6875848 0.04550218 0.8003473 0.002977728 0.6875848 0.04550218 0.5859894 0.04550218 0.6875848 0.002977728 0.5859894 0.04550218 0.5156831 0.04550218 0.5859894 0.1484175 0.8316364 0.190942 0.730041 0.190942 0.8316364 0.1484175 0.730041 0.190942 0.6172786 0.190942 0.730041 0.1484175 0.6172786 0.190942 0.5156831 0.190942 0.6172786 0.05145764 0.9019427 0.0939821 0.8316364 0.0939821 0.9019427 0.05145764 0.8316364 0.09398216 0.730041 0.0939821 0.8316364 0.25 0.002977728 0.4480965 0.09837597 0.4970223 0.3127338 0.05145764 0.730041 0.09398216 0.6172785 0.09398216 0.730041 0.0514577 0.6172785 0.09398216 0.5156831 0.09398216 0.6172785 0.9480965 0.4143294 0.7500001 0.5097276 0.5029778 0.1999714 0.004031479 0.8602485 0.2459684 0.6183115 0.2459684 0.8602485 0.004031479 0.6102485 0.2459685 0.004031479 0.2459684 0.6102485 0.2540315 0.8602485 0.4959685 0.6183115 0.4959684 0.8602485 0.2540315 0.6102485 0.4959685 0.004031479 0.4959684 0.6102485 0.7459684 0.6102485 0.5040315 0.004031479 0.7459685 0.004031479 0.9959684 0.6102485 0.7540315 0.004031479 0.9959684 0.004031479 0.004031479 0.8602485 0.2459684 0.6183115 0.2459684 0.8602485 0.004031479 0.6102485 0.2459685 0.004031479 0.2459684 0.6102485 0.2540315 0.8602485 0.4959685 0.6183115 0.4959684 0.8602485 0.2540315 0.6102485 0.4959685 0.004031479 0.4959684 0.6102485 0.7459684 0.6102485 0.5040315 0.004031479 0.7459685 0.004031479 0.9959684 0.6102485 0.7540315 0.004031479 0.9959684 0.004031479 0.004148781 0.7040718 0.1878618 0.9958512 0.004148781 0.9958512 0.004148781 0.6957741 0.2959282 0.004148781 0.2959282 0.6957741 0.1961594 0.7040718 0.3798724 0.9958512 0.1961594 0.9958512 0.3042259 0.6957741 0.5960054 0.004148781 0.5960054 0.6957741 0.788016 0.6957741 0.6043031 0.004148781 0.788016 0.004148781 0.9800266 0.6957741 0.7963137 0.004148781 0.9800267 0.004148781 0.3448663 0.00146979 0.3470792 0.1735477 0.3448663 0.1735477 0.2507349 0.9985302 0.2937544 0.00146985 0.2937544 0.9985302 0.3448663 0.1764874 0.3470792 0.3485653 0.3448663 0.3485653 0.2952243 0.9985302 0.3382437 0.00146985 0.3382437 0.9985302 0.3408201 0.9985302 0.3397136 0.00146985 0.3408201 0.00146985 0.3433964 0.9985302 0.3422899 0.00146985 0.3433964 0.00146985 0.3448663 0.00146979 0.3470792 0.1735477 0.3448663 0.1735477 0.2507349 0.9985302 0.2937544 0.00146985 0.2937544 0.9985302 0.3448663 0.1764874 0.3470792 0.3485653 0.3448663 0.3485653 0.2952243 0.9985302 0.3382437 0.00146985 0.3382437 0.9985302 0.3408201 0.9985302 0.3397136 0.00146985 0.3408201 0.00146985 0.3433964 0.9985302 0.3422899 0.00146985 0.3433964 0.00146985 0.004073739 0.004073739 0.0358408 0.004073739 0.0358408 0.9959263 0.0358408 0.004073739 0.0817455 0.004073739 0.0817455 0.9959263 0.0817455 0.004073739 0.1326959 0.004073739 0.1326959 0.9959263 0.1326959 0.004073739 0.1786007 0.004073739 0.1786007 0.9959263 0.3694226 0.004073739 0.4153274 0.004073739 0.4153274 0.9959263 0.4153274 0.004073739 0.4662778 0.004073739 0.4662778 0.9959263 0.4662778 0.004073739 0.5121825 0.004073739 0.5121825 0.9959263 0.1867482 0.004073739 0.2185152 0.004073739 0.2185152 0.9959263 0.2185152 0.004073739 0.26442 0.004073739 0.26442 0.9959263 0.26442 0.004073739 0.3153704 0.004073739 0.3153704 0.9959263 0.3153704 0.004073739 0.3612751 0.004073739 0.3612751 0.9959263 0.52033 0.004073739 0.5662348 0.004073739 0.5662348 0.9959263 0.7331786 0.2217053 0.6933439 0.1899382 0.6712374 0.1440334 0.6712374 0.1440334 0.6712374 0.09308302 0.7331786 0.2217053 0.6712374 0.09308302 0.6933439 0.04717832 0.7331786 0.2217053 0.6933439 0.04717832 0.7331786 0.01541119 0.7828516 0.004073679 0.7828516 0.004073679 0.8325246 0.01541119 0.8723592 0.04717826 0.8723592 0.04717826 0.8944658 0.09308302 0.8944658 0.1440334 0.8944658 0.1440334 0.8723592 0.1899382 0.8325246 0.2217053 0.8325246 0.2217053 0.7828516 0.2330428 0.7331786 0.2217053 0.6933439 0.04717832 0.7828516 0.004073679 0.8723592 0.04717826 0.8723592 0.04717826 0.8944658 0.1440334 0.8325246 0.2217053 0.8325246 0.2217053 0.7331786 0.2217053 0.6933439 0.04717832 0.5662348 0.004073739 0.6171852 0.004073739 0.6171852 0.9959263 0.6171852 0.004073739 0.6630899 0.004073739 0.6630899 0.9959263 0.693344 0.4270548 0.6712374 0.38115 0.6712374 0.3301996 0.6712374 0.3301996 0.6933439 0.2842949 0.7331786 0.2525278 0.7331786 0.2525278 0.7828516 0.2411902 0.8325246 0.2525278 0.8325246 0.2525278 0.8723592 0.2842949 0.8944658 0.3301996 0.8944658 0.3301996 0.8944658 0.38115 0.7828516 0.4701594 0.8944658 0.38115 0.8723592 0.4270548 0.7828516 0.4701594 0.8723592 0.4270548 0.8325246 0.4588218 0.7828516 0.4701594 0.7828516 0.4701594 0.7331786 0.4588218 0.693344 0.4270548 0.693344 0.4270548 0.6712374 0.3301996 0.7331786 0.2525278 0.7331786 0.2525278 0.8325246 0.2525278 0.8944658 0.3301996 0.7828516 0.4701594 0.693344 0.4270548 0.8944658 0.3301996 0.09993761 0.8316364 0.09993761 0.730041 0.1424621 0.730041 0.09993761 0.730041 0.09993761 0.6172786 0.1424621 0.6172786 0.09993761 0.6172786 0.09993761 0.5156831 0.1424621 0.5156831 0.002977669 0.9019427 0.002977728 0.8003473 0.04550218 0.8003473 0.002977728 0.8003473 0.002977728 0.6875848 0.04550218 0.6875848 0.002977728 0.6875848 0.002977728 0.5859894 0.04550218 0.5859894 0.002977728 0.5859894 0.002977728 0.5156831 0.04550218 0.5156831 0.1484175 0.8316364 0.1484175 0.730041 0.190942 0.730041 0.1484175 0.730041 0.1484175 0.6172786 0.190942 0.6172786 0.1484175 0.6172786 0.1484175 0.5156831 0.190942 0.5156831 0.05145764 0.9019427 0.05145764 0.8316364 0.0939821 0.8316364 0.05145764 0.8316364 0.05145764 0.730041 0.09398216 0.730041 0.3599352 0.4846355 0.25 0.5097275 0.1400647 0.4846355 0.1400647 0.4846355 0.05190348 0.4143293 0.3599352 0.4846355 0.05190348 0.4143293 0.002977669 0.3127339 0.3599352 0.4846355 0.002977669 0.3127339 0.002977669 0.1999714 0.05190348 0.09837597 0.05190348 0.09837597 0.1400647 0.02806967 0.25 0.002977728 0.25 0.002977728 0.3599352 0.02806973 0.4480965 0.09837597 0.4480965 0.09837597 0.4970223 0.1999714 0.4970223 0.3127338 0.4970223 0.3127338 0.4480965 0.4143293 0.002977669 0.3127339 0.4480965 0.4143293 0.3599352 0.4846355 0.002977669 0.3127339 0.002977669 0.3127339 0.05190348 0.09837597 0.4970223 0.3127338 0.05190348 0.09837597 0.25 0.002977728 0.4970223 0.3127338 0.05145764 0.730041 0.0514577 0.6172785 0.09398216 0.6172785 0.0514577 0.6172785 0.0514577 0.5156831 0.09398216 0.5156831 0.7500001 0.5097276 0.6400648 0.4846356 0.5519036 0.4143293 0.5519036 0.4143293 0.5029778 0.3127339 0.5029778 0.1999714 0.5029778 0.1999714 0.5519036 0.09837597 0.8599353 0.02806973 0.5519036 0.09837597 0.6400648 0.02806973 0.8599353 0.02806973 0.6400648 0.02806973 0.7500001 0.002977728 0.8599353 0.02806973 0.8599353 0.02806973 0.9480965 0.09837597 0.9970223 0.1999714 0.9970223 0.1999714 0.9970223 0.3127339 0.9480965 0.4143294 0.9480965 0.4143294 0.8599353 0.4846356 0.7500001 0.5097276 0.7500001 0.5097276 0.5519036 0.4143293 0.5029778 0.1999714 0.8599353 0.02806973 0.9970223 0.1999714 0.5029778 0.1999714 0.9970223 0.1999714 0.9480965 0.4143294 0.5029778 0.1999714 0.004073739 0.004073739 0.0358408 0.004073739 0.0358408 0.9959263 0.0358408 0.004073739 0.0817455 0.004073739 0.0817455 0.9959263 0.0817455 0.004073739 0.1326959 0.004073739 0.1326959 0.9959263 0.1326959 0.004073739 0.1786007 0.004073739 0.1786007 0.9959263 0.3694226 0.004073739 0.4153274 0.004073739 0.4153274 0.9959263 0.4153274 0.004073739 0.4662778 0.004073739 0.4662778 0.9959263 0.4662778 0.004073739 0.5121825 0.004073739 0.5121825 0.9959263 0.1867482 0.004073739 0.2185152 0.004073739 0.2185152 0.9959263 0.2185152 0.004073739 0.26442 0.004073739 0.26442 0.9959263 0.26442 0.004073739 0.3153704 0.004073739 0.3153704 0.9959263 0.3153704 0.004073739 0.3612751 0.004073739 0.3612751 0.9959263 0.52033 0.004073739 0.5662348 0.004073739 0.5662348 0.9959263 0.7331786 0.2217053 0.6933439 0.1899382 0.6712374 0.1440334 0.6712374 0.1440334 0.6712374 0.09308302 0.6933439 0.04717832 0.6933439 0.04717832 0.7331786 0.01541119 0.7828516 0.004073679 0.7828516 0.004073679 0.8325246 0.01541119 0.8723592 0.04717826 0.8723592 0.04717826 0.8944658 0.09308302 0.8944658 0.1440334 0.8944658 0.1440334 0.8723592 0.1899382 0.8325246 0.2217053 0.8325246 0.2217053 0.7828516 0.2330428 0.7331786 0.2217053 0.7331786 0.2217053 0.6712374 0.1440334 0.8325246 0.2217053 0.6712374 0.1440334 0.6933439 0.04717832 0.8325246 0.2217053 0.6933439 0.04717832 0.7828516 0.004073679 0.8723592 0.04717826 0.8723592 0.04717826 0.8944658 0.1440334 0.6933439 0.04717832 0.5662348 0.004073739 0.6171852 0.004073739 0.6171852 0.9959263 0.6171852 0.004073739 0.6630899 0.004073739 0.6630899 0.9959263 0.693344 0.4270548 0.6712374 0.38115 0.6712374 0.3301996 0.6712374 0.3301996 0.6933439 0.2842949 0.7331786 0.2525278 0.7331786 0.2525278 0.7828516 0.2411902 0.8325246 0.2525278 0.8325246 0.2525278 0.8723592 0.2842949 0.7331786 0.2525278 0.8723592 0.2842949 0.8944658 0.3301996 0.7331786 0.2525278 0.8944658 0.3301996 0.8944658 0.38115 0.8723592 0.4270548 0.8723592 0.4270548 0.8325246 0.4588218 0.7828516 0.4701594 0.7828516 0.4701594 0.7331786 0.4588218 0.693344 0.4270548 0.693344 0.4270548 0.6712374 0.3301996 0.7331786 0.2525278 0.8944658 0.3301996 0.8723592 0.4270548 0.7828516 0.4701594 0.7828516 0.4701594 0.693344 0.4270548 0.7331786 0.2525278 0.09993761 0.8316364 0.09993761 0.730041 0.1424621 0.730041 0.09993761 0.730041 0.09993761 0.6172786 0.1424621 0.6172786 0.09993761 0.6172786 0.09993761 0.5156831 0.1424621 0.5156831 0.002977669 0.9019427 0.002977728 0.8003473 0.04550218 0.8003473 0.002977728 0.8003473 0.002977728 0.6875848 0.04550218 0.6875848 0.002977728 0.6875848 0.002977728 0.5859894 0.04550218 0.5859894 0.002977728 0.5859894 0.002977728 0.5156831 0.04550218 0.5156831 0.1484175 0.8316364 0.1484175 0.730041 0.190942 0.730041 0.1484175 0.730041 0.1484175 0.6172786 0.190942 0.6172786 0.1484175 0.6172786 0.1484175 0.5156831 0.190942 0.5156831 0.05145764 0.9019427 0.05145764 0.8316364 0.0939821 0.8316364 0.05145764 0.8316364 0.05145764 0.730041 0.09398216 0.730041 0.3599352 0.4846355 0.25 0.5097275 0.1400647 0.4846355 0.1400647 0.4846355 0.05190348 0.4143293 0.3599352 0.4846355 0.05190348 0.4143293 0.002977669 0.3127339 0.3599352 0.4846355 0.002977669 0.3127339 0.002977669 0.1999714 0.05190348 0.09837597 0.05190348 0.09837597 0.1400647 0.02806967 0.25 0.002977728 0.25 0.002977728 0.3599352 0.02806973 0.4480965 0.09837597 0.4480965 0.09837597 0.4970223 0.1999714 0.4970223 0.3127338 0.4970223 0.3127338 0.4480965 0.4143293 0.002977669 0.3127339 0.4480965 0.4143293 0.3599352 0.4846355 0.002977669 0.3127339 0.002977669 0.3127339 0.05190348 0.09837597 0.4970223 0.3127338 0.05190348 0.09837597 0.25 0.002977728 0.4970223 0.3127338 0.05145764 0.730041 0.0514577 0.6172785 0.09398216 0.6172785 0.0514577 0.6172785 0.0514577 0.5156831 0.09398216 0.5156831 0.7500001 0.5097276 0.6400648 0.4846356 0.5519036 0.4143293 0.5519036 0.4143293 0.5029778 0.3127339 0.5029778 0.1999714 0.5029778 0.1999714 0.5519036 0.09837597 0.8599353 0.02806973 0.5519036 0.09837597 0.6400648 0.02806973 0.8599353 0.02806973 0.6400648 0.02806973 0.7500001 0.002977728 0.8599353 0.02806973 0.8599353 0.02806973 0.9480965 0.09837597 0.9970223 0.1999714 0.9970223 0.1999714 0.9970223 0.3127339 0.9480965 0.4143294 0.9480965 0.4143294 0.8599353 0.4846356 0.7500001 0.5097276 0.7500001 0.5097276 0.5519036 0.4143293 0.5029778 0.1999714 0.8599353 0.02806973 0.9970223 0.1999714 0.5029778 0.1999714 0.9970223 0.1999714 0.9480965 0.4143294 0.5029778 0.1999714 0.004031479 0.8602485 0.004031479 0.6183115 0.2459684 0.6183115 0.004031479 0.6102485 0.004031538 0.004031479 0.2459685 0.004031479 0.2540315 0.8602485 0.2540315 0.6183115 0.4959685 0.6183115 0.2540315 0.6102485 0.2540315 0.004031479 0.4959685 0.004031479 0.7459684 0.6102485 0.5040315 0.6102485 0.5040315 0.004031479 0.9959684 0.6102485 0.7540314 0.6102485 0.7540315 0.004031479 0.004031479 0.8602485 0.004031479 0.6183115 0.2459684 0.6183115 0.004031479 0.6102485 0.004031538 0.004031479 0.2459685 0.004031479 0.2540315 0.8602485 0.2540315 0.6183115 0.4959685 0.6183115 0.2540315 0.6102485 0.2540315 0.004031479 0.4959685 0.004031479 0.7459684 0.6102485 0.5040315 0.6102485 0.5040315 0.004031479 0.9959684 0.6102485 0.7540314 0.6102485 0.7540315 0.004031479 0.004148781 0.7040718 0.1878618 0.7040718 0.1878618 0.9958512 0.004148781 0.6957741 0.00414884 0.004148781 0.2959282 0.004148781 0.1961594 0.7040718 0.3798724 0.7040718 0.3798724 0.9958512 0.3042259 0.6957741 0.304226 0.004148781 0.5960054 0.004148781 0.788016 0.6957741 0.604303 0.6957741 0.6043031 0.004148781 0.9800266 0.6957741 0.7963137 0.6957741 0.7963137 0.004148781 0.3448663 0.00146979 0.3470792 0.00146979 0.3470792 0.1735477 0.2507349 0.9985302 0.2507349 0.00146985 0.2937544 0.00146985 0.3448663 0.1764874 0.3470792 0.1764874 0.3470792 0.3485653 0.2952243 0.9985302 0.2952243 0.00146985 0.3382437 0.00146985 0.3408201 0.9985302 0.3397136 0.9985302 0.3397136 0.00146985 0.3433964 0.9985302 0.3422899 0.9985302 0.3422899 0.00146985 0.3448663 0.00146979 0.3470792 0.00146979 0.3470792 0.1735477 0.2507349 0.9985302 0.2507349 0.00146985 0.2937544 0.00146985 0.3448663 0.1764874 0.3470792 0.1764874 0.3470792 0.3485653 0.2952243 0.9985302 0.2952243 0.00146985 0.3382437 0.00146985 0.3408201 0.9985302 0.3397136 0.9985302 0.3397136 0.00146985 0.3433964 0.9985302 0.3422899 0.9985302 0.3422899 0.00146985</float_array>
          <technique_common>
            <accessor source="#arch_blank_a800-mesh-map-0-array" count="804" stride="2">
              <param name="S" type="float"/>
              <param name="T" type="float"/>
            </accessor>
          </technique_common>
        </source>
        <vertices id="arch_blank_a800-mesh-vertices">
          <input semantic="POSITION" source="#arch_blank_a800-mesh-positions"/>
        </vertices>
        <triangles material="tube-material" count="232">
          <input semantic="VERTEX" source="#arch_blank_a800-mesh-vertices" offset="0"/>
          <input semantic="NORMAL" source="#arch_blank_a800-mesh-normals" offset="1"/>
          <input semantic="TEXCOORD" source="#arch_blank_a800-mesh-map-0" offset="2" set="0"/>
          <p>1 0 0 2 0 1 0 0 2 3 1 3 4 1 4 2 1 5 5 2 6 6 2 7 4 2 8 7 3 9 8 3 10 6 3 11 9 4 12 10 4 13 8 4 14 11 5 15 12 5 16 10 5 17 13 6 18 14 6 19 12 6 20 15 7 21 16 7 22 14 7 23 17 8 24 18 8 25 16 8 26 19 9 27 20 9 28 18 9 29 21 10 30 22 10 31 20 10 32 23 11 33 24 11 34 22 11 35 25 12 36 17 12 37 9 12 38 25 13 39 26 13 40 24 13 41 27 14 42 0 14 43 26 14 44 26 15 45 6 15 46 14 15 47 29 16 48 30 16 49 28 16 50 31 17 51 32 17 52 30 17 53 33 18 54 34 18 55 32 18 56 35 19 57 36 19 58 34 19 59 37 20 60 38 20 61 36 20 62 39 21 63 40 21 64 38 21 65 41 22 66 42 22 67 40 22 68 43 23 69 44 23 70 42 23 71 45 24 72 46 24 73 44 24 74 47 25 75 48 25 76 46 25 77 49 26 78 50 26 79 48 26 80 51 27 81 52 27 82 50 27 83 45 28 84 41 28 85 37 28 86 53 29 87 54 29 88 52 29 89 55 30 90 28 30 91 54 30 92 50 31 93 54 31 94 34 31 95 57 32 96 58 32 97 56 32 98 59 33 99 60 33 100 58 33 101 61 34 102 62 34 103 60 34 104 63 35 105 64 35 106 62 35 107 65 36 108 66 36 109 64 36 110 67 37 111 68 37 112 66 37 113 69 38 114 70 38 115 68 38 116 71 39 117 72 39 118 70 39 119 73 40 120 74 40 121 72 40 122 75 41 123 76 41 124 74 41 125 77 42 126 78 42 127 76 42 128 79 43 129 80 43 130 78 43 131 69 44 132 65 44 133 81 44 134 81 45 135 82 45 136 80 45 137 83 46 138 56 46 139 82 46 140 62 47 141 70 47 142 78 47 143 85 48 144 86 48 145 84 48 146 87 49 147 88 49 148 86 49 149 89 50 150 90 50 151 88 50 152 91 51 153 92 51 154 90 51 155 93 52 156 94 52 157 92 52 158 95 53 159 96 53 160 94 53 161 97 54 162 98 54 163 96 54 164 99 55 165 100 55 166 98 55 167 101 56 168 102 56 169 100 56 170 103 57 171 104 57 172 102 57 173 105 58 174 106 58 175 104 58 176 107 59 177 108 59 178 106 59 179 101 60 180 97 60 181 93 60 182 109 61 183 110 61 184 108 61 185 111 62 186 84 62 187 110 62 188 106 63 189 110 63 190 90 63 191 113 64 192 114 64 193 112 64 194 115 65 195 118 65 196 114 65 197 119 66 198 116 66 199 118 66 200 117 67 201 112 67 202 116 67 203 118 68 204 112 68 205 114 68 206 115 69 207 117 69 208 119 69 209 121 70 210 122 70 211 120 70 212 123 71 213 126 71 214 122 71 215 127 72 216 124 72 217 126 72 218 125 73 219 120 73 220 124 73 221 126 74 222 120 74 223 122 74 224 123 75 225 125 75 226 127 75 227 1 94 282 3 94 283 2 94 284 3 95 285 5 95 286 4 95 287 5 96 288 7 96 289 6 96 290 7 97 291 9 97 292 8 97 293 9 98 294 11 98 295 10 98 296 11 99 297 13 99 298 12 99 299 13 100 300 15 100 301 14 100 302 15 101 303 17 101 304 16 101 305 17 102 306 19 102 307 18 102 308 19 103 309 21 103 310 20 103 311 21 104 312 23 104 313 22 104 314 23 105 315 25 105 316 24 105 317 5 106 318 3 106 319 1 106 320 1 107 321 27 107 322 5 107 323 27 108 324 25 108 325 5 108 326 25 109 327 23 109 328 21 109 329 21 110 330 19 110 331 17 110 332 17 111 333 15 111 334 13 111 335 13 112 336 11 112 337 9 112 338 9 113 339 7 113 340 5 113 341 25 114 342 21 114 343 17 114 344 17 115 345 13 115 346 9 115 347 9 116 348 5 116 349 25 116 350 25 117 351 27 117 352 26 117 353 27 118 354 1 118 355 0 118 356 26 119 357 0 119 358 2 119 359 2 120 360 4 120 361 6 120 362 6 121 363 8 121 364 10 121 365 10 122 366 12 122 367 14 122 368 14 123 369 16 123 370 22 123 371 16 124 372 18 124 373 22 124 374 18 125 375 20 125 376 22 125 377 22 126 378 24 126 379 26 126 380 26 127 381 2 127 382 6 127 383 6 128 384 10 128 385 14 128 386 22 129 387 26 129 388 14 129 389 29 130 390 31 130 391 30 130 392 31 131 393 33 131 394 32 131 395 33 132 396 35 132 397 34 132 398 35 133 399 37 133 400 36 133 401 37 134 402 39 134 403 38 134 404 39 135 405 41 135 406 40 135 407 41 136 408 43 136 409 42 136 410 43 137 411 45 137 412 44 137 413 45 138 414 47 138 415 46 138 416 47 139 417 49 139 418 48 139 419 49 140 420 51 140 421 50 140 422 51 141 423 53 141 424 52 141 425 33 142 426 31 142 427 29 142 428 29 143 429 55 143 430 33 143 431 55 144 432 53 144 433 33 144 434 53 145 435 51 145 436 49 145 437 49 146 438 47 146 439 45 146 440 45 147 441 43 147 442 41 147 443 41 148 444 39 148 445 37 148 446 37 149 447 35 149 448 53 149 449 35 150 450 33 150 451 53 150 452 53 151 453 49 151 454 37 151 455 49 152 456 45 152 457 37 152 458 53 153 459 55 153 460 54 153 461 55 154 462 29 154 463 28 154 464 54 155 465 28 155 466 30 155 467 30 156 468 32 156 469 34 156 470 34 157 471 36 157 472 42 157 473 36 158 474 38 158 475 42 158 476 38 159 477 40 159 478 42 159 479 42 160 480 44 160 481 46 160 482 46 161 483 48 161 484 50 161 485 50 162 486 52 162 487 54 162 488 54 163 489 30 163 490 34 163 491 42 164 492 46 164 493 34 164 494 46 165 495 50 165 496 34 165 497 57 166 498 59 166 499 58 166 500 59 167 501 61 167 502 60 167 503 61 168 504 63 168 505 62 168 506 63 169 507 65 169 508 64 169 509 65 170 510 67 170 511 66 170 512 67 171 513 69 171 514 68 171 515 69 172 516 71 172 517 70 172 518 71 173 519 73 173 520 72 173 521 73 174 522 75 174 523 74 174 524 75 175 525 77 175 526 76 175 527 77 176 528 79 176 529 78 176 530 79 177 531 81 177 532 80 177 533 61 178 534 59 178 535 57 178 536 57 179 537 83 179 538 81 179 539 81 180 540 79 180 541 77 180 542 77 181 543 75 181 544 73 181 545 73 182 546 71 182 547 69 182 548 69 183 549 67 183 550 65 183 551 65 184 552 63 184 553 61 184 554 61 185 555 57 185 556 65 185 557 57 186 558 81 186 559 65 186 560 81 187 561 77 187 562 73 187 563 73 188 564 69 188 565 81 188 566 81 189 567 83 189 568 82 189 569 83 190 570 57 190 571 56 190 572 82 191 573 56 191 574 58 191 575 58 192 576 60 192 577 62 192 578 62 193 579 64 193 580 66 193 581 66 194 582 68 194 583 62 194 584 68 195 585 70 195 586 62 195 587 70 196 588 72 196 589 74 196 590 74 197 591 76 197 592 78 197 593 78 198 594 80 198 595 82 198 596 82 199 597 58 199 598 62 199 599 70 200 600 74 200 601 78 200 602 78 201 603 82 201 604 62 201 605 85 202 606 87 202 607 86 202 608 87 203 609 89 203 610 88 203 611 89 204 612 91 204 613 90 204 614 91 205 615 93 205 616 92 205 617 93 206 618 95 206 619 94 206 620 95 207 621 97 207 622 96 207 623 97 208 624 99 208 625 98 208 626 99 209 627 101 209 628 100 209 629 101 210 630 103 210 631 102 210 632 103 211 633 105 211 634 104 211 635 105 212 636 107 212 637 106 212 638 107 213 639 109 213 640 108 213 641 89 214 642 87 214 643 85 214 644 85 215 645 111 215 646 89 215 647 111 216 648 109 216 649 89 216 650 109 217 651 107 217 652 105 217 653 105 218 654 103 218 655 101 218 656 101 219 657 99 219 658 97 219 659 97 220 660 95 220 661 93 220 662 93 221 663 91 221 664 109 221 665 91 222 666 89 222 667 109 222 668 109 223 669 105 223 670 93 223 671 105 224 672 101 224 673 93 224 674 109 225 675 111 225 676 110 225 677 111 226 678 85 226 679 84 226 680 110 227 681 84 227 682 86 227 683 86 228 684 88 228 685 90 228 686 90 229 687 92 229 688 98 229 689 92 230 690 94 230 691 98 230 692 94 231 693 96 231 694 98 231 695 98 232 696 100 232 697 102 232 698 102 233 699 104 233 700 106 233 701 106 234 702 108 234 703 110 234 704 110 235 705 86 235 706 90 235 707 98 236 708 102 236 709 90 236 710 102 237 711 106 237 712 90 237 713 113 238 714 115 238 715 114 238 716 115 239 717 119 239 718 118 239 719 119 240 720 117 240 721 116 240 722 117 241 723 113 241 724 112 241 725 118 242 726 116 242 727 112 242 728 115 243 729 113 243 730 117 243 731 121 244 732 123 244 733 122 244 734 123 245 735 127 245 736 126 245 737 127 246 738 125 246 739 124 246 740 125 247 741 121 247 742 120 247 743 126 248 744 124 248 745 120 248 746 123 249 747 121 249 748 125 249 749</p>
        </triangles>
        <triangles material="block-material" count="12">
          <input semantic="VERTEX" source="#arch_blank_a800-mesh-vertices" offset="0"/>
          <input semantic="NORMAL" source="#arch_blank_a800-mesh-normals" offset="1"/>
          <input semantic="TEXCOORD" source="#arch_blank_a800-mesh-map-0" offset="2" set="0"/>
          <p>129 76 228 130 76 229 128 76 230 131 77 231 134 77 232 130 77 233 135 78 234 132 78 235 134 78 236 133 79 237 128 79 238 132 79 239 134 80 240 128 80 241 130 80 242 131 81 243 133 81 244 135 81 245 129 250 750 131 250 751 130 250 752 131 251 753 135 251 754 134 251 755 135 252 756 133 252 757 132 252 758 133 253 759 129 253 760 128 253 761 134 254 762 132 254 763 128 254 764 131 255 765 129 255 766 133 255 767</p>
        </triangles>
        <triangles material="logo-material" count="24">
          <input semantic="VERTEX" source="#arch_blank_a800-mesh-vertices" offset="0"/>
          <input semantic="NORMAL" source="#arch_blank_a800-mesh-normals" offset="1"/>
          <input semantic="TEXCOORD" source="#arch_blank_a800-mesh-map-0" offset="2" set="0"/>
          <p>137 82 246 138 82 247 136 82 248 139 83 249 142 83 250 138 83 251 143 84 252 140 84 253 142 84 254 141 85 255 136 85 256 140 85 257 142 86 258 136 86 259 138 86 260 139 87 261 141 87 262 143 87 263 145 88 264 146 88 265 144 88 266 147 89 267 150 89 268 146 89 269 151 90 270 148 90 271 150 90 272 149 91 273 144 91 274 148 91 275 150 92 276 144 92 277 146 92 278 147 93 279 149 93 280 151 93 281 137 256 768 139 256 769 138 256 770 139 257 771 143 257 772 142 257 773 143 258 774 141 258 775 140 258 776 141 259 777 137 259 778 136 259 779 142 260 780 140 260 781 136 260 782 139 261 783 137 261 784 141 261 785 145 262 786 147 262 787 146 262 788 147 263 789 151 263 790 150 263 791 151 264 792 149 264 793 148 264 794 149 265 795 145 265 796 144 265 797 150 266 798 148 266 799 144 266 800 147 267 801 145 267 802 149 267 803</p>
        </triangles>
      </mesh>
    </geometry>
  </library_geometries>
  <library_visual_scenes>
    <visual_scene id="Scene" name="Scene">
      <node id="base00" name="base00" type="NODE">
        <matrix sid="transform">1 0 0 0 0 1 0 0 0 0 1 0 0 0 0 1</matrix>
        <node id="start01" name="start01" type="NODE">
          <matrix sid="transform">1 0 0 0 0 1 0 0 0 0 1 0 0 0 0 1</matrix>
          <node id="arch_blank_a800" name="arch_blank_a800" type="NODE">
            <matrix sid="transform">1 0 0 0 0 1 0 0 0 0 1 0 0 0 0 1</matrix>
            <instance_geometry url="#arch_blank_a800-mesh" name="arch_blank_a800">
              <bind_material>
                <technique_common>
                  <instance_material symbol="tube-material" target="#tube-material">
                    <bind_vertex_input semantic="UVMap" input_semantic="TEXCOORD" input_set="0"/>
                  </instance_material>
                  <instance_material symbol="block-material" target="#block-material">
                    <bind_vertex_input semantic="UVMap" input_semantic="TEXCOORD" input_set="0"/>
                  </instance_material>
                  <instance_material symbol="logo-material" target="#logo-material">
                    <bind_vertex_input semantic="UVMap" input_semantic="TEXCOORD" input_set="0"/>
                  </instance_material>
                </technique_common>
              </bind_material>
            </instance_geometry>
          </node>
          <node id="arch_blank_a200" name="arch_blank_a200" type="NODE">
            <matrix sid="transform">1 0 0 0 0 1 0 0 0 0 1 0 0 0 0 1</matrix>
            <instance_geometry url="#arch_blank_a200-mesh" name="arch_blank_a200">
              <bind_material>
                <technique_common>
                  <instance_material symbol="tube-material" target="#tube-material">
                    <bind_vertex_input semantic="UVMap" input_semantic="TEXCOORD" input_set="0"/>
                  </instance_material>
                  <instance_material symbol="block-material" target="#block-material">
                    <bind_vertex_input semantic="UVMap" input_semantic="TEXCOORD" input_set="0"/>
                  </instance_material>
                  <instance_material symbol="logo-material" target="#logo-material">
                    <bind_vertex_input semantic="UVMap" input_semantic="TEXCOORD" input_set="0"/>
                  </instance_material>
                </technique_common>
              </bind_material>
            </instance_geometry>
          </node>
          <node id="arch_blank_a50" name="arch_blank_a50" type="NODE">
            <matrix sid="transform">1 0 0 0 0 1 0 0 0 0 1 0 0 0 0 1</matrix>
            <instance_geometry url="#arch_blank_a50-mesh" name="arch_blank_a50">
              <bind_material>
                <technique_common>
                  <instance_material symbol="tube-material" target="#tube-material">
                    <bind_vertex_input semantic="UVMap" input_semantic="TEXCOORD" input_set="0"/>
                  </instance_material>
                </technique_common>
              </bind_material>
            </instance_geometry>
          </node>
          <node id="nulldetail20" name="nulldetail20" type="NODE">
            <matrix sid="transform">1 0 0 0 0 1 0 0 0 0 1 0 0 0 0 1</matrix>
          </node>
        </node>
        <node id="collision-1" name="collision-1" type="NODE">
          <matrix sid="transform">1 0 0 0 0 1 0 0 0 0 1 0 0 0 0 1</matrix>
          <node id="Colmesh_legL-1" name="Colmesh_legL-1" type="NODE">
            <matrix sid="transform">1 0 0 0 0 1 0 0 0 0 1 0 0 0 0 1</matrix>
            <instance_geometry url="#Colmesh_legL-1-mesh" name="Colmesh_legL-1">
              <bind_material>
                <technique_common>
                  <instance_material symbol="Colmesh_Material-material" target="#Colmesh_Material-material">
                    <bind_vertex_input semantic="UVMap" input_semantic="TEXCOORD" input_set="0"/>
                  </instance_material>
                </technique_common>
              </bind_material>
            </instance_geometry>
          </node>
          <node id="Colmesh_legR-1" name="Colmesh_legR-1" type="NODE">
            <matrix sid="transform">1 0 0 0 0 1 0 0 0 0 1 0 0 0 0 1</matrix>
            <instance_geometry url="#Colmesh_legR-1-mesh" name="Colmesh_legR-1">
              <bind_material>
                <technique_common>
                  <instance_material symbol="Colmesh_Material-material" target="#Colmesh_Material-material">
                    <bind_vertex_input semantic="UVMap" input_semantic="TEXCOORD" input_set="0"/>
                  </instance_material>
                </technique_common>
              </bind_material>
            </instance_geometry>
          </node>
          <node id="Colmesh_header-1" name="Colmesh_header-1" type="NODE">
            <matrix sid="transform">1 0 0 0 0 1 0 0 0 0 1 0 0 0 0 1</matrix>
            <instance_geometry url="#Colmesh_header-1-mesh" name="Colmesh_header-1">
              <bind_material>
                <technique_common>
                  <instance_material symbol="Colmesh_Material-material" target="#Colmesh_Material-material">
                    <bind_vertex_input semantic="UVMap" input_semantic="TEXCOORD" input_set="0"/>
                  </instance_material>
                </technique_common>
              </bind_material>
            </instance_geometry>
          </node>
        </node>
      </node>
    </visual_scene>
  </library_visual_scenes>
  <scene>
    <instance_visual_scene url="#Scene"/>
  </scene>
</COLLADA>