<?xml version="1.0" encoding="utf-8"?>
<COLLADA xmlns="http://www.collada.org/2005/11/COLLADASchema" version="1.4.1" xmlns:xsi="http://www.w3.org/2001/XMLSchema-instance">
  <asset>
    <contributor>
      <author>Blender User</author>
      <authoring_tool>Blender 4.2.9 LTS commit date:2025-04-14, commit time:12:24, hash:a10f621e649a</authoring_tool>
    </contributor>
    <created>2026-08-01T07:51:24</created>
    <modified>2026-08-01T07:51:24</modified>
    <unit name="meter" meter="1"/>
    <up_axis>Z_UP</up_axis>
  </asset>
  <library_effects>
    <effect id="Colmesh_Material-effect">
      <profile_COMMON>
        <technique sid="common">
          <lambert>
            <emission>
              <color sid="emission">0 0 0 1</color>
            </emission>
            <diffuse>
              <color sid="diffuse">1 0 1 1</color>
            </diffuse>
            <transparent opaque="A_ONE">
              <color sid="alpha">0 0 0 0.15</color>
            </transparent>
            <index_of_refraction>
              <float sid="ior">1.5</float>
            </index_of_refraction>
          </lambert>
        </technique>
      </profile_COMMON>
    </effect>
    <effect id="fence_024-effect">
      <profile_COMMON>
        <newparam sid="ribbon_orange_png-surface">
          <surface type="2D">
            <init_from>ribbon_orange_png</init_from>
          </surface>
        </newparam>
        <newparam sid="ribbon_orange_png-sampler">
          <sampler2D>
            <source>ribbon_orange_png-surface</source>
          </sampler2D>
        </newparam>
        <technique sid="common">
          <lambert>
            <emission>
              <color sid="emission">0 0 0 1</color>
            </emission>
            <diffuse>
              <texture texture="ribbon_orange_png-sampler" texcoord="UVMap"/>
            </diffuse>
            <reflectivity>
              <float sid="specular">0.3</float>
            </reflectivity>
            <index_of_refraction>
              <float sid="ior">1.5</float>
            </index_of_refraction>
          </lambert>
        </technique>
      </profile_COMMON>
    </effect>
    <effect id="post_024-effect">
      <profile_COMMON>
        <technique sid="common">
          <lambert>
            <emission>
              <color sid="emission">0 0 0 1</color>
            </emission>
            <diffuse>
              <color sid="diffuse">0.3 0.3 0.3 1</color>
            </diffuse>
            <reflectivity>
              <float sid="specular">0.7</float>
            </reflectivity>
            <index_of_refraction>
              <float sid="ior">1.5</float>
            </index_of_refraction>
          </lambert>
        </technique>
      </profile_COMMON>
    </effect>
  </library_effects>
  <library_images>
    <image id="ribbon_orange_png" name="ribbon_orange_png">
      <init_from>ribbon_orange.png</init_from>
    </image>
  </library_images>
  <library_materials>
    <material id="Colmesh_Material-material" name="Colmesh_Material">
      <instance_effect url="#Colmesh_Material-effect"/>
    </material>
    <material id="fence_024-material" name="fence.024">
      <instance_effect url="#fence_024-effect"/>
    </material>
    <material id="post_024-material" name="post.024">
      <instance_effect url="#post_024-effect"/>
    </material>
  </library_materials>
  <library_geometries>
    <geometry id="Colmesh_panel-1-mesh" name="Colmesh_panel-1">
      <mesh>
        <source id="Colmesh_panel-1-mesh-positions">
          <float_array id="Colmesh_panel-1-mesh-positions-array" count="24">-1.5 -0.03999996 -0.5 -1.5 -0.03999996 0.5 -1.5 0.03999996 -0.5 -1.5 0.03999996 0.5 1.5 -0.03999996 -0.5 1.5 -0.03999996 0.5 1.5 0.03999996 -0.5 1.5 0.03999996 0.5</float_array>
          <technique_common>
            <accessor source="#Colmesh_panel-1-mesh-positions-array" count="8" stride="3">
              <param name="X" type="float"/>
              <param name="Y" type="float"/>
              <param name="Z" type="float"/>
            </accessor>
          </technique_common>
        </source>
        <source id="Colmesh_panel-1-mesh-normals">
          <float_array id="Colmesh_panel-1-mesh-normals-array" count="36">-1 0 0 0 1 0 1 0 0 0 -1 0 0 0 -1 0 0 1 -1 0 0 0 1 0 1 0 0 0 -1 0 0 0 -1 0 0 1</float_array>
          <technique_common>
            <accessor source="#Colmesh_panel-1-mesh-normals-array" count="12" stride="3">
              <param name="X" type="float"/>
              <param name="Y" type="float"/>
              <param name="Z" type="float"/>
            </accessor>
          </technique_common>
        </source>
        <source id="Colmesh_panel-1-mesh-map-0">
          <float_array id="Colmesh_panel-1-mesh-map-0-array" count="72">0.625 0 0.375 0.25 0.375 0 0.625 0.25 0.375 0.5 0.375 0.25 0.625 0.5 0.375 0.75 0.375 0.5 0.625 0.75 0.375 1 0.375 0.75 0.375 0.5 0.125 0.75 0.125 0.5 0.875 0.5 0.625 0.75 0.625 0.5 0.625 0 0.625 0.25 0.375 0.25 0.625 0.25 0.625 0.5 0.375 0.5 0.625 0.5 0.625 0.75 0.375 0.75 0.625 0.75 0.625 1 0.375 1 0.375 0.5 0.375 0.75 0.125 0.75 0.875 0.5 0.875 0.75 0.625 0.75</float_array>
          <technique_common>
            <accessor source="#Colmesh_panel-1-mesh-map-0-array" count="36" stride="2">
              <param name="S" type="float"/>
              <param name="T" type="float"/>
            </accessor>
          </technique_common>
        </source>
        <vertices id="Colmesh_panel-1-mesh-vertices">
          <input semantic="POSITION" source="#Colmesh_panel-1-mesh-positions"/>
        </vertices>
        <triangles material="Colmesh_Material-material" count="12">
          <input semantic="VERTEX" source="#Colmesh_panel-1-mesh-vertices" offset="0"/>
          <input semantic="NORMAL" source="#Colmesh_panel-1-mesh-normals" offset="1"/>
          <input semantic="TEXCOORD" source="#Colmesh_panel-1-mesh-map-0" offset="2" set="0"/>
          <p>1 0 0 2 0 1 0 0 2 3 1 3 6 1 4 2 1 5 7 2 6 4 2 7 6 2 8 5 3 9 0 3 10 4 3 11 6 4 12 0 4 13 2 4 14 3 5 15 5 5 16 7 5 17 1 6 18 3 6 19 2 6 20 3 7 21 7 7 22 6 7 23 7 8 24 5 8 25 4 8 26 5 9 27 1 9 28 0 9 29 6 10 30 4 10 31 0 10 32 3 11 33 1 11 34 5 11 35</p>
        </triangles>
      </mesh>
    </geometry>
    <geometry id="Cube-mesh" name="Cube">
      <mesh>
        <source id="Cube-mesh-positions">
          <float_array id="Cube-mesh-positions-array" count="24">-1.44 -0.00999999 -0.46 -1.44 -0.00999999 0.46 -1.44 0.00999999 -0.46 -1.44 0.00999999 0.46 1.44 -0.00999999 -0.46 1.44 -0.00999999 0.46 1.44 0.00999999 -0.46 1.44 0.00999999 0.46</float_array>
          <technique_common>
            <accessor source="#Cube-mesh-positions-array" count="8" stride="3">
              <param name="X" type="float"/>
              <param name="Y" type="float"/>
              <param name="Z" type="float"/>
            </accessor>
          </technique_common>
        </source>
        <source id="Cube-mesh-normals">
          <float_array id="Cube-mesh-normals-array" count="36">-1 0 0 0 1 0 1 0 0 0 -1 0 0 0 -1 0 0 1 -1 0 0 0 1 0 1 0 0 0 -1 0 0 0 -1 0 0 1</float_array>
          <technique_common>
            <accessor source="#Cube-mesh-normals-array" count="12" stride="3">
              <param name="X" type="float"/>
              <param name="Y" type="float"/>
              <param name="Z" type="float"/>
            </accessor>
          </technique_common>
        </source>
        <source id="Cube-mesh-map-0">
          <float_array id="Cube-mesh-map-0-array" count="72">0.4391651 3.47574e-4 0.4392735 0.04025036 0.4391651 0.04025036 0.4375435 0.9996525 0.4381669 3.47579e-4 0.4381669 0.9996525 0.4391651 0.04094547 0.4392735 0.08084827 0.4391651 0.08084827 0.4382538 0.9996525 0.4388773 3.47583e-4 0.4388773 0.9996525 0.4389777 0.9996525 0.4389642 3.47583e-4 0.4389777 3.47583e-4 0.4390782 0.9996525 0.4390646 3.47584e-4 0.4390782 3.47584e-4 0.4391651 3.47574e-4 0.4392735 3.47574e-4 0.4392735 0.04025036 0.4375435 0.9996525 0.4375435 3.47576e-4 0.4381669 3.47579e-4 0.4391651 0.04094547 0.4392735 0.04094547 0.4392735 0.08084827 0.4382538 0.9996525 0.4382538 3.4758e-4 0.4388773 3.47583e-4 0.4389777 0.9996525 0.4389642 0.9996525 0.4389642 3.47583e-4 0.4390782 0.9996525 0.4390646 0.9996525 0.4390646 3.47584e-4</float_array>
          <technique_common>
            <accessor source="#Cube-mesh-map-0-array" count="36" stride="2">
              <param name="S" type="float"/>
              <param name="T" type="float"/>
            </accessor>
          </technique_common>
        </source>
        <vertices id="Cube-mesh-vertices">
          <input semantic="POSITION" source="#Cube-mesh-positions"/>
        </vertices>
        <triangles material="fence_024-material" count="12">
          <input semantic="VERTEX" source="#Cube-mesh-vertices" offset="0"/>
          <input semantic="NORMAL" source="#Cube-mesh-normals" offset="1"/>
          <input semantic="TEXCOORD" source="#Cube-mesh-map-0" offset="2" set="0"/>
          <p>1 0 0 2 0 1 0 0 2 3 1 3 6 1 4 2 1 5 7 2 6 4 2 7 6 2 8 5 3 9 0 3 10 4 3 11 6 4 12 0 4 13 2 4 14 3 5 15 5 5 16 7 5 17 1 6 18 3 6 19 2 6 20 3 7 21 7 7 22 6 7 23 7 8 24 5 8 25 4 8 26 5 9 27 1 9 28 0 9 29 6 10 30 4 10 31 0 10 32 3 11 33 1 11 34 5 11 35</p>
        </triangles>
      </mesh>
    </geometry>
    <geometry id="Cylinder_001-mesh" name="Cylinder.001">
      <mesh>
        <source id="Cylinder_001-mesh-positions">
          <float_array id="Cylinder_001-mesh-positions-array" count="48">0 0.03999996 -0.55 0 0.03999996 0.55 0.02828425 0.02828425 -0.55 0.02828425 0.02828425 0.55 0.03999996 0 -0.55 0.03999996 0 0.55 0.02828425 -0.02828425 -0.55 0.02828425 -0.02828425 0.55 0 -0.03999996 -0.55 0 -0.03999996 0.55 -0.02828425 -0.02828425 -0.55 -0.02828425 -0.02828425 0.55 -0.03999996 0 -0.55 -0.03999996 0 0.55 -0.02828425 0.02828425 -0.55 -0.02828425 0.02828425 0.55</float_array>
          <technique_common>
            <accessor source="#Cylinder_001-mesh-positions-array" count="16" stride="3">
              <param name="X" type="float"/>
              <param name="Y" type="float"/>
              <param name="Z" type="float"/>
            </accessor>
          </technique_common>
        </source>
        <source id="Cylinder_001-mesh-normals">
          <float_array id="Cylinder_001-mesh-normals-array" count="84">0.3826834 0.9238795 0 0.9238795 0.3826834 0 0.9238795 -0.3826834 0 0.3826834 -0.9238795 0 -0.3826834 -0.9238795 0 -0.9238795 -0.3826834 0 0 0 1 -0.9238795 0.3826834 0 -0.3826834 0.9238795 0 0 0 -1 0.3826834 0.9238795 0 0.9238795 0.3826834 0 0.9238795 -0.3826834 0 0.3826834 -0.9238795 0 -0.3826834 -0.9238795 0 -0.9238795 -0.3826834 0 0 0 1 0 0 1 0 0 1 0 0 1 0 0 1 -0.9238795 0.3826834 0 -0.3826834 0.9238795 0 0 0 -1 0 0 -1 0 0 -1 0 0 -1 0 0 -1</float_array>
          <technique_common>
            <accessor source="#Cylinder_001-mesh-normals-array" count="28" stride="3">
              <param name="X" type="float"/>
              <param name="Y" type="float"/>
              <param name="Z" type="float"/>
            </accessor>
          </technique_common>
        </source>
        <source id="Cylinder_001-mesh-map-0">
          <float_array id="Cylinder_001-mesh-map-0-array" count="168">0.02160543 0.002004444 0.04932534 0.9979956 0.02160543 0.9979956 0.05333429 0.002004444 0.07293522 0.9979956 0.05333429 0.9979956 0.07293522 0.002004444 0.1006552 0.9979956 0.07293522 0.9979956 0.1046641 0.002004444 0.1242651 0.9979956 0.1046641 0.9979956 0.1242651 0.002004444 0.151985 0.9979956 0.1242651 0.9979956 0.1559939 0.002004444 0.1755949 0.9979956 0.1559939 0.9979956 0.2269247 0.002004444 0.2742457 0.02160537 0.2546447 0.06892627 0.1755949 0.002004444 0.2033149 0.9979956 0.1755949 0.9979956 0.002004444 0.002004444 0.02160543 0.9979956 0.002004444 0.9979956 0.2546447 0.07293522 0.2742457 0.1202561 0.2269247 0.1398571 0.02160543 0.002004444 0.04932534 0.002004444 0.04932534 0.9979956 0.05333429 0.002004444 0.07293522 0.002004444 0.07293522 0.9979956 0.07293522 0.002004444 0.1006552 0.002004444 0.1006552 0.9979956 0.1046641 0.002004444 0.1242651 0.002004444 0.1242651 0.9979956 0.1242651 0.002004444 0.151985 0.002004444 0.151985 0.9979956 0.1559939 0.002004444 0.1755949 0.002004444 0.1755949 0.9979956 0.2546447 0.06892627 0.2269247 0.06892627 0.2073238 0.04932534 0.2073238 0.04932534 0.2073238 0.02160537 0.2269247 0.002004444 0.2269247 0.002004444 0.2546447 0.002004444 0.2742457 0.02160537 0.2742457 0.02160537 0.2742457 0.04932534 0.2546447 0.06892627 0.2546447 0.06892627 0.2073238 0.04932534 0.2269247 0.002004444 0.1755949 0.002004444 0.2033149 0.002004444 0.2033149 0.9979956 0.002004444 0.002004444 0.02160543 0.002004444 0.02160543 0.9979956 0.2269247 0.1398571 0.2073238 0.1202561 0.2073238 0.09253621 0.2073238 0.09253621 0.2269247 0.07293522 0.2546447 0.07293522 0.2546447 0.07293522 0.2742457 0.09253621 0.2742457 0.1202561 0.2742457 0.1202561 0.2546447 0.1398571 0.2269247 0.1398571 0.2269247 0.1398571 0.2073238 0.09253621 0.2546447 0.07293522</float_array>
          <technique_common>
            <accessor source="#Cylinder_001-mesh-map-0-array" count="84" stride="2">
              <param name="S" type="float"/>
              <param name="T" type="float"/>
            </accessor>
          </technique_common>
        </source>
        <vertices id="Cylinder_001-mesh-vertices">
          <input semantic="POSITION" source="#Cylinder_001-mesh-positions"/>
        </vertices>
        <triangles material="post_024-material" count="28">
          <input semantic="VERTEX" source="#Cylinder_001-mesh-vertices" offset="0"/>
          <input semantic="NORMAL" source="#Cylinder_001-mesh-normals" offset="1"/>
          <input semantic="TEXCOORD" source="#Cylinder_001-mesh-map-0" offset="2" set="0"/>
          <p>1 0 0 2 0 1 0 0 2 3 1 3 4 1 4 2 1 5 5 2 6 6 2 7 4 2 8 7 3 9 8 3 10 6 3 11 9 4 12 10 4 13 8 4 14 11 5 15 12 5 16 10 5 17 13 6 18 9 6 19 5 6 20 13 7 21 14 7 22 12 7 23 15 8 24 0 8 25 14 8 26 6 9 27 10 9 28 14 9 29 1 10 30 3 10 31 2 10 32 3 11 33 5 11 34 4 11 35 5 12 36 7 12 37 6 12 38 7 13 39 9 13 40 8 13 41 9 14 42 11 14 43 10 14 44 11 15 45 13 15 46 12 15 47 5 16 48 3 16 49 1 16 50 1 17 51 15 17 52 13 17 53 13 18 54 11 18 55 9 18 56 9 19 57 7 19 58 5 19 59 5 20 60 1 20 61 13 20 62 13 21 63 15 21 64 14 21 65 15 22 66 1 22 67 0 22 68 14 23 69 0 23 70 2 23 71 2 24 72 4 24 73 6 24 74 6 25 75 8 25 76 10 25 77 10 26 78 12 26 79 14 26 80 14 27 81 2 27 82 6 27 83</p>
        </triangles>
      </mesh>
    </geometry>
    <geometry id="Cylinder-mesh" name="Cylinder">
      <mesh>
        <source id="Cylinder-mesh-positions">
          <float_array id="Cylinder-mesh-positions-array" count="48">0 0.03999996 -0.55 0 0.03999996 0.55 0.02828425 0.02828425 -0.55 0.02828425 0.02828425 0.55 0.03999996 0 -0.55 0.03999996 0 0.55 0.02828425 -0.02828425 -0.55 0.02828425 -0.02828425 0.55 0 -0.03999996 -0.55 0 -0.03999996 0.55 -0.02828425 -0.02828425 -0.55 -0.02828425 -0.02828425 0.55 -0.03999996 0 -0.55 -0.03999996 0 0.55 -0.02828425 0.02828425 -0.55 -0.02828425 0.02828425 0.55</float_array>
          <technique_common>
            <accessor source="#Cylinder-mesh-positions-array" count="16" stride="3">
              <param name="X" type="float"/>
              <param name="Y" type="float"/>
              <param name="Z" type="float"/>
            </accessor>
          </technique_common>
        </source>
        <source id="Cylinder-mesh-normals">
          <float_array id="Cylinder-mesh-normals-array" count="84">0.3826834 0.9238795 0 0.9238795 0.3826834 0 0.9238795 -0.3826834 0 0.3826834 -0.9238795 0 -0.3826834 -0.9238795 0 -0.9238795 -0.3826834 0 0 0 1 -0.9238795 0.3826834 0 -0.3826834 0.9238795 0 0 0 -1 0.3826834 0.9238795 0 0.9238795 0.3826834 0 0.9238795 -0.3826834 0 0.3826834 -0.9238795 0 -0.3826834 -0.9238795 0 -0.9238795 -0.3826834 0 0 0 1 0 0 1 0 0 1 0 0 1 0 0 1 -0.9238795 0.3826834 0 -0.3826834 0.9238795 0 0 0 -1 0 0 -1 0 0 -1 0 0 -1 0 0 -1</float_array>
          <technique_common>
            <accessor source="#Cylinder-mesh-normals-array" count="28" stride="3">
              <param name="X" type="float"/>
              <param name="Y" type="float"/>
              <param name="Z" type="float"/>
            </accessor>
          </technique_common>
        </source>
        <source id="Cylinder-mesh-map-0">
          <float_array id="Cylinder-mesh-map-0-array" count="168">0.02160543 0.002004444 0.04932534 0.9979956 0.02160543 0.9979956 0.05333429 0.002004444 0.07293522 0.9979956 0.05333429 0.9979956 0.07293522 0.002004444 0.1006552 0.9979956 0.07293522 0.9979956 0.1046641 0.002004444 0.1242651 0.9979956 0.1046641 0.9979956 0.1242651 0.002004444 0.151985 0.9979956 0.1242651 0.9979956 0.1559939 0.002004444 0.1755949 0.9979956 0.1559939 0.9979956 0.2269247 0.002004444 0.2742457 0.02160537 0.2546447 0.06892627 0.1755949 0.002004444 0.2033149 0.9979956 0.1755949 0.9979956 0.002004444 0.002004444 0.02160543 0.9979956 0.002004444 0.9979956 0.2546447 0.07293522 0.2742457 0.1202561 0.2269247 0.1398571 0.02160543 0.002004444 0.04932534 0.002004444 0.04932534 0.9979956 0.05333429 0.002004444 0.07293522 0.002004444 0.07293522 0.9979956 0.07293522 0.002004444 0.1006552 0.002004444 0.1006552 0.9979956 0.1046641 0.002004444 0.1242651 0.002004444 0.1242651 0.9979956 0.1242651 0.002004444 0.151985 0.002004444 0.151985 0.9979956 0.1559939 0.002004444 0.1755949 0.002004444 0.1755949 0.9979956 0.2546447 0.06892627 0.2269247 0.06892627 0.2073238 0.04932534 0.2073238 0.04932534 0.2073238 0.02160537 0.2269247 0.002004444 0.2269247 0.002004444 0.2546447 0.002004444 0.2742457 0.02160537 0.2742457 0.02160537 0.2742457 0.04932534 0.2546447 0.06892627 0.2546447 0.06892627 0.2073238 0.04932534 0.2269247 0.002004444 0.1755949 0.002004444 0.2033149 0.002004444 0.2033149 0.9979956 0.002004444 0.002004444 0.02160543 0.002004444 0.02160543 0.9979956 0.2269247 0.1398571 0.2073238 0.1202561 0.2073238 0.09253621 0.2073238 0.09253621 0.2269247 0.07293522 0.2546447 0.07293522 0.2546447 0.07293522 0.2742457 0.09253621 0.2742457 0.1202561 0.2742457 0.1202561 0.2546447 0.1398571 0.2269247 0.1398571 0.2269247 0.1398571 0.2073238 0.09253621 0.2546447 0.07293522</float_array>
          <technique_common>
            <accessor source="#Cylinder-mesh-map-0-array" count="84" stride="2">
              <param name="S" type="float"/>
              <param name="T" type="float"/>
            </accessor>
          </technique_common>
        </source>
        <vertices id="Cylinder-mesh-vertices">
          <input semantic="POSITION" source="#Cylinder-mesh-positions"/>
        </vertices>
        <triangles material="post_024-material" count="28">
          <input semantic="VERTEX" source="#Cylinder-mesh-vertices" offset="0"/>
          <input semantic="NORMAL" source="#Cylinder-mesh-normals" offset="1"/>
          <input semantic="TEXCOORD" source="#Cylinder-mesh-map-0" offset="2" set="0"/>
          <p>1 0 0 2 0 1 0 0 2 3 1 3 4 1 4 2 1 5 5 2 6 6 2 7 4 2 8 7 3 9 8 3 10 6 3 11 9 4 12 10 4 13 8 4 14 11 5 15 12 5 16 10 5 17 13 6 18 9 6 19 5 6 20 13 7 21 14 7 22 12 7 23 15 8 24 0 8 25 14 8 26 6 9 27 10 9 28 14 9 29 1 10 30 3 10 31 2 10 32 3 11 33 5 11 34 4 11 35 5 12 36 7 12 37 6 12 38 7 13 39 9 13 40 8 13 41 9 14 42 11 14 43 10 14 44 11 15 45 13 15 46 12 15 47 5 16 48 3 16 49 1 16 50 1 17 51 15 17 52 13 17 53 13 18 54 11 18 55 9 18 56 9 19 57 7 19 58 5 19 59 5 20 60 1 20 61 13 20 62 13 21 63 15 21 64 14 21 65 15 22 66 1 22 67 0 22 68 14 23 69 0 23 70 2 23 71 2 24 72 4 24 73 6 24 74 6 25 75 8 25 76 10 25 77 10 26 78 12 26 79 14 26 80 14 27 81 2 27 82 6 27 83</p>
        </triangles>
      </mesh>
    </geometry>
  </library_geometries>
  <library_visual_scenes>
    <visual_scene id="Scene" name="Scene">
      <node id="base00" name="base00" type="NODE">
        <matrix sid="transform">1 0 0 0 0 1 0 0 0 0 1 0 0 0 0 1</matrix>
        <node id="start01" name="start01" type="NODE">
          <matrix sid="transform">1 0 0 0 0 1 0 0 0 0 1 0 0 0 0 1</matrix>
          <node id="ribbon_orange_3m_a800" name="ribbon_orange_3m_a800" type="NODE">
            <matrix sid="transform">1 0 0 0 0 1 0 0 0 0 1 0 0 0 0 1</matrix>
            <node id="post_0" name="post_0" type="NODE">
              <matrix sid="transform">1 0 0 0.04 0 1 0 0 0 0 1 0.5 0 0 0 1</matrix>
              <instance_geometry url="#Cylinder-mesh" name="post_0">
                <bind_material>
                  <technique_common>
                    <instance_material symbol="post_024-material" target="#post_024-material">
                      <bind_vertex_input semantic="UVMap" input_semantic="TEXCOORD" input_set="0"/>
                    </instance_material>
                  </technique_common>
                </bind_material>
              </instance_geometry>
            </node>
            <node id="post_1" name="post_1" type="NODE">
              <matrix sid="transform">1 0 0 2.96 0 1 0 0 0 0 1 0.5 0 0 0 1</matrix>
              <instance_geometry url="#Cylinder_001-mesh" name="post_1">
                <bind_material>
                  <technique_common>
                    <instance_material symbol="post_024-material" target="#post_024-material">
                      <bind_vertex_input semantic="UVMap" input_semantic="TEXCOORD" input_set="0"/>
                    </instance_material>
                  </technique_common>
                </bind_material>
              </instance_geometry>
            </node>
            <node id="mesh" name="mesh" type="NODE">
              <matrix sid="transform">1 0 0 1.5 0 1 0 0 0 0 1 0.5 0 0 0 1</matrix>
              <instance_geometry url="#Cube-mesh" name="mesh">
                <bind_material>
                  <technique_common>
                    <instance_material symbol="fence_024-material" target="#fence_024-material">
                      <bind_vertex_input semantic="UVMap" input_semantic="TEXCOORD" input_set="0"/>
                    </instance_material>
                  </technique_common>
                </bind_material>
              </instance_geometry>
            </node>
          </node>
        </node>
        <node id="collision-1" name="collision-1" type="NODE">
          <matrix sid="transform">1 0 0 0 0 1 0 0 0 0 1 0 0 0 0 1</matrix>
          <node id="Colmesh_panel-1" name="Colmesh_panel-1" type="NODE">
            <matrix sid="transform">1 0 0 1.5 0 1 0 0 0 0 1 0.5 0 0 0 1</matrix>
            <instance_geometry url="#Colmesh_panel-1-mesh" name="Colmesh_panel-1">
              <bind_material>
                <technique_common>
                  <instance_material symbol="Colmesh_Material-material" target="#Colmesh_Material-material">
                    <bind_vertex_input semantic="UVMap" input_semantic="TEXCOORD" input_set="0"/>
                  </instance_material>
                </technique_common>
              </bind_material>
            </instance_geometry>
          </node>
        </node>
      </node>
    </visual_scene>
  </library_visual_scenes>
  <scene>
    <instance_visual_scene url="#Scene"/>
  </scene>
</COLLADA>