<?xml version="1.0" encoding="utf-8"?>
<COLLADA xmlns="http://www.collada.org/2005/11/COLLADASchema" version="1.4.1" xmlns:xsi="http://www.w3.org/2001/XMLSchema-instance">
  <asset>
    <contributor>
      <author>Blender User</author>
      <authoring_tool>Blender 4.2.9 LTS commit date:2025-04-14, commit time:12:24, hash:a10f621e649a</authoring_tool>
    </contributor>
    <created>2026-08-01T08:03:47</created>
    <modified>2026-08-01T08:03:47</modified>
    <unit name="meter" meter="1"/>
    <up_axis>Z_UP</up_axis>
  </asset>
  <library_effects>
    <effect id="post_023-effect">
      <profile_COMMON>
        <technique sid="common">
          <lambert>
            <emission>
              <color sid="emission">0 0 0 1</color>
            </emission>
            <diffuse>
              <color sid="diffuse">0.3 0.3 0.3 1</color>
            </diffuse>
            <reflectivity>
              <float sid="specular">0.7</float>
            </reflectivity>
            <index_of_refraction>
              <float sid="ior">1.5</float>
            </index_of_refraction>
          </lambert>
        </technique>
      </profile_COMMON>
    </effect>
    <effect id="fence_023-effect">
      <profile_COMMON>
        <newparam sid="ribbon_orange_png-surface">
          <surface type="2D">
            <init_from>ribbon_orange_png</init_from>
          </surface>
        </newparam>
        <newparam sid="ribbon_orange_png-sampler">
          <sampler2D>
            <source>ribbon_orange_png-surface</source>
          </sampler2D>
        </newparam>
        <technique sid="common">
          <lambert>
            <emission>
              <color sid="emission">0 0 0 1</color>
            </emission>
            <diffuse>
              <texture texture="ribbon_orange_png-sampler" texcoord="UVMap"/>
            </diffuse>
            <reflectivity>
              <float sid="specular">0.3</float>
            </reflectivity>
            <index_of_refraction>
              <float sid="ior">1.5</float>
            </index_of_refraction>
          </lambert>
        </technique>
      </profile_COMMON>
    </effect>
    <effect id="Colmesh_Material-effect">
      <profile_COMMON>
        <technique sid="common">
          <lambert>
            <emission>
              <color sid="emission">0 0 0 1</color>
            </emission>
            <diffuse>
              <color sid="diffuse">1 0 1 1</color>
            </diffuse>
            <transparent opaque="A_ONE">
              <color sid="alpha">0 0 0 0.15</color>
            </transparent>
            <index_of_refraction>
              <float sid="ior">1.5</float>
            </index_of_refraction>
          </lambert>
        </technique>
      </profile_COMMON>
    </effect>
  </library_effects>
  <library_images>
    <image id="ribbon_orange_png" name="ribbon_orange_png">
      <init_from>ribbon_orange.png</init_from>
    </image>
  </library_images>
  <library_materials>
    <material id="post_023-material" name="post.023">
      <instance_effect url="#post_023-effect"/>
    </material>
    <material id="fence_023-material" name="fence.023">
      <instance_effect url="#fence_023-effect"/>
    </material>
    <material id="Colmesh_Material-material" name="Colmesh_Material">
      <instance_effect url="#Colmesh_Material-effect"/>
    </material>
  </library_materials>
  <library_geometries>
    <geometry id="stake_ribbon_orange_2m_a50-mesh" name="stake_ribbon_orange_2m_a50">
      <mesh>
        <source id="stake_ribbon_orange_2m_a50-mesh-positions">
          <float_array id="stake_ribbon_orange_2m_a50-mesh-positions-array" count="24">-1.05 0 -0.01099997 1.05 0 -0.01099997 1.05 0 1.111 -1.05 0 1.111 0 -1.05 -0.01099997 0 1.05 -0.01099997 0 1.05 1.111 0 -1.05 1.111</float_array>
          <technique_common>
            <accessor source="#stake_ribbon_orange_2m_a50-mesh-positions-array" count="8" stride="3">
              <param name="X" type="float"/>
              <param name="Y" type="float"/>
              <param name="Z" type="float"/>
            </accessor>
          </technique_common>
        </source>
        <source id="stake_ribbon_orange_2m_a50-mesh-normals">
          <float_array id="stake_ribbon_orange_2m_a50-mesh-normals-array" count="12">0 -1 0 1 0 0 0 -1 0 1 0 0</float_array>
          <technique_common>
            <accessor source="#stake_ribbon_orange_2m_a50-mesh-normals-array" count="4" stride="3">
              <param name="X" type="float"/>
              <param name="Y" type="float"/>
              <param name="Z" type="float"/>
            </accessor>
          </technique_common>
        </source>
        <source id="stake_ribbon_orange_2m_a50-mesh-map-0">
          <float_array id="stake_ribbon_orange_2m_a50-mesh-map-0-array" count="24">1 0 0 1 0 0 1 0 0 1 0 0 1 0 1 1 0 1 1 0 1 1 0 1</float_array>
          <technique_common>
            <accessor source="#stake_ribbon_orange_2m_a50-mesh-map-0-array" count="12" stride="2">
              <param name="S" type="float"/>
              <param name="T" type="float"/>
            </accessor>
          </technique_common>
        </source>
        <vertices id="stake_ribbon_orange_2m_a50-mesh-vertices">
          <input semantic="POSITION" source="#stake_ribbon_orange_2m_a50-mesh-positions"/>
        </vertices>
        <triangles material="post_023-material" count="4">
          <input semantic="VERTEX" source="#stake_ribbon_orange_2m_a50-mesh-vertices" offset="0"/>
          <input semantic="NORMAL" source="#stake_ribbon_orange_2m_a50-mesh-normals" offset="1"/>
          <input semantic="TEXCOORD" source="#stake_ribbon_orange_2m_a50-mesh-map-0" offset="2" set="0"/>
          <p>1 0 0 3 0 1 0 0 2 5 1 3 7 1 4 4 1 5 1 2 6 2 2 7 3 2 8 5 3 9 6 3 10 7 3 11</p>
        </triangles>
      </mesh>
    </geometry>
    <geometry id="stake_ribbon_orange_2m_a200-mesh" name="stake_ribbon_orange_2m_a200">
      <mesh>
        <source id="stake_ribbon_orange_2m_a200-mesh-positions">
          <float_array id="stake_ribbon_orange_2m_a200-mesh-positions-array" count="69">-0.940792 0.03714174 1.1 -0.92 0 0 -0.92 0 1.1 -0.940792 -0.03714174 0 -0.9473191 -0.03984534 1.1 -0.9971417 -0.01920807 0 -0.9882842 -0.02828425 1.1 -0.9653909 0.04412657 0 -0.9971417 0.01920807 1.1 0.9473191 0.03984534 1.1 0.9971418 0.01920813 0 0.9882843 0.02828425 1.1 0.9882843 -0.02828425 0 0.9971418 -0.01920813 1.1 0.9473191 -0.03984534 0 0.940792 -0.03714174 1.1 0.92 0 0 0.92 0 1.1 0.940792 0.03714174 0 -0.94 0.00333333 1.01 -0.94 -0.00333333 0.08999997 0.94 0.00333333 0.08999997 0.94 -0.00333333 1.01</float_array>
          <technique_common>
            <accessor source="#stake_ribbon_orange_2m_a200-mesh-positions-array" count="23" stride="3">
              <param name="X" type="float"/>
              <param name="Y" type="float"/>
              <param name="Z" type="float"/>
            </accessor>
          </technique_common>
        </source>
        <source id="stake_ribbon_orange_2m_a200-mesh-normals">
          <float_array id="stake_ribbon_orange_2m_a200-mesh-normals-array" count="102">-0.8938457 0.4481014 -0.01564937 0.8725798 0.4884715 0 0.3032628 0.9528916 -0.005420327 0.9830291 -0.1833381 -0.00640285 0.8247566 -0.565477 0.003504037 -0.3032636 -0.9528913 -0.005420386 -0.983029 -0.1833383 0.00640285 -1.73078e-6 4.17847e-6 1 0 0 -1 -0.3032431 0.9528269 0.01283162 0.2716068 -0.9624001 0.00397706 0.9830291 0.1833381 0.00640285 -0.8725806 -0.4884703 0 -9.65146e-7 2.33007e-6 1 -0.8247574 0.5654758 0.003504037 0 0 -1 -0.003545939 0.9999674 0.007246136 0.003545939 -0.9999674 0.007246136 0.6970081 0.7169783 -0.01103419 0.2716068 0.9624001 -0.00397706 0.8725799 -0.4884716 0 -0.2716065 -0.9624002 -0.00397706 8.67002e-7 -2.72423e-6 1 9.65146e-7 -2.33007e-6 1 0 0 -1 0.3032628 -0.9528915 0.005420327 -0.8247574 -0.5654759 -0.003504037 1.73078e-6 -4.17846e-6 1 -8.67e-7 2.72423e-6 1 -0.8725806 0.4884702 0 0 0 -1 0 0 -1 0.003545939 0.9999674 -0.007246136 -0.003545939 -0.9999674 -0.007246136</float_array>
          <technique_common>
            <accessor source="#stake_ribbon_orange_2m_a200-mesh-normals-array" count="34" stride="3">
              <param name="X" type="float"/>
              <param name="Y" type="float"/>
              <param name="Z" type="float"/>
            </accessor>
          </technique_common>
        </source>
        <source id="stake_ribbon_orange_2m_a200-mesh-map-0">
          <float_array id="stake_ribbon_orange_2m_a200-mesh-map-0-array" count="204">0.1926533 0.002004444 0.2033149 0.9979956 0.1635328 0.9979956 0.07293522 0.9979956 0.05333429 0.002004444 0.07293522 0.002004444 0.009543299 0.9979955 0.04932534 0.002004444 0.04932534 0.9979956 0.08999371 0.002004444 0.1006552 0.9979956 0.06087309 0.9979956 0.1006552 0.9979956 0.07293522 0.002004444 0.1006552 0.002004444 0.112203 0.9979956 0.151985 0.002004444 0.151985 0.9979956 0.1559939 0.002004444 0.1926533 0.002004444 0.1635328 0.9979956 0.2546447 0.002004444 0.2742457 0.03226685 0.2546447 0.06892627 0.2269247 0.07293522 0.2667068 0.127795 0.2147974 0.1211333 0.002004444 0.002004444 0.03866374 0.002004444 0.02072817 0.9979955 0.1046641 0.9979956 0.1413235 0.002004444 0.1349266 0.9979956 0.05333429 0.002004444 0.08999371 0.002004444 0.06087309 0.9979956 0.1755949 0.9979956 0.1559939 0.002004444 0.1755949 0.002004444 0.2269247 0.002004444 0.2667069 0.05686414 0.2269247 0.06892627 0.2033149 0.9979956 0.1755949 0.002004444 0.2033149 0.002004444 0.2546447 0.1398571 0.2193859 0.1323182 0.2148626 0.08499735 0.4385096 0.999563 0.43982 4.37057e-4 0.4385096 4.37051e-4 0.4396969 0.999563 0.4400538 4.37038e-4 0.43969 4.37057e-4 0.07293522 0.9979956 0.05333429 0.9979956 0.05333429 0.002004444 0.009543299 0.9979955 0.01406657 0.002004444 0.04932534 0.002004444 0.1006552 0.9979956 0.07293522 0.9979956 0.07293522 0.002004444 0.112203 0.9979956 0.1167263 0.002004444 0.151985 0.002004444 0.2546447 0.06892627 0.2193859 0.06138741 0.2148627 0.01406651 0.2148627 0.01406651 0.2546447 0.002004444 0.2546447 0.06892627 0.2269247 0.07293522 0.2621836 0.08047413 0.2667068 0.127795 0.1046641 0.9979956 0.1046641 0.002004444 0.1413235 0.002004444 0.1755949 0.9979956 0.1559939 0.9979956 0.1559939 0.002004444 0.2269247 0.06892627 0.2073238 0.03866386 0.2269247 0.002004444 0.2269247 0.002004444 0.2621836 0.009543299 0.2667069 0.05686414 0.2033149 0.9979956 0.1755949 0.9979956 0.1755949 0.002004444 0.2148626 0.08499735 0.2546447 0.07293522 0.2546447 0.1398571 0.2546447 0.07293522 0.2742457 0.1031977 0.2546447 0.1398571 0.4385096 0.999563 0.4398269 0.999563 0.43982 4.37057e-4 0.4396969 0.999563 0.4386188 0.999563 0.4400538 4.37038e-4</float_array>
          <technique_common>
            <accessor source="#stake_ribbon_orange_2m_a200-mesh-map-0-array" count="102" stride="2">
              <param name="S" type="float"/>
              <param name="T" type="float"/>
            </accessor>
          </technique_common>
        </source>
        <vertices id="stake_ribbon_orange_2m_a200-mesh-vertices">
          <input semantic="POSITION" source="#stake_ribbon_orange_2m_a200-mesh-positions"/>
        </vertices>
        <triangles material="post_023-material" count="30">
          <input semantic="VERTEX" source="#stake_ribbon_orange_2m_a200-mesh-vertices" offset="0"/>
          <input semantic="NORMAL" source="#stake_ribbon_orange_2m_a200-mesh-normals" offset="1"/>
          <input semantic="TEXCOORD" source="#stake_ribbon_orange_2m_a200-mesh-map-0" offset="2" set="0"/>
          <p>8 0 0 7 0 1 5 0 2 1 1 3 0 1 4 2 1 5 18 2 6 11 2 7 10 2 8 13 3 9 12 3 10 10 3 11 3 4 12 2 4 13 4 4 14 3 5 15 6 5 16 5 5 17 6 6 18 8 6 19 5 6 20 6 7 21 4 7 22 2 7 23 1 8 24 5 8 25 7 8 26 8 9 27 0 9 28 7 9 29 12 10 30 15 10 31 14 10 32 11 11 33 13 11 34 10 11 35 16 12 36 15 12 37 17 12 38 17 13 39 13 13 40 11 13 41 18 14 42 17 14 43 9 14 44 16 15 45 18 15 46 10 15 47 1 18 54 7 18 55 0 18 56 18 19 57 9 19 58 11 19 59 3 20 60 1 20 61 2 20 62 3 21 63 4 21 64 6 21 65 2 22 66 0 22 67 8 22 68 8 23 69 6 23 70 2 23 71 1 24 72 3 24 73 5 24 74 12 25 75 13 25 76 15 25 77 16 26 78 14 26 79 15 26 80 11 27 81 9 27 82 17 27 83 17 28 84 15 28 85 13 28 86 18 29 87 16 29 88 17 29 89 10 30 90 12 30 91 16 30 92 12 31 93 14 31 94 16 31 95</p>
        </triangles>
        <triangles material="fence_023-material" count="4">
          <input semantic="VERTEX" source="#stake_ribbon_orange_2m_a200-mesh-vertices" offset="0"/>
          <input semantic="NORMAL" source="#stake_ribbon_orange_2m_a200-mesh-normals" offset="1"/>
          <input semantic="TEXCOORD" source="#stake_ribbon_orange_2m_a200-mesh-map-0" offset="2" set="0"/>
          <p>20 16 48 22 16 49 21 16 50 21 17 51 19 17 52 20 17 53 20 32 96 19 32 97 22 32 98 21 33 99 22 33 100 19 33 101</p>
        </triangles>
      </mesh>
    </geometry>
    <geometry id="Colmesh_panel-1-mesh" name="Colmesh_panel-1">
      <mesh>
        <source id="Colmesh_panel-1-mesh-positions">
          <float_array id="Colmesh_panel-1-mesh-positions-array" count="24">-1 -0.03999996 0.05000001 -1 -0.03999996 1.05 -1 0.03999996 0.05000001 -1 0.03999996 1.05 1 -0.03999996 0.05000001 1 -0.03999996 1.05 1 0.03999996 0.05000001 1 0.03999996 1.05</float_array>
          <technique_common>
            <accessor source="#Colmesh_panel-1-mesh-positions-array" count="8" stride="3">
              <param name="X" type="float"/>
              <param name="Y" type="float"/>
              <param name="Z" type="float"/>
            </accessor>
          </technique_common>
        </source>
        <source id="Colmesh_panel-1-mesh-normals">
          <float_array id="Colmesh_panel-1-mesh-normals-array" count="36">-1 0 0 0 1 0 1 0 0 0 -1 0 0 0 -1 0 0 1 -1 0 0 0 1 0 1 0 0 0 -1 0 0 0 -1 0 0 1</float_array>
          <technique_common>
            <accessor source="#Colmesh_panel-1-mesh-normals-array" count="12" stride="3">
              <param name="X" type="float"/>
              <param name="Y" type="float"/>
              <param name="Z" type="float"/>
            </accessor>
          </technique_common>
        </source>
        <source id="Colmesh_panel-1-mesh-map-0">
          <float_array id="Colmesh_panel-1-mesh-map-0-array" count="72">0.625 0 0.375 0.25 0.375 0 0.625 0.25 0.375 0.5 0.375 0.25 0.625 0.5 0.375 0.75 0.375 0.5 0.625 0.75 0.375 1 0.375 0.75 0.375 0.5 0.125 0.75 0.125 0.5 0.875 0.5 0.625 0.75 0.625 0.5 0.625 0 0.625 0.25 0.375 0.25 0.625 0.25 0.625 0.5 0.375 0.5 0.625 0.5 0.625 0.75 0.375 0.75 0.625 0.75 0.625 1 0.375 1 0.375 0.5 0.375 0.75 0.125 0.75 0.875 0.5 0.875 0.75 0.625 0.75</float_array>
          <technique_common>
            <accessor source="#Colmesh_panel-1-mesh-map-0-array" count="36" stride="2">
              <param name="S" type="float"/>
              <param name="T" type="float"/>
            </accessor>
          </technique_common>
        </source>
        <vertices id="Colmesh_panel-1-mesh-vertices">
          <input semantic="POSITION" source="#Colmesh_panel-1-mesh-positions"/>
        </vertices>
        <triangles material="Colmesh_Material-material" count="12">
          <input semantic="VERTEX" source="#Colmesh_panel-1-mesh-vertices" offset="0"/>
          <input semantic="NORMAL" source="#Colmesh_panel-1-mesh-normals" offset="1"/>
          <input semantic="TEXCOORD" source="#Colmesh_panel-1-mesh-map-0" offset="2" set="0"/>
          <p>1 0 0 2 0 1 0 0 2 3 1 3 6 1 4 2 1 5 7 2 6 4 2 7 6 2 8 5 3 9 0 3 10 4 3 11 6 4 12 0 4 13 2 4 14 3 5 15 5 5 16 7 5 17 1 6 18 3 6 19 2 6 20 3 7 21 7 7 22 6 7 23 7 8 24 5 8 25 4 8 26 5 9 27 1 9 28 0 9 29 6 10 30 4 10 31 0 10 32 3 11 33 1 11 34 5 11 35</p>
        </triangles>
      </mesh>
    </geometry>
    <geometry id="stake_ribbon_orange_2m_a800-mesh" name="stake_ribbon_orange_2m_a800">
      <mesh>
        <source id="stake_ribbon_orange_2m_a800-mesh-positions">
          <float_array id="stake_ribbon_orange_2m_a800-mesh-positions-array" count="120">-0.96 0.03999996 0 -0.96 0.03999996 1.1 -0.9317157 0.02828425 0 -0.9317157 0.02828425 1.1 -0.92 0 0 -0.92 0 1.1 -0.9317157 -0.02828425 0 -0.9317157 -0.02828425 1.1 -0.96 -0.03999996 0 -0.96 -0.03999996 1.1 -0.9882842 -0.02828425 0 -0.9882842 -0.02828425 1.1 -1 0 0 -1 0 1.1 -0.9882842 0.02828425 0 -0.9882842 0.02828425 1.1 0.96 0.03999996 0 0.96 0.03999996 1.1 0.9882843 0.02828425 0 0.9882843 0.02828425 1.1 1 0 0 1 0 1.1 0.9882843 -0.02828425 0 0.9882843 -0.02828425 1.1 0.96 -0.03999996 0 0.96 -0.03999996 1.1 0.9317158 -0.02828425 0 0.9317158 -0.02828425 1.1 0.92 0 0 0.92 0 1.1 0.9317158 0.02828425 0 0.9317158 0.02828425 1.1 -0.94 -0.00999999 0.08999997 -0.94 -0.00999999 1.01 -0.94 0.00999999 0.08999997 -0.94 0.00999999 1.01 0.94 -0.00999999 0.08999997 0.94 -0.00999999 1.01 0.94 0.00999999 0.08999997 0.94 0.00999999 1.01</float_array>
          <technique_common>
            <accessor source="#stake_ribbon_orange_2m_a800-mesh-positions-array" count="40" stride="3">
              <param name="X" type="float"/>
              <param name="Y" type="float"/>
              <param name="Z" type="float"/>
            </accessor>
          </technique_common>
        </source>
        <source id="stake_ribbon_orange_2m_a800-mesh-normals">
          <float_array id="stake_ribbon_orange_2m_a800-mesh-normals-array" count="204">0.3826836 0.9238794 0 0.9238791 0.3826846 0 0.9238791 -0.3826846 0 0.3826836 -0.9238794 0 -0.3826836 -0.9238794 0 -0.9238791 -0.3826846 0 0 0 1 -0.9238791 0.3826846 0 -0.3826836 0.9238794 0 0 0 -1 0.3826836 0.9238794 0 0.9238797 0.3826829 0 0.9238797 -0.3826829 0 0.3826836 -0.9238794 0 -0.3826836 -0.9238794 0 -0.9238791 -0.3826846 0 0 0 1 -0.9238791 0.3826846 0 -0.3826836 0.9238794 0 0 0 -1 -1 0 0 0 1 0 1 0 0 0 -1 0 0 0 -1 0 0 1 0.3826836 0.9238794 0 0.9238791 0.3826846 0 0.9238791 -0.3826846 0 0.3826836 -0.9238794 0 -0.3826836 -0.9238794 0 -0.9238791 -0.3826846 0 0 0 1 0 0 1 0 0 1 0 0 1 0 0 1 -0.9238791 0.3826846 0 -0.3826836 0.9238794 0 0 0 -1 0 0 -1 0 0 -1 0 0 -1 0 0 -1 0.3826836 0.9238794 0 0.9238797 0.3826829 0 0.9238797 -0.3826829 0 0.3826836 -0.9238794 0 -0.3826836 -0.9238794 0 -0.9238791 -0.3826846 0 0 0 1 0 0 1 0 0 1 0 0 1 0 0 1 -0.9238791 0.3826846 0 -0.3826836 0.9238794 0 0 0 -1 0 0 -1 0 0 -1 0 0 -1 0 0 -1 -1 0 0 0 1 0 1 0 0 0 -1 0 0 0 -1 0 0 1</float_array>
          <technique_common>
            <accessor source="#stake_ribbon_orange_2m_a800-mesh-normals-array" count="68" stride="3">
              <param name="X" type="float"/>
              <param name="Y" type="float"/>
              <param name="Z" type="float"/>
            </accessor>
          </technique_common>
        </source>
        <source id="stake_ribbon_orange_2m_a800-mesh-map-0">
          <float_array id="stake_ribbon_orange_2m_a800-mesh-map-0-array" count="408">0.02160543 0.002004444 0.04932534 0.9979956 0.02160543 0.9979956 0.05333429 0.002004444 0.07293522 0.9979956 0.05333429 0.9979956 0.07293522 0.002004444 0.1006552 0.9979956 0.07293522 0.9979956 0.1046641 0.002004444 0.1242651 0.9979956 0.1046641 0.9979956 0.1242651 0.002004444 0.151985 0.9979956 0.1242651 0.9979956 0.1559939 0.002004444 0.1755949 0.9979956 0.1559939 0.9979956 0.2073238 0.04932534 0.2269247 0.002004444 0.2742457 0.02160537 0.1755949 0.002004444 0.2033149 0.9979956 0.1755949 0.9979956 0.002004444 0.002004444 0.02160543 0.9979956 0.002004444 0.9979956 0.2546447 0.07293522 0.2742457 0.1202561 0.2269247 0.1398571 0.02160543 0.002004444 0.04932534 0.9979956 0.02160543 0.9979956 0.05333429 0.002004444 0.07293522 0.9979956 0.05333429 0.9979956 0.07293522 0.002004444 0.1006552 0.9979956 0.07293522 0.9979956 0.1046641 0.002004444 0.1242651 0.9979956 0.1046641 0.9979956 0.1242651 0.002004444 0.151985 0.9979956 0.1242651 0.9979956 0.1559939 0.002004444 0.1755949 0.9979956 0.1559939 0.9979956 0.2742457 0.02160537 0.2742457 0.04932534 0.2546447 0.06892627 0.1755949 0.002004444 0.2033149 0.9979956 0.1755949 0.9979956 0.002004444 0.002004444 0.02160543 0.9979956 0.002004444 0.9979956 0.2546447 0.07293522 0.2742457 0.1202561 0.2269247 0.1398571 0.4399431 4.37038e-4 0.4401091 0.06155377 0.4399431 0.06155377 0.4375546 0.999563 0.4385096 4.37051e-4 0.4385096 0.999563 0.4399431 0.06242781 0.4401091 0.1235446 0.4399431 0.1235446 0.4386188 0.999563 0.4395738 4.37056e-4 0.4395738 0.999563 0.4397038 0.999563 0.439683 4.37057e-4 0.4397038 4.37057e-4 0.4398338 0.999563 0.4398131 4.37057e-4 0.4398338 4.37057e-4 0.02160543 0.002004444 0.04932534 0.002004444 0.04932534 0.9979956 0.05333429 0.002004444 0.07293522 0.002004444 0.07293522 0.9979956 0.07293522 0.002004444 0.1006552 0.002004444 0.1006552 0.9979956 0.1046641 0.002004444 0.1242651 0.002004444 0.1242651 0.9979956 0.1242651 0.002004444 0.151985 0.002004444 0.151985 0.9979956 0.1559939 0.002004444 0.1755949 0.002004444 0.1755949 0.9979956 0.2546447 0.06892627 0.2269247 0.06892627 0.2073238 0.04932534 0.2073238 0.04932534 0.2073238 0.02160537 0.2269247 0.002004444 0.2269247 0.002004444 0.2546447 0.002004444 0.2742457 0.02160537 0.2742457 0.02160537 0.2742457 0.04932534 0.2546447 0.06892627 0.2546447 0.06892627 0.2073238 0.04932534 0.2742457 0.02160537 0.1755949 0.002004444 0.2033149 0.002004444 0.2033149 0.9979956 0.002004444 0.002004444 0.02160543 0.002004444 0.02160543 0.9979956 0.2269247 0.1398571 0.2073238 0.1202561 0.2073238 0.09253621 0.2073238 0.09253621 0.2269247 0.07293522 0.2546447 0.07293522 0.2546447 0.07293522 0.2742457 0.09253621 0.2742457 0.1202561 0.2742457 0.1202561 0.2546447 0.1398571 0.2269247 0.1398571 0.2269247 0.1398571 0.2073238 0.09253621 0.2546447 0.07293522 0.02160543 0.002004444 0.04932534 0.002004444 0.04932534 0.9979956 0.05333429 0.002004444 0.07293522 0.002004444 0.07293522 0.9979956 0.07293522 0.002004444 0.1006552 0.002004444 0.1006552 0.9979956 0.1046641 0.002004444 0.1242651 0.002004444 0.1242651 0.9979956 0.1242651 0.002004444 0.151985 0.002004444 0.151985 0.9979956 0.1559939 0.002004444 0.1755949 0.002004444 0.1755949 0.9979956 0.2546447 0.06892627 0.2269247 0.06892627 0.2073238 0.04932534 0.2073238 0.04932534 0.2073238 0.02160537 0.2546447 0.06892627 0.2073238 0.02160537 0.2269247 0.002004444 0.2546447 0.06892627 0.2269247 0.002004444 0.2546447 0.002004444 0.2546447 0.06892627 0.2546447 0.002004444 0.2742457 0.02160537 0.2546447 0.06892627 0.1755949 0.002004444 0.2033149 0.002004444 0.2033149 0.9979956 0.002004444 0.002004444 0.02160543 0.002004444 0.02160543 0.9979956 0.2269247 0.1398571 0.2073238 0.1202561 0.2073238 0.09253621 0.2073238 0.09253621 0.2269247 0.07293522 0.2269247 0.1398571 0.2269247 0.07293522 0.2546447 0.07293522 0.2269247 0.1398571 0.2546447 0.07293522 0.2742457 0.09253621 0.2742457 0.1202561 0.2742457 0.1202561 0.2546447 0.1398571 0.2269247 0.1398571 0.4399431 4.37038e-4 0.4401091 4.37038e-4 0.4401091 0.06155377 0.4375546 0.999563 0.4375546 4.37046e-4 0.4385096 4.37051e-4 0.4399431 0.06242781 0.4401091 0.06242781 0.4401091 0.1235446 0.4386188 0.999563 0.4386188 4.37051e-4 0.4395738 4.37056e-4 0.4397038 0.999563 0.439683 0.999563 0.439683 4.37057e-4 0.4398338 0.999563 0.4398131 0.999563 0.4398131 4.37057e-4</float_array>
          <technique_common>
            <accessor source="#stake_ribbon_orange_2m_a800-mesh-map-0-array" count="204" stride="2">
              <param name="S" type="float"/>
              <param name="T" type="float"/>
            </accessor>
          </technique_common>
        </source>
        <vertices id="stake_ribbon_orange_2m_a800-mesh-vertices">
          <input semantic="POSITION" source="#stake_ribbon_orange_2m_a800-mesh-positions"/>
        </vertices>
        <triangles material="post_023-material" count="56">
          <input semantic="VERTEX" source="#stake_ribbon_orange_2m_a800-mesh-vertices" offset="0"/>
          <input semantic="NORMAL" source="#stake_ribbon_orange_2m_a800-mesh-normals" offset="1"/>
          <input semantic="TEXCOORD" source="#stake_ribbon_orange_2m_a800-mesh-map-0" offset="2" set="0"/>
          <p>1 0 0 2 0 1 0 0 2 3 1 3 4 1 4 2 1 5 5 2 6 6 2 7 4 2 8 7 3 9 8 3 10 6 3 11 9 4 12 10 4 13 8 4 14 11 5 15 12 5 16 10 5 17 1 6 18 13 6 19 9 6 20 13 7 21 14 7 22 12 7 23 15 8 24 0 8 25 14 8 26 6 9 27 10 9 28 14 9 29 17 10 30 18 10 31 16 10 32 19 11 33 20 11 34 18 11 35 21 12 36 22 12 37 20 12 38 23 13 39 24 13 40 22 13 41 25 14 42 26 14 43 24 14 44 27 15 45 28 15 46 26 15 47 25 16 48 23 16 49 21 16 50 29 17 51 30 17 52 28 17 53 31 18 54 16 18 55 30 18 56 22 19 57 26 19 58 30 19 59 1 26 78 3 26 79 2 26 80 3 27 81 5 27 82 4 27 83 5 28 84 7 28 85 6 28 86 7 29 87 9 29 88 8 29 89 9 30 90 11 30 91 10 30 92 11 31 93 13 31 94 12 31 95 5 32 96 3 32 97 1 32 98 1 33 99 15 33 100 13 33 101 13 34 102 11 34 103 9 34 104 9 35 105 7 35 106 5 35 107 5 36 108 1 36 109 9 36 110 13 37 111 15 37 112 14 37 113 15 38 114 1 38 115 0 38 116 14 39 117 0 39 118 2 39 119 2 40 120 4 40 121 6 40 122 6 41 123 8 41 124 10 41 125 10 42 126 12 42 127 14 42 128 14 43 129 2 43 130 6 43 131 17 44 132 19 44 133 18 44 134 19 45 135 21 45 136 20 45 137 21 46 138 23 46 139 22 46 140 23 47 141 25 47 142 24 47 143 25 48 144 27 48 145 26 48 146 27 49 147 29 49 148 28 49 149 21 50 150 19 50 151 17 50 152 17 51 153 31 51 154 21 51 155 31 52 156 29 52 157 21 52 158 29 53 159 27 53 160 21 53 161 27 54 162 25 54 163 21 54 164 29 55 165 31 55 166 30 55 167 31 56 168 17 56 169 16 56 170 30 57 171 16 57 172 18 57 173 18 58 174 20 58 175 30 58 176 20 59 177 22 59 178 30 59 179 22 60 180 24 60 181 26 60 182 26 61 183 28 61 184 30 61 185</p>
        </triangles>
        <triangles material="fence_023-material" count="12">
          <input semantic="VERTEX" source="#stake_ribbon_orange_2m_a800-mesh-vertices" offset="0"/>
          <input semantic="NORMAL" source="#stake_ribbon_orange_2m_a800-mesh-normals" offset="1"/>
          <input semantic="TEXCOORD" source="#stake_ribbon_orange_2m_a800-mesh-map-0" offset="2" set="0"/>
          <p>33 20 60 34 20 61 32 20 62 35 21 63 38 21 64 34 21 65 39 22 66 36 22 67 38 22 68 37 23 69 32 23 70 36 23 71 38 24 72 32 24 73 34 24 74 35 25 75 37 25 76 39 25 77 33 62 186 35 62 187 34 62 188 35 63 189 39 63 190 38 63 191 39 64 192 37 64 193 36 64 194 37 65 195 33 65 196 32 65 197 38 66 198 36 66 199 32 66 200 35 67 201 33 67 202 37 67 203</p>
        </triangles>
      </mesh>
    </geometry>
  </library_geometries>
  <library_visual_scenes>
    <visual_scene id="Scene" name="Scene">
      <node id="base00" name="base00" type="NODE">
        <matrix sid="transform">1 0 0 0 0 1 0 0 0 0 1 0 0 0 0 1</matrix>
        <node id="start01" name="start01" type="NODE">
          <matrix sid="transform">1 0 0 0 0 1 0 0 0 0 1 0 0 0 0 1</matrix>
          <node id="stake_ribbon_orange_2m_a800" name="stake_ribbon_orange_2m_a800" type="NODE">
            <matrix sid="transform">1 0 0 0 0 1 0 0 0 0 1 0 0 0 0 1</matrix>
            <instance_geometry url="#stake_ribbon_orange_2m_a800-mesh" name="stake_ribbon_orange_2m_a800">
              <bind_material>
                <technique_common>
                  <instance_material symbol="post_023-material" target="#post_023-material">
                    <bind_vertex_input semantic="UVMap" input_semantic="TEXCOORD" input_set="0"/>
                  </instance_material>
                  <instance_material symbol="fence_023-material" target="#fence_023-material">
                    <bind_vertex_input semantic="UVMap" input_semantic="TEXCOORD" input_set="0"/>
                  </instance_material>
                </technique_common>
              </bind_material>
            </instance_geometry>
          </node>
          <node id="stake_ribbon_orange_2m_a200" name="stake_ribbon_orange_2m_a200" type="NODE">
            <matrix sid="transform">1 0 0 0 0 1 0 0 0 0 1 0 0 0 0 1</matrix>
            <instance_geometry url="#stake_ribbon_orange_2m_a200-mesh" name="stake_ribbon_orange_2m_a200">
              <bind_material>
                <technique_common>
                  <instance_material symbol="post_023-material" target="#post_023-material">
                    <bind_vertex_input semantic="UVMap" input_semantic="TEXCOORD" input_set="0"/>
                  </instance_material>
                  <instance_material symbol="fence_023-material" target="#fence_023-material">
                    <bind_vertex_input semantic="UVMap" input_semantic="TEXCOORD" input_set="0"/>
                  </instance_material>
                </technique_common>
              </bind_material>
            </instance_geometry>
          </node>
          <node id="stake_ribbon_orange_2m_a50" name="stake_ribbon_orange_2m_a50" type="NODE">
            <matrix sid="transform">1 0 0 0 0 1 0 0 0 0 1 0 0 0 0 1</matrix>
            <instance_geometry url="#stake_ribbon_orange_2m_a50-mesh" name="stake_ribbon_orange_2m_a50">
              <bind_material>
                <technique_common>
                  <instance_material symbol="post_023-material" target="#post_023-material">
                    <bind_vertex_input semantic="UVMap" input_semantic="TEXCOORD" input_set="0"/>
                  </instance_material>
                </technique_common>
              </bind_material>
            </instance_geometry>
          </node>
          <node id="nulldetail20" name="nulldetail20" type="NODE">
            <matrix sid="transform">1 0 0 0 0 1 0 0 0 0 1 0 0 0 0 1</matrix>
          </node>
        </node>
        <node id="collision-1" name="collision-1" type="NODE">
          <matrix sid="transform">1 0 0 0 0 1 0 0 0 0 1 0 0 0 0 1</matrix>
          <node id="Colmesh_panel-1" name="Colmesh_panel-1" type="NODE">
            <matrix sid="transform">1 0 0 0 0 1 0 0 0 0 1 0 0 0 0 1</matrix>
            <instance_geometry url="#Colmesh_panel-1-mesh" name="Colmesh_panel-1">
              <bind_material>
                <technique_common>
                  <instance_material symbol="Colmesh_Material-material" target="#Colmesh_Material-material">
                    <bind_vertex_input semantic="UVMap" input_semantic="TEXCOORD" input_set="0"/>
                  </instance_material>
                </technique_common>
              </bind_material>
            </instance_geometry>
          </node>
        </node>
      </node>
    </visual_scene>
  </library_visual_scenes>
  <scene>
    <instance_visual_scene url="#Scene"/>
  </scene>
</COLLADA>