<?xml version="1.0" encoding="utf-8"?>
<COLLADA xmlns="http://www.collada.org/2005/11/COLLADASchema" version="1.4.1" xmlns:xsi="http://www.w3.org/2001/XMLSchema-instance">
  <asset>
    <contributor>
      <author>Blender User</author>
      <authoring_tool>Blender 4.2.9 LTS commit date:2025-04-14, commit time:12:24, hash:a10f621e649a</authoring_tool>
    </contributor>
    <created>2026-08-01T07:55:12</created>
    <modified>2026-08-01T07:55:12</modified>
    <unit name="meter" meter="1"/>
    <up_axis>Z_UP</up_axis>
  </asset>
  <library_effects>
    <effect id="pole_007-effect">
      <profile_COMMON>
        <newparam sid="flag_pole_png-surface">
          <surface type="2D">
            <init_from>flag_pole_png</init_from>
          </surface>
        </newparam>
        <newparam sid="flag_pole_png-sampler">
          <sampler2D>
            <source>flag_pole_png-surface</source>
          </sampler2D>
        </newparam>
        <technique sid="common">
          <lambert>
            <emission>
              <color sid="emission">0 0 0 1</color>
            </emission>
            <diffuse>
              <texture texture="flag_pole_png-sampler" texcoord="UVMap"/>
            </diffuse>
            <reflectivity>
              <float sid="specular">0.7</float>
            </reflectivity>
            <index_of_refraction>
              <float sid="ior">1.5</float>
            </index_of_refraction>
          </lambert>
        </technique>
      </profile_COMMON>
    </effect>
    <effect id="flag_001-effect">
      <profile_COMMON>
        <newparam sid="flag_blank_black_png-surface">
          <surface type="2D">
            <init_from>flag_blank_black_png</init_from>
          </surface>
        </newparam>
        <newparam sid="flag_blank_black_png-sampler">
          <sampler2D>
            <source>flag_blank_black_png-surface</source>
          </sampler2D>
        </newparam>
        <technique sid="common">
          <lambert>
            <emission>
              <color sid="emission">0 0 0 1</color>
            </emission>
            <diffuse>
              <texture texture="flag_blank_black_png-sampler" texcoord="UVMap"/>
            </diffuse>
            <index_of_refraction>
              <float sid="ior">1.5</float>
            </index_of_refraction>
          </lambert>
        </technique>
      </profile_COMMON>
    </effect>
    <effect id="Colmesh_Material-effect">
      <profile_COMMON>
        <technique sid="common">
          <lambert>
            <emission>
              <color sid="emission">0 0 0 1</color>
            </emission>
            <diffuse>
              <color sid="diffuse">1 0 1 1</color>
            </diffuse>
            <transparent opaque="A_ONE">
              <color sid="alpha">0 0 0 0.15</color>
            </transparent>
            <index_of_refraction>
              <float sid="ior">1.5</float>
            </index_of_refraction>
          </lambert>
        </technique>
      </profile_COMMON>
    </effect>
  </library_effects>
  <library_images>
    <image id="flag_blank_black_png" name="flag_blank_black_png">
      <init_from>flag_blank_black.png</init_from>
    </image>
    <image id="flag_pole_png" name="flag_pole_png">
      <init_from>flag_pole.png</init_from>
    </image>
  </library_images>
  <library_materials>
    <material id="pole_007-material" name="pole.007">
      <instance_effect url="#pole_007-effect"/>
    </material>
    <material id="flag_001-material" name="flag.001">
      <instance_effect url="#flag_001-effect"/>
    </material>
    <material id="Colmesh_Material-material" name="Colmesh_Material">
      <instance_effect url="#Colmesh_Material-effect"/>
    </material>
  </library_materials>
  <library_geometries>
    <geometry id="featherflag_blank_black_a50-mesh" name="featherflag_blank_black_a50">
      <mesh>
        <source id="featherflag_blank_black_a50-mesh-positions">
          <float_array id="featherflag_blank_black_a50-mesh-positions-array" count="24">-0.3791192 0 -0.04199999 0.3908322 0 -0.04199999 0.3908322 0 4.242 -0.3791192 0 4.242 0.005856513 -0.3849757 -0.04199999 0.005856513 0.3849757 -0.04199999 0.005856513 0.3849757 4.242 0.005856513 -0.3849757 4.242</float_array>
          <technique_common>
            <accessor source="#featherflag_blank_black_a50-mesh-positions-array" count="8" stride="3">
              <param name="X" type="float"/>
              <param name="Y" type="float"/>
              <param name="Z" type="float"/>
            </accessor>
          </technique_common>
        </source>
        <source id="featherflag_blank_black_a50-mesh-normals">
          <float_array id="featherflag_blank_black_a50-mesh-normals-array" count="12">0 -1 0 1 0 0 0 -1 0 1 0 0</float_array>
          <technique_common>
            <accessor source="#featherflag_blank_black_a50-mesh-normals-array" count="4" stride="3">
              <param name="X" type="float"/>
              <param name="Y" type="float"/>
              <param name="Z" type="float"/>
            </accessor>
          </technique_common>
        </source>
        <source id="featherflag_blank_black_a50-mesh-map-0">
          <float_array id="featherflag_blank_black_a50-mesh-map-0-array" count="24">1 0 0 1 0 0 1 0 0 1 0 0 1 0 1 1 0 1 1 0 1 1 0 1</float_array>
          <technique_common>
            <accessor source="#featherflag_blank_black_a50-mesh-map-0-array" count="12" stride="2">
              <param name="S" type="float"/>
              <param name="T" type="float"/>
            </accessor>
          </technique_common>
        </source>
        <vertices id="featherflag_blank_black_a50-mesh-vertices">
          <input semantic="POSITION" source="#featherflag_blank_black_a50-mesh-positions"/>
        </vertices>
        <triangles material="pole_007-material" count="4">
          <input semantic="VERTEX" source="#featherflag_blank_black_a50-mesh-vertices" offset="0"/>
          <input semantic="NORMAL" source="#featherflag_blank_black_a50-mesh-normals" offset="1"/>
          <input semantic="TEXCOORD" source="#featherflag_blank_black_a50-mesh-map-0" offset="2" set="0"/>
          <p>1 0 0 3 0 1 0 0 2 5 1 3 7 1 4 4 1 5 1 2 6 2 2 7 3 2 8 5 3 9 6 3 10 7 3 11</p>
        </triangles>
      </mesh>
    </geometry>
    <geometry id="featherflag_blank_black_a200-mesh" name="featherflag_blank_black_a200">
      <mesh>
        <source id="featherflag_blank_black_a200-mesh-positions">
          <float_array id="featherflag_blank_black_a200-mesh-positions-array" count="48">-0.3365117 0.03511083 4.2 -0.3069275 0.02831554 0 -0.3069275 0.02831554 4.2 -0.2913228 0.002279162 0 -0.2913228 -0.002279162 4.2 -0.3069275 -0.02831554 0 -0.3069275 -0.02831554 4.2 -0.3365117 -0.03511083 0 -0.340847 -0.03370219 4.2 -0.3636772 -0.002279162 0 -0.3636772 0.002279162 4.2 -0.340847 0.03370219 0 -0.3275 0.00333333 3.704 -0.3275 -0.00333333 1.504 0.3725 0.00333333 1.504 0.3725 -0.00333333 3.704</float_array>
          <technique_common>
            <accessor source="#featherflag_blank_black_a200-mesh-positions-array" count="16" stride="3">
              <param name="X" type="float"/>
              <param name="Y" type="float"/>
              <param name="Z" type="float"/>
            </accessor>
          </technique_common>
        </source>
        <source id="featherflag_blank_black_a200-mesh-normals">
          <float_array id="featherflag_blank_black_a200-mesh-normals-array" count="72">-0.7704581 0.6374903 5.8147e-4 -0.009523332 0.9999501 0.003030121 0.2238625 0.9746208 0 0.8908193 0.4543575 4.93128e-4 0.8577418 -0.5140806 0 0.156841 -0.9876237 4.93127e-4 -0.8443737 -0.5357545 5.81472e-4 0 0 1 0 0 -1 0.009523332 -0.9999501 0.003030121 -0.8443737 0.5357545 -5.81472e-4 0.009523332 0.9999501 -0.003030121 0.156841 0.9876237 -4.93127e-4 0.8577418 0.5140806 0 0.8908193 -0.4543575 -4.93128e-4 0.2238625 -0.9746208 0 -0.7704581 -0.6374903 -5.8147e-4 0 0 1 0 0 1 0 0 1 0 0 -1 0 0 -1 0 0 -1 -0.009523332 -0.9999501 -0.003030121</float_array>
          <technique_common>
            <accessor source="#featherflag_blank_black_a200-mesh-normals-array" count="24" stride="3">
              <param name="X" type="float"/>
              <param name="Y" type="float"/>
              <param name="Z" type="float"/>
            </accessor>
          </technique_common>
        </source>
        <source id="featherflag_blank_black_a200-mesh-map-0">
          <float_array id="featherflag_blank_black_a200-mesh-map-0-array" count="144">0.05191516 0.5623857 0.04572737 0.4376142 0.05191516 0.4376142 0.002836585 0.6242908 0.3192133 0.3757092 0.3192133 0.6242908 0.01021379 0.5623857 0.003431618 0.4376142 0.01021379 0.4376142 0.01437288 0.5623857 0.01021379 0.4376142 0.01437288 0.4376142 0.04078739 0.5623857 0.0345996 0.4376142 0.04078739 0.4376142 0.02238851 0.5623857 0.01620066 0.4376142 0.02347183 0.4376142 0.02965968 0.5623857 0.02347183 0.4376142 0.02965968 0.4376142 0.06654322 0.4378128 0.06654322 0.4394952 0.053743 0.4387217 0.05676472 0.4418032 0.05676472 0.4401208 0.06956493 0.4408943 0.3248866 0.6242908 0.6412633 0.3757092 0.6412633 0.6242908 0.05191516 0.5623857 0.04464399 0.5623857 0.04572737 0.4376142 0.002836585 0.6242908 0.002836585 0.3757092 0.3192133 0.3757092 0.01021379 0.5623857 0.002555191 0.5623857 0.003431618 0.4376142 0.01437288 0.5623857 0.01021379 0.5623857 0.01021379 0.4376142 0.04078739 0.5623857 0.03351622 0.5623857 0.0345996 0.4376142 0.02238851 0.5623857 0.01620066 0.5623857 0.01620066 0.4376142 0.02965968 0.5623857 0.02238851 0.5623857 0.02347183 0.4376142 0.05869418 0.4377344 0.06654322 0.4378128 0.053743 0.4387217 0.06654322 0.4378128 0.06956493 0.4385863 0.06654322 0.4394952 0.053743 0.4387217 0.06654322 0.4394952 0.0597245 0.4396154 0.06956493 0.4408943 0.06461375 0.4418815 0.05676472 0.4418032 0.05676472 0.4418032 0.053743 0.4410297 0.05676472 0.4401208 0.05676472 0.4401208 0.06358343 0.4400006 0.06956493 0.4408943 0.3248866 0.6242908 0.3248866 0.3757092 0.6412633 0.3757092</float_array>
          <technique_common>
            <accessor source="#featherflag_blank_black_a200-mesh-map-0-array" count="72" stride="2">
              <param name="S" type="float"/>
              <param name="T" type="float"/>
            </accessor>
          </technique_common>
        </source>
        <vertices id="featherflag_blank_black_a200-mesh-vertices">
          <input semantic="POSITION" source="#featherflag_blank_black_a200-mesh-positions"/>
        </vertices>
        <triangles material="pole_007-material" count="20">
          <input semantic="VERTEX" source="#featherflag_blank_black_a200-mesh-vertices" offset="0"/>
          <input semantic="NORMAL" source="#featherflag_blank_black_a200-mesh-normals" offset="1"/>
          <input semantic="TEXCOORD" source="#featherflag_blank_black_a200-mesh-map-0" offset="2" set="0"/>
          <p>11 0 0 10 0 1 0 0 2 1 2 6 0 2 7 2 2 8 3 3 9 2 3 10 4 3 11 5 4 12 4 4 13 6 4 14 7 5 15 6 5 16 8 5 17 9 6 18 8 6 19 10 6 20 6 7 21 2 7 22 10 7 23 1 8 24 5 8 25 9 8 26 11 10 30 9 10 31 10 10 32 1 12 36 11 12 37 0 12 38 3 13 39 1 13 40 2 13 41 5 14 42 3 14 43 4 14 44 7 15 45 5 15 46 6 15 47 9 16 48 7 16 49 8 16 50 8 17 51 6 17 52 10 17 53 6 18 54 4 18 55 2 18 56 10 19 57 2 19 58 0 19 59 9 20 60 11 20 61 1 20 62 1 21 63 3 21 64 5 21 65 5 22 66 7 22 67 9 22 68</p>
        </triangles>
        <triangles material="flag_001-material" count="4">
          <input semantic="VERTEX" source="#featherflag_blank_black_a200-mesh-vertices" offset="0"/>
          <input semantic="NORMAL" source="#featherflag_blank_black_a200-mesh-normals" offset="1"/>
          <input semantic="TEXCOORD" source="#featherflag_blank_black_a200-mesh-map-0" offset="2" set="0"/>
          <p>13 1 3 15 1 4 14 1 5 14 9 27 12 9 28 13 9 29 13 11 33 12 11 34 15 11 35 14 23 69 15 23 70 12 23 71</p>
        </triangles>
      </mesh>
    </geometry>
    <geometry id="Colmesh_pole-1-mesh" name="Colmesh_pole-1">
      <mesh>
        <source id="Colmesh_pole-1-mesh-positions">
          <float_array id="Colmesh_pole-1-mesh-positions-array" count="48">-0.3275 0.04499995 0 -0.3275 0.04499995 4.2 -0.2956802 0.03181976 0 -0.2956802 0.03181976 4.2 -0.2825 0 0 -0.2825 0 4.2 -0.2956802 -0.03181976 0 -0.2956802 -0.03181976 4.2 -0.3275 -0.04499995 0 -0.3275 -0.04499995 4.2 -0.3593198 -0.03181976 0 -0.3593198 -0.03181976 4.2 -0.3725 0 0 -0.3725 0 4.2 -0.3593198 0.03181976 0 -0.3593198 0.03181976 4.2</float_array>
          <technique_common>
            <accessor source="#Colmesh_pole-1-mesh-positions-array" count="16" stride="3">
              <param name="X" type="float"/>
              <param name="Y" type="float"/>
              <param name="Z" type="float"/>
            </accessor>
          </technique_common>
        </source>
        <source id="Colmesh_pole-1-mesh-normals">
          <float_array id="Colmesh_pole-1-mesh-normals-array" count="84">0.3826833 0.9238796 0 0.9238796 0.3826835 0 0.9238796 -0.3826835 0 0.3826833 -0.9238796 0 -0.3826833 -0.9238796 0 -0.9238796 -0.3826835 0 0 0 1 -0.9238796 0.3826835 0 -0.3826833 0.9238796 0 0 0 -1 0.3826833 0.9238796 0 0.9238796 0.3826835 0 0.9238796 -0.3826835 0 0.3826833 -0.9238796 0 -0.3826833 -0.9238796 0 -0.9238796 -0.3826835 0 0 0 1 0 0 1 0 0 1 0 0 1 0 0 1 -0.9238796 0.3826835 0 -0.3826833 0.9238796 0 0 0 -1 0 0 -1 0 0 -1 0 0 -1 0 0 -1</float_array>
          <technique_common>
            <accessor source="#Colmesh_pole-1-mesh-normals-array" count="28" stride="3">
              <param name="X" type="float"/>
              <param name="Y" type="float"/>
              <param name="Z" type="float"/>
            </accessor>
          </technique_common>
        </source>
        <source id="Colmesh_pole-1-mesh-map-0">
          <float_array id="Colmesh_pole-1-mesh-map-0-array" count="168">1 1 0.875 0.5 1 0.5 0.875 1 0.75 0.5 0.875 0.5 0.75 1 0.625 0.5 0.75 0.5 0.625 1 0.5 0.5 0.625 0.5 0.5 1 0.375 0.5 0.5 0.5 0.375 1 0.25 0.5 0.375 0.5 0.25 0.49 0.00999999 0.25 0.25 0.00999999 0.25 1 0.125 0.5 0.25 0.5 0.125 1 0 0.5 0.125 0.5 0.5802944 0.08029437 0.51 0.25 0.5802944 0.4197056 1 1 0.875 1 0.875 0.5 0.875 1 0.75 1 0.75 0.5 0.75 1 0.625 1 0.625 0.5 0.625 1 0.5 1 0.5 0.5 0.5 1 0.375 1 0.375 0.5 0.375 1 0.25 1 0.25 0.5 0.49 0.25 0.4197056 0.4197056 0.25 0.49 0.25 0.49 0.08029437 0.4197056 0.00999999 0.25 0.00999999 0.25 0.08029437 0.08029437 0.25 0.00999999 0.25 0.00999999 0.4197056 0.08029437 0.49 0.25 0.49 0.25 0.25 0.49 0.25 0.00999999 0.25 1 0.125 1 0.125 0.5 0.125 1 0 1 0 0.5 0.5802944 0.4197056 0.75 0.49 0.9197056 0.08029437 0.75 0.49 0.9197056 0.4197056 0.9197056 0.08029437 0.9197056 0.4197056 0.99 0.25 0.9197056 0.08029437 0.9197056 0.08029437 0.75 0.00999999 0.5802944 0.4197056 0.75 0.00999999 0.5802944 0.08029437 0.5802944 0.4197056</float_array>
          <technique_common>
            <accessor source="#Colmesh_pole-1-mesh-map-0-array" count="84" stride="2">
              <param name="S" type="float"/>
              <param name="T" type="float"/>
            </accessor>
          </technique_common>
        </source>
        <vertices id="Colmesh_pole-1-mesh-vertices">
          <input semantic="POSITION" source="#Colmesh_pole-1-mesh-positions"/>
        </vertices>
        <triangles material="Colmesh_Material-material" count="28">
          <input semantic="VERTEX" source="#Colmesh_pole-1-mesh-vertices" offset="0"/>
          <input semantic="NORMAL" source="#Colmesh_pole-1-mesh-normals" offset="1"/>
          <input semantic="TEXCOORD" source="#Colmesh_pole-1-mesh-map-0" offset="2" set="0"/>
          <p>1 0 0 2 0 1 0 0 2 3 1 3 4 1 4 2 1 5 5 2 6 6 2 7 4 2 8 7 3 9 8 3 10 6 3 11 9 4 12 10 4 13 8 4 14 11 5 15 12 5 16 10 5 17 1 6 18 13 6 19 9 6 20 13 7 21 14 7 22 12 7 23 15 8 24 0 8 25 14 8 26 10 9 27 12 9 28 14 9 29 1 10 30 3 10 31 2 10 32 3 11 33 5 11 34 4 11 35 5 12 36 7 12 37 6 12 38 7 13 39 9 13 40 8 13 41 9 14 42 11 14 43 10 14 44 11 15 45 13 15 46 12 15 47 5 16 48 3 16 49 1 16 50 1 17 51 15 17 52 13 17 53 13 18 54 11 18 55 9 18 56 9 19 57 7 19 58 5 19 59 5 20 60 1 20 61 9 20 62 13 21 63 15 21 64 14 21 65 15 22 66 1 22 67 0 22 68 14 23 69 0 23 70 6 23 71 0 24 72 2 24 73 6 24 74 2 25 75 4 25 76 6 25 77 6 26 78 8 26 79 14 26 80 8 27 81 10 27 82 14 27 83</p>
        </triangles>
      </mesh>
    </geometry>
    <geometry id="featherflag_blank_black_a800-mesh" name="featherflag_blank_black_a800">
      <mesh>
        <source id="featherflag_blank_black_a800-mesh-positions">
          <float_array id="featherflag_blank_black_a800-mesh-positions-array" count="84">-0.3275 0.03499996 0 -0.3275 0.03499996 4.2 -0.3069275 0.02831554 0 -0.3069275 0.02831554 4.2 -0.294213 0.01081556 0 -0.294213 0.01081556 4.2 -0.294213 -0.01081556 0 -0.294213 -0.01081556 4.2 -0.3069275 -0.02831554 0 -0.3069275 -0.02831554 4.2 -0.3275 -0.03499996 0 -0.3275 -0.03499996 4.2 -0.3480725 -0.02831554 0 -0.3480725 -0.02831554 4.2 -0.360787 -0.01081556 0 -0.360787 -0.01081556 4.2 -0.360787 0.01081556 0 -0.360787 0.01081556 4.2 -0.3480725 0.02831554 0 -0.3480725 0.02831554 4.2 -0.3275 -0.00999999 1.504 -0.3275 -0.00999999 3.704 -0.3275 0.00999999 1.504 -0.3275 0.00999999 3.704 0.3725 -0.00999999 1.504 0.3725 -0.00999999 3.704 0.3725 0.00999999 1.504 0.3725 0.00999999 3.704</float_array>
          <technique_common>
            <accessor source="#featherflag_blank_black_a800-mesh-positions-array" count="28" stride="3">
              <param name="X" type="float"/>
              <param name="Y" type="float"/>
              <param name="Z" type="float"/>
            </accessor>
          </technique_common>
        </source>
        <source id="featherflag_blank_black_a800-mesh-normals">
          <float_array id="featherflag_blank_black_a800-mesh-normals-array" count="144">0.309017 0.9510565 0 0.8090167 0.5877856 0 1 0 0 0.8090167 -0.5877856 0 0.309017 -0.9510565 0 -0.309017 -0.9510565 0 -0.8090167 -0.5877856 0 -1 0 0 0 0 1 -0.8090167 0.5877856 0 -0.309017 0.9510565 0 0 0 -1 -1 0 0 0 1 0 1 0 0 0 -1 0 0 0 -1 0 0 1 0.309017 0.9510565 0 0.8090167 0.5877856 0 1 0 0 0.8090167 -0.5877856 0 0.309017 -0.9510565 0 -0.309017 -0.9510565 0 -0.8090167 -0.5877856 0 -1 0 0 0 0 1 0 0 1 0 0 1 0 0 1 0 0 1 0 0 1 0 0 1 -0.8090167 0.5877856 0 -0.309017 0.9510565 0 0 0 -1 0 0 -1 0 0 -1 0 0 -1 0 0 -1 0 0 -1 0 0 -1 -1 0 0 0 1 0 1 0 0 0 -1 0 0 0 -1 0 0 1</float_array>
          <technique_common>
            <accessor source="#featherflag_blank_black_a800-mesh-normals-array" count="48" stride="3">
              <param name="X" type="float"/>
              <param name="Y" type="float"/>
              <param name="Z" type="float"/>
            </accessor>
          </technique_common>
        </source>
        <source id="featherflag_blank_black_a800-mesh-map-0">
          <float_array id="featherflag_blank_black_a800-mesh-map-0-array" count="288">0.005072951 0.4376142 0.01021379 0.5623857 0.005072951 0.5623857 0.01021379 0.4376142 0.01437288 0.5623857 0.01021379 0.5623857 0.03148746 0.4376142 0.03662836 0.5623857 0.03148746 0.5623857 0.03662836 0.4376142 0.04078739 0.5623857 0.03662836 0.5623857 0.01620066 0.4376142 0.02035975 0.5623857 0.01620066 0.5623857 0.02035975 0.4376142 0.02550059 0.5623857 0.02035975 0.5623857 0.02550059 0.4376142 0.02965968 0.5623857 0.02550059 0.5623857 0.04261523 0.4376142 0.04775613 0.5623857 0.04261523 0.5623857 0.053743 0.4389753 0.05676472 0.4378128 0.06654322 0.4378128 0.04775613 0.4376142 0.05191516 0.5623857 0.04775613 0.5623857 9.13914e-4 0.4376142 0.005072951 0.5623857 9.13914e-4 0.5623857 0.06165397 0.4399222 0.06956493 0.4406407 0.06654322 0.4418032 0.6469365 0.3757092 0.6559758 0.6242908 0.6469365 0.6242908 0.002836585 0.3757092 0.3192133 0.6242908 0.002836585 0.6242908 0.6616491 0.3757092 0.6706884 0.6242908 0.6616491 0.6242908 0.3248866 0.3757092 0.6412633 0.6242908 0.3248866 0.6242908 0.7125189 0.3954827 0.6763616 0.3757091 0.712519 0.3757091 0.712519 0.4166746 0.6763617 0.396901 0.712519 0.396901 0.005072951 0.4376142 0.01021379 0.4376142 0.01021379 0.5623857 0.01021379 0.4376142 0.01437288 0.4376142 0.01437288 0.5623857 0.03148746 0.4376142 0.03662836 0.4376142 0.03662836 0.5623857 0.03662836 0.4376142 0.04078739 0.4376142 0.04078739 0.5623857 0.01620066 0.4376142 0.02035975 0.4376142 0.02035975 0.5623857 0.02035975 0.4376142 0.02550059 0.4376142 0.02550059 0.5623857 0.02550059 0.4376142 0.02965968 0.4376142 0.02965968 0.5623857 0.04261523 0.4376142 0.04775613 0.4376142 0.04775613 0.5623857 0.06956493 0.4389753 0.06654322 0.4394952 0.06165397 0.4396938 0.06165397 0.4396938 0.05676472 0.4394952 0.053743 0.4389753 0.053743 0.4389753 0.053743 0.4383327 0.05676472 0.4378128 0.05676472 0.4378128 0.06165397 0.4376142 0.06654322 0.4378128 0.06654322 0.4378128 0.06956493 0.4383327 0.06956493 0.4389753 0.06956493 0.4389753 0.06165397 0.4396938 0.06654322 0.4378128 0.06165397 0.4396938 0.053743 0.4389753 0.06654322 0.4378128 0.04775613 0.4376142 0.05191516 0.4376142 0.05191516 0.5623857 9.13914e-4 0.4376142 0.005072951 0.4376142 0.005072951 0.5623857 0.06654322 0.4418032 0.06165397 0.4420018 0.05676472 0.4418032 0.05676472 0.4418032 0.053743 0.4412833 0.053743 0.4406407 0.053743 0.4406407 0.05676472 0.4401208 0.06165397 0.4399222 0.06165397 0.4399222 0.06654322 0.4401208 0.06956493 0.4406407 0.06956493 0.4406407 0.06956493 0.4412833 0.06654322 0.4418032 0.06654322 0.4418032 0.05676472 0.4418032 0.053743 0.4406407 0.053743 0.4406407 0.06165397 0.4399222 0.06654322 0.4418032 0.6469365 0.3757092 0.6559758 0.3757092 0.6559758 0.6242908 0.002836585 0.3757092 0.3192133 0.3757092 0.3192133 0.6242908 0.6616491 0.3757092 0.6706884 0.3757092 0.6706884 0.6242908 0.3248866 0.3757092 0.6412633 0.3757092 0.6412633 0.6242908 0.7125189 0.3954827 0.6763616 0.3954827 0.6763616 0.3757091 0.712519 0.4166746 0.6763617 0.4166746 0.6763617 0.396901</float_array>
          <technique_common>
            <accessor source="#featherflag_blank_black_a800-mesh-map-0-array" count="144" stride="2">
              <param name="S" type="float"/>
              <param name="T" type="float"/>
            </accessor>
          </technique_common>
        </source>
        <vertices id="featherflag_blank_black_a800-mesh-vertices">
          <input semantic="POSITION" source="#featherflag_blank_black_a800-mesh-positions"/>
        </vertices>
        <triangles material="pole_007-material" count="36">
          <input semantic="VERTEX" source="#featherflag_blank_black_a800-mesh-vertices" offset="0"/>
          <input semantic="NORMAL" source="#featherflag_blank_black_a800-mesh-normals" offset="1"/>
          <input semantic="TEXCOORD" source="#featherflag_blank_black_a800-mesh-map-0" offset="2" set="0"/>
          <p>1 0 0 2 0 1 0 0 2 3 1 3 4 1 4 2 1 5 5 2 6 6 2 7 4 2 8 7 3 9 8 3 10 6 3 11 9 4 12 10 4 13 8 4 14 11 5 15 12 5 16 10 5 17 13 6 18 14 6 19 12 6 20 15 7 21 16 7 22 14 7 23 17 8 24 13 8 25 9 8 26 17 9 27 18 9 28 16 9 29 19 10 30 0 10 31 18 10 32 10 11 33 14 11 34 18 11 35 1 18 54 3 18 55 2 18 56 3 19 57 5 19 58 4 19 59 5 20 60 7 20 61 6 20 62 7 21 63 9 21 64 8 21 65 9 22 66 11 22 67 10 22 68 11 23 69 13 23 70 12 23 71 13 24 72 15 24 73 14 24 74 15 25 75 17 25 76 16 25 77 5 26 78 3 26 79 1 26 80 1 27 81 19 27 82 17 27 83 17 28 84 15 28 85 13 28 86 13 29 87 11 29 88 9 29 89 9 30 90 7 30 91 5 30 92 5 31 93 1 31 94 9 31 95 1 32 96 17 32 97 9 32 98 17 33 99 19 33 100 18 33 101 19 34 102 1 34 103 0 34 104 18 35 105 0 35 106 2 35 107 2 36 108 4 36 109 6 36 110 6 37 111 8 37 112 10 37 113 10 38 114 12 38 115 14 38 116 14 39 117 16 39 118 18 39 119 18 40 120 2 40 121 6 40 122 6 41 123 10 41 124 18 41 125</p>
        </triangles>
        <triangles material="flag_001-material" count="12">
          <input semantic="VERTEX" source="#featherflag_blank_black_a800-mesh-vertices" offset="0"/>
          <input semantic="NORMAL" source="#featherflag_blank_black_a800-mesh-normals" offset="1"/>
          <input semantic="TEXCOORD" source="#featherflag_blank_black_a800-mesh-map-0" offset="2" set="0"/>
          <p>21 12 36 22 12 37 20 12 38 23 13 39 26 13 40 22 13 41 27 14 42 24 14 43 26 14 44 25 15 45 20 15 46 24 15 47 26 16 48 20 16 49 22 16 50 23 17 51 25 17 52 27 17 53 21 42 126 23 42 127 22 42 128 23 43 129 27 43 130 26 43 131 27 44 132 25 44 133 24 44 134 25 45 135 21 45 136 20 45 137 26 46 138 24 46 139 20 46 140 23 47 141 21 47 142 25 47 143</p>
        </triangles>
      </mesh>
    </geometry>
  </library_geometries>
  <library_visual_scenes>
    <visual_scene id="Scene" name="Scene">
      <node id="base00" name="base00" type="NODE">
        <matrix sid="transform">1 0 0 0 0 1 0 0 0 0 1 0 0 0 0 1</matrix>
        <node id="start01" name="start01" type="NODE">
          <matrix sid="transform">1 0 0 0 0 1 0 0 0 0 1 0 0 0 0 1</matrix>
          <node id="featherflag_blank_black_a800" name="featherflag_blank_black_a800" type="NODE">
            <matrix sid="transform">1 0 0 0 0 1 0 0 0 0 1 0 0 0 0 1</matrix>
            <instance_geometry url="#featherflag_blank_black_a800-mesh" name="featherflag_blank_black_a800">
              <bind_material>
                <technique_common>
                  <instance_material symbol="pole_007-material" target="#pole_007-material">
                    <bind_vertex_input semantic="UVMap" input_semantic="TEXCOORD" input_set="0"/>
                  </instance_material>
                  <instance_material symbol="flag_001-material" target="#flag_001-material">
                    <bind_vertex_input semantic="UVMap" input_semantic="TEXCOORD" input_set="0"/>
                  </instance_material>
                </technique_common>
              </bind_material>
            </instance_geometry>
          </node>
          <node id="featherflag_blank_black_a200" name="featherflag_blank_black_a200" type="NODE">
            <matrix sid="transform">1 0 0 0 0 1 0 0 0 0 1 0 0 0 0 1</matrix>
            <instance_geometry url="#featherflag_blank_black_a200-mesh" name="featherflag_blank_black_a200">
              <bind_material>
                <technique_common>
                  <instance_material symbol="pole_007-material" target="#pole_007-material">
                    <bind_vertex_input semantic="UVMap" input_semantic="TEXCOORD" input_set="0"/>
                  </instance_material>
                  <instance_material symbol="flag_001-material" target="#flag_001-material">
                    <bind_vertex_input semantic="UVMap" input_semantic="TEXCOORD" input_set="0"/>
                  </instance_material>
                </technique_common>
              </bind_material>
            </instance_geometry>
          </node>
          <node id="featherflag_blank_black_a50" name="featherflag_blank_black_a50" type="NODE">
            <matrix sid="transform">1 0 0 0 0 1 0 0 0 0 1 0 0 0 0 1</matrix>
            <instance_geometry url="#featherflag_blank_black_a50-mesh" name="featherflag_blank_black_a50">
              <bind_material>
                <technique_common>
                  <instance_material symbol="pole_007-material" target="#pole_007-material">
                    <bind_vertex_input semantic="UVMap" input_semantic="TEXCOORD" input_set="0"/>
                  </instance_material>
                </technique_common>
              </bind_material>
            </instance_geometry>
          </node>
          <node id="nulldetail20" name="nulldetail20" type="NODE">
            <matrix sid="transform">1 0 0 0 0 1 0 0 0 0 1 0 0 0 0 1</matrix>
          </node>
        </node>
        <node id="collision-1" name="collision-1" type="NODE">
          <matrix sid="transform">1 0 0 0 0 1 0 0 0 0 1 0 0 0 0 1</matrix>
          <node id="Colmesh_pole-1" name="Colmesh_pole-1" type="NODE">
            <matrix sid="transform">1 0 0 0 0 1 0 0 0 0 1 0 0 0 0 1</matrix>
            <instance_geometry url="#Colmesh_pole-1-mesh" name="Colmesh_pole-1">
              <bind_material>
                <technique_common>
                  <instance_material symbol="Colmesh_Material-material" target="#Colmesh_Material-material">
                    <bind_vertex_input semantic="UVMap" input_semantic="TEXCOORD" input_set="0"/>
                  </instance_material>
                </technique_common>
              </bind_material>
            </instance_geometry>
          </node>
        </node>
      </node>
    </visual_scene>
  </library_visual_scenes>
  <scene>
    <instance_visual_scene url="#Scene"/>
  </scene>
</COLLADA>